<svg width="134" height="48" viewBox="0 0 134 48" fill="none" xmlns="http://www.w3.org/2000/svg">
<g clip-path="url(#clip0_1_19)">
<path d="M39.1163 38.7976C39.4144 38.5418 39.7992 38.4074 40.1932 38.4216C40.5872 38.4357 40.9612 38.5972 41.24 38.8737C41.5188 39.1503 41.6817 39.5212 41.6959 39.912C41.7102 40.3028 41.5747 40.6845 41.3167 40.9802C36.7756 45.4759 30.6216 48.0008 24.2055 48.0008C17.7893 48.0008 11.6354 45.4759 7.0942 40.9802C4.84592 38.7521 3.06238 36.1064 1.84551 33.1942C0.62865 30.2821 0.00231934 27.1607 0.00231934 24.0084C0.00231934 20.856 0.62865 17.7346 1.84551 14.8225C3.06238 11.9104 4.84592 9.26464 7.0942 7.03653C9.34061 4.80657 12.0081 3.03756 14.9441 1.83062C17.8802 0.623668 21.0272 0.00244141 24.2055 0.00244141C27.3837 0.00244141 30.5308 0.623668 33.4668 1.83062C36.4029 3.03756 39.0703 4.80657 41.3167 7.03653C41.4789 7.17562 41.6103 7.34636 41.703 7.53809C41.7956 7.72982 41.8474 7.93843 41.8551 8.1509C41.8629 8.36337 41.8264 8.57514 41.7479 8.773C41.6695 8.97086 41.5508 9.15056 41.3992 9.3009C41.2477 9.45123 41.0665 9.56898 40.867 9.64678C40.6675 9.72458 40.454 9.76077 40.2398 9.75309C40.0256 9.74542 39.8152 9.69404 39.6219 9.60216C39.4286 9.51028 39.2565 9.37988 39.1163 9.21909C37.1605 7.27284 34.8366 5.72862 32.2779 4.67496C29.7192 3.6213 26.9759 3.07892 24.2055 3.07892C21.435 3.07892 18.6918 3.6213 16.1331 4.67496C13.5744 5.72862 11.2505 7.27284 9.29469 9.21909C7.33637 11.1611 5.78293 13.4668 4.72307 16.0043C3.66322 18.5419 3.11772 21.2617 3.11772 24.0084C3.11772 26.7551 3.66322 29.4748 4.72307 32.0124C5.78293 34.55 7.33637 36.8556 9.29469 38.7976C11.2527 40.74 13.5773 42.2808 16.1357 43.332C18.6941 44.3832 21.4362 44.9243 24.2055 44.9243C26.9747 44.9243 29.7169 44.3832 32.2753 43.332C34.8337 42.2808 37.1583 40.74 39.1163 38.7976Z" fill="#FF9900"/>
<path d="M30.577 16.858V31.0772H33.6478V26.4026H35.9797C39.4446 26.4026 42.1706 25.3113 42.1706 21.6303C42.1706 17.9492 39.4118 16.858 35.9797 16.858H30.577ZM39.0341 21.6303C39.0341 23.259 37.7039 23.7314 36.1275 23.7314H33.6478V19.5454H36.1275C37.7696 19.5454 39.0341 19.9526 39.0341 21.6303ZM47.2449 31.0772V26.0605H49.511L53.3701 30.9469H56.9172L52.6311 25.5882C53.5556 25.3724 54.3776 24.849 54.9603 24.1051C55.543 23.3612 55.8511 22.4418 55.8333 21.5C55.8333 17.9004 52.9267 16.858 50.1515 16.858H44.2397V31.0772H47.2449ZM47.2449 19.5454H50.25C51.5473 19.5454 52.664 20.0992 52.664 21.5488C52.664 22.9984 51.5473 23.5685 50.25 23.5685H47.2777V19.5454H47.2449ZM62.5498 20.6204C62.5498 25.6533 70.3829 24.6598 70.3829 27.331C70.3829 28.3408 69.3647 28.6829 67.7061 28.6829C65.903 28.6885 64.1382 28.1673 62.6319 27.1844V30.0836C64.2623 30.9491 66.0869 31.3917 67.936 31.3703C70.9412 31.3703 73.5194 30.3768 73.5194 27.1844C73.5194 22.1189 65.6863 23.031 65.6863 20.5879C65.6863 19.7083 66.4581 19.2848 68.0181 19.2685C69.5876 19.2104 71.1349 19.6497 72.4355 20.5227V17.6723C71.0001 16.9361 69.4041 16.5613 67.7882 16.5811C64.9637 16.5811 62.5498 17.8841 62.5498 20.6204ZM88.2495 16.858L83.3231 24.2526L78.3966 16.858H75.6213V31.0772H78.6922V22.3144L82.4855 28.0314H84.2591L88.0525 22.3306V31.0772H91.1233V16.858H88.2495ZM95.8527 31.0772L96.8873 28.4223H103.456L104.507 31.0772H107.725L101.896 16.858H98.5294L92.6669 31.0772H95.8527ZM99.876 20.7996C100.029 20.4446 100.139 20.0728 100.204 19.692C100.269 20.0692 100.368 20.4399 100.5 20.7996L102.52 25.8977H97.9218L99.9088 20.7996H99.876ZM112.356 31.0772V26.0605H114.623L118.482 30.9469H122.029L117.743 25.5882C118.678 25.3552 119.502 24.8069 120.074 24.0373C120.647 23.2677 120.931 22.3246 120.879 21.3697C120.879 17.7701 117.973 16.7277 115.181 16.7277H109.318V30.9469L112.356 31.0772ZM112.356 19.5454H115.329C116.626 19.5454 117.743 20.0992 117.743 21.5488C117.743 22.9984 116.626 23.5685 115.329 23.5685H112.389V19.5454H112.356ZM122.111 16.858V19.5454H126.512V30.9469H129.566V19.5454H134V16.858H122.111Z" fill="#263238"/>
<path fill-rule="evenodd" clip-rule="evenodd" d="M24.2054 11.9553C24.6409 11.9553 25.0586 12.1269 25.3666 12.4324C25.6745 12.7378 25.8475 13.1521 25.8475 13.5841V34.4161C25.8475 34.8481 25.6745 35.2624 25.3666 35.5678C25.0586 35.8733 24.6409 36.0449 24.2054 36.0449C23.7699 36.0449 23.3522 35.8733 23.0442 35.5678C22.7362 35.2624 22.5632 34.8481 22.5632 34.4161V13.5841C22.5632 13.1521 22.7362 12.7378 23.0442 12.4324C23.3522 12.1269 23.7699 11.9553 24.2054 11.9553Z" fill="#263238"/>
</g>
<defs>
<clipPath id="clip0_1_19">
<rect width="134" height="48" fill="white"/>
</clipPath>
</defs>
</svg>
