<svg width="28" height="28" viewBox="0 0 28 28" fill="none" xmlns="http://www.w3.org/2000/svg">
<g id="Interface / Shopping_Cart_02">
<path id="Vector" d="M3.5 3.5H3.81307C4.36581 3.5 4.64267 3.5 4.86811 3.59972C5.06688 3.68765 5.23683 3.82921 5.35937 4.00871C5.49814 4.21197 5.54825 4.48338 5.64827 5.02515L8.16671 18.6667L20.3254 18.6667C20.8542 18.6667 21.1194 18.6667 21.3384 18.5732C21.5318 18.4907 21.6987 18.3571 21.8226 18.1871C21.9627 17.9949 22.0221 17.7376 22.1407 17.2236L22.1416 17.22L23.9724 9.28662L23.9728 9.28496C24.1527 8.50518 24.2429 8.11435 24.1439 7.80778C24.057 7.53879 23.8741 7.31073 23.6315 7.16557C23.3549 7 22.9551 7 22.1535 7H6.41667M21 24.5C20.3557 24.5 19.8333 23.9777 19.8333 23.3333C19.8333 22.689 20.3557 22.1667 21 22.1667C21.6443 22.1667 22.1667 22.689 22.1667 23.3333C22.1667 23.9777 21.6443 24.5 21 24.5ZM9.33333 24.5C8.689 24.5 8.16667 23.9777 8.16667 23.3333C8.16667 22.689 8.689 22.1667 9.33333 22.1667C9.97767 22.1667 10.5 22.689 10.5 23.3333C10.5 23.9777 9.97767 24.5 9.33333 24.5Z" stroke="#263238" stroke-width="2" stroke-linecap="round" stroke-linejoin="round"/>
</g>
</svg>
