<svg width="13" height="11" viewBox="0 0 13 11" fill="none" xmlns="http://www.w3.org/2000/svg">
<path d="M9.125 10.5C9.125 10.7761 9.34886 11 9.625 11C9.90114 11 10.125 10.7761 10.125 10.5H9.125ZM2.875 10.5C2.875 10.7761 3.09886 11 3.375 11C3.65114 11 3.875 10.7761 3.875 10.5H2.875ZM11.625 8.62493C11.625 8.90107 11.8489 9.12493 12.125 9.12493C12.4011 9.12493 12.625 8.90107 12.625 8.62493H11.625ZM10.3768 6.42229C10.1097 6.35226 9.83637 6.51204 9.76634 6.77915C9.69632 7.04627 9.85609 7.31958 10.1232 7.3896L10.3768 6.42229ZM0.375 8.62493C0.375 8.90107 0.598858 9.12493 0.875 9.12493C1.15114 9.12493 1.375 8.90107 1.375 8.62493H0.375ZM2.87679 7.3896C3.14391 7.31958 3.30368 7.04627 3.23366 6.77915C3.16363 6.51204 2.89033 6.35226 2.62321 6.42229L2.87679 7.3896ZM9.91654 4.025C9.71078 4.20916 9.69327 4.52526 9.87743 4.73102C10.0616 4.93679 10.3777 4.9543 10.5835 4.77013L9.91654 4.025ZM7.41654 1.22987C7.21078 1.41403 7.19327 1.73013 7.37743 1.93589C7.5616 2.14165 7.87769 2.15916 8.08346 1.975L7.41654 1.22987ZM2.41654 4.77013C2.62231 4.9543 2.9384 4.93679 3.12257 4.73102C3.30673 4.52526 3.28922 4.20916 3.08346 4.025L2.41654 4.77013ZM4.91654 1.975C5.12231 2.15916 5.4384 2.14165 5.62257 1.93589C5.80673 1.73013 5.78922 1.41403 5.58346 1.22987L4.91654 1.975ZM10.125 10.5C10.125 9.7376 9.61258 9.1328 8.96696 8.74543C8.31138 8.35208 7.43799 8.125 6.5 8.125V9.125C7.2879 9.125 7.97701 9.31765 8.45246 9.60292C8.93786 9.89416 9.125 10.2269 9.125 10.5H10.125ZM6.5 8.125C5.56201 8.125 4.68862 8.35208 4.03304 8.74543C3.38742 9.1328 2.875 9.7376 2.875 10.5H3.875C3.875 10.2269 4.06214 9.89416 4.54754 9.60292C5.02299 9.31765 5.7121 9.125 6.5 9.125V8.125ZM12.625 8.62493C12.625 8.06119 12.3404 7.57777 11.9357 7.21383C11.5324 6.85111 10.9864 6.58209 10.3768 6.42229L10.1232 7.3896C10.6173 7.51913 11.0088 7.72517 11.267 7.95739C11.5239 8.18839 11.625 8.4198 11.625 8.62493H12.625ZM1.375 8.62493C1.375 8.4198 1.47608 8.18839 1.73295 7.95739C1.99118 7.72517 2.38268 7.51913 2.87679 7.3896L2.62321 6.42229C2.01363 6.58209 1.46763 6.85111 1.06428 7.21383C0.659574 7.57777 0.375 8.06119 0.375 8.62493H1.375ZM6.5 6.25C5.74061 6.25 5.125 5.63439 5.125 4.875H4.125C4.125 6.18668 5.18832 7.25 6.5 7.25V6.25ZM5.125 4.875C5.125 4.11561 5.74061 3.5 6.5 3.5V2.5C5.18832 2.5 4.125 3.56332 4.125 4.875H5.125ZM6.5 3.5C7.25939 3.5 7.875 4.11561 7.875 4.875H8.875C8.875 3.56332 7.81168 2.5 6.5 2.5V3.5ZM7.875 4.875C7.875 5.63439 7.25939 6.25 6.5 6.25V7.25C7.81168 7.25 8.875 6.18668 8.875 4.875H7.875ZM10.5835 4.77013C11.0685 4.33597 11.375 3.70344 11.375 3H10.375C10.375 3.40718 10.1986 3.77251 9.91654 4.025L10.5835 4.77013ZM11.375 3C11.375 1.68832 10.3117 0.625 9 0.625V1.625C9.75939 1.625 10.375 2.24061 10.375 3H11.375ZM9 0.625C8.39204 0.625 7.83639 0.85409 7.41654 1.22987L8.08346 1.975C8.32705 1.75698 8.64752 1.625 9 1.625V0.625ZM3.08346 4.025C2.80136 3.77251 2.625 3.40718 2.625 3H1.625C1.625 3.70344 1.93146 4.33597 2.41654 4.77013L3.08346 4.025ZM2.625 3C2.625 2.24061 3.24061 1.625 4 1.625V0.625C2.68832 0.625 1.625 1.68832 1.625 3H2.625ZM4 1.625C4.35248 1.625 4.67295 1.75698 4.91654 1.975L5.58346 1.22987C5.16361 0.85409 4.60796 0.625 4 0.625V1.625Z" fill="#031E80"/>
</svg>
