<svg width="16" height="16" viewBox="0 0 16 16" fill="none" xmlns="http://www.w3.org/2000/svg">
<path d="M2.94255 9.72386L2.58899 9.37031H2.58899L2.94255 9.72386ZM3.20221 9.46419L3.55577 9.81775H3.55577L3.20221 9.46419ZM12.7974 9.46419L13.1509 9.11065L12.7974 9.46419ZM13.057 9.72389L12.7035 10.0774L13.057 9.72389ZM13.2983 10.8798L13.7721 11.0396L13.2983 10.8798ZM12.8797 11.2983L13.0395 11.7721L12.8797 11.2983ZM13.2081 9.88732L13.6143 9.5957L13.2081 9.88732ZM13.3244 10.1682L12.831 10.2492L13.3244 10.1682ZM7.99984 2L7.99984 1.5L7.99984 2ZM2.6753 10.1682L2.1819 10.0872L2.6753 10.1682ZM2.7915 9.88732L3.19765 10.179L2.7915 9.88732ZM2.70147 10.8798L3.17525 10.72L2.70147 10.8798ZM3.11995 11.2983L3.27976 10.8246L3.11995 11.2983ZM9.99984 11.3333H10.4998C10.4998 11.0572 10.276 10.8333 9.99984 10.8333V11.3333ZM5.99984 11.3333V10.8333C5.72369 10.8333 5.49984 11.0572 5.49984 11.3333H5.99984ZM3.2961 10.0774L3.55577 9.81775L2.84866 9.11064L2.58899 9.37031L3.2961 10.0774ZM3.83317 9.14829V6.66667H2.83317V9.14829H3.83317ZM12.1665 6.66667V9.14827H13.1665V6.66667H12.1665ZM12.4438 9.81774L12.7035 10.0774L13.4106 9.37034L13.1509 9.11065L12.4438 9.81774ZM12.3903 10.8333H3.60921V11.8333H12.3903V10.8333ZM12.8333 10.3905C12.8333 10.5247 12.8331 10.6046 12.8297 10.6644C12.8265 10.7207 12.8217 10.7285 12.8246 10.72L13.7721 11.0396C13.8399 10.8386 13.8333 10.6072 13.8333 10.3905H12.8333ZM12.3903 11.8333C12.607 11.8333 12.8385 11.8399 13.0395 11.7721L12.7199 10.8246C12.7285 10.8217 12.7206 10.8266 12.6642 10.8298C12.6043 10.8331 12.5244 10.8333 12.3903 10.8333V11.8333ZM12.8246 10.72C12.808 10.7692 12.7693 10.8079 12.7199 10.8246L13.0395 11.7721C13.3846 11.6557 13.6556 11.3849 13.7721 11.0396L12.8246 10.72ZM12.7035 10.0774C12.7455 10.1194 12.7688 10.1429 12.7861 10.1613C12.8013 10.1774 12.8034 10.1809 12.802 10.1789L13.6143 9.5957C13.5532 9.51066 13.4782 9.43798 13.4106 9.37034L12.7035 10.0774ZM13.8333 10.3905C13.8333 10.2934 13.8347 10.1902 13.8178 10.0872L12.831 10.2492C12.8307 10.2474 12.8317 10.2517 12.8324 10.2736C12.8332 10.2985 12.8333 10.3316 12.8333 10.3905H13.8333ZM12.802 10.1789C12.8168 10.1996 12.8268 10.2236 12.831 10.2492L13.8178 10.0872C13.7887 9.91018 13.7192 9.7419 13.6143 9.5957L12.802 10.1789ZM12.1665 9.14827C12.1665 9.39937 12.2663 9.64019 12.4438 9.81774L13.1509 9.11065C13.1609 9.12062 13.1665 9.13414 13.1665 9.14827H12.1665ZM7.99984 2.5C10.301 2.49999 12.1665 4.36548 12.1665 6.66667H13.1665C13.1665 3.81319 10.8533 1.49999 7.99984 1.5L7.99984 2.5ZM3.83317 6.66667C3.83317 4.36549 5.69865 2.50001 7.99984 2.5L7.99984 1.5C5.14637 1.50001 2.83317 3.8132 2.83317 6.66667H3.83317ZM3.55577 9.81775C3.73311 9.6404 3.83317 9.39968 3.83317 9.14829H2.83317C2.83317 9.13387 2.83889 9.12041 2.84866 9.11064L3.55577 9.81775ZM3.1665 10.3906C3.1665 10.3313 3.16656 10.2982 3.16735 10.2731C3.16805 10.2511 3.16906 10.247 3.1687 10.2492L2.1819 10.0872C2.16497 10.1904 2.1665 10.2944 2.1665 10.3906H3.1665ZM2.58899 9.37031C2.52109 9.43821 2.44638 9.51072 2.38536 9.59569L3.19765 10.179C3.19634 10.1808 3.19845 10.1772 3.21357 10.1611C3.23081 10.1428 3.25418 10.1193 3.2961 10.0774L2.58899 9.37031ZM3.1687 10.2492C3.17294 10.2234 3.18294 10.1994 3.19765 10.179L2.38536 9.59569C2.28027 9.74204 2.21093 9.91036 2.1819 10.0872L3.1687 10.2492ZM2.1665 10.3906C2.1665 10.6072 2.15989 10.8386 2.2277 11.0396L3.17525 10.72C3.17813 10.7285 3.17326 10.7207 3.17008 10.6644C3.16669 10.6046 3.1665 10.5247 3.1665 10.3906H2.1665ZM3.60921 10.8333C3.47508 10.8333 3.39517 10.8331 3.33537 10.8298C3.27906 10.8266 3.27122 10.8217 3.27976 10.8246L2.96015 11.7721C3.16115 11.8399 3.39247 11.8333 3.60921 11.8333V10.8333ZM2.2277 11.0396C2.34409 11.3846 2.61485 11.6556 2.96015 11.7721L3.27976 10.8246C3.23057 10.808 3.19192 10.7694 3.17525 10.72L2.2277 11.0396ZM9.49984 11.3333V12H10.4998V11.3333H9.49984ZM6.49984 12V11.3333H5.49984V12H6.49984ZM5.99984 11.8333H9.99984V10.8333H5.99984V11.8333ZM7.99984 13.5C7.17141 13.5 6.49984 12.8284 6.49984 12H5.49984C5.49984 13.3807 6.61913 14.5 7.99984 14.5V13.5ZM9.49984 12C9.49984 12.8284 8.82826 13.5 7.99984 13.5V14.5C9.38055 14.5 10.4998 13.3807 10.4998 12H9.49984Z" fill="white"/>
<circle cx="11" cy="4" r="2.5" fill="#FF0000" stroke="white"/>
</svg>
