<svg width="1194" height="768" viewBox="0 0 1194 768" fill="none" xmlns="http://www.w3.org/2000/svg">
<g filter="url(#filter0_i_465_1253)">
<path fill-rule="evenodd" clip-rule="evenodd" d="M1193.53 69.9436C1094.23 74.508 998.908 75.1194 941.422 70.6702C904.208 67.79 856.2 61.8459 802.414 55.1865C631.427 34.0156 402.051 5.61571 275.482 45.4416C109.1 97.7954 -18.5415 263.962 2.21682 495.399C22.9756 726.835 256.731 777.635 498.441 766.196C585.734 762.064 688.832 739.262 796.022 715.554C929.734 685.98 1069.81 654.998 1193.53 657.092V69.9436Z" fill="url(#paint0_linear_465_1253)"/>
</g>
<g style="mix-blend-mode:hard-light" opacity="0.38">
<path d="M444.386 126.499H547.523C547.523 126.499 538.409 109.915 511.852 112.392C486.503 114.696 485.186 104.24 472.323 102.986C459.46 101.732 448.684 111.467 444.386 126.499Z" fill="white"/>
</g>
<g style="mix-blend-mode:soft-light" opacity="0.38">
<path d="M174.802 398.968C174.802 398.968 164.465 404.549 179.508 426.118C194.551 447.688 204.34 458.033 204.34 458.033C204.34 458.033 207.179 463.128 202.771 464.601C198.363 466.075 188.136 465.84 186.881 471.671C185.626 477.502 190.504 482.644 199.649 486.155C208.794 489.666 228.512 498.35 230.285 499.134C232.057 499.918 234.002 502.191 231.147 503.664C228.292 505.138 206.143 510.577 209.359 520.907C212.575 531.237 239.665 537.084 242.614 537.79C245.563 538.495 246.394 539.576 246.379 541.144C246.363 542.712 238.755 543.84 232.512 545.643C226.269 547.445 219.367 550.628 221.72 556.443C224.073 562.259 241.108 572.808 278.708 571.335L296.104 569.501L303.492 553.59C317.265 518.587 312.904 499.04 308.198 494.917C303.492 490.795 298.19 496.265 294.426 501.548C290.661 506.831 287.1 513.649 285.626 513.148C284.151 512.646 283.367 511.502 283.68 508.445C283.994 505.389 287.398 477.957 278.677 471.514C269.955 465.072 257.547 484.195 255.147 486.39C252.747 488.585 251.288 485.998 251.147 484.101C251.006 482.205 249.343 460.714 248.951 450.917C248.559 441.12 245.594 434.865 239.539 434.097C233.485 433.329 230.473 443.079 227.634 446.763C224.794 450.446 220.92 446.104 220.92 446.104C220.92 446.104 214.347 433.454 198.959 412.167C183.571 390.88 174.598 399.141 174.598 399.141" fill="#EBEBEB"/>
</g>
<path d="M297.545 573.467C286.282 557.791 266.721 529.576 249.796 505.451C232.871 481.327 217.529 459.523 206.345 443.784C200.745 435.947 196.212 429.583 193.075 425.162L189.467 420.099L188.541 418.767L188.243 418.312L188.588 418.735L189.545 420.036L193.247 425.037C196.384 429.395 201.09 435.712 206.659 443.565C217.922 459.24 233.325 481.029 250.235 505.138C267.145 529.247 286.674 557.462 297.874 573.247" fill="#F2F2F2"/>
<path d="M201.153 472.549C201.578 472.546 202 472.604 202.408 472.721C203.208 472.862 204.353 473.097 205.765 473.395C208.604 474.022 212.51 474.963 216.745 476.107L227.726 479.038L231.051 479.9C231.464 479.984 231.868 480.104 232.259 480.261C231.836 480.265 231.414 480.213 231.004 480.104C230.204 479.963 229.043 479.728 227.632 479.399C224.792 478.756 220.918 477.753 216.651 476.624L205.671 473.771L202.345 472.925C201.938 472.835 201.539 472.709 201.153 472.549Z" fill="#F2F2F2"/>
<path d="M233.295 478.991C233.154 478.991 234.769 470.856 236.903 460.87C239.036 450.885 240.887 442.828 241.044 442.859C241.201 442.891 239.569 451.011 237.436 460.98C235.303 470.95 233.452 479.085 233.295 478.991Z" fill="#F2F2F2"/>
<path d="M257.608 517.208C257.758 516.803 257.947 516.415 258.173 516.048L259.836 512.913C261.232 510.311 263.161 506.643 265.122 502.645C267.083 498.648 268.777 494.808 269.953 492.143C270.518 490.873 270.989 489.792 271.365 488.929C271.513 488.524 271.702 488.136 271.93 487.769C271.862 488.198 271.735 488.614 271.553 489.008C271.287 489.791 270.863 490.92 270.314 492.284C269.216 495.043 267.601 498.805 265.608 502.88C263.616 506.956 261.655 510.546 260.165 513.101C259.428 514.386 258.801 515.405 258.361 516.11C257.922 516.816 257.655 517.239 257.608 517.208Z" fill="#F2F2F2"/>
<path d="M227.288 517.772C227.68 517.687 228.079 517.64 228.48 517.631L231.712 517.443C234.457 517.302 238.237 517.161 242.41 517.035C246.582 516.91 250.363 516.816 253.108 516.769H256.339C256.738 516.742 257.139 516.768 257.531 516.847C257.144 516.931 256.75 516.978 256.355 516.988L253.108 517.176C250.378 517.302 246.598 517.459 242.425 517.584C238.253 517.709 234.472 517.803 231.727 517.835H228.48C228.082 517.859 227.682 517.838 227.288 517.772Z" fill="#F2F2F2"/>
<path d="M244.417 554.233C244.934 554.133 245.459 554.075 245.986 554.061L250.142 553.81C253.641 553.622 258.488 553.387 263.837 553.167C269.186 552.948 274.033 552.791 277.531 552.697H281.687C282.209 552.65 282.734 552.65 283.256 552.697C282.741 552.812 282.215 552.869 281.687 552.869L277.531 553.12C274.033 553.324 269.186 553.543 263.837 553.763C258.488 553.982 253.641 554.155 250.142 554.249L245.986 554.327C245.461 554.348 244.935 554.317 244.417 554.233Z" fill="#F2F2F2"/>
<path d="M282.188 552.43C282.362 551.89 282.582 551.365 282.847 550.863L284.824 546.866C286.392 543.511 288.745 538.84 291.098 533.62C293.451 528.4 295.49 523.635 296.934 520.17L298.628 516.063C298.814 515.548 299.045 515.05 299.318 514.574C299.198 515.109 299.035 515.633 298.832 516.142C298.486 517.129 297.969 518.556 297.263 520.311C295.914 523.823 293.953 528.619 291.569 533.855C289.185 539.091 286.863 543.715 285.122 547.054C284.259 548.715 283.553 550.048 283.004 550.957C282.777 551.471 282.504 551.965 282.188 552.43Z" fill="#F2F2F2"/>
<g style="mix-blend-mode:soft-light" opacity="0.38">
<path d="M428.071 321.093C409.404 300.182 411.193 269.976 418.267 244.112C419.444 239.801 420.055 235.098 422.973 231.759C425.891 228.421 431.412 227.057 434.863 229.737C437.749 232.026 438.267 236.117 439.334 239.644C440.752 244.355 443.47 248.571 447.177 251.808C449.608 253.909 452.824 255.602 455.93 254.74C460.165 253.548 461.843 248.469 462.847 244.143C464.698 236.055 466.56 227.976 468.432 219.909C469.192 215.521 470.659 211.286 472.777 207.369C475.098 203.591 479.051 200.471 483.381 200.299C487.71 200.127 492.306 203.701 492.165 208.137C491.907 209.968 491.524 211.781 491.02 213.56C490.772 214.444 490.789 215.381 491.067 216.256C491.346 217.131 491.875 217.905 492.588 218.482C494.157 219.392 496.212 218.576 497.812 217.62C503.318 214.297 507.679 209.391 511.851 204.469C516.024 199.547 520.118 194.452 525.31 190.659C530.502 186.865 536.996 184.389 543.286 185.517C549.577 186.646 555.271 192.022 555.396 198.481C555.522 204.939 550.486 210.3 545.451 214.313C537.964 220.282 529.653 225.139 520.777 228.734C519.099 229.198 517.615 230.187 516.541 231.556C514.973 234.205 516.981 237.732 519.6 239.393C522.581 241.227 526.157 241.729 529.435 242.92C532.714 244.112 536.024 246.479 536.557 249.974C537.279 254.818 532.479 258.58 528.118 260.743C519.445 265.062 510.097 267.866 500.479 269.035C497.012 269.443 493.42 269.678 490.314 271.308C487.208 272.939 484.745 276.45 485.608 279.867C486.471 283.284 490.189 285.212 493.671 285.385C497.153 285.557 500.573 284.444 504.039 284.005C510.518 283.175 518.157 285.401 520.698 291.436C521.44 293.481 521.699 295.67 521.454 297.832C521.209 299.994 520.467 302.07 519.286 303.897C516.898 307.523 513.804 310.631 510.188 313.036C498.078 322.133 483.763 327.846 468.714 329.589C453.765 331.157 440.667 329.37 428.134 321.109" fill="#FDFDFD"/>
</g>
<path d="M431.882 323.617C435.286 313.506 431.725 318.585 438.705 306.374C446.408 293.202 454.856 280.479 464.007 268.267L471.16 258.627C473.513 255.492 475.866 252.357 478.313 249.41C483.07 243.799 488.134 238.456 493.482 233.405C498.548 228.546 503.537 224.125 508.227 220.018C512.917 215.911 517.403 212.181 521.607 209.046C528.219 203.878 535.232 199.245 542.58 195.189C545.168 193.778 547.286 192.728 548.619 192.054L550.187 191.285C550.365 191.183 550.554 191.104 550.752 191.05L550.235 191.348L548.666 192.195C547.301 192.931 545.278 194.013 542.705 195.471C535.447 199.612 528.51 204.291 521.952 209.469C517.78 212.714 513.356 216.46 508.682 220.567C504.007 224.674 499.035 229.126 493.999 233.985C488.686 239.03 483.654 244.362 478.925 249.958C476.478 252.874 474.219 255.978 471.803 259.144C469.388 262.31 467.097 265.54 464.666 268.8C455.534 280.988 447.087 293.673 439.364 306.797C432.368 318.961 435.882 313.82 432.431 323.868" fill="#F2F2F2"/>
<path d="M478.55 249.394C478.485 248.748 478.485 248.097 478.55 247.451C478.55 246.197 478.754 244.394 478.958 242.168C479.366 237.716 480.134 231.587 481.013 224.815C481.891 218.044 482.581 211.93 482.926 207.494C483.099 205.268 483.224 203.466 483.303 202.212C483.297 201.563 483.365 200.916 483.507 200.283C483.609 200.926 483.646 201.577 483.616 202.227C483.616 203.481 483.616 205.362 483.507 207.525C483.303 211.993 482.707 218.153 481.828 224.925C480.95 231.697 480.15 237.622 479.538 242.168C479.271 244.253 479.052 246.008 478.864 247.419C478.839 248.088 478.734 248.751 478.55 249.394Z" fill="#F2F2F2"/>
<path d="M536.699 252.169C535.934 252.165 535.172 252.08 534.424 251.918C532.965 251.698 530.848 251.385 528.228 251.087C523.005 250.429 515.679 249.77 507.711 249.394C499.742 249.018 492.37 249.018 487.099 249.159C484.464 249.159 482.393 249.316 480.824 249.379C480.058 249.453 479.285 249.453 478.519 249.379C479.264 249.193 480.026 249.078 480.793 249.034C482.268 248.877 484.401 248.689 487.068 248.563C492.354 248.266 499.617 248.187 507.726 248.563C514.61 248.857 521.474 249.506 528.291 250.507C530.911 250.883 532.997 251.291 534.456 251.604C535.218 251.728 535.969 251.917 536.699 252.169Z" fill="#F2F2F2"/>
<path d="M439.647 305.481C439.527 305.239 439.447 304.98 439.411 304.712L438.941 302.487C438.533 300.527 438.031 297.706 437.372 294.194C436.196 287.187 434.878 277.453 433.56 266.684C432.243 255.915 431.019 246.196 430 239.174C429.482 235.757 429.074 232.904 428.76 230.85C428.619 229.941 428.525 229.283 428.431 228.577C428.397 228.312 428.397 228.043 428.431 227.778C428.542 228.021 428.616 228.28 428.65 228.546C428.776 229.157 428.933 229.894 429.137 230.787C429.529 232.731 430.047 235.568 430.627 239.08C431.803 246.087 433.121 255.821 434.439 266.59C435.756 277.359 436.98 287.078 437.999 294.1C438.517 297.518 438.925 300.37 439.239 302.424C439.364 303.333 439.474 303.991 439.568 304.681C439.619 304.945 439.645 305.212 439.647 305.481Z" fill="#F2F2F2"/>
<path d="M519.286 299.164C519.023 299.249 518.748 299.296 518.471 299.305L516.165 299.508L507.632 300.198C500.416 300.794 490.487 301.766 479.49 302.738C468.494 303.709 458.549 304.603 451.334 305.042C447.726 305.261 444.808 305.402 442.785 305.465H440.447C440.182 305.505 439.913 305.505 439.647 305.465C439.91 305.4 440.178 305.358 440.447 305.34L442.769 305.136L451.302 304.446C458.502 303.85 468.447 302.879 479.428 301.907C490.408 300.935 500.369 300.041 507.585 299.602C511.192 299.383 514.126 299.242 516.134 299.179H518.471C518.742 299.15 519.015 299.145 519.286 299.164Z" fill="#F2F2F2"/>
<g style="mix-blend-mode:soft-light">
<path d="M581.059 458.707C580.988 458.954 580.899 459.195 580.793 459.428C580.589 459.961 580.306 460.651 579.946 461.529L576.589 469.367L564.542 497.347L564.463 497.52H564.275L526.283 503.79L513.561 505.875L512.981 505.969L513.122 505.389L521.483 472.392L521.671 472.753L499.334 462.783L493.185 459.977L491.616 459.225L491.083 458.943C491.283 458.982 491.478 459.045 491.663 459.131L493.31 459.805L499.585 462.454L522.016 472.173L522.267 472.282L522.189 472.549C519.804 482.111 517.012 493.366 513.954 505.577L513.53 505.106L526.252 503.022L564.259 496.846L564.008 497.034L576.353 469.21C577.844 465.887 579.036 463.269 579.867 461.372L580.824 459.319C580.883 459.108 580.962 458.903 581.059 458.707Z" fill="#F2F2F2"/>
</g>
<path d="M517.968 501.423L516.933 504.15L518.596 506.548L515.678 506.407L513.905 508.727L513.137 505.906L510.376 504.95L512.823 503.351L512.886 500.419L515.176 502.253L517.968 501.423Z" fill="#F2F2F2"/>
<path d="M491.883 457.124L491.365 458.488L492.197 459.679L490.754 459.616L489.859 460.761L489.483 459.366L488.103 458.88L489.326 458.08L489.357 456.638L490.503 457.547L491.883 457.124Z" fill="#F2F2F2"/>
<path d="M565.561 495.638L565.043 497.002L565.874 498.194L564.431 498.115L563.537 499.275L563.161 497.88L561.796 497.394L563.004 496.595L563.035 495.137L564.18 496.046L565.561 495.638Z" fill="#F2F2F2"/>
<path d="M523.051 471.185L522.533 472.549L523.365 473.74L521.906 473.677L521.027 474.821L520.651 473.426L519.271 472.94L520.494 472.141L520.525 470.699L521.655 471.608L523.051 471.185Z" fill="#F2F2F2"/>
<path d="M582.83 457.344L582.313 458.707L583.144 459.899L581.685 459.82L580.807 460.98L580.43 459.585L579.05 459.099L580.258 458.3L580.305 456.842L581.434 457.751L582.83 457.344Z" fill="#F2F2F2"/>
<g style="mix-blend-mode:soft-light" opacity="0.38">
<path d="M107.382 571.413H189.499C189.499 571.413 182.237 558.214 161.107 560.127C140.919 561.961 139.884 553.637 129.625 552.603C119.366 551.568 110.801 559.453 107.382 571.413Z" fill="#F2F2F2"/>
</g>
<g style="mix-blend-mode:soft-light" opacity="0.38">
<path d="M123.759 248.328H205.814C205.814 248.328 198.551 235.114 177.406 237.042C157.218 238.876 156.198 230.537 145.923 229.518C135.649 228.499 127.116 236.352 123.759 248.328Z" fill="#FDFDFD"/>
</g>
<g style="mix-blend-mode:hard-light" opacity="0.38">
<path d="M540.761 305.387H608.212C608.212 305.387 602.188 294.539 584.933 296.122C568.353 297.69 567.506 290.777 559.082 289.931C550.659 289.084 543.569 295.558 540.761 305.387Z" fill="#FDFDFD"/>
</g>
<path d="M181.687 80.0059H200.965V119.712C200.965 120.825 200.745 121.928 200.319 122.957C199.892 123.986 199.267 124.921 198.479 125.708C197.691 126.496 196.756 127.12 195.726 127.546C194.697 127.973 193.593 128.192 192.479 128.192H190.173C187.922 128.192 185.764 127.298 184.172 125.708C182.581 124.118 181.687 121.961 181.687 119.712V80.0059Z" fill="#7630A1"/>
<path d="M181.687 80.006L191.318 62.3398L200.965 80.006H181.687Z" fill="#FFBE9D"/>
<path d="M187.507 69.3311C187.507 69.3311 190.424 73.7358 195.146 69.3311L191.319 62.3398L187.507 69.3311Z" fill="#7630A1"/>
<path d="M201.232 117.784C197.98 118.176 194.701 118.307 191.428 118.175C188.155 118.307 184.876 118.176 181.624 117.784C184.876 117.391 188.155 117.26 191.428 117.392C194.701 117.26 197.98 117.391 201.232 117.784Z" fill="#263238"/>
<path d="M201.029 114.837C197.845 115.22 194.635 115.351 191.429 115.229C188.213 115.353 184.993 115.222 181.798 114.837C184.982 114.444 188.193 114.313 191.398 114.445C194.614 114.311 197.835 114.442 201.029 114.837Z" fill="#263238"/>
<path d="M187.35 80.2881C187.554 80.2881 187.727 87.9847 187.727 97.531C187.727 107.077 187.554 114.774 187.35 114.774C187.146 114.774 186.958 107.093 186.958 97.531C186.958 87.969 187.131 80.2881 187.35 80.2881Z" fill="#FAFAFA"/>
<path d="M195.145 80.2881C195.349 80.2881 195.537 87.9847 195.537 97.531C195.537 107.077 195.349 114.774 195.145 114.774C194.941 114.774 194.753 107.093 194.753 97.531C194.753 87.969 194.925 80.2881 195.145 80.2881Z" fill="#FAFAFA"/>
<path d="M349.168 622.844L436.76 626.59L438.862 631.685L381.466 724.796L277.843 721.771L349.168 622.844Z" fill="#263238"/>
<path d="M273.905 712.695L378.156 718.652L432.619 634.208L394.376 637.312L297.607 671.375L273.905 712.695Z" fill="#F5F5F5"/>
<path d="M259.269 706.378L354.955 707.945C350.971 695.719 360.351 678.476 373.229 672.676C381.747 668.835 397.81 663.851 406.17 659.603C421.857 651.545 436.131 636.262 434.876 623.157L395.567 621.903L345.371 619.96C341.167 632.406 332.194 640.557 318.547 645.463C306.343 649.837 292.445 649.837 280.524 654.869C261.355 662.894 252.147 688.884 259.284 706.488" fill="#F7F7F7"/>
<path d="M259.27 706.378C259.27 706.378 259.176 706.174 259.035 705.767L258.376 703.917C258.019 702.896 257.746 701.847 257.56 700.782C257.239 699.346 257.019 697.89 256.901 696.424C256.58 692.359 256.834 688.27 257.654 684.276C258.76 678.88 260.844 673.732 263.803 669.086C264.63 667.745 265.547 666.462 266.548 665.246C267.066 664.619 267.552 663.96 268.117 663.349L269.89 661.562C270.482 660.939 271.122 660.363 271.803 659.838C272.478 659.305 273.137 658.709 273.858 658.192C275.35 657.143 276.924 656.215 278.564 655.417C285.199 652.078 293.121 650.715 301.372 649.147C305.513 648.395 309.764 647.58 314.046 646.435C318.41 645.228 322.621 643.524 326.595 641.356C328.672 640.248 330.646 638.958 332.493 637.5C334.402 636.041 336.153 634.386 337.717 632.563C340.968 628.811 343.441 624.453 344.995 619.74V619.489H345.278L387.082 621.057C401.576 621.621 416.603 622.013 431.96 622.53L434.768 622.624H435.113V622.954C435.325 625.963 434.892 628.982 433.842 631.81C433.347 633.203 432.765 634.565 432.101 635.886C431.348 637.155 430.658 638.457 429.811 639.648C426.496 644.387 422.5 648.613 417.952 652.188C413.549 655.697 408.741 658.665 403.63 661.029C398.58 663.286 393.466 665.136 388.462 666.986C383.458 668.835 378.501 670.591 373.795 672.645C371.487 673.653 369.324 674.966 367.364 676.548C366.39 677.318 365.458 678.139 364.572 679.009C363.705 679.881 362.883 680.797 362.109 681.752C359.057 685.44 356.779 689.705 355.411 694.292C354.027 698.636 353.945 703.289 355.176 707.679L355.301 708.102H354.862L285.325 707.036L266.015 706.644L260.948 706.519C259.803 706.519 259.223 706.519 259.223 706.519C259.223 706.519 259.819 706.519 260.964 706.519H266.015L285.325 706.738L354.956 707.695L354.658 708.118C353.372 703.605 353.437 698.815 354.846 694.339C356.222 689.648 358.538 685.286 361.654 681.517C362.391 680.514 363.317 679.651 364.148 678.711C365.055 677.826 366.008 676.988 367.003 676.203C369.012 674.58 371.228 673.231 373.591 672.19C378.297 670.121 383.285 668.365 388.289 666.5C393.293 664.634 398.391 662.785 403.395 660.543C408.432 658.199 413.172 655.262 417.513 651.796C422.004 648.274 425.947 644.106 429.215 639.428C430.062 638.268 430.783 636.983 431.458 635.745C432.105 634.452 432.676 633.122 433.168 631.763C434.168 629.043 434.585 626.143 434.391 623.251L434.768 623.612L431.96 623.518C416.587 623.001 401.576 622.609 387.066 621.95L345.262 620.383L345.607 620.148C344.015 624.944 341.494 629.381 338.188 633.205C336.586 635.05 334.799 636.726 332.854 638.206C330.97 639.677 328.966 640.988 326.862 642.125C322.815 644.307 318.531 646.016 314.093 647.219C309.78 648.395 305.497 649.179 301.356 649.915C293.09 651.389 285.215 652.768 278.674 656.044C277.067 656.824 275.525 657.731 274.062 658.756C273.356 659.273 272.713 659.838 272.039 660.324C271.359 660.834 270.724 661.4 270.141 662.017L268.384 663.772C267.835 664.368 267.348 665.026 266.815 665.638C265.823 666.844 264.906 668.111 264.07 669.431C261.12 674.023 259.026 679.111 257.89 684.448C257.051 688.413 256.766 692.475 257.043 696.518C257.135 697.978 257.334 699.429 257.639 700.86C257.817 701.921 258.068 702.969 258.392 703.995C258.658 704.795 258.847 705.406 258.988 705.845C259.129 706.284 259.27 706.378 259.27 706.378Z" fill="#263238"/>
<path d="M372.241 621.511C372.241 621.511 372.367 620.9 372.461 619.803C372.574 618.259 372.316 616.712 371.708 615.288C370.845 613.171 369.231 611.446 367.175 610.445C365.918 609.856 364.555 609.527 363.169 609.477C361.782 609.427 360.399 609.656 359.103 610.153C357.807 610.649 356.625 611.401 355.626 612.364C354.628 613.327 353.834 614.482 353.292 615.759C352.324 617.837 352.001 620.157 352.367 622.421C352.598 623.947 353.131 625.413 353.935 626.731C354.531 627.656 354.971 628.095 354.924 628.142C354.429 627.82 354.007 627.398 353.684 626.904C352.723 625.602 352.064 624.103 351.755 622.515C351.303 620.135 351.588 617.674 352.571 615.461C353.155 614.084 354.012 612.839 355.09 611.802C356.169 610.765 357.446 609.956 358.845 609.426C360.236 608.9 361.72 608.663 363.205 608.727C364.691 608.792 366.148 609.158 367.488 609.802C369.666 610.908 371.346 612.795 372.194 615.085C372.781 616.578 372.965 618.2 372.728 619.787C372.664 620.22 372.559 620.645 372.414 621.057C372.335 621.386 372.273 621.527 372.241 621.511Z" fill="#263238"/>
<path d="M387.285 621.511C387.285 621.511 387.411 620.9 387.489 619.803C387.61 618.259 387.351 616.709 386.736 615.288C385.88 613.172 384.271 611.447 382.218 610.445C380.961 609.856 379.597 609.527 378.209 609.476C376.821 609.426 375.437 609.656 374.14 610.151C372.843 610.647 371.659 611.4 370.659 612.363C369.659 613.326 368.864 614.481 368.32 615.759C367.368 617.841 367.046 620.157 367.395 622.421C367.618 623.949 368.152 625.416 368.964 626.731C369.56 627.656 369.999 628.095 369.952 628.142C369.457 627.82 369.035 627.398 368.713 626.904C367.738 625.609 367.078 624.107 366.783 622.515C366.317 620.137 366.597 617.674 367.583 615.461C368.167 614.084 369.025 612.839 370.103 611.802C371.181 610.765 372.458 609.957 373.858 609.426C375.251 608.898 376.737 608.659 378.226 608.724C379.714 608.789 381.174 609.155 382.517 609.802C384.696 610.906 386.377 612.793 387.222 615.085C387.804 616.58 387.993 618.198 387.771 619.787C387.705 620.22 387.594 620.646 387.442 621.057C387.285 621.386 387.285 621.527 387.285 621.511Z" fill="#263238"/>
<path d="M398.642 622.295C398.642 622.295 398.736 621.668 398.767 620.571C398.791 619.022 398.441 617.489 397.748 616.103C396.793 614.053 395.118 612.425 393.042 611.526C391.752 611.016 390.372 610.768 388.985 610.798C387.598 610.827 386.231 611.134 384.963 611.699C383.703 612.277 382.57 613.098 381.628 614.115C380.685 615.131 379.953 616.324 379.473 617.624C378.749 619.416 378.491 621.363 378.724 623.282C378.957 625.201 379.674 627.03 380.807 628.597C381.45 629.49 381.92 629.898 381.873 629.945C381.359 629.659 380.915 629.262 380.571 628.785C379.532 627.54 378.787 626.077 378.391 624.505C377.794 622.158 377.937 619.684 378.799 617.42C379.299 616.021 380.074 614.735 381.079 613.64C382.084 612.544 383.298 611.66 384.65 611.04C386.012 610.434 387.484 610.112 388.976 610.093C390.467 610.074 391.947 610.359 393.324 610.931C395.563 611.908 397.35 613.694 398.328 615.931C399 617.402 399.281 619.022 399.144 620.634C399.103 621.069 399.019 621.5 398.893 621.919C398.72 622.154 398.673 622.295 398.642 622.295Z" fill="#263238"/>
<path d="M410.814 622.985C410.735 622.985 410.814 622.358 410.814 621.261C410.746 619.714 410.316 618.206 409.559 616.856C408.475 614.846 406.688 613.305 404.539 612.529C403.225 612.086 401.835 611.91 400.451 612.014C399.068 612.117 397.719 612.498 396.486 613.132C395.252 613.767 394.159 614.643 393.271 615.708C392.383 616.773 391.718 618.006 391.316 619.333C390.586 621.506 390.52 623.847 391.128 626.057C391.536 627.554 392.246 628.952 393.214 630.164C393.904 631.026 394.406 631.418 394.359 631.465C393.833 631.198 393.368 630.824 392.994 630.368C391.886 629.186 391.065 627.764 390.594 626.214C389.871 623.902 389.871 621.425 390.594 619.113C391.015 617.691 391.72 616.369 392.666 615.227C393.613 614.085 394.781 613.147 396.1 612.468C397.42 611.79 398.863 611.386 400.343 611.281C401.823 611.175 403.31 611.371 404.712 611.855C407.001 612.699 408.885 614.38 409.982 616.558C410.754 618.001 411.123 619.626 411.049 621.261C411.034 621.699 410.976 622.135 410.877 622.562C410.939 622.844 410.892 623.001 410.814 622.985Z" fill="#263238"/>
<path d="M423.096 622.703C423.096 622.703 423.096 622.076 423.096 620.978C422.999 619.432 422.531 617.932 421.732 616.605C420.59 614.625 418.758 613.135 416.587 612.42C415.259 612.014 413.864 611.879 412.483 612.022C411.103 612.165 409.765 612.584 408.549 613.254C407.334 613.923 406.265 614.83 405.406 615.92C404.548 617.01 403.917 618.261 403.551 619.599C402.987 621.435 402.894 623.384 403.281 625.266C403.667 627.148 404.521 628.902 405.763 630.368C406.485 631.199 406.971 631.575 406.94 631.638C406.404 631.386 405.928 631.022 405.544 630.572C404.38 629.408 403.499 627.992 402.971 626.433C402.181 624.141 402.121 621.661 402.798 619.333C403.184 617.896 403.853 616.552 404.766 615.378C405.679 614.204 406.818 613.225 408.116 612.498C409.424 611.784 410.863 611.344 412.346 611.204C413.829 611.064 415.325 611.227 416.744 611.683C419.061 612.473 420.991 614.115 422.14 616.276C422.954 617.707 423.366 619.332 423.332 620.978C423.332 621.411 423.285 621.842 423.191 622.264C423.175 622.562 423.128 622.703 423.096 622.703Z" fill="#263238"/>
<path d="M433.418 624.082C433.418 624.082 433.418 623.455 433.418 622.358C433.379 620.806 432.97 619.285 432.226 617.922C431.162 615.904 429.392 614.347 427.254 613.548C425.944 613.094 424.556 612.904 423.172 612.99C421.788 613.076 420.435 613.437 419.191 614.05C416.706 615.317 414.823 617.515 413.952 620.163C413.207 622.331 413.114 624.669 413.685 626.888C414.082 628.388 414.781 629.791 415.74 631.011C416.415 631.873 416.901 632.28 416.854 632.327C416.335 632.049 415.876 631.671 415.505 631.214C414.42 630.013 413.621 628.583 413.167 627.029C412.475 624.712 412.513 622.238 413.277 619.944C413.713 618.521 414.434 617.202 415.397 616.067C416.359 614.932 417.542 614.004 418.874 613.339C420.206 612.675 421.66 612.289 423.146 612.203C424.633 612.118 426.121 612.336 427.52 612.843C429.8 613.727 431.661 615.441 432.728 617.64C433.474 619.091 433.82 620.714 433.732 622.342C433.714 622.776 433.651 623.207 433.544 623.628C433.529 623.785 433.486 623.939 433.418 624.082Z" fill="#263238"/>
<g style="mix-blend-mode:luminosity" opacity="0.5">
<path d="M478.535 302.972C474.203 302.837 469.866 303.031 465.563 303.552C452.507 305.238 440.518 311.634 431.851 321.536C423.184 331.438 418.437 344.164 418.504 357.319C418.436 365.972 419.545 374.593 421.798 382.948C429.343 409.675 431.665 433.25 430.802 444.725L456.041 458.284C456.041 458.284 467.743 441.511 479.021 434.269C490.3 427.027 527.915 407.621 542.786 387.776C552.386 374.954 554.237 348.588 531.366 325.608C517.309 311.576 498.398 303.473 478.535 302.972Z" fill="white"/>
<path d="M418.848 473.912L441.655 486.233L426.801 505.09L411.601 498.178L418.848 473.912Z" fill="#455A64"/>
<path d="M419.946 474.68C419.757 474.602 422.016 467.846 425.012 459.569C428.008 451.293 430.596 444.646 430.8 444.725C431.004 444.803 428.73 451.559 425.734 459.836C424.058 464.879 422.126 469.834 419.946 474.68Z" fill="#263238"/>
<path d="M440.212 485.355C440.04 485.246 443.6 478.866 448.196 471.091C452.792 463.316 456.667 457.093 456.855 457.202C457.043 457.312 453.467 463.708 448.871 471.483C444.275 479.258 440.4 485.355 440.212 485.355Z" fill="#263238"/>
<g opacity="0.4">
<path d="M486.112 303.678C485.092 303.678 472.527 318.412 466.974 328.351C448.308 361.786 447.461 394.328 442.284 432.263C441.531 437.671 438.849 449.364 438.896 449.082C441.657 451.261 450.943 455.556 450.943 455.556C450.943 455.556 459.712 444.991 463.194 439.677C477.124 418.406 492.261 401.821 504.198 379.358C516.135 356.896 527.617 337.035 516.559 314.055C516.59 314.055 497.469 303.051 486.112 303.678Z" fill="black"/>
</g>
<path d="M542.896 391.146C542.756 390.921 542.645 390.679 542.566 390.425C542.347 389.939 542.111 389.203 541.688 388.294C540.505 385.668 539.026 383.185 537.28 380.895C534.595 377.349 531.322 374.289 527.602 371.85C522.823 368.694 517.38 366.683 511.696 365.972H511.555L511.46 365.846C508.414 361.66 505.002 357.752 501.264 354.168C497.197 350.219 492.493 346.981 487.351 344.591C482.193 342.272 476.561 341.199 470.912 341.456C465.76 341.665 460.772 343.328 456.527 346.252L456.292 346.409L456.088 346.221C451.767 342.454 446.41 340.077 440.715 339.402C436.29 338.905 431.809 339.475 427.649 341.064C424.954 342.098 422.428 343.524 420.151 345.296C419.351 345.907 418.77 346.409 418.378 346.754C418.201 346.949 418.001 347.123 417.782 347.271C417.93 347.053 418.104 346.853 418.3 346.675C418.843 346.124 419.413 345.601 420.01 345.108C422.881 342.736 426.196 340.96 429.762 339.884C433.328 338.807 437.073 338.451 440.778 338.838C446.583 339.493 452.053 341.893 456.464 345.719H456.041C460.381 342.678 465.505 340.948 470.802 340.735C476.571 340.432 482.33 341.507 487.602 343.87C492.82 346.301 497.592 349.592 501.719 353.604C505.47 357.235 508.893 361.19 511.947 365.423L511.711 365.282C517.491 366.023 523.014 368.112 527.837 371.38C531.596 373.871 534.883 377.007 537.547 380.644C539.276 382.982 540.709 385.525 541.813 388.215C542.205 389.14 542.409 389.892 542.598 390.378C542.718 390.626 542.817 390.883 542.896 391.146Z" fill="#263238"/>
<path d="M495.944 424.456C495.573 422.508 494.838 420.647 493.78 418.97C492.541 417.056 490.884 415.448 488.933 414.267C486.433 412.721 483.499 412.028 480.572 412.292H480.258V411.979C479.685 408.44 478.258 405.093 476.101 402.229C473.707 398.976 470.446 396.461 466.69 394.971C463.716 393.797 460.524 393.275 457.331 393.44C454.138 393.605 451.017 394.453 448.18 395.927L447.945 396.053L447.756 395.849C445.413 393.383 442.339 391.734 438.988 391.146C436.389 390.632 433.708 390.713 431.145 391.381C428.869 392.01 426.738 393.075 424.87 394.516C424.87 394.516 424.964 394.391 425.2 394.172C425.535 393.855 425.891 393.562 426.266 393.294C427.693 392.273 429.285 391.504 430.972 391.021C433.595 390.251 436.362 390.106 439.05 390.598C442.558 391.175 445.784 392.875 448.243 395.441H447.819C450.742 393.891 453.967 392.992 457.271 392.808C460.575 392.624 463.879 393.159 466.956 394.375C470.595 395.87 473.785 398.279 476.218 401.369C478.65 404.459 480.242 408.124 480.839 412.01L480.462 411.728C483.53 411.475 486.596 412.241 489.184 413.907C491.176 415.137 492.853 416.818 494.078 418.813C494.866 420.081 495.429 421.476 495.741 422.936C495.85 423.437 495.866 423.829 495.913 424.096C495.96 424.362 495.976 424.456 495.944 424.456Z" fill="#263238"/>
<path d="M437.247 492.174C437.247 492.174 436.996 491.861 436.416 491.625C435.544 491.346 434.603 491.373 433.749 491.704C433.094 491.917 432.413 492.039 431.725 492.064C431.302 492.061 430.883 491.971 430.495 491.802C430.107 491.632 429.757 491.385 429.467 491.077C428.259 489.823 427.804 487.942 426.659 486.735C426.396 486.441 426.071 486.21 425.707 486.059C425.343 485.907 424.95 485.838 424.557 485.857C423.749 485.938 422.951 486.095 422.172 486.327C421.399 486.556 420.582 486.599 419.788 486.453C419.092 486.306 418.447 485.976 417.921 485.496C417.124 484.86 416.57 483.969 416.353 482.973C416.238 482.621 416.238 482.242 416.353 481.891C416.353 481.891 416.353 482.267 416.62 482.894C416.908 483.763 417.456 484.523 418.188 485.073C418.667 485.456 419.232 485.714 419.835 485.825C420.536 485.914 421.248 485.85 421.921 485.637C422.744 485.374 423.589 485.19 424.447 485.089C424.951 485.063 425.455 485.149 425.921 485.342C426.388 485.534 426.806 485.828 427.145 486.202C428.463 487.769 428.886 489.509 429.906 490.575C430.127 490.827 430.396 491.032 430.698 491.177C431 491.323 431.328 491.406 431.663 491.422C432.293 491.418 432.92 491.334 433.529 491.171C434.494 490.859 435.541 490.921 436.463 491.343C437.184 491.735 437.278 492.174 437.247 492.174Z" fill="#263238"/>
<path d="M439.868 488.49C436.044 486.891 432.324 485.053 428.73 482.988C425.018 481.156 421.424 479.093 417.97 476.812C421.794 478.412 425.513 480.249 429.107 482.314C432.819 484.147 436.413 486.21 439.868 488.49Z" fill="#263238"/>
<path d="M435.333 494.259C435.333 494.259 435.02 494.416 434.455 494.682C434.188 494.808 433.859 494.996 433.435 495.168C432.934 495.351 432.398 495.421 431.867 495.372C430.491 495.298 429.174 494.794 428.102 493.93C427.476 493.394 426.986 492.717 426.675 491.955C426.408 491.218 426.033 490.526 425.561 489.901C424.996 489.425 424.336 489.073 423.625 488.871C422.913 488.668 422.167 488.618 421.435 488.726C420.1 488.877 418.747 488.744 417.467 488.334C416.586 488.003 415.867 487.346 415.459 486.5C415.208 485.888 415.302 485.512 415.334 485.512C415.365 485.512 415.428 485.857 415.726 486.359C416.182 487.055 416.863 487.575 417.655 487.832C418.883 488.121 420.155 488.18 421.404 488.004C422.242 487.877 423.097 487.935 423.91 488.173C424.723 488.411 425.474 488.825 426.11 489.384C426.639 490.064 427.053 490.827 427.333 491.641C427.594 492.308 428.008 492.904 428.541 493.381C429.488 494.181 430.651 494.683 431.882 494.823C432.721 494.898 433.565 494.752 434.33 494.4C434.646 494.264 434.992 494.216 435.333 494.259Z" fill="#263238"/>
</g>
<path d="M263.116 347.867L302.582 342.02L283.759 315.372L273.641 315.967C270.304 316.163 267.087 317.283 264.35 319.202C261.613 321.12 259.464 323.761 258.143 326.83C256.711 330.152 256.312 333.828 256.998 337.38L263.116 347.867Z" fill="#7630A1"/>
<path opacity="0.4" d="M263.116 347.867L302.582 342.02L283.759 315.372L273.641 315.967C270.304 316.163 267.087 317.283 264.35 319.202C261.613 321.12 259.464 323.761 258.143 326.83C256.711 330.152 256.312 333.828 256.998 337.38L263.116 347.867Z" fill="black"/>
<path d="M432.542 391.538C432.95 392.667 433.405 394.015 433.844 395.614C434.236 396.983 434.379 398.411 434.268 399.83C434.218 401.603 433.922 403.359 433.389 405.05C432.731 406.539 434.237 408.044 435.523 407.292C436.809 406.539 438.66 402.48 438.566 397.228C438.472 391.977 443.805 398.263 445.797 400.52C447.789 402.777 454.284 409.471 455.476 409.408C457.201 409.314 457.421 407.449 455.382 405.238C453.342 403.028 447.68 395.99 448.919 394.987C450.158 393.983 460.134 405.646 460.134 405.646C460.134 405.646 461.86 408.468 463.272 407.37C465.938 405.379 454.409 393.811 453.28 392.729C452.495 391.977 453.813 390.848 454.613 391.695C455.413 392.541 464.307 403.53 467.036 401.539C469.123 399.971 457.625 391.93 457.06 388.623C456.495 385.315 465.154 395.645 467.083 394.093C467.805 393.513 468.276 392.996 462.378 387.823C459.538 385.299 448.778 377.775 448.778 377.775L416.417 285.134L391.413 299.445L432.542 391.538Z" fill="#FFBE9D"/>
<path d="M239.837 216.35L203.649 173.212C203.208 171.725 202.62 170.286 201.892 168.917C201.057 167.193 199.864 165.668 198.392 164.441C196.921 163.213 195.205 162.313 193.359 161.8C191.053 161.298 188.434 161.534 186.63 160.029C185.83 159.355 185.296 158.461 184.449 157.771C183.602 157.082 182.206 157.019 181.657 157.928C181.516 158.274 181.457 158.648 181.485 159.02C181.512 159.393 181.625 159.754 181.814 160.076C183.167 163.275 185.329 166.068 188.089 168.18C184.7 169.199 179.853 170.766 179.853 170.766C179.853 170.766 172.183 162.443 168.277 162.443C164.371 162.443 171.414 169.842 171.414 169.842C171.414 169.842 165.14 164.042 163.21 165.672C161.281 167.302 166.238 171.613 166.238 171.613C164.738 170.631 162.96 170.164 161.171 170.28C159.398 170.578 157.877 172.663 158.834 174.184C159.245 174.732 159.783 175.173 160.402 175.469L170.034 180.83C171.576 181.852 173.34 182.492 175.179 182.695C180.073 182.852 183.775 179.827 188.669 179.952C188.669 179.952 215.947 237.34 218.708 240.302C221.469 243.265 281.453 247.293 281.453 247.293L316.135 217.432L239.837 216.35Z" fill="#FFBE9D"/>
<path d="M348.481 528.964L385.438 545.047L365.641 591.086C361.359 588.922 362.755 561.302 362.755 561.302L338.661 551.897L348.481 528.964Z" fill="#7630A1"/>
<g opacity="0.6">
<path d="M366.896 546.223C367.223 545.837 367.68 545.586 368.181 545.517C368.682 545.447 369.19 545.565 369.61 545.846C370.001 546.161 370.26 546.613 370.332 547.11C370.405 547.607 370.287 548.113 370.002 548.527C369.654 548.933 369.169 549.196 368.639 549.265C368.109 549.335 367.572 549.206 367.131 548.903C366.75 548.538 366.527 548.039 366.51 547.511C366.492 546.984 366.682 546.471 367.037 546.082" fill="white"/>
</g>
<path opacity="0.6" d="M385.438 545.047L381.642 543.573L364.089 588.264C364.089 588.264 364.089 590.694 365.657 591.086L385.438 545.047Z" fill="white"/>
<path d="M362.19 561.961C362.425 562.055 363.006 560.973 364.198 560.174C365.39 559.374 366.598 559.186 366.598 558.951C366.598 558.716 365.155 558.481 363.727 559.468C362.3 560.456 361.986 561.914 362.19 561.961Z" fill="#263238"/>
<path d="M362.19 567.651C362.394 567.792 363.194 566.977 364.465 566.632C365.735 566.287 366.849 566.475 366.943 566.256C367.037 566.036 365.814 565.331 364.229 565.801C362.645 566.271 361.923 567.541 362.19 567.651Z" fill="#263238"/>
<path d="M366.739 572.871C366.864 572.683 365.876 571.883 364.402 571.946C362.927 572.009 361.97 572.824 362.127 573.012C362.284 573.2 363.209 572.808 364.417 572.792C365.625 572.777 366.613 573.137 366.739 572.871Z" fill="#263238"/>
<path d="M356.949 559.217C357.2 559.217 357.326 558.057 357.953 556.819C358.58 555.581 359.412 554.766 359.271 554.562C359.13 554.358 357.922 554.969 357.2 556.443C356.479 557.916 356.73 559.264 356.949 559.217Z" fill="#263238"/>
<path d="M351.962 555.785C352.488 555.112 352.824 554.311 352.935 553.465C353.151 552.572 353.251 551.655 353.233 550.737C353.22 550.212 353.173 549.688 353.092 549.17C353.064 548.851 352.984 548.538 352.856 548.245C352.756 548.03 352.589 547.854 352.379 547.743C352.169 547.633 351.929 547.594 351.695 547.633C351.491 547.678 351.3 547.771 351.139 547.904C350.978 548.038 350.851 548.209 350.77 548.402C350.637 548.69 350.547 548.996 350.503 549.311C350.414 549.854 350.377 550.406 350.394 550.957C350.408 551.885 350.567 552.805 350.864 553.684C351.071 554.52 351.524 555.273 352.166 555.847C352.276 555.769 351.805 554.954 351.445 553.512C351.242 552.676 351.152 551.816 351.178 550.957C351.181 550.43 351.234 549.906 351.335 549.389C351.335 548.856 351.586 548.433 351.852 548.402C352.119 548.37 351.994 548.401 352.103 548.574C352.189 548.79 352.247 549.017 352.276 549.248C352.489 550.609 352.489 551.994 352.276 553.355C352.116 554.157 352.012 554.969 351.962 555.785Z" fill="#263238"/>
<path d="M352.403 555.628C352.481 555.628 351.854 554.766 350.442 554.06C349.602 553.658 348.701 553.399 347.775 553.292C347.228 553.237 346.676 553.237 346.128 553.292C345.769 553.284 345.414 553.369 345.098 553.539C344.781 553.71 344.515 553.96 344.324 554.264C344.242 554.471 344.22 554.698 344.262 554.917C344.304 555.137 344.407 555.34 344.56 555.502C344.776 555.734 345.025 555.935 345.297 556.098C345.78 556.405 346.31 556.633 346.865 556.772C347.787 557.007 348.752 557.007 349.673 556.772C351.242 556.396 351.932 555.565 351.854 555.518C351.103 555.784 350.339 556.009 349.564 556.192C348.732 556.305 347.887 556.235 347.085 555.988C346.622 555.84 346.18 555.635 345.767 555.377C345.313 555.095 344.999 554.734 345.124 554.578C345.26 554.42 345.428 554.295 345.618 554.211C345.808 554.127 346.015 554.086 346.222 554.092C346.744 554.041 347.269 554.041 347.791 554.092C348.643 554.151 349.483 554.33 350.285 554.625C351.587 555.126 352.324 555.738 352.403 555.628Z" fill="#263238"/>
<path d="M320.026 592.214L335.32 624.192L340.026 652.987C340.107 653.479 340.289 653.948 340.559 654.366C340.83 654.783 341.184 655.141 341.599 655.416C342.014 655.691 342.482 655.878 342.972 655.964C343.463 656.051 343.966 656.035 344.45 655.919C345.014 655.788 345.538 655.523 345.978 655.147C346.418 654.77 346.76 654.293 346.975 653.755C349.783 646.811 359.979 621.198 358.74 618.909C357.36 616.276 344.936 584.11 344.936 584.11L320.026 592.214Z" fill="#7630A1"/>
<path opacity="0.6" d="M344.528 655.919L357.83 616.73L358.442 618.11C358.981 619.29 359.081 620.624 358.724 621.872C357.752 625.195 354.866 634.412 347.148 653.724C346.927 654.278 346.572 654.768 346.115 655.151C345.658 655.534 345.112 655.798 344.528 655.919Z" fill="white"/>
<g opacity="0.6">
<path d="M346.503 609.285C346.231 609.755 346.144 610.31 346.26 610.84C346.376 611.371 346.687 611.839 347.13 612.153C347.589 612.438 348.14 612.534 348.669 612.423C349.198 612.313 349.663 612.002 349.969 611.558C350.251 611.057 350.338 610.469 350.213 609.908C350.089 609.347 349.762 608.852 349.295 608.517C348.78 608.276 348.193 608.241 347.654 608.419C347.115 608.597 346.663 608.974 346.393 609.473" fill="white"/>
</g>
<path d="M345.564 638.472C344.331 637.813 342.984 637.393 341.595 637.234C340.199 637.302 338.827 637.626 337.548 638.19C337.548 638.19 337.783 637.688 338.489 637.249C339.436 636.688 340.525 636.41 341.626 636.45C342.751 636.465 343.845 636.82 344.764 637.469C345.36 637.955 345.626 638.409 345.564 638.472Z" fill="#263238"/>
<path d="M345.202 643.833C345.107 644.053 343.633 643.473 341.719 643.739C339.805 644.006 338.582 644.93 338.362 644.742C339.187 643.771 340.343 643.14 341.607 642.972C342.87 642.804 344.151 643.111 345.202 643.833Z" fill="#263238"/>
<path d="M347.351 630.995C345.574 630.686 343.775 630.513 341.971 630.478C340.182 630.701 338.41 631.046 336.669 631.512C338.156 630.304 340.023 629.66 341.94 629.694C343.841 629.469 345.76 629.93 347.351 630.995Z" fill="#263238"/>
<path d="M343.523 620.884C343.523 621.119 341.405 621.182 339.037 622.138C336.668 623.095 335.084 624.49 334.927 624.317C335.814 622.924 337.172 621.895 338.754 621.417C340.232 620.687 341.92 620.499 343.523 620.884Z" fill="#263238"/>
<path d="M339.273 611.385C337.658 611.558 336.074 611.954 334.567 612.561C333.167 613.381 331.889 614.394 330.771 615.57C330.677 615.57 330.85 614.959 331.399 614.191C332.142 613.2 333.109 612.4 334.222 611.855C335.334 611.31 336.56 611.036 337.799 611.056C338.74 611.072 339.289 611.291 339.273 611.385Z" fill="#263238"/>
<path d="M333.812 610.758C333.521 610.408 333.316 609.995 333.216 609.551C332.822 608.381 332.662 607.146 332.745 605.914C332.728 605.006 333.015 604.117 333.561 603.391C333.754 603.177 334.007 603.027 334.287 602.96C334.567 602.893 334.861 602.912 335.129 603.014C335.657 603.266 336.075 603.701 336.306 604.237C336.719 605.358 336.729 606.587 336.334 607.714C335.939 608.841 335.164 609.795 334.141 610.413C333.119 611.006 331.944 611.28 330.764 611.202C329.585 611.124 328.456 610.697 327.522 609.974C327.28 609.79 327.084 609.553 326.948 609.281C326.812 609.01 326.74 608.711 326.737 608.407C326.75 608.104 326.859 607.814 327.048 607.577C327.237 607.34 327.496 607.17 327.788 607.09C328.666 606.914 329.573 606.968 330.424 607.247C331.618 607.563 332.745 608.094 333.749 608.814C334.471 609.316 334.784 609.676 334.753 609.708C333.366 608.871 331.866 608.237 330.298 607.827C329.546 607.621 328.756 607.594 327.992 607.748C327.834 607.791 327.693 607.881 327.589 608.008C327.484 608.134 327.423 608.29 327.412 608.454C327.438 608.649 327.502 608.837 327.602 609.006C327.702 609.176 327.834 609.324 327.992 609.441C328.818 610.038 329.799 610.385 330.817 610.44C331.835 610.496 332.847 610.258 333.733 609.755C334.596 609.229 335.254 608.427 335.602 607.479C335.949 606.531 335.965 605.493 335.647 604.535C335.495 604.156 335.219 603.841 334.863 603.641C334.709 603.574 334.538 603.557 334.374 603.594C334.211 603.63 334.063 603.718 333.953 603.845C333.506 604.463 333.255 605.2 333.231 605.961C333.146 607.582 333.342 609.205 333.812 610.758Z" fill="#263238"/>
<path d="M371.602 532.867L329.704 504.652L343.57 368.589L303.884 345.437L267.602 337.035C267.602 337.035 252.449 368.542 245.641 388.764C231.304 431.651 221.249 447.029 223.539 478.113C224.277 487.957 260.637 512.599 283.602 526.252C283.853 528.99 284.262 531.712 284.825 534.403C292.669 569.845 316.621 616.997 316.621 616.997L353.029 600.083L341.28 559.891L353.515 567.024L371.602 532.867ZM281.547 445.085L286.441 423.281C285.406 437.138 284.465 451.606 283.79 465.479C281.393 458.987 280.597 452.013 281.469 445.148L281.547 445.085Z" fill="#263238"/>
<path d="M316.605 617.028C316.49 616.851 316.396 616.662 316.323 616.464C316.15 616.041 315.899 615.477 315.57 614.74L312.762 608.109C310.346 602.341 306.879 594.001 302.707 583.577C298.534 573.153 293.64 560.801 288.589 546.85C287.35 543.37 286.142 539.765 284.997 536.065C284.495 534.184 283.852 532.319 283.523 530.344C283.429 529.842 283.319 529.356 283.24 528.854L283.068 527.381C282.958 526.378 282.848 525.39 282.723 524.387C282.304 520.374 281.959 516.293 281.687 512.145C281.562 510.06 281.436 507.959 281.358 505.874C281.28 503.79 281.185 501.626 281.358 499.495C281.97 482.393 283.413 466.184 284.589 451.434C285.766 436.683 286.942 423.438 287.868 412.245C288.793 401.053 289.436 392.056 289.766 385.817C289.954 382.682 290.064 380.268 290.142 378.622C290.142 377.822 290.142 377.211 290.252 376.741C290.362 376.271 290.252 376.114 290.252 376.114C290.276 376.327 290.276 376.543 290.252 376.756C290.252 377.211 290.252 377.822 290.252 378.622C290.252 380.189 290.174 382.697 290.017 385.832C289.75 392.103 289.201 401.116 288.448 412.277C287.695 423.438 286.519 436.73 285.311 451.465C284.103 466.2 282.754 482.44 282.174 499.479C282.048 501.611 282.174 503.696 282.174 505.749C282.174 507.802 282.362 509.934 282.487 512.019C282.749 516.199 283.094 520.275 283.523 524.246L283.852 527.224L284.025 528.698C284.103 529.184 284.213 529.67 284.307 530.14C284.605 532.052 285.248 533.918 285.734 535.783C286.864 539.482 288.072 543.072 289.295 546.552C294.221 560.487 299.099 572.902 303.178 583.311L312.997 607.937L315.664 614.614L316.354 616.37C316.466 616.578 316.55 616.799 316.605 617.028Z" fill="#455A64"/>
<path d="M288.606 371.505C288.251 371.291 287.928 371.027 287.649 370.721C286.905 369.881 286.305 368.922 285.876 367.884C284.648 364.418 284.048 360.761 284.104 357.084C284.058 353.445 284.231 349.807 284.621 346.189C284.696 344.679 284.906 343.179 285.249 341.706C285.377 343.208 285.377 344.719 285.249 346.221C285.108 349.011 284.872 352.836 284.951 357.068C284.926 360.665 285.455 364.244 286.519 367.68C286.885 368.694 287.387 369.654 288.01 370.533C288.465 371.113 288.637 371.458 288.606 371.505Z" fill="#455A64"/>
<path d="M272.934 339.12C273.311 340.352 273.418 341.651 273.248 342.929C273.043 346.047 272.007 349.053 270.247 351.636C268.487 354.218 266.068 356.283 263.24 357.617C262.107 358.235 260.856 358.608 259.569 358.714C259.569 358.588 260.95 358.228 262.989 357.146C265.643 355.733 267.913 353.696 269.605 351.211C271.296 348.726 272.358 345.868 272.699 342.882C272.981 340.577 272.777 339.135 272.934 339.12Z" fill="#455A64"/>
<path d="M338.033 418.218C338.054 418.353 338.054 418.49 338.033 418.625C338.033 418.955 338.033 419.346 337.923 419.848C337.813 420.961 337.657 422.513 337.468 424.551C337.013 428.642 336.386 434.457 335.602 441.621C334.033 456.074 331.712 475.95 329.217 497.896C328.339 508.24 329.038 518.657 331.288 528.792C332.275 533.205 333.543 537.551 335.084 541.802C336.496 545.831 337.798 549.64 339.006 552.995C341.359 559.798 343.288 565.331 344.637 569.219C345.264 571.1 345.766 572.573 346.127 573.639L346.488 574.799C346.538 574.931 346.575 575.067 346.598 575.207C346.535 575.047 346.503 574.877 346.504 574.705L346.049 573.576L344.48 569.203C343.084 565.331 341.076 559.798 338.629 553.057C337.39 549.64 336.057 545.909 334.613 541.896C333.038 537.626 331.739 533.26 330.723 528.823C328.418 518.622 327.699 508.127 328.59 497.708C331.037 475.762 333.468 455.839 335.194 441.433C336.072 434.285 336.763 428.485 337.296 424.394C337.563 422.434 337.766 420.883 337.908 419.691L338.096 418.484C338.002 418.359 338.033 418.218 338.033 418.218Z" fill="#455A64"/>
<path d="M267.524 336.815L273.956 320.419L288.607 342.27L269.062 337.38" fill="#FFBE9D"/>
<path d="M420.965 287.501L403.569 248.516C401.483 242.246 397.577 241.274 394.314 237.637L350.707 213.058C318.942 200.048 301.64 243.672 301.64 243.672L272.762 309.509C238.801 320.764 262.848 346.816 262.848 346.816C262.848 346.816 253.609 330.78 262.691 324.981C272.213 318.93 282.754 334.887 292.887 350.061C304.856 367.978 343.726 379.609 343.726 379.609C348.26 374.797 346.989 358.04 350.55 349.058C351.679 346.205 378.597 283.895 378.597 283.895L389.028 309.164C389.028 309.164 402.408 293.489 408.887 290.996C412.805 289.487 416.846 288.318 420.965 287.501Z" fill="#7630A1"/>
<path d="M343.728 315.199C343.329 315.569 342.88 315.88 342.394 316.124C341.134 316.865 339.811 317.494 338.441 318.005C333.871 319.716 328.937 320.224 324.113 319.48C319.289 318.736 314.738 316.765 310.896 313.757C309.74 312.854 308.664 311.852 307.681 310.763C307.293 310.388 306.96 309.961 306.692 309.493C306.802 309.384 308.261 311.155 311.226 313.318C315.063 316.135 319.523 317.985 324.228 318.711C328.934 319.437 333.745 319.017 338.253 317.488C341.798 316.312 343.649 315.074 343.728 315.199Z" fill="#263238"/>
<path d="M271.475 253.36L298.377 255.899L341.42 210.441L316.103 209.579L271.021 214.015C273.402 227.009 273.555 240.314 271.475 253.36Z" fill="#7630A1"/>
<path d="M308.857 229.424C308.782 229.713 308.671 229.992 308.527 230.254L307.445 232.574L303.461 241.102C300.104 248.297 295.617 258.345 290.912 269.458C286.206 280.572 281.719 290.667 278.363 297.894C276.716 301.515 275.351 304.43 274.363 306.421C273.908 307.361 273.531 308.114 273.233 308.71C273.116 308.989 272.963 309.253 272.778 309.493C272.852 309.201 272.957 308.917 273.092 308.647C273.343 308.036 273.688 307.252 274.096 306.296C275.021 304.164 276.292 301.248 277.861 297.674L290.143 269.161C294.959 258.031 299.476 248.015 302.959 240.867C304.684 237.293 306.096 234.408 307.178 232.449L308.386 230.192C308.506 229.915 308.665 229.656 308.857 229.424Z" fill="#263238"/>
<path d="M390.96 242.654C390.96 242.779 389.392 243.641 387.086 245.585C385.762 246.727 384.544 247.986 383.447 249.347C382.132 251.024 380.992 252.831 380.043 254.739C379.132 256.675 378.418 258.697 377.909 260.774C377.514 262.473 377.283 264.205 377.219 265.947C377.094 268.925 377.455 270.775 377.219 270.807C377.057 270.393 376.946 269.961 376.89 269.521C376.784 269.004 376.716 268.48 376.686 267.954C376.605 267.272 376.569 266.586 376.576 265.9C376.579 264.115 376.763 262.334 377.125 260.586C377.603 258.424 378.319 256.321 379.258 254.316C380.237 252.351 381.431 250.5 382.819 248.798C383.962 247.42 385.251 246.169 386.662 245.068C387.193 244.632 387.754 244.234 388.341 243.876C388.762 243.578 389.208 243.315 389.674 243.092C390.076 242.876 390.51 242.728 390.96 242.654Z" fill="#263238"/>
<path d="M398.473 180.203L373.171 227.355C371.182 231.063 367.861 233.881 363.877 235.242C359.893 236.603 355.541 236.406 351.697 234.691C349.625 233.754 347.767 232.403 346.238 230.722C344.709 229.04 343.541 227.063 342.806 224.912C342.071 222.762 341.785 220.484 341.965 218.219C342.145 215.953 342.788 213.749 343.854 211.742C346.222 207.243 348.199 203.575 348.199 203.575C348.199 203.575 337.218 196.458 342.363 184.608C346.944 174.043 363.744 144.212 367.32 137.895L388.591 147.41C391.428 148.88 393.94 150.904 395.98 153.362C398.02 155.82 399.546 158.662 400.468 161.719C401.389 164.777 401.688 167.988 401.345 171.163C401.002 174.338 400.026 177.412 398.473 180.203Z" fill="#FFBE9D"/>
<path d="M348.261 203.387C353.636 205.915 359.642 206.788 365.516 205.895C365.516 205.895 358.08 212.761 346.786 206.428L348.261 203.387Z" fill="#EB996E"/>
<path d="M356.371 165.703C356.167 166.138 356.143 166.636 356.304 167.088C356.466 167.54 356.8 167.91 357.234 168.117C357.44 168.231 357.667 168.303 357.901 168.328C358.136 168.352 358.372 168.329 358.598 168.261C358.823 168.192 359.032 168.079 359.213 167.927C359.394 167.776 359.542 167.59 359.649 167.381C359.846 166.942 359.866 166.445 359.706 165.993C359.545 165.54 359.216 165.167 358.787 164.951C358.579 164.84 358.351 164.771 358.117 164.748C357.882 164.726 357.646 164.75 357.421 164.82C357.196 164.891 356.987 165.005 356.807 165.156C356.627 165.308 356.478 165.494 356.371 165.703Z" fill="#263238"/>
<path d="M356.463 164.198C356.573 164.512 358.267 164.198 360.071 164.951C361.875 165.703 362.816 167.271 363.114 167.13C363.412 166.989 363.208 166.581 362.816 165.907C362.281 165.011 361.481 164.305 360.526 163.885C359.581 163.463 358.528 163.348 357.514 163.556C356.761 163.744 356.4 164.01 356.463 164.198Z" fill="#263238"/>
<path d="M373.31 174.027C373.115 174.467 373.097 174.966 373.26 175.418C373.424 175.871 373.757 176.243 374.189 176.457C374.395 176.569 374.622 176.638 374.856 176.662C375.09 176.685 375.326 176.662 375.551 176.594C375.776 176.525 375.985 176.412 376.165 176.263C376.346 176.113 376.496 175.928 376.604 175.72C376.801 175.282 376.821 174.785 376.661 174.332C376.5 173.88 376.171 173.506 375.742 173.29C375.534 173.178 375.306 173.108 375.071 173.084C374.836 173.061 374.598 173.084 374.372 173.152C374.146 173.221 373.936 173.333 373.754 173.483C373.571 173.634 373.421 173.818 373.31 174.027Z" fill="#263238"/>
<path d="M374.127 172.506C374.237 172.82 375.931 172.506 377.735 173.259C379.539 174.011 380.48 175.563 380.762 175.438C381.045 175.312 380.872 174.889 380.48 174.215C379.946 173.32 379.145 172.613 378.19 172.193C377.245 171.771 376.192 171.656 375.178 171.864C374.425 172.052 374.064 172.35 374.127 172.506Z" fill="#263238"/>
<path d="M361.53 182.993C360.715 182.262 359.808 181.64 358.832 181.143C358.377 180.893 357.985 180.595 358.048 180.25C358.226 179.754 358.549 179.323 358.973 179.012L361.922 176.112C364.519 173.686 366.926 171.066 369.122 168.274C366.313 170.468 363.689 172.89 361.279 175.516C360.26 176.535 359.303 177.522 358.377 178.463C357.841 178.895 357.47 179.498 357.326 180.172C357.318 180.365 357.355 180.558 357.434 180.734C357.513 180.911 357.632 181.067 357.781 181.19C358.006 181.374 358.253 181.527 358.518 181.645C359.463 182.217 360.475 182.669 361.53 182.993Z" fill="#263238"/>
<path d="M366.3 186.63C366.018 186.473 365.139 188.448 362.818 189.091C360.496 189.734 358.52 188.574 358.379 188.84C358.237 189.107 358.677 189.436 359.555 189.859C360.7 190.386 361.992 190.496 363.21 190.173C364.379 189.853 365.379 189.095 366.002 188.056C366.441 187.257 366.441 186.677 366.3 186.63Z" fill="#263238"/>
<path d="M376.825 165.202C376.825 165.766 378.708 166.346 380.715 167.553C382.723 168.76 384.182 170.108 384.668 169.794C384.888 169.638 384.794 169.042 384.323 168.227C383.658 167.23 382.772 166.399 381.735 165.797C380.705 165.18 379.544 164.815 378.347 164.731C377.421 164.716 376.857 164.919 376.825 165.202Z" fill="#263238"/>
<path d="M359.476 159.308C359.601 159.856 361.044 159.982 362.613 160.64C364.182 161.299 365.264 162.208 365.75 161.847C365.97 161.706 365.954 161.205 365.578 160.562C365.039 159.764 364.277 159.144 363.387 158.779C362.496 158.413 361.518 158.319 360.574 158.508C359.789 158.649 359.429 158.994 359.476 159.308Z" fill="#263238"/>
<path d="M390.535 187.272C390.771 187.272 399.712 188.511 395.853 196.443C391.994 204.374 384.794 198.872 384.873 198.637C384.951 198.402 390.535 187.272 390.535 187.272Z" fill="#FFBE9D"/>
<path d="M388.856 196.803C388.856 196.803 388.951 196.976 389.123 197.195C389.386 197.49 389.75 197.674 390.143 197.712C390.823 197.649 391.474 197.402 392.026 196.999C392.579 196.597 393.012 196.052 393.28 195.424C393.624 194.747 393.817 194.004 393.845 193.245C393.894 192.961 393.872 192.67 393.782 192.397C393.691 192.123 393.535 191.876 393.327 191.677C393.185 191.563 393.008 191.5 392.825 191.5C392.642 191.5 392.465 191.563 392.323 191.677C392.119 191.85 392.088 192.038 392.041 192.022C391.994 192.007 391.931 191.803 392.151 191.505C392.294 191.33 392.493 191.208 392.715 191.16C393.014 191.104 393.324 191.166 393.578 191.333C393.87 191.561 394.1 191.858 394.248 192.197C394.396 192.537 394.457 192.907 394.425 193.276C394.418 194.127 394.214 194.964 393.829 195.722C393.519 196.446 393.003 197.065 392.345 197.499C391.687 197.934 390.916 198.166 390.127 198.167C389.882 198.13 389.648 198.036 389.447 197.891C389.245 197.747 389.08 197.557 388.966 197.336C388.715 197.007 388.747 196.803 388.856 196.803Z" fill="#EB996E"/>
<path d="M395.131 189.091C394.396 188.706 393.571 188.526 392.743 188.57C391.915 188.614 391.114 188.881 390.425 189.342C389.374 190.251 388.683 191.505 387.648 192.477C387.169 192.98 386.536 193.31 385.849 193.415C385.162 193.52 384.46 193.394 383.852 193.057C383.495 192.738 383.229 192.332 383.08 191.877C382.932 191.423 382.906 190.938 383.005 190.47C383.21 189.538 383.593 188.655 384.134 187.868C386.299 184.31 388.762 180.94 390.613 177.209C392.625 173.544 393.504 169.366 393.138 165.202C392.927 163.128 392.16 161.149 390.918 159.474C389.676 157.8 388.004 156.491 386.08 155.687C383.476 154.762 380.605 155.044 377.954 154.276C376.383 153.808 374.94 152.989 373.733 151.881C372.527 150.773 371.588 149.405 370.989 147.88C370.678 147.271 370.332 146.679 369.954 146.109C370.048 145.905 370.974 144.306 371.915 143.993C378.895 141.642 388.37 144.338 394.158 148.899C397.109 151.2 399.524 154.115 401.236 157.442C402.948 160.768 403.915 164.427 404.072 168.164C404.15 175.516 399.507 183.652 395.193 189.138" fill="#263238"/>
<path d="M395.227 188.213C397.423 184.467 401.015 181.739 403.744 178.353C406.474 174.967 408.356 170.202 406.411 166.299C405.752 164.966 404.685 163.854 404.121 162.474C403.696 161.04 403.438 159.562 403.352 158.069C402.992 155.788 402.123 153.617 400.809 151.717C399.494 149.818 397.769 148.238 395.76 147.097C392.968 145.529 389.736 144.902 386.913 143.429C382.427 141.062 379.148 136.704 374.442 134.838C373.684 134.476 372.858 134.276 372.018 134.252C371.178 134.228 370.342 134.379 369.564 134.697C369.188 134.874 368.854 135.13 368.585 135.446C368.316 135.763 368.118 136.133 368.003 136.532C367.889 136.931 367.861 137.35 367.922 137.761C367.983 138.172 368.131 138.565 368.356 138.914C368.265 138.552 368.096 138.213 367.86 137.923C367.624 137.634 367.327 137.399 366.991 137.236C366.654 137.073 366.286 136.986 365.912 136.981C365.538 136.975 365.168 137.052 364.827 137.205C364.16 137.571 363.616 138.123 363.262 138.795C362.908 139.467 362.759 140.228 362.834 140.983C363.021 142.496 363.612 143.931 364.544 145.137C367.447 149.26 371.732 152.208 376.623 153.445L387.446 152.599L396.325 159.167L402.976 169.575L391.07 185.047L395.227 188.213Z" fill="#263238"/>
<g style="mix-blend-mode:luminosity" opacity="0.5">
<path d="M327.474 126.53C327.034 119.7 324.766 113.114 320.907 107.459C317.049 101.805 311.742 97.2892 305.54 94.3847C299.339 91.4801 292.47 90.2931 285.653 90.9476C278.836 91.6022 272.319 94.0743 266.784 98.1056C261.25 102.137 256.9 107.58 254.19 113.865C251.479 120.15 250.508 127.048 251.376 133.837C252.245 140.625 254.922 147.057 259.128 152.458C263.334 157.86 268.914 162.033 275.286 164.543C275.569 169.073 275.898 174.168 275.898 174.168L309.357 172.005C309.357 172.005 309.2 166.597 308.965 161.769C314.995 158.165 319.913 152.968 323.179 146.751C326.445 140.534 327.931 133.537 327.474 126.53Z" fill="white"/>
<path d="M297.246 172.632V172.161C297.246 171.832 297.246 171.362 297.324 170.766C297.324 169.559 297.481 167.757 297.685 165.452C297.889 163.148 298.14 160.311 298.658 157.066C299.223 153.373 300.153 149.744 301.434 146.234C302.157 144.186 303.066 142.208 304.148 140.325C304.739 139.292 305.58 138.424 306.595 137.801C307.149 137.494 307.768 137.324 308.401 137.304C309.034 137.285 309.663 137.418 310.234 137.691C310.836 137.981 311.302 138.492 311.536 139.118C311.788 139.752 311.788 140.458 311.536 141.093C310.999 142.295 310.047 143.263 308.854 143.82C307.553 144.346 306.16 144.606 304.756 144.585C303.353 144.563 301.969 144.261 300.685 143.695C299.401 143.13 298.243 142.312 297.281 141.292C296.318 140.271 295.57 139.068 295.081 137.754C294.501 136.368 294.322 134.847 294.563 133.365C294.694 132.579 295.094 131.863 295.695 131.34C296.296 130.816 297.061 130.518 297.858 130.496C298.271 130.518 298.674 130.641 299.029 130.854C299.385 131.068 299.682 131.364 299.897 131.719C300.318 132.42 300.479 133.247 300.352 134.055C299.97 135.602 299.101 136.987 297.873 138.005C296.717 139.108 295.342 139.957 293.837 140.497C292.332 141.037 290.731 141.256 289.136 141.14C287.537 140.985 285.999 140.447 284.652 139.571C283.306 138.695 282.191 137.507 281.403 136.108C280.994 135.424 280.735 134.661 280.64 133.87C280.546 133.079 280.618 132.276 280.854 131.515C280.975 131.122 281.177 130.758 281.447 130.448C281.717 130.137 282.049 129.887 282.422 129.712C282.795 129.546 283.198 129.46 283.607 129.46C284.015 129.46 284.418 129.546 284.791 129.712C285.51 130.051 286.111 130.597 286.516 131.28C286.884 131.952 287.129 132.685 287.238 133.443C287.431 134.917 287.33 136.414 286.94 137.848C286.22 140.575 284.512 142.938 282.146 144.476C279.78 146.014 276.927 146.619 274.14 146.172C272.816 146.062 271.567 145.51 270.595 144.604C270.116 144.137 269.809 143.521 269.727 142.858C269.644 142.194 269.79 141.522 270.14 140.952C270.547 140.427 271.144 140.083 271.803 139.995C272.426 139.919 273.058 140.006 273.638 140.246C274.72 140.772 275.601 141.636 276.148 142.707C277.246 144.714 278.14 146.673 279.05 148.539C282.595 156.031 285.167 162.223 286.893 166.518C287.756 168.666 288.461 170.343 288.838 171.487C289.042 172.036 289.199 172.475 289.324 172.788L289.465 173.227C289.394 173.09 289.331 172.949 289.277 172.804C289.152 172.491 288.979 172.067 288.744 171.519L286.72 166.581C284.932 162.317 282.312 156.141 278.736 148.68C277.826 146.83 276.901 144.855 275.818 142.895C275.318 141.889 274.495 141.078 273.481 140.591C272.983 140.283 272.386 140.176 271.812 140.294C271.239 140.412 270.732 140.745 270.396 141.225C270.061 141.705 269.922 142.295 270.009 142.874C270.095 143.453 270.4 143.977 270.862 144.338C271.78 145.175 272.948 145.687 274.187 145.795C276.808 146.184 279.483 145.628 281.732 144.228C284.063 142.735 285.744 140.417 286.438 137.738C286.814 136.366 286.91 134.932 286.72 133.522C286.674 132.821 286.45 132.143 286.068 131.553C285.687 130.964 285.161 130.481 284.54 130.151C284.233 129.992 283.894 129.903 283.548 129.892C283.202 129.882 282.858 129.949 282.542 130.089C282.226 130.229 281.945 130.438 281.72 130.701C281.496 130.964 281.334 131.275 281.246 131.609C281.034 132.312 280.971 133.051 281.06 133.78C281.149 134.508 281.389 135.21 281.763 135.842C282.52 137.163 283.586 138.282 284.87 139.101C286.154 139.92 287.618 140.415 289.136 140.544C290.664 140.65 292.197 140.436 293.637 139.915C295.076 139.394 296.391 138.578 297.497 137.519C298.631 136.555 299.437 135.262 299.803 133.819C299.911 133.12 299.773 132.405 299.41 131.797C299.237 131.507 298.994 131.264 298.704 131.089C298.414 130.914 298.086 130.813 297.748 130.794C297.06 130.798 296.399 131.061 295.897 131.531C295.383 132.002 295.041 132.631 294.924 133.318C294.696 134.709 294.858 136.136 295.395 137.44C295.87 138.762 296.614 139.972 297.581 140.991C298.548 142.011 299.715 142.82 301.01 143.366C303.451 144.376 306.193 144.376 308.634 143.366C309.775 142.883 310.697 141.995 311.222 140.873C311.447 140.343 311.463 139.746 311.265 139.205C311.067 138.664 310.67 138.218 310.156 137.958C309.64 137.712 309.074 137.594 308.503 137.613C307.932 137.632 307.375 137.788 306.877 138.067C305.886 138.654 305.069 139.492 304.509 140.497C303.42 142.357 302.497 144.308 301.748 146.328C300.45 149.815 299.504 153.423 298.924 157.097C298.375 160.326 298.077 163.148 297.858 165.452C297.638 167.757 297.512 169.528 297.418 170.766L297.293 172.146C297.288 172.309 297.272 172.471 297.246 172.632Z" fill="#263238"/>
<path d="M307.177 178.369L278.455 180.219C277.883 180.253 277.321 180.059 276.892 179.68C276.463 179.301 276.201 178.768 276.165 178.196C276.131 177.625 276.324 177.063 276.704 176.634C277.083 176.205 277.617 175.944 278.189 175.908L306.894 174.058C307.466 174.019 308.03 174.209 308.462 174.585C308.895 174.961 309.16 175.493 309.2 176.065C309.235 176.638 309.042 177.201 308.663 177.633C308.284 178.064 307.75 178.329 307.177 178.369Z" fill="#263238"/>
<path d="M307.286 180.25L278.58 182.099C278.031 182.166 277.527 182.44 277.174 182.866C276.82 183.291 276.643 183.836 276.679 184.388C276.716 184.94 276.962 185.458 277.368 185.834C277.774 186.21 278.309 186.416 278.863 186.41L282 186.206L286.706 193.887C286.97 194.32 287.348 194.672 287.799 194.905C288.25 195.137 288.757 195.241 289.263 195.204L299.522 194.546C300.031 194.513 300.522 194.341 300.94 194.048C301.358 193.755 301.686 193.352 301.89 192.884L305.435 184.686L307.584 184.545C307.866 184.526 308.142 184.452 308.396 184.327C308.65 184.202 308.876 184.029 309.063 183.816C309.249 183.604 309.392 183.356 309.483 183.089C309.573 182.821 309.611 182.538 309.592 182.256C309.574 181.974 309.5 181.699 309.375 181.445C309.249 181.192 309.076 180.965 308.863 180.779C308.65 180.593 308.403 180.45 308.135 180.359C307.867 180.268 307.584 180.231 307.302 180.25H307.286Z" fill="#263238"/>
<g opacity="0.2">
<path d="M263.224 106.278C265.339 104.035 267.809 102.155 270.534 100.713C272.341 99.7294 274.288 99.0264 276.307 98.6284C277.75 98.3776 278.581 98.4716 278.66 98.7694C278.879 99.4435 276.056 100.666 272.385 103.472C267.497 107.013 263.735 111.889 261.551 117.514C259.366 123.139 258.853 129.274 260.072 135.183C260.903 139.886 262.174 142.613 261.546 143.021C261.279 143.178 260.605 142.676 259.711 141.453C258.497 139.796 257.535 137.968 256.856 136.03C255.842 133.121 255.313 130.065 255.287 126.985C255.176 123.2 255.788 119.428 257.091 115.871" fill="white"/>
</g>
<g opacity="0.2">
<path d="M287.947 99.8195C285.531 99.9449 283.351 99.4276 283.021 98.1579C282.88 97.5309 283.272 96.8255 284.119 96.2455C285.18 95.5634 286.404 95.179 287.665 95.1326C288.928 95.0321 290.195 95.2701 291.335 95.8223C292.229 96.2925 292.715 96.9509 292.653 97.5936" fill="white"/>
</g>
<path d="M301.39 193.59C300.712 193.47 300.042 193.313 299.382 193.119C297.77 192.771 296.114 192.67 294.472 192.822C292.851 192.979 291.263 193.386 289.766 194.029C288.59 194.514 287.915 194.938 287.868 194.875C288.384 194.392 288.978 194 289.625 193.715C291.151 192.972 292.798 192.51 294.488 192.351C296.179 192.188 297.886 192.337 299.523 192.79C300.186 192.95 300.817 193.22 301.39 193.59Z" fill="#455A64"/>
<path d="M305.498 184.78C305.498 184.921 300.321 185.36 293.921 185.767C287.521 186.175 282.313 186.41 282.313 186.285C282.313 186.159 287.49 185.705 293.89 185.297C300.29 184.89 305.498 184.654 305.498 184.78Z" fill="#455A64"/>
<path d="M303.93 188.307C303.01 188.546 302.07 188.704 301.122 188.777C299.381 188.997 296.965 189.247 294.283 189.467C291.601 189.686 289.185 189.796 287.428 189.859C286.478 189.94 285.523 189.94 284.573 189.859C285.51 189.682 286.459 189.577 287.412 189.545L294.252 189.028L301.075 188.479C302.021 188.348 302.975 188.29 303.93 188.307Z" fill="#455A64"/>
</g>
<path d="M97.0908 380.33L103.365 390.316C103.365 390.316 130.032 365.846 156.369 372.759C156.353 372.712 132.636 352.616 97.0908 380.33Z" fill="#7630A1"/>
<path d="M156.353 372.712C156.353 372.712 175.882 351.519 204.509 356.363L212.352 357.538L209.858 353.024C209.858 353.024 160.023 335.985 156.353 372.712Z" fill="#7630A1"/>
<path d="M115.131 301.264C115.131 301.264 76.0093 294.539 50.3623 308.412L91.1465 385.049C91.1465 385.049 124.495 352.93 156.401 372.712L115.131 301.264Z" fill="#FDFDFD"/>
<path d="M115.13 301.264C115.212 301.359 115.28 301.465 115.334 301.577C115.491 301.812 115.679 302.126 115.93 302.534L118.174 306.343L126.66 320.858L156.699 372.493C156.745 372.572 156.757 372.666 156.733 372.754C156.71 372.842 156.652 372.917 156.573 372.963C156.518 372.993 156.456 373.009 156.393 373.009C156.33 373.009 156.268 372.993 156.213 372.963C151.618 370.125 146.531 368.174 141.217 367.21C138.422 366.755 135.592 366.561 132.762 366.63C129.85 366.744 126.953 367.106 124.103 367.712C112.045 370.671 100.92 376.599 91.7423 384.955L91.4129 385.268C91.3776 385.306 91.3351 385.335 91.2879 385.356C91.2407 385.376 91.1898 385.387 91.1383 385.387C91.0869 385.387 91.036 385.376 90.9888 385.356C90.9416 385.335 90.899 385.306 90.8638 385.268V385.174L50.0326 308.553C50.0104 308.518 49.9956 308.48 49.9891 308.439C49.9826 308.398 49.9846 308.357 49.9949 308.317C50.0052 308.278 50.0236 308.24 50.049 308.208C50.0744 308.176 50.1062 308.149 50.1424 308.13C58.335 304.045 67.1794 301.425 76.2756 300.386C83.1938 299.519 90.1709 299.215 97.1383 299.477C102.911 299.665 107.429 300.135 110.472 300.511C112.04 300.684 113.17 300.872 113.954 300.997L114.832 301.154L115.13 301.232H114.817L113.938 301.123L110.456 300.731C107.319 300.417 102.895 300.01 97.1383 299.869C90.1883 299.685 83.2344 300.036 76.3384 300.919C67.3444 302.002 58.6046 304.627 50.5031 308.678L50.6443 308.224L91.4285 384.845L90.8011 384.751L91.1619 384.422C95.9178 380.175 101.15 376.493 106.754 373.449C112.129 370.49 117.896 368.305 123.883 366.959C126.781 366.348 129.724 365.981 132.683 365.862C135.561 365.804 138.439 366.008 141.279 366.473C146.697 367.499 151.87 369.542 156.526 372.493L156.056 372.947C143.836 351.66 133.593 333.759 126.393 321.219L118.048 306.578L115.915 302.628L115.35 301.609L115.13 301.264Z" fill="#263238"/>
<path d="M176.622 285.526C176.622 285.526 147.038 266.715 115.634 301.201L156.857 372.712C156.857 372.712 165.265 343.713 214.488 353.808L176.622 285.526Z" fill="#FDFDFD"/>
<path d="M176.619 285.526C176.694 285.621 176.762 285.72 176.823 285.824L177.357 286.749L179.427 290.385L187.27 304.242L214.737 353.682C214.767 353.739 214.781 353.803 214.776 353.867C214.772 353.931 214.75 353.993 214.712 354.045C214.675 354.097 214.623 354.138 214.564 354.162C214.505 354.187 214.44 354.194 214.376 354.184L207.051 352.977C205.8 352.765 204.537 352.623 203.27 352.554L199.396 352.256C198.093 352.13 196.782 352.099 195.474 352.162H191.49C190.141 352.162 188.808 352.428 187.459 352.554C186.097 352.664 184.745 352.868 183.411 353.165L179.364 354.09L175.411 355.469C174.094 355.924 172.87 356.661 171.584 357.241C170.934 357.535 170.314 357.892 169.733 358.307L167.929 359.451C166.737 360.25 165.67 361.222 164.557 362.131C163.504 363.119 162.509 364.166 161.576 365.266C159.691 367.501 158.21 370.048 157.2 372.791C157.167 372.888 157.098 372.968 157.008 373.015C156.917 373.062 156.811 373.071 156.713 373.041C156.622 373.012 156.545 372.951 156.494 372.869L154.925 369.985L115.349 301.421C115.308 301.366 115.286 301.3 115.286 301.233C115.286 301.165 115.308 301.099 115.349 301.045C121.58 293.981 129.193 288.268 137.717 284.256C144.314 281.247 151.545 279.891 158.784 280.306C163.41 280.578 167.961 281.6 172.259 283.331C173.387 283.787 174.487 284.31 175.553 284.899L176.368 285.369L176.619 285.542C176.619 285.542 176.51 285.542 176.337 285.401C176.164 285.259 175.851 285.165 175.506 284.977C174.768 284.617 173.67 284.099 172.18 283.535C167.889 281.887 163.361 280.934 158.768 280.714C151.582 280.33 144.411 281.702 137.874 284.711C129.497 288.765 122.027 294.47 115.914 301.483V301.092L155.537 369.64L157.106 372.524H156.4C157.433 369.663 158.968 367.009 160.933 364.686C161.91 363.57 162.952 362.513 164.055 361.52C165.2 360.595 166.298 359.608 167.521 358.793L169.357 357.617C169.953 357.196 170.589 356.834 171.255 356.535C172.525 355.868 173.828 355.266 175.161 354.733L179.192 353.322L183.364 352.428C184.714 352.132 186.081 351.927 187.459 351.817C188.839 351.692 190.188 351.456 191.537 351.425H195.568C196.892 351.375 198.218 351.412 199.537 351.535L203.427 351.848C204.706 351.914 205.979 352.061 207.239 352.287L214.611 353.51L214.235 354.012L186.91 304.509C183.647 298.521 181.059 293.803 179.27 290.542L177.278 286.827C177.074 286.419 176.902 286.106 176.776 285.871C176.715 285.76 176.663 285.645 176.619 285.526Z" fill="#263238"/>
<path d="M61.374 271.559L105.484 356.441C105.484 356.441 141.342 354.874 156.527 372.336L115.633 301.264C115.633 301.264 91.6642 271.559 61.374 271.559Z" fill="#FDFDFD"/>
<path d="M61.374 271.559H62.4877L65.8917 271.7C66.2681 271.7 66.676 271.7 67.0838 271.778L68.3701 271.982L71.3191 272.468C72.4637 272.672 73.5951 272.945 74.7073 273.283C75.8838 273.644 77.1858 273.879 78.4877 274.396C89.0289 277.908 103.162 286.404 115.884 301.044L156.825 372.085C156.876 372.175 156.89 372.281 156.864 372.381C156.837 372.48 156.773 372.566 156.684 372.618C156.614 372.665 156.532 372.689 156.448 372.689C156.365 372.689 156.283 372.665 156.213 372.618L154.488 370.925C151.213 367.773 147.391 365.245 143.209 363.464C139.177 361.664 134.972 360.277 130.66 359.325C122.423 357.5 113.997 356.669 105.562 356.849C105.495 356.853 105.428 356.837 105.369 356.804C105.311 356.77 105.263 356.721 105.233 356.661L73.5622 295.307L64.527 277.782L62.1583 273.08L61.5623 271.888C61.4834 271.766 61.4201 271.634 61.374 271.496C61.4677 271.628 61.5466 271.77 61.6093 271.92L62.2681 273.142C62.8485 274.224 63.6642 275.807 64.7466 277.845C66.8956 281.952 70.0328 287.893 73.9544 295.386C81.7975 310.356 92.872 331.439 105.813 356.222L105.468 356.034C113.965 355.833 122.456 356.659 130.754 358.495C135.143 359.442 139.421 360.839 143.523 362.664C147.794 364.473 151.696 367.05 155.037 370.267C155.648 370.878 156.26 371.474 156.809 372.038L156.182 372.477L115.397 301.374C109.723 294.767 103.235 288.905 96.0877 283.927C90.6273 280.067 84.6702 276.961 78.3779 274.694C77.0916 274.177 75.8054 273.926 74.6289 273.55C73.5356 273.193 72.4193 272.91 71.2877 272.703L68.3544 272.17L67.0681 271.935L65.923 271.841L61.374 271.559Z" fill="#263238"/>
<path d="M199.052 512.301L199.993 513.869C201.057 515.629 202.603 517.049 204.448 517.96L206.095 518.775L204.526 519.731C202.753 520.786 201.325 522.332 200.416 524.183L199.601 525.829L198.66 524.262C197.591 522.505 196.047 521.086 194.205 520.17L192.558 519.355L194.126 518.399C195.896 517.341 197.323 515.795 198.236 513.947L199.052 512.301Z" fill="#7630A1"/>
<path d="M112.103 188.981L113.059 190.549C114.11 192.313 115.645 193.738 117.483 194.656L119.052 195.471L117.483 196.412C115.713 197.469 114.286 199.015 113.373 200.863L112.558 202.431L111.601 200.863C110.546 199.092 108.998 197.665 107.146 196.756L105.577 195.941L107.146 195.001C108.906 193.97 110.341 192.465 111.287 190.659L112.103 188.981Z" fill="#7630A1"/>
<path d="M514.595 244.754L515.536 246.322C516.604 248.079 518.149 249.498 519.991 250.413L521.56 251.228L519.991 252.185C518.234 253.256 516.819 254.806 515.912 256.652L515.097 258.298L514.156 256.73C513.097 254.961 511.55 253.535 509.701 252.623L508.069 251.793L509.638 250.852C511.409 249.788 512.835 248.237 513.748 246.385L514.595 244.754Z" fill="#7630A1"/>
<path d="M467.067 532.617L468.008 534.184C469.078 535.944 470.622 537.367 472.463 538.291L474.11 539.106L472.542 540.047C470.775 541.109 469.349 542.654 468.432 544.499L467.616 546.066L466.675 544.499C465.616 542.73 464.07 541.303 462.22 540.392L460.651 539.576L462.22 538.636C463.986 537.573 465.412 536.029 466.33 534.184L467.067 532.617Z" fill="#7630A1"/>
<path d="M476.117 593.108L476.572 593.28C477.069 593.483 477.614 593.537 478.141 593.437L478.611 593.343L478.439 593.798C478.239 594.295 478.185 594.838 478.282 595.365L478.376 595.835L477.921 595.663C477.423 595.464 476.88 595.409 476.352 595.506L475.882 595.585L476.054 595.146C476.254 594.648 476.308 594.105 476.211 593.578L476.117 593.108Z" fill="#7630A1"/>
<path d="M503.475 184.075L503.93 184.263C504.427 184.462 504.971 184.517 505.498 184.42L505.969 184.326L505.781 184.78C505.587 185.279 505.533 185.821 505.624 186.348L505.718 186.834L505.263 186.646C504.764 186.451 504.222 186.397 503.694 186.489L503.208 186.583L503.396 186.128C503.598 185.632 503.653 185.088 503.553 184.561L503.475 184.075Z" fill="#7630A1"/>
<path d="M129.797 146.768L130.252 146.956C130.751 147.15 131.293 147.204 131.82 147.112L132.307 147.018L132.118 147.473C131.917 147.97 131.862 148.514 131.962 149.041L132.056 149.526L131.601 149.338C131.102 149.145 130.56 149.091 130.032 149.182L129.546 149.276L129.734 148.821C129.928 148.322 129.982 147.781 129.891 147.254L129.797 146.768Z" fill="#7630A1"/>
<path d="M175.914 465.213L176.369 465.401C176.868 465.595 177.41 465.649 177.938 465.558L178.424 465.463L178.236 465.918C178.041 466.416 177.987 466.959 178.079 467.486L178.173 467.972L177.718 467.783C177.219 467.589 176.677 467.535 176.149 467.627L175.663 467.721L175.851 467.266C176.046 466.768 176.1 466.226 176.008 465.699L175.914 465.213Z" fill="#7630A1"/>
<path d="M225.906 588.311C225.777 588.474 225.635 588.626 225.482 588.766L224.18 590.067L219.113 595.083L200.29 613.204V613.016C201.184 632.688 202.392 659.415 203.757 689.151V689.825L203.192 689.449L196.4 684.918L153.466 656.029V655.935L137.686 609.191C135.804 603.516 134.329 599.017 133.294 595.914L132.149 592.402C132.039 592.011 131.945 591.713 131.882 591.493L131.788 591.18C131.788 591.18 131.788 591.274 131.929 591.478C132.07 591.681 132.117 591.995 132.243 592.371C132.541 593.186 132.949 594.362 133.482 595.851L138.031 609.065C141.921 620.461 147.443 636.607 153.937 655.747L153.812 655.59L196.902 684.323L203.694 688.869L203.16 689.166C201.89 659.383 200.745 632.735 199.898 613.016V612.906L218.847 594.926L224.007 590.098L225.356 588.844L225.906 588.311Z" fill="#7630A1"/>
<path d="M205.877 680.122L205.735 684.558L209.312 687.191L205.045 688.43L203.649 692.646L201.155 688.963L196.716 688.947L199.43 685.436L198.081 681.203L202.269 682.708L205.877 680.122Z" fill="#7630A1"/>
<path d="M154.017 649.994L154.095 652.878L156.511 654.43L153.813 655.402L153.076 658.176L151.319 655.903L148.448 656.06L150.064 653.693L149.029 651.013L151.789 651.812L154.017 649.994Z" fill="#7630A1"/>
<path d="M131.68 585.85L133.844 588.625L137.374 588.421L135.397 591.336L136.683 594.628L133.28 593.641L130.55 595.882L130.44 592.355L127.46 590.459L130.785 589.252L131.68 585.85Z" fill="#7630A1"/>
<path d="M223.742 583.06L225.907 585.85L229.436 585.631L227.46 588.562L228.746 591.838L225.358 590.866L222.628 593.108L222.503 589.581L219.538 587.668L222.848 586.477L223.742 583.06Z" fill="#7630A1"/>
<path d="M199.568 609.943L200.964 611.714L203.207 611.573L201.937 613.439L202.768 615.539L200.603 614.912L198.862 616.339L198.784 614.097L196.886 612.89L199.003 612.122L199.568 609.943Z" fill="#7630A1"/>
<g style="mix-blend-mode:luminosity">
<path opacity="0.5" d="M116.557 491.375C133.831 491.375 147.835 477.381 147.835 460.118C147.835 442.855 133.831 428.861 116.557 428.861C99.2821 428.861 85.2783 442.855 85.2783 460.118C85.2783 477.381 99.2821 491.375 116.557 491.375Z" fill="white"/>
<g opacity="0.3">
<path d="M112.492 469.884C112.495 470.895 112.198 471.884 111.638 472.727C111.078 473.569 110.28 474.227 109.346 474.616C108.412 475.005 107.383 475.108 106.39 474.913C105.397 474.718 104.485 474.232 103.768 473.518C103.051 472.804 102.563 471.894 102.364 470.902C102.165 469.91 102.266 468.882 102.652 467.947C103.039 467.013 103.694 466.214 104.536 465.651C105.377 465.089 106.366 464.789 107.378 464.789C108.732 464.789 110.03 465.325 110.989 466.28C111.947 467.235 112.488 468.531 112.492 469.884Z" fill="white"/>
</g>
<g opacity="0.3">
<path d="M105.249 455.164C105.249 455.75 105.075 456.323 104.749 456.81C104.423 457.298 103.96 457.677 103.419 457.901C102.877 458.126 102.281 458.184 101.706 458.07C101.131 457.956 100.602 457.674 100.188 457.259C99.7731 456.845 99.4907 456.317 99.3763 455.742C99.2619 455.168 99.3206 454.572 99.545 454.031C99.7694 453.489 100.149 453.027 100.637 452.701C101.124 452.375 101.698 452.202 102.284 452.202C102.674 452.2 103.06 452.275 103.421 452.423C103.782 452.571 104.109 452.789 104.385 453.065C104.661 453.34 104.879 453.668 105.027 454.028C105.176 454.389 105.251 454.775 105.249 455.164Z" fill="white"/>
</g>
<path d="M86.2045 467.72C86.3457 468.269 59.4281 494.071 66.3614 499.573C73.2947 505.075 102.44 490.967 127.381 470.887C152.322 450.807 174.989 426.416 168.761 419.958C162.534 413.499 131.444 432.623 131.444 432.623L135.161 434.99C135.161 434.99 153.985 422.936 159.914 427.607C165.844 432.278 148.934 450.572 124.981 468.018C101.028 485.465 77.9221 497.723 74.3457 492.942C70.7692 488.161 87.679 472.203 87.679 472.203L86.2045 467.72Z" fill="#7630A1"/>
<g opacity="0.3">
<path d="M99.3192 438.094C99.5701 438.407 97.4525 440.194 95.0525 443.815C91.8685 448.448 90.1123 453.911 90.0007 459.53C89.8892 465.149 91.4273 470.677 94.425 475.433C96.6682 479.132 98.7231 481.013 98.4564 481.311C98.1897 481.609 95.7898 480.072 92.9976 476.389C91.4015 474.216 90.138 471.817 89.2486 469.272C88.1472 466.126 87.616 462.808 87.68 459.475C87.7633 456.14 88.4488 452.848 89.7035 449.756C90.7041 447.244 92.0791 444.898 93.7819 442.796C96.5897 439.222 99.1623 437.874 99.3192 438.094Z" fill="white"/>
</g>
<path opacity="0.5" d="M479.137 185.906C489.426 176.052 489.774 159.729 479.914 149.447C470.054 139.165 453.72 138.817 443.43 148.671C433.141 158.524 432.793 174.847 442.653 185.129C452.513 195.411 468.848 195.759 479.137 185.906Z" fill="white"/>
<g opacity="0.4">
<path d="M469.717 157.411C469.739 156.58 470.007 155.775 470.487 155.097C470.967 154.418 471.637 153.898 472.414 153.6C473.19 153.302 474.037 153.241 474.848 153.425C475.658 153.608 476.397 154.027 476.969 154.63C477.541 155.233 477.922 155.991 478.063 156.81C478.204 157.629 478.099 158.471 477.761 159.23C477.423 159.989 476.867 160.631 476.164 161.074C475.461 161.518 474.642 161.743 473.811 161.722C473.259 161.707 472.715 161.585 472.211 161.36C471.706 161.136 471.251 160.814 470.871 160.414C470.49 160.014 470.193 159.542 469.995 159.027C469.797 158.512 469.703 157.963 469.717 157.411Z" fill="black"/>
</g>
<g opacity="0.4">
<path d="M478.123 167.239C478.132 166.756 478.285 166.286 478.561 165.889C478.838 165.492 479.226 165.186 479.677 165.01C480.127 164.834 480.62 164.795 481.093 164.898C481.565 165.002 481.997 165.243 482.332 165.591C482.668 165.94 482.893 166.38 482.978 166.856C483.063 167.332 483.005 167.823 482.812 168.266C482.618 168.709 482.297 169.085 481.89 169.346C481.482 169.607 481.006 169.741 480.523 169.732C480.201 169.726 479.884 169.656 479.59 169.528C479.295 169.399 479.029 169.214 478.806 168.982C478.583 168.751 478.408 168.478 478.291 168.179C478.173 167.88 478.116 167.561 478.123 167.239Z" fill="black"/>
</g>
<g opacity="0.4">
<path d="M474.847 174.748C475.027 174.751 475.203 174.808 475.351 174.911C475.499 175.014 475.613 175.159 475.679 175.328C475.744 175.496 475.758 175.68 475.718 175.856C475.679 176.032 475.588 176.192 475.457 176.316C475.326 176.441 475.161 176.523 474.983 176.553C474.805 176.583 474.622 176.56 474.457 176.486C474.293 176.412 474.154 176.291 474.058 176.137C473.963 175.984 473.915 175.806 473.921 175.626C473.923 175.507 473.949 175.39 473.997 175.281C474.045 175.173 474.114 175.074 474.2 174.993C474.286 174.911 474.388 174.847 474.499 174.805C474.61 174.763 474.728 174.744 474.847 174.748Z" fill="black"/>
</g>
</g>
<g opacity="0.62">
<g filter="url(#filter1_d_465_1253)">
<rect x="667.532" y="12" width="429" height="206" rx="30" fill="url(#paint1_linear_465_1253)" fill-opacity="0.36" shape-rendering="crispEdges"/>
</g>
</g>
<g opacity="0.62">
<g filter="url(#filter2_d_465_1253)">
<rect x="1096.53" y="748" width="429" height="206" rx="30" transform="rotate(-180 1096.53 748)" fill="url(#paint2_linear_465_1253)" fill-opacity="0.36" shape-rendering="crispEdges"/>
</g>
</g>
<defs>
<filter id="filter0_i_465_1253" x="0" y="25.4312" width="1193.53" height="746.26" filterUnits="userSpaceOnUse" color-interpolation-filters="sRGB">
<feFlood flood-opacity="0" result="BackgroundImageFix"/>
<feBlend mode="normal" in="SourceGraphic" in2="BackgroundImageFix" result="shape"/>
<feColorMatrix in="SourceAlpha" type="matrix" values="0 0 0 0 0 0 0 0 0 0 0 0 0 0 0 0 0 0 127 0" result="hardAlpha"/>
<feOffset dy="4"/>
<feGaussianBlur stdDeviation="10"/>
<feComposite in2="hardAlpha" operator="arithmetic" k2="-1" k3="1"/>
<feColorMatrix type="matrix" values="0 0 0 0 0 0 0 0 0 0 0 0 0 0 0 0 0 0 0.25 0"/>
<feBlend mode="normal" in2="shape" result="effect1_innerShadow_465_1253"/>
</filter>
<filter id="filter1_d_465_1253" x="655.532" y="0" width="453" height="230" filterUnits="userSpaceOnUse" color-interpolation-filters="sRGB">
<feFlood flood-opacity="0" result="BackgroundImageFix"/>
<feColorMatrix in="SourceAlpha" type="matrix" values="0 0 0 0 0 0 0 0 0 0 0 0 0 0 0 0 0 0 127 0" result="hardAlpha"/>
<feOffset/>
<feGaussianBlur stdDeviation="6"/>
<feComposite in2="hardAlpha" operator="out"/>
<feColorMatrix type="matrix" values="0 0 0 0 0 0 0 0 0 0 0 0 0 0 0 0 0 0 0.06 0"/>
<feBlend mode="normal" in2="BackgroundImageFix" result="effect1_dropShadow_465_1253"/>
<feBlend mode="normal" in="SourceGraphic" in2="effect1_dropShadow_465_1253" result="shape"/>
</filter>
<filter id="filter2_d_465_1253" x="655.532" y="530" width="453" height="230" filterUnits="userSpaceOnUse" color-interpolation-filters="sRGB">
<feFlood flood-opacity="0" result="BackgroundImageFix"/>
<feColorMatrix in="SourceAlpha" type="matrix" values="0 0 0 0 0 0 0 0 0 0 0 0 0 0 0 0 0 0 127 0" result="hardAlpha"/>
<feOffset/>
<feGaussianBlur stdDeviation="6"/>
<feComposite in2="hardAlpha" operator="out"/>
<feColorMatrix type="matrix" values="0 0 0 0 0 0 0 0 0 0 0 0 0 0 0 0 0 0 0.06 0"/>
<feBlend mode="normal" in2="BackgroundImageFix" result="effect1_dropShadow_465_1253"/>
<feBlend mode="normal" in="SourceGraphic" in2="effect1_dropShadow_465_1253" result="shape"/>
</filter>
<linearGradient id="paint0_linear_465_1253" x1="-28.4677" y1="728.983" x2="774.104" y2="-494.154" gradientUnits="userSpaceOnUse">
<stop stop-color="#FFA800"/>
<stop offset="1" stop-color="#E05427"/>
</linearGradient>
<linearGradient id="paint1_linear_465_1253" x1="906.532" y1="-97.5" x2="882.032" y2="218" gradientUnits="userSpaceOnUse">
<stop offset="0.640625" stop-color="white" stop-opacity="0"/>
<stop offset="1" stop-color="white"/>
</linearGradient>
<linearGradient id="paint2_linear_465_1253" x1="1280.53" y1="773.5" x2="1311.03" y2="954" gradientUnits="userSpaceOnUse">
<stop offset="0.359792" stop-color="white" stop-opacity="0"/>
<stop offset="1" stop-color="white"/>
</linearGradient>
</defs>
</svg>
