<svg width="460" height="645" viewBox="0 0 460 645" fill="none" xmlns="http://www.w3.org/2000/svg">
<g clip-path="url(#clip0_465_844)">
<path d="M151.933 232.22L138.64 208.811C146.833 195.488 149.747 179.582 146.808 164.22C143.869 148.858 135.291 135.151 122.758 125.792C110.226 116.433 94.6462 112.099 79.0807 113.643C63.5152 115.186 49.0899 122.495 38.6397 134.133C28.1895 145.77 22.4702 160.896 22.6059 176.535C22.7415 192.175 28.7223 207.199 39.3728 218.654C50.0233 230.109 64.5732 237.166 80.1631 238.439C95.753 239.713 111.255 235.109 123.624 225.534L151.933 232.22Z" fill="white"/>
<path d="M151.933 232.22L123.543 225.776L123.156 225.679L123.398 225.373L123.752 225.728C115.03 232.558 104.648 236.945 93.671 238.439C90.3841 238.901 87.0626 239.068 83.7459 238.939C82.038 238.842 80.2979 238.81 78.5417 238.665L73.2408 237.859C57.4512 234.765 43.4336 225.772 34.0398 212.71C28.8223 205.501 25.2025 197.263 23.4219 188.544C21.6054 179.269 21.8585 169.708 24.1631 160.543C26.5365 151.004 31.1483 142.168 37.6167 134.766C44.1784 127.166 52.4659 121.249 61.785 117.511C70.7109 113.967 80.321 112.48 89.9008 113.161C98.9489 113.78 107.75 116.381 115.68 120.781C129.966 128.721 140.65 141.85 145.52 157.45C147.454 164.072 148.372 170.949 148.243 177.846C147.904 188.857 144.664 199.583 138.85 208.94V208.699L151.933 232.22C151.063 230.738 146.97 223.666 138.431 208.94V208.811V208.682C144.119 199.375 147.259 188.735 147.534 177.83C147.639 171.01 146.705 164.214 144.763 157.675C139.912 142.327 129.367 129.418 115.294 121.603C107.48 117.279 98.8109 114.727 89.9008 114.128C80.4533 113.458 70.9762 114.923 62.1717 118.413C52.9896 122.095 44.8197 127.917 38.3418 135.394C31.9922 142.698 27.4694 151.406 25.1459 160.801C22.8816 169.763 22.6231 179.115 24.3886 188.189C26.1036 196.833 29.653 205.008 34.7971 212.162C44.055 225.075 57.8806 233.98 73.4663 237.07L78.7028 237.891C80.4429 238.036 82.1508 238.085 83.8426 238.181C87.1203 238.318 90.4036 238.167 93.6549 237.73C104.531 236.298 114.836 232.019 123.527 225.325L125.138 224.133L123.93 225.744L123.736 225.309L151.933 232.22Z" fill="#263238"/>
<path d="M74.5469 167.616H78.5105L87.1466 155.565V147.67C87.1466 147.67 93.2692 147.284 92.5603 157.643C91.8514 168.002 92.5603 165.36 92.5603 165.36C92.5603 165.36 105.563 165.36 106.642 166.536C107.432 167.358 107.786 180.263 107.915 187.271C108 188.96 107.517 190.628 106.545 192.012C105.573 193.395 104.167 194.414 102.55 194.908C102.092 195.027 101.621 195.092 101.148 195.101C97.9257 195.101 81.3462 192.459 81.3462 192.459H74.5469V167.616Z" fill="#FF7A00"/>
<path d="M63.2031 165.441L65.6522 192.539H72.4354V165.989L63.2031 165.441Z" fill="#FF7A00"/>
<path d="M412.113 376.48L456.941 499.884L405.031 533.01L379.955 467.151L412.113 376.48Z" fill="#FFBE9D"/>
<path d="M211.059 62.9485C210.555 59.2727 211.452 55.542 213.57 52.496C215.688 49.45 218.874 47.3111 222.495 46.5034L287.441 5.24647C312.176 -0.313904 343.338 40.9955 347.771 65.9385C352.265 93.3231 354.022 121.087 353.017 148.82C351.26 191.44 323.298 196.03 323.298 196.03L344.282 337.846L243.138 275.397L211.059 62.9485Z" fill="#FFBE9D"/>
<path d="M334.235 101.215C334.409 102.613 334.033 104.024 333.186 105.149C332.339 106.275 331.088 107.027 329.697 107.248C328.33 107.501 326.919 107.201 325.773 106.414C324.627 105.627 323.84 104.418 323.586 103.051C323.405 101.653 323.778 100.238 324.626 99.1113C325.474 97.9841 326.729 97.2332 328.123 97.0189C329.49 96.766 330.902 97.0659 332.048 97.8527C333.193 98.6395 333.98 99.8489 334.235 101.215Z" fill="#263238"/>
<path d="M342.524 85.8981C342 86.5014 337.698 86.3965 332.268 88.5209C326.839 90.6454 323.245 93.4781 322.563 93.3469C321.881 93.2158 322.563 92.4289 324.216 91.0913C326.544 89.1845 329.19 87.7019 332.032 86.7112C334.673 85.6749 337.484 85.1412 340.321 85.1375C342.078 85.2162 342.839 85.6359 342.524 85.8981Z" fill="#263238"/>
<path d="M280.515 103.812C280.682 105.212 280.3 106.623 279.449 107.748C278.598 108.872 277.344 109.624 275.951 109.844C274.588 110.09 273.184 109.786 272.044 109C270.904 108.214 270.121 107.009 269.866 105.648C269.698 104.269 270.067 102.879 270.898 101.765C271.728 100.651 272.955 99.9004 274.325 99.6679C275.004 99.5306 275.703 99.5291 276.382 99.6634C277.062 99.7977 277.708 100.065 278.283 100.45C278.859 100.836 279.353 101.331 279.736 101.908C280.119 102.485 280.384 103.132 280.515 103.812Z" fill="#263238"/>
<path d="M286.157 97.0451C285.371 97.3336 281.331 94.9206 275.062 94.0026C268.793 93.0846 263.888 94.0026 263.285 93.583C262.681 93.1633 263.888 92.7174 265.908 92.2453C269.054 91.62 272.287 91.5578 275.456 92.0617C278.517 92.4704 281.472 93.4584 284.164 94.9731C286.053 95.9435 286.551 96.7828 286.157 97.0451Z" fill="#263238"/>
<path d="M311.758 132.558C314.689 131.251 317.774 130.316 320.938 129.778C322.381 129.463 323.745 128.991 323.876 127.968C323.832 126.423 323.31 124.929 322.381 123.693C320.632 120.283 318.744 116.707 316.715 112.966C308.846 97.7008 302.866 85.0588 303.6 84.7441C304.335 84.4293 311.05 96.573 318.919 111.838L324.401 122.67C325.543 124.336 326.054 126.353 325.843 128.362C325.692 128.908 325.417 129.412 325.039 129.835C324.662 130.258 324.192 130.588 323.666 130.801C322.873 131.111 322.045 131.323 321.201 131.43C318.114 132.209 314.941 132.588 311.758 132.558Z" fill="#263238"/>
<path d="M323.193 196.056C303.586 198.911 283.57 196.128 265.486 188.031C265.486 188.031 282.72 217.511 324.163 208.725L323.193 196.056Z" fill="#EB996E"/>
<path d="M312.411 146.721C311.011 144.891 309.22 143.395 307.169 142.342C305.119 141.29 302.859 140.707 300.555 140.636C299.219 140.671 297.923 141.108 296.838 141.889C295.753 142.67 294.927 143.76 294.47 145.016C294.017 146.645 293.964 148.358 294.316 150.011C294.667 151.664 295.413 153.208 296.49 154.511C297.542 155.897 298.977 156.944 300.618 157.522C302.259 158.1 304.034 158.184 305.723 157.763C308.437 156.582 310.739 154.619 312.333 152.124C312.929 151.5 313.354 150.732 313.566 149.895C313.661 149.373 313.64 148.837 313.504 148.325C313.368 147.812 313.12 147.336 312.779 146.931" fill="#EB996E"/>
<path d="M295.309 138.538C296.253 138.381 296.988 144.649 302.863 148.479C308.739 152.308 315.349 150.813 315.506 151.705C315.637 152.072 314.168 153.095 311.336 153.488C307.673 153.965 303.958 153.139 300.843 151.154C297.854 149.242 295.728 146.241 294.915 142.787C294.26 140.19 294.784 138.564 295.309 138.538Z" fill="#263238"/>
<path d="M287.992 71.1054C287.441 72.7053 281.618 72.0496 274.877 72.9676C268.136 73.8856 262.575 75.8527 261.762 74.4364C261.342 73.7544 262.286 72.2594 264.385 70.712C267.318 68.7751 270.655 67.5322 274.141 67.0777C277.627 66.6232 281.171 66.9691 284.503 68.0892C286.943 69.1383 288.228 70.371 287.992 71.1054Z" fill="#263238"/>
<path d="M342.891 72.9676C341.763 74.4364 336.674 73.6234 330.72 74.2266C324.765 74.8298 319.834 76.3511 318.523 75.1184C317.919 74.4889 318.523 73.0988 320.621 71.6038C323.507 69.7108 326.831 68.5909 330.274 68.3515C333.683 67.9753 337.132 68.5092 340.268 69.8989C342.523 71.0005 343.363 72.2857 342.891 72.9676Z" fill="#263238"/>
<path d="M182.52 171.927C183.569 152.937 186.612 92.0617 198.888 58.8306C211.163 25.5995 228.449 10.7806 246.102 3.75147C252.82 0.886864 260.163 -0.198091 267.422 0.601295C274.682 1.40068 281.613 4.05742 287.546 8.31518C296.674 14.7935 301.973 36.0384 301.973 36.0384C301.973 36.0384 258.824 50.936 246.889 78.0034C233.066 108.953 230.6 124.008 230.6 124.008L227.112 140.348C227.112 140.348 235.217 212.082 238.863 227.032L180.369 283.554C182.258 264.905 181.55 190.942 182.52 171.927Z" fill="#263238"/>
<path d="M303.47 36.1433C303.47 36.1433 328.467 30.5042 341.084 58.0176C346.776 70.4497 352.468 108.166 352.468 108.166C352.468 108.166 354.592 77.374 351.287 60.5879C347.982 43.8019 337.097 23.3964 322.775 13.1149C308.847 3.04331 297.594 -1.1532 275.193 2.80725C281.944 4.48138 288.071 8.05914 292.846 13.1149C296.23 16.9705 297.935 20.4588 303.47 36.1433Z" fill="#263238"/>
<path d="M231.281 126.027C229.76 116.821 218.953 111.785 211.451 117.346C207.333 120.388 204.553 125.896 206.205 135.705C210.297 161.802 235.662 152.334 235.583 151.442C235.504 150.551 233.065 136.807 231.281 126.027Z" fill="#FFBE9D"/>
<path d="M225.932 142.918C225.932 142.918 225.538 143.312 224.83 143.784C223.818 144.428 222.592 144.645 221.42 144.387C218.508 143.81 215.518 139.797 214.653 135.102C214.234 132.873 214.324 130.578 214.915 128.388C215.026 127.536 215.345 126.724 215.844 126.025C216.342 125.325 217.005 124.758 217.774 124.375C218.274 124.15 218.837 124.108 219.364 124.257C219.892 124.406 220.35 124.735 220.659 125.188C221.131 125.87 221.026 126.421 221.184 126.447C221.341 126.473 221.682 125.922 221.184 124.873C220.945 124.246 220.489 123.724 219.899 123.404C219.096 122.969 218.154 122.865 217.276 123.116C216.234 123.498 215.307 124.139 214.582 124.979C213.857 125.819 213.357 126.83 213.131 127.916C212.383 130.354 212.239 132.937 212.711 135.443C213.682 140.689 217.144 145.174 221.105 145.672C221.863 145.782 222.636 145.711 223.36 145.464C224.085 145.218 224.742 144.804 225.276 144.256C225.984 143.574 226.036 142.971 225.932 142.918Z" fill="#EB996E"/>
<path d="M256.621 0.892584C256.621 1.07618 260.241 0.551618 266.012 0.65653C273.584 0.744829 280.851 3.65328 286.392 8.81349C292.036 13.8595 296.435 20.1435 299.245 27.1732C301.396 32.55 301.999 36.117 302.183 36.0908C302.155 35.2059 302.032 34.3265 301.816 33.468C301.335 31.2108 300.686 28.9927 299.875 26.8323C297.182 19.6277 292.77 13.19 287.022 8.07911C283.874 5.23918 280.204 3.03885 276.215 1.60074C272.933 0.516315 269.495 -0.0241218 266.038 0.00082584C263.722 -0.00014981 261.409 0.148788 259.113 0.446705C258.268 0.497923 257.432 0.647561 256.621 0.892584Z" fill="#455A64"/>
<path d="M209.17 147.77C209.178 147.631 209.178 147.491 209.17 147.351L208.803 146.144C208.619 145.593 208.436 144.964 208.199 144.203L207.491 141.581C206.061 135.847 205.461 129.938 205.708 124.034C206.039 115.284 208.192 106.699 212.029 98.8286C216.956 89.2872 223.988 80.991 232.594 74.5675C236.982 71.1589 241.581 68.0315 246.365 65.2041C250.981 62.4239 255.624 60.1158 259.926 57.5717C267.44 52.9723 274.587 47.7986 281.303 42.097C287.074 37.2711 291.507 33.1008 294.418 30.1632C295.905 28.6595 297.033 27.5054 297.802 26.7011L298.668 25.7831C298.851 25.5733 298.956 25.4684 298.93 25.4684L298.589 25.7307L297.671 26.57L294.156 29.8747C291.087 32.7336 286.602 36.8252 280.805 41.5987C274.061 47.1981 266.906 52.2832 259.401 56.8111C255.152 59.4339 250.456 61.637 245.814 64.4172C240.996 67.2527 236.361 70.3888 231.938 73.8069C223.236 80.3364 216.133 88.7579 211.163 98.4352C207.318 106.436 205.208 115.16 204.973 124.034C204.793 129.988 205.491 135.935 207.045 141.685L207.832 144.308C208.121 145.043 208.357 145.698 208.54 146.223L209.013 147.403C209.091 147.639 209.144 147.77 209.17 147.77Z" fill="#455A64"/>
<path d="M201.957 138.564C201.957 138.564 201.957 138.407 201.957 138.118L201.8 136.859C201.8 135.758 201.38 134.237 201.17 132.06C200.552 126.161 200.456 120.219 200.882 114.303C201.52 105.529 203.283 96.8724 206.128 88.5471C209.672 78.3673 214.855 68.8346 221.472 60.3256C228.287 51.9349 236.231 44.5293 245.08 38.3202C253.106 32.4188 260.818 27.8289 267.113 23.6586C273.408 19.4883 278.602 16.341 282.091 13.9542C283.848 12.7739 285.16 11.8035 286.051 11.174L287.074 10.4134C287.311 10.2298 287.415 10.1511 287.415 10.1249C287.273 10.1723 287.14 10.2432 287.022 10.3347L285.947 11.0166L281.881 13.6395C278.366 15.9475 273.172 19.1474 266.746 23.1078C260.32 27.0683 252.66 31.7369 244.581 37.612C235.715 43.8493 227.768 51.301 220.974 59.7486C214.293 68.3347 209.081 77.9686 205.551 88.2586C202.678 96.6574 200.914 105.395 200.305 114.251C199.941 120.21 200.143 126.191 200.908 132.112C201.17 134.21 201.537 135.81 201.721 136.912C201.721 137.41 201.905 137.804 201.983 138.145C202.062 138.486 201.931 138.564 201.957 138.564Z" fill="#455A64"/>
<path d="M342 239.543C342 239.543 375.811 253.286 382.29 271.017C388.769 288.747 459.5 497 459.5 497L389 505.5L354.8 336.22L342 239.543Z" fill="#7630A1"/>
<path d="M190.755 464.24L199.542 518.611C199.542 518.611 161.351 590.791 157.075 653.082C155.029 682.458 172.026 742.94 172.026 742.94C172.026 742.94 306.43 757.733 378.931 755.818L456.284 752.461L469.924 631.628L383.049 618.986L384.361 454.325C384.361 454.325 400.099 410.97 401.305 398.171C404.06 371.077 402.905 343.695 375.888 308.628L341.999 239.543L333 235C333 235 330.398 231.325 315.5 260.5C291.5 307.5 238.651 225.563 238.651 225.563L189.312 243.189L175.331 309.152L190.755 464.24Z" fill="#7630A1"/>
<g opacity="0.3">
<path d="M359.629 639.103C353.308 640.178 307.693 640.86 301.372 641.936C300.299 642.275 299.167 642.39 298.048 642.273C296.929 642.155 295.846 641.808 294.867 641.254C294.08 640.505 293.535 639.538 293.302 638.477C293.068 637.416 293.156 636.31 293.555 635.3C294.384 633.265 295.699 631.464 297.385 630.054C308.428 619.563 322.776 613.478 336.73 607.577C341.189 605.688 346.016 603.8 350.685 604.954C352.97 605.719 355.036 607.024 356.708 608.76C358.379 610.495 359.606 612.609 360.285 614.921C361.617 619.553 362.166 624.375 361.911 629.189" fill="black"/>
</g>
<g opacity="0.3">
<path d="M194.325 502.034C210.64 498.231 220.87 482.206 227.48 466.81C234.09 451.414 239.546 434.497 252.503 423.874C261.999 416.006 274.72 412.544 282.904 403.416C286.817 398.957 289.413 393.498 290.404 387.649C291.395 381.799 290.742 375.79 288.518 370.29C286.157 364.651 281.409 359.379 275.402 359.038C268.32 358.671 262.786 364.835 258.484 370.448C238.671 396.379 220.004 423.131 202.482 450.706C193.066 465.525 183.675 483.517 190.233 499.805" fill="black"/>
</g>
<path d="M194.454 251.791C194.454 251.791 166.781 260.63 156.919 278.02C147.056 295.409 130.426 379.26 126.439 401.843C122.452 424.425 103.173 517.509 126.439 532.118C149.705 546.727 180.29 524.25 188.264 510.847C196.238 497.444 228.79 427.782 228.79 427.782L199.543 403.18C199.543 403.18 204.789 336.718 202.874 322.765C200.959 308.811 194.454 251.791 194.454 251.791Z" fill="#7630A1"/>
<path d="M109.5 506.5L172.028 428.491L201.249 394.184L209.328 340.18L207.177 236.815C207.177 236.815 150.073 250.716 137.719 294.124C128.512 326.332 109.5 506.5 109.5 506.5Z" fill="#7630A1"/>
<path d="M221.209 302.149C217.537 301.677 212.841 306.005 215.963 316.444C218.586 325.152 223.543 333.597 223.176 338.449C222.809 343.301 220.92 353.426 220.92 358.645C220.693 363.782 220.194 368.904 219.425 373.988L175.883 426.445L213.576 459.676L243.347 412.727C243.347 412.727 252.318 414.222 257.564 408.242L265.433 399.272C265.433 399.272 285.63 391.797 281.512 380.913C281.512 380.913 287.493 375.221 282.063 366.12C282.063 366.12 284.896 356.625 280.778 351.013C280.778 351.013 280.41 338.292 277.027 336.062C273.643 333.833 238.652 333.44 238.652 333.44C236.745 327.633 234.548 321.925 232.068 316.339C228.265 310.07 226.429 302.831 221.209 302.149Z" fill="#FFBE9D"/>
<path d="M236.108 353.767C236.108 353.767 235.19 353.373 234.376 352.14C233.319 350.483 232.857 348.516 233.067 346.561C233.277 344.607 234.146 342.782 235.531 341.387C236.58 340.338 237.472 340.023 237.55 340.18C235.984 342.065 234.911 344.309 234.429 346.711C234.432 349.162 235.006 351.577 236.108 353.767Z" fill="#EB996E"/>
<path d="M279.337 350.147C274.065 351.7 268.637 352.659 263.153 353.006C257.718 353.812 252.21 354.005 246.732 353.583C252.123 352.644 257.561 352.005 263.021 351.668C268.427 350.858 273.874 350.35 279.337 350.147Z" fill="#EB996E"/>
<path d="M282.43 365.176C278.074 366.91 273.488 367.997 268.817 368.402C264.205 369.239 259.496 369.407 254.836 368.9C254.836 368.507 261.026 368.087 268.633 367.064C276.24 366.041 282.325 364.782 282.43 365.176Z" fill="#EB996E"/>
<path d="M281.671 380.572C278.306 381.819 274.765 382.527 271.179 382.67C267.652 383.247 264.056 383.247 260.529 382.67C263.978 381.9 267.49 381.452 271.021 381.332C274.538 380.735 278.105 380.48 281.671 380.572Z" fill="#EB996E"/>
<path d="M248.622 385.267C248.622 385.424 247.888 385.267 246.996 384.795C245.83 383.994 245 382.791 244.666 381.416C244.332 380.042 244.517 378.592 245.186 377.346C245.71 376.428 246.261 376.061 246.392 376.192C246.524 376.323 245.343 378.474 245.973 381.096C246.602 383.719 248.806 384.952 248.622 385.267Z" fill="#EB996E"/>
<path d="M240.017 372.808C240.017 372.808 239.151 372.467 238.338 371.339C237.295 369.849 236.694 368.094 236.607 366.277C236.499 364.456 236.899 362.64 237.761 361.032C238.469 359.825 239.151 359.301 239.283 359.406C238.48 361.575 238.037 363.86 237.971 366.172C238.303 368.477 238.993 370.716 240.017 372.808Z" fill="#EB996E"/>
<path d="M270.995 397.122C269.097 398.141 267.006 398.749 264.857 398.905C262.779 399.5 260.6 399.661 258.457 399.377C260.35 398.342 262.443 397.725 264.595 397.568C266.673 396.97 268.854 396.818 270.995 397.122Z" fill="#EB996E"/>
<path d="M254.051 333.754C254.051 334.148 248.805 334.148 242.169 334.804C235.532 335.459 230.417 336.482 230.312 336.089C234.035 334.527 238.005 333.639 242.037 333.466C246.026 332.825 250.098 332.923 254.051 333.754Z" fill="#EB996E"/>
<path d="M219.453 373.962C219.741 374.224 201.669 396.02 179.085 422.668C156.5 449.316 137.929 470.744 137.667 470.508C137.405 470.272 155.451 448.45 178.035 421.802C200.62 395.155 219.243 373.726 219.453 373.962Z" fill="#EB996E"/>
<path fill-rule="evenodd" clip-rule="evenodd" d="M174.902 425.503L175.765 426.581C154.708 451.382 137.916 470.732 137.667 470.508C137.417 470.283 153.805 450.441 174.902 425.503Z" fill="#263238"/>
<path d="M216.331 340.18C215.739 347.789 214.697 355.356 213.209 362.841C212.175 370.399 210.686 377.888 208.75 385.267C209.341 377.658 210.384 370.091 211.871 362.605C212.914 355.049 214.403 347.561 216.331 340.18Z" fill="#263238"/>
<path d="M384.495 454.404C384.592 453.869 384.733 453.343 384.914 452.83L386.331 448.45C387.59 444.621 389.452 439.113 391.577 432.267C394.111 424.278 396.23 416.163 397.925 407.954C400.037 397.92 400.979 387.675 400.731 377.424C399.791 358.759 394.548 340.564 385.413 324.26C382.714 319.287 379.737 314.471 376.494 309.834C375.393 308.156 374.449 306.923 373.871 306.057C373.539 305.633 373.249 305.176 373.006 304.694C373.415 305.047 373.777 305.453 374.081 305.9C374.763 306.713 375.786 307.893 376.967 309.52C380.381 314.071 383.5 318.837 386.305 323.788C390.485 331.129 393.921 338.87 396.561 346.895C399.827 356.745 401.699 367.003 402.121 377.372C402.371 387.725 401.385 398.071 399.184 408.19C397.421 416.43 395.197 424.565 392.521 432.556C390.265 439.402 388.272 444.857 386.855 448.608C386.173 450.391 385.623 451.807 385.203 452.935C385.034 453.454 384.796 453.948 384.495 454.404Z" fill="#263238"/>
<path d="M328.675 372.756C328.784 373.977 328.784 375.206 328.675 376.428C328.671 377.867 328.565 379.304 328.361 380.729C328.169 382.622 327.88 384.505 327.495 386.368C327.075 388.648 326.515 390.899 325.816 393.109C325.073 395.653 324.197 398.157 323.193 400.61C318.459 411.907 311.137 421.934 301.816 429.881C299.793 431.608 297.674 433.22 295.468 434.707C293.568 436.028 291.598 437.245 289.566 438.352C287.915 439.328 286.207 440.204 284.451 440.975C283.167 441.622 281.834 442.165 280.464 442.601C279.323 443.053 278.148 443.413 276.949 443.677C276.949 443.362 281.854 441.815 289.094 437.618C291.08 436.48 292.998 435.228 294.838 433.867C296.884 432.504 298.852 430.772 301.002 429.015C305.472 425.061 309.531 420.668 313.121 415.901C316.606 411.018 319.594 405.799 322.039 400.322C323.036 397.699 324.111 395.338 324.662 392.978C325.383 390.817 325.988 388.62 326.472 386.394C328.413 378.001 328.361 372.729 328.675 372.756Z" fill="#263238"/>
<path d="M349.79 517.929C349.299 518.064 348.8 518.16 348.294 518.217L344.019 518.82C340.294 519.319 334.865 519.896 328.281 520.473C314.877 521.679 296.28 522.676 275.82 522.414C255.361 522.151 236.685 520.683 223.36 519.161C216.671 518.401 211.267 517.693 207.621 517.089L203.346 516.381C202.844 516.326 202.351 516.212 201.877 516.04C202.383 515.988 202.893 515.988 203.398 516.04L207.7 516.486C211.425 516.906 216.854 517.483 223.438 518.112C236.816 519.397 255.361 520.735 275.899 520.971C296.437 521.207 314.956 520.394 328.359 519.45C335.048 518.978 340.478 518.532 344.229 518.191L348.53 517.876C348.951 517.843 349.373 517.861 349.79 517.929Z" fill="#263238"/>
<path d="M332 235.5C287.2 256.3 251 237.5 238.5 225.5C236.5 230.5 232.3 241.4 231.5 245C230.5 249.5 234 261 237 268C240 275 245 283 248 286.5C251 290 302.5 286.5 305.5 286.5C308.5 286.5 332 263.5 334 261C335.6 259 333.334 243.167 332 235.5Z" fill="#7630A1"/>
<path d="M237.932 223.164L223.737 230.889C224.445 247.669 263.696 274.36 283.233 285.608L294.886 244.823C278.076 245.276 249.912 230.573 237.932 223.164Z" fill="#532271"/>
<path d="M237.171 223.098L223.818 229.955C224.556 244.981 261.678 269.04 280.147 279.192L290.965 242.726C275.116 243.062 248.498 229.781 237.171 223.098Z" fill="white"/>
<path d="M330.994 226.803L340.232 233.769C340.241 248.4 316.012 271.069 303.896 280.574L295.369 244.8C306.071 245.461 323.578 233.078 330.994 226.803Z" fill="#532271"/>
<path d="M330.994 226.803L340.143 232.828C339.986 245.703 315.526 265.926 303.316 274.428L295.204 243.044C305.887 243.504 323.515 232.409 330.994 226.803Z" fill="white"/>
</g>
<defs>
<clipPath id="clip0_465_844">
<rect width="460" height="645" fill="white"/>
</clipPath>
</defs>
</svg>
