<svg width="343" height="494" viewBox="0 0 343 494" fill="none" xmlns="http://www.w3.org/2000/svg">
<g clip-path="url(#clip0_465_820)">
<path d="M284.808 393.912L157.134 444.998C155.03 445.84 152.781 446.258 150.516 446.23C148.252 446.202 146.016 445.727 143.937 444.833C141.858 443.939 139.976 442.644 138.399 441.02C136.823 439.397 135.583 437.478 134.75 435.374L64.4385 258.685C62.7588 254.448 62.8289 249.714 64.6335 245.522C66.438 241.33 69.8296 238.021 74.0646 236.322L155.047 203.982L243.339 243.624L294.474 371.505C295.316 373.607 295.733 375.856 295.702 378.122C295.672 380.388 295.193 382.627 294.295 384.709C293.397 386.792 292.096 388.677 290.468 390.256C288.84 391.835 286.916 393.078 284.808 393.912Z" fill="#EBEBEB"/>
<path d="M155.048 203.982L174.796 253.678C175.57 255.632 176.721 257.413 178.185 258.92C179.648 260.426 181.394 261.629 183.324 262.459C185.254 263.289 187.329 263.73 189.431 263.756C191.533 263.783 193.621 263.395 195.574 262.614L243.419 243.493L155.048 203.982Z" fill="#E0E0E0"/>
<path d="M163.433 255.993C163.697 256.64 150.666 262.44 134.348 268.952C118.03 275.465 104.59 280.242 104.348 279.615C104.106 278.988 117.115 273.168 133.433 266.656C149.751 260.144 163.102 255.286 163.433 255.993Z" fill="white"/>
<path d="M212.772 268.701C213.036 269.348 191.548 278.642 164.612 289.284C137.675 299.926 115.779 308.197 115.515 307.55C115.251 306.903 136.738 297.609 163.675 286.967C190.611 276.325 212.427 268.143 212.772 268.701Z" fill="white"/>
<path d="M230.787 288.751C231.051 289.398 207.533 299.407 178.261 311.098C148.99 322.79 125 331.8 124.778 331.151C124.557 330.502 148.033 320.495 177.324 308.781C206.616 297.068 230.545 288.124 230.787 288.751Z" fill="white"/>
<path d="M239.622 310.904C239.886 311.551 216.345 321.54 187.054 333.254C157.762 344.967 133.814 353.976 133.591 353.284C133.367 352.593 156.868 342.648 186.159 330.934C215.451 319.221 239.358 310.257 239.622 310.904Z" fill="white"/>
<path d="M248.414 333.059C248.678 333.706 225.159 343.715 195.888 355.407C166.617 367.098 142.626 376.109 142.425 375.437C142.224 374.766 165.68 364.781 194.951 353.09C224.222 341.398 248.172 332.432 248.414 333.059Z" fill="white"/>
<path d="M257.247 355.212C257.489 355.839 233.97 365.848 204.679 377.562C175.387 389.275 151.439 398.284 151.216 397.592C150.992 396.901 174.493 386.956 203.784 375.243C233.076 363.529 256.983 354.565 257.247 355.212Z" fill="white"/>
</g>
<g clip-path="url(#clip1_465_820)">
<path d="M172.871 146.041L102.014 128.762C100.846 128.477 99.7463 127.965 98.7774 127.255C97.8085 126.545 96.9895 125.651 96.3673 124.625C95.7451 123.598 95.332 122.459 95.1515 121.273C94.9709 120.086 95.0267 118.876 95.3154 117.711L119.396 19.7701C119.976 17.4235 121.465 15.4015 123.535 14.1477C125.606 12.8938 128.089 12.5103 130.441 13.0814L175.366 24.069L201.269 68.3844L183.947 139.346C183.663 140.513 183.15 141.612 182.439 142.581C181.727 143.55 180.831 144.369 179.802 144.991C178.773 145.614 177.63 146.027 176.441 146.207C175.251 146.387 174.038 146.331 172.871 146.041Z" fill="#EBEBEB"/>
<path d="M175.365 24.0692L168.58 51.608C168.312 52.6896 168.26 53.8133 168.428 54.9145C168.595 56.0158 168.979 57.0731 169.556 58.0259C170.134 58.9788 170.894 59.8085 171.793 60.4675C172.692 61.1266 173.713 61.6021 174.797 61.8669L201.343 68.3522L175.365 24.0692Z" fill="#E0E0E0"/>
<path d="M162.963 49.1067C162.877 49.4674 155.465 47.9567 146.414 45.7408C137.363 43.525 130.089 41.4466 130.178 41.1015C130.266 40.7565 137.676 42.2516 146.726 44.4674C155.777 46.6833 163.038 48.6994 162.963 49.1067Z" fill="white"/>
<path d="M180.348 69.7931C180.262 70.1537 168.123 67.5461 153.215 63.8419C138.308 60.1376 126.306 56.9624 126.392 56.6017C126.477 56.2411 138.617 58.8487 153.524 62.5529C168.432 66.2571 180.371 69.4459 180.348 69.7931Z" fill="white"/>
<path d="M181.948 83.9991C181.863 84.3597 168.626 81.4352 152.387 77.4645C136.148 73.4939 123.015 69.9928 123.12 69.6444C123.224 69.2959 136.442 72.2083 152.696 76.1756C168.951 80.1428 182.037 83.654 181.948 83.9991Z" fill="white"/>
<path d="M178.936 96.2846C178.851 96.6453 165.611 93.7052 149.356 89.7379C133.102 85.7706 119.988 82.2817 120.105 81.9143C120.221 81.547 133.43 84.4938 149.685 88.4611C165.939 92.4284 179.022 95.924 178.936 96.2846Z" fill="white"/>
<path d="M175.907 108.558C175.822 108.919 162.585 105.994 146.346 102.023C130.108 98.0528 116.975 94.5517 117.095 94.1999C117.215 93.8481 130.417 96.7638 146.656 100.734C162.894 104.705 175.996 108.213 175.907 108.558Z" fill="white"/>
<path d="M172.895 120.843C172.807 121.189 159.57 118.264 143.315 114.297C127.061 110.329 113.947 106.841 114.064 106.473C114.18 106.106 127.389 109.053 143.644 113.02C159.898 116.987 172.981 120.483 172.895 120.843Z" fill="white"/>
</g>
<defs>
<clipPath id="clip0_465_820">
<rect width="216.867" height="265.419" fill="white" transform="translate(0 315.146) rotate(-47.706)"/>
</clipPath>
<clipPath id="clip1_465_820">
<rect width="115.019" height="140.77" fill="white" transform="translate(74.1816 24.2932) rotate(-12.1933)"/>
</clipPath>
</defs>
</svg>
