<svg width="201" height="448" viewBox="0 0 201 448" fill="none" xmlns="http://www.w3.org/2000/svg">
<g clip-path="url(#clip0_465_843)">
<path d="M123.634 244.386L8.98027 188.717C7.09078 187.799 5.40118 186.519 4.00818 184.949C2.61518 183.378 1.54614 181.55 0.862238 179.567C0.178341 177.584 -0.106981 175.485 0.0226046 173.392C0.15219 171.299 0.694139 169.252 1.61743 167.368L78.8994 8.96267C80.7566 5.16855 84.0455 2.26431 88.0451 0.8868C92.0447 -0.490709 96.4283 -0.229049 100.235 1.6144L172.915 36.964L200.805 122.221L145.026 237.037C144.109 238.926 142.827 240.615 141.255 242.007C139.682 243.399 137.849 244.467 135.861 245.15C133.873 245.833 131.769 246.117 129.671 245.986C127.573 245.855 125.521 245.311 123.634 244.386Z" fill="#EBEBEB"/>
<path d="M172.914 36.9641L151.161 81.499C150.304 83.2478 149.801 85.148 149.681 87.0909C149.56 89.0338 149.825 90.9813 150.46 92.822C151.094 94.6627 152.086 96.3605 153.379 97.8181C154.672 99.2758 156.24 100.465 157.994 101.317L200.943 122.193L172.914 36.9641Z" fill="#E0E0E0"/>
<path d="M142.488 75.1528C142.209 75.7373 130.105 70.4209 115.463 63.2953C100.821 56.1697 89.1635 49.9348 89.4424 49.3782C89.7213 48.8215 101.825 54.11 116.467 61.2356C131.109 68.3612 142.767 74.4847 142.488 75.1528Z" fill="white"/>
<path d="M164.547 116.904C164.268 117.489 144.495 108.554 120.398 96.7244C96.3015 84.8948 76.9741 75.0414 77.253 74.4569C77.5319 73.8724 97.3056 82.8072 121.402 94.6368C145.499 106.466 164.715 116.32 164.547 116.904Z" fill="white"/>
<path d="M162.038 141.76C161.759 142.345 140.228 132.464 113.956 119.688C87.6845 106.912 66.5442 96.0842 66.851 95.5275C67.1577 94.9708 88.6606 104.824 114.96 117.6C141.26 130.376 162.317 141.204 162.038 141.76Z" fill="white"/>
<path d="M152.361 161.634C152.082 162.219 130.551 152.31 104.251 139.534C77.9516 126.758 56.8392 115.958 57.1738 115.373C57.5085 114.789 78.9835 124.698 105.283 137.474C131.583 150.25 152.64 161.05 152.361 161.634Z" fill="white"/>
<path d="M142.655 181.48C142.376 182.065 120.846 172.183 94.5737 159.407C68.3017 146.631 47.1614 135.804 47.4961 135.247C47.8308 134.69 69.3057 144.544 95.5777 157.32C121.85 170.096 142.934 180.923 142.655 181.48Z" fill="white"/>
<path d="M132.978 201.354C132.699 201.91 111.168 192.029 84.8686 179.253C58.5687 166.477 37.4564 155.678 37.791 155.093C38.1257 154.508 59.6007 164.418 85.9005 177.193C112.2 189.969 133.257 200.769 132.978 201.354Z" fill="white"/>
</g>
<g clip-path="url(#clip1_465_843)">
<path d="M133.651 436.852L60.8205 413.108C59.6203 412.716 58.5093 412.093 57.5511 411.272C56.593 410.451 55.8065 409.45 55.2367 408.325C54.6669 407.201 54.325 405.975 54.2305 404.718C54.136 403.461 54.2909 402.198 54.6861 401L87.7116 300.348C88.5062 297.937 90.2264 295.938 92.4948 294.79C94.7632 293.642 97.3947 293.438 99.8123 294.224L145.985 309.311L169.581 357.787L145.785 430.723C145.394 431.922 144.769 433.033 143.947 433.991C143.125 434.949 142.121 435.735 140.993 436.305C139.865 436.874 138.636 437.216 137.376 437.31C136.116 437.404 134.85 437.248 133.651 436.852Z" fill="#EBEBEB"/>
<path d="M145.985 309.311L136.684 337.611C136.318 338.723 136.174 339.896 136.262 341.062C136.349 342.229 136.667 343.367 137.196 344.411C137.724 345.455 138.454 346.384 139.344 347.146C140.233 347.908 141.264 348.487 142.378 348.851L169.662 357.759L145.985 309.311Z" fill="#E0E0E0"/>
<path d="M131 334.544C130.882 334.915 123.239 332.742 113.937 329.7C104.635 326.658 97.1827 323.902 97.3031 323.547C97.4235 323.193 105.064 325.349 114.366 328.391C123.668 331.433 131.112 334.123 131 334.544Z" fill="white"/>
<path d="M147.558 357.594C147.44 357.965 134.934 354.267 119.616 349.199C104.299 344.132 91.9835 339.85 92.1017 339.479C92.2198 339.108 104.726 342.806 120.043 347.874C135.36 352.941 147.609 357.233 147.558 357.594Z" fill="white"/>
<path d="M148.102 372.6C147.984 372.97 134.355 368.853 117.664 363.4C100.974 357.947 87.4996 353.234 87.6366 352.877C87.7736 352.521 101.384 356.624 118.091 362.075C134.798 367.525 148.223 372.245 148.102 372.6Z" fill="white"/>
<path d="M143.969 385.226C143.85 385.597 130.218 381.462 113.512 376.012C96.8051 370.562 83.3491 365.863 83.5004 365.487C83.6518 365.112 97.2506 369.251 113.957 374.701C130.664 380.151 144.087 384.855 143.969 385.226Z" fill="white"/>
<path d="M139.819 397.838C139.7 398.209 126.071 394.091 109.381 388.638C92.6906 383.186 79.2158 378.472 79.3694 378.114C79.523 377.755 93.1173 381.861 109.807 387.313C126.497 392.766 139.939 397.484 139.819 397.838Z" fill="white"/>
<path d="M135.685 410.465C135.565 410.819 121.935 406.701 105.229 401.251C88.5219 395.8 75.0659 391.101 75.2172 390.726C75.3686 390.35 88.9674 394.489 105.674 399.94C122.381 405.39 135.803 410.094 135.685 410.465Z" fill="white"/>
</g>
<defs>
<clipPath id="clip0_465_843">
<rect width="201" height="246" fill="white"/>
</clipPath>
<clipPath id="clip1_465_843">
<rect width="120.806" height="147.852" fill="white" transform="translate(40 301.481) rotate(-7.84116)"/>
</clipPath>
</defs>
</svg>
