<svg width="858" height="723" viewBox="0 0 858 723" fill="none" xmlns="http://www.w3.org/2000/svg">
<g filter="url(#filter0_i_465_797)">
<path d="M126.485 212.835C160.048 176.423 197.576 142.306 247.797 108.966C297.904 76.4978 358.608 44.5321 421.598 43.919C484.474 44.1781 549.523 76.6621 617.373 112.175C685.338 146.816 757.038 185.495 783.129 238.601C809.335 290.834 788.769 358.228 778.801 426.125C768.718 494.893 787.383 550.677 725.414 597.457C667.031 641.529 592.991 631.552 521.042 635.427C449.094 639.302 392.412 648.727 327.916 652.692C263.42 656.656 191.109 655.16 145.978 625.287C100.96 594.543 83.2359 534.549 69.0183 480.339C55.849 426.266 46.1866 377.976 55.1639 333.905C64.1412 289.834 92.8066 250.118 126.485 212.835Z" fill="url(#paint0_linear_465_797)"/>
</g>
<g clip-path="url(#clip0_465_797)">
<g style="mix-blend-mode:screen" opacity="0.44">
<path d="M596.068 368.306L411.263 366.577L355.251 366.321H340.016H336.049C335.604 366.288 335.157 366.288 334.712 366.321C335.154 366.391 335.602 366.421 336.049 366.411L340.016 366.502L355.251 366.682L411.263 366.983L596.068 367.103C668.187 367.103 733.544 367.103 780.872 367.524C804.521 367.69 823.663 367.915 836.885 368.156C843.511 368.276 848.634 368.411 852.12 368.547C853.901 368.499 855.683 368.63 857.439 368.938C855.679 369.208 853.899 369.319 852.12 369.268C848.634 369.374 843.496 369.449 836.885 369.509C823.663 369.614 804.521 369.644 780.872 369.584C733.559 369.614 668.217 369.043 596.068 368.306Z" fill="#EBEBEB"/>
<path d="M594.64 384.155L412.315 354.488L357.009 345.767L341.984 343.496L338.062 342.955C337.621 342.878 337.173 342.838 336.725 342.834C337.16 342.956 337.601 343.051 338.047 343.12L341.939 343.812L356.963 346.308L412.255 355.059L594.806 383.147C666.083 394.034 730.614 404.003 777.281 411.491C800.615 415.22 819.486 418.333 832.512 420.513C839.033 421.641 844.081 422.543 847.537 423.204C849.301 423.432 851.037 423.835 852.721 424.407C850.942 424.408 849.168 424.252 847.417 423.941C843.961 423.505 838.883 422.814 832.392 421.866C819.306 419.987 800.389 417.13 777.041 413.476C730.239 406.213 665.813 395.778 594.64 384.155Z" fill="#EBEBEB"/>
<path d="M590.689 399.582L415.41 342.353L362.222 325.272L347.723 320.761L343.937 319.618C343.511 319.472 343.074 319.361 342.63 319.287C343.03 319.489 343.448 319.655 343.877 319.783L347.618 321.061L362.042 325.828L415.23 342.939L591.019 398.574C659.653 420.227 721.735 439.955 766.629 454.495C789.076 461.758 807.196 467.727 819.696 471.937C825.947 474.043 830.8 475.712 834.06 476.884C835.764 477.383 837.414 478.048 838.988 478.869C837.23 478.61 835.499 478.187 833.82 477.606C830.484 476.644 825.571 475.185 819.261 473.246C806.64 469.381 788.43 463.667 765.953 456.495C720.999 442.15 659.036 421.971 590.689 399.582Z" fill="#EBEBEB"/>
<path d="M584.243 414.198L420.473 330.865L370.666 305.86L357.144 299.153L353.538 297.439C353.133 297.234 352.717 297.053 352.291 296.898C352.657 297.155 353.044 297.382 353.447 297.575L356.933 299.409L370.455 306.326L420.202 331.362L584.679 413.22C648.94 445.128 707.085 474.118 749.05 495.334C770.084 505.95 786.987 514.611 798.631 520.686C804.461 523.693 808.968 526.114 812.018 527.768C813.607 528.518 815.117 529.425 816.526 530.475C814.836 529.938 813.197 529.253 811.628 528.43C808.487 526.926 803.875 524.761 797.955 521.889C786.116 516.145 769.063 507.709 748.028 497.184C706.079 476.163 648.158 446.767 584.243 414.198Z" fill="#EBEBEB"/>
<path d="M575.559 427.655L427.144 320.445L382.07 288.162L369.735 279.486L366.489 277.26C366.132 276.993 365.755 276.751 365.362 276.539C365.68 276.857 366.027 277.144 366.399 277.396L369.539 279.726L381.739 288.598L426.814 320.911L576.205 426.753C634.546 468.028 687.313 505.499 725.356 532.85C744.377 546.519 759.717 557.646 770.265 565.419C775.523 569.299 779.595 572.351 782.285 574.441C783.742 575.424 785.101 576.547 786.341 577.794C784.756 577.015 783.247 576.089 781.834 575.028C778.949 573.118 774.757 570.246 769.363 566.502C758.606 558.984 743.1 548.097 724.034 534.504C685.931 507.379 633.434 469.532 575.559 427.655Z" fill="#EBEBEB"/>
<path d="M564.816 439.624L435.348 311.273L395.923 272.554L385.135 262.119L382.28 259.427C381.978 259.1 381.64 258.807 381.273 258.555C381.551 258.901 381.852 259.228 382.175 259.532L384.894 262.329L395.532 272.855L434.927 311.589L565.642 438.797C616.727 488.418 662.823 533.407 696.012 566.171C712.615 582.546 726.062 595.868 735.167 605.131C739.749 609.777 743.295 613.401 745.684 615.882C746.966 617.079 748.128 618.399 749.155 619.821C747.716 618.809 746.373 617.666 745.143 616.408C742.619 614.077 738.923 610.604 734.205 606.093C724.77 597.071 711.202 583.944 694.54 567.63C661.095 535.016 615.299 489.756 564.816 439.624Z" fill="#EBEBEB"/>
<path d="M552.285 449.819L444.948 303.454L412.194 259.262L403.18 247.308L400.806 244.225C400.546 243.863 400.26 243.521 399.949 243.203C400.15 243.598 400.392 243.971 400.67 244.315L402.924 247.488L411.729 259.517L444.453 303.74L553.127 449.202C595.602 505.92 633.99 557.345 661.545 594.741C675.323 613.431 686.411 628.618 693.984 639.158C697.77 644.436 700.685 648.556 702.623 651.368C703.703 652.736 704.64 654.213 705.418 655.774C704.157 654.563 703.015 653.233 702.007 651.804C699.874 649.112 696.794 645.128 692.842 639.955C684.969 629.625 673.67 614.589 659.788 595.958C632.127 558.683 594.144 506.988 552.285 449.819Z" fill="#EBEBEB"/>
<path d="M538.282 457.999L455.781 297.108L430.524 248.45L423.568 235.278L421.705 231.865C421.513 231.47 421.287 231.092 421.029 230.737C421.165 231.154 421.341 231.557 421.555 231.94C421.975 232.767 422.531 233.925 423.283 235.414L430.029 248.691L455.24 297.349C476.756 338.383 506.445 394.981 539.259 457.517C572.073 520.054 601.747 576.637 622.947 617.761C633.554 638.316 642.058 654.992 647.843 666.57C650.742 672.344 652.966 676.855 654.424 679.937C655.26 681.455 655.944 683.051 656.467 684.704C655.439 683.312 654.544 681.827 653.792 680.268C652.11 677.261 649.706 672.885 646.641 667.186C640.511 655.774 631.781 639.203 621.099 618.694C599.703 577.659 570.435 520.821 538.282 457.999Z" fill="#EBEBEB"/>
<path d="M523.077 463.938C501.441 396.951 481.849 336.339 467.636 292.402C460.439 270.524 454.624 252.811 450.568 240.511C448.524 234.497 446.932 229.7 445.82 226.437C445.279 224.858 444.843 223.655 444.543 222.783C444.415 222.363 444.249 221.955 444.047 221.565C444.134 221.997 444.244 222.424 444.377 222.843L445.519 226.527C446.556 229.805 448.089 234.572 450.027 240.677C454.053 252.976 459.868 270.75 467.05 292.582L524.144 463.607C546.456 530.339 566.574 590.801 580.877 634.662C588.029 656.586 593.724 674.359 597.57 686.674C599.493 692.824 600.951 697.62 601.897 700.883C602.485 702.51 602.903 704.193 603.144 705.905C602.333 704.373 601.669 702.767 601.161 701.109C599.989 697.906 598.321 693.184 596.218 687.08C592.011 674.885 586.076 657.187 578.819 635.294C564.365 591.508 544.713 530.896 523.077 463.938Z" fill="#EBEBEB"/>
<path d="M507.196 467.472C496.679 398.018 487.108 335.151 480.152 289.605C476.576 266.885 473.691 248.511 471.693 235.745C470.641 229.414 469.83 224.512 469.274 221.114C468.988 219.475 468.763 218.212 468.597 217.31C468.547 216.875 468.452 216.447 468.312 216.032C468.315 216.47 468.355 216.908 468.432 217.34C468.567 218.242 468.733 219.52 468.958 221.159C469.469 224.557 470.19 229.489 471.137 235.82C473.135 248.586 476.005 266.975 479.551 289.695C486.898 335.181 497.039 397.958 508.233 467.321C519.426 536.685 529.568 599.417 536.585 644.917C540.1 667.667 542.865 686.087 544.668 698.838C545.569 705.214 546.17 710.161 546.636 713.529C546.95 715.229 547.091 716.957 547.057 718.686C546.507 717.043 546.115 715.351 545.885 713.634C545.239 710.311 544.382 705.394 543.271 699.049C541.092 686.343 538.087 667.968 534.466 645.233C527.284 599.763 517.683 536.91 507.196 467.472Z" fill="#EBEBEB"/>
<path d="M490.894 468.554C491.54 398.349 492.141 334.73 492.562 288.763C492.652 265.788 492.742 247.187 492.802 234.271C492.802 227.866 492.802 222.888 492.802 219.46C492.802 217.791 492.802 216.453 492.802 215.596C492.81 215.158 492.785 214.721 492.727 214.288C492.659 214.72 492.629 215.158 492.637 215.596C492.637 216.513 492.637 217.791 492.547 219.46C492.547 222.888 492.442 227.866 492.367 234.271C492.367 247.187 492.216 265.848 492.096 288.748V468.554C492.096 538.73 492.096 602.289 491.766 648.286C491.615 671.291 491.405 689.907 491.15 702.778C491.03 709.198 490.894 714.206 490.759 717.589C490.806 719.317 490.675 721.045 490.368 722.746C490.076 721.044 489.96 719.315 490.023 717.589C489.918 714.19 489.828 709.198 489.767 702.763C489.647 689.891 489.602 671.276 489.662 648.286C489.662 602.274 490.188 538.73 490.894 468.554Z" fill="#EBEBEB"/>
<path d="M474.607 467.171C486.477 397.913 497.144 335.241 504.987 289.74L514.002 235.955C514.994 229.64 515.775 224.708 516.316 221.309C516.556 219.67 516.737 218.407 516.872 217.505C516.957 217.074 517.002 216.636 517.007 216.197C516.863 216.611 516.762 217.04 516.707 217.475C516.541 218.377 516.301 219.625 516 221.264C515.399 224.648 514.498 229.564 513.446 235.865C511.313 248.616 508.248 266.975 504.431 289.65C497.069 335.151 486.927 397.913 475.719 467.276C464.511 536.639 454.339 599.432 446.661 644.782C442.845 667.472 439.66 685.831 437.346 698.507C436.204 704.838 435.272 709.755 434.596 713.078C434.35 714.791 433.942 716.478 433.379 718.115C433.359 716.384 433.515 714.656 433.845 712.957C434.281 709.604 435.002 704.642 435.963 698.282C437.887 685.561 440.816 667.156 444.558 644.436C452.01 599.071 462.693 536.384 474.607 467.171Z" fill="#EBEBEB"/>
<path d="M458.741 463.307L517.473 292.823L535.007 241.067C537.005 235.053 538.583 230.241 539.649 226.963C540.16 225.459 540.551 224.151 540.821 223.279C540.973 222.869 541.089 222.446 541.167 222.016C540.962 222.407 540.792 222.814 540.656 223.234C540.356 224.091 539.92 225.294 539.349 226.858C538.207 230.121 536.569 234.842 534.466 240.902C530.289 253.157 524.294 270.825 516.887 292.627C502.268 336.444 482.09 396.86 459.793 463.637C437.496 530.414 417.333 590.831 402.413 634.482C394.901 656.315 388.891 673.953 384.504 686.117C382.355 692.132 380.627 696.913 379.425 700.086C378.898 701.768 378.198 703.39 377.337 704.928C377.611 703.211 378.048 701.524 378.644 699.89C379.621 696.643 381.123 691.861 383.151 685.726C387.103 673.456 392.978 655.728 400.34 633.88C415.064 590.109 435.768 529.828 458.741 463.307Z" fill="#EBEBEB"/>
<path d="M443.717 457.082L529.283 297.695L554.96 249.322L561.856 236.105L563.599 232.647C563.821 232.266 564.002 231.863 564.14 231.444C563.882 231.802 563.651 232.179 563.449 232.572C562.998 233.369 562.382 234.496 561.571 235.955L554.479 249.067C548.379 260.54 539.59 277.065 528.757 297.469C507.211 338.489 477.507 395.071 444.618 457.608C411.729 520.145 382.16 576.667 360.359 617.491C349.466 637.91 340.572 654.39 334.336 665.743C331.211 671.412 328.762 675.802 327.064 678.764C326.28 680.323 325.349 681.803 324.285 683.185C324.83 681.532 325.534 679.935 326.388 678.419C327.891 675.411 330.144 670.9 333.089 665.111C338.994 653.593 347.663 636.993 358.466 616.543C380.072 575.614 410.271 519.257 443.717 457.082Z" fill="#EBEBEB"/>
<path d="M429.924 448.631L540.055 304.281L573.2 260.359L582.125 248.33L584.408 245.187C584.68 244.835 584.926 244.463 585.145 244.075C584.825 244.39 584.534 244.732 584.273 245.097L581.869 248.104L572.749 259.983L539.604 303.875L430.75 449.308C388.35 506.085 349.857 557.435 321.775 594.44C307.727 612.95 296.233 627.881 288.3 638.136C284.319 643.278 281.193 647.233 279.03 649.894C278.004 651.318 276.847 652.642 275.574 653.849C276.369 652.293 277.321 650.821 278.414 649.458C280.382 646.661 283.342 642.571 287.173 637.339C294.851 626.813 306.09 611.777 320.048 593.222C347.964 556.067 386.848 504.943 429.924 448.631Z" fill="#EBEBEB"/>
<path d="M417.558 438.196C469.063 388.996 515.655 344.458 549.446 312.19L589.186 273.817L599.914 263.291L602.679 260.525C603.006 260.225 603.307 259.898 603.58 259.547C603.219 259.813 602.877 260.104 602.558 260.419L599.704 263.096L588.826 273.381L549.025 311.724L418.31 438.887C367.346 488.508 321.114 533.452 287.444 565.765C270.661 581.99 256.944 595.011 247.418 603.928C242.655 608.439 238.929 611.837 236.375 614.138C235.136 615.389 233.783 616.522 232.333 617.521C233.369 616.106 234.542 614.796 235.834 613.611C238.223 611.145 241.844 607.597 246.426 602.966C255.636 593.778 269.159 580.591 285.956 564.352C319.477 531.903 366.053 487.335 417.558 438.196Z" fill="#EBEBEB"/>
<path d="M407.071 426.016L557.484 321.498L602.919 289.62L615.194 280.854L618.364 278.538C618.732 278.286 619.084 278.01 619.416 277.711C619.013 277.908 618.63 278.145 618.274 278.418L615.014 280.613L602.588 289.184L557.138 321.032L407.702 426.873C349.406 468.224 296.519 505.589 258.13 532.414C238.929 545.842 223.333 556.623 212.485 563.991C207.076 567.675 202.839 570.517 199.94 572.396C198.53 573.449 197.02 574.361 195.432 575.118C196.686 573.883 198.055 572.771 199.519 571.795C202.268 569.72 206.37 566.713 211.689 562.878C222.296 555.21 237.757 544.218 256.898 530.715C295.197 503.74 348.324 466.765 407.071 426.016Z" fill="#EBEBEB"/>
<path d="M398.657 412.393L564.035 332.023L614.022 307.438L627.545 300.642L631.045 298.838C631.456 298.654 631.848 298.433 632.217 298.176C631.789 298.321 631.372 298.496 630.97 298.702L627.409 300.447L613.767 307.017L563.764 331.572L399.138 413.34C334.922 445.323 276.671 474.193 234.452 494.853C213.327 505.183 196.184 513.468 184.284 519.107C178.349 521.919 173.767 524.084 170.551 525.498C168.982 526.322 167.337 526.992 165.638 527.497C167.059 526.478 168.567 525.588 170.146 524.836C173.151 523.212 177.658 520.866 183.668 517.874C195.387 511.859 212.41 503.409 233.505 492.989C275.65 472.148 334.081 443.714 398.657 412.393Z" fill="#EBEBEB"/>
<path d="M392.542 397.673L568.858 343.631L622.241 327.001L636.71 322.37L640.466 321.122C640.897 321.005 641.315 320.844 641.713 320.641C641.27 320.715 640.834 320.821 640.406 320.956L636.62 322.069L622.076 326.475L568.708 343.015L392.918 398.65C324.315 420.408 262.202 440 217.128 453.939C194.591 460.901 176.321 466.464 163.655 470.208C157.329 472.088 152.416 473.502 149.051 474.419C147.371 474.993 145.64 475.406 143.882 475.652C145.46 474.839 147.116 474.189 148.825 473.712C152.101 472.569 156.954 470.945 163.234 468.9C175.765 464.795 193.96 459.006 216.467 451.939C261.406 437.85 323.714 418.709 392.542 397.673Z" fill="#EBEBEB"/>
<path d="M388.891 382.17L571.743 355.796L627.109 347.526L642.134 345.18L646.04 344.518C646.489 344.468 646.932 344.373 647.362 344.233C646.909 344.246 646.458 344.286 646.01 344.353L642.088 344.864L627.064 346.999L571.682 355.209L389.056 383.222C317.794 394.214 253.247 404.063 206.475 410.904C183.082 414.348 164.151 417.039 151.049 418.799C144.498 419.686 139.405 420.302 135.934 420.723C134.184 421.038 132.408 421.179 130.63 421.144C132.326 420.61 134.066 420.228 135.829 420.002C139.255 419.37 144.303 418.498 150.854 417.445C163.895 415.325 182.796 412.378 206.16 408.859C252.887 401.792 317.508 392.41 388.891 382.17Z" fill="#EBEBEB"/>
<path d="M387.764 366.321L572.569 367.825L628.596 368.02H643.831H647.783C648.235 368.019 648.686 367.993 649.135 367.945C648.688 367.875 648.235 367.845 647.783 367.855L643.831 367.765L628.596 367.599L572.659 367.269L387.854 367.374C315.735 367.464 250.363 367.464 203.05 367.178C179.401 367.043 160.259 366.848 147.037 366.607C140.426 366.502 135.288 366.366 131.802 366.246C130.001 366.288 128.2 366.157 126.423 365.855C128.182 365.582 129.962 365.466 131.742 365.509C135.213 365.419 140.351 365.329 146.962 365.269C160.199 365.103 179.341 365.103 203.05 365.103C250.288 365.193 315.615 365.675 387.764 366.321Z" fill="#EBEBEB"/>
<path d="M389.191 350.473L571.547 379.914L626.853 388.56L641.878 390.816L645.799 391.342C646.245 391.427 646.698 391.473 647.152 391.477C646.719 391.347 646.277 391.251 645.829 391.192L641.938 390.5L626.913 388.034L571.622 379.328L389.011 351.57C317.719 340.759 253.172 330.88 206.505 323.452C183.157 319.753 164.286 316.656 151.259 314.43C144.738 313.318 139.69 312.415 136.234 311.754C134.472 311.529 132.735 311.131 131.051 310.566C132.829 310.555 134.605 310.711 136.355 311.032C139.825 311.453 144.904 312.145 151.454 313.077C164.541 314.942 183.457 317.783 206.806 321.392C253.548 328.58 318.019 338.925 389.191 350.473Z" fill="#EBEBEB"/>
<path d="M393.143 335.03L568.452 392.049L621.67 409.07L636.184 413.581L639.97 414.709C640.396 414.854 640.833 414.965 641.277 415.039C640.872 414.836 640.45 414.67 640.015 414.543L636.289 413.265L621.85 408.529L568.647 391.477L392.858 336.038C324.194 314.46 262.142 294.823 217.173 280.328C194.726 273.095 176.606 267.156 164.075 262.945C157.825 260.855 152.987 259.186 149.712 258.013C148.011 257.514 146.36 256.855 144.784 256.044C146.542 256.303 148.272 256.726 149.952 257.307C153.303 258.254 158.216 259.713 164.526 261.637C177.147 265.487 195.372 271.185 217.849 278.328C262.743 292.627 324.75 312.731 393.143 335.03Z" fill="#EBEBEB"/>
<path d="M399.528 320.415L563.449 403.537L613.226 428.497L626.823 435.188L630.369 436.888C630.775 437.085 631.191 437.261 631.616 437.414C631.243 437.159 630.851 436.933 630.444 436.737L626.958 434.903L613.436 428.016L563.659 403.025L399.033 321.362C334.742 289.53 276.551 260.615 234.602 239.444C213.567 228.918 196.649 220.212 185.02 214.167C179.175 211.16 174.668 208.754 171.618 207.1C170.033 206.343 168.524 205.436 167.11 204.394C168.795 204.93 170.429 205.614 171.993 206.439C175.149 207.942 179.761 210.077 185.681 212.949C197.52 218.678 214.604 227.099 235.638 237.609C277.618 258.6 335.583 287.936 399.528 320.415Z" fill="#EBEBEB"/>
<path d="M408.213 306.957L556.763 413.972L601.927 446.195L614.277 454.871L617.523 457.082C617.884 457.352 618.265 457.593 618.665 457.803C618.341 457.491 617.989 457.209 617.613 456.961L614.473 454.616L602.258 445.759L557.108 413.506L407.567 307.814C349.165 266.599 296.383 229.189 258.281 201.897C239.244 188.244 223.874 177.132 213.326 169.374C208.053 165.494 203.981 162.457 201.231 160.352C199.774 159.369 198.415 158.246 197.175 156.999C198.757 157.784 200.266 158.71 201.682 159.765C204.567 161.675 208.774 164.547 214.153 168.276C224.941 175.794 240.446 186.65 259.543 200.228C297.706 227.354 350.292 265.141 408.213 306.957Z" fill="#EBEBEB"/>
<path d="M418.941 294.973L548.619 423.159L588.104 461.818L598.907 472.253L601.747 474.945C602.067 475.259 602.408 475.551 602.769 475.817C602.494 475.463 602.193 475.132 601.867 474.825L599.133 472.043L588.495 461.442L549.04 422.753L418.219 295.71C367.135 246.165 320.934 201.236 287.684 168.501C271.067 152.142 257.635 138.85 248.485 129.587C243.977 124.956 240.356 121.332 237.967 118.851C236.694 117.651 235.533 116.337 234.497 114.927C235.938 115.93 237.281 117.068 238.508 118.325C241.047 120.655 244.743 124.129 249.461 128.625C258.912 137.647 272.494 150.758 289.187 167.043C322.542 199.702 368.322 244.902 418.941 294.973Z" fill="#EBEBEB"/>
<path d="M431.426 284.748C473.495 341.887 511.433 393.537 538.973 430.993L571.787 475.155L580.802 487.109L583.191 490.117C583.445 490.483 583.732 490.825 584.048 491.139C583.832 490.753 583.591 490.381 583.327 490.026L581.073 486.899L572.253 474.87L539.469 430.662L430.57 285.41C388.02 228.738 349.556 177.358 321.956 139.992C308.148 121.317 297.045 106.16 289.457 95.6196C285.656 90.3418 282.741 86.2368 280.803 83.425C279.729 82.0486 278.788 80.5734 277.993 79.0193C279.267 80.222 280.415 81.5522 281.419 82.9889C283.552 85.6654 286.647 89.6501 290.599 94.8226C298.487 105.138 309.801 120.159 323.653 138.774C351.464 175.99 389.522 227.64 431.426 284.748Z" fill="#EBEBEB"/>
<path d="M445.444 276.554L528.08 437.444C538.748 457.939 547.387 474.524 553.397 486.042L560.369 499.214C561.18 500.717 561.796 501.8 562.232 502.612C562.422 503.016 562.654 503.399 562.923 503.755C562.767 503.339 562.586 502.932 562.382 502.537L560.729 498.928L553.968 485.666L528.697 437.038L444.468 277.035C411.548 214.588 381.844 158.006 360.569 116.911C349.932 96.3564 341.413 79.696 335.598 68.1329C332.698 62.3439 330.475 57.848 329.017 54.7655C328.168 53.2471 327.478 51.6446 326.959 49.9839C328.012 51.3972 328.927 52.9077 329.693 54.4948C331.376 57.5021 333.795 61.8777 336.86 67.5766C343.005 78.9592 351.765 95.5143 362.478 116.024C383.933 156.968 413.216 213.776 445.444 276.554Z" fill="#EBEBEB"/>
<path d="M460.589 270.599L516.181 442.015L533.309 493.891L538.102 507.95C538.658 509.453 539.079 510.732 539.379 511.589C539.509 512.013 539.675 512.426 539.875 512.822C539.802 512.387 539.691 511.959 539.544 511.544L538.402 507.845C537.351 504.567 535.833 499.815 533.895 493.71C529.853 481.41 524.009 463.637 516.797 441.819C502.133 398.033 481.894 337.617 459.522 270.87C437.151 204.123 416.942 143.781 402.594 99.95C395.412 78.0268 389.687 60.2687 385.826 47.9538C383.903 41.8039 382.43 37.0223 381.484 33.7594C380.903 32.1245 380.481 30.4378 380.222 28.7222C381.047 30.2533 381.711 31.8658 382.205 33.5338C383.392 36.7216 385.06 41.443 387.178 47.5328C391.4 59.7274 397.365 77.4253 404.637 99.3184C419.196 143.09 438.938 203.672 460.589 270.599Z" fill="#EBEBEB"/>
<path d="M476.5 267.035C487.138 336.489 496.754 399.356 503.74 444.887C507.331 467.592 510.246 485.967 512.259 498.733C513.311 505.048 514.137 509.965 514.693 513.363C514.994 514.987 515.219 516.25 515.369 517.152C515.44 517.588 515.535 518.02 515.655 518.445C515.663 518.006 515.622 517.568 515.535 517.137C515.415 516.22 515.234 514.957 515.009 513.318L512.815 498.657C510.802 485.891 507.902 467.502 504.326 444.797C496.919 399.311 486.702 336.534 475.419 267.201C464.135 197.868 453.963 135.12 446.841 89.635C443.311 66.8999 440.531 48.4802 438.698 35.7293C437.797 29.3538 437.12 24.4068 436.715 21.0386C436.392 19.3392 436.246 17.6107 436.279 15.8811C436.837 17.5157 437.225 19.2038 437.436 20.9183C438.082 24.2564 438.938 29.1734 440.065 35.5187C442.259 48.2095 445.294 66.5841 448.93 89.3193C456.247 134.775 465.983 197.627 476.5 267.035Z" fill="#EBEBEB"/>
<path d="M492.817 265.938C492.246 336.158 491.75 399.687 491.315 445.744C491.315 468.72 491.194 487.32 491.149 500.236C491.149 506.627 491.149 511.604 491.225 515.047C491.225 516.701 491.225 517.979 491.225 518.897C491.206 519.334 491.232 519.772 491.3 520.205C491.333 519.769 491.333 519.332 491.3 518.897C491.3 517.979 491.3 516.701 491.39 515.047C491.39 511.604 491.48 506.627 491.555 500.236C491.555 487.32 491.675 468.66 491.75 445.744C491.75 399.687 491.615 336.143 491.525 265.938C491.435 195.732 491.36 132.218 491.615 86.2067C491.75 63.2009 491.931 44.5858 492.156 31.7296C492.276 25.294 492.396 20.3019 492.532 16.9036C492.559 15.1694 492.755 13.442 493.118 11.7461C493.413 13.4536 493.534 15.1867 493.478 16.9186C493.583 20.3019 493.674 25.294 493.749 31.7296C493.884 44.6008 493.959 63.216 493.929 86.2218C493.884 132.218 493.418 195.763 492.817 265.938Z" fill="#EBEBEB"/>
<path d="M509.104 267.366C497.325 336.639 486.672 399.326 478.949 444.797C475.223 467.487 472.188 485.846 470.1 498.597C469.093 504.928 468.327 509.845 467.801 513.243C467.561 514.882 467.38 516.16 467.245 517.062C467.16 517.493 467.114 517.931 467.11 518.37C467.249 517.954 467.349 517.526 467.41 517.092C467.576 516.19 467.816 514.927 468.117 513.288C468.702 509.905 469.619 505.003 470.641 498.688C472.759 485.937 475.794 467.577 479.55 444.887C486.837 399.387 496.904 336.624 508.022 267.231C519.141 197.838 529.207 135.045 536.81 89.605C540.611 66.8999 543.766 48.5404 546.05 35.8647C547.192 29.5343 548.123 24.6174 548.784 21.2943C549.034 19.5812 549.441 17.8949 550.002 16.2571C550.022 17.9926 549.866 19.7257 549.536 21.4296C549.1 24.7828 548.394 29.7298 547.447 36.1052C545.614 48.8111 542.609 67.2157 538.928 89.9358C531.536 135.376 520.929 198.078 509.104 267.366Z" fill="#EBEBEB"/>
<path d="M524.97 271.14L466.479 441.789C459.102 463.607 453.152 481.29 449.005 493.56C447.007 499.65 445.444 504.386 444.377 507.664C443.867 509.258 443.491 510.476 443.206 511.348C443.051 511.762 442.94 512.19 442.875 512.626C443.069 512.233 443.235 511.826 443.371 511.408C443.686 510.536 444.122 509.333 444.678 507.77L449.546 493.725L467.05 441.97C481.624 398.154 501.727 337.692 523.934 270.885C546.14 204.078 566.228 143.646 581.028 99.9802C588.45 78.1322 594.55 60.4944 598.862 48.3148C601.026 42.3003 602.724 37.5337 603.925 34.346C604.437 32.6821 605.116 31.0749 605.954 29.5493C605.682 31.2652 605.249 32.9517 604.662 34.5865C603.685 37.8344 602.183 42.616 600.154 48.7509C596.203 61.0357 590.358 78.8239 583.026 100.627C568.482 144.293 547.853 204.589 524.97 271.14Z" fill="#EBEBEB"/>
<path d="M540.01 277.366L454.654 436.842L429.037 485.305L422.171 498.522L420.428 501.98C420.216 502.374 420.031 502.781 419.872 503.198C420.137 502.839 420.368 502.457 420.563 502.056L422.456 498.672C424.094 495.665 426.468 491.154 429.533 485.546L455.18 437.113L539.049 276.884C571.727 214.318 601.416 157.705 623.187 116.851C634.05 96.4165 642.93 79.9215 649.15 68.5689C652.26 62.8851 654.709 58.4945 656.407 55.5323C657.179 53.9701 658.105 52.4891 659.172 51.1116C658.637 52.7666 657.937 54.3635 657.083 55.8781C655.581 58.8854 653.327 63.3964 650.397 69.1854C644.507 80.7034 635.853 97.3187 625.08 117.798C603.49 158.743 573.365 215.13 540.01 277.366Z" fill="#EBEBEB"/>
<path d="M553.863 285.786C510.922 342.233 472.083 393.312 443.927 430.347L410.872 474.298L401.962 486.327L399.679 489.47C399.407 489.82 399.166 490.192 398.958 490.583C399.268 490.264 399.555 489.922 399.814 489.56L402.218 486.553L411.323 474.674L444.377 430.722L552.961 285.214C595.301 228.377 633.72 176.952 661.756 139.932C675.789 121.362 687.208 106.476 695.186 96.1457C699.167 91.0183 702.293 87.0487 704.441 84.3872C705.46 82.9624 706.612 81.6381 707.882 80.4326C707.081 81.9822 706.135 83.4523 705.057 84.8233C703.089 87.6201 700.144 91.71 696.313 96.9577C688.65 107.483 677.442 122.52 663.499 141.12C635.628 178.29 596.819 229.399 553.863 285.786Z" fill="#EBEBEB"/>
<path d="M566.183 296.221L434.431 422.377L394.705 460.795L383.978 471.321L381.228 474.088C380.906 474.392 380.604 474.719 380.327 475.065C380.691 474.809 381.033 474.522 381.348 474.208L384.203 471.532L395.096 461.171L434.837 422.783L565.372 295.469C616.276 245.729 662.447 200.74 696.087 168.411C712.9 152.232 726.572 139.195 736.083 130.264C740.846 125.753 744.557 122.354 747.111 120.039C748.35 118.787 749.703 117.654 751.153 116.656C750.117 118.07 748.944 119.38 747.652 120.565C745.263 123.031 741.642 126.58 737.135 131.226C727.88 140.428 714.387 153.645 697.65 169.885C664.145 202.394 617.628 247.022 566.183 296.221Z" fill="#EBEBEB"/>
<path d="M576.7 308.371L426.453 413.07L381.078 445.022L368.758 453.819L365.587 456.134C365.214 456.379 364.867 456.661 364.551 456.976C364.947 456.768 365.329 456.532 365.693 456.27L368.938 454.074L381.348 445.488L426.753 413.566L576.054 307.544C634.29 266.118 687.102 228.693 725.491 201.822C744.677 188.38 760.258 177.568 771.091 170.246C776.515 166.547 780.737 163.705 783.622 161.81C785.034 160.761 786.543 159.85 788.129 159.089C786.887 160.331 785.523 161.444 784.057 162.412C781.308 164.487 777.206 167.509 771.902 171.343C761.295 179.027 745.864 190.049 726.723 203.567C688.47 230.512 635.387 267.562 576.7 308.371Z" fill="#EBEBEB"/>
<path d="M585.129 321.979L419.857 402.529L369.9 427.189L356.377 433.986L352.892 435.79C352.48 435.976 352.087 436.203 351.72 436.467C352.148 436.322 352.565 436.146 352.967 435.94L356.528 434.271L370.17 427.67L420.143 403.056L584.679 321.032C648.865 288.974 707.025 260.029 749.26 239.323C770.385 228.978 787.513 220.663 799.398 215.009C805.332 212.182 809.915 210.032 813.13 208.604C814.704 207.785 816.348 207.111 818.043 206.589C816.632 207.622 815.122 208.513 813.536 209.25C810.531 210.889 805.948 213.25 800.089 216.242C788.385 222.257 771.362 230.752 750.297 241.188C708.047 262.073 649.661 290.598 585.129 321.979Z" fill="#EBEBEB"/>
<path d="M591.26 336.714L415.019 390.966L361.696 407.672L347.287 412.318L343.546 413.566C343.112 413.689 342.69 413.85 342.284 414.047C342.733 413.972 343.175 413.861 343.606 413.716L347.393 412.619L361.937 408.108L415.275 391.447L591.064 335.632C659.637 313.784 721.78 294.101 766.854 280.117C789.391 273.125 807.646 267.532 820.297 263.772C826.623 261.893 831.551 260.464 834.901 259.547C836.581 258.973 838.312 258.56 840.07 258.314C838.486 259.114 836.831 259.764 835.127 260.254C831.851 261.397 826.998 263.021 820.733 265.081C808.202 269.201 790.022 275.02 767.515 282.102C722.336 296.357 660.073 315.588 591.26 336.714Z" fill="#EBEBEB"/>
<path d="M594.941 352.202L412.119 378.802L356.753 387.132L341.728 389.508L337.837 390.169C337.389 390.226 336.946 390.322 336.515 390.455C336.963 390.452 337.41 390.411 337.852 390.335L341.788 389.823L356.813 387.673L412.179 379.388L594.745 351.149C665.993 340.068 730.524 330.098 777.281 323.227C800.66 319.768 819.591 317.047 832.693 315.272C839.243 314.385 844.337 313.769 847.807 313.318C849.56 313.022 851.334 312.881 853.111 312.897C851.42 313.45 849.679 313.838 847.913 314.054C844.502 314.686 839.439 315.558 832.888 316.626C819.846 318.776 800.945 321.738 777.582 325.287C730.915 332.414 666.293 341.857 594.941 352.202Z" fill="#EBEBEB"/>
<path d="M218.976 603.221C217.904 599.909 216.387 596.758 214.468 593.853C213.504 592.419 212.263 591.192 210.818 590.244C209.373 589.297 207.754 588.648 206.054 588.335C204.33 588.083 202.571 588.409 201.051 589.264C199.532 590.118 198.338 591.452 197.656 593.057C197.16 585.644 196.153 578.02 192.412 571.614C188.671 565.209 181.789 560.112 174.382 560.578C167.396 560.999 161.416 566.186 158.08 572.351C154.745 578.516 153.573 585.583 152.536 592.5C149.892 589.252 144.288 590.275 141.523 593.432C138.759 596.59 138.067 600.951 137.481 605.146H220.704L218.976 603.221Z" fill="#FAFAFA"/>
<path d="M797.73 278.133C796.032 272.878 793.626 267.88 790.578 263.276C787.318 258.766 782.57 255.172 777.056 254.495C771.542 253.819 765.532 256.781 763.744 262.013C762.963 250.255 761.295 238.181 755.405 227.956C749.516 217.731 738.533 209.717 726.768 210.438C715.68 211.115 706.184 219.355 700.91 229.144C695.637 238.932 693.819 250.195 692.091 261.141C687.884 255.984 679.004 257.608 674.617 262.645C670.23 267.682 669.118 274.674 668.187 281.245H800.404L797.73 278.133Z" fill="#EBEBEB"/>
<path d="M304.317 554.563C302.805 549.887 300.662 545.44 297.946 541.346C296.575 539.3 294.802 537.554 292.736 536.215C290.67 534.876 288.353 533.972 285.926 533.557C281.058 532.956 275.664 535.587 274.087 540.218C273.381 529.768 271.908 519.032 266.68 509.95C261.451 500.868 251.73 493.71 241.273 494.417C231.416 495.019 222.972 502.356 218.285 511.047C213.597 519.739 212.064 529.648 210.442 539.421C206.716 534.82 198.813 536.264 194.921 540.714C191.03 545.165 190.023 551.39 189.197 557.255H306.721L304.317 554.563Z" fill="#EBEBEB"/>
<path d="M693.368 138.774C691.847 134.102 689.704 129.657 686.998 125.557C685.624 123.512 683.85 121.767 681.785 120.426C679.719 119.085 677.404 118.175 674.978 117.753C670.125 117.167 664.731 119.798 663.138 124.429C662.447 113.904 660.96 103.243 655.731 94.1609C650.502 85.0789 640.706 77.9516 630.279 78.5831C620.423 79.1846 611.994 86.5224 607.291 95.2135C602.588 103.905 600.996 113.889 599.463 123.647C595.722 119.137 587.834 120.505 583.928 124.956C580.021 129.406 579.045 135.632 578.218 141.496H695.862L693.368 138.774Z" fill="#EBEBEB"/>
<path d="M754.248 663.457C752.734 658.783 750.591 654.336 747.878 650.24C746.505 648.194 744.732 646.448 742.666 645.107C740.6 643.765 738.284 642.857 735.858 642.436C730.99 641.85 725.596 644.466 724.019 649.112C723.312 638.662 721.84 627.926 716.596 618.844C711.353 609.762 701.572 602.62 691.159 603.266C681.303 603.868 672.859 611.206 668.171 619.897C663.484 628.588 661.861 638.572 660.329 648.331C656.587 643.744 648.699 645.188 644.808 649.639C640.917 654.09 639.91 660.315 639.083 666.179H756.652L754.248 663.457Z" fill="#EBEBEB"/>
<path d="M298.141 393.282C297.173 390.301 295.809 387.463 294.085 384.846C293.209 383.54 292.079 382.425 290.763 381.567C289.446 380.709 287.969 380.127 286.422 379.854C284.875 379.646 283.303 379.951 281.947 380.722C280.59 381.494 279.523 382.689 278.91 384.125C278.474 377.448 277.527 370.592 274.192 364.788C270.856 358.984 264.606 354.443 257.935 354.848C251.64 355.239 246.261 359.916 243.256 365.464C240.251 371.013 239.244 377.388 238.253 383.628C235.879 380.696 230.83 381.613 228.351 384.455C225.872 387.297 225.226 391.267 224.7 394.981H299.824L298.141 393.282Z" fill="#F5F5F5"/>
<path d="M843.616 367.795C842.648 364.814 841.283 361.976 839.559 359.359C838.683 358.056 837.552 356.943 836.236 356.087C834.919 355.232 833.443 354.652 831.896 354.382C830.351 354.168 828.778 354.469 827.42 355.238C826.063 356.007 824.996 357.202 824.384 358.638C823.948 351.961 823.002 345.105 819.651 339.316C816.301 333.527 810.05 329.016 803.364 329.362C797.069 329.753 791.69 334.429 788.685 339.977C785.68 345.526 784.673 351.901 783.682 358.141C781.308 355.134 776.259 356.127 773.78 358.968C771.301 361.81 770.655 365.78 770.129 369.494H845.178L843.616 367.795Z" fill="#F5F5F5"/>
<path d="M516.181 355.074C515.213 352.093 513.848 349.255 512.124 346.639C511.248 345.335 510.118 344.222 508.801 343.367C507.484 342.511 506.008 341.931 504.461 341.662C502.916 341.447 501.343 341.748 499.986 342.517C498.628 343.286 497.561 344.481 496.949 345.917C496.513 339.241 495.567 332.384 492.216 326.595C488.866 320.806 482.646 316.235 475.975 316.656C469.679 317.032 464.3 321.708 461.295 327.272C458.29 332.835 457.284 339.196 456.292 345.421C453.918 342.489 448.87 343.406 446.391 346.248C443.912 349.09 443.266 353.074 442.74 356.773H517.788L516.181 355.074Z" fill="#F5F5F5"/>
<path d="M302.919 128.264C301.952 125.279 300.582 122.441 298.847 119.828C297.976 118.523 296.849 117.409 295.534 116.554C294.22 115.698 292.745 115.119 291.2 114.851C289.654 114.637 288.082 114.938 286.724 115.707C285.366 116.476 284.299 117.67 283.687 119.107C283.252 112.43 282.305 105.574 278.955 99.7847C275.604 93.9956 269.384 89.4245 262.713 89.8305C256.417 90.2215 251.039 94.8978 248.034 100.461C245.029 106.025 244.022 112.37 243.03 118.61C240.641 115.678 235.608 116.595 233.114 119.437C230.62 122.279 230.004 126.264 229.478 129.963H304.602L302.919 128.264Z" fill="#F5F5F5"/>
<path d="M401.151 325.121L408.108 327.738L402.098 329.452C401.108 329.732 400.202 330.251 399.461 330.965C398.719 331.678 398.165 332.563 397.846 333.542L395.667 340.218L392.948 333.527C392.621 332.704 392.124 331.96 391.49 331.343C390.856 330.726 390.098 330.251 389.267 329.948L383.167 327.738L389.762 325.016C390.555 324.694 391.273 324.213 391.872 323.603C392.472 322.992 392.94 322.266 393.248 321.467L395.637 315.257L397.35 321.031C397.626 321.96 398.112 322.813 398.772 323.522C399.431 324.232 400.245 324.779 401.151 325.121Z" fill="#EBEBEB"/>
<path d="M243.091 392.395L250.032 395.011L244.022 396.725C243.032 397.007 242.125 397.527 241.381 398.239C240.637 398.952 240.079 399.837 239.755 400.815L237.607 407.491L234.932 400.8C234.601 399.978 234.101 399.234 233.464 398.618C232.827 398.001 232.068 397.526 231.236 397.221L225.136 395.011L231.747 392.289C232.537 391.966 233.253 391.485 233.849 390.875C234.446 390.264 234.912 389.538 235.218 388.741L237.607 382.531L239.32 388.305C239.591 389.231 240.073 390.082 240.727 390.791C241.381 391.501 242.19 392.049 243.091 392.395Z" fill="#EBEBEB"/>
<path d="M285.806 651.187L292.748 653.804L286.738 655.518C285.747 655.796 284.84 656.314 284.098 657.028C283.356 657.742 282.802 658.628 282.486 659.608L280.292 666.284L277.618 659.593C277.289 658.769 276.79 658.024 276.153 657.407C275.516 656.791 274.755 656.316 273.922 656.014L267.807 653.804L274.418 651.082C275.21 650.757 275.928 650.273 276.528 649.66C277.127 649.047 277.595 648.319 277.903 647.519L280.277 641.323L281.99 647.082C282.268 648.014 282.757 648.869 283.419 649.581C284.081 650.293 284.898 650.842 285.806 651.187Z" fill="#EBEBEB"/>
<path d="M682.79 547.661L689.191 550.067L683.632 551.646C682.716 551.907 681.878 552.389 681.191 553.049C680.505 553.71 679.991 554.529 679.695 555.435L677.682 561.585L675.218 555.405C674.911 554.648 674.448 553.964 673.861 553.397C673.274 552.83 672.574 552.392 671.807 552.112L666.173 550.052L672.273 547.556C673.003 547.253 673.664 546.805 674.217 546.239C674.77 545.673 675.202 545.001 675.488 544.263L677.682 538.534L679.259 543.857C679.517 544.72 679.969 545.512 680.581 546.172C681.194 546.831 681.949 547.341 682.79 547.661Z" fill="#EBEBEB"/>
<path d="M512.455 60.2087L518.87 62.6296L513.311 64.1333C512.396 64.3913 511.559 64.8705 510.872 65.5286C510.186 66.1867 509.672 67.0036 509.375 67.9074L507.361 74.0724L504.882 67.8924C504.581 67.1346 504.122 66.4494 503.537 65.8818C502.952 65.3142 502.253 64.8771 501.487 64.5994L495.853 62.5544L501.953 60.0433C502.673 59.7546 503.327 59.3235 503.877 58.7758C504.427 58.2281 504.861 57.575 505.153 56.8556L507.361 51.1267L508.939 56.4496C509.196 57.3052 509.646 58.0897 510.256 58.7419C510.866 59.394 511.619 59.8961 512.455 60.2087Z" fill="#EBEBEB"/>
<path d="M806.94 345.451L817.457 349.435L808.262 352.052C806.751 352.477 805.368 353.269 804.235 354.358C803.103 355.446 802.257 356.798 801.772 358.292L798.451 368.472L794.349 358.262C793.852 357.008 793.093 355.874 792.125 354.935C791.156 353.997 789.999 353.275 788.73 352.819L779.43 349.435L789.496 345.285C790.703 344.794 791.797 344.06 792.709 343.129C793.621 342.198 794.333 341.089 794.8 339.872L798.451 330.399L801.05 339.196C801.478 340.625 802.234 341.934 803.256 343.02C804.278 344.106 805.54 344.938 806.94 345.451Z" fill="#EBEBEB"/>
<path d="M750.913 546.082L761.505 550.067L752.295 552.683C750.785 553.111 749.403 553.904 748.271 554.992C747.139 556.08 746.292 557.431 745.804 558.924L742.439 569.103L738.337 558.894C737.837 557.641 737.078 556.508 736.109 555.57C735.141 554.632 733.985 553.91 732.718 553.45L723.462 550.052L733.529 545.917C734.737 545.423 735.83 544.686 736.742 543.752C737.654 542.819 738.366 541.708 738.833 540.489L742.484 531.016L745.083 539.827C745.506 541.25 746.253 542.555 747.264 543.64C748.275 544.725 749.524 545.561 750.913 546.082Z" fill="#EBEBEB"/>
<path d="M545.749 105.92L556.342 109.904L547.117 112.491C545.604 112.916 544.219 113.708 543.084 114.796C541.949 115.885 541.1 117.236 540.611 118.731L537.291 128.91L533.189 118.701C532.687 117.455 531.928 116.329 530.963 115.397C529.997 114.464 528.846 113.745 527.585 113.288L518.284 109.904L528.351 105.769C529.557 105.273 530.649 104.535 531.561 103.602C532.473 102.668 533.185 101.559 533.655 100.341L537.306 90.8682L539.92 99.6645C540.339 101.089 541.084 102.396 542.096 103.482C543.108 104.568 544.359 105.402 545.749 105.92Z" fill="#EBEBEB"/>
<path d="M507.887 349.39L522.326 354.819L509.796 358.367C507.736 358.955 505.852 360.04 504.309 361.526C502.766 363.013 501.611 364.856 500.946 366.893L496.439 380.756L490.864 366.848C490.179 365.141 489.143 363.598 487.823 362.318C486.502 361.038 484.928 360.051 483.202 359.42L470.491 354.819L484.223 349.165C485.867 348.492 487.356 347.49 488.599 346.221C489.842 344.951 490.812 343.441 491.45 341.782L496.408 328.881L499.969 340.91C500.549 342.837 501.565 344.605 502.938 346.076C504.312 347.547 506.005 348.681 507.887 349.39Z" fill="#EBEBEB"/>
<path d="M269.158 99.1531L283.597 104.581L271.067 108.145C269.005 108.727 267.118 109.808 265.572 111.292C264.026 112.776 262.869 114.618 262.202 116.656L257.695 130.519L252.12 116.61C251.432 114.905 250.392 113.364 249.07 112.086C247.747 110.809 246.17 109.825 244.443 109.197L231.777 104.581L245.449 98.9576C247.089 98.2781 248.572 97.2698 249.807 95.9949C251.042 94.72 252.003 93.2054 252.631 91.5446L257.604 78.6433L261.15 90.6725C261.739 92.6094 262.769 94.3832 264.159 95.8546C265.548 97.3261 267.259 98.4551 269.158 99.1531Z" fill="#EBEBEB"/>
<path d="M240.356 604.725L254.78 610.153L242.249 613.717C240.191 614.302 238.307 615.384 236.764 616.868C235.221 618.352 234.066 620.192 233.4 622.227L228.892 636.091L223.288 622.227C222.603 620.522 221.566 618.981 220.246 617.704C218.925 616.427 217.351 615.442 215.625 614.814L202.944 610.198L216.677 604.56C218.32 603.882 219.809 602.877 221.051 601.605C222.294 600.333 223.264 598.821 223.904 597.162L228.862 584.26L232.423 596.289C233.007 598.212 234.027 599.973 235.403 601.436C236.779 602.899 238.474 604.025 240.356 604.725Z" fill="#EBEBEB"/>
</g>
<path d="M787.996 410.967C784.21 405.028 778.456 400.613 771.742 398.496C772.101 402.691 771.457 406.91 769.865 410.807C768.273 414.704 765.778 418.166 762.586 420.907C763.509 414.821 763.436 408.625 762.369 402.563C762.281 400.979 761.642 399.477 760.563 398.315C759.131 397.388 757.412 397.009 755.723 397.249C748.767 397.48 741.854 398.443 735.099 400.123C736.862 405.054 737.405 410.339 736.682 415.526C735.958 420.714 733.99 425.648 730.946 429.908C726.539 435.963 720.11 440.246 714.782 445.433C709.455 450.62 704.687 457.507 705.301 464.971L707.757 472.526C724.553 473.574 741.203 466.959 754.622 456.82C768.04 446.68 778.605 433.179 787.869 419.118C788.695 418.062 789.253 416.822 789.495 415.503C789.511 413.867 788.984 412.271 787.996 410.967Z" fill="#7630A1"/>
<path d="M702.049 467.628C702.429 468.116 701.074 469.959 698.239 472.2C690.672 477.924 681.482 481.089 671.998 481.237C668.386 481.237 666.201 480.568 666.201 479.936C666.201 478.58 674.653 477.767 684.261 474.405C693.868 471.044 701.237 466.525 702.049 467.628Z" fill="#7630A1"/>
<path d="M707.99 471.37C707.709 473.258 706.874 475.02 705.591 476.433C704.308 477.846 702.636 478.847 700.785 479.308C698.934 479.77 696.988 479.672 695.193 479.027C693.397 478.382 691.834 477.218 690.699 475.683C689.565 474.148 688.911 472.311 688.82 470.404C688.729 468.498 689.205 466.607 690.187 464.97C691.17 463.334 692.616 462.027 694.342 461.213C696.067 460.399 697.995 460.116 699.882 460.399C702.41 460.778 704.685 462.147 706.206 464.204C707.726 466.261 708.368 468.839 707.99 471.37Z" fill="#7630A1"/>
<path d="M707.99 471.369C707.899 471.369 707.99 470.502 707.845 469.02C707.574 466.914 706.615 464.957 705.118 463.453C704.021 462.364 702.672 461.563 701.192 461.121C699.711 460.68 698.144 460.612 696.63 460.923C695.34 461.202 694.124 461.754 693.065 462.544C692.006 463.333 691.129 464.34 690.492 465.498C689.856 466.656 689.475 467.936 689.375 469.254C689.276 470.571 689.46 471.895 689.915 473.135C690.37 474.376 691.086 475.504 692.014 476.443C692.942 477.383 694.061 478.112 695.295 478.582C696.529 479.052 697.85 479.252 699.167 479.167C700.485 479.083 701.769 478.716 702.933 478.093C704.805 477.094 706.296 475.506 707.177 473.574C707.791 472.201 707.899 471.351 707.99 471.369C708.08 471.388 707.99 471.586 707.99 471.984C707.93 472.605 707.777 473.215 707.538 473.791C706.747 475.893 705.245 477.652 703.294 478.762C701.834 479.585 700.189 480.027 698.513 480.046C696.837 480.065 695.183 479.66 693.704 478.87C691.938 477.943 690.496 476.499 689.569 474.731C688.557 472.833 688.178 470.661 688.485 468.532C688.815 466.406 689.807 464.439 691.321 462.911C692.259 461.963 693.379 461.213 694.612 460.705C695.846 460.198 697.169 459.943 698.503 459.957C699.836 459.97 701.154 460.251 702.377 460.784C703.6 461.316 704.704 462.089 705.624 463.056C707.174 464.687 708.106 466.81 708.26 469.056C708.306 469.66 708.276 470.267 708.17 470.863C708.062 471.243 708.026 471.369 707.99 471.369Z" fill="#263238"/>
<path d="M727.33 455.681C724.329 458.011 721.091 460.016 717.668 461.664C714.393 463.592 710.917 465.155 707.302 466.327C710.509 464.334 713.825 462.524 717.235 460.905C720.492 458.961 723.863 457.217 727.33 455.681Z" fill="#263238"/>
<path d="M751.046 443.626C750.743 444.236 750.367 444.807 749.926 445.325C748.812 446.821 747.606 448.246 746.314 449.591C737.859 458.631 726.981 465.043 714.981 468.062C713.198 468.527 711.389 468.884 709.563 469.128C708.891 469.256 708.207 469.31 707.522 469.291C707.522 469.128 710.376 468.695 714.873 467.484C726.609 464.156 737.293 457.864 745.899 449.211C749.15 445.831 750.92 443.518 751.046 443.626Z" fill="#263238"/>
<path d="M718.051 450.241C716.24 452.845 714.268 455.332 712.145 457.688C710.269 460.222 708.237 462.637 706.059 464.917C709.184 459.356 713.24 454.374 718.051 450.187V450.241Z" fill="#263238"/>
<path d="M740.589 418.142C738.962 413.7 736.159 409.783 732.48 406.81C730.908 405.339 729.007 404.267 726.936 403.684C723.324 402.888 719.712 404.641 716.425 406.34C719.231 407.351 721.737 409.054 723.711 411.291C725.685 413.528 727.063 416.228 727.718 419.139C728.373 422.051 728.285 425.08 727.46 427.948C726.635 430.816 725.101 433.43 722.999 435.547C719.622 438.945 715.017 440.861 711.495 444.114C708.964 446.517 707.096 449.533 706.074 452.871C705.052 456.209 704.91 459.755 705.662 463.164L739.289 431.734C740.486 429.702 741.223 427.431 741.447 425.083C741.672 422.734 741.379 420.365 740.589 418.142Z" fill="#7630A1"/>
<path d="M195.423 465.875L416.31 372.073L716.605 515.451L570.485 560.093L336.505 526.205L195.423 465.875Z" fill="#263238"/>
<path d="M196.037 453.747L195.423 465.875L416.31 372.073L419.434 356.746L196.037 453.747Z" fill="#263238"/>
<path d="M716.605 515.451L719.296 502.203L419.435 356.746L416.311 372.073L716.605 515.451Z" fill="#263238"/>
<path opacity="0.3" d="M716.605 515.451L719.296 502.203L419.435 356.746L416.311 372.073L716.605 515.451Z" fill="white"/>
<path opacity="0.4" d="M195.423 465.875L416.31 372.073L716.605 515.451L570.485 560.093L336.505 526.205L195.423 465.875Z" fill="black"/>
<path d="M291.663 581.041L314.292 469.725L591.958 526.223L572.273 636.943L291.663 581.041Z" fill="#263238"/>
<path d="M592.646 522.375C597.536 496.4 539.166 463.59 462.272 449.091C385.379 434.592 319.08 443.895 314.19 469.87C309.3 495.845 367.67 528.655 444.564 543.154C521.457 557.653 587.756 548.35 592.646 522.375Z" fill="#263238"/>
<path opacity="0.3" d="M561.184 483.117L534.438 601.373L572.02 638.081L591.886 530.543C592.907 525.494 592.724 520.276 591.353 515.311C589.982 510.346 587.461 505.775 583.993 501.968C577.431 494.521 569.733 488.158 561.184 483.117Z" fill="white"/>
<path opacity="0.2" d="M291.735 581.04L313.984 471.477C313.984 470.935 314.093 470.375 314.201 469.833C319.095 443.861 385.392 434.571 462.29 449.048L446.776 525.463C444.745 535.496 439.03 544.403 430.759 550.426C422.487 556.448 412.261 559.149 402.097 557.996C383.171 555.845 360.65 554.2 343.945 555.791C295.943 560.364 291.735 581.094 291.735 581.094" fill="black"/>
<path d="M576.823 611.693C576.119 615.489 572.742 634.285 572.471 635.189C564.308 658.829 494.598 643.087 429.186 630.761C363.377 618.363 302.877 604.627 291.283 582.685C291.283 582.685 295.906 563.184 296.611 559.515C301.162 535.314 368.163 528.464 445.675 543.068C523.186 557.671 581.392 587.493 576.823 611.693Z" fill="#7630A1"/>
<path d="M572.346 636.581C567.795 660.8 500.794 668.011 423.282 653.408C345.77 638.804 286.625 607.32 291.176 583.101C295.727 558.882 362.259 551.111 439.77 565.714C517.282 580.318 576.915 612.362 572.346 636.581Z" fill="#263238"/>
<path d="M573.59 636.834C573.839 634.715 573.723 632.569 573.247 630.49C572.344 626.387 569.039 620.911 563.278 615.417C551.702 604.41 531.132 593.023 504.332 583.372C489.686 578.13 474.742 573.76 459.58 570.287C442.19 566.233 424.575 563.215 406.828 561.25C387.241 558.973 367.489 558.459 347.809 559.714C337.425 560.374 327.137 562.106 317.108 564.883C311.997 566.304 307.106 568.42 302.57 571.172C301.446 571.878 300.36 572.644 299.319 573.468C298.311 574.323 297.375 575.26 296.52 576.269C294.724 578.229 293.478 580.63 292.908 583.227C291.897 588.487 294.082 593.801 297.206 598.03C300.411 602.258 304.178 606.028 308.403 609.235C316.721 615.506 325.673 620.885 335.114 625.285C352.978 633.665 371.565 640.404 390.647 645.419C407.877 650.055 425.365 653.676 443.02 656.263C458.401 658.593 473.904 660.029 489.451 660.565C517.913 661.523 541.228 658.757 556.091 652.793C563.477 649.847 568.588 645.997 570.936 642.509C572.135 640.746 573.02 638.79 573.554 636.725C573.554 636.725 573.446 637.268 573.175 638.316C572.989 638.939 572.747 639.544 572.453 640.123C572.085 640.979 571.625 641.791 571.08 642.545C568.768 646.16 563.64 650.046 556.217 653.064C541.318 659.083 517.949 662.101 489.397 661.161C473.82 660.668 458.287 659.262 442.875 656.95C425.17 654.382 407.633 650.761 390.358 646.106C371.22 641.102 352.577 634.363 334.662 625.972C325.159 621.547 316.146 616.138 307.771 609.832C303.471 606.568 299.637 602.731 296.376 598.427C294.73 596.235 293.444 593.795 292.565 591.198C291.652 588.544 291.435 585.7 291.933 582.938C292.557 580.247 293.856 577.759 295.707 575.709C296.605 574.663 297.583 573.69 298.633 572.799C299.697 571.941 300.812 571.15 301.974 570.431C306.583 567.634 311.554 565.481 316.747 564.033C326.852 561.241 337.22 559.508 347.683 558.864C367.417 557.602 387.225 558.128 406.864 560.437C424.643 562.392 442.288 565.41 459.707 569.473C474.887 572.982 489.843 577.4 504.494 582.703C531.313 592.445 551.901 603.94 563.477 615.091C569.238 620.658 572.507 626.225 573.392 630.4C573.61 631.3 573.737 632.221 573.771 633.147C573.845 633.814 573.845 634.486 573.771 635.153C573.681 636.292 573.59 636.834 573.59 636.834Z" fill="#455A64"/>
<path opacity="0.4" d="M565.54 634.893C569.412 614.323 513.245 586.465 440.086 572.67C366.927 558.876 304.48 564.368 300.608 584.938C296.735 605.508 352.903 633.366 426.062 647.161C499.221 660.955 561.667 655.463 565.54 634.893Z" fill="black"/>
<path opacity="0.2" d="M300.583 584.89C300.583 584.89 322.633 596.276 359.33 601.771C396.027 607.265 478.108 581.492 478.108 581.492C478.108 581.492 322.796 541.82 300.583 584.89Z" fill="black"/>
</g>
<path d="M393.357 198.755C395.976 194.495 400.015 191.3 404.761 189.733C404.569 192.707 405.086 195.683 406.27 198.418C407.453 201.152 409.269 203.566 411.567 205.461C410.801 201.154 410.74 196.751 411.386 192.424C411.446 191.306 411.892 190.243 412.649 189.417C413.644 188.728 414.858 188.428 416.059 188.575C420.99 188.635 425.901 189.22 430.708 190.319C429.526 193.837 429.212 197.589 429.793 201.255C430.374 204.92 431.832 208.391 434.044 211.37C437.259 215.596 441.827 218.528 445.733 222.121C449.64 225.715 453.05 230.542 452.735 235.835L451.097 241.233C439.212 242.21 427.328 237.774 417.667 230.707C408.006 223.64 400.343 214.302 393.627 204.484C393.02 203.74 392.606 202.856 392.425 201.912C392.396 200.788 392.722 199.683 393.357 198.755Z" fill="#7630A1"/>
<path d="M455.065 237.594C455.741 236.692 460.94 239.654 467.806 241.789C474.672 243.924 480.607 244.601 480.637 245.729C480.637 246.255 479.135 246.796 476.535 246.931C469.769 247.093 463.144 244.975 457.724 240.917C455.696 239.353 454.749 238.015 455.065 237.594Z" fill="#7630A1"/>
<path d="M450.917 240.346C451.143 241.676 451.759 242.909 452.686 243.89C453.613 244.87 454.809 245.554 456.124 245.854C457.439 246.154 458.813 246.057 460.073 245.576C461.333 245.094 462.422 244.25 463.203 243.15C463.984 242.049 464.421 240.742 464.459 239.393C464.498 238.044 464.136 236.713 463.419 235.57C462.702 234.427 461.663 233.522 460.433 232.969C459.202 232.417 457.836 232.242 456.506 232.466C454.722 232.772 453.131 233.773 452.084 235.25C451.036 236.727 450.616 238.559 450.917 240.346Z" fill="#7630A1"/>
<path d="M450.916 240.345C450.916 240.345 450.916 240.21 450.796 239.924C450.703 239.505 450.673 239.074 450.706 238.646C450.76 237.049 451.384 235.523 452.464 234.346C453.265 233.458 454.277 232.788 455.407 232.399C456.537 232.01 457.748 231.914 458.925 232.12C460.382 232.376 461.725 233.076 462.769 234.125C463.813 235.174 464.507 236.521 464.755 237.981C465.004 239.44 464.795 240.941 464.157 242.277C463.519 243.613 462.484 244.719 461.193 245.443C460.147 246.022 458.971 246.326 457.775 246.326C456.58 246.326 455.403 246.022 454.357 245.443C452.949 244.69 451.856 243.458 451.277 241.969C451.112 241.574 450.996 241.16 450.931 240.736C450.931 240.451 450.931 240.3 450.931 240.3C450.931 240.3 451.112 240.887 451.562 241.804C452.208 243.135 453.261 244.225 454.567 244.917C455.542 245.403 456.621 245.639 457.71 245.605C458.798 245.571 459.861 245.267 460.803 244.721C461.603 244.251 462.294 243.614 462.828 242.854C463.362 242.094 463.726 241.229 463.897 240.316C464.068 239.403 464.042 238.463 463.819 237.562C463.597 236.66 463.184 235.816 462.608 235.088C462.032 234.359 461.306 233.763 460.48 233.339C459.654 232.915 458.747 232.673 457.82 232.63C456.893 232.587 455.967 232.743 455.105 233.088C454.243 233.434 453.466 233.96 452.825 234.632C451.781 235.706 451.126 237.097 450.961 238.586C450.886 239.729 450.992 240.33 450.916 240.345Z" fill="#263238"/>
<path d="M437.003 229.519C439.505 230.483 441.931 231.634 444.26 232.963C446.709 234.057 449.074 235.328 451.337 236.767C446.23 235.068 441.4 232.626 437.003 229.519Z" fill="#263238"/>
<path d="M420.011 221.309C420.116 221.219 421.409 222.813 423.797 225.114C430.03 231.089 437.676 235.383 446.019 237.594C449.219 238.436 451.263 238.707 451.248 238.842C450.75 238.919 450.243 238.919 449.745 238.842C448.436 238.704 447.137 238.488 445.854 238.195C441.596 237.213 437.499 235.634 433.684 233.504C429.883 231.362 426.408 228.689 423.362 225.565C422.438 224.617 421.575 223.613 420.777 222.557C420.462 222.181 420.204 221.761 420.011 221.309Z" fill="#263238"/>
<path d="M443.48 225.52C445.329 226.837 446.965 228.429 448.333 230.241C449.898 231.88 451.201 233.752 452.194 235.789C450.563 234.23 449.056 232.546 447.687 230.752C446.151 229.12 444.745 227.37 443.48 225.52Z" fill="#263238"/>
<path d="M427.043 203.115C428.132 199.949 430.058 197.137 432.617 194.98C433.709 193.909 435.045 193.12 436.509 192.68C439.048 192.063 441.647 193.251 444.021 194.409C442.048 195.165 440.297 196.407 438.931 198.019C437.565 199.632 436.627 201.564 436.204 203.636C435.782 205.707 435.889 207.852 436.514 209.872C437.14 211.891 438.265 213.72 439.784 215.189C442.233 217.55 445.524 218.843 448.063 221.099C449.893 222.76 451.261 224.867 452.035 227.215C452.809 229.563 452.963 232.071 452.48 234.496L428.2 212.723C427.319 211.303 426.758 209.707 426.558 208.048C426.358 206.388 426.524 204.704 427.043 203.115Z" fill="#7630A1"/>
<path d="M578.613 274.599L438.447 278.899L624.153 120.024L753.141 129.286L578.613 274.599Z" fill="#263238"/>
<path d="M619.721 110.746C618.053 111.799 433.985 271.125 434.06 271.967C434.135 272.809 438.462 278.899 438.462 278.899L753.141 129.286L751.023 122.069L619.721 110.746Z" fill="#263238"/>
<path opacity="0.4" d="M578.613 274.599L438.447 278.899L624.153 120.024L753.141 129.286L578.613 274.599Z" fill="black"/>
<path d="M624.152 120.024L619.72 110.746L751.022 122.023L753.14 129.286L624.152 120.024Z" fill="#263238"/>
<path opacity="0.3" d="M624.152 120.024L619.72 110.746L751.022 122.023L753.14 129.286L624.152 120.024Z" fill="white"/>
<path d="M560.913 323.617L521.308 257.803L685.484 158.863L726.276 223.023L560.913 323.617Z" fill="#263238"/>
<path d="M619.731 234.789C664.672 206.815 693.458 171.836 684.027 156.661C674.596 141.486 630.518 151.861 585.577 179.834C540.636 207.807 511.85 242.786 521.281 257.962C530.712 273.137 574.79 262.762 619.731 234.789Z" fill="#263238"/>
<path opacity="0.3" d="M650.431 151.495L691.208 222.648L726.682 223.73L687.377 161.163C685.593 158.169 683.125 155.639 680.177 153.781C677.229 151.923 673.884 150.789 670.414 150.473C663.741 149.749 656.996 150.094 650.431 151.495Z" fill="white"/>
<path opacity="0.2" d="M560.944 323.557L521.955 258.765C521.728 258.477 521.517 258.176 521.324 257.863C511.889 242.676 540.661 207.686 585.615 179.673L612.795 224.783C616.358 230.711 617.572 237.761 616.198 244.541C614.824 251.321 610.962 257.34 605.373 261.412C594.961 268.93 582.986 278.493 575.323 286.974C553.552 311.333 560.944 323.557 560.944 323.557Z" fill="black"/>
<path d="M719.351 212.077C720.583 214.077 726.863 223.956 727.073 224.467C732.978 238.631 691.134 262.87 652.911 286.688C614.688 310.506 578.148 331.632 562.988 327.046C562.988 327.046 556.512 316.25 555.31 314.31C547.347 301.499 578.794 268.464 624.079 240.24C669.363 212.017 711.388 199.251 719.351 212.077Z" fill="#7630A1"/>
<path d="M727.628 225.159C735.591 237.985 704.851 271.215 659.566 299.439C614.281 327.662 571.115 340.097 563.152 327.331C555.189 314.565 585.449 281.23 630.764 253.006C676.078 224.783 719.665 212.287 727.628 225.159Z" fill="#263238"/>
<path d="M727.599 225.189C726.76 224.04 725.697 223.073 724.474 222.347C722.949 221.553 721.313 220.996 719.621 220.693C717.301 220.325 714.95 220.199 712.604 220.317C701.952 220.768 686.927 225.008 669.528 232.677C649.184 241.804 629.848 253.032 611.833 266.178C601.16 273.85 591.112 282.357 581.784 291.62C576.84 296.503 572.358 301.833 568.397 307.543C566.369 310.437 564.713 313.574 563.469 316.881C562.843 318.534 562.473 320.274 562.372 322.039C562.22 323.778 562.609 325.521 563.484 327.031C564.429 328.503 565.796 329.656 567.405 330.339C569.017 331.049 570.731 331.5 572.484 331.677C575.985 332.044 579.52 331.964 583.001 331.436C589.87 330.409 596.63 328.748 603.194 326.474C615.614 322.18 627.672 316.9 639.254 310.686C649.781 305.121 660.007 299.003 669.889 292.357C678.524 286.598 686.854 280.395 694.845 273.772C709.464 261.607 720.012 250.089 725.195 240.782C726.356 238.739 727.302 236.583 728.02 234.346C728.515 232.693 728.748 230.973 728.711 229.249C728.607 227.83 728.213 226.448 727.554 225.189C727.554 225.189 727.749 225.504 728.08 226.151C728.519 227.13 728.783 228.178 728.861 229.249C728.929 230.989 728.721 232.73 728.245 234.406C727.55 236.673 726.618 238.86 725.466 240.932C720.327 250.345 709.795 261.983 695.206 274.193C687.22 280.861 678.89 287.104 670.25 292.898C660.362 299.574 650.131 305.728 639.599 311.333C627.972 317.58 615.863 322.884 603.389 327.196C596.773 329.497 589.958 331.179 583.031 332.218C579.47 332.758 575.855 332.839 572.273 332.459C570.443 332.264 568.654 331.787 566.969 331.045C565.204 330.336 563.716 329.074 562.727 327.448C561.739 325.821 561.303 323.918 561.485 322.024C561.59 320.186 561.975 318.376 562.627 316.656C563.894 313.285 565.58 310.087 567.646 307.137C571.649 301.388 576.175 296.022 581.168 291.109C590.547 281.801 600.651 273.253 611.383 265.547C629.452 252.4 648.856 241.196 669.273 232.121C686.747 224.512 701.847 220.332 712.559 219.971C714.928 219.867 717.3 220.018 719.636 220.422C721.349 220.745 723.002 221.334 724.534 222.166C725.447 222.729 726.264 223.435 726.953 224.256C727.404 224.888 727.599 225.189 727.599 225.189Z" fill="#455A64"/>
<path opacity="0.4" d="M658.3 295.326C701.038 268.682 730.192 238.261 723.418 227.378C716.644 216.494 676.507 229.271 633.768 255.914C591.03 282.558 561.876 312.979 568.65 323.862C575.424 334.746 615.562 321.969 658.3 295.326Z" fill="black"/>
<path opacity="0.2" d="M568.636 323.903C568.636 323.903 584.593 319.092 605.432 305.108C626.271 291.124 656.652 242.842 656.652 242.842C656.652 242.842 561.59 294.778 568.636 323.903Z" fill="black"/>
<path d="M74.712 262.997C74.7193 263.595 71.0303 264.258 64.9606 264.215C61.4083 264.157 57.8641 263.856 54.3529 263.314C45.7197 262.026 37.3188 259.492 29.4125 255.792C26.1903 254.293 23.0711 252.582 20.0756 250.669C14.9866 247.383 12.2876 244.735 12.6161 244.252C13.3651 243.123 25.7515 251.029 42.9247 256.117C60.0978 261.205 74.7184 261.644 74.712 262.997Z" fill="#7630A1"/>
<path d="M14.6424 232.98C16.3526 228.426 19.6203 224.625 23.865 222.254C24.226 225.128 25.2656 227.875 26.8978 230.267C28.5299 232.66 30.7077 234.629 33.2512 236.012C31.7236 232.047 30.8578 227.858 30.6885 223.612C30.5364 222.525 30.7659 221.419 31.3379 220.483C32.1683 219.649 33.2714 219.142 34.4448 219.056C39.1647 218.215 43.9603 217.877 48.7512 218.047C48.2548 221.624 48.6339 225.267 49.8559 228.664C51.0779 232.061 53.1062 235.11 55.7663 237.549C59.6039 241 64.5002 242.977 68.8931 245.695C73.2859 248.412 77.4056 252.376 78.0715 257.474L77.4972 262.915C66.3309 266.033 54.1758 263.976 43.6863 259.067C33.1968 254.157 24.1576 246.562 15.9115 238.422C15.1966 237.824 14.6367 237.061 14.2792 236.199C14.0563 235.115 14.1834 233.987 14.6424 232.98Z" fill="#7630A1"/>
<path d="M61.9175 254.333C64.4935 254.743 67.0285 255.378 69.4935 256.231C72.0391 256.811 74.528 257.617 76.9308 258.638C74.3128 258.489 71.7284 257.975 69.2519 257.113C66.6886 256.536 64.2195 255.6 61.9175 254.333Z" fill="#263238"/>
<path d="M44.2005 249.629C44.303 249.52 45.8021 250.776 48.5356 252.514C52.0493 254.769 55.8274 256.582 59.7846 257.912C63.7462 259.218 67.8507 260.042 72.0093 260.366C75.2084 260.603 77.2578 260.51 77.2369 260.666C76.7868 260.823 76.3128 260.902 75.8359 260.899C74.5582 261.015 73.2747 261.054 71.9924 261.014C63.4548 260.738 55.1848 257.969 48.2002 253.049C47.1204 252.318 46.0904 251.516 45.1168 250.648C44.5139 250.04 44.159 249.676 44.2005 249.629Z" fill="#263238"/>
<path d="M67.3833 249.34C69.4149 250.207 71.2833 251.415 72.9077 252.913C74.7066 254.183 76.277 255.749 77.5521 257.545C75.6781 256.416 73.9256 255.097 72.3226 253.607C70.5285 252.366 68.8727 250.935 67.3833 249.34Z" fill="#263238"/>
<path d="M354.93 277.326C354.725 276.777 354.48 276.245 354.196 275.733C354.475 270.007 330.098 218.381 330.098 218.381L133.208 297.142L156.442 352.041L156.58 352.059C165.393 367.726 213.712 365.021 266.932 345.474C321.905 325.301 361.311 294.756 354.93 277.326Z" fill="#263238"/>
<path d="M354.921 277.395C354.732 276.842 353.767 272.916 353.424 271.552C351.589 265.975 349.39 260.525 346.841 255.237C353.273 272.674 312.77 303.933 257.783 324.086C204.639 343.591 156.455 346.331 147.475 330.73L156.521 352.104L156.659 352.123C165.472 367.789 213.774 365.083 267.011 345.537C321.922 325.303 361.321 294.81 354.921 277.395Z" fill="#7630A1"/>
<g opacity="0.4">
<path d="M155.861 350.732L135.005 301.391L218.263 274.71C215.302 289.613 209.361 303.763 200.798 316.312C192.235 328.86 181.227 339.548 168.434 347.732C164.883 349.978 160.824 352.085 156.733 351.429" fill="black"/>
</g>
<g opacity="0.1">
<path d="M321.347 319.128C312.807 292.04 300.829 266.23 288.825 240.345L260.953 245.995L241.78 253.677L275.675 334.261C276.568 336.492 277.594 338.666 278.749 340.773C293.553 334.818 307.807 327.575 321.347 319.128Z" fill="white"/>
</g>
<path d="M92.4284 204.033L61.3966 315.47L64.2814 323.521L357.165 231.883L363.824 124.88L358.549 114.364L98.8188 197.39C97.2874 197.881 95.9017 198.745 94.7863 199.905C93.6709 201.065 92.8607 202.483 92.4284 204.033Z" fill="#263238"/>
<path opacity="0.1" d="M61.3966 315.47L92.4284 204.033C92.8607 202.483 93.6709 201.065 94.7863 199.905C95.9017 198.745 97.2874 197.881 98.8188 197.39L358.549 114.364L353.475 222.249L61.3966 315.47Z" fill="white"/>
<path d="M80.9756 262.381C97.8531 269.275 116.152 267.432 133.058 261.589C149.965 255.746 166.421 246.328 181.285 235.957C189.726 230.072 197.8 223.676 205.462 216.805C207.47 214.932 204.934 211.463 202.837 213.342C189.736 225.112 175.418 235.45 160.126 244.18C145.124 252.705 128.805 260.314 111.461 262.232C101.687 263.356 91.7879 262.024 82.6589 258.355C82.1284 258.128 81.5292 258.12 80.9932 258.335C80.4572 258.549 80.0282 258.968 79.8007 259.499C79.5733 260.03 79.5658 260.63 79.7801 261.166C79.9944 261.703 80.4129 262.132 80.9434 262.359L80.9756 262.381Z" fill="#7630A1"/>
<path opacity="0.3" d="M358.534 114.362L363.808 124.878L357.166 231.884L353.476 222.249L358.534 114.362Z" fill="white"/>
<g opacity="0.3">
<path d="M357.166 231.883C357.239 232.122 292.132 252.705 211.765 277.86C131.398 303.014 66.1699 323.195 66.0966 322.956C66.0233 322.718 131.093 302.147 211.497 276.98C291.901 251.813 357.095 231.628 357.166 231.883Z" fill="white"/>
</g>
<g opacity="0.3">
<path d="M215.074 214.269C209.849 217.08 206.303 222.156 202.832 226.943C182.218 254.851 161.291 275.828 131.297 293.195L167.194 281.807C179.344 269.032 206.646 236.964 215.074 214.269Z" fill="black"/>
</g>
<path d="M233.985 204.232C234.516 204.461 234.132 206.923 231.985 210.219C229.058 214.514 224.85 217.774 219.962 219.534C215.074 221.293 209.755 221.462 204.766 220.016C201.006 218.859 199.156 217.205 199.42 216.678C199.685 216.151 201.906 216.608 205.381 216.883C209.797 217.323 214.257 216.771 218.433 215.266C222.61 213.76 226.397 211.34 229.52 208.182C232.021 205.777 233.34 203.934 233.985 204.232Z" fill="#7630A1"/>
<path d="M232.598 204.484C233.909 208.579 227.599 214.232 218.604 217.134C209.609 220.035 201.123 219.033 199.812 214.938C198.502 210.843 204.812 205.19 213.893 202.3C222.974 199.41 231.306 200.391 232.598 204.484Z" fill="#263238"/>
<path d="M223.602 195.4C219.764 194.266 215.682 194.26 211.84 195.381C207.799 196.281 204.275 198.736 202.029 202.216C199.783 205.695 198.995 209.919 199.837 213.975L232.587 204.57C230.919 200.447 227.689 197.15 223.602 195.4Z" fill="#263238"/>
<path d="M89.4678 263.208C88.9797 264.796 88.0323 266.205 86.7454 267.255C85.4585 268.305 83.8896 268.951 82.2367 269.11C80.5838 269.269 78.9209 268.935 77.4579 268.149C75.9949 267.363 74.7973 266.161 74.0162 264.695C73.2351 263.229 72.9055 261.564 73.069 259.91C73.2325 258.256 73.8818 256.688 74.9349 255.403C75.988 254.118 77.3977 253.174 78.9863 252.69C80.5749 252.206 82.271 252.203 83.8608 252.683C84.9213 253.002 85.9082 253.529 86.7646 254.232C87.6211 254.935 88.3302 255.8 88.8513 256.778C89.3723 257.756 89.695 258.828 89.8008 259.931C89.9067 261.035 89.7935 262.148 89.4678 263.208Z" fill="#7630A1"/>
<path d="M89.4675 263.208C89.4675 263.208 89.5698 262.448 89.7417 261.171C89.7773 259.322 89.1993 257.514 88.0984 256.029C87.2226 254.831 86.031 253.899 84.6567 253.339C83.2824 252.779 81.7795 252.612 80.3157 252.857C78.852 253.103 77.4852 253.75 76.3678 254.728C75.2504 255.705 74.4264 256.974 73.9879 258.393C73.5495 259.812 73.5137 261.325 73.8847 262.763C74.2557 264.201 75.0187 265.507 76.0887 266.536C77.1587 267.565 78.4935 268.276 79.944 268.589C81.3945 268.903 82.9036 268.807 84.3028 268.312C86.0468 267.707 87.5427 266.543 88.5589 265.001C89.2688 263.902 89.4722 263.173 89.5538 263.22C89.6354 263.266 89.5305 263.392 89.4818 263.755C89.3455 264.257 89.1389 264.738 88.868 265.183C87.9148 266.9 86.3871 268.225 84.5539 268.926C83.3937 269.276 82.1731 269.38 80.9704 269.232C79.7678 269.083 78.6094 268.684 77.5697 268.061C76.53 267.439 75.6318 266.605 74.9326 265.615C74.2334 264.624 73.7488 263.499 73.5096 262.31C73.2704 261.121 73.2821 259.895 73.5438 258.711C73.8055 257.527 74.3115 256.41 75.0294 255.433C75.7472 254.456 76.6611 253.639 77.7125 253.036C78.7639 252.432 79.9296 252.055 81.1349 251.929C82.5989 251.869 84.0543 252.179 85.3662 252.832C86.6781 253.485 87.8039 254.459 88.6394 255.663C89.7583 257.256 90.2809 259.193 90.1155 261.134C90.0848 261.653 89.9803 262.166 89.8052 262.656C89.577 263.047 89.502 263.213 89.4675 263.208Z" fill="#263238"/>
<defs>
<filter id="filter0_i_465_797" x="51.6709" y="43.9189" width="744.252" height="614.367" filterUnits="userSpaceOnUse" color-interpolation-filters="sRGB">
<feFlood flood-opacity="0" result="BackgroundImageFix"/>
<feBlend mode="normal" in="SourceGraphic" in2="BackgroundImageFix" result="shape"/>
<feColorMatrix in="SourceAlpha" type="matrix" values="0 0 0 0 0 0 0 0 0 0 0 0 0 0 0 0 0 0 127 0" result="hardAlpha"/>
<feOffset dy="4"/>
<feGaussianBlur stdDeviation="10"/>
<feComposite in2="hardAlpha" operator="arithmetic" k2="-1" k3="1"/>
<feColorMatrix type="matrix" values="0 0 0 0 0 0 0 0 0 0 0 0 0 0 0 0 0 0 0.25 0"/>
<feBlend mode="normal" in2="shape" result="effect1_innerShadow_465_797"/>
</filter>
<linearGradient id="paint0_linear_465_797" x1="743.272" y1="719.069" x2="220.806" y2="-79.9509" gradientUnits="userSpaceOnUse">
<stop stop-color="#FF9900"/>
<stop offset="1" stop-color="#FF5C00"/>
</linearGradient>
<clipPath id="clip0_465_797">
<rect width="731" height="711" fill="white" transform="translate(126.423 11.7461)"/>
</clipPath>
</defs>
</svg>
