<svg width="55" height="55" viewBox="0 0 55 55" fill="none" xmlns="http://www.w3.org/2000/svg">
<g id="Odnoklassniki (OK)">
<rect id="Rectangle" width="55" height="55" rx="27.5" fill="#EE8208"/>
<path id="Vector" d="M27.4999 14.7128C29.6606 14.7128 31.418 16.4702 31.418 18.6309C31.418 20.7897 29.6601 22.5471 27.4999 22.5471C25.3407 22.5471 23.5828 20.7897 23.5828 18.6309C23.5823 16.4698 25.3411 14.7128 27.4999 14.7128ZM27.4999 28.0904C32.7189 28.0904 36.9631 23.8476 36.9631 18.6309C36.9631 13.4114 32.7194 9.16675 27.4999 9.16675C22.2814 9.16675 18.0367 13.4119 18.0367 18.6309C18.0367 23.8476 22.2814 28.0904 27.4999 28.0904ZM31.3283 35.8093C33.2751 35.3659 35.1329 34.5967 36.8232 33.5341C37.4455 33.1426 37.8867 32.5199 38.0499 31.803C38.2131 31.0862 38.0848 30.3339 37.6933 29.7116C37.4997 29.4031 37.2472 29.1359 36.9502 28.9252C36.6532 28.7144 36.3176 28.5643 35.9625 28.4833C35.6074 28.4024 35.2399 28.3922 34.8809 28.4534C34.5219 28.5147 34.1785 28.646 33.8703 28.8401C29.9935 31.2775 25.0037 31.2756 21.13 28.8401C20.8219 28.646 20.4785 28.5146 20.1195 28.4533C19.7606 28.3921 19.3931 28.4022 19.038 28.4832C18.683 28.5641 18.3474 28.7143 18.0504 28.9251C17.7535 29.1358 17.501 29.4031 17.3075 29.7116C16.9159 30.3337 16.7874 31.0859 16.9503 31.8027C17.1132 32.5196 17.5542 33.1424 18.1762 33.5341C19.8664 34.5963 21.7239 35.3655 23.6702 35.8093L18.3801 41.1003C17.8602 41.6204 17.5682 42.3256 17.5683 43.061C17.5685 43.7963 17.8607 44.5015 18.3808 45.0213C18.9008 45.5412 19.6061 45.8332 20.3414 45.8331C21.0768 45.8329 21.7819 45.5407 22.3018 45.0207L27.499 39.8225L32.6995 45.0211C32.9566 45.2786 33.262 45.4829 33.5981 45.6223C33.9343 45.7617 34.2946 45.8334 34.6585 45.8334C35.0224 45.8334 35.3827 45.7617 35.7189 45.6223C36.055 45.4829 36.3604 45.2786 36.6175 45.0211C36.8754 44.764 37.08 44.4585 37.2197 44.1222C37.3593 43.7859 37.4311 43.4253 37.4311 43.0612C37.4311 42.697 37.3593 42.3364 37.2197 42.0001C37.08 41.6638 36.8754 41.3583 36.6175 41.1012L31.3283 35.8093Z" fill="white"/>
</g>
</svg>
