<svg width="56" height="55" viewBox="0 0 56 55" fill="none" xmlns="http://www.w3.org/2000/svg">
<g clip-path="url(#clip0_465_1258)">
<path d="M28 55C43.464 55 56 42.6878 56 27.5C56 12.3122 43.464 0 28 0C12.536 0 0 12.3122 0 27.5C0 42.6878 12.536 55 28 55Z" fill="url(#paint0_linear_465_1258)"/>
<path fill-rule="evenodd" clip-rule="evenodd" d="M12.6744 27.2097C20.837 23.7169 26.28 21.4142 29.0034 20.3017C36.7793 17.1252 38.395 16.5734 39.4482 16.5552C39.6798 16.5512 40.1977 16.6076 40.5332 16.8749C40.8165 17.1007 40.8944 17.4056 40.9317 17.6197C40.969 17.8337 41.0154 18.3213 40.9785 18.7022C40.5571 23.0506 38.7338 33.603 37.8062 38.4733C37.4137 40.5341 36.6409 41.2251 35.8927 41.2927C34.2667 41.4397 33.032 40.2373 31.4571 39.2234C28.9927 37.6368 27.6005 36.6492 25.2084 35.101C22.444 33.3118 24.236 32.3284 25.8115 30.7212C26.2238 30.3007 33.3881 23.9006 33.5267 23.32C33.5441 23.2474 33.5602 22.9767 33.3965 22.8338C33.2327 22.6909 32.9911 22.7398 32.8167 22.7786C32.5696 22.8337 28.6327 25.3894 21.0062 30.4456C19.8887 31.1992 18.8765 31.5664 17.9697 31.5472C16.9699 31.5259 15.0468 30.992 13.6172 30.5356C11.8637 29.9757 10.47 29.6798 10.5914 28.729C10.6546 28.2338 11.3489 27.7274 12.6744 27.2097Z" fill="white"/>
</g>
<defs>
<linearGradient id="paint0_linear_465_1258" x1="28" y1="0" x2="28" y2="54.5921" gradientUnits="userSpaceOnUse">
<stop stop-color="#2CA4E0"/>
<stop offset="1" stop-color="#0D83BF"/>
</linearGradient>
<clipPath id="clip0_465_1258">
<rect width="56" height="55" fill="white"/>
</clipPath>
</defs>
</svg>
