<svg width="54" height="55" viewBox="0 0 54 55" fill="none" xmlns="http://www.w3.org/2000/svg">
<rect width="54" height="55" rx="27" fill="#675DA9"/>
<path d="M40.2227 13.9614C39.3296 13.1251 35.7139 10.4474 27.6542 10.4107C27.6542 10.4107 18.1539 9.82386 13.5226 14.1521C10.944 16.7784 10.0365 20.6151 9.94288 25.3836C9.84924 30.1446 9.7268 39.0726 18.1755 41.4934H18.1827L18.1755 45.1835C18.1755 45.1835 18.1251 46.68 19.0902 46.9808C20.257 47.3476 20.9485 46.2105 22.0649 44.9854C22.6771 44.3105 23.5198 43.3274 24.1609 42.5718C29.9374 43.0634 34.3814 41.9336 34.8856 41.7649C36.0524 41.3761 42.6572 40.5178 43.7304 31.5898C44.8396 22.4051 43.1902 16.5877 40.2227 13.9614ZM41.2023 30.9443C40.2948 38.3976 34.9432 38.8671 33.9565 39.1899C33.5387 39.3293 29.6349 40.3197 24.7227 39.9896C24.7227 39.9896 21.0637 44.4865 19.9257 45.653C19.7457 45.8364 19.5368 45.9097 19.3999 45.873C19.2055 45.8217 19.1478 45.5869 19.155 45.2421C19.155 44.7433 19.1839 39.1019 19.1839 39.1019C19.1767 39.1019 19.1767 39.1019 19.1839 39.1019C12.0316 37.0845 12.4494 29.4844 12.5286 25.5083C12.6079 21.5321 13.3425 18.2676 15.5249 16.0741C19.4359 12.4648 27.5101 13.0004 27.5101 13.0004C34.3238 13.0297 37.5866 15.1205 38.3429 15.8174C40.8566 18.0182 42.1387 23.2634 41.2023 30.9443Z" fill="white"/>
<path d="M30.9745 25.6477C30.7368 25.6477 30.5351 25.457 30.5207 25.2076C30.4415 23.6303 29.714 22.8601 28.2303 22.7794C27.9782 22.7647 27.7837 22.5446 27.7981 22.2879C27.8125 22.0311 28.0286 21.833 28.2807 21.8477C30.2398 21.9577 31.3346 23.1021 31.4354 25.1562C31.4499 25.413 31.2554 25.6331 31.0033 25.6404C30.9889 25.6477 30.9817 25.6477 30.9745 25.6477Z" fill="white"/>
<path d="M33.3081 26.4401H33.3009C33.0489 26.4328 32.8472 26.22 32.8544 25.9633C32.8904 24.3787 32.4438 23.0949 31.4931 22.0385C30.5495 20.9821 29.2459 20.4099 27.5244 20.2852C27.2723 20.2632 27.0851 20.0431 27.1067 19.7863C27.1283 19.5296 27.3444 19.3389 27.5965 19.3609C29.5412 19.5076 31.0753 20.1972 32.1701 21.4149C33.2721 22.6401 33.8051 24.1733 33.7691 25.9853C33.7619 26.242 33.553 26.4401 33.3081 26.4401Z" fill="white"/>
<path d="M35.6992 27.3935C35.4472 27.3935 35.2455 27.1881 35.2455 26.9314C35.2239 24.0923 34.4244 21.9282 32.7966 20.3069C31.1904 18.7077 29.152 17.8934 26.7536 17.8714C26.5015 17.8714 26.2998 17.6586 26.2998 17.4019C26.2998 17.1451 26.5087 16.9397 26.7536 16.9397C29.3969 16.9617 31.6442 17.864 33.4232 19.6394C35.2095 21.4147 36.1242 23.8649 36.153 26.9167C36.1602 27.1808 35.9585 27.3935 35.6992 27.3935C35.7064 27.3935 35.7064 27.3935 35.6992 27.3935Z" fill="white"/>
<path d="M28.3385 31.3917C28.3385 31.3917 28.9795 31.4504 29.3253 31.0176L29.9951 30.1593C30.3192 29.7338 31.1043 29.4623 31.8678 29.8952C32.2927 30.1373 33.0634 30.6214 33.5388 30.9809C34.0502 31.3624 35.0874 32.2427 35.0946 32.25C35.5916 32.6755 35.7068 33.2991 35.3683 33.9667C35.3683 33.9667 35.3683 33.974 35.3683 33.9813C35.0225 34.6049 34.5544 35.1918 33.971 35.7346C33.9638 35.7346 33.9638 35.742 33.9566 35.742C33.474 36.1528 32.9986 36.3875 32.5376 36.4389C32.48 36.4536 32.4152 36.4536 32.3288 36.4536C32.1271 36.4536 31.9254 36.4242 31.7237 36.3582L31.7093 36.3362C30.9891 36.1308 29.7934 35.6173 27.8055 34.4949C26.509 33.7686 25.4358 33.0276 24.5211 32.2867C24.0385 31.8979 23.5488 31.4651 23.0446 30.9516C23.0302 30.9369 23.0086 30.9149 22.9941 30.9002C22.9797 30.8855 22.9581 30.8635 22.9437 30.8488C22.9293 30.8342 22.9077 30.8122 22.8933 30.7975C22.8789 30.7828 22.8573 30.7608 22.8429 30.7461C22.3459 30.2326 21.9138 29.7338 21.532 29.2423C20.8045 28.3179 20.0771 27.2175 19.364 25.897C18.262 23.865 17.7578 22.6472 17.5562 21.9209L17.5346 21.9062C17.4697 21.7008 17.4409 21.4954 17.4409 21.29C17.4409 21.202 17.4409 21.136 17.4553 21.0773C17.5129 20.6004 17.7434 20.1236 18.1396 19.6321C18.1396 19.6247 18.1468 19.6247 18.1468 19.6174C18.6798 19.0159 19.256 18.5464 19.8682 18.1942C19.8682 18.1942 19.8754 18.1942 19.8826 18.1942C20.5308 17.8494 21.1431 17.9668 21.568 18.473C21.568 18.473 22.4395 19.5367 22.8141 20.0576C23.167 20.5491 23.6424 21.3267 23.8801 21.7595C24.305 22.5371 24.0385 23.3368 23.6208 23.6669L22.7781 24.3491C22.3531 24.7013 22.4107 25.3542 22.4107 25.3542C22.4107 25.3542 23.6568 30.1813 28.3385 31.3917Z" fill="white"/>
</svg>
