<svg width="54" height="55" viewBox="0 0 54 55" fill="none" xmlns="http://www.w3.org/2000/svg">
<g clip-path="url(#clip0_465_1257)">
<path d="M0 26.4C0 13.9549 0 7.73238 3.7959 3.86619C7.59179 0 13.7012 0 25.92 0H28.08C40.2988 0 46.4082 0 50.2041 3.86619C54 7.73238 54 13.9549 54 26.4V28.6C54 41.0451 54 47.2676 50.2041 51.1338C46.4082 55 40.2988 55 28.08 55H25.92C13.7012 55 7.59179 55 3.7959 51.1338C0 47.2676 0 41.0451 0 28.6V26.4Z" fill="#0077FF"/>
<path d="M28.6399 39.6C16.0941 39.6 8.9383 30.9288 8.64014 16.5H14.9245C15.1309 27.0904 19.7638 31.5763 23.4335 32.5012V16.5H29.3512V25.6336C32.975 25.2405 36.7819 21.0784 38.0663 16.5H43.9838C42.9975 22.142 38.8691 26.3042 35.9334 28.0153C38.8691 29.4027 43.5712 33.033 45.3601 39.6H38.8462C37.4471 35.2066 33.9612 31.8075 29.3512 31.345V39.6H28.6399Z" fill="white"/>
</g>
<defs>
<clipPath id="clip0_465_1257">
<rect width="54" height="55" fill="white"/>
</clipPath>
</defs>
</svg>
