<svg width="55" height="55" viewBox="0 0 55 55" fill="none" xmlns="http://www.w3.org/2000/svg">
<g clip-path="url(#clip0_465_1259)">
<path d="M0 26.4C0 13.9549 0 7.73238 3.86619 3.86619C7.73238 0 13.9549 0 26.4 0H28.6C41.0451 0 47.2676 0 51.1338 3.86619C55 7.73238 55 13.9549 55 26.4V28.6C55 41.0451 55 47.2676 51.1338 51.1338C47.2676 55 41.0451 55 28.6 55H26.4C13.9549 55 7.73238 55 3.86619 51.1338C0 47.2676 0 41.0451 0 28.6V26.4Z" fill="url(#paint0_linear_465_1259)"/>
<path d="M20.2407 38.479L20.7442 38.7279C22.8425 39.9721 25.1923 40.5528 27.5422 40.5528C34.9276 40.5528 40.9702 34.5802 40.9702 27.2804C40.9702 23.7964 39.5434 20.3953 37.0258 17.9067C34.508 15.4181 31.1509 14.0079 27.5422 14.0079C20.1569 14.0079 14.1142 19.9805 14.1981 27.3634C14.1981 29.8519 14.9535 32.2576 16.2123 34.3313L16.548 34.8291L15.2053 39.7233L20.2407 38.479Z" fill="#31D652"/>
<path d="M38.4524 16.5794C35.599 13.6762 31.6545 12.1 27.6261 12.1C19.0659 12.1 12.184 18.9851 12.2678 27.3632C12.2678 30.0178 13.0232 32.5894 14.2821 34.912L12.1 42.7925L20.2407 40.7187C22.5067 41.963 25.0243 42.5437 27.5422 42.5437C36.0186 42.5437 42.9005 35.6586 42.9005 27.2805C42.9005 23.2157 41.3057 19.3998 38.4524 16.5794ZM27.6261 39.9722C25.3601 39.9722 23.0942 39.3917 21.1639 38.2303L20.6604 37.9814L15.7928 39.2256L17.0516 34.4974L16.7159 33.9996C13.0232 28.1101 14.7856 20.3123 20.8282 16.6623C26.8708 13.0125 34.6758 14.7545 38.3686 20.7271C42.0612 26.6997 40.2987 34.4143 34.2563 38.0643C32.3259 39.3085 29.976 39.9722 27.6261 39.9722ZM35.0115 30.7646L34.0883 30.3498C34.0883 30.3498 32.7456 29.7691 31.9063 29.3543C31.8223 29.3543 31.7385 29.2713 31.6545 29.2713C31.4027 29.2713 31.2349 29.3543 31.067 29.4373C31.067 29.4373 30.9832 29.5202 29.8082 30.8475C29.7242 31.0133 29.5564 31.0963 29.3885 31.0963H29.3046C29.2207 31.0963 29.0529 31.0133 28.9689 30.9305L28.5492 30.7646C27.6261 30.3498 26.7869 29.852 26.1154 29.1884C25.9476 29.0225 25.6958 28.8566 25.528 28.6907C24.9405 28.1101 24.353 27.4464 23.9335 26.6998L23.8495 26.5339C23.7656 26.4509 23.7656 26.368 23.6816 26.2021C23.6816 26.0362 23.6816 25.8703 23.7656 25.7873C23.7656 25.7873 24.1013 25.3725 24.353 25.1238C24.5209 24.9578 24.6048 24.709 24.7726 24.5431C24.9405 24.2942 25.0245 23.9624 24.9405 23.7135C24.8566 23.2987 23.8495 21.059 23.5978 20.5613C23.4298 20.3124 23.2621 20.2295 23.0103 20.1465H22.0871C21.9192 20.1465 21.7515 20.2295 21.5835 20.2295L21.4995 20.3124C21.3317 20.3954 21.1639 20.5613 20.996 20.6442C20.8282 20.8102 20.7442 20.976 20.5764 21.142C19.9889 21.8886 19.6532 22.801 19.6532 23.7135C19.6532 24.3771 19.8211 25.0408 20.0729 25.6214L20.1568 25.8703C20.9122 27.4464 21.9192 28.8566 23.2621 30.1009L23.5978 30.4327C23.8495 30.6816 24.1013 30.8474 24.2691 31.0962C26.0316 32.5895 28.0457 33.6678 30.3117 34.2485C30.5635 34.3314 30.8992 34.3314 31.151 34.4144H31.9902C32.4098 34.4144 32.9133 34.2485 33.2491 34.0826C33.5008 33.9167 33.6687 33.9167 33.8365 33.7509L34.0045 33.5848C34.1723 33.419 34.3401 33.3361 34.508 33.1702C34.6758 33.0043 34.8436 32.8384 34.9276 32.6724C35.0954 32.3406 35.1793 31.9258 35.2633 31.5111V30.9305C35.2633 30.9305 35.1793 30.8474 35.0115 30.7646Z" fill="white"/>
</g>
<defs>
<linearGradient id="paint0_linear_465_1259" x1="27.5" y1="0" x2="27.5" y2="55" gradientUnits="userSpaceOnUse">
<stop stop-color="#42E760"/>
<stop offset="0.765625" stop-color="#29CB4A"/>
</linearGradient>
<clipPath id="clip0_465_1259">
<rect width="55" height="55" fill="white"/>
</clipPath>
</defs>
</svg>
