<svg width="103" height="21" viewBox="0 0 103 21" fill="none" xmlns="http://www.w3.org/2000/svg">
<path d="M7.39321 0.724152C9.94564 0.724152 12.0755 1.64605 13.783 3.48987C15.5081 5.31543 16.3707 7.58827 16.3707 10.3083C16.3707 13.0284 15.5081 15.3104 13.783 17.1542C12.0755 18.9798 9.94564 19.8925 7.39321 19.8925H0V0.724152H7.39321ZM7.39321 15.6755C8.85422 15.6755 10.0336 15.1917 10.9314 14.2242C11.8468 13.2384 12.3044 11.9331 12.3044 10.3083C12.3044 8.68361 11.8468 7.38744 10.9314 6.41989C10.0336 5.43409 8.85422 4.94119 7.39321 4.94119H4.22469V15.6755H7.39321ZM28.1987 6.20083H32.1594V19.8925H28.1987V18.6055C27.2658 19.7191 25.9544 20.2759 24.2645 20.2759C22.5218 20.2759 21.0344 19.5822 19.8022 18.1947C18.57 16.7891 17.9539 15.073 17.9539 13.0467C17.9539 11.0203 18.57 9.31343 19.8022 7.92598C21.0344 6.5203 22.5218 5.81746 24.2645 5.81746C25.9544 5.81746 27.2658 6.37425 28.1987 7.48784V6.20083ZM22.7859 15.4838C23.3668 16.0862 24.1237 16.3874 25.0566 16.3874C25.9896 16.3874 26.7465 16.0862 27.3274 15.4838C27.9083 14.8814 28.1987 14.069 28.1987 13.0467C28.1987 12.0244 27.9083 11.212 27.3274 10.6095C26.7465 10.0071 25.9896 9.7059 25.0566 9.7059C24.1237 9.7059 23.3668 10.0071 22.7859 10.6095C22.205 11.212 21.9145 12.0244 21.9145 13.0467C21.9145 14.069 22.205 14.8814 22.7859 15.4838ZM42.8016 10.144H40.0819V14.9909C40.0819 15.5386 40.2932 15.8854 40.7156 16.0315C41.1381 16.1775 41.8334 16.2231 42.8016 16.1684V19.8925C40.2844 20.1663 38.5417 19.9199 37.5735 19.1532C36.6053 18.3681 36.1213 16.9808 36.1213 14.9909V10.144H34.0089V6.20083H36.1213V3.59941L40.0819 2.36715V6.20083H42.8016V10.144ZM54.371 6.20083H58.3317V19.8925H54.371V18.6055C53.438 19.7191 52.1267 20.2759 50.4368 20.2759C48.6941 20.2759 47.2066 19.5822 45.9744 18.1947C44.7422 16.7891 44.1262 15.073 44.1262 13.0467C44.1262 11.0203 44.7422 9.31343 45.9744 7.92598C47.2066 6.5203 48.6941 5.81746 50.4368 5.81746C52.1267 5.81746 53.438 6.37425 54.371 7.48784V6.20083ZM48.9581 15.4838C49.539 16.0862 50.2959 16.3874 51.2289 16.3874C52.1618 16.3874 52.9188 16.0862 53.4997 15.4838C54.0806 14.8814 54.371 14.069 54.371 13.0467C54.371 12.0244 54.0806 11.212 53.4997 10.6095C52.9188 10.0071 52.1618 9.7059 51.2289 9.7059C50.2959 9.7059 49.539 10.0071 48.9581 10.6095C48.3772 11.212 48.0868 12.0244 48.0868 13.0467C48.0868 14.069 48.3772 14.8814 48.9581 15.4838ZM65.5941 15.6755H72.1953V19.8925H61.3694V0.724152H65.5941V15.6755ZM74.0562 0.724152H78.2808V19.8925H74.0562V0.724152ZM92.9154 9.95235C94.4297 10.9564 95.1862 12.3986 95.1862 14.2789C95.1862 15.9402 94.6146 17.2911 93.4699 18.3317C92.326 19.3722 90.9087 19.8925 89.2188 19.8925H81.456V0.724152H88.6908C90.3456 0.724152 91.7272 1.23531 92.8362 2.25762C93.963 3.26167 94.5261 4.57608 94.5261 6.20083C94.5261 7.73429 93.9894 8.98482 92.9154 9.95235ZM88.6908 4.83166H85.6807V8.2272H88.6908C89.166 8.2272 89.5535 8.072 89.8525 7.76168C90.1522 7.43308 90.3014 7.02233 90.3014 6.52943C90.3014 6.03653 90.1522 5.6349 89.8525 5.32456C89.5535 4.99596 89.166 4.83166 88.6908 4.83166ZM89.2188 15.785C89.7469 15.785 90.1694 15.6207 90.4862 15.2921C90.8031 14.9452 90.9615 14.498 90.9615 13.9503C90.9615 13.4027 90.8031 12.9645 90.4862 12.6359C90.1694 12.289 89.7469 12.1156 89.2188 12.1156H85.6807V15.785H89.2188Z" fill="#023083"/>
</svg>
