<svg width="103" height="21" viewBox="0 0 103 21" fill="none" xmlns="http://www.w3.org/2000/svg">
<path d="M7.39321 0.724121C9.94564 0.724121 12.0755 1.64602 13.783 3.48984C15.5081 5.3154 16.3707 7.58824 16.3707 10.3083C16.3707 13.0284 15.5081 15.3104 13.783 17.1541C12.0755 18.9797 9.94564 19.8925 7.39321 19.8925H0V0.724121H7.39321ZM7.39321 15.6754C8.85422 15.6754 10.0336 15.1916 10.9314 14.2241C11.8468 13.2383 12.3044 11.933 12.3044 10.3083C12.3044 8.68358 11.8468 7.38741 10.9314 6.41986C10.0336 5.43406 8.85422 4.94116 7.39321 4.94116H4.22469V15.6754H7.39321ZM28.1987 6.2008H32.1594V19.8925H28.1987V18.6055C27.2658 19.7191 25.9544 20.2758 24.2645 20.2758C22.5218 20.2758 21.0344 19.5822 19.8022 18.1947C18.57 16.7891 17.9539 15.073 17.9539 13.0466C17.9539 11.0203 18.57 9.31339 19.8022 7.92595C21.0344 6.52027 22.5218 5.81743 24.2645 5.81743C25.9544 5.81743 27.2658 6.37422 28.1987 7.48781V6.2008ZM22.7859 15.4838C23.3668 16.0862 24.1237 16.3874 25.0566 16.3874C25.9896 16.3874 26.7465 16.0862 27.3274 15.4838C27.9083 14.8813 28.1987 14.0689 28.1987 13.0466C28.1987 12.0243 27.9083 11.212 27.3274 10.6095C26.7465 10.0071 25.9896 9.70587 25.0566 9.70587C24.1237 9.70587 23.3668 10.0071 22.7859 10.6095C22.205 11.212 21.9145 12.0243 21.9145 13.0466C21.9145 14.0689 22.205 14.8813 22.7859 15.4838ZM42.8016 10.144H40.0819V14.9909C40.0819 15.5385 40.2932 15.8854 40.7156 16.0314C41.1381 16.1774 41.8334 16.2231 42.8016 16.1683V19.8925C40.2844 20.1663 38.5417 19.9199 37.5735 19.1531C36.6053 18.3681 36.1213 16.9807 36.1213 14.9909V10.144H34.0089V6.2008H36.1213V3.59938L40.0819 2.36712V6.2008H42.8016V10.144ZM54.371 6.2008H58.3317V19.8925H54.371V18.6055C53.438 19.7191 52.1267 20.2758 50.4368 20.2758C48.6941 20.2758 47.2066 19.5822 45.9744 18.1947C44.7422 16.7891 44.1262 15.073 44.1262 13.0466C44.1262 11.0203 44.7422 9.31339 45.9744 7.92595C47.2066 6.52027 48.6941 5.81743 50.4368 5.81743C52.1267 5.81743 53.438 6.37422 54.371 7.48781V6.2008ZM48.9581 15.4838C49.539 16.0862 50.2959 16.3874 51.2289 16.3874C52.1618 16.3874 52.9188 16.0862 53.4997 15.4838C54.0806 14.8813 54.371 14.0689 54.371 13.0466C54.371 12.0243 54.0806 11.212 53.4997 10.6095C52.9188 10.0071 52.1618 9.70587 51.2289 9.70587C50.2959 9.70587 49.539 10.0071 48.9581 10.6095C48.3772 11.212 48.0868 12.0243 48.0868 13.0466C48.0868 14.0689 48.3772 14.8813 48.9581 15.4838ZM65.5941 15.6754H72.1953V19.8925H61.3694V0.724121H65.5941V15.6754ZM74.0562 0.724121H78.2808V19.8925H74.0562V0.724121ZM92.9154 9.95232C94.4297 10.9564 95.1862 12.3985 95.1862 14.2789C95.1862 15.9402 94.6146 17.2911 93.4699 18.3316C92.326 19.3722 90.9087 19.8925 89.2188 19.8925H81.456V0.724121H88.6908C90.3456 0.724121 91.7272 1.23528 92.8362 2.25759C93.963 3.26164 94.5261 4.57605 94.5261 6.2008C94.5261 7.73426 93.9894 8.98479 92.9154 9.95232ZM88.6908 4.83163H85.6807V8.22716H88.6908C89.166 8.22716 89.5535 8.07197 89.8525 7.76165C90.1522 7.43305 90.3014 7.0223 90.3014 6.5294C90.3014 6.0365 90.1522 5.63487 89.8525 5.32453C89.5535 4.99593 89.166 4.83163 88.6908 4.83163ZM89.2188 15.785C89.7469 15.785 90.1694 15.6207 90.4862 15.2921C90.8031 14.9452 90.9615 14.498 90.9615 13.9503C90.9615 13.4026 90.8031 12.9645 90.4862 12.6359C90.1694 12.289 89.7469 12.1156 89.2188 12.1156H85.6807V15.785H89.2188Z" fill="white"/>
</svg>
