<svg width="69" height="42" viewBox="0 0 69 42" fill="none" xmlns="http://www.w3.org/2000/svg">
<path d="M17.4334 0C23.3465 0 28.2808 2.02 32.2365 6.06001C36.2329 10.06 38.2311 15.04 38.2311 21C38.2311 26.96 36.2329 31.96 32.2365 36C28.2808 40 23.3465 42 17.4334 42H0V0H17.4334ZM17.4334 31.62C20.4103 31.62 22.8367 30.66 24.7126 28.74C26.5884 26.78 27.5264 24.2 27.5264 21C27.5264 17.8 26.5884 15.24 24.7126 13.32C22.8367 11.36 20.4103 10.38 17.4334 10.38H11.2552V31.62H17.4334ZM54.2583 31.62H69V42H43.3087V0H54.2583V31.62Z" fill="white"/>
</svg>
