<svg width="111" height="40" viewBox="0 0 111 40" fill="none" xmlns="http://www.w3.org/2000/svg">
<path d="M32.4003 32.3293C32.6473 32.1161 32.9661 32.0042 33.2925 32.0159C33.6188 32.0277 33.9286 32.1623 34.1596 32.3928C34.3905 32.6232 34.5254 32.9323 34.5372 33.258C34.549 33.5836 34.4368 33.9017 34.2231 34.1481C30.4614 37.8945 25.3637 39.9986 20.0489 39.9986C14.734 39.9986 9.63632 37.8945 5.87462 34.1481C4.01224 32.2914 2.53482 30.0866 1.52683 27.6598C0.518826 25.2331 0 22.6319 0 20.0049C0 17.378 0.518826 14.7768 1.52683 12.35C2.53482 9.92327 4.01224 7.7185 5.87462 5.86174C7.73545 4.00344 9.94506 2.52927 12.3772 1.52348C14.8093 0.517689 17.4162 0 20.0489 0C22.6816 0 25.2885 0.517689 27.7206 1.52348C30.1527 2.52927 32.3623 4.00344 34.2231 5.86174C34.3574 5.97765 34.4663 6.11993 34.5431 6.27971C34.6198 6.43948 34.6627 6.61332 34.6691 6.79038C34.6755 6.96744 34.6453 7.14391 34.5803 7.3088C34.5154 7.47368 34.417 7.62343 34.2915 7.74871C34.1659 7.87399 34.0158 7.97211 33.8506 8.03695C33.6853 8.10178 33.5085 8.13194 33.331 8.12554C33.1536 8.11915 32.9794 8.07633 32.8192 7.99977C32.6591 7.9232 32.5165 7.81453 32.4003 7.68054C30.7802 6.05867 28.8553 4.77181 26.7357 3.89376C24.6162 3.01571 22.3438 2.56373 20.0489 2.56373C17.7539 2.56373 15.4816 3.01571 13.362 3.89376C11.2425 4.77181 9.31751 6.05867 7.69741 7.68054C6.07522 9.29891 4.78841 11.2203 3.91047 13.3349C3.03254 15.4495 2.58067 17.716 2.58067 20.0049C2.58067 22.2938 3.03254 24.5603 3.91047 26.675C4.78841 28.7896 6.07522 30.711 7.69741 32.3293C9.31933 33.948 11.2449 35.232 13.3642 36.108C15.4835 36.984 17.7549 37.4349 20.0489 37.4349C22.3428 37.4349 24.6143 36.984 26.7336 36.108C28.8528 35.232 30.7784 33.948 32.4003 32.3293Z" fill="#FAF9FF"/>
<path d="M25.3267 14.0461V25.8954H27.8704V21.9999H29.802C32.6722 21.9999 34.9303 21.0905 34.9303 18.023C34.9303 14.9555 32.645 14.0461 29.802 14.0461H25.3267ZM32.3322 18.023C32.3322 19.3803 31.2303 19.7739 29.9245 19.7739H27.8704V16.2856H29.9245C31.2847 16.2856 32.3322 16.625 32.3322 18.023ZM39.1336 25.8954V21.7149H41.0108L44.2075 25.7868H47.1458L43.5954 21.3213C44.3612 21.1414 45.0421 20.7052 45.5248 20.0853C46.0074 19.4654 46.2627 18.6993 46.248 17.9144C46.248 14.9147 43.8403 14.0461 41.5414 14.0461H36.6443V25.8954H39.1336ZM39.1336 16.2856H41.623C42.6976 16.2856 43.6226 16.7471 43.6226 17.9551C43.6226 19.1631 42.6976 19.6382 41.623 19.6382H39.1609V16.2856H39.1336ZM51.8116 17.1815C51.8116 21.3755 58.3002 20.5476 58.3002 22.7736C58.3002 23.6151 57.4568 23.9001 56.0829 23.9001C54.5893 23.9048 53.1274 23.4705 51.8796 22.6514V25.0674C53.2302 25.7887 54.7416 26.1575 56.2733 26.1397C58.7627 26.1397 60.8983 25.3118 60.8983 22.6514C60.8983 18.4302 54.4097 19.1903 54.4097 17.1543C54.4097 16.4214 55.0491 16.0685 56.3414 16.0549C57.6414 16.0064 58.9231 16.3725 60.0006 17.1V14.7247C58.8115 14.1112 57.4895 13.7989 56.1509 13.8153C53.8112 13.8153 51.8116 14.9012 51.8116 17.1815ZM73.1002 14.0461L69.0193 20.2083L64.9384 14.0461H62.6395V25.8954H65.1833V18.5931L68.3256 23.3572H69.7947L72.9369 18.6066V25.8954H75.4807V14.0461H73.1002ZM79.3983 25.8954L80.2553 23.683H85.6965L86.5671 25.8954H89.2333L84.4042 14.0461H81.6156L76.7594 25.8954H79.3983ZM82.7311 17.3308C82.858 17.0349 82.9493 16.7251 83.0031 16.4078C83.0569 16.7221 83.1389 17.031 83.248 17.3308L84.9211 21.5791H81.1123L82.7583 17.3308H82.7311ZM93.0693 25.8954V21.7149H94.9465L98.1432 25.7868H101.081L97.5311 21.3213C98.3057 21.1271 98.9885 20.6702 99.4625 20.0288C99.9365 19.3875 100.172 18.6016 100.129 17.8058C100.129 14.8062 97.7215 13.9375 95.409 13.9375H90.5528V25.7868L93.0693 25.8954ZM93.0693 16.2856H95.5314C96.6061 16.2856 97.5311 16.7471 97.5311 17.9551C97.5311 19.1631 96.6061 19.6382 95.5314 19.6382H93.0965V16.2856H93.0693ZM101.149 14.0461V16.2856H104.795V25.7868H107.325V16.2856H110.998V14.0461H101.149Z" fill="#FAF9FF"/>
<path fill-rule="evenodd" clip-rule="evenodd" d="M20.0488 9.96069C20.4095 9.96069 20.7555 10.1037 21.0106 10.3582C21.2657 10.6128 21.4091 10.958 21.4091 11.318V28.678C21.4091 29.038 21.2657 29.3833 21.0106 29.6378C20.7555 29.8923 20.4095 30.0353 20.0488 30.0353C19.688 30.0353 19.342 29.8923 19.0869 29.6378C18.8318 29.3833 18.6885 29.038 18.6885 28.678V11.318C18.6885 10.958 18.8318 10.6128 19.0869 10.3582C19.342 10.1037 19.688 9.96069 20.0488 9.96069Z" fill="#FAF9FF"/>
</svg>
