<svg width="21" height="21" viewBox="0 0 21 21" fill="none" xmlns="http://www.w3.org/2000/svg">
<path d="M14.6666 17.3185C14.6666 15.9378 12.8011 14.8185 10.4999 14.8185C8.19875 14.8185 6.33327 15.9378 6.33327 17.3185M17.9999 14.8184C17.9999 13.7932 16.9715 12.9122 15.4999 12.5264M2.99994 14.8184C2.99994 13.7932 4.02835 12.9122 5.49994 12.5264M15.4999 9.1819C16.0114 8.72414 16.3333 8.0589 16.3333 7.31848C16.3333 5.93777 15.214 4.81848 13.8333 4.81848C13.193 4.81848 12.6089 5.05919 12.1666 5.45506M5.49994 9.1819C4.98848 8.72414 4.66661 8.0589 4.66661 7.31848C4.66661 5.93777 5.78589 4.81848 7.16661 4.81848C7.8069 4.81848 8.39097 5.05919 8.83327 5.45506M10.4999 12.3185C9.11923 12.3185 7.99994 11.1992 7.99994 9.81848C7.99994 8.43777 9.11923 7.31848 10.4999 7.31848C11.8807 7.31848 12.9999 8.43777 12.9999 9.81848C12.9999 11.1992 11.8807 12.3185 10.4999 12.3185Z" stroke="black" stroke-opacity="0.85" stroke-linecap="round" stroke-linejoin="round"/>
</svg>
