<svg width="20" height="20" viewBox="0 0 20 20" fill="none" xmlns="http://www.w3.org/2000/svg">
<path fill-rule="evenodd" clip-rule="evenodd" d="M0 2C0 0.895431 0.895431 0 2 0H18C19.1046 0 20 0.895431 20 2C20 3.10457 19.1046 4 18 4H2C0.895431 4 0 3.10457 0 2ZM0 10C0 8.89543 0.895431 8 2 8H18C19.1046 8 20 8.89543 20 10C20 11.1046 19.1046 12 18 12H2C0.895431 12 0 11.1046 0 10ZM2 16C0.895431 16 0 16.8954 0 18C0 19.1046 0.895431 20 2 20H18C19.1046 20 20 19.1046 20 18C20 16.8954 19.1046 16 18 16H2Z" fill="#031E80"/>
</svg>
