<svg width="13" height="13" viewBox="0 0 13 13" fill="none" xmlns="http://www.w3.org/2000/svg">
<path d="M7 3.375C7 3.09886 6.77614 2.875 6.5 2.875C6.22386 2.875 6 3.09886 6 3.375H7ZM6.5 6.5H6C6 6.77614 6.22386 7 6.5 7V6.5ZM9.625 7C9.90114 7 10.125 6.77614 10.125 6.5C10.125 6.22386 9.90114 6 9.625 6V7ZM6.5 11.625C3.66954 11.625 1.375 9.33046 1.375 6.5H0.375C0.375 9.88274 3.11726 12.625 6.5 12.625V11.625ZM1.375 6.5C1.375 3.66954 3.66954 1.375 6.5 1.375V0.375C3.11726 0.375 0.375 3.11726 0.375 6.5H1.375ZM6.5 1.375C9.33046 1.375 11.625 3.66954 11.625 6.5H12.625C12.625 3.11726 9.88274 0.375 6.5 0.375V1.375ZM11.625 6.5C11.625 9.33046 9.33046 11.625 6.5 11.625V12.625C9.88274 12.625 12.625 9.88274 12.625 6.5H11.625ZM6 3.375V6.5H7V3.375H6ZM6.5 7H9.625V6H6.5V7Z" fill="#031E80"/>
</svg>
