<svg width="24" height="24" viewBox="0 0 24 24" fill="none" xmlns="http://www.w3.org/2000/svg">
<path d="M9.53033 8.46967C9.23744 8.17678 8.76256 8.17678 8.46967 8.46967C8.17678 8.76256 8.17678 9.23744 8.46967 9.53033L9.53033 8.46967ZM14.4695 15.5302C14.7624 15.8231 15.2373 15.8231 15.5302 15.5302C15.8231 15.2373 15.8231 14.7624 15.5302 14.4695L14.4695 15.5302ZM8.46967 14.4697C8.17678 14.7626 8.17678 15.2374 8.46967 15.5303C8.76256 15.8232 9.23744 15.8232 9.53033 15.5303L8.46967 14.4697ZM15.5302 9.53045C15.8231 9.23756 15.8231 8.76269 15.5302 8.46979C15.2373 8.1769 14.7624 8.1769 14.4695 8.46979L15.5302 9.53045ZM12 20.25C7.44365 20.25 3.75 16.5563 3.75 12H2.25C2.25 17.3848 6.61522 21.75 12 21.75V20.25ZM3.75 12C3.75 7.44365 7.44365 3.75 12 3.75V2.25C6.61522 2.25 2.25 6.61522 2.25 12H3.75ZM12 3.75C16.5563 3.75 20.25 7.44365 20.25 12H21.75C21.75 6.61522 17.3848 2.25 12 2.25V3.75ZM20.25 12C20.25 16.5563 16.5563 20.25 12 20.25V21.75C17.3848 21.75 21.75 17.3848 21.75 12H20.25ZM8.46967 9.53033L14.4695 15.5302L15.5302 14.4695L9.53033 8.46967L8.46967 9.53033ZM9.53033 15.5303L15.5302 9.53045L14.4695 8.46979L8.46967 14.4697L9.53033 15.5303Z" fill="#A53436"/>
</svg>
