<svg width="246" height="60" viewBox="0 0 246 60" fill="none" xmlns="http://www.w3.org/2000/svg">
<g clip-path="url(#clip0_21_303)">
<path d="M107.024 23.3547C107.999 23.3547 108.974 23.3547 109.904 23.3547C110.363 23.3267 110.812 23.2063 111.223 23.0007C111.634 22.7951 112 22.5085 112.297 22.1581C113.256 20.8906 113.699 19.3074 113.538 17.7265C113.602 17.0485 113.602 16.3659 113.538 15.6879C113.358 14.9638 112.936 14.3228 112.342 13.871C111.702 13.2938 110.895 12.9366 110.037 12.8517C109.137 12.8065 108.235 12.8065 107.334 12.8517H98.4708C97.9512 12.8358 97.4351 12.9421 96.964 13.1619C96.6478 13.3538 96.376 13.6106 96.1663 13.9153C95.9594 14.184 95.8361 14.5076 95.8118 14.8459C95.7921 15.141 95.7921 15.4371 95.8118 15.7322V23.3547H107.024ZM79.6807 49.9445V10.0598C79.7002 8.9142 79.8188 7.77249 80.0352 6.64739C80.209 5.32652 80.7809 4.0899 81.6749 3.10209C82.3721 2.33856 83.2367 1.74698 84.2009 1.37375C85.4544 0.814183 86.8171 0.541651 88.1894 0.576055H115.444C117.336 0.558954 119.223 0.752178 121.072 1.15217C122.92 1.58015 124.582 2.58982 125.814 4.03273C127.086 5.4055 128.012 7.06131 128.517 8.86321C129.215 11.6285 129.528 14.4768 129.448 17.3276C129.448 18.1696 129.448 19.2776 129.448 20.6957C129.363 22.1848 129.17 23.6659 128.872 25.1273C128.566 26.6424 128.121 28.1259 127.542 29.5589C127.007 30.8837 126.173 32.0668 125.105 33.0156C123.891 34.0062 122.466 34.7038 120.939 35.0542C119.492 35.4347 118.004 35.643 116.508 35.6746H95.5902V49.9001L79.6807 49.9445ZM171.77 49.9445L156.835 30.7555C156.205 29.8442 155.628 28.8972 155.107 27.9192C154.476 26.9388 154.124 25.8052 154.088 24.6398C154.113 23.6344 154.371 22.6484 154.841 21.7593C155.278 20.8516 155.782 19.9776 156.348 19.1446L169.643 0.576055H188.344L171.238 20.9173C170.519 21.6183 169.934 22.4442 169.51 23.3547C169.336 23.7348 169.216 24.1376 169.155 24.5512C169.177 25.4464 169.505 26.3071 170.086 26.9886C170.706 27.7863 171.283 28.451 171.77 29.0271L190.915 49.8558L171.77 49.9445ZM136.494 0.576055H152.404V49.8558H136.494V0.576055ZM229.78 49.8558L230.445 20.9173C230.469 20.4892 230.469 20.0601 230.445 19.6321C230.44 19.5521 230.418 19.4742 230.381 19.4031C230.344 19.3321 230.292 19.2695 230.23 19.2195C230.167 19.1694 230.095 19.133 230.018 19.1125C229.94 19.0919 229.859 19.0878 229.78 19.1003C229.559 19.1003 229.337 19.1003 229.115 19.6764L227.963 21.4934L213.959 45.4242C213.593 46.0441 213.162 46.6234 212.674 47.1525C212.12 47.821 211.443 48.3775 210.68 48.7922C209.736 49.319 208.721 49.7071 207.666 49.9445C206.215 50.2928 204.726 50.4566 203.235 50.4319C201.249 50.5106 199.269 50.1631 197.429 49.4127C196.117 48.7969 194.976 47.8687 194.105 46.7094C193.327 45.5826 192.812 44.2952 192.599 42.9425C192.362 41.4771 192.244 39.9952 192.244 38.5108V0.576055H208.464L207.844 28.8056V29.5589C207.823 29.928 207.823 30.2978 207.844 30.6669C207.854 30.7545 207.883 30.839 207.927 30.9156C207.971 30.9922 208.029 31.0593 208.099 31.1129C208.17 31.1665 208.25 31.2057 208.335 31.228C208.42 31.2503 208.509 31.2554 208.597 31.243C208.73 31.231 208.858 31.1836 208.967 31.1057C209.076 31.0278 209.163 30.9222 209.217 30.7998L210.015 29.5146L223.664 5.76107C224.251 4.56598 225.046 3.48539 226.013 2.57029C226.891 1.86627 227.86 1.28483 228.894 0.841953C229.84 0.426288 230.839 0.142955 231.863 -5.72447e-05H234.3C236.578 -0.11736 238.849 0.339814 240.904 1.32943C242.312 2.09664 243.501 3.21003 244.36 4.56453C245.111 5.79044 245.58 7.16789 245.734 8.59731C245.895 9.78739 245.984 10.9861 246 12.1869V49.8558H229.78Z" fill="#A53436"/>
<path d="M8.64169 49.5457H0L8.64169 53.7114V49.5457Z" fill="#262821"/>
<path d="M0 49.5457V59.384L4.43163 56.9022L8.86327 59.384V49.5457H37.8462C38.5218 49.5008 39.1819 49.3227 39.7886 49.0219C40.3952 48.7211 40.9364 48.3033 41.3812 47.7927C41.8259 47.2821 42.1654 46.6886 42.3801 46.0464C42.5948 45.4042 42.6805 44.7259 42.6323 44.0505V9.52808L0 49.5457Z" fill="#A53436"/>
<path d="M6.64729 37.6246L27.1214 0.664795H6.60298C4.72516 0.801176 2.97736 1.67425 1.74049 3.09374C0.503624 4.51324 -0.122045 6.36407 -0.000156784 8.24289V49.5457H8.86311L6.64729 37.6246Z" fill="#A53436"/>
<path fill-rule="evenodd" clip-rule="evenodd" d="M42.6323 9.26239V5.27392C42.6378 4.17148 42.2322 3.10655 41.4947 2.2871C40.7572 1.46765 39.7408 0.952517 38.6438 0.842285H27.5204C27.4025 0.848709 27.288 0.884505 27.1874 0.946419C27.0868 1.00833 27.0032 1.09441 26.9443 1.19682L2.4817 45.2029C1.99423 46.045 2.88055 46.9313 3.5453 46.3552L42.3664 9.88282C42.4534 9.80513 42.5223 9.70931 42.5682 9.60211C42.6142 9.49492 42.636 9.37895 42.6323 9.26239Z" fill="#DADADA"/>
<path d="M8.64169 49.5457H0L8.64169 53.7114V49.5457Z" fill="#B2B2B2"/>
</g>
<defs>
<clipPath id="clip0_21_303">
<rect width="246" height="59.3839" fill="white"/>
</clipPath>
</defs>
</svg>
