<svg width="32" height="32" viewBox="0 0 32 32" fill="none" xmlns="http://www.w3.org/2000/svg">
<g clip-path="url(#clip0_21_315)">
<path fill-rule="evenodd" clip-rule="evenodd" d="M2.19772 2.58151C0 4.77923 0 8.31751 0 15.392V16.697C0 23.7705 0 27.3098 2.19772 29.5075C4.39544 31.7052 7.93372 31.7052 15.0082 31.7052H16.3133C23.3867 31.7052 26.926 31.7052 29.1237 29.5075C31.3214 27.3098 31.3214 23.7715 31.3214 16.697V15.392C31.3214 8.31856 31.3214 4.77923 29.1237 2.58151C26.926 0.383789 23.3877 0.383789 16.3133 0.383789H15.0082C7.93477 0.383789 4.39544 0.383789 2.19772 2.58151ZM6.19953 10.1716H8.48287C9.06649 10.1716 9.28574 10.4274 9.50499 11.0601C10.6221 14.3134 12.5056 17.1574 13.2792 17.1574C13.5705 17.1574 13.7031 17.0237 13.7031 16.2856V12.9227C13.6508 11.9654 13.3163 11.5513 13.0686 11.2446C12.9157 11.0552 12.7958 10.9068 12.7958 10.6968C12.7958 10.441 13.014 10.1716 13.3763 10.1716H16.9658C17.4502 10.1716 17.6183 10.4306 17.6183 11.0111V15.536C17.6183 16.0194 17.8281 16.1895 17.9733 16.1895C18.2635 16.1895 18.5057 16.0194 19.0382 15.4869C20.6836 13.6483 21.8446 10.8179 21.8446 10.8179C21.9897 10.4786 22.258 10.1716 22.8385 10.1716H25.1219C25.813 10.1716 25.9592 10.5277 25.813 11.0111C25.5228 12.3422 22.7404 16.2616 22.7404 16.2616C22.4982 16.6489 22.4011 16.8421 22.7404 17.2774C22.8601 17.4452 23.1156 17.6956 23.4077 17.9819C23.7064 18.2747 24.0435 18.605 24.3127 18.9229C25.2941 20.0264 26.0333 20.9577 26.239 21.5988C26.428 22.2429 26.1012 22.5697 25.4486 22.5697H23.1643C22.5527 22.5697 22.245 22.2272 21.5796 21.4865C21.2976 21.1726 20.9513 20.7872 20.4905 20.3261C19.1342 19.02 18.5548 18.8508 18.2155 18.8508C17.7561 18.8508 17.6183 18.9813 17.6183 19.6339V21.6823C17.6183 22.2429 17.4387 22.5697 15.9864 22.5697C13.5674 22.5697 10.9082 21.1007 9.0216 18.3904C6.19014 14.423 5.4165 11.4224 5.4165 10.8179C5.4165 10.4786 5.547 10.1716 6.19953 10.1716Z" fill="#A53436"/>
</g>
<defs>
<clipPath id="clip0_21_315">
<rect width="31.3214" height="31.3214" fill="white" transform="translate(0 0.383789)"/>
</clipPath>
</defs>
</svg>
