<svg width="9" height="14" viewBox="0 0 9 14" fill="none" xmlns="http://www.w3.org/2000/svg">
<path d="M2.20711 0.459641C1.81658 0.069117 1.18342 0.069117 0.792893 0.459641C0.402369 0.850166 0.402369 1.48333 0.792893 1.87385L2.20711 0.459641ZM7.33333 7.00008L8.04044 7.70719C8.43096 7.31666 8.43096 6.6835 8.04044 6.29297L7.33333 7.00008ZM0.792893 12.1263C0.402369 12.5168 0.402369 13.15 0.792893 13.5405C1.18342 13.931 1.81658 13.931 2.20711 13.5405L0.792893 12.1263ZM0.792893 1.87385L6.62623 7.70719L8.04044 6.29297L2.20711 0.459641L0.792893 1.87385ZM6.62623 6.29297L0.792893 12.1263L2.20711 13.5405L8.04044 7.70719L6.62623 6.29297Z" fill="#CDD2E6"/>
</svg>
