<svg width="20" height="17" viewBox="0 0 20 17" fill="none" xmlns="http://www.w3.org/2000/svg">
																			<path d="M10 16L9.16801 16.5548C9.35349 16.833 9.66572 17.0001 10.0001 17C10.3344 17 10.6466 16.8329 10.8321 16.5547L10 16ZM10.575 15.1375L9.74299 14.5828L9.74298 14.5828L10.575 15.1375ZM18.8911 1.54602L18.0001 2.00001V2.00001L18.8911 1.54602ZM18.4539 1.10899L18.9079 0.217987L18.4539 1.10899ZM18.4539 12.891L17.9999 12L18.4539 12.891ZM18.8911 12.454L18.0001 12L18.8911 12.454ZM11.7008 13.6824L12.3358 14.4549L11.7008 13.6824ZM12.7339 13.1295L13.0245 14.0863H13.0245L12.7339 13.1295ZM10.327 2.63806L9.43597 2.18407L10.327 2.63806ZM11.6382 1.32698L11.1842 0.435974L11.6382 1.32698ZM9.4248 15.1375L8.59275 15.6922L8.59281 15.6922L9.4248 15.1375ZM1.10899 1.54602L2 2.00001L1.10899 1.54602ZM1.5459 1.10899L1.99989 2L1.5459 1.10899ZM1.5459 12.891L1.99989 12H1.99989L1.5459 12.891ZM1.10899 12.454L0.217987 12.908H0.217987L1.10899 12.454ZM8.29932 13.6824L8.93428 12.9098L8.29932 13.6824ZM7.26624 13.1295L6.97565 14.0863H6.97565L7.26624 13.1295ZM9.67285 2.63806L8.78185 3.09205L9.67285 2.63806ZM8.36217 1.32698L8.81616 0.435974V0.435974L8.36217 1.32698ZM9 5.80005V16H11V5.80005H9ZM10.8321 16.5547L11.4071 15.6921L9.74298 14.5828L9.16794 15.4454L10.8321 16.5547ZM14.5688 14H17.4V12H14.5688V14ZM20 11.4V2.59998H18V11.4H20ZM17.3998 0H14.7998V2H17.3998V0ZM20 2.59998C20 2.33655 20.0008 2.07876 19.9831 1.86192C19.9645 1.63337 19.9205 1.36356 19.7821 1.09203L18.0001 2.00001C17.9708 1.9424 17.9812 1.91953 17.9897 2.02447C17.9992 2.14111 18 2.30335 18 2.59998H20ZM17.3998 2C17.6963 2 17.8586 2.00078 17.9752 2.0103C18.0802 2.01888 18.0574 2.02932 17.9999 2L18.9079 0.217987C18.6364 0.0796756 18.3667 0.0356172 18.1381 0.0169443C17.9211 -0.000777483 17.6633 0 17.3998 0V2ZM19.7821 1.09203C19.5902 0.715298 19.2838 0.409526 18.9079 0.217987L17.9999 2L18.0001 2.00001L19.7821 1.09203ZM17.4 14C17.6635 14 17.9213 14.0008 18.1382 13.983C18.3668 13.9644 18.6365 13.9203 18.9079 13.782L17.9999 12C18.0574 11.9707 18.0801 11.9811 17.9753 11.9897C17.8587 11.9992 17.6965 12 17.4 12V14ZM18 11.4C18 11.6966 17.9993 11.8589 17.9897 11.9755C17.9812 12.0805 17.9707 12.0577 18.0001 12L19.7821 12.908C19.9205 12.6365 19.9645 12.3666 19.9831 12.1381C20.0008 11.9212 20 11.6634 20 11.4H18ZM18.9079 13.782C19.2837 13.5905 19.5901 13.2848 19.7821 12.908L18.0001 12L17.9999 12L18.9079 13.782ZM11.4071 15.6922C11.9625 14.8591 12.1334 14.6213 12.3358 14.4549L11.0659 12.9098C10.5799 13.3092 10.2296 13.8529 9.74299 14.5828L11.4071 15.6922ZM14.5688 12C13.6919 12 13.0452 11.9898 12.4433 12.1726L13.0245 14.0863C13.2751 14.0102 13.5674 14 14.5688 14V12ZM12.3358 14.4549C12.539 14.2879 12.773 14.1627 13.0245 14.0863L12.4433 12.1726C11.9401 12.3254 11.4721 12.576 11.0659 12.9098L12.3358 14.4549ZM11 5.80005C11 4.94347 11.0008 4.36117 11.0376 3.91108C11.0734 3.47266 11.1383 3.24845 11.218 3.09205L9.43597 2.18407C9.18868 2.66941 9.09012 3.18612 9.04419 3.74822C8.99922 4.29864 9 4.97647 9 5.80005H11ZM14.7998 0C13.9762 0 13.2985 -0.000778079 12.7481 0.0441948C12.1861 0.0901246 11.6695 0.1887 11.1842 0.435974L12.0922 2.21799C12.2486 2.13828 12.4727 2.07337 12.911 2.03755C13.361 2.00078 13.9432 2 14.7998 2V0ZM11.218 3.09205C11.4097 2.71581 11.7158 2.40978 12.0922 2.21799L11.1842 0.435974C10.4316 0.819424 9.81951 1.43134 9.43597 2.18407L11.218 3.09205ZM10.832 15.4453L10.2568 14.5827L8.59281 15.6922L9.16801 16.5548L10.832 15.4453ZM5.43122 12H2.6001V14H5.43122V12ZM2 11.4V2.59998H0V11.4H2ZM2.6001 2H5.2001V0H2.6001V2ZM2 2.59998C2 2.30345 2.00078 2.1412 2.0103 2.02463C2.01887 1.91974 2.0293 1.94251 2 2.00001L0.217987 1.09203C0.0796948 1.36344 0.0356238 1.63316 0.0169456 1.86176C-0.000777841 2.07867 0 2.33645 0 2.59998H2ZM2.6001 0C2.33656 0 2.07874 -0.000777125 1.86179 0.0169432C1.63322 0.0356117 1.36339 0.0796596 1.09191 0.217987L1.99989 2C1.94232 2.02933 1.91956 2.01889 2.0246 2.01031C2.14126 2.00078 2.30358 2 2.6001 2V0ZM2 2.00001L1.99989 2L1.09191 0.217987C0.715325 0.409865 0.409602 0.715964 0.217987 1.09203L2 2.00001ZM2.6001 12C2.30359 12 2.14127 11.9992 2.02462 11.9897C1.91959 11.9811 1.94233 11.9707 1.99989 12L1.09191 13.782C1.36337 13.9203 1.63319 13.9644 1.86177 13.983C2.07873 14.0008 2.33655 14 2.6001 14V12ZM0 11.4C0 11.6635 -0.000777602 11.9213 0.0169448 12.1382C0.0356196 12.3668 0.0796824 12.6366 0.217987 12.908L2 12C2.02931 12.0576 2.01888 12.0803 2.0103 11.9754C2.00078 11.8588 2 11.6965 2 11.4H0ZM1.99989 12L2 12L0.217987 12.908C0.409658 13.2842 0.715434 13.5902 1.09191 13.782L1.99989 12ZM10.2569 14.5828C9.77053 13.8533 9.42028 13.3093 8.93428 12.9098L7.66436 14.4549C7.86667 14.6212 8.03711 14.8587 8.59275 15.6922L10.2569 14.5828ZM5.43122 14C6.43269 14 6.72502 14.0102 6.97565 14.0863L7.55682 12.1726C6.95493 11.9898 6.30817 12 5.43122 12V14ZM8.93428 12.9098C8.52807 12.576 8.06003 12.3254 7.55682 12.1726L6.97565 14.0863C7.22718 14.1627 7.4612 14.2879 7.66436 14.4549L8.93428 12.9098ZM11 5.80005C11 4.97642 11.0007 4.29859 10.9557 3.74813C10.9097 3.186 10.8111 2.66935 10.5639 2.18407L8.78185 3.09205C8.86156 3.24851 8.92652 3.47277 8.96237 3.91116C8.99918 4.36122 9 4.94352 9 5.80005H11ZM5.2001 2C6.05668 2 6.639 2.00078 7.08911 2.03755C7.52757 2.07337 7.75179 2.1383 7.90818 2.21799L8.81616 0.435974C8.33081 0.188678 7.81408 0.0901172 7.25197 0.0441933C6.70152 -0.000777602 6.02368 0 5.2001 0V2ZM10.5639 2.18407C10.1805 1.4317 9.56909 0.81961 8.81616 0.435974L7.90818 2.21799C8.28422 2.40959 8.58996 2.71545 8.78185 3.09205L10.5639 2.18407Z" fill="#031E80"/>
																		</svg>