<svg width="50" height="36" viewBox="0 0 50 36" fill="none" xmlns="http://www.w3.org/2000/svg">
<path d="M5.65685 14.1617L1.5494 12.644C0.620283 12.3034 -0.0439725 11.7022 0.00227315 10.6554C0.0443147 9.7347 0.6371 9.17135 1.51156 8.86024C8.91367 6.22844 16.3046 3.58544 23.6842 0.931215C24.895 0.5108 26.0218 0.763049 27.1443 1.16665C34.0727 3.66391 41.0011 6.15697 47.9296 8.64583C48.9176 9.00318 49.9518 9.29327 49.998 10.6512C50.0527 12.1311 48.9638 12.4674 47.8959 12.85C40.9675 15.3388 34.0405 17.8333 27.1148 20.3334C25.7384 20.8474 24.221 20.8369 22.8518 20.3039C18.1516 18.5971 13.4345 16.9406 8.72588 15.259C9.73068 13.3965 11.6099 12.9719 13.4009 12.4926C17.0123 11.5257 20.6531 10.6722 24.2728 9.72209C25.2188 9.47405 26.6145 9.38576 26.1605 7.84704C25.7401 6.40502 24.5083 6.93474 23.5329 7.17438C20.7119 7.87647 17.9246 8.73412 15.0784 9.31009C11.4544 10.0458 8.17094 11.3071 5.65685 14.1617Z" fill="#1B3455"/>
<path d="M11.1932 18.9165C14.8844 20.2114 18.4201 21.4096 21.9222 22.7002C23.8743 23.4759 26.0492 23.4759 28.0014 22.7002C31.1124 21.5063 34.3076 20.4931 37.3976 19.2949C38.6252 18.824 38.9826 19.1309 39.0793 20.3753C39.2895 23.0912 39.6216 25.7945 39.8781 28.5062C40.1345 31.2178 39.5754 32.2773 37.0529 33.5007C32.2055 35.8004 27.0428 36.1829 21.7792 35.7415C18.8657 35.4977 15.9775 34.9722 13.3163 33.7109C10.655 32.4497 9.92772 31.2935 10.2178 28.2918C10.5079 25.29 10.8526 22.1999 11.1932 18.9165Z" fill="#1B3455"/>
<path d="M5.65687 14.162C8.17936 11.3158 11.4544 10.0546 15.0742 9.31886C17.9204 8.74289 20.7077 7.88524 23.5287 7.18315C24.5041 6.94351 25.7317 6.41379 26.1563 7.85581C26.6103 9.39453 25.2146 9.48282 24.2686 9.73086C20.6489 10.6726 17.0081 11.526 13.3967 12.4804C11.6057 12.9596 9.72648 13.3843 8.72169 15.2467C7.14934 16.4743 5.8881 17.7776 7.24604 19.9427C7.33103 20.0966 7.38414 20.2659 7.4022 20.4407C7.42026 20.6155 7.40289 20.7922 7.35114 20.9601C5.91752 24.4454 7.49408 27.7751 7.97756 31.1132C8.68385 36.0236 8.86884 35.9816 3.93737 35.9311C1.6377 35.9059 1.21729 35.4434 1.58725 33.2026C2.05812 30.3901 2.57102 27.5817 3.06291 24.7733C3.06291 24.706 3.12597 24.622 3.10495 24.5715C1.33921 20.4683 4.62685 17.58 5.65687 14.162Z" fill="#A3ACB9"/>
</svg>
