<svg width="39" height="37" viewBox="0 0 39 37" fill="none" xmlns="http://www.w3.org/2000/svg">
<path d="M19.9219 34.2152V36.1431H38.2563V34.2152H36.6038L33.063 12.3791H33.9286V10.4512H24.2499V12.3791H25.1155L21.5746 34.2152H19.9219ZM33.9284 20.5234H24.1711L24.9187 15.8021H33.1416L33.9284 20.5234ZM35.5413 30.3594H22.5971L23.3447 25.6382H34.7545L35.5413 30.3594Z" fill="#1A3254"/>
<path d="M29.4823 3.72315C29.0887 3.68391 28.7347 3.7624 28.4199 3.88041C28.1051 2.70001 27.0823 1.83444 25.7838 1.75596C24.5247 1.6772 23.4626 2.38553 22.9511 3.48718C22.5575 3.21164 22.1247 3.05438 21.6134 3.01513C20.8266 2.97589 20.1183 3.29068 19.6069 3.80195C19.4102 3.72318 19.2134 3.68394 19.0169 3.64469C18.0333 3.60545 17.1677 4.35275 17.1284 5.33635C17.0892 6.31996 17.8365 7.18553 18.8201 7.22481C19.0169 7.22481 19.2136 7.22481 19.4101 7.14604C19.8429 7.73609 20.5118 8.12965 21.2986 8.16892C22.0462 8.20817 22.7543 7.9329 23.2658 7.42131C23.6198 8.56216 24.643 9.4278 25.9019 9.50656C26.4527 9.5458 26.9642 9.42779 27.4363 9.19177C27.9084 9.5458 28.4987 9.78182 29.128 9.82134C30.8196 9.93935 32.236 8.64094 32.3543 6.94928C32.4331 5.25762 31.1347 3.80195 29.4823 3.72319V3.72315Z" fill="#1A3254"/>
<path d="M19.23 0.43138C20.0544 0.480231 20.6832 1.18805 20.6343 2.01246C20.5854 2.83658 19.8776 3.46539 19.0532 3.41649C18.2291 3.36764 17.6003 2.65981 17.6492 1.83569C17.698 1.01129 18.4058 0.382481 19.23 0.43138Z" fill="#1A3254"/>
<path d="M16.4767 2.18645C17.0624 2.2213 17.5092 2.72408 17.4743 3.30973C17.4397 3.89539 16.937 4.34216 16.351 4.3076C15.7654 4.27274 15.3189 3.76996 15.3534 3.18432C15.388 2.59866 15.8911 2.15188 16.4767 2.18645Z" fill="#1A3254"/>
<path d="M23.0302 22.8442L21.2598 33.8213H19.5286V34.8444H17.9941V26.9893C17.9941 24.7001 19.8499 22.8443 22.1391 22.8443L23.0302 22.8442Z" fill="#A2ACB9"/>
<path d="M0 21.1438C0 20.5245 0.502028 20.0225 1.12131 20.0225H19.1803C19.7996 20.0225 20.3016 20.5245 20.3016 21.1438V37.8454C20.3016 38.4647 19.7996 38.9667 19.1803 38.9667H1.12131C0.502029 38.9667 0 38.4647 0 37.8454V21.1438Z" fill="#A2ACB9"/>
<path d="M14.3418 14.2976C14.3418 13.6783 14.8438 13.1763 15.4631 13.1763H17.2926C17.9119 13.1763 18.4139 13.6783 18.4139 14.2976V30.9992C18.4139 31.6185 17.9119 32.1205 17.2926 32.1205H15.4631C14.8438 32.1205 14.3418 31.6185 14.3418 30.9992V14.2976Z" fill="#A2ACB9"/>
<path d="M13.6914 13.7661C13.6914 13.2772 14.0877 12.8809 14.5767 12.8809H18.1767C18.6656 12.8809 19.0619 13.2772 19.0619 13.7661C19.0619 14.255 18.6656 14.6514 18.1767 14.6514H14.5767C14.0877 14.6514 13.6914 14.255 13.6914 13.7661Z" fill="#A2ACB9"/>
<path d="M8.61719 17.7795C8.61719 17.1602 9.11922 16.6582 9.7385 16.6582H11.568C12.1873 16.6582 12.6893 17.1602 12.6893 17.7795V34.4812C12.6893 35.1004 12.1873 35.6025 11.568 35.6025H9.7385C9.11922 35.6025 8.61719 35.1004 8.61719 34.4812V17.7795Z" fill="#A2ACB9"/>
<path d="M6.49219 31.7069C6.49219 31.6417 6.54503 31.5889 6.61022 31.5889H9.38399C9.44918 31.5889 9.50202 31.6417 9.50202 31.7069V36.1331C9.50202 36.1983 9.44918 36.2512 9.38399 36.2512H6.61022C6.54503 36.2512 6.49219 36.1983 6.49219 36.1331V31.7069Z" fill="white"/>
<path d="M2.30078 23.9169C2.30078 23.8517 2.35363 23.7988 2.41881 23.7988H5.19259C5.25777 23.7988 5.31062 23.8517 5.31062 23.9169V28.3431C5.31062 28.4083 5.25777 28.4611 5.19259 28.4611H2.41881C2.35363 28.4611 2.30078 28.4083 2.30078 28.3431V23.9169Z" fill="white"/>
<path d="M10.6816 23.9169C10.6816 23.8517 10.7345 23.7988 10.7997 23.7988H13.5734C13.6386 23.7988 13.6915 23.8517 13.6915 23.9169V28.3431C13.6915 28.4083 13.6386 28.4611 13.5734 28.4611H10.7997C10.7345 28.4611 10.6816 28.4083 10.6816 28.3431V23.9169Z" fill="white"/>
<path d="M10.6816 31.7069C10.6816 31.6417 10.7345 31.5889 10.7997 31.5889H13.5734C13.6386 31.5889 13.6915 31.6417 13.6915 31.7069V36.1331C13.6915 36.1983 13.6386 36.2512 13.5734 36.2512H10.7997C10.7345 36.2512 10.6816 36.1983 10.6816 36.1331V31.7069Z" fill="white"/>
<path d="M6.49219 23.9169C6.49219 23.8517 6.54503 23.7988 6.61022 23.7988H9.38399C9.44918 23.7988 9.50202 23.8517 9.50202 23.9169V28.3431C9.50202 28.4083 9.44918 28.4611 9.38399 28.4611H6.61022C6.54503 28.4611 6.49219 28.4083 6.49219 28.3431V23.9169Z" fill="white"/>
<path d="M14.873 23.9169C14.873 23.8517 14.9259 23.7988 14.9911 23.7988H17.7649C17.83 23.7988 17.8829 23.8517 17.8829 23.9169V28.3431C17.8829 28.4083 17.83 28.4611 17.7649 28.4611H14.9911C14.9259 28.4611 14.873 28.4083 14.873 28.3431V23.9169Z" fill="white"/>
</svg>
