<svg width="41" height="37" viewBox="0 0 41 37" fill="none" xmlns="http://www.w3.org/2000/svg">
<path d="M22.9666 36.5302C16.8606 36.5302 10.7547 36.5717 4.64875 36.5075C2.31135 36.4849 0.521485 34.593 0.506381 32.0631C0.450998 23.159 0.450998 14.255 0.506381 5.35097C0.525261 2.64729 2.34911 0.906511 5.02259 0.887631C11.0115 0.847352 17.0004 0.847352 22.9892 0.887631C25.7798 0.887631 27.4073 2.54156 27.4488 5.30566C27.4903 7.98291 27.4261 10.6602 27.479 13.3374C27.5336 13.731 27.4466 14.1312 27.2336 14.4666C27.0206 14.802 26.6954 15.0509 26.316 15.1688C21.9282 17.0569 19.2471 20.3043 18.6316 25.1453C18.3856 26.8398 18.5236 28.5679 19.0354 30.2019C19.5472 31.8359 20.4196 33.334 21.5883 34.5855C22.0679 35.1255 22.7664 35.4766 23.3631 35.9147L22.9666 36.5302ZM14.1305 11.8572C16.4944 11.8572 18.8582 11.8572 21.222 11.8572C21.9772 11.8572 22.876 11.9214 22.8835 10.8603C22.8911 9.79921 21.9848 9.86718 21.2296 9.8634C16.376 9.8634 11.525 9.8634 6.67652 9.8634C5.99304 9.8634 5.1472 9.79543 5.10566 10.7357C5.06412 11.6759 5.842 11.8685 6.66896 11.8685C9.14608 11.8459 11.6459 11.8572 14.1305 11.8572ZM11.6534 18.5824C13.3942 18.5824 15.1312 18.5824 16.872 18.5824C17.5705 18.5824 18.3522 18.5824 18.3824 17.6384C18.4126 16.6944 17.6838 16.5962 16.9588 16.5962C13.481 16.5962 10.0033 16.5962 6.5217 16.5962C5.73627 16.5962 5.083 16.8303 5.09056 17.6686C5.09056 18.6164 5.91752 18.5937 6.60099 18.5937C8.30024 18.6051 9.97682 18.5824 11.6534 18.5824ZM9.48593 25.2963C10.5395 25.2963 11.593 25.2963 12.6465 25.2963C13.3262 25.2963 13.9304 25.1037 13.9077 24.2881C13.8851 23.4724 13.2507 23.3365 12.5823 23.3365C10.4753 23.3365 8.36946 23.3365 6.26492 23.3365C5.65319 23.3365 5.083 23.5253 5.09433 24.2314C5.10566 24.9376 5.57767 25.3076 6.32912 25.2963C7.37887 25.285 8.4324 25.2963 9.48593 25.2963Z" fill="#A5AEBB"/>
<path d="M30.9375 36.5719C28.9596 36.5733 27.0256 35.989 25.3794 34.8927C23.7332 33.7964 22.4485 32.2371 21.6873 30.4115C20.9261 28.586 20.7226 26.5759 21.1024 24.6349C21.4821 22.6938 22.4282 20.9086 23.8212 19.5046C25.2143 18.1005 26.9919 17.1404 28.9299 16.7453C30.8679 16.3502 32.8795 16.5379 34.711 17.2846C36.5425 18.0313 38.1119 19.3037 39.2212 20.9412C40.3305 22.5787 40.93 24.5081 40.9442 26.4859C40.9743 27.812 40.7366 29.1304 40.2454 30.3625C39.7542 31.5946 39.0195 32.7149 38.0853 33.6565C37.1511 34.5981 36.0366 35.3416 34.8085 35.8425C33.5803 36.3434 32.2637 36.5915 30.9375 36.5719ZM30.8205 33.332C31.5039 33.2036 32.4215 33.585 32.9653 32.7542C33.2485 32.3238 33.2825 31.6931 32.8142 31.4062C31.84 30.8209 32.093 29.9335 32.059 29.099C32.025 28.2645 32.059 27.3657 32.0061 26.501C32.0104 26.3592 31.984 26.2182 31.9288 26.0875C31.8736 25.9569 31.7908 25.8397 31.6861 25.744C31.5814 25.6483 31.4573 25.5763 31.3222 25.5329C31.1872 25.4896 31.0444 25.4759 30.9035 25.4928C30.1974 25.5192 29.3704 25.1869 28.8493 25.9535C28.4226 26.5841 28.7096 27.0448 29.2269 27.5545C30.2352 28.5779 29.9368 29.8806 29.4648 30.953C29.2232 31.5157 28.4038 31.8215 28.7814 32.6372C29.1892 33.5283 30.0275 33.2527 30.8205 33.332ZM30.9337 19.7985C30.0275 19.9382 29.3025 20.3384 29.2496 21.3957C29.1967 22.453 29.7178 23.061 30.76 23.1327C31.8702 23.2083 32.5612 22.6116 32.5839 21.5128C32.599 20.5197 31.9457 19.9646 30.9337 19.806V19.7985Z" fill="#1D3455"/>
<path d="M14.1297 11.8573C11.645 11.8573 9.15659 11.8573 6.66815 11.8573C5.84118 11.8573 5.06708 11.71 5.10484 10.7245C5.1426 9.7389 5.99222 9.85596 6.6757 9.85218C11.5267 9.85218 16.3777 9.85218 21.2288 9.85218C21.984 9.85218 22.8865 9.77288 22.8827 10.8453C22.8789 11.9177 21.984 11.8497 21.2288 11.8535C18.8574 11.8611 16.4935 11.8573 14.1297 11.8573Z" fill="#FDFDFD"/>
<path d="M11.6533 18.5826C9.97676 18.5826 8.30017 18.5826 6.61981 18.5826C5.92879 18.5826 5.10938 18.6052 5.10938 17.6574C5.10938 16.8191 5.75509 16.5812 6.54051 16.585C10.0221 16.585 13.4999 16.585 16.9776 16.585C17.7026 16.585 18.4465 16.6832 18.4012 17.6272C18.3559 18.5712 17.578 18.5712 16.8908 18.5712C15.1311 18.6052 13.3941 18.5826 11.6533 18.5826Z" fill="#FDFDFD"/>
<path d="M9.48551 25.2962C8.43198 25.2962 7.37845 25.2962 6.3287 25.2962C5.57348 25.2962 5.10524 24.9488 5.09392 24.2314C5.08259 23.5139 5.65278 23.3402 6.2645 23.3364C8.36905 23.3364 10.4748 23.3364 12.5819 23.3364C13.2503 23.3364 13.8809 23.4724 13.9073 24.288C13.9337 25.1036 13.3258 25.2887 12.6461 25.2962C11.5926 25.3 10.539 25.2962 9.48551 25.2962Z" fill="#FDFDFD"/>
</svg>
