<svg width="38" height="37" viewBox="0 0 38 37" fill="none" xmlns="http://www.w3.org/2000/svg">
<path fill-rule="evenodd" clip-rule="evenodd" d="M0.775217 6.28113L3.70142 7.33156L4.75186 10.2578C4.82689 10.5579 5.12701 10.783 5.42714 10.783C5.72726 10.783 6.02738 10.5579 6.10242 10.2578L7.15285 7.33156L10.0791 6.28113C10.3792 6.2061 10.6043 5.90597 10.6043 5.60585C10.6043 5.30572 10.3792 5.0056 10.0791 4.93057L7.15285 3.88014L6.10242 0.953928C6.02738 0.653804 5.72726 0.428711 5.42714 0.428711C5.12701 0.428711 4.82689 0.653804 4.75186 0.953928L3.70142 3.88014L0.775217 4.93057C0.475093 5.0056 0.25 5.30572 0.25 5.60585C0.25 5.90597 0.475093 6.2061 0.775217 6.28113ZM4.52677 5.08063C4.75186 5.0056 4.90192 4.85554 4.97695 4.63045L5.50217 3.27989L6.02738 4.63045C6.10242 4.85554 6.25248 5.0056 6.47757 5.08063L7.82813 5.60585L6.47757 6.13106C6.25248 6.2061 6.10242 6.35616 6.02738 6.58125L5.50217 7.93181L4.97695 6.58125C4.90192 6.35616 4.75186 6.2061 4.52677 6.13106L3.17621 5.60585L4.52677 5.08063ZM12.4056 12.2085V12.4332V12.5082L15.1067 33.817C15.1067 34.0421 15.2568 34.2672 15.4818 34.3423L18.5581 36.068C18.5581 36.068 18.6331 36.068 18.6331 36.143H18.7082H18.9333C19.0083 36.143 19.0833 36.143 19.1584 36.068L23.135 34.4173C23.3601 34.3423 23.5852 34.0421 23.5852 33.817L25.536 12.8838V12.8088C25.536 12.6587 25.461 12.5087 25.3859 12.3586L25.3859 12.3586C25.3859 12.3586 25.3859 12.2836 25.3109 12.2836L20.2088 6.58122C20.1801 6.55257 20.1515 6.53485 20.127 6.51973C20.0874 6.49525 20.0587 6.47753 20.0587 6.43116H19.9837C19.9087 6.43116 19.8336 6.43116 19.8336 6.35613H19.7586H19.5335H19.4585C19.3835 6.35613 19.3084 6.43116 19.2334 6.50619L12.6307 11.6833C12.5556 11.6833 12.5556 11.7584 12.5556 11.7584C12.527 11.8443 12.4983 11.9084 12.4738 11.9632L12.4738 11.9632C12.4342 12.0517 12.4056 12.1158 12.4056 12.2085ZM13.9812 13.3336L18.1079 14.309V34.1172L16.4572 33.2168L13.9812 13.3336ZM22.1596 33.2918L19.6085 34.3423V14.384L23.9603 13.7087L22.1596 33.2918ZM19.7586 12.8834L20.2838 8.90676L23.3601 12.2831L19.7586 12.8834ZM18.7082 8.90676L18.183 12.8084L14.7315 11.983L18.7082 8.90676ZM9.77897 17.7616C9.77897 17.6865 9.77897 17.6115 9.70394 17.5365V17.4615C9.66642 17.4239 9.64767 17.3864 9.62891 17.3489C9.61015 17.3114 9.59139 17.2739 9.55388 17.2364H9.47885C9.44133 17.2364 9.42257 17.2176 9.40382 17.1988C9.38506 17.1801 9.3663 17.1613 9.32878 17.1613L3.92656 14.6103C3.88904 14.6103 3.85152 14.5915 3.81401 14.5728C3.77649 14.554 3.73898 14.5352 3.70146 14.5352H3.62643H3.40134H3.32631C3.28879 14.5352 3.27003 14.554 3.25128 14.5728C3.23252 14.5915 3.21376 14.6103 3.17625 14.6103C3.17625 14.6103 3.10121 14.6103 3.10121 14.6853C3.07256 14.714 3.05484 14.7426 3.03971 14.7671C3.01524 14.8067 2.99752 14.8354 2.95115 14.8354L0.325069 19.5623C0.250038 19.7124 0.250038 19.8624 0.325069 20.0875V20.1626L4.97699 34.3439C5.05202 34.644 5.27711 34.794 5.57724 34.8691L8.57847 35.3943H8.72854C8.80357 35.3943 8.95363 35.3943 9.02866 35.3193C9.02866 35.3193 9.10369 35.3193 9.10369 35.2442C9.14121 35.2442 9.15996 35.2255 9.17872 35.2067C9.19748 35.188 9.21624 35.1692 9.25375 35.1692L11.1295 33.4435C11.2796 33.2934 11.4297 33.0683 11.3546 32.8432L9.77897 17.7616ZM7.30295 17.8366L5.65227 18.662L4.97699 16.7862L7.30295 17.8366ZM3.5514 17.0863L4.22668 19.0371L2.35091 19.1872L3.5514 17.0863ZM6.25252 33.5177L2.05078 20.6878L4.67687 20.4627L7.6781 33.7436L6.25252 33.5177ZM9.17872 33.2926L6.17748 20.1626L8.42841 19.0371L9.77897 32.6927L9.17872 33.2926ZM28.6212 35.3124C28.5991 35.3046 28.5808 35.2863 28.5376 35.2431L26.7369 33.667C26.5868 33.517 26.5118 33.2919 26.5118 33.0668L28.0124 17.9105V17.8355C28.0124 17.798 28.0312 17.7605 28.0499 17.7229C28.0687 17.6854 28.0874 17.6479 28.0874 17.6104V17.5354C28.0874 17.4603 28.1625 17.3853 28.2375 17.3103H28.3125C28.3501 17.3103 28.3688 17.2915 28.3876 17.2728C28.4063 17.254 28.4251 17.2352 28.4626 17.2352L33.8648 14.6842C33.9399 14.6092 34.0149 14.6092 34.0899 14.6092H34.165H34.39H34.4651C34.5026 14.6092 34.5214 14.6279 34.5401 14.6467C34.5589 14.6654 34.5776 14.6842 34.6151 14.6842C34.6151 14.7592 34.6902 14.7592 34.6902 14.7592C34.7365 14.7592 34.7543 14.7879 34.7787 14.8275C34.7939 14.852 34.8116 14.8806 34.8402 14.9093L37.4663 19.6362C37.4663 19.6837 37.4738 19.7388 37.4817 19.7966C37.4988 19.9213 37.5176 20.0589 37.4663 20.1614V20.2365L32.8144 34.4178C32.7394 34.7179 32.5143 34.8679 32.2141 34.943L29.2129 35.4682H29.0628C28.9749 35.4682 28.9128 35.4425 28.8613 35.4211C28.8249 35.406 28.7938 35.3932 28.7627 35.3932L28.6877 35.3181C28.6558 35.3181 28.6375 35.3181 28.6212 35.3124ZM31.5389 20.1619L29.2879 19.0364L27.9374 32.6916L28.5376 33.2919L31.5389 20.1619ZM29.9632 33.7429L31.4638 33.5178L35.5905 20.6871L32.9645 20.462L29.9632 33.7429ZM34.165 17.0856L33.4897 19.0364L35.3654 19.1865L34.165 17.0856ZM32.0641 18.6613L32.7394 16.7855L30.4134 17.8359L32.0641 18.6613ZM29.5874 8.30704L27.4865 7.18157C27.2614 7.10654 27.1114 6.88145 27.1114 6.58133C27.1114 6.2812 27.2614 6.05611 27.4865 5.90605L29.5874 4.78058L30.6378 2.67972C30.9379 2.22953 31.7633 2.22953 31.9884 2.67972L33.1138 4.78058L35.2897 5.83102C35.5148 5.98108 35.6649 6.20617 35.6649 6.5063C35.6649 6.80642 35.5148 7.03151 35.2897 7.18157L33.1889 8.30704L32.0634 10.4079C31.9133 10.633 31.6882 10.7831 31.3881 10.7831C31.088 10.7831 30.8629 10.633 30.7128 10.4079L29.5874 8.30704ZM30.7879 5.68096C30.7128 5.83102 30.6378 5.90605 30.4877 5.98108L29.4373 6.58133L30.4877 7.18157C30.6378 7.25661 30.7128 7.33164 30.7879 7.4817L31.3881 8.53213L31.9884 7.4817C32.0634 7.33164 32.1384 7.25661 32.2885 7.18157L33.3389 6.58133L32.2885 5.98108C32.1384 5.90605 32.0634 5.83102 31.9884 5.68096L31.3881 4.63052L30.7879 5.68096Z" fill="#1A3254"/>
</svg>
