<svg width="46" height="37" viewBox="0 0 46 37" fill="none" xmlns="http://www.w3.org/2000/svg">
<path d="M16.304 29.6496C16.304 28.2813 16.304 26.913 16.304 25.5372C16.304 24.4344 16.4685 23.2418 17.3022 22.6249C19.2911 21.1519 19.6425 18.8864 20.293 16.8227C21.1417 14.1534 22.5362 12.2878 25.4934 12.0149C25.8672 11.9775 26.2635 11.914 26.3121 11.4355C26.4728 9.76433 27.6767 9.76433 28.9104 9.79424C30.2077 9.81293 31.5274 9.83536 32.8059 9.79424C33.9686 9.74938 34.9332 9.96247 35.165 11.2897C35.2809 11.9626 35.7183 11.9813 36.2342 12.0374C38.6343 12.3439 40.1297 13.7309 40.8662 16.0189C41.2401 17.1966 41.6738 18.363 42.0551 19.5406C42.3092 20.5607 42.8958 21.467 43.7225 22.1165C44.9076 22.9913 45.2179 24.3858 45.2179 25.784C45.2553 28.4608 45.2553 31.1363 45.2179 33.8106C45.188 35.8743 44.4702 36.5136 42.3317 36.4912C40.3204 36.4687 39.64 35.8855 39.7148 33.7919C39.7746 32.3601 39.3409 32.0124 37.9464 32.0348C33.1237 32.1171 28.2973 32.1059 23.4708 32.0348C22.2296 32.0348 21.7399 32.2928 21.7698 33.6574C21.8184 35.9379 21.123 36.5173 18.8799 36.4874C16.8498 36.4575 16.304 35.8481 16.2891 33.5527C16.2928 32.2629 16.3003 30.9581 16.304 29.6496ZM30.66 20.879C32.634 20.879 34.6079 20.879 36.5819 20.879C36.9856 20.879 37.5202 21.051 37.7034 20.5052C38.1558 19.2303 36.0884 16.3928 34.7126 16.3928C32.5555 16.3741 30.3946 16.3928 28.2337 16.3928C24.7793 16.3928 24.8129 16.3928 23.9232 19.8247C23.6914 20.722 23.9232 20.9164 24.7419 20.9052C26.7121 20.8566 28.6861 20.879 30.66 20.879ZM21.8184 28.1953C22.839 28.1243 23.4409 27.571 23.4633 26.5616C23.4858 25.5522 22.925 24.8979 21.9156 24.8493C20.794 24.797 20.1547 25.4812 20.1697 26.5541C20.1846 27.5224 20.8015 28.1206 21.8184 28.1953ZM41.3186 26.498C41.2251 25.5896 40.7653 24.8942 39.7447 24.8493C39.5118 24.8166 39.2746 24.8375 39.051 24.9105C38.8275 24.9834 38.6235 25.1064 38.4548 25.2701C38.286 25.4338 38.1568 25.6339 38.0772 25.8552C37.9975 26.0764 37.9694 26.3129 37.995 26.5466C37.9817 26.7653 38.0152 26.9843 38.0934 27.1889C38.1716 27.3935 38.2927 27.5791 38.4484 27.7331C38.6042 27.8871 38.7911 28.006 38.9966 28.0819C39.2022 28.1577 39.4215 28.1888 39.64 28.1729C40.6793 28.1804 41.184 27.5598 41.3186 26.498Z" fill="#1C3455"/>
<path d="M0.706183 16.6505C0.706183 13.2859 0.773477 9.92117 0.680013 6.57517C0.631412 4.83301 1.36043 3.73762 2.84463 3.03477C4.60713 2.14051 6.49965 1.52985 8.45244 1.22532C14.0341 0.518733 19.5484 0.417793 24.8272 2.82541C26.0086 3.36002 26.9844 4.01801 27.2947 5.38631C27.5526 6.50788 27.6685 7.46121 26.1432 7.77898C25.3432 7.94722 24.8385 8.63137 24.3711 9.33048C23.8328 10.1343 23.2159 10.3885 22.9355 9.09121C22.6776 7.89861 21.8925 7.53971 20.7448 7.59579C19.3241 7.65561 17.8997 7.64813 16.4791 7.59579C15.5183 7.56215 15.1519 7.92105 15.1781 8.89681C15.2267 10.8222 15.2416 12.755 15.1781 14.6803C15.137 15.8281 15.4099 16.4636 16.6997 16.3178C17.7577 16.1982 18.0268 16.7403 17.6679 17.6861C17.2567 18.7666 16.9913 19.832 16.0043 20.6994C14.4416 22.0789 13.9032 24.008 14.0789 26.1165C14.135 26.7969 14.0303 27.4923 14.1014 28.169C14.2397 29.5223 13.7275 30.1728 12.3368 30.0084C10.6544 29.8139 9.45811 29.9037 9.50297 32.2814C9.53662 34.2591 7.74586 34.3039 6.16819 34.2516C4.65408 34.203 4.01853 33.3394 4.08209 31.9823C4.14564 30.6252 3.86525 29.9111 2.38853 29.7392C1.01648 29.6121 0.676275 28.5541 0.694967 27.2867C0.728614 23.7426 0.706183 20.1984 0.706183 16.6505ZM12.9686 12.0297C12.9686 11.039 12.9088 10.0445 12.9686 9.0613C13.0583 7.90235 12.5761 7.53598 11.4732 7.58832C10.0002 7.65935 8.51973 7.61822 7.04301 7.58832C5.85042 7.58832 5.17374 8.11919 5.15505 9.34917C5.15505 11.0839 5.13262 12.8148 5.15505 14.5495C5.15505 15.671 5.76443 16.258 6.88225 16.2804C7.49911 16.2804 8.11223 16.2804 8.72909 16.2804C12.9686 16.3029 12.9686 16.3029 12.9686 12.0297ZM8.94593 23.0547C8.84125 22.1761 8.36645 21.4994 7.33462 21.5144C7.11958 21.5129 6.90636 21.5538 6.70713 21.6347C6.50789 21.7157 6.32655 21.835 6.17346 21.9861C6.02036 22.1371 5.89851 22.3168 5.81486 22.5149C5.73121 22.713 5.68739 22.9256 5.68592 23.1406C5.68445 23.3557 5.72534 23.5689 5.80627 23.7681C5.8872 23.9674 6.00658 24.1487 6.1576 24.3018C6.30861 24.4549 6.4883 24.5768 6.6864 24.6604C6.88451 24.7441 7.09715 24.7879 7.31219 24.7893C8.33281 24.8155 8.84873 24.1725 8.94593 23.0547Z" fill="#A4AEBB"/>
</svg>
