<svg width="41" height="36" viewBox="0 0 41 36" fill="none" xmlns="http://www.w3.org/2000/svg">
<path d="M14.3072 35.8193C10.3969 35.8193 6.4904 35.7818 2.58386 35.8418C1.08278 35.8643 0.418557 35.2789 0.467342 33.7703C0.51988 32.1004 0.489858 30.4267 0.467342 28.7567C0.467342 27.4733 0.977707 26.6552 2.34368 26.9029C4.76041 27.3382 6.47164 26.1524 8.10781 24.6513C9.77004 23.1234 11.9686 22.3142 14.2247 22.3997C17.6359 22.4372 21.0471 22.4297 24.4582 22.3997C25.9593 22.3997 27.0626 22.835 27.2277 24.4637C27.3666 25.8371 26.2595 26.8128 24.5408 26.8691C22.9909 26.9179 21.4411 26.8992 19.8875 26.8691C19.1069 26.8691 18.4577 27.098 18.4727 27.9461C18.4877 28.7943 19.1444 29.072 19.9025 29.072C22.323 29.072 24.7434 29.072 27.1602 29.072C27.9107 29.072 28.4361 28.6104 28.9727 28.2238C31.3819 26.4826 33.7611 24.7038 36.1629 22.9701C36.6223 22.5907 37.1954 22.3757 37.791 22.3594C38.3867 22.3431 38.9707 22.5263 39.4502 22.88C39.9235 23.1853 40.2926 23.6274 40.5085 24.1476C40.7243 24.6678 40.7767 25.2414 40.6586 25.7921C40.531 26.674 39.908 27.2144 39.2851 27.6985C36.2154 29.9989 33.1495 32.3105 30.0272 34.5434C28.8003 35.4067 27.3277 35.8515 25.828 35.8118C21.9965 35.778 18.15 35.8193 14.3072 35.8193Z" fill="#A3ADBA"/>
<path d="M28.4353 9.0962C28.4353 9.71915 28.4353 10.3383 28.4353 10.9725C28.4616 11.9895 27.9475 12.3836 26.9568 12.4361C25.6208 12.5074 23.8495 11.8131 23.069 12.7776C22.4198 13.5769 22.8288 15.2619 22.8401 16.5528C22.8401 17.5998 22.3522 18.0163 21.3615 17.9675C21.1739 17.9675 20.9863 17.9675 20.8024 17.9675C16.3817 18.0201 16.3517 18.0201 16.2128 13.6707C16.1791 12.725 15.9539 12.2635 14.9594 12.4211C14.8971 12.4286 14.8341 12.4286 14.7718 12.4211C13.4696 12.2072 11.7434 13.1153 10.9328 11.8394C10.0359 10.4247 10.5801 8.57458 10.6401 6.91965C10.6739 5.89141 11.5145 5.75256 12.4039 5.70753C13.6235 5.64749 15.2259 6.28544 15.9502 5.41107C16.5431 4.69806 16.2016 3.15946 16.1753 1.99988C16.1415 0.652665 16.7119 0.0259672 18.0517 0.161064H18.2393C22.6262 0.0860101 22.6524 0.0822577 22.7875 4.45038C22.8176 5.38105 23.0127 5.8689 24.0334 5.73005C24.3421 5.71127 24.6517 5.71127 24.9603 5.73005C28.9157 5.68126 28.4128 5.6625 28.4353 9.0962Z" fill="#1D3454"/>
</svg>
