<svg width="41" height="37" viewBox="0 0 41 37" fill="none" xmlns="http://www.w3.org/2000/svg">
<path d="M0.357422 18.2865C0.357422 13.7308 0.357422 9.16004 0.357422 4.61547C0.357422 1.77371 1.56358 0.571289 4.42774 0.571289C10.6042 0.571289 16.7806 0.571289 22.9571 0.571289C25.6868 0.571289 27.0274 1.76251 27.0423 4.4661C27.0996 13.7021 27.0996 22.9369 27.0423 32.1704C27.0423 34.818 25.6196 36.0242 22.9346 36.0466C21.5754 36.0466 20.2049 35.942 18.8606 36.0765C17.3071 36.2333 16.9375 35.5649 17.0495 34.1795C17.1372 33.0123 17.1372 31.8402 17.0495 30.673C16.9113 28.5184 15.4139 27.0919 13.5132 27.2002C11.6124 27.3085 10.4399 28.664 10.3689 30.8373C10.3054 32.4879 11.0635 34.6089 10.0664 35.6732C8.97232 36.8308 6.79152 36.0167 5.09244 36.0466C1.33579 36.1101 0.357422 35.1018 0.357422 31.3975C0.357422 27.0284 0.357422 22.6581 0.357422 18.2865ZM20.2833 11.6134C22.0086 12.013 22.6732 11.24 22.6396 9.45878C22.6098 8.01737 22.3334 7.16596 20.5933 7.21824C19.0324 7.25558 17.9793 7.38254 18.1212 9.36543C18.2146 10.818 18.2556 12.0055 20.2833 11.6134ZM20.2311 20.4897C21.8293 20.7661 22.6807 20.2619 22.6359 18.4807C22.6023 17.0244 22.4492 16.0236 20.5597 16.0647C18.9465 16.0983 18.0166 16.3261 18.1212 18.2567C18.1996 19.7616 18.3266 20.8744 20.2311 20.4897ZM9.22624 9.43638C9.49885 7.7485 8.65491 7.25185 6.9857 7.19583C5.26048 7.14729 4.74516 7.7373 4.74516 9.43638C4.74516 11.1355 5.2082 11.7441 6.96329 11.7143C8.6213 11.6807 9.48017 11.24 9.22624 9.43638ZM13.7073 11.6134C15.4176 11.9869 15.9479 11.1616 15.974 9.49613C16.0002 7.83065 15.3877 7.22944 13.6924 7.19957C11.9971 7.16969 11.4257 7.72236 11.4519 9.44011C11.4855 11.0458 11.8253 11.9794 13.7036 11.6134H13.7073ZM4.83851 18.2828C4.53604 19.9557 5.18206 20.6055 6.94089 20.5719C8.57275 20.5345 9.30466 20.0678 9.29346 18.3313C9.29346 16.6845 8.75947 16.031 7.02678 16.0572C5.38371 16.0871 4.50243 16.4941 4.83851 18.2828ZM11.5601 18.3127C11.1867 19.9296 11.8141 20.598 13.5916 20.5532C15.1824 20.5271 15.9964 20.135 15.9778 18.365C15.9778 16.7704 15.5483 16.0012 13.7372 16.0535C12.1576 16.1095 11.1867 16.3933 11.5601 18.3127Z" fill="#A3ADBA"/>
<mask id="path-2-outside-1_395_5681" maskUnits="userSpaceOnUse" x="15.623" y="2.45559" width="27.2594" height="35.952" fill="black">
<rect fill="white" x="15.623" y="2.45559" width="27.2594" height="35.952"/>
<path fill-rule="evenodd" clip-rule="evenodd" d="M33.6819 12.8628L33.6819 12.863C33.4547 13.4766 33.2278 14.0893 32.98 14.694C32.6607 15.4634 32.1008 15.8221 31.2427 15.5329C30.3845 15.2437 30.1419 14.5465 30.4037 13.7956C31.0648 11.891 31.7804 10.0083 32.5504 8.14735C32.6069 7.97137 32.701 7.80974 32.826 7.67361C32.9511 7.53747 33.1041 7.43006 33.2747 7.35877C33.4452 7.28748 33.6292 7.25401 33.8139 7.26067C33.9986 7.26732 34.1797 7.31394 34.3447 7.39732C35.1453 7.73185 35.3535 8.39585 35.0719 9.18972C34.8461 9.81356 34.6086 10.4285 34.3733 11.0377L34.3733 11.0378L34.3733 11.0378L34.3733 11.0378L34.3733 11.0379L34.3732 11.0379L34.3732 11.038L34.3732 11.038C34.2564 11.3406 34.1401 11.6417 34.026 11.9419C33.9094 12.2485 33.7957 12.5558 33.6819 12.8628ZM25.9554 14.1522C27.0543 14.643 27.9257 15.5328 28.3935 16.6417C28.8614 17.7505 28.8906 18.9956 28.4754 20.1252C28.193 20.8683 27.8723 20.8809 27.2049 20.5937C24.8179 19.5688 23.7056 17.1797 24.5502 14.7274C24.9026 13.7118 24.935 13.6972 25.9554 14.1522ZM30.2075 20.821C29.9885 21.4236 29.9563 21.818 30.6715 21.9083C31.2536 22.1353 31.8747 22.2454 32.4993 22.2324C33.1239 22.2193 33.7399 22.0834 34.3119 21.8323C34.884 21.5811 35.401 21.2198 35.8335 20.7689C36.2659 20.318 36.6053 19.7863 36.8322 19.2042C37.0841 18.5503 36.9057 18.2943 36.2977 18.0632C35.7169 17.8425 35.0982 17.7387 34.4772 17.758C33.8561 17.7773 33.245 17.9191 32.679 18.1754C32.113 18.4317 31.6032 18.7974 31.1791 19.2514C30.7549 19.7055 30.4247 20.2389 30.2075 20.821ZM24.673 26.6097C23.6032 26.1285 22.7553 25.2599 22.2999 24.1788C21.8445 23.0977 21.8155 21.8843 22.2185 20.7826C22.501 19.9421 22.8553 19.912 23.5615 20.2207C25.7631 21.1852 26.8562 23.4124 26.2626 25.8323C25.9836 26.9733 25.7219 27.0958 24.673 26.6097ZM27.9563 26.7624C27.6563 27.4989 27.676 27.9333 28.4537 28.054C29.6192 28.4778 30.904 28.4304 32.035 27.9219C33.1661 27.4133 34.0543 26.4837 34.5107 25.3307C34.8158 24.5457 34.4367 24.358 33.8316 24.128C32.7016 23.7251 31.4595 23.7742 30.3648 24.265C29.27 24.7559 28.4072 25.6506 27.9563 26.7624ZM19.9055 26.9392C19.971 26.0061 20.5004 25.9754 21.3511 26.3727C22.4158 26.8668 23.2618 27.735 23.7282 28.8121C24.1945 29.8893 24.2488 31.1003 23.8805 32.2148C23.621 33.0304 23.2408 33.0843 22.5162 32.7887C20.2346 31.8577 19.1066 29.4659 19.9055 26.9392ZM25.6339 32.8908C25.2955 33.6664 25.4379 34.0433 26.159 34.1627C27.327 34.5908 28.6165 34.5433 29.7499 34.0305C30.8833 33.5177 31.7702 32.5805 32.2198 31.4206C32.4732 30.7538 32.2514 30.5149 31.6639 30.2916C30.519 29.8438 29.2438 29.8656 28.1149 30.3522C26.9859 30.8388 26.0945 31.751 25.6339 32.8908ZM35.2949 12.7238C35.3582 12.586 35.4106 12.4425 35.4631 12.2989C35.6046 11.9115 35.7461 11.5242 36.0998 11.2515C36.3206 11.0661 36.5985 10.9623 36.8868 10.9574C37.175 10.9525 37.4562 11.0469 37.6832 11.2247C38.6327 11.8941 38.2932 12.7595 37.9703 13.5827L37.9681 13.5885C37.9327 13.6785 37.8985 13.7713 37.8639 13.8649L37.8639 13.865C37.582 14.6289 37.2783 15.4519 36.1717 15.3697C35.8829 15.3676 35.6036 15.2661 35.3809 15.0823C35.1581 14.8984 35.0054 14.6435 34.9486 14.3603C34.8522 13.9059 35.0057 13.5035 35.1591 13.1013C35.2069 12.976 35.2547 12.8507 35.2949 12.7238ZM27.9989 8.49169C27.8363 8.74825 27.7066 9.02419 27.6128 9.31304C27.5319 9.52586 27.4695 9.69261 27.4181 9.83019C27.3382 10.0439 27.2846 10.1872 27.2288 10.3234C26.8901 11.1527 26.9598 11.8448 27.8778 12.2508C28.7958 12.6569 29.39 12.1902 29.756 11.4217C29.778 11.3753 29.8002 11.3288 29.8224 11.2822C30.1082 10.6835 30.3999 10.0726 30.4057 9.37615C30.4314 9.08925 30.3578 8.80222 30.1972 8.56311C30.0365 8.324 29.7987 8.14731 29.5233 8.06263C29.2601 7.93894 28.9611 7.91424 28.6811 7.99304C28.4012 8.07183 28.159 8.24886 27.9989 8.49169Z"/>
</mask>
<path fill-rule="evenodd" clip-rule="evenodd" d="M33.6819 12.8628L33.6819 12.863C33.4547 13.4766 33.2278 14.0893 32.98 14.694C32.6607 15.4634 32.1008 15.8221 31.2427 15.5329C30.3845 15.2437 30.1419 14.5465 30.4037 13.7956C31.0648 11.891 31.7804 10.0083 32.5504 8.14735C32.6069 7.97137 32.701 7.80974 32.826 7.67361C32.9511 7.53747 33.1041 7.43006 33.2747 7.35877C33.4452 7.28748 33.6292 7.25401 33.8139 7.26067C33.9986 7.26732 34.1797 7.31394 34.3447 7.39732C35.1453 7.73185 35.3535 8.39585 35.0719 9.18972C34.8461 9.81356 34.6086 10.4285 34.3733 11.0377L34.3733 11.0378L34.3733 11.0378L34.3733 11.0378L34.3733 11.0379L34.3732 11.0379L34.3732 11.038L34.3732 11.038C34.2564 11.3406 34.1401 11.6417 34.026 11.9419C33.9094 12.2485 33.7957 12.5558 33.6819 12.8628ZM25.9554 14.1522C27.0543 14.643 27.9257 15.5328 28.3935 16.6417C28.8614 17.7505 28.8906 18.9956 28.4754 20.1252C28.193 20.8683 27.8723 20.8809 27.2049 20.5937C24.8179 19.5688 23.7056 17.1797 24.5502 14.7274C24.9026 13.7118 24.935 13.6972 25.9554 14.1522ZM30.2075 20.821C29.9885 21.4236 29.9563 21.818 30.6715 21.9083C31.2536 22.1353 31.8747 22.2454 32.4993 22.2324C33.1239 22.2193 33.7399 22.0834 34.3119 21.8323C34.884 21.5811 35.401 21.2198 35.8335 20.7689C36.2659 20.318 36.6053 19.7863 36.8322 19.2042C37.0841 18.5503 36.9057 18.2943 36.2977 18.0632C35.7169 17.8425 35.0982 17.7387 34.4772 17.758C33.8561 17.7773 33.245 17.9191 32.679 18.1754C32.113 18.4317 31.6032 18.7974 31.1791 19.2514C30.7549 19.7055 30.4247 20.2389 30.2075 20.821ZM24.673 26.6097C23.6032 26.1285 22.7553 25.2599 22.2999 24.1788C21.8445 23.0977 21.8155 21.8843 22.2185 20.7826C22.501 19.9421 22.8553 19.912 23.5615 20.2207C25.7631 21.1852 26.8562 23.4124 26.2626 25.8323C25.9836 26.9733 25.7219 27.0958 24.673 26.6097ZM27.9563 26.7624C27.6563 27.4989 27.676 27.9333 28.4537 28.054C29.6192 28.4778 30.904 28.4304 32.035 27.9219C33.1661 27.4133 34.0543 26.4837 34.5107 25.3307C34.8158 24.5457 34.4367 24.358 33.8316 24.128C32.7016 23.7251 31.4595 23.7742 30.3648 24.265C29.27 24.7559 28.4072 25.6506 27.9563 26.7624ZM19.9055 26.9392C19.971 26.0061 20.5004 25.9754 21.3511 26.3727C22.4158 26.8668 23.2618 27.735 23.7282 28.8121C24.1945 29.8893 24.2488 31.1003 23.8805 32.2148C23.621 33.0304 23.2408 33.0843 22.5162 32.7887C20.2346 31.8577 19.1066 29.4659 19.9055 26.9392ZM25.6339 32.8908C25.2955 33.6664 25.4379 34.0433 26.159 34.1627C27.327 34.5908 28.6165 34.5433 29.7499 34.0305C30.8833 33.5177 31.7702 32.5805 32.2198 31.4206C32.4732 30.7538 32.2514 30.5149 31.6639 30.2916C30.519 29.8438 29.2438 29.8656 28.1149 30.3522C26.9859 30.8388 26.0945 31.751 25.6339 32.8908ZM35.2949 12.7238C35.3582 12.586 35.4106 12.4425 35.4631 12.2989C35.6046 11.9115 35.7461 11.5242 36.0998 11.2515C36.3206 11.0661 36.5985 10.9623 36.8868 10.9574C37.175 10.9525 37.4562 11.0469 37.6832 11.2247C38.6327 11.8941 38.2932 12.7595 37.9703 13.5827L37.9681 13.5885C37.9327 13.6785 37.8985 13.7713 37.8639 13.8649L37.8639 13.865C37.582 14.6289 37.2783 15.4519 36.1717 15.3697C35.8829 15.3676 35.6036 15.2661 35.3809 15.0823C35.1581 14.8984 35.0054 14.6435 34.9486 14.3603C34.8522 13.9059 35.0057 13.5035 35.1591 13.1013C35.2069 12.976 35.2547 12.8507 35.2949 12.7238ZM27.9989 8.49169C27.8363 8.74825 27.7066 9.02419 27.6128 9.31304C27.5319 9.52586 27.4695 9.69261 27.4181 9.83019C27.3382 10.0439 27.2846 10.1872 27.2288 10.3234C26.8901 11.1527 26.9598 11.8448 27.8778 12.2508C28.7958 12.6569 29.39 12.1902 29.756 11.4217C29.778 11.3753 29.8002 11.3288 29.8224 11.2822C30.1082 10.6835 30.3999 10.0726 30.4057 9.37615C30.4314 9.08925 30.3578 8.80222 30.1972 8.56311C30.0365 8.324 29.7987 8.14731 29.5233 8.06263C29.2601 7.93894 28.9611 7.91424 28.6811 7.99304C28.4012 8.07183 28.159 8.24886 27.9989 8.49169Z" fill="#213858"/>
<path d="M33.6819 12.863L35.2601 13.4474L35.2611 13.4446L33.6819 12.863ZM33.6819 12.8628L32.1038 12.2784L32.1027 12.2812L33.6819 12.8628ZM32.98 14.694L34.5344 15.3391L34.5373 15.332L32.98 14.694ZM30.4037 13.7956L31.9928 14.3497L31.9936 14.3474L30.4037 13.7956ZM32.5504 8.14735L34.1054 8.79078L34.1316 8.72752L34.1525 8.66234L32.5504 8.14735ZM32.826 7.67361L34.0654 8.81201L34.0654 8.81201L32.826 7.67361ZM33.2747 7.35877L32.6256 5.80606L32.6256 5.80606L33.2747 7.35877ZM33.8139 7.26067L33.7533 8.94247L33.8139 7.26067ZM34.3447 7.39732L33.5856 8.8993L33.6398 8.92669L33.6959 8.95011L34.3447 7.39732ZM35.0719 9.18972L36.6544 9.76263L36.658 9.75222L35.0719 9.18972ZM34.3733 11.0377L32.8034 10.4314L32.8002 10.4399L34.3733 11.0377ZM34.3733 11.0378L35.9464 11.6356L35.9464 11.6356L34.3733 11.0378ZM34.3733 11.0378L32.8002 10.4399L34.3733 11.0378ZM34.3733 11.0378L32.8002 10.44L32.8002 10.44L34.3733 11.0378ZM34.3733 11.0379L35.9464 11.6358L35.9464 11.6358L34.3733 11.0379ZM34.3732 11.038L35.9431 11.6443L35.9463 11.6359L34.3732 11.038ZM28.3935 16.6417L29.9441 15.9875L28.3935 16.6417ZM25.9554 14.1522L26.6418 12.6156L26.6408 12.6152L25.9554 14.1522ZM28.4754 20.1252L30.0485 20.7231L30.0518 20.7145L30.055 20.7058L28.4754 20.1252ZM27.2049 20.5937L27.8703 19.0479L27.8689 19.0473L27.2049 20.5937ZM24.5502 14.7274L22.9603 14.1758L22.9591 14.1794L24.5502 14.7274ZM30.6715 21.9083L31.283 20.3404L31.089 20.2648L30.8824 20.2387L30.6715 21.9083ZM30.2075 20.821L28.6308 20.2326L28.6282 20.2395L28.6257 20.2463L30.2075 20.821ZM32.4993 22.2324L32.5345 23.9149L32.5345 23.9149L32.4993 22.2324ZM34.3119 21.8323L34.9883 23.3732L34.9883 23.3732L34.3119 21.8323ZM35.8335 20.7689L37.0481 21.9337L37.0481 21.9337L35.8335 20.7689ZM36.8322 19.2042L38.4001 19.8155L38.4026 19.8091L36.8322 19.2042ZM36.2977 18.0632L35.6998 19.6363L35.6999 19.6363L36.2977 18.0632ZM34.4772 17.758L34.425 16.0759L34.425 16.0759L34.4772 17.758ZM32.679 18.1754L31.9848 16.6424L32.679 18.1754ZM22.2999 24.1788L20.749 24.8321L20.749 24.8321L22.2999 24.1788ZM24.673 26.6097L25.3805 25.0828L25.372 25.0788L25.3634 25.075L24.673 26.6097ZM22.2185 20.7826L23.799 21.3609L23.8066 21.3399L23.8138 21.3187L22.2185 20.7826ZM23.5615 20.2207L24.2368 18.6793L24.2356 18.6788L23.5615 20.2207ZM26.2626 25.8323L24.6282 25.4314L24.6279 25.4325L26.2626 25.8323ZM28.4537 28.054L29.0288 26.4725L28.8743 26.4163L28.7119 26.3911L28.4537 28.054ZM27.9563 26.7624L29.5148 27.3974L29.5158 27.3949L27.9563 26.7624ZM32.035 27.9219L31.3449 26.387L31.3449 26.387L32.035 27.9219ZM34.5107 25.3307L36.0755 25.9501L36.0793 25.9403L34.5107 25.3307ZM33.8316 24.128L34.4295 22.5549L34.4132 22.5487L34.3968 22.5429L33.8316 24.128ZM30.3648 24.265L29.6762 22.7294L29.6762 22.7294L30.3648 24.265ZM21.3511 26.3727L20.6391 27.8975L20.6427 27.8992L21.3511 26.3727ZM19.9055 26.9392L21.5101 27.4466L21.5703 27.2563L21.5843 27.0572L19.9055 26.9392ZM23.7282 28.8121L25.2725 28.1435L25.2725 28.1435L23.7282 28.8121ZM23.8805 32.2148L22.2826 31.6868L22.2797 31.6956L22.2769 31.7044L23.8805 32.2148ZM22.5162 32.7887L21.8803 34.3469L21.8806 34.347L22.5162 32.7887ZM26.159 34.1627L26.7381 32.5825L26.5898 32.5282L26.4339 32.5024L26.159 34.1627ZM25.6339 32.8908L27.1763 33.5639L27.1856 33.5427L27.1942 33.5213L25.6339 32.8908ZM29.7499 34.0305L30.4436 35.5638L30.4436 35.5638L29.7499 34.0305ZM32.2198 31.4206L33.789 32.0287L33.7929 32.0184L32.2198 31.4206ZM31.6639 30.2916L31.0509 31.8589L31.0585 31.8619L31.066 31.8647L31.6639 30.2916ZM35.4631 12.2989L33.8823 11.7215L33.8823 11.7215L35.4631 12.2989ZM35.2949 12.7238L33.7656 12.0215L33.7222 12.116L33.6907 12.2151L35.2949 12.7238ZM36.0998 11.2515L37.1272 12.5845L37.155 12.563L37.182 12.5403L36.0998 11.2515ZM37.6832 11.2247L36.6453 12.5494L36.6788 12.5756L36.7135 12.6001L37.6832 11.2247ZM37.9703 13.5827L39.537 14.1973L39.537 14.1973L37.9703 13.5827ZM37.9681 13.5885L36.4014 12.9739L36.4014 12.9739L37.9681 13.5885ZM37.8639 13.8649L39.4371 14.4628L39.44 14.4552L39.4428 14.4475L37.8639 13.8649ZM37.8639 13.865L36.2908 13.2671L36.2879 13.2748L36.2851 13.2824L37.8639 13.865ZM36.1717 15.3697L36.2964 13.6914L36.2403 13.6873L36.184 13.6869L36.1717 15.3697ZM35.3809 15.0823L34.3097 16.3802L34.3097 16.3802L35.3809 15.0823ZM34.9486 14.3603L36.5986 14.029L36.5967 14.02L36.5948 14.011L34.9486 14.3603ZM35.1591 13.1013L33.5867 12.5015L33.5867 12.5015L35.1591 13.1013ZM27.6128 9.31304L29.1859 9.91091L29.2005 9.87235L29.2133 9.83311L27.6128 9.31304ZM27.9989 8.49169L26.5938 7.56542L26.5854 7.57817L26.5773 7.59108L27.9989 8.49169ZM27.4181 9.83019L28.9944 10.4195L28.9944 10.4195L27.4181 9.83019ZM27.2288 10.3234L25.6717 9.68492L25.6708 9.68712L27.2288 10.3234ZM27.8778 12.2508L27.1971 13.7899L27.8778 12.2508ZM29.756 11.4217L31.2754 12.1454L31.2767 12.1426L29.756 11.4217ZM29.8224 11.2822L31.3412 12.0072L31.3412 12.0072L29.8224 11.2822ZM30.4057 9.37615L28.7295 9.22592L28.7234 9.29388L28.7228 9.36211L30.4057 9.37615ZM30.1972 8.56311L31.5941 7.6247L31.5941 7.6247L30.1972 8.56311ZM29.5233 8.06263L28.8077 9.58577L28.9151 9.63625L29.0286 9.67115L29.5233 8.06263ZM28.6811 7.99304L28.2252 6.37308L28.2252 6.37308L28.6811 7.99304ZM35.2611 13.4446L35.2611 13.4445L32.1027 12.2812L32.1027 12.2814L35.2611 13.4446ZM34.5373 15.332C34.7978 14.6962 35.0345 14.0565 35.2601 13.4474L32.1037 12.2786C31.8749 12.8966 31.6578 13.4823 31.4227 14.056L34.5373 15.332ZM30.7053 17.1277C31.4467 17.3775 32.2966 17.4171 33.0914 17.0027C33.8502 16.6072 34.2858 15.9381 34.5344 15.3391L31.4257 14.049C31.3549 14.2194 31.351 14.1143 31.5355 14.0182C31.6287 13.9696 31.7198 13.9516 31.7842 13.9498C31.841 13.9482 31.8445 13.9599 31.78 13.9381L30.7053 17.1277ZM28.8147 13.2414C28.5808 13.9123 28.5147 14.7316 28.8652 15.5206C29.227 16.3352 29.9197 16.863 30.7053 17.1277L31.78 13.9381C31.7363 13.9234 31.754 13.9217 31.7991 13.9598C31.8475 14.0007 31.9023 14.0668 31.9412 14.1542C32.0213 14.3346 31.9649 14.4298 31.9928 14.3497L28.8147 13.2414ZM30.9953 7.50392C30.2128 9.39506 29.4857 11.3083 28.8139 13.2437L31.9936 14.3474C32.644 12.4737 33.3479 10.6215 34.1054 8.79078L30.9953 7.50392ZM31.5866 6.5352C31.297 6.85049 31.0792 7.2248 30.9482 7.63235L34.1525 8.66234C34.1347 8.71794 34.1049 8.769 34.0654 8.81201L31.5866 6.5352ZM32.6256 5.80606C32.2307 5.97116 31.8762 6.21992 31.5866 6.5352L34.0654 8.81201C34.0259 8.85502 33.9776 8.88896 33.9237 8.91148L32.6256 5.80606ZM33.8745 5.57886C33.4467 5.56345 33.0206 5.64097 32.6256 5.80606L33.9237 8.91148C33.8698 8.934 33.8117 8.94457 33.7533 8.94247L33.8745 5.57886ZM35.1038 5.89534C34.7217 5.70224 34.3023 5.59428 33.8745 5.57886L33.7533 8.94247C33.695 8.94037 33.6378 8.92564 33.5856 8.8993L35.1038 5.89534ZM36.658 9.75222C36.8863 9.10872 36.9883 8.31394 36.6869 7.52237C36.3726 6.69705 35.7251 6.15022 34.9935 5.84452L33.6959 8.95011C33.7381 8.96774 33.7189 8.96728 33.6747 8.92516C33.6265 8.87919 33.5751 8.80857 33.5414 8.72016C33.4738 8.54269 33.5392 8.47685 33.4858 8.62721L36.658 9.75222ZM35.9432 11.644C36.1775 11.0374 36.4214 10.406 36.6543 9.76262L33.4896 8.61682C33.2708 9.22114 33.0397 9.81954 32.8034 10.4314L35.9432 11.644ZM35.9464 11.6356L35.9464 11.6356L32.8002 10.4399L32.8002 10.4399L35.9464 11.6356ZM35.9464 11.6357L35.9464 11.6356L32.8002 10.4399L32.8002 10.4399L35.9464 11.6357ZM35.9464 11.6357L35.9464 11.6357L32.8002 10.4399L32.8002 10.44L35.9464 11.6357ZM35.9464 11.6358L35.9464 11.6357L32.8002 10.44L32.8001 10.44L35.9464 11.6358ZM35.9463 11.6358L35.9464 11.6358L32.8001 10.44L32.8001 10.4401L35.9463 11.6358ZM35.9463 11.6358L35.9463 11.6358L32.8001 10.4401L32.8001 10.4401L35.9463 11.6358ZM35.9463 11.6359L35.9463 11.6358L32.8001 10.4401L32.8001 10.4401L35.9463 11.6359ZM35.5991 12.5397C35.7113 12.2445 35.826 11.9476 35.9431 11.6443L32.8033 10.4317C32.6868 10.7336 32.5688 11.0389 32.4529 11.344L35.5991 12.5397ZM35.2601 13.4473C35.3742 13.1391 35.4855 12.8385 35.5991 12.5397L32.4529 11.344C32.3334 11.6585 32.2171 11.9725 32.1038 12.2784L35.2601 13.4473ZM29.9441 15.9875C29.3105 14.4856 28.1301 13.2804 26.6418 12.6156L25.2691 15.6888C25.9784 16.0056 26.541 16.5801 26.843 17.2959L29.9441 15.9875ZM30.055 20.7058C30.6174 19.1758 30.5777 17.4894 29.9441 15.9875L26.843 17.2959C27.145 18.0117 27.1639 18.8154 26.8959 19.5446L30.055 20.7058ZM26.5396 22.1394C26.8256 22.2625 27.6143 22.6158 28.4714 22.3567C29.4729 22.054 29.8749 21.18 30.0485 20.7231L26.9023 19.5274C26.862 19.6335 26.8624 19.5957 26.9328 19.5069C27.0231 19.393 27.2085 19.2223 27.4976 19.1349C27.7618 19.055 27.9592 19.0923 27.9992 19.1009C28.0312 19.1078 28.0043 19.1056 27.8703 19.0479L26.5396 22.1394ZM22.9591 14.1794C21.8163 17.4974 23.3761 20.7813 26.541 22.1401L27.8689 19.0473C26.2596 18.3564 25.595 16.8619 26.1414 15.2755L22.9591 14.1794ZM26.6408 12.6152C26.4141 12.5141 26.1195 12.3817 25.8496 12.2987C25.602 12.2226 25.0127 12.0651 24.3636 12.3314C23.6972 12.6047 23.3922 13.1476 23.2697 13.3925C23.1421 13.6478 23.0373 13.954 22.9603 14.1758L26.1401 15.2791C26.1846 15.151 26.2166 15.0602 26.2439 14.9882C26.2719 14.9141 26.2829 14.8923 26.2802 14.8977C26.2791 14.8998 26.2395 14.9815 26.1486 15.0856C26.0469 15.2022 25.8807 15.347 25.6411 15.4453C25.404 15.5425 25.1917 15.5546 25.0535 15.5463C24.9875 15.5423 24.9374 15.5336 24.9079 15.5275C24.8782 15.5214 24.8613 15.5162 24.8603 15.5159C24.8591 15.5155 24.8673 15.518 24.8876 15.5256C24.9076 15.5331 24.9349 15.5438 24.9717 15.5591C25.0481 15.5908 25.1417 15.632 25.27 15.6892L26.6408 12.6152ZM30.8824 20.2387C30.8327 20.2324 30.9688 20.2389 31.1613 20.3598C31.4026 20.5113 31.6121 20.7677 31.7049 21.0859C31.7806 21.3458 31.7434 21.53 31.7422 21.5367C31.7395 21.5515 31.745 21.5172 31.7892 21.3957L28.6257 20.2463C28.5604 20.4261 28.4799 20.6671 28.4319 20.9281C28.3854 21.1811 28.3438 21.5825 28.4735 22.0276C28.8121 23.1894 29.8678 23.5031 30.4607 23.578L30.8824 20.2387ZM32.4641 20.5499C32.0605 20.5583 31.6591 20.4871 31.283 20.3404L30.0601 23.4762C30.8481 23.7835 31.6889 23.9326 32.5345 23.9149L32.4641 20.5499ZM33.6355 20.2913C33.2658 20.4535 32.8678 20.5414 32.4641 20.5499L32.5345 23.9149C33.3801 23.8972 34.2139 23.7132 34.9883 23.3732L33.6355 20.2913ZM34.6188 19.6041C34.3394 19.8955 34.0052 20.129 33.6355 20.2913L34.9883 23.3732C35.7628 23.0333 36.4627 22.5441 37.0481 21.9337L34.6188 19.6041ZM35.2642 18.5929C35.1176 18.9691 34.8983 19.3127 34.6188 19.6041L37.0481 21.9337C37.6335 21.3233 38.0929 20.6035 38.4001 19.8155L35.2642 18.5929ZM35.6999 19.6363C35.7947 19.6724 35.7836 19.6772 35.728 19.6395C35.6615 19.5943 35.5062 19.4709 35.3884 19.24C35.266 19.0002 35.2528 18.7798 35.2625 18.6534C35.2705 18.5493 35.2928 18.5186 35.2618 18.5993L38.4026 19.8091C38.5704 19.3734 38.8155 18.5513 38.3864 17.7103C37.9865 16.9264 37.235 16.6191 36.8956 16.4901L35.6999 19.6363ZM34.5293 19.4401C34.9286 19.4277 35.3264 19.4944 35.6998 19.6363L36.8956 16.4901C36.1074 16.1906 35.2678 16.0498 34.425 16.0759L34.5293 19.4401ZM33.3732 19.7085C33.7371 19.5437 34.13 19.4525 34.5293 19.4401L34.425 16.0759C33.5822 16.102 32.7529 16.2946 31.9848 16.6424L33.3732 19.7085ZM32.4088 20.4003C32.6815 20.1084 33.0093 19.8732 33.3732 19.7085L31.9848 16.6424C31.2167 16.9902 30.5249 17.4864 29.9493 18.1026L32.4088 20.4003ZM31.7841 21.4094C31.9238 21.0352 32.1361 20.6922 32.4088 20.4003L29.9493 18.1026C29.3737 18.7187 28.9256 19.4426 28.6308 20.2326L31.7841 21.4094ZM20.749 24.8321C21.3695 26.3052 22.5248 27.4887 23.9826 28.1445L25.3634 25.075C24.6815 24.7682 24.1411 24.2146 23.8508 23.5255L20.749 24.8321ZM20.6381 20.2044C20.0889 21.7055 20.1285 23.359 20.749 24.8321L23.8508 23.5255C23.5606 22.8365 23.5421 22.0631 23.799 21.3609L20.6381 20.2044ZM24.2356 18.6788C23.9164 18.5392 23.0778 18.1675 22.1769 18.4817C21.1689 18.8332 20.789 19.7536 20.6233 20.2465L23.8138 21.3187C23.8574 21.1887 23.8674 21.2062 23.8122 21.2825C23.7406 21.3817 23.5718 21.5598 23.2853 21.6597C23.0173 21.7532 22.811 21.7198 22.7625 21.7101C22.7247 21.7025 22.7508 21.703 22.8874 21.7627L24.2356 18.6788ZM27.897 26.2332C28.68 23.0414 27.2088 19.9812 24.2368 18.6793L22.8862 21.7622C24.3174 22.3892 25.0324 23.7835 24.6282 25.4314L27.897 26.2332ZM23.9654 28.1366C24.2513 28.2691 24.5996 28.4169 24.9609 28.4969C25.3338 28.5794 25.9034 28.6309 26.4922 28.3447C27.0786 28.0597 27.3902 27.5823 27.5566 27.2413C27.7187 26.9088 27.8212 26.5433 27.8973 26.2321L24.6279 25.4325C24.5645 25.6918 24.5296 25.7695 24.5314 25.7657C24.5374 25.7534 24.6658 25.4901 25.0208 25.3176C25.3782 25.1439 25.6682 25.2062 25.6883 25.2106C25.6968 25.2125 25.6191 25.1934 25.3805 25.0828L23.9654 28.1366ZM28.7119 26.3911C28.6468 26.381 28.7563 26.3856 28.9226 26.4937C29.1307 26.6288 29.3242 26.86 29.4129 27.1561C29.487 27.4032 29.451 27.5744 29.4505 27.5766C29.449 27.5845 29.459 27.5343 29.5148 27.3974L26.3978 26.1274C26.3035 26.3588 26.2035 26.6391 26.1456 26.9393C26.0888 27.2339 26.0501 27.6593 26.1888 28.1221C26.5344 29.2758 27.5743 29.6205 28.1955 29.717L28.7119 26.3911ZM31.3449 26.387C30.6134 26.7159 29.7825 26.7465 29.0288 26.4725L27.8786 29.6356C29.4558 30.2091 31.1945 30.145 32.7252 29.4568L31.3449 26.387ZM32.946 24.7112C32.6508 25.4569 32.0764 26.0581 31.3449 26.387L32.7252 29.4568C34.2558 28.7686 35.4577 27.5105 36.0755 25.9501L32.946 24.7112ZM33.2338 25.7011C33.3035 25.7276 33.3523 25.7469 33.3905 25.7631C33.4286 25.7792 33.4418 25.7863 33.4398 25.7853C33.4379 25.7842 33.4067 25.7675 33.3606 25.7318C33.3132 25.6949 33.2437 25.633 33.1733 25.5404C33.0097 25.3254 32.939 25.0772 32.9357 24.8707C32.9331 24.7066 32.974 24.639 32.9421 24.7211L36.0793 25.9403C36.316 25.3313 36.5099 24.367 35.8516 23.502C35.5823 23.1482 35.2565 22.9404 35.032 22.8199C34.8095 22.7004 34.5796 22.6119 34.4295 22.5549L33.2338 25.7011ZM31.0533 25.8006C31.7522 25.4873 32.545 25.4559 33.2664 25.7132L34.3968 22.5429C32.8581 21.9942 31.1669 22.0611 29.6762 22.7294L31.0533 25.8006ZM29.5158 27.3949C29.8037 26.6851 30.3545 26.114 31.0533 25.8006L29.6762 22.7294C28.1856 23.3978 27.0107 24.6161 26.3968 26.13L29.5158 27.3949ZM22.0632 24.8478C21.7943 24.7223 21.4799 24.5961 21.1458 24.5207C20.8215 24.4476 20.3528 24.3932 19.8467 24.5462C18.564 24.9342 18.2745 26.1418 18.2267 26.8213L21.5843 27.0572C21.5913 26.9563 21.6026 27.0553 21.5052 27.228C21.4511 27.324 21.3648 27.4395 21.2354 27.5457C21.1044 27.6533 20.9602 27.7258 20.8211 27.7679C20.6871 27.8084 20.5773 27.8151 20.5099 27.814C20.4438 27.8129 20.4062 27.8042 20.4053 27.804C20.4036 27.8036 20.4226 27.8079 20.4659 27.8239C20.5086 27.8396 20.5656 27.8632 20.6391 27.8975L22.0632 24.8478ZM25.2725 28.1435C24.6422 26.6875 23.4987 25.514 22.0596 24.8461L20.6427 27.8992C21.333 28.2195 21.8815 28.7824 22.1838 29.4808L25.2725 28.1435ZM25.4785 32.7427C25.9762 31.2363 25.9029 29.5994 25.2725 28.1435L22.1838 29.4808C22.4862 30.1791 22.5213 30.9642 22.2826 31.6868L25.4785 32.7427ZM21.8806 34.347C22.2441 34.4953 23.0679 34.8167 23.9426 34.5019C24.9345 34.145 25.316 33.2536 25.4842 32.7251L22.2769 31.7044C22.2413 31.8164 22.2358 31.7871 22.2972 31.7024C22.3754 31.5945 22.5397 31.4297 22.8029 31.335C23.0468 31.2472 23.2336 31.2715 23.2772 31.2788C23.3119 31.2846 23.2831 31.284 23.1517 31.2305L21.8806 34.347ZM18.3009 26.4319C17.2495 29.7572 18.7517 33.0702 21.8803 34.3469L23.152 31.2305C21.7175 30.6452 20.9637 29.1747 21.5101 27.4466L18.3009 26.4319ZM26.4339 32.5024C26.368 32.4915 26.4445 32.4935 26.5769 32.5712C26.7382 32.6659 26.9415 32.851 27.059 33.1412C27.1658 33.4049 27.1423 33.6102 27.1343 33.6611C27.1269 33.7083 27.1236 33.6847 27.1763 33.5639L24.0915 32.2177C23.9028 32.65 23.5783 33.5129 23.9393 34.4044C24.3637 35.4526 25.3576 35.7358 25.884 35.8229L26.4339 32.5024ZM29.0562 32.4972C28.3245 32.8283 27.4921 32.8589 26.7381 32.5825L25.5799 35.7428C27.1619 36.3226 28.9084 36.2583 30.4436 35.5638L29.0562 32.4972ZM30.6506 30.8124C30.3604 31.5612 29.7879 32.1662 29.0562 32.4972L30.4436 35.5638C31.9788 34.8692 33.18 33.5998 33.7889 32.0287L30.6506 30.8124ZM31.066 31.8647C31.1663 31.9028 31.1653 31.9106 31.1213 31.8822C31.0691 31.8485 30.9179 31.7391 30.7942 31.5215C30.6617 31.2885 30.6344 31.062 30.6414 30.9147C30.6471 30.7935 30.6744 30.7498 30.6466 30.8227L33.7929 32.0184C33.9743 31.5409 34.1971 30.6971 33.7201 29.858C33.3006 29.1201 32.5644 28.8335 32.2618 28.7185L31.066 31.8647ZM28.781 31.8977C29.503 31.5864 30.3187 31.5725 31.0509 31.8589L32.2769 28.7244C30.7194 28.1152 28.9845 28.1448 27.4487 28.8068L28.781 31.8977ZM27.1942 33.5213C27.4888 32.7923 28.059 32.2089 28.781 31.8977L27.4487 28.8068C25.9129 29.4688 24.7001 30.7097 24.0736 32.2603L27.1942 33.5213ZM33.8823 11.7215C33.8259 11.8761 33.7959 11.9555 33.7656 12.0215L36.8242 13.4261C36.9205 13.2166 36.9954 13.0089 37.0438 12.8763L33.8823 11.7215ZM35.0725 9.91856C34.2754 10.5329 33.9999 11.3997 33.8823 11.7215L37.0438 12.8763C37.081 12.7746 37.106 12.7066 37.1312 12.6447C37.1551 12.5858 37.1712 12.5529 37.1811 12.5346C37.1965 12.5063 37.1805 12.5434 37.1272 12.5845L35.0725 9.91856ZM36.8582 9.27472C36.184 9.28615 35.5341 9.52905 35.0177 9.96269L37.182 12.5403C37.1072 12.6032 37.013 12.6384 36.9153 12.64L36.8582 9.27472ZM38.7211 9.89994C38.1902 9.48404 37.5325 9.2633 36.8582 9.27472L36.9153 12.64C36.8176 12.6417 36.7222 12.6097 36.6453 12.5494L38.7211 9.89994ZM39.537 14.1973C39.6692 13.8602 39.9742 13.1392 39.9866 12.3734C40.0024 11.4026 39.5737 10.4984 38.6529 9.84923L36.7135 12.6001C36.7693 12.6394 36.7255 12.623 36.6772 12.5288C36.6273 12.4317 36.6208 12.3463 36.6213 12.3187C36.6214 12.3073 36.6219 12.3494 36.5837 12.4761C36.5445 12.6064 36.4891 12.7502 36.4037 12.9681L39.537 14.1973ZM39.5347 14.2031L39.537 14.1973L36.4037 12.9681L36.4014 12.9739L39.5347 14.2031ZM39.4428 14.4475C39.4784 14.3509 39.5067 14.2745 39.5347 14.2031L36.4014 12.9739C36.3587 13.0826 36.3186 13.1917 36.2851 13.2823L39.4428 14.4475ZM39.437 14.4629L39.4371 14.4628L36.2908 13.2671L36.2908 13.2671L39.437 14.4629ZM36.0471 17.048C37.1246 17.128 38.001 16.7341 38.6047 16.0301C39.0878 15.4666 39.3275 14.76 39.4427 14.4476L36.2851 13.2824C36.2102 13.4852 36.1618 13.6136 36.1108 13.7232C36.0616 13.8286 36.0385 13.852 36.0495 13.8392C36.0701 13.8152 36.1292 13.759 36.2231 13.7203C36.3144 13.6828 36.3561 13.6959 36.2964 13.6914L36.0471 17.048ZM34.3097 16.3802C34.8307 16.8102 35.484 17.0476 36.1595 17.0526L36.184 13.6869C36.2819 13.6876 36.3765 13.722 36.452 13.7843L34.3097 16.3802ZM33.2986 14.6916C33.4316 15.3539 33.7887 15.9502 34.3097 16.3802L36.452 13.7843C36.5275 13.8466 36.5793 13.933 36.5986 14.029L33.2986 14.6916ZM33.5867 12.5015C33.4594 12.8352 33.0876 13.6973 33.3023 14.7096L36.5948 14.011C36.6082 14.0738 36.5959 14.1088 36.6041 14.0714C36.6092 14.048 36.6196 14.0093 36.6413 13.9453C36.6641 13.8782 36.6912 13.8065 36.7315 13.701L33.5867 12.5015ZM33.6907 12.2151C33.6676 12.2882 33.6375 12.3684 33.5867 12.5015L36.7315 13.701C36.7763 13.5835 36.8418 13.4131 36.8991 13.2325L33.6907 12.2151ZM29.2133 9.83311C29.2637 9.67809 29.3333 9.53 29.4205 9.3923L26.5773 7.59108C26.3394 7.96651 26.1496 8.37029 26.0123 8.79297L29.2133 9.83311ZM28.9944 10.4195C29.0458 10.2822 29.1067 10.1191 29.1859 9.91091L26.0397 8.71517C25.957 8.93256 25.8933 9.10297 25.8418 9.24085L28.9944 10.4195ZM28.7858 10.9619C28.8538 10.7962 28.9174 10.6257 28.9944 10.4195L25.8418 9.24085C25.7591 9.46211 25.7155 9.57823 25.6717 9.68492L28.7858 10.9619ZM28.5585 10.7118C28.4803 10.6771 28.4989 10.6709 28.5519 10.7258C28.5791 10.7539 28.6106 10.7934 28.6398 10.8444C28.6692 10.8956 28.6908 10.9489 28.7049 11.0005C28.7333 11.1039 28.7227 11.1654 28.7243 11.1546C28.7264 11.1401 28.7384 11.0782 28.7867 10.9597L25.6708 9.68712C25.4428 10.2453 25.2262 11.0422 25.4591 11.8912C25.718 12.8344 26.4128 13.443 27.1971 13.7899L28.5585 10.7118ZM28.2366 10.6981C28.1906 10.7947 28.1564 10.8408 28.1456 10.8537C28.1362 10.865 28.1648 10.8269 28.2427 10.7861C28.3292 10.7408 28.4293 10.7172 28.5189 10.7178C28.5999 10.7184 28.6184 10.7382 28.5585 10.7118L27.1971 13.7899C28.0299 14.1583 28.9566 14.212 29.8051 13.7673C30.5684 13.3673 31.0148 12.6924 31.2753 12.1454L28.2366 10.6981ZM28.3037 10.5572C28.2816 10.6034 28.2585 10.652 28.2353 10.7009L31.2767 12.1426C31.2976 12.0985 31.3188 12.0541 31.3412 12.0072L28.3037 10.5572ZM28.7228 9.36211C28.7207 9.62533 28.6157 9.90363 28.3037 10.5572L31.3412 12.0072C31.6008 11.4633 32.0791 10.5198 32.0885 9.39019L28.7228 9.36211ZM28.8002 9.50151C28.7457 9.42046 28.7208 9.32317 28.7295 9.22592L32.0819 9.52637C32.142 8.85532 31.9698 8.18397 31.5941 7.6247L28.8002 9.50151ZM29.0286 9.67115C28.9353 9.64245 28.8546 9.58256 28.8002 9.50151L31.5941 7.6247C31.2184 7.06543 30.6621 6.65217 30.0181 6.4541L29.0286 9.67115ZM29.1371 9.61299C29.0276 9.64381 28.9106 9.63415 28.8077 9.58577L30.239 6.53948C29.6096 6.24374 28.8946 6.18467 28.2252 6.37308L29.1371 9.61299ZM29.4039 9.41795C29.3413 9.51293 29.2466 9.58217 29.1371 9.61299L28.2252 6.37308C27.5558 6.5615 26.9766 6.98479 26.5938 7.56542L29.4039 9.41795Z" fill="#F5F5F5" mask="url(#path-2-outside-1_395_5681)"/>
</svg>
