<svg width="37" height="37" viewBox="0 0 37 37" fill="none" xmlns="http://www.w3.org/2000/svg">
<path d="M16.9394 26.8101C16.9394 28.6084 17.0183 30.4142 16.9207 32.2088C16.808 34.2737 15.6592 35.6065 13.9172 35.9632C11.8448 36.3724 10.3618 35.6328 9.41194 33.5979C9.1191 32.9672 8.86005 32.7157 8.09791 32.6781C5.13947 32.5242 3.48004 30.8009 3.59268 27.9138C3.63022 27.0053 3.30359 26.6449 2.64282 26.1756C-0.552143 23.9229 -0.709826 19.7931 2.31244 17.2965C2.98071 16.7409 3.2285 16.4405 2.83805 15.5244C1.86191 13.223 2.56773 11.1544 4.6927 9.93794C5.48487 9.48742 5.99922 9.09697 5.77021 8.13585C5.7492 8.01158 5.7492 7.88468 5.77021 7.76041C5.83778 6.86312 6.05554 5.77811 6.76887 5.44397C9.05152 4.38524 9.34436 1.35171 11.7772 0.563296C14.3151 -0.247647 16.6579 1.41554 16.8869 4.17499C16.9657 5.2899 16.9657 6.40898 16.8869 7.52389C16.8568 8.08704 17.2623 8.87546 16.5114 9.17205C15.7906 9.44237 15.1561 9.25465 14.5517 8.57886C13.4591 7.35869 12.085 7.18224 10.726 8.20343C10.4193 8.41909 10.1612 8.69661 9.96831 9.01809C9.77541 9.33957 9.652 9.6979 9.60602 10.07C9.56004 10.4421 9.59251 10.8197 9.70134 11.1784C9.81017 11.5372 9.99295 11.8692 10.2379 12.153C10.4689 12.4458 10.7562 12.6893 11.0829 12.8693C11.4095 13.0493 11.7689 13.162 12.1398 13.2008C12.5107 13.2397 12.8857 13.2038 13.2425 13.0954C13.5993 12.9871 13.9309 12.8083 14.2175 12.5698C14.5029 12.3407 14.6868 11.9728 14.9872 11.7813C15.9821 11.1468 16.8906 11.6424 16.9132 12.8213C16.9357 14.1879 16.8568 15.5582 16.9357 16.9173C16.9958 17.931 16.5978 18.2051 15.6554 18.1562C14.4203 18.0924 13.1663 18.0286 12.0062 18.6105C10.9249 19.1549 8.28188 24.152 8.51089 25.3271C8.59022 25.918 8.85753 26.4677 9.27332 26.895C9.6891 27.3222 10.2313 27.6044 10.8198 27.6998C11.3734 27.8238 11.9523 27.7633 12.4682 27.5274C12.9841 27.2914 13.4086 26.8932 13.6769 26.3933C14.0143 25.9002 14.1737 25.3068 14.1286 24.711C14.0836 24.1152 13.8369 23.5525 13.4291 23.1158C12.8509 22.4587 11.9274 21.828 12.7458 20.9758C13.6919 19.9734 15.0998 20.3938 16.2937 20.4915C17.3336 20.5741 16.8756 21.5577 16.8981 22.1509C16.9582 23.7014 16.8981 25.2557 16.8981 26.8063L16.9394 26.8101Z" fill="#1C3456"/>
<path d="M19.1999 18.2843C19.1999 16.486 19.2638 14.6801 19.1737 12.8855C19.1211 11.7968 19.504 11.4438 20.5403 11.5602C21.156 11.6278 21.7829 11.5602 22.4174 11.5865C22.6654 11.5637 22.9136 11.6281 23.1191 11.7686C23.3247 11.9091 23.4749 12.1169 23.5437 12.3562C23.6402 12.5858 23.6555 12.8414 23.5873 13.0809C23.519 13.3205 23.3713 13.5296 23.1683 13.6739C22.8071 13.9212 22.5102 14.2512 22.3025 14.6366C22.0948 15.0219 21.9823 15.4513 21.9744 15.889C21.9335 16.4851 22.0916 17.078 22.4238 17.5747C22.7561 18.0713 23.2437 18.4437 23.8103 18.6335C25.1393 19.1666 26.2657 18.6823 27.0653 17.556C27.865 16.4296 27.8162 15.247 26.9527 14.2934C26.3383 13.6318 25.9322 12.804 25.7851 11.9131C25.4097 10.036 24.1482 9.30761 21.6553 9.28509C19.1624 9.26256 19.1924 9.25505 19.1962 6.82598C19.1604 5.83346 19.1755 4.83975 19.2412 3.84877C19.2882 2.99931 19.6345 2.19393 20.2186 1.57542C20.8028 0.956916 21.5871 0.56524 22.4325 0.469841C24.3584 0.161983 25.894 0.942891 26.6449 2.72246C26.9152 3.37196 27.163 3.88631 27.8575 4.2242C29.8173 5.24539 29.8999 7.12257 30.5043 8.97348C30.9962 10.4752 34.0184 11.2261 33.5604 13.3248C33.0085 15.8252 33.9659 17.3307 35.2499 19.1966C36.7779 21.4229 35.9557 24.3664 33.7481 25.9545C32.8921 26.5664 32.4266 27.0094 32.5279 28.2484C32.7269 30.6737 30.8084 32.5584 28.2442 32.671C27.3694 32.7086 26.994 32.9188 26.6411 33.7485C25.8452 35.6257 24.2571 36.3465 22.2335 35.9636C20.5215 35.6407 19.3952 34.3342 19.23 32.4195C19.138 31.679 19.138 30.9299 19.23 30.1894C19.3989 29.2283 18.5467 27.6627 19.7105 27.4149C21.0508 27.1296 22.6953 26.6903 24.0318 28.117C25.1581 29.3334 26.9302 29.1044 27.9889 27.9067C28.4449 27.3914 28.6912 26.7239 28.6794 26.0359C28.6676 25.3479 28.3985 24.6893 27.9251 24.1899C26.7988 22.9885 25.053 22.7745 23.9793 24.051C22.7403 25.5302 21.2536 24.8319 19.8495 24.9558C19.1211 25.0159 19.1962 24.3701 19.1962 23.8783C19.1962 22.0086 19.1999 20.1465 19.1999 18.2843Z" fill="#1C3456"/>
<path d="M12.4486 11.4286C11.7954 11.3798 11.4199 11.0644 11.4199 10.3849C11.4199 9.70535 11.8404 9.39749 12.4899 9.39373C12.6294 9.37784 12.7706 9.39342 12.9032 9.43933C13.0359 9.48523 13.1565 9.5603 13.2563 9.659C13.3561 9.7577 13.4324 9.87752 13.4798 10.0096C13.5271 10.1418 13.5443 10.2828 13.5299 10.4224C13.5363 10.5628 13.5121 10.7029 13.4589 10.833C13.4058 10.9631 13.325 11.08 13.2221 11.1758C13.1192 11.2715 12.9968 11.3437 12.8632 11.3874C12.7296 11.431 12.5882 11.4451 12.4486 11.4286Z" fill="#1C3456"/>
<path d="M24.6257 14.9614C25.4329 14.9614 25.8195 15.3669 25.8195 15.9901C25.8333 16.1304 25.8155 16.272 25.7675 16.4046C25.7195 16.5371 25.6425 16.6573 25.5421 16.7562C25.4417 16.8552 25.3205 16.9305 25.1872 16.9765C25.054 17.0226 24.9122 17.0383 24.7721 17.0226C24.1151 17.0226 23.7058 16.6734 23.7058 16.0089C23.6962 15.8794 23.7124 15.7494 23.7536 15.6263C23.7948 15.5032 23.8601 15.3895 23.9458 15.292C24.0314 15.1945 24.1357 15.115 24.2524 15.0582C24.3692 15.0015 24.4961 14.9686 24.6257 14.9614Z" fill="#1C3456"/>
<path d="M26.9447 26.1002C26.8396 26.7985 26.4491 27.1289 25.8184 27.0801C25.6789 27.0843 25.5403 27.0575 25.4124 27.0016C25.2846 26.9457 25.1708 26.8621 25.0792 26.7568C24.9876 26.6516 24.9205 26.5273 24.8828 26.393C24.845 26.2587 24.8376 26.1176 24.861 25.9801C24.9023 25.293 25.3416 25.0415 25.9873 25.0678C26.6331 25.094 26.9071 25.5183 26.9447 26.1002Z" fill="#1C3456"/>
<path d="M11.2584 23.9232C12.1219 23.9758 12.4561 24.4075 12.4073 25.0232C12.4047 25.1624 12.3723 25.2995 12.3122 25.4251C12.2522 25.5507 12.1658 25.6619 12.059 25.7513C11.9522 25.8406 11.8275 25.906 11.6933 25.9429C11.559 25.9799 11.4184 25.9876 11.281 25.9656C11.1387 25.9745 10.9962 25.9511 10.8642 25.897C10.7323 25.843 10.6144 25.7596 10.5193 25.6534C10.4242 25.5471 10.3545 25.4206 10.3154 25.2835C10.2763 25.1464 10.2688 25.0022 10.2936 24.8618C10.2903 24.7354 10.3132 24.6097 10.3608 24.4926C10.4085 24.3754 10.4799 24.2695 10.5706 24.1813C10.6612 24.0931 10.7691 24.0247 10.8875 23.9803C11.0059 23.9358 11.1322 23.9164 11.2584 23.9232Z" fill="#1C3456"/>
</svg>
