<svg width="46" height="37" viewBox="0 0 46 37" fill="none" xmlns="http://www.w3.org/2000/svg">
<path d="M39.0956 13.8455C38.501 14.2857 37.9328 14.7786 37.3044 15.1549C34.8661 16.6375 32.5859 18.1652 34.2039 21.5894C34.2754 21.7436 34.2039 21.9656 34.2039 22.1425C34.4259 23.2337 33.218 24.562 34.1399 25.3146C35.5999 26.4735 37.1502 27.6851 39.0956 28.0426C37.5904 29.0021 36.5444 30.2664 36.4202 32.1328L35.5209 31.4856C33.2632 29.9203 31.4269 29.0059 28.3715 30.9325C23.4196 34.0669 16.846 31.2109 14.7877 25.7209C14.3663 24.5921 13.8244 24.1744 12.6391 24.2798C11.4538 24.3851 10.1557 24.3174 8.91016 24.3212C9.28266 23.6269 9.47761 22.8513 9.47761 22.0635C9.47761 21.2756 9.28266 20.5 8.91016 19.8058C9.15474 19.8058 9.40309 19.8058 9.66272 19.8058C12.2666 20.0165 14.1367 19.8509 15.7698 16.8708C17.1696 14.3233 17.7829 12.6301 16.0821 10.3272C16.0017 10.1615 15.9495 9.98339 15.9278 9.80042C16.6986 9.76933 17.4547 9.5795 18.1488 9.24282C18.8429 8.90614 19.46 8.42985 19.9616 7.84375C20.2002 8.34534 20.4124 8.85904 20.5975 9.38275C21.2108 11.441 22.4187 12.3178 24.6915 12.0581C26.5051 11.8549 28.221 12.694 29.7111 13.7401C30.4636 14.2594 30.9716 14.2707 31.6715 13.7138C33.2255 12.4796 34.836 11.3168 36.4202 10.124C36.7137 11.7947 37.7259 12.9499 39.0956 13.8455ZM18.5392 22.0823C18.5343 22.8091 18.6727 23.5298 18.9466 24.2031C19.2206 24.8764 19.6246 25.489 20.1356 26.0059C20.6466 26.5228 21.2545 26.9339 21.9245 27.2156C22.5946 27.4973 23.3136 27.6441 24.0405 27.6475C27.0846 27.6475 29.7788 24.9571 29.7261 21.9656C29.7102 20.4958 29.1139 19.0919 28.0672 18.06C27.0204 17.0281 25.6082 16.4518 24.1383 16.4569C23.3954 16.437 22.6562 16.5692 21.9662 16.8452C21.2762 17.1212 20.6498 17.5353 20.1256 18.062C19.6013 18.5888 19.1901 19.2171 18.9174 19.9084C18.6446 20.5997 18.5159 21.3395 18.5392 22.0823Z" fill="#A4ADBA"/>
<path d="M8.92956 19.7911C9.30207 20.4853 9.49701 21.261 9.49701 22.0488C9.49701 22.8367 9.30207 23.6123 8.92956 24.3065C6.82238 26.7749 4.38407 27.1964 2.30322 25.4353C1.84348 25.0676 1.46355 24.6099 1.18665 24.0903C0.909744 23.5708 0.741683 23.0002 0.692731 22.4135C0.643779 21.8267 0.714965 21.2362 0.90194 20.6779C1.08891 20.1197 1.38775 19.6054 1.78019 19.1665C3.75944 16.8787 6.61919 17.127 8.92956 19.7911Z" fill="#1D3556"/>
<path d="M19.9768 7.83642C19.4752 8.42252 18.858 8.89881 18.164 9.23549C17.4699 9.57217 16.7138 9.762 15.943 9.79309C12.8876 8.85238 11.4577 6.97097 11.913 4.4875C12.3533 2.09811 14.8781 0.412361 17.2073 0.961734C17.8149 1.08584 18.3892 1.33745 18.8924 1.69992C19.3955 2.0624 19.816 2.5275 20.1261 3.06451C20.4363 3.60152 20.6289 4.19821 20.6914 4.81517C20.7538 5.43214 20.6847 6.05534 20.4885 6.6436C20.338 7.04999 20.1423 7.43756 19.9768 7.83642Z" fill="#1D3556"/>
<path d="M39.0959 13.8454C37.7262 12.9498 36.714 11.7946 36.4355 10.1164C36.6877 7.28301 38.2831 5.47685 40.6687 5.3301C42.8135 5.19464 44.7138 6.72611 45.2556 8.90479C45.948 11.6855 42.949 15.3994 39.0959 13.8454Z" fill="#1D3556"/>
<path d="M36.4316 32.1372C36.5558 30.2558 37.5944 29.0065 39.107 28.047C42.0721 27.223 44.4088 28.348 45.1539 30.967C45.8312 33.3375 44.4239 35.7307 41.9479 36.4118C39.3215 37.138 37.0074 35.3431 36.4316 32.1372Z" fill="#1D3556"/>
</svg>
