<svg width="41" height="37" viewBox="0 0 41 37" fill="none" xmlns="http://www.w3.org/2000/svg">
<path d="M14.3291 36.405C10.3628 36.405 6.39284 36.3562 2.43037 36.4275C0.955696 36.4538 0.426615 35.9059 0.501662 34.4838C0.598003 32.8715 0.590483 31.2546 0.479148 29.6433C0.336559 27.8309 1.27089 27.1255 2.79434 27.5195C4.87314 28.056 6.21273 27.0842 7.54857 25.8271C9.69115 23.8196 12.2578 22.9716 15.1733 23.0166C17.8375 23.0542 20.5017 23.0166 23.1696 23.0166C23.4773 23.0166 23.7887 22.9979 24.0964 23.0166C25.5973 23.1405 27.0382 23.3919 27.2521 25.2268C27.4172 26.6151 26.1264 27.6283 24.1639 27.7108C22.9257 27.7671 21.6836 27.7108 20.4454 27.7371C19.6311 27.7596 18.4529 27.4519 18.4979 28.7727C18.5354 29.8984 19.6236 29.9247 20.4942 29.9397C22.5392 29.9772 24.5842 29.9397 26.6292 29.9397C27.4391 29.9265 28.2191 29.632 28.8356 29.1067C31.1133 27.4031 33.391 25.6958 35.7099 24.0448C37.4585 22.7953 39.1283 22.9604 40.1227 24.3787C41.117 25.7971 40.7418 27.1442 38.9669 28.4575C36.0814 30.5926 33.1771 32.7014 30.3065 34.8365C28.9229 35.8982 27.2127 36.4448 25.4698 36.3825C21.7662 36.36 18.0476 36.405 14.3291 36.405Z" fill="#A4ADBA"/>
<path d="M22.5201 19.6286C21.871 20.7881 20.8428 21.0846 19.6796 20.6718C18.5164 20.259 18.325 19.2121 18.3588 18.0827C18.4 16.6005 18.2987 15.1146 18.3888 13.6399C18.4638 12.4354 18.1486 11.9401 16.8316 11.7937C14.4242 11.4933 12.1847 10.4021 10.4644 8.6914C8.74422 6.98069 7.64064 4.74726 7.32686 2.34159C7.25932 1.74121 6.9066 0.926956 8.07733 0.87067C12.7227 0.664291 17.1392 1.08831 20.3062 5.10707C21.6308 6.98324 22.5576 9.02827 22.5914 11.3697C22.6177 14.124 22.5464 16.8744 22.5201 19.6286Z" fill="#1B3354"/>
<path d="M22.5205 19.6285C22.5468 16.8743 22.6143 14.1238 22.5918 11.3733C22.5693 9.03187 21.6312 6.99435 20.3066 5.11067C21.1772 5.05063 21.4323 4.21386 21.9577 3.74482C25.1247 0.93431 28.922 0.570333 32.892 0.754198C33.8526 0.799226 33.8751 1.28703 33.7738 2.12005C33.1997 7.06189 29.6462 11.0094 24.7269 11.7561C23.1659 11.9925 22.9108 12.6229 22.877 14.0075C22.8357 15.8799 23.4023 17.8086 22.5205 19.6285Z" fill="#A4ADBA"/>
</svg>
