<svg width="41" height="37" viewBox="0 0 41 37" fill="none" xmlns="http://www.w3.org/2000/svg">
<path d="M20.0991 20.9692C25.7286 20.9692 31.3538 20.9692 36.9833 20.9692C39.7937 20.9692 40.5687 21.7783 40.5773 24.6526C40.5858 27.527 40.6113 30.3204 40.5773 33.1692C40.5474 35.3707 39.666 36.282 37.4985 36.2863C25.9628 36.2863 14.4228 36.2863 2.88712 36.2863C0.975149 36.2863 0 35.392 0 33.4545C0 30.2693 0 27.0671 0 23.8946C0.0212915 21.7911 0.851658 20.9905 2.9808 20.982C8.70395 20.9522 14.4015 20.9692 20.0991 20.9692ZM27.8705 30.38C29.2289 30.38 29.6973 29.6433 29.6462 28.4808C29.5951 27.3183 28.8329 26.6711 27.747 26.7434C27.4985 26.7473 27.2536 26.803 27.0278 26.907C26.8021 27.011 26.6006 27.161 26.4362 27.3474C26.2719 27.5339 26.1483 27.7526 26.0733 27.9895C25.9984 28.2265 25.9738 28.4765 26.0011 28.7235C26.0735 29.8307 26.7761 30.4822 27.8705 30.38ZM33.2487 26.884C31.8222 26.884 31.2005 27.5142 31.1622 28.5362C31.1238 29.6604 31.7413 30.3715 32.9506 30.3672C34.0195 30.3672 34.6753 29.8477 34.688 28.7363C34.7008 27.6249 34.1174 26.918 33.2487 26.884Z" fill="#A2ACB9"/>
<path d="M20.1238 15.8377C14.4943 15.8377 8.86062 15.8377 3.2269 15.8377C0.803937 15.8377 0.0374445 15.0798 0.0204114 12.7036C0.00621705 9.65471 0.00621705 6.60436 0.0204114 3.55258C0.0459611 1.42344 0.850778 0.593069 2.97992 0.571777C14.5227 0.571777 26.067 0.578874 37.6126 0.593069C39.6864 0.593069 40.5125 1.47879 40.538 3.61646C40.5806 6.66539 40.5806 9.71291 40.538 12.759C40.5125 14.9818 39.6608 15.8207 37.4465 15.8292C31.6723 15.8505 25.898 15.8377 20.1238 15.8377ZM32.8603 10.1785C34.0953 10.0465 34.8873 9.42476 34.8703 8.15153C34.881 7.90054 34.8397 7.65003 34.7488 7.41582C34.6579 7.1816 34.5195 6.96876 34.3423 6.79072C34.165 6.61268 33.9528 6.47329 33.719 6.38136C33.4852 6.28943 33.2349 6.24695 32.9838 6.2566C32.7156 6.23377 32.4457 6.26994 32.193 6.36257C31.9402 6.4552 31.7108 6.60204 31.5209 6.79278C31.331 6.98352 31.1851 7.21354 31.0936 7.46666C31.002 7.71979 30.967 7.98989 30.991 8.25799C31.008 9.38644 31.7617 10.0209 32.8603 10.1785ZM27.793 10.0805C28.9385 10.055 29.6709 9.52696 29.7305 8.32612C29.7944 7.04864 29.0364 6.30769 27.8313 6.31195C27.582 6.29474 27.3318 6.33139 27.0979 6.41943C26.864 6.50746 26.6517 6.64482 26.4756 6.82216C26.2995 6.9995 26.1636 7.21268 26.0771 7.44721C25.9907 7.68173 25.9558 7.93212 25.9747 8.18134C25.9526 8.42939 25.9838 8.6793 26.0662 8.9143C26.1486 9.1493 26.2804 9.36394 26.4526 9.54383C26.6248 9.72371 26.8335 9.86467 27.0647 9.95724C27.2959 10.0498 27.5442 10.0919 27.793 10.0805Z" fill="#1A3254"/>
<path d="M27.8704 30.3798C26.7761 30.482 26.0734 29.8305 26.001 28.7233C25.9737 28.4763 25.9983 28.2263 26.0733 27.9893C26.1482 27.7524 26.2718 27.5337 26.4362 27.3472C26.6005 27.1608 26.802 27.0108 27.0278 26.9068C27.2535 26.8028 27.4984 26.7471 27.7469 26.7432C28.8328 26.6708 29.595 27.2627 29.6461 28.4806C29.6972 29.6985 29.2288 30.3798 27.8704 30.3798Z" fill="white"/>
<path d="M33.2484 26.8838C34.1001 26.9179 34.7047 27.5779 34.6877 28.7362C34.6707 29.8944 34.0191 30.3799 32.9503 30.3799C31.741 30.3799 31.1235 29.673 31.1618 28.5488C31.2002 27.514 31.8219 26.8796 33.2484 26.8838Z" fill="#1A3254"/>
<path d="M32.8611 10.1785C31.7625 10.021 31.0087 9.38649 30.9917 8.25804C30.9677 7.98993 31.0028 7.71983 31.0943 7.46671C31.1859 7.21358 31.3317 6.98357 31.5216 6.79283C31.7116 6.60209 31.941 6.45525 32.1937 6.36262C32.4464 6.26999 32.7164 6.23382 32.9846 6.25664C33.2356 6.247 33.4859 6.28948 33.7197 6.38141C33.9535 6.47334 34.1658 6.61272 34.343 6.79077C34.5202 6.96881 34.6587 7.18165 34.7496 7.41587C34.8404 7.65008 34.8818 7.90059 34.871 8.15158C34.888 9.42481 34.096 10.0465 32.8611 10.1785Z" fill="#A2ACB9"/>
<path d="M27.794 10.0758C27.5454 10.0877 27.2972 10.0463 27.066 9.9542C26.8348 9.86212 26.626 9.72157 26.4537 9.54201C26.2814 9.36245 26.1496 9.14805 26.0671 8.91325C25.9847 8.67846 25.9535 8.42872 25.9757 8.18085C25.9568 7.93201 25.9917 7.68202 26.0779 7.44781C26.164 7.2136 26.2995 7.00065 26.4752 6.82338C26.6509 6.64611 26.8626 6.50866 27.096 6.42034C27.3294 6.33202 27.579 6.29489 27.828 6.31146C29.0331 6.31146 29.7911 7.03112 29.7272 8.32564C29.6719 9.5137 28.9565 10.0545 27.794 10.0758Z" fill="white"/>
</svg>
