<svg width="49" height="37" viewBox="0 0 49 37" fill="none" xmlns="http://www.w3.org/2000/svg">
<path d="M20.1661 0.630888C22.349 0.630888 24.5319 0.598845 26.7148 0.630888C28.2104 0.621632 29.6707 1.08425 30.8882 1.95292C32.1056 2.82159 33.0181 4.05208 33.4958 5.4693C34.1927 7.39185 34.8296 9.33443 35.5625 11.241C35.9631 12.2823 35.7748 12.7069 34.6013 13.0113C28.6133 14.5654 24.3317 19.8844 24.8483 27.0059C24.9485 28.3877 24.0873 27.9872 23.4905 27.9912C19.0607 28.0192 14.6268 28.0673 10.1969 27.9912C8.63484 27.9551 7.87383 28.2595 8.05007 29.9938C8.50267 34.4477 6.05142 34.1674 2.70298 33.8149C1.38123 33.6707 0.940642 32.4531 0.928626 31.2795C0.880562 26.5933 0.880562 21.9071 0.928626 17.2209C0.928626 16.2316 1.16494 15.034 1.95799 14.5093C4.6015 12.759 5.16224 9.87515 5.8872 7.24366C7.23298 2.4533 10.0287 0.262399 15.4078 0.606856C16.9859 0.706989 18.58 0.606856 20.1661 0.606856V0.630888ZM9.11548 12.5307C14.8591 12.5307 20.3303 12.5787 25.7936 12.5026C27.3957 12.4826 29.7709 13.3037 30.3837 12.05C31.1006 10.5721 29.6307 8.60947 28.9738 6.91122C28.8004 6.44131 28.4788 6.0406 28.0575 5.76963C27.6362 5.49867 27.1382 5.37216 26.6387 5.40922C22.2329 5.43326 17.791 5.40922 13.3691 5.40922C12.3678 5.40922 11.5107 5.78172 11.1422 6.747C10.4452 8.58143 9.84044 10.4479 9.11548 12.5307ZM8.29439 22.0353C9.75233 21.8831 10.4613 21.0299 10.4052 19.536C10.3531 18.1141 9.56808 17.3571 8.16622 17.305C6.76436 17.2529 5.52272 18.4826 5.69895 19.7963C5.87518 21.2302 6.76436 21.9912 8.29439 22.0353Z" fill="#A3ADBA"/>
<path d="M48.5788 25.5998C48.5811 27.7094 47.9583 29.7724 46.789 31.5283C45.6196 33.2841 43.9562 34.6542 42.0088 35.4653C40.0614 36.2764 37.9172 36.4923 35.8472 36.0857C33.7771 35.6791 31.874 34.6682 30.3781 33.1806C28.8822 31.6931 27.8606 29.7957 27.4424 27.728C27.0241 25.6602 27.2279 23.5149 28.0281 21.563C28.8283 19.611 30.1889 17.9399 31.9382 16.7607C33.6875 15.5815 35.747 14.9471 37.8566 14.9376C39.2638 14.9222 40.6601 15.187 41.964 15.7166C43.268 16.2462 44.4534 17.0301 45.4514 18.0224C46.4493 19.0148 47.2398 20.1958 47.7767 21.4967C48.3137 22.7977 48.5863 24.1924 48.5788 25.5998ZM36.2384 26.7453C35.6216 27.8788 35.0608 28.9082 34.4921 29.9496C34.1997 30.4783 33.8753 31.059 34.384 31.5757C35.0408 32.2446 35.5855 31.6358 36.1062 31.2633C37.7564 30.0617 39.4266 28.8601 41.0047 27.5784C41.7537 26.9616 43.2918 26.6492 42.8191 25.3434C42.4186 24.1939 41.0488 24.991 40.1476 24.7427C39.9693 24.6633 39.7979 24.5695 39.6349 24.4623C40.2077 23.4489 40.7684 22.4596 41.3452 21.4343C41.6816 20.8495 42.0701 20.2327 41.4974 19.6359C40.8365 18.951 40.2958 19.5798 39.7791 19.9483C38.2331 21.0698 36.651 22.1592 35.201 23.3969C34.3639 24.1138 32.6216 24.4182 33.0462 25.8641C33.4467 27.2059 35.0448 26.1365 36.2384 26.7453Z" fill="#1D3556"/>
</svg>
