<svg width="36" height="37" viewBox="0 0 36 37" fill="none" xmlns="http://www.w3.org/2000/svg">
<path d="M0.142578 17.7672C0.349261 11.1984 3.27665 6.20045 9.01116 3.11147C15.2643 -0.270613 21.5099 0.270521 27.5187 3.94948C29.3074 5.07437 30.8678 6.52648 32.1183 8.2297C32.7835 9.1128 33.3509 10.1086 32.2048 10.9842C31.0586 11.8598 30.3258 11.1007 29.5743 10.2139C25.2264 4.95283 19.1687 3.04383 12.9832 4.95283C10.3004 5.782 7.94155 7.42435 6.23292 9.65271C4.52428 11.8811 3.55032 14.5853 3.44575 17.3914C3.41569 18.143 3.44575 18.8946 3.37811 19.6198C3.31422 20.6081 2.77309 21.3184 1.7735 21.2996C0.773901 21.2808 0.195188 20.6344 0.142578 19.6048C0.142578 18.9847 0.142578 18.3647 0.142578 17.7672Z" fill="#203758"/>
<path d="M25.2002 22.4989C25.1253 24.7917 24.9145 27.078 24.5689 29.3458C24.4148 30.5145 24.0729 31.6644 22.5472 31.4389C21.0966 31.2247 21.1868 30.0823 21.3259 28.985C21.7326 26.0375 21.9373 23.0656 21.9384 20.0901C21.9196 17.7114 20.6269 16.1218 18.639 15.7798C16.0085 15.3326 14.0506 16.9636 14.0318 19.7707C14.0475 22.9327 13.7872 26.09 13.2539 29.2067C13.0322 30.4243 12.6489 31.4953 11.2021 31.2735C9.69899 31.0406 9.74409 29.8531 9.98459 28.643C10.513 25.8411 10.7647 22.9939 10.7362 20.1427C10.7362 15.4153 13.5809 12.3714 17.8761 12.3902C22.1714 12.409 25.1363 15.5619 25.234 20.0638C25.2153 20.8868 25.2002 21.6947 25.2002 22.4989Z" fill="#203758"/>
<path d="M27.452 22.8967C27.452 21.8708 27.452 20.6946 27.452 19.5146C27.4446 18.1808 27.1593 16.8631 26.6142 15.6457C26.0691 14.4283 25.2763 13.3379 24.2862 12.444C23.2962 11.5501 22.1307 10.8724 20.8641 10.4541C19.5975 10.0359 18.2576 9.88622 16.9299 10.0147C16.4377 10.0561 15.9454 10.135 15.4568 10.2064C14.3295 10.3604 13.5967 9.88695 13.4389 8.79717C13.281 7.70739 14.0364 7.10613 15.0548 6.91823C16.6377 6.6243 18.2589 6.60016 19.8498 6.84683C25.8248 7.74121 30.6424 13.1187 30.7476 19.1651C30.8567 21.8915 30.7473 24.6221 30.4207 27.331C30.2666 28.4208 29.7856 29.1573 28.6883 29.0897C27.4407 29.0108 27.1288 28.0939 27.234 26.9477C27.3317 25.6588 27.3693 24.351 27.452 22.8967Z" fill="#213858"/>
<path d="M4.65199 26.2751C5.18185 23.7235 5.08414 20.6758 5.27579 17.6545C5.45054 15.4794 6.24907 13.4008 7.57561 11.6682C8.22948 10.7663 9.0224 10.244 10.0784 11.0031C11.0441 11.6983 10.9013 12.5551 10.2775 13.4231C8.84578 15.4111 8.32719 17.6395 8.39859 20.0746C8.41929 22.429 8.21164 24.7799 7.77854 27.0943C7.60192 28.1427 7.10964 28.9056 5.96724 28.7628C4.82485 28.62 4.47161 27.7895 4.65199 26.2751Z" fill="#213858"/>
<path d="M19.5887 22.6153C19.5173 26.7227 18.7583 30.7173 17.8038 34.6781C17.5069 35.8994 16.9845 36.8877 15.549 36.4781C14.2601 36.1023 14.2714 35.0614 14.602 33.904C15.8314 29.4331 16.4533 24.817 16.4509 20.1802C16.4509 19.0528 16.7666 18.1209 18.018 18.1359C19.2693 18.151 19.6338 19.0679 19.5925 20.2065C19.5624 21.0107 19.5887 21.8149 19.5887 22.6153Z" fill="#203758"/>
<path d="M35.8879 18.5183C35.895 19.1237 35.8611 19.7288 35.7864 20.3296C35.606 21.1826 35.125 21.8027 34.1555 21.7689C33.9515 21.7796 33.7476 21.7486 33.556 21.6779C33.3644 21.6072 33.1892 21.4982 33.0412 21.3575C32.8931 21.2169 32.7753 21.0475 32.6949 20.8598C32.6145 20.6721 32.5731 20.4699 32.5734 20.2657C32.4945 18.7325 32.3968 17.2068 32.1976 15.6811C32.1618 15.482 32.1665 15.2778 32.2114 15.0806C32.2564 14.8834 32.3407 14.6973 32.4593 14.5334C32.5779 14.3695 32.7283 14.2313 32.9016 14.127C33.0749 14.0226 33.2675 13.9543 33.4678 13.9262C33.6788 13.8645 33.9007 13.8498 34.118 13.8831C34.3353 13.9165 34.5426 13.9971 34.7253 14.1193C34.9081 14.2415 35.0618 14.4023 35.1756 14.5903C35.2895 14.7783 35.3607 14.9891 35.3843 15.2076C35.6361 16.3951 35.7526 17.6202 35.8879 18.5183Z" fill="#213858"/>
</svg>
