<svg width="34" height="37" viewBox="0 0 34 37" fill="none" xmlns="http://www.w3.org/2000/svg">
<path fill-rule="evenodd" clip-rule="evenodd" d="M3.26008 -1.14231H8.07226L8.07235 -1.14258C8.07235 0.202722 9.1592 1.34113 10.5561 1.34113H23.0268C24.372 1.34113 25.4589 0.254375 25.4589 -1.09092H30.3746C32.1858 -1.09092 33.6347 0.357867 33.6347 2.16916V35.597C33.6347 37.4082 32.1859 38.8571 30.3746 38.8571H25.4589C25.4589 37.5119 24.3721 36.425 23.0268 36.425L10.5043 36.4254C9.15911 36.4254 8.07226 37.5121 8.07226 38.8574H3.26008C1.44888 38.8574 0 37.4086 0 35.5973V2.11777C0 0.306574 1.44879 -1.14231 3.26008 -1.14231ZM30.1159 36.684C30.7887 36.684 31.3579 36.1148 31.3579 35.442C31.3579 34.7696 30.7887 34.2004 30.1159 34.2C29.4431 34.2 28.8739 34.7692 28.8739 35.442C28.8739 36.1148 29.4431 36.684 30.1159 36.684ZM3.51853 36.684C4.1913 36.684 4.76053 36.1148 4.76053 35.442C4.76053 34.7696 4.24333 34.2004 3.51853 34.2C2.84576 34.2 2.27654 34.7692 2.27654 35.442C2.27654 36.1148 2.84576 36.684 3.51853 36.684ZM8.53788 8.89648V6.77481L6.83063 6.77426V8.89593L6.83027 28.8698V30.9915H8.53788V28.8698H9.83227V30.9915H11.5399V28.8698H12.8852V30.9915H14.5928V28.8698H15.9381V30.9915H17.6457V28.8698H18.991V30.9915H20.6986V28.8698H22.0439V30.9915H23.7515V28.8698H25.0968V30.9915L26.8044 30.9919V6.77481H25.0968V8.89648H23.8024V6.77481H22.0948V8.89648H20.7495V6.77481H19.0419V8.89648H17.6966V6.77481H15.989V8.89648H14.6437V6.77481H12.9361V8.89648H11.5908V6.77481H9.88318V8.89648H8.53788ZM31.3579 2.32457C31.3579 1.6518 30.7887 1.08258 30.1159 1.08258C29.3912 1.08258 28.8739 1.6518 28.8739 2.32457C28.8739 2.99734 29.4431 3.56656 30.1159 3.56656C30.7887 3.56656 31.3579 2.99734 31.3579 2.32457ZM3.51844 3.56656C4.19121 3.56656 4.76043 2.99738 4.76043 2.32457C4.76043 1.6518 4.24323 1.08258 3.51844 1.08258C2.84567 1.08258 2.27645 1.6518 2.27645 2.32457C2.27645 2.99734 2.84567 3.56656 3.51844 3.56656Z" fill="#A2ACB9"/>
<path fill-rule="evenodd" clip-rule="evenodd" d="M12.7811 11.8458C12.3155 12.1046 11.6943 12.7771 11.6943 14.2779C11.6943 14.7933 11.797 15.411 11.8998 16.0292L11.9011 16.0371C9.93468 16.658 8.69296 17.6932 8.69296 18.8832C8.69296 20.0733 9.93495 21.1081 11.9011 21.7294C11.7459 22.3502 11.6943 22.9714 11.6943 23.4886C11.6943 24.9891 12.2635 25.662 12.7291 25.9207C13.6087 26.4383 14.7988 26.1275 16.0924 25.1446C16.2992 24.9894 16.558 24.7822 16.7652 24.5754C16.972 24.7822 17.2308 24.9894 17.438 25.1446C18.7833 26.1279 19.9737 26.4383 20.8013 25.9207C21.2669 25.6619 21.8882 24.9894 21.8882 23.4886C21.8882 23.0054 21.7979 22.4323 21.7019 21.8532L21.6827 21.7373L21.6813 21.7294C23.6478 21.1085 24.8895 20.0733 24.8895 18.8832C24.8895 17.6932 23.6475 16.6584 21.6813 16.0371C21.8365 15.4163 21.8882 14.7951 21.8882 14.2779C21.8882 12.7774 21.3189 12.1045 20.8013 11.8458C19.9217 11.3282 18.628 11.639 17.2828 12.7771C17.1276 12.9323 16.9204 13.0875 16.7652 13.2427C16.61 13.0875 16.4028 12.9323 16.2476 12.7771C14.9026 11.639 13.6608 11.3282 12.7811 11.8458ZM20.3358 24.9891C20.6466 24.7823 20.8534 24.2647 20.8534 23.4886C20.8534 23.023 20.8017 22.5574 20.6462 21.9881C20.077 22.1434 19.4561 22.2469 18.7833 22.2986C18.4213 22.8678 18.0073 23.3334 17.5933 23.799C18.7833 24.8855 19.8182 25.2995 20.3358 24.9891ZM16.8173 23.0226C16.9725 22.8158 17.1797 22.6086 17.3349 22.4018H16.8173H16.2996C16.4549 22.6086 16.662 22.8158 16.8173 23.0226ZM16.0408 23.799C15.6268 23.3334 15.2132 22.8162 14.8508 22.2985C14.1784 22.2466 13.5571 22.1434 12.9875 21.9882C12.8323 22.5574 12.7807 23.023 12.7807 23.4886C12.7807 24.2646 12.9879 24.7822 13.2983 24.9891C13.816 25.2994 14.8508 24.8858 16.0408 23.799ZM13.8159 17.124C13.8679 16.9688 13.9712 16.8135 14.0747 16.6583C13.7643 16.71 13.5055 16.7616 13.2983 16.8136C13.3503 17.072 13.4535 17.3308 13.5571 17.5896C13.6607 17.4344 13.7123 17.2792 13.8159 17.124ZM12.2119 17.124C10.6595 17.5896 9.77984 18.314 9.77984 18.8832C9.77984 19.4524 10.6594 20.1769 12.2119 20.6425C12.3671 20.0733 12.6259 19.5041 12.8847 18.8832C12.6259 18.314 12.4187 17.6932 12.2119 17.124ZM13.5056 20.1768C13.402 20.4353 13.3504 20.6941 13.2468 20.9529C13.5056 21.0049 13.7644 21.0565 14.0232 21.1081C13.9712 20.9529 13.868 20.7977 13.7644 20.6425C13.6608 20.4873 13.6092 20.332 13.5056 20.1768ZM19.8186 20.6425C19.7666 20.7977 19.6634 20.9529 19.5598 21.1081C19.8702 21.0565 20.129 21.0048 20.3362 20.9529C20.2842 20.6944 20.181 20.4356 20.0774 20.1768C19.9738 20.332 19.9222 20.4872 19.8186 20.6425ZM21.4227 20.6425C22.9751 20.1768 23.8547 19.4524 23.8547 18.8832C23.8547 18.314 22.9751 17.5896 21.4227 17.1239C21.2675 17.6931 21.0087 18.2624 20.7498 18.8832C21.0086 19.4524 21.2158 20.0732 21.4227 20.6425ZM20.1289 17.5896C20.2325 17.3312 20.2841 17.0724 20.3877 16.8135C20.1289 16.7616 19.8701 16.7099 19.6113 16.6583C19.6633 16.8135 19.7665 16.9688 19.8701 17.124C19.9737 17.2792 20.0253 17.4344 20.1289 17.5896ZM18.8869 17.6412C18.6801 17.2788 18.4213 16.8652 18.1625 16.5028C17.7484 16.5028 17.2828 16.4512 16.8172 16.4512C16.3515 16.4512 15.8859 16.4512 15.4719 16.5028L15.4696 16.5059C15.2116 16.8672 14.9537 17.2284 14.7475 17.6412C14.5406 18.0032 14.3334 18.4172 14.1266 18.8312C14.2818 19.1933 14.5406 19.6073 14.7475 20.0213C15.0063 20.4353 15.2131 20.7973 15.4719 21.1597C15.8859 21.2113 16.3515 21.2113 16.8172 21.2113C17.2828 21.2113 17.7485 21.2113 18.1625 21.1597C18.4213 20.7973 18.6281 20.4353 18.8869 20.0213C19.0937 19.6593 19.3009 19.2453 19.5077 18.8312C19.3525 18.4692 19.0937 18.0552 18.8869 17.6412ZM20.8534 14.2779C20.8534 13.5019 20.6462 12.9843 20.3358 12.7774C19.8702 12.5187 18.9906 12.829 18.0077 13.6566C17.8525 13.7602 17.7489 13.9154 17.5937 14.019C18.0077 14.4331 18.4213 14.9503 18.7837 15.4679C19.4565 15.5715 20.0774 15.6747 20.6466 15.7783C20.8018 15.2091 20.8534 14.7435 20.8534 14.2779ZM16.8172 14.7439C16.662 14.9507 16.4548 15.1579 16.2996 15.3647H16.8172H17.3348C17.1796 15.1063 16.9724 14.9507 16.8172 14.7439ZM16.0412 13.9675C15.886 13.8639 15.7824 13.7087 15.6272 13.6051C14.644 12.8291 13.7643 12.5187 13.2991 12.7259C12.9883 12.9327 12.7815 13.4503 12.7815 14.2263C12.7815 14.692 12.8847 15.2092 12.9883 15.7268C13.5575 15.5716 14.1783 15.468 14.8511 15.4164C15.2652 14.8987 15.6272 14.4331 16.0412 13.9675Z" fill="#1A3254"/>
</svg>
