<svg width="41" height="37" viewBox="0 0 41 37" fill="none" xmlns="http://www.w3.org/2000/svg">
<path d="M13.6839 11.4925C17.2149 11.4925 20.7458 11.4925 24.2767 11.4925C25.1068 11.4925 25.8956 11.5639 26.5305 12.1799C27.4883 13.1265 27.3155 13.9942 26.0722 14.5427C20.8134 16.8716 18.1614 20.8908 18.3042 26.6529C18.3342 27.855 18.2178 28.7377 16.8505 28.9443C16.0992 29.0532 16.0429 29.5716 16.0504 30.1763C16.0504 31.3521 16.103 32.5315 16.0504 33.7073C16.0053 34.4585 16.5012 35.6455 15.6485 35.8859C14.5216 36.209 13.1956 36.0362 11.9748 35.9235C11.4752 35.8784 11.5278 35.2098 11.5992 34.7966C12.1814 31.1981 11.2611 28.8466 7.50484 27.1676C4.02651 25.6312 2.61414 22.0252 2.64044 18.1562C2.64044 17.0105 2.67049 16.0564 1.32574 15.5043C0.360369 15.1286 0.198848 14.0318 0.484327 13.0739C0.792343 12.0184 1.58116 11.485 2.7381 11.4888C6.37044 11.5001 10.0291 11.4925 13.6839 11.4925Z" fill="#A3ADBA"/>
<path d="M30.579 36.0173C28.6001 36.0305 26.6617 35.4573 25.0081 34.3701C23.3546 33.2828 22.0602 31.7302 21.2881 29.9081C20.516 28.086 20.3008 26.076 20.6698 24.1318C21.0387 22.1875 21.9752 20.3961 23.3611 18.9835C24.7471 17.5709 26.5203 16.6004 28.4572 16.1945C30.394 15.7885 32.4077 15.9653 34.2442 16.7025C36.0807 17.4398 37.6577 18.7044 38.7763 20.3368C39.8949 21.9693 40.5049 23.8965 40.5294 25.8753C40.5493 27.1966 40.3069 28.5086 39.8163 29.7356C39.3257 30.9625 38.5965 32.0799 37.6711 33.0232C36.7457 33.9664 35.6423 34.7167 34.425 35.2307C33.2076 35.7446 31.9004 36.012 30.579 36.0173ZM32.0815 24.9625C32.7164 23.8356 33.2911 22.8365 33.8658 21.8223C34.155 21.3114 34.3391 20.778 33.8207 20.3197C33.3023 19.8615 32.8891 20.2221 32.4985 20.5113C30.4651 22.0138 28.4404 23.5301 26.4246 25.0602C26.0264 25.3644 25.6207 25.71 25.8423 26.2885C25.9279 26.4918 26.0829 26.6581 26.2796 26.7578C26.4763 26.8575 26.7021 26.8842 26.9166 26.8332C29.1253 26.5552 28.9713 27.468 27.9797 28.8653C27.7089 29.2783 27.4703 29.7116 27.266 30.1612C27.0181 30.642 26.6236 31.1304 27.2284 31.6412C27.8332 32.1521 28.2727 31.7126 28.7046 31.3933C30.2071 30.2965 31.7097 29.2222 33.1371 28.0464C33.8883 27.4154 35.4134 27.0848 35.1354 25.8978C34.8124 24.5118 33.3174 25.5222 32.4121 25.1691C32.2919 25.1069 32.1752 25.0379 32.0628 24.9625H32.0815Z" fill="#1D3556"/>
<path d="M9.32966 5.50125C9.28828 6.05516 9.28828 6.61138 9.32966 7.16529C9.59636 8.88567 8.89018 9.41906 7.19609 9.30638C4.86719 9.16739 4.86719 9.27633 4.86719 6.86103C4.86719 5.50501 4.86719 4.14523 4.86719 2.78921C4.86719 1.32801 5.51327 0.358887 7.0233 0.358887C8.53333 0.358887 9.24702 1.27918 9.31464 2.71784C9.35971 3.64189 9.31464 4.56969 9.31464 5.49374L9.32966 5.50125Z" fill="#A3ADBA"/>
<path d="M18.2667 5.24199C18.2667 4.31794 18.2291 3.39389 18.2667 2.46984C18.3381 1.16265 19.0705 0.396369 20.3702 0.358806C21.6699 0.321243 22.5676 1.04996 22.654 2.31208C22.7855 4.33672 22.6954 6.37639 22.7029 8.40854C22.7029 9.04711 22.346 9.27249 21.7676 9.26497C21.4595 9.26497 21.1515 9.26497 20.8435 9.26497C17.8873 9.22741 18.3005 9.55045 18.2592 6.71445C18.2592 6.22238 18.2592 5.7303 18.2592 5.23447L18.2667 5.24199Z" fill="#A3ADBA"/>
</svg>
