<svg width="32" height="37" viewBox="0 0 32 37" fill="none" xmlns="http://www.w3.org/2000/svg">
<path d="M12.0567 23.7602C14.802 23.7602 17.1706 23.7602 19.5392 23.7602C19.7667 23.7602 20.2032 23.8422 20.1696 23.5699C19.8786 21.3319 22.2808 21.8541 23.0865 20.7276C23.5005 20.1271 23.9556 20.6866 24.3286 21.0074C28.0975 24.4125 30.6822 28.931 31.7067 33.9059C31.9081 34.8571 31.8783 35.8456 30.7406 35.8456C29.6029 35.8456 27.9169 36.7445 27.4432 34.8944C27.1373 33.712 26.5219 33.7008 25.608 33.7045C19.3913 33.7219 13.1745 33.7219 6.95772 33.7045C6.01775 33.7045 5.48435 33.7866 5.15611 34.9317C4.65255 36.7035 2.97029 35.8978 1.82516 35.8344C0.680035 35.771 0.784476 34.6743 0.959789 33.8015C2.17952 27.714 5.51046 22.9843 10.4341 19.3512C11.6949 18.4224 11.6949 18.0457 10.4341 17.1132C5.59625 13.5734 2.32126 8.9369 1.04931 3.00611C0.829237 2.06241 0.430121 1.00307 1.8177 0.559193C3.38806 0.0593647 4.87635 0.559193 5.24936 1.86844C5.48435 2.6816 5.93196 2.74128 6.58845 2.74128C13.0539 2.74128 19.5193 2.74128 25.9848 2.74128C26.7308 2.74128 27.2306 2.61819 27.4283 1.74535C27.8796 -0.321101 29.6066 0.503242 30.7555 0.603953C32.1617 0.730775 31.8298 1.92812 31.6097 2.92778C29.8864 10.7609 25.0149 16.0613 18.1255 19.7541C16.1225 20.8433 14.0038 21.8131 12.0567 23.7602ZM7.4016 7.17632C7.84548 8.7504 8.6549 9.41435 10.3148 9.38078C14.2948 9.26142 18.2859 9.26142 22.251 9.38078C23.8959 9.42927 24.7203 8.78024 25.2089 7.17632H7.4016ZM25.2574 29.2769C24.6904 27.5312 23.7877 26.9456 22.1689 26.9979C18.1852 27.1209 14.1978 27.0352 10.2327 27.0389C9.80585 26.9887 9.37365 27.0089 8.95331 27.0986C8.14015 27.3895 7.74104 28.1542 7.57318 28.9076C7.46874 29.3963 8.09166 29.2806 8.41245 29.2806C13.9628 29.2806 19.528 29.2769 25.2574 29.2769ZM20.5575 12.8311H12.0791C16.8237 16.4306 15.8315 16.4381 20.5575 12.8311Z" fill="#1D3455"/>
</svg>
