<svg width="45" height="36" viewBox="0 0 45 36" fill="none" xmlns="http://www.w3.org/2000/svg">
<path d="M25.0938 13.5597C24.7547 15.2887 25.4888 15.7358 27.1693 15.6949C31.8943 15.5831 36.6192 15.6539 41.3478 15.6576C42.0219 15.6082 42.6994 15.6789 43.3489 15.8663C44.3848 16.2389 45.0331 16.9096 44.9996 18.0461C44.9661 19.1827 44.3065 19.8348 43.2408 20.1329C41.4298 20.6434 39.5779 20.3154 37.7482 20.3862C35.9186 20.457 35.7994 20.6396 36.5596 22.5028H31.3428C32.0359 20.6173 31.9352 20.4235 30.0982 20.4198C25.254 20.4198 20.4099 20.4198 15.5657 20.4198C13.7435 20.4198 13.6243 20.6583 14.3807 22.5065H9.16393C9.83467 20.6061 9.74151 20.4421 7.897 20.4235C6.6077 20.4235 5.31841 20.4235 4.03284 20.4235C1.61821 20.39 0.634473 19.6783 0.679188 17.9865C0.712725 16.3917 1.66665 15.706 3.99185 15.6949C8.83602 15.6949 13.6802 15.6166 18.5244 15.7321C20.2124 15.7694 20.9204 15.2961 20.6372 13.5895C22.1177 13.4254 23.6112 13.4154 25.0938 13.5597Z" fill="#A5AEBB"/>
<path d="M25.0932 13.5596C23.6006 13.4031 22.0957 13.4031 20.6031 13.5596L16.9699 13.5037L16.5377 13.418C14.7342 12.9149 13.9628 11.6666 13.9703 9.84076C13.9703 7.79876 13.9405 5.74185 13.9703 3.71848C14.0262 1.58332 15.1254 0.290298 17.2308 0.226951C20.9148 0.117647 24.6014 0.115163 28.2904 0.219499C30.4516 0.275393 31.5956 1.58704 31.6701 3.83027C31.7335 5.80892 31.726 7.7913 31.6701 9.76996C31.603 12.2703 30.3734 13.4403 27.8507 13.4962C26.934 13.5372 26.0136 13.5596 25.0932 13.5596ZM22.7196 9.18121C23.2115 9.18121 23.7033 9.18121 24.2101 9.18121C27.7762 9.08805 27.1911 9.86684 27.3066 6.0474C27.3439 4.89971 26.9974 4.53081 25.8608 4.58298C24.0846 4.71341 22.3011 4.71341 20.5248 4.58298C18.7027 4.40039 18.3226 5.04876 18.3114 6.81874C18.3114 8.7117 18.7436 9.55011 20.7149 9.2222C21.3808 9.1536 22.0514 9.13989 22.7196 9.18121Z" fill="#1A3355"/>
<path d="M31.3271 22.5024H36.5439H38.6903H39.1523C41.8874 22.9831 42.7258 23.9222 42.7743 26.6908C42.8115 28.5539 42.8413 30.4171 42.7482 32.2504C42.6289 34.6911 41.4254 35.7978 38.9809 35.8127C35.5416 35.8127 32.1059 35.8388 28.6666 35.8127C26.3227 35.7941 25.1229 34.6613 25.0372 32.3286C24.9626 30.2941 24.9999 28.2521 25.0372 26.2101C25.0595 24.4177 25.8122 23.1285 27.6456 22.6478L28.4281 22.5024H31.3271ZM33.9057 26.9367C32.9816 26.9367 32.0426 27.0075 31.1371 26.9181C29.9037 26.7951 29.274 27.1379 29.4752 28.5092C29.5385 28.9404 29.5385 29.3785 29.4752 29.8097C29.3075 31.0543 29.6987 31.5983 31.0588 31.5014C32.7168 31.3673 34.3829 31.3673 36.0409 31.5014C37.8183 31.6616 38.4928 31.2294 38.4294 29.2321C38.3735 27.4323 38.0568 26.5715 36.1191 26.9106C35.3834 26.9827 34.6429 26.9915 33.9057 26.9367Z" fill="#1A3355"/>
<path d="M9.13846 22.5024H14.3553C20.2204 22.6105 20.567 22.9682 20.567 28.8967C20.567 30.1301 20.6303 31.3747 20.5334 32.623C20.3732 34.6278 19.1584 35.7978 17.1798 35.8202C13.5578 35.8699 9.93464 35.8699 6.31021 35.8202C4.12288 35.7978 2.92675 34.5905 2.85595 32.351C2.78888 30.3127 2.82614 28.2521 2.85595 26.2287C2.85595 24.4252 3.63847 23.1545 5.46435 22.6627L6.23196 22.5024H9.13846ZM11.7021 31.4902H13.1927C16.2519 31.4902 16.2035 31.4902 16.2147 28.4496C16.2147 27.3764 16.0246 26.8622 14.8099 26.9255C12.9663 27.0522 11.1162 27.0522 9.27261 26.9255C7.60323 26.7765 7.17098 27.3466 7.27159 28.9713C7.45045 31.8815 6.87288 31.453 9.87999 31.4977C10.4725 31.4828 11.0761 31.4753 11.7021 31.4753V31.4902Z" fill="#1A3355"/>
</svg>
