<svg width="42" height="36" viewBox="0 0 42 36" fill="none" xmlns="http://www.w3.org/2000/svg">
<path d="M20.4308 33.2245C19.6066 33.1684 18.2733 33.3798 17.2161 32.944C13.7295 31.4985 10.7737 32.3615 7.80063 34.3162C6.00125 35.4856 3.79625 35.697 1.63872 35.7143C0.486602 35.7143 0.184548 35.2828 0.974204 34.3335C2.44406 32.6003 3.63889 30.6516 4.51687 28.5556C4.90954 27.5804 4.79303 26.9245 4.11557 26.0788C-1.66661 18.8381 -0.479971 10.0138 6.96351 4.43874C15.2268 -1.75337 28.0167 -1.42974 35.6975 5.17661C43.0072 11.4507 43.1841 21.1984 36.0815 27.6883C31.7622 31.6366 26.5366 33.1166 20.4308 33.2245Z" fill="#193254"/>
<path fill-rule="evenodd" clip-rule="evenodd" d="M23.4203 22.7606C22.5849 22.4516 21.7102 22.0559 20.8241 21.5822C20.0204 22.0119 19.226 22.3774 18.4619 22.6723C19.2512 24.0366 20.1711 24.616 20.9671 24.616C21.7456 24.616 22.6428 24.0616 23.4203 22.7606ZM23.4908 18.7768C22.6118 19.4459 21.712 20.0398 20.824 20.5505C19.9357 20.0396 19.0355 19.4456 18.1561 18.7762C17.7942 18.5007 17.4491 18.2226 17.1215 17.9435C17.0895 17.5467 17.0728 17.1393 17.0728 16.7232C17.0728 16.3242 17.0882 15.9332 17.1176 15.5519C17.4464 15.2717 17.7928 14.9925 18.156 14.716C19.0355 14.0466 19.9356 13.4525 20.824 12.9416C21.712 13.4523 22.6118 14.0462 23.4909 14.7154C23.9685 15.0789 24.417 15.4472 24.8346 15.8161C24.8522 16.1132 24.8613 16.4159 24.8613 16.7232C24.8613 17.0472 24.8512 17.366 24.8316 17.6786C24.4149 18.0467 23.9674 18.4141 23.4908 18.7768ZM24.2655 19.3664C23.443 19.9925 22.5982 20.5588 21.755 21.0579C22.4665 21.4246 23.1628 21.7345 23.8264 21.9835C24.2081 21.1471 24.5055 20.1497 24.6816 19.043C24.5452 19.1512 24.4065 19.2591 24.2655 19.3664ZM24.7525 22.2979C25.2768 21.1182 25.6382 19.6886 25.7746 18.1224C26.0229 17.9002 26.261 17.6774 26.4884 17.4547C27.1688 18.2198 27.7005 18.9616 28.0679 19.6429C28.469 20.3866 28.653 21.0187 28.6569 21.5077C28.6607 21.9924 28.4914 22.2685 28.2852 22.4255C28.0789 22.5825 27.7162 22.7114 27.0793 22.7085C26.4641 22.7057 25.6764 22.577 24.7525 22.2979ZM29.0598 23.0152C30.4902 21.9264 29.629 19.4035 27.1771 16.746C29.6289 14.0886 30.4901 11.5658 29.0597 10.477C28.1349 9.77302 26.4225 9.79823 24.384 10.4084C23.5052 8.83064 22.2985 7.85693 20.9671 7.85693C19.6145 7.85693 18.3909 8.86166 17.5087 10.4837C15.3624 9.80078 13.549 9.74428 12.5872 10.4764C11.1567 11.5652 12.0181 14.0884 14.4704 16.746C12.0181 19.4037 11.1567 21.9269 12.5872 23.0158C13.5521 23.7503 15.3744 23.691 17.53 23.0016C18.4105 24.6008 19.6254 25.5895 20.9671 25.5895C22.2875 25.5895 23.4851 24.6319 24.3621 23.0771C26.4103 23.6937 28.1316 23.7217 29.0598 23.0152ZM24.6898 14.4557C24.5175 13.3453 24.2233 12.3436 23.8441 11.502C23.1752 11.7521 22.4729 12.0643 21.755 12.4342C22.5982 12.9333 23.443 13.4996 24.2655 14.1257C24.4094 14.2352 24.5508 14.3452 24.6898 14.4557ZM20.8241 11.9099C21.718 11.432 22.6004 11.0335 23.4426 10.7234C22.6599 9.39543 21.7531 8.83045 20.9671 8.83045C20.1639 8.83045 19.2345 9.42041 18.4404 10.8116C19.2111 11.1078 20.0128 11.4762 20.8241 11.9099ZM18.0485 11.5955C18.6433 11.8285 19.2622 12.109 19.8931 12.4341C19.0495 12.9334 18.2043 13.5 17.3814 14.1263L17.2867 14.1988C17.4559 13.2308 17.7184 12.351 18.0485 11.5955ZM17.1299 11.267C16.6582 12.366 16.3258 13.6727 16.1808 15.0992C15.82 15.4108 15.479 15.7243 15.1591 16.0375C14.4785 15.2722 13.9467 14.5301 13.5791 13.8486C13.178 13.1049 12.994 12.4728 12.9902 11.9839C12.9863 11.4991 13.1556 11.223 13.3619 11.066C13.5681 10.909 13.9309 10.7801 14.5677 10.7831C15.2101 10.786 16.0404 10.9261 17.0174 11.2314C17.0548 11.243 17.0923 11.2549 17.1299 11.267ZM13.579 19.6436C13.9466 18.9621 14.4785 18.22 15.1591 17.4546C15.4806 17.7693 15.8232 18.0843 16.186 18.3974C16.3354 19.8217 16.6719 21.1252 17.1472 22.2195C17.1037 22.2336 17.0605 22.2473 17.0174 22.2608C16.0403 22.5661 15.21 22.7062 14.5676 22.7091C13.9308 22.712 13.568 22.5831 13.3618 22.4262C13.1555 22.2692 12.9863 21.993 12.9901 21.5083C12.9939 21.0193 13.1779 20.3873 13.579 19.6436ZM17.296 19.3005C17.4684 20.2643 17.7335 21.1394 18.0657 21.8899C18.6552 21.6582 19.2683 21.38 19.8931 21.058C19.0495 20.5587 18.2044 19.9922 17.3815 19.3658L17.296 19.3005ZM16.1012 16.4741C16.0075 16.5649 15.9157 16.6555 15.8258 16.746C15.9159 16.8368 16.008 16.9277 16.102 17.0187C16.1002 16.9206 16.0993 16.8221 16.0993 16.7232C16.0993 16.6399 16.0999 16.5568 16.1012 16.4741ZM27.0793 10.7837C26.468 10.7865 25.6865 10.9135 24.7703 11.1888C25.2904 12.3732 25.6473 13.8058 25.7788 15.3734C26.0256 15.5944 26.2622 15.816 26.4884 16.0374C27.1687 15.2723 27.7004 14.5305 28.0678 13.8492C28.4689 13.1055 28.6529 12.4735 28.6568 11.9845C28.6606 11.4997 28.4913 11.2236 28.2851 11.0666C28.0788 10.9096 27.7161 10.7808 27.0793 10.7837ZM20.9347 18.6354C21.8948 18.6354 22.6732 17.8571 22.6732 16.8969C22.6732 15.9368 21.8948 15.1584 20.9347 15.1584C19.9745 15.1584 19.1962 15.9368 19.1962 16.8969C19.1962 17.8571 19.9745 18.6354 20.9347 18.6354Z" fill="white"/>
</svg>
