<svg width="29" height="37" viewBox="0 0 29 37" fill="none" xmlns="http://www.w3.org/2000/svg">
<path d="M25.2145 10.7873H16.118V9.08508C17.8711 8.53459 19.1462 6.89499 19.1462 4.96306C19.1462 2.58108 17.2085 0.643066 14.8266 0.643066C12.4446 0.643066 10.5066 2.58071 10.5066 4.96306C10.5066 6.8961 11.7829 8.53641 13.5373 9.0861V10.7872H4.43861C2.38539 10.7872 0.714844 12.4578 0.714844 14.511V32.634C0.714844 34.6868 2.38539 36.3574 4.43861 36.3574H25.2142C27.267 36.3574 28.9375 34.6868 28.9375 32.634L28.9379 14.511C28.9379 12.4578 27.2674 10.7872 25.2145 10.7872L25.2145 10.7873ZM14.8263 3.22413C15.785 3.22413 16.5652 4.00431 16.5652 4.96343C16.5652 5.92004 15.7886 6.69766 14.8331 6.70162C14.8313 6.70162 14.8295 6.7009 14.8273 6.7009C14.8248 6.7009 14.8227 6.70162 14.8205 6.70162C13.8643 6.69838 13.0869 5.92035 13.0869 4.96343C13.0873 4.00433 13.8675 3.22413 14.8262 3.22413H14.8263ZM26.3574 32.634C26.3574 33.264 25.8447 33.7767 25.2147 33.7767H4.43916C3.80875 33.7767 3.29609 33.264 3.29609 32.634V14.511C3.29609 13.8806 3.80878 13.3679 4.43916 13.3679H25.2147C25.8448 13.3679 26.3574 13.8806 26.3574 14.511V32.634Z" fill="#1A3254"/>
<path d="M13.4364 21.2732C13.4364 19.2937 11.8263 17.6841 9.84692 17.6841C7.8678 17.6841 6.25781 19.2942 6.25781 21.2732C6.25781 23.2527 7.86789 24.863 9.84692 24.863C11.8264 24.863 13.4364 23.2526 13.4364 21.2732ZM8.83842 21.2732C8.83842 20.7173 9.29061 20.2648 9.84683 20.2648C10.4031 20.2648 10.8556 20.7173 10.8556 21.2732C10.8556 21.8298 10.403 22.2823 9.84683 22.2823C9.29058 22.2823 8.83842 21.8298 8.83842 21.2732Z" fill="#1A3254"/>
<path d="M19.8079 17.6841C17.8284 17.6841 16.2188 19.2942 16.2188 21.2732C16.2188 23.2527 17.8288 24.863 19.8079 24.863C21.7873 24.863 23.3977 23.2526 23.3977 21.2732C23.3977 19.2941 21.7873 17.6841 19.8079 17.6841ZM19.8079 22.2824C19.252 22.2824 18.7994 21.8299 18.7994 21.2733C18.7994 20.7174 19.252 20.2649 19.8079 20.2649C20.3645 20.2649 20.817 20.7174 20.817 21.2733C20.817 21.8299 20.3641 22.2824 19.8079 22.2824Z" fill="#1A3254"/>
<path d="M18.2641 27.3765C16.3044 29.1496 13.349 29.1496 11.3886 27.3765C10.8597 26.8973 10.0431 26.9391 9.56613 27.4672C9.08765 27.9961 9.12869 28.812 9.65722 29.2897C11.1304 30.6232 12.9785 31.2896 14.8265 31.2896C16.6742 31.2896 18.5223 30.6232 19.9959 29.2897C20.524 28.8119 20.5651 27.9957 20.0866 27.4672C19.6092 26.9394 18.793 26.8987 18.2642 27.3765H18.2641Z" fill="#1A3254"/>
</svg>
