<svg width="12" height="13" viewBox="0 0 12 13" fill="none" xmlns="http://www.w3.org/2000/svg">
<path d="M0.94279 8.22386L0.589236 7.87031H0.589236L0.94279 8.22386ZM1.20246 7.96419L1.55601 8.31775H1.55601L1.20246 7.96419ZM10.7976 7.96419L11.1512 7.61065L10.7976 7.96419ZM11.0573 8.22389L10.7037 8.57743L11.0573 8.22389ZM11.2986 9.37977L11.7724 9.53959L11.2986 9.37977ZM10.8799 9.79834L11.0397 10.2721L10.8799 9.79834ZM11.2084 8.38732L11.6145 8.0957L11.2084 8.38732ZM11.3246 8.66821L10.8312 8.74919L11.3246 8.66821ZM6.00008 0.5L6.00008 0L6.00008 0.5ZM0.675548 8.66821L0.182148 8.58724L0.675548 8.66821ZM0.791748 8.38732L1.19789 8.67895L0.791748 8.38732ZM0.701716 9.37976L1.17549 9.21996L0.701716 9.37976ZM1.1202 9.79834L1.28001 9.32457L1.1202 9.79834ZM8.00008 9.83333H8.50008C8.50008 9.55719 8.27622 9.33333 8.00008 9.33333V9.83333ZM4.00008 9.83333V9.33333C3.72394 9.33333 3.50008 9.55719 3.50008 9.83333H4.00008ZM1.29634 8.57742L1.55601 8.31775L0.848905 7.61064L0.589236 7.87031L1.29634 8.57742ZM1.83341 7.64829V5.16667H0.833415V7.64829H1.83341ZM10.1667 5.16667V7.64827H11.1667V5.16667H10.1667ZM10.444 8.31774L10.7037 8.57743L11.4109 7.87034L11.1512 7.61065L10.444 8.31774ZM10.3905 9.33333H1.60946V10.3333H10.3905V9.33333ZM10.8336 8.89054C10.8336 9.02471 10.8334 9.1046 10.83 9.16441C10.8268 9.22072 10.8219 9.22853 10.8248 9.21996L11.7724 9.53959C11.8402 9.33856 11.8336 9.10722 11.8336 8.89054H10.8336ZM10.3905 10.3333C10.6072 10.3333 10.8387 10.3399 11.0397 10.2721L10.7201 9.32457C10.7287 9.32167 10.7209 9.32656 10.6645 9.32975C10.6046 9.33314 10.5246 9.33333 10.3905 9.33333V10.3333ZM10.8248 9.21996C10.8082 9.26917 10.7695 9.3079 10.7201 9.32457L11.0397 10.2721C11.3848 10.1557 11.6559 9.88486 11.7724 9.53959L10.8248 9.21996ZM10.7037 8.57743C10.7457 8.61942 10.7691 8.64285 10.7864 8.66126C10.8015 8.6774 10.8036 8.68088 10.8022 8.67895L11.6145 8.0957C11.5535 8.01066 11.4785 7.93798 11.4109 7.87034L10.7037 8.57743ZM11.8336 8.89054C11.8336 8.79337 11.8349 8.69019 11.818 8.58724L10.8312 8.74919C10.8309 8.74739 10.8319 8.75165 10.8327 8.77356C10.8335 8.7985 10.8336 8.83161 10.8336 8.89054H11.8336ZM10.8022 8.67895C10.817 8.69958 10.827 8.72358 10.8312 8.74919L11.818 8.58724C11.789 8.41018 11.7195 8.2419 11.6145 8.0957L10.8022 8.67895ZM10.1667 7.64827C10.1667 7.89937 10.2665 8.14019 10.444 8.31774L11.1512 7.61065C11.1611 7.62062 11.1667 7.63414 11.1667 7.64827H10.1667ZM6.00008 1C8.30127 0.999994 10.1667 2.86548 10.1667 5.16667H11.1667C11.1667 2.31319 8.85356 -6.97374e-06 6.00008 0L6.00008 1ZM1.83341 5.16667C1.83341 2.86549 3.6989 1.00001 6.00008 1L6.00008 0C3.14662 7.00355e-06 0.833415 2.3132 0.833415 5.16667H1.83341ZM1.55601 8.31775C1.73335 8.1404 1.83341 7.89968 1.83341 7.64829H0.833415C0.833415 7.63387 0.839133 7.62041 0.848905 7.61064L1.55601 8.31775ZM1.16675 8.89056C1.16675 8.83132 1.1668 8.79823 1.1676 8.7731C1.16829 8.75107 1.1693 8.74703 1.16895 8.74919L0.182148 8.58724C0.165213 8.69044 0.166748 8.79437 0.166748 8.89056H1.16675ZM0.589236 7.87031C0.521333 7.93821 0.446623 8.01072 0.385605 8.09569L1.19789 8.67895C1.19658 8.68078 1.1987 8.67723 1.21382 8.66113C1.23106 8.64277 1.25443 8.61933 1.29634 8.57742L0.589236 7.87031ZM1.16895 8.74919C1.17318 8.72339 1.18319 8.69943 1.19789 8.67895L0.385605 8.09569C0.280517 8.24204 0.211177 8.41036 0.182148 8.58724L1.16895 8.74919ZM0.166748 8.89056C0.166748 9.10722 0.160137 9.33855 0.227942 9.53957L1.17549 9.21996C1.17838 9.22852 1.17351 9.22071 1.17032 9.16441C1.16693 9.10461 1.16675 9.02472 1.16675 8.89056H0.166748ZM1.60946 9.33333C1.47532 9.33333 1.39542 9.33314 1.33561 9.32975C1.2793 9.32656 1.27146 9.32168 1.28001 9.32457L0.960391 10.2721C1.16139 10.3399 1.39271 10.3333 1.60946 10.3333V9.33333ZM0.227942 9.53957C0.344334 9.88463 0.615097 10.1556 0.960391 10.2721L1.28001 9.32457C1.23081 9.30797 1.19216 9.26938 1.17549 9.21996L0.227942 9.53957ZM7.50008 9.83333V10.5H8.50008V9.83333H7.50008ZM4.50008 10.5V9.83333H3.50008V10.5H4.50008ZM4.00008 10.3333H8.00008V9.33333H4.00008V10.3333ZM6.00008 12C5.17165 12 4.50008 11.3284 4.50008 10.5H3.50008C3.50008 11.8807 4.61937 13 6.00008 13V12ZM7.50008 10.5C7.50008 11.3284 6.82851 12 6.00008 12V13C7.38079 13 8.50008 11.8807 8.50008 10.5H7.50008Z" fill="white"/>
</svg>
