<svg width="145" height="29" viewBox="0 0 145 29" fill="none" xmlns="http://www.w3.org/2000/svg">
<path d="M11.6 -1.90735e-06C15.4667 -1.90735e-06 18.6933 1.34666 21.28 4.04C23.8933 6.70667 25.2 10.0267 25.2 14C25.2 17.9733 23.8933 21.3067 21.28 24C18.6933 26.6667 15.4667 28 11.6 28H0.4V-1.90735e-06H11.6ZM11.6 21.84C13.8133 21.84 15.6 21.1333 16.96 19.72C18.3467 18.28 19.04 16.3733 19.04 14C19.04 11.6267 18.3467 9.73333 16.96 8.32C15.6 6.88 13.8133 6.16 11.6 6.16H6.8V21.84H11.6ZM43.1184 8H49.1184V28H43.1184V26.12C41.7051 27.7467 39.7184 28.56 37.1584 28.56C34.5184 28.56 32.2651 27.5467 30.3984 25.52C28.5318 23.4667 27.5984 20.96 27.5984 18C27.5984 15.04 28.5318 12.5467 30.3984 10.52C32.2651 8.46667 34.5184 7.44 37.1584 7.44C39.7184 7.44 41.7051 8.25333 43.1184 9.88V8ZM34.9184 21.56C35.7984 22.44 36.9451 22.88 38.3584 22.88C39.7718 22.88 40.9184 22.44 41.7984 21.56C42.6784 20.68 43.1184 19.4933 43.1184 18C43.1184 16.5067 42.6784 15.32 41.7984 14.44C40.9184 13.56 39.7718 13.12 38.3584 13.12C36.9451 13.12 35.7984 13.56 34.9184 14.44C34.0384 15.32 33.5984 16.5067 33.5984 18C33.5984 19.4933 34.0384 20.68 34.9184 21.56ZM65.2403 13.76H61.1203V20.84C61.1203 21.64 61.4403 22.1467 62.0803 22.36C62.7203 22.5733 63.7736 22.64 65.2403 22.56V28C61.427 28.4 58.787 28.04 57.3203 26.92C55.8536 25.7733 55.1203 23.7467 55.1203 20.84V13.76H51.9203V8H55.1203V4.2L61.1203 2.4V8H65.2403V13.76ZM82.7669 8H88.7669V28H82.7669V26.12C81.3535 27.7467 79.3669 28.56 76.8069 28.56C74.1669 28.56 71.9135 27.5467 70.0469 25.52C68.1802 23.4667 67.2469 20.96 67.2469 18C67.2469 15.04 68.1802 12.5467 70.0469 10.52C71.9135 8.46667 74.1669 7.44 76.8069 7.44C79.3669 7.44 81.3535 8.25333 82.7669 9.88V8ZM74.5669 21.56C75.4469 22.44 76.5935 22.88 78.0069 22.88C79.4202 22.88 80.5669 22.44 81.4469 21.56C82.3269 20.68 82.7669 19.4933 82.7669 18C82.7669 16.5067 82.3269 15.32 81.4469 14.44C80.5669 13.56 79.4202 13.12 78.0069 13.12C76.5935 13.12 75.4469 13.56 74.5669 14.44C73.6869 15.32 73.2469 16.5067 73.2469 18C73.2469 19.4933 73.6869 20.68 74.5669 21.56ZM99.7688 21.84H109.769V28H93.3688V-1.90735e-06H99.7688V21.84ZM112.588 -1.90735e-06H118.988V28H112.588V-1.90735e-06ZM141.158 13.48C143.452 14.9467 144.598 17.0533 144.598 19.8C144.598 22.2267 143.732 24.2 141.998 25.72C140.265 27.24 138.118 28 135.558 28H123.798V-1.90735e-06H134.758C137.265 -1.90735e-06 139.358 0.746665 141.038 2.24C142.745 3.70666 143.598 5.62667 143.598 8C143.598 10.24 142.785 12.0667 141.158 13.48ZM134.758 6H130.198V10.96H134.758C135.478 10.96 136.065 10.7333 136.518 10.28C136.972 9.8 137.198 9.2 137.198 8.48C137.198 7.76 136.972 7.17333 136.518 6.72C136.065 6.24 135.478 6 134.758 6ZM135.558 22C136.358 22 136.998 21.76 137.478 21.28C137.958 20.7733 138.198 20.12 138.198 19.32C138.198 18.52 137.958 17.88 137.478 17.4C136.998 16.8933 136.358 16.64 135.558 16.64H130.198V22H135.558Z" fill="white"/>
</svg>