<svg width="12" height="10" viewBox="0 0 12 10" fill="none" xmlns="http://www.w3.org/2000/svg">
<path d="M7.54042 0.959641C7.1499 0.569117 6.51673 0.569117 6.12621 0.959641C5.73568 1.35017 5.73568 1.98333 6.12621 2.37385L7.54042 0.959641ZM10.1666 5.00008L10.8738 5.70719C11.0613 5.51965 11.1666 5.2653 11.1666 5.00008C11.1666 4.73486 11.0613 4.48051 10.8738 4.29297L10.1666 5.00008ZM6.12621 7.62631C5.73568 8.01683 5.73568 8.65 6.12621 9.04052C6.51673 9.43105 7.1499 9.43105 7.54042 9.04052L6.12621 7.62631ZM2.54042 0.959641C2.1499 0.569117 1.51673 0.569117 1.12621 0.959641C0.735682 1.35017 0.735682 1.98333 1.12621 2.37385L2.54042 0.959641ZM5.16665 5.00008L5.87375 5.70719C6.06129 5.51965 6.16665 5.2653 6.16665 5.00008C6.16665 4.73486 6.06129 4.48051 5.87375 4.29297L5.16665 5.00008ZM1.12621 7.62631C0.735682 8.01683 0.735682 8.65 1.12621 9.04052C1.51673 9.43105 2.1499 9.43105 2.54042 9.04052L1.12621 7.62631ZM6.12621 2.37385L9.45954 5.70719L10.8738 4.29297L7.54042 0.959641L6.12621 2.37385ZM9.45954 4.29297L6.12621 7.62631L7.54042 9.04052L10.8738 5.70719L9.45954 4.29297ZM1.12621 2.37385L4.45954 5.70719L5.87375 4.29297L2.54042 0.959641L1.12621 2.37385ZM4.45954 4.29297L1.12621 7.62631L2.54042 9.04052L5.87375 5.70719L4.45954 4.29297Z" fill="#CDD2E6"/>
</svg>
