<svg width="14" height="13" viewBox="0 0 14 13" fill="none" xmlns="http://www.w3.org/2000/svg">
<path d="M12.7673 4.82206L13.1834 5.4461C13.392 5.307 13.5173 5.07282 13.5173 4.82206C13.5173 4.57129 13.392 4.33712 13.1834 4.19802L12.7673 4.82206ZM6.76733 8.82206L6.35131 9.4461C6.60323 9.61405 6.93143 9.61405 7.18336 9.4461L6.76733 8.82206ZM0.767334 4.82206L0.351309 4.19802C0.14266 4.33712 0.017334 4.57129 0.017334 4.82206C0.017334 5.07282 0.14266 5.307 0.351309 5.4461L0.767334 4.82206ZM6.76733 0.82206L7.18336 0.198022C6.93143 0.0300722 6.60323 0.0300722 6.35131 0.198022L6.76733 0.82206ZM13.1834 8.11276C13.528 7.883 13.6211 7.41735 13.3914 7.0727C13.1616 6.72805 12.696 6.63492 12.3513 6.86469L13.1834 8.11276ZM6.76733 11.4887L6.35131 12.1128C6.60323 12.2807 6.93143 12.2807 7.18336 12.1128L6.76733 11.4887ZM1.18336 6.86469C0.838713 6.63492 0.373061 6.72805 0.143296 7.0727C-0.0864681 7.41735 0.00666231 7.883 0.351309 8.11276L1.18336 6.86469ZM12.3513 4.19802L6.35131 8.19802L7.18336 9.4461L13.1834 5.4461L12.3513 4.19802ZM7.18336 8.19802L1.18336 4.19802L0.351309 5.4461L6.35131 9.4461L7.18336 8.19802ZM1.18336 5.4461L7.18336 1.4461L6.35131 0.198022L0.351309 4.19802L1.18336 5.4461ZM6.35131 1.4461L12.3513 5.4461L13.1834 4.19802L7.18336 0.198022L6.35131 1.4461ZM12.3513 6.86469L6.35131 10.8647L7.18336 12.1128L13.1834 8.11276L12.3513 6.86469ZM7.18336 10.8647L1.18336 6.86469L0.351309 8.11276L6.35131 12.1128L7.18336 10.8647Z" fill="#031E80"/>
</svg>
