<svg width="497" height="467" viewBox="0 0 497 467" fill="none" xmlns="http://www.w3.org/2000/svg">
<path d="M188.536 116.8H32.291V462.283H188.536V116.8Z" fill="#E0E0E0"/>
<path d="M188.536 113.769V465.289H217.324V113.769H188.536Z" fill="#E6E6E6"/>
<path d="M4.89746 113.769V465.289H33.6736V113.769H4.89746Z" fill="#E6E6E6"/>
<path d="M0 113.769V465.289H191.991V113.769H0ZM185.081 119.83V182.861H6.89707V119.83H185.081ZM6.89707 321.045V258.014H185.081V321.045H6.89707ZM185.081 327.106V390.137H6.89707V327.106H185.081ZM6.89707 251.953V188.922H185.081V251.953H6.89707ZM6.89707 459.229V396.198H185.081V459.229H6.89707Z" fill="#F5F5F5"/>
<path d="M122.838 183.443H129.48V134.533H122.838V183.443Z" fill="#E6E6E6"/>
<path d="M129.48 183.443H136.123V134.533H129.48V183.443Z" fill="#E0E0E0"/>
<path d="M109.552 183.443H122.837V137.964H109.552V183.443Z" fill="#E6E6E6"/>
<path d="M94.3409 183.443H102.923V134.533H94.3409V183.443Z" fill="#F0F0F0"/>
<path d="M102.922 183.443H109.565V134.533H102.922V183.443Z" fill="#EBEBEB"/>
<path d="M43.9635 183.443H52.5454L52.5454 134.533H43.9635L43.9635 183.443Z" fill="#E6E6E6"/>
<path d="M52.5455 183.443H59.188L59.188 134.533H52.5455L52.5455 183.443Z" fill="#EBEBEB"/>
<path d="M72.461 183.443H81.043V134.533H72.461V183.443Z" fill="#E6E6E6"/>
<path d="M81.0435 183.443H87.686V134.533H81.0435V183.443Z" fill="#E0E0E0"/>
<path d="M30.6788 183.443H43.9639L43.9639 135.685H30.6788L30.6788 183.443Z" fill="#EBEBEB"/>
<path d="M24.0489 183.443H30.6914L30.6914 135.685H24.0489L24.0489 183.443Z" fill="#E0E0E0"/>
<path d="M63.6246 183.443H72.4731V135.685H63.6246L63.6246 183.443Z" fill="#E0E0E0"/>
<path d="M59.1885 183.443H63.6128L63.6128 135.685H59.1885L59.1885 183.443Z" fill="#F0F0F0"/>
<path d="M81.0431 183.443H94.3281V137.964H81.0431V183.443Z" fill="#F5F5F5"/>
<path d="M156.051 183.443H164.633V134.533H156.051V183.443Z" fill="#EBEBEB"/>
<path d="M164.632 183.443H171.275V134.533H164.632V183.443Z" fill="#E6E6E6"/>
<path d="M142.754 183.443H156.039V135.685H142.754V183.443Z" fill="#E0E0E0"/>
<path d="M136.111 183.443H142.753V135.685H136.111V183.443Z" fill="#EBEBEB"/>
<path d="M175.699 183.443H184.548V135.685H175.699V183.443Z" fill="#EBEBEB"/>
<path d="M171.275 183.443H175.699V135.685H171.275V183.443Z" fill="#FAFAFA"/>
<path d="M85.7465 203.019H79.104V251.929H85.7465V203.019Z" fill="#E6E6E6"/>
<path d="M79.1157 203.019H72.4731V251.929H79.1157V203.019Z" fill="#E0E0E0"/>
<path d="M99.0316 206.462H85.7466V251.941H99.0316V206.462Z" fill="#E6E6E6"/>
<path d="M114.256 203.019H105.674V251.929H114.256V203.019Z" fill="#F0F0F0"/>
<path d="M105.674 203.019H99.0317V251.929H105.674V203.019Z" fill="#EBEBEB"/>
<path d="M164.62 203.019H156.039V251.929H164.62V203.019Z" fill="#E6E6E6"/>
<path d="M156.039 203.019H149.396V251.929H156.039V203.019Z" fill="#EBEBEB"/>
<path d="M136.123 203.019H127.541V251.929H136.123V203.019Z" fill="#E6E6E6"/>
<path d="M127.541 203.019H120.898V251.929H127.541V203.019Z" fill="#E0E0E0"/>
<path d="M177.905 204.183H164.62V251.941H177.905V204.183Z" fill="#EBEBEB"/>
<path d="M184.548 204.183H177.905V251.941H184.548V204.183Z" fill="#E0E0E0"/>
<path d="M144.971 204.183H136.123V251.941H144.971V204.183Z" fill="#E0E0E0"/>
<path d="M149.396 204.183H144.972V251.941H149.396V204.183Z" fill="#F0F0F0"/>
<path d="M127.541 206.462H114.256V251.941H127.541V206.462Z" fill="#F5F5F5"/>
<path d="M52.5458 203.019H43.9639V251.929H52.5458V203.019Z" fill="#EBEBEB"/>
<path d="M43.9638 203.019H37.3213V251.929H43.9638V203.019Z" fill="#E6E6E6"/>
<path d="M65.8304 204.183H52.5454V251.941H65.8304V204.183Z" fill="#E0E0E0"/>
<path d="M72.4736 204.183H65.8311V251.941H72.4736V204.183Z" fill="#EBEBEB"/>
<path d="M32.8847 204.183H24.0361V251.941H32.8847V204.183Z" fill="#EBEBEB"/>
<path d="M37.3213 204.183H32.897V251.941H37.3213V204.183Z" fill="#FAFAFA"/>
<path d="M85.7465 272.729H79.104V321.639H85.7465V272.729Z" fill="#E6E6E6"/>
<path d="M79.1157 272.729H72.4731V321.639H79.1157V272.729Z" fill="#E0E0E0"/>
<path d="M99.0316 276.16H85.7466V321.639H99.0316V276.16Z" fill="#E6E6E6"/>
<path d="M114.256 272.729H105.674V321.639H114.256V272.729Z" fill="#F0F0F0"/>
<path d="M105.674 272.729H99.0317V321.639H105.674V272.729Z" fill="#EBEBEB"/>
<path d="M164.62 272.729H156.039V321.639H164.62V272.729Z" fill="#E6E6E6"/>
<path d="M156.039 272.729H149.396V321.639H156.039V272.729Z" fill="#EBEBEB"/>
<path d="M136.123 272.729H127.541V321.639H136.123V272.729Z" fill="#E6E6E6"/>
<path d="M127.541 272.729H120.898V321.639H127.541V272.729Z" fill="#E0E0E0"/>
<path d="M177.905 273.88H164.62V321.639H177.905V273.88Z" fill="#EBEBEB"/>
<path d="M184.548 273.88H177.905V321.639H184.548V273.88Z" fill="#E0E0E0"/>
<path d="M144.971 273.88H136.123V321.639H144.971V273.88Z" fill="#E0E0E0"/>
<path d="M149.396 273.88H144.972V321.639H149.396V273.88Z" fill="#F0F0F0"/>
<path d="M127.541 276.16H114.256V321.639H127.541V276.16Z" fill="#F5F5F5"/>
<path d="M52.5458 272.729H43.9639V321.639H52.5458V272.729Z" fill="#EBEBEB"/>
<path d="M43.9638 272.729H37.3213V321.639H43.9638V272.729Z" fill="#E6E6E6"/>
<path d="M65.8304 273.88H52.5454V321.639H65.8304V273.88Z" fill="#E0E0E0"/>
<path d="M72.4736 273.88H65.8311V321.639H72.4736V273.88Z" fill="#EBEBEB"/>
<path d="M32.8847 273.88H24.0361V321.639H32.8847V273.88Z" fill="#EBEBEB"/>
<path d="M37.3213 273.88H32.897V321.639H37.3213V273.88Z" fill="#FAFAFA"/>
<path d="M122.838 391.349H129.48V342.439H122.838V391.349Z" fill="#E6E6E6"/>
<path d="M129.48 391.349H136.123V342.439H129.48V391.349Z" fill="#E0E0E0"/>
<path d="M109.552 387.906H122.837V342.427H109.552V387.906Z" fill="#E6E6E6"/>
<path d="M94.3409 391.349H102.923V342.439H94.3409V391.349Z" fill="#F0F0F0"/>
<path d="M102.922 391.349H109.565V342.439H102.922V391.349Z" fill="#EBEBEB"/>
<path d="M43.9635 391.349H52.5454L52.5454 342.439H43.9635L43.9635 391.349Z" fill="#E6E6E6"/>
<path d="M52.5455 391.349H59.188L59.188 342.439H52.5455L52.5455 391.349Z" fill="#EBEBEB"/>
<path d="M72.461 391.349H81.043V342.439H72.461V391.349Z" fill="#E6E6E6"/>
<path d="M81.0435 391.349H87.686V342.439H81.0435V391.349Z" fill="#E0E0E0"/>
<path d="M30.6788 390.185H43.9639L43.9639 342.427H30.6788L30.6788 390.185Z" fill="#EBEBEB"/>
<path d="M24.0489 390.185H30.6914L30.6914 342.427H24.0489L24.0489 390.185Z" fill="#E0E0E0"/>
<path d="M63.6246 390.185H72.4731V342.427H63.6246L63.6246 390.185Z" fill="#E0E0E0"/>
<path d="M59.1885 390.185H63.6128L63.6128 342.427H59.1885L59.1885 390.185Z" fill="#F0F0F0"/>
<path d="M81.0431 387.906H94.3281V342.427H81.0431V387.906Z" fill="#F5F5F5"/>
<path d="M156.051 391.349H164.633V342.439H156.051V391.349Z" fill="#EBEBEB"/>
<path d="M164.632 391.349H171.275V342.439H164.632V391.349Z" fill="#E6E6E6"/>
<path d="M142.754 390.185H156.039V342.427H142.754V390.185Z" fill="#E0E0E0"/>
<path d="M136.111 390.185H142.753V342.427H136.111V390.185Z" fill="#EBEBEB"/>
<path d="M175.699 390.185H184.548V342.427H175.699V390.185Z" fill="#EBEBEB"/>
<path d="M171.275 390.185H175.699V342.427H171.275V390.185Z" fill="#FAFAFA"/>
<path d="M85.7465 412.137H79.104V461.047H85.7465V412.137Z" fill="#E6E6E6"/>
<path d="M79.1157 412.137H72.4731V461.047H79.1157V412.137Z" fill="#E0E0E0"/>
<path d="M99.0316 412.137H85.7466V457.617H99.0316V412.137Z" fill="#E6E6E6"/>
<path d="M114.256 412.137H105.674V461.047H114.256V412.137Z" fill="#F0F0F0"/>
<path d="M105.674 412.137H99.0317V461.047H105.674V412.137Z" fill="#EBEBEB"/>
<path d="M164.62 412.137H156.039V461.047H164.62V412.137Z" fill="#E6E6E6"/>
<path d="M156.039 412.137H149.396V461.047H156.039V412.137Z" fill="#EBEBEB"/>
<path d="M136.123 412.137H127.541V461.047H136.123V412.137Z" fill="#E6E6E6"/>
<path d="M127.541 412.137H120.898V461.047H127.541V412.137Z" fill="#E0E0E0"/>
<path d="M177.905 412.137H164.62V459.895H177.905V412.137Z" fill="#EBEBEB"/>
<path d="M184.548 412.137H177.905V459.895H184.548V412.137Z" fill="#E0E0E0"/>
<path d="M144.971 412.137H136.123V459.895H144.971V412.137Z" fill="#E0E0E0"/>
<path d="M149.396 412.137H144.972V459.895H149.396V412.137Z" fill="#F0F0F0"/>
<path d="M127.541 412.137H114.256V457.617H127.541V412.137Z" fill="#F5F5F5"/>
<path d="M52.5458 412.137H43.9639V461.047H52.5458V412.137Z" fill="#EBEBEB"/>
<path d="M43.9638 412.137H37.3213V461.047H43.9638V412.137Z" fill="#E6E6E6"/>
<path d="M65.8304 412.137H52.5454V459.895H65.8304V412.137Z" fill="#E0E0E0"/>
<path d="M72.4736 412.137H65.8311V459.895H72.4736V412.137Z" fill="#EBEBEB"/>
<path d="M32.8847 412.137H24.0361V459.895H32.8847V412.137Z" fill="#EBEBEB"/>
<path d="M37.3213 412.137H32.897V459.895H37.3213V412.137Z" fill="#FAFAFA"/>
<path d="M304.94 466.053H476.721" stroke="#263238" stroke-miterlimit="10"/>
<path d="M28.0449 466.053H291.807" stroke="#263238" stroke-miterlimit="10"/>
<path d="M1.7583 466.053H20.5328" stroke="#263238" stroke-miterlimit="10"/>
<path opacity="0.3" d="M399.588 300.813L397.686 295.347H375.099V300.813V327.699V333.165H422.702V300.813H399.588Z" stroke="#263238" stroke-linecap="round" stroke-linejoin="round"/>
<path opacity="0.3" d="M344.825 300.813L342.924 295.347H320.336V300.813V327.699V333.165H367.939V300.813H344.825Z" stroke="#263238" stroke-linecap="round" stroke-linejoin="round"/>
<path d="M488.882 117.832H434.336V128.743H488.882V117.832Z" stroke="#ABABAB" stroke-miterlimit="10"/>
<path d="M488.882 131.471H434.336V142.382H488.882V131.471Z" stroke="#ABABAB" stroke-miterlimit="10"/>
<path d="M488.882 145.12H434.336V156.032H488.882V145.12Z" stroke="#ABABAB" stroke-miterlimit="10"/>
<path d="M488.882 158.76H434.336V169.671H488.882V158.76Z" stroke="#ABABAB" stroke-miterlimit="10"/>
<path d="M488.882 172.399H434.336V183.31H488.882V172.399Z" stroke="#ABABAB" stroke-miterlimit="10"/>
<path d="M472.804 123.597C472.807 123.2 472.69 122.811 472.471 122.479C472.251 122.148 471.939 121.89 471.572 121.737C471.205 121.584 470.801 121.543 470.411 121.62C470.022 121.697 469.664 121.888 469.383 122.169C469.102 122.45 468.91 122.808 468.833 123.198C468.756 123.588 468.797 123.992 468.95 124.359C469.103 124.725 469.362 125.038 469.693 125.258C470.024 125.477 470.413 125.593 470.81 125.591C471.339 125.591 471.846 125.381 472.22 125.007C472.594 124.633 472.804 124.126 472.804 123.597Z" stroke="#ABABAB" stroke-miterlimit="10"/>
<path d="M479.79 123.597C479.79 123.203 479.673 122.817 479.454 122.489C479.234 122.161 478.923 121.906 478.559 121.755C478.194 121.604 477.793 121.565 477.406 121.641C477.02 121.718 476.664 121.908 476.385 122.187C476.106 122.466 475.917 122.821 475.84 123.208C475.763 123.595 475.802 123.996 475.953 124.361C476.104 124.725 476.36 125.036 476.688 125.255C477.015 125.475 477.401 125.592 477.795 125.592C478.058 125.593 478.318 125.542 478.56 125.443C478.803 125.343 479.023 125.196 479.209 125.011C479.394 124.825 479.541 124.605 479.641 124.362C479.74 124.12 479.791 123.86 479.79 123.597Z" stroke="#ABABAB" stroke-miterlimit="10"/>
<path d="M470.811 138.9C471.912 138.9 472.805 138.007 472.805 136.906C472.805 135.804 471.912 134.911 470.811 134.911C469.709 134.911 468.816 135.804 468.816 136.906C468.816 138.007 469.709 138.9 470.811 138.9Z" stroke="#ABABAB" stroke-miterlimit="10"/>
<path d="M477.795 138.9C478.897 138.9 479.79 138.007 479.79 136.906C479.79 135.804 478.897 134.911 477.795 134.911C476.694 134.911 475.801 135.804 475.801 136.906C475.801 138.007 476.694 138.9 477.795 138.9Z" stroke="#ABABAB" stroke-miterlimit="10"/>
<path d="M470.811 152.209C471.912 152.209 472.805 151.316 472.805 150.214C472.805 149.113 471.912 148.22 470.811 148.22C469.709 148.22 468.816 149.113 468.816 150.214C468.816 151.316 469.709 152.209 470.811 152.209Z" stroke="#ABABAB" stroke-miterlimit="10"/>
<path d="M477.795 152.209C478.897 152.209 479.79 151.316 479.79 150.214C479.79 149.113 478.897 148.22 477.795 148.22C476.694 148.22 475.801 149.113 475.801 150.214C475.801 151.316 476.694 152.209 477.795 152.209Z" stroke="#ABABAB" stroke-miterlimit="10"/>
<path d="M472.804 163.533C472.807 163.136 472.69 162.747 472.471 162.416C472.251 162.084 471.939 161.826 471.572 161.673C471.205 161.52 470.801 161.479 470.411 161.556C470.022 161.633 469.664 161.824 469.383 162.105C469.102 162.386 468.91 162.744 468.833 163.134C468.756 163.524 468.797 163.928 468.95 164.295C469.103 164.661 469.362 164.974 469.693 165.194C470.024 165.413 470.413 165.529 470.81 165.527C471.338 165.525 471.844 165.314 472.217 164.94C472.591 164.567 472.802 164.061 472.804 163.533Z" stroke="#ABABAB" stroke-miterlimit="10"/>
<path d="M479.79 163.533C479.79 163.139 479.673 162.753 479.454 162.425C479.234 162.097 478.923 161.842 478.559 161.691C478.194 161.54 477.793 161.5 477.406 161.577C477.02 161.654 476.664 161.844 476.385 162.123C476.106 162.402 475.917 162.757 475.84 163.144C475.763 163.531 475.802 163.932 475.953 164.296C476.104 164.661 476.36 164.972 476.688 165.191C477.015 165.41 477.401 165.527 477.795 165.527C478.324 165.527 478.832 165.317 479.206 164.943C479.58 164.569 479.79 164.062 479.79 163.533Z" stroke="#ABABAB" stroke-miterlimit="10"/>
<path d="M470.811 178.836C471.912 178.836 472.805 177.943 472.805 176.842C472.805 175.74 471.912 174.847 470.811 174.847C469.709 174.847 468.816 175.74 468.816 176.842C468.816 177.943 469.709 178.836 470.811 178.836Z" stroke="#ABABAB" stroke-miterlimit="10"/>
<path d="M477.795 178.836C478.897 178.836 479.79 177.943 479.79 176.842C479.79 175.74 478.897 174.847 477.795 174.847C476.694 174.847 475.801 175.74 475.801 176.842C475.801 177.943 476.694 178.836 477.795 178.836Z" stroke="#ABABAB" stroke-miterlimit="10"/>
<path d="M458.897 117.511V1H288.873V352.27H457.998V183.971" stroke="#ABABAB" stroke-miterlimit="10"/>
<path d="M388.985 403.685C394.972 403.685 399.824 390.959 399.824 375.26C399.824 359.561 394.972 346.835 388.985 346.835C382.999 346.835 378.146 359.561 378.146 375.26C378.146 390.959 382.999 403.685 388.985 403.685Z" fill="url(#paint0_linear_126_13214)" stroke="#263238" stroke-miterlimit="10"/>
<path d="M422.666 357.775C426.055 347.11 425.042 337.269 420.403 335.795C415.764 334.32 409.256 341.771 405.866 352.436C402.477 363.101 403.49 372.942 408.129 374.416C412.768 375.89 419.277 368.44 422.666 357.775Z" fill="url(#paint1_linear_126_13214)" stroke="#263238" stroke-miterlimit="10"/>
<path d="M343.13 422.036C332.094 420.166 323.808 414.803 324.624 409.957C325.44 405.111 335.039 402.776 346.074 404.646C357.11 406.516 365.386 411.879 364.58 416.725C363.774 421.571 354.165 423.906 343.13 422.036Z" fill="url(#paint2_linear_126_13214)" stroke="#263238" stroke-miterlimit="10"/>
<path d="M432.87 395.775C442.084 386.638 446.137 375.785 441.922 371.534C437.706 367.283 426.82 371.245 417.605 380.382C408.391 389.52 404.338 400.373 408.554 404.624C412.769 408.874 423.655 404.913 432.87 395.775Z" fill="url(#paint3_linear_126_13214)" stroke="#263238" stroke-miterlimit="10"/>
<path d="M375.309 401.08C380.943 397.197 378.286 383.571 369.377 370.645C360.467 357.72 348.677 350.39 343.043 354.273C337.41 358.157 340.066 371.783 348.976 384.708C357.886 397.634 369.676 404.964 375.309 401.08Z" fill="url(#paint4_linear_126_13214)" stroke="#263238" stroke-miterlimit="10"/>
<path d="M389.74 402.28L390.577 441.358" stroke="#263238" stroke-miterlimit="10" stroke-linecap="round"/>
<path d="M388.728 364.69L389.741 402.28" stroke="#263238" stroke-miterlimit="10" stroke-linecap="round"/>
<path d="M388.8 358.562L388.728 361.445" stroke="#263238" stroke-miterlimit="10" stroke-linecap="round"/>
<path d="M375.275 399.283C381.494 412.121 385.131 426.055 385.98 440.294" stroke="#263238" stroke-miterlimit="10" stroke-linecap="round"/>
<path d="M356.676 370.827C364.107 379.459 370.361 389.039 375.275 399.314" stroke="#263238" stroke-miterlimit="10" stroke-linecap="round"/>
<path d="M350.776 364.628C350.776 364.628 351.903 365.661 353.752 367.614" stroke="#263238" stroke-miterlimit="10" stroke-linecap="round"/>
<path d="M409.217 403.293C401.618 413.953 395.694 425.713 391.652 438.165" stroke="#263238" stroke-miterlimit="10" stroke-linecap="round"/>
<path d="M421.689 388.961C417.098 393.343 412.923 398.14 409.217 403.292" stroke="#263238" stroke-miterlimit="10" stroke-linecap="round"/>
<path d="M434.998 378.814C431.611 380.73 428.429 382.987 425.502 385.551" stroke="#263238" stroke-miterlimit="10" stroke-linecap="round"/>
<path d="M408.763 371.726C402.76 390.625 394.7 418.543 390.939 442.784" stroke="#263238" stroke-miterlimit="10" stroke-linecap="round"/>
<path d="M412.472 360.495C411.439 363.677 410.158 367.459 408.814 371.695" stroke="#263238" stroke-miterlimit="10" stroke-linecap="round"/>
<path d="M416.171 349.676C416.171 349.676 415.138 352.569 413.433 357.529" stroke="#263238" stroke-miterlimit="10" stroke-linecap="round"/>
<path d="M364.022 414.111C368.316 415.613 372.206 418.081 375.393 421.326C378.58 424.57 380.979 428.504 382.404 432.823" stroke="#263238" stroke-miterlimit="10" stroke-linecap="round"/>
<path d="M350.167 411.29C354.9 411.53 359.571 412.481 364.023 414.111" stroke="#263238" stroke-miterlimit="10" stroke-linecap="round"/>
<path d="M341.177 411.517C341.177 411.517 342.51 411.321 344.711 411.238" stroke="#263238" stroke-miterlimit="10" stroke-linecap="round"/>
<path d="M437.54 422.036C448.575 420.166 456.862 414.803 456.045 409.957C455.229 405.111 445.63 402.776 434.595 404.646C423.559 406.516 415.283 411.879 416.089 416.725C416.895 421.571 426.504 423.906 437.54 422.036Z" fill="url(#paint5_linear_126_13214)" stroke="#263238" stroke-miterlimit="10"/>
<path d="M416.884 414.018C409.3 416.839 401.861 422.336 398.286 432.834" stroke="#263238" stroke-miterlimit="10" stroke-linecap="round"/>
<path d="M431.67 411.238C426.626 411.381 421.636 412.319 416.884 414.018" stroke="#263238" stroke-miterlimit="10" stroke-linecap="round"/>
<path d="M439.482 411.517C439.482 411.517 438.603 411.383 437.095 411.29" stroke="#263238" stroke-miterlimit="10" stroke-linecap="round"/>
<path d="M416.729 466.053C420.076 459.064 421.84 451.422 421.896 443.673C421.9 439.034 421.204 434.422 419.829 429.992H362.069C360.695 434.422 359.998 439.034 360.003 443.673C360.053 451.423 361.817 459.066 365.169 466.053H416.729Z" fill="#263238"/>
<path d="M360.592 436.388C360.427 437.421 360.292 438.506 360.199 439.591H421.668C421.575 438.506 421.451 437.442 421.286 436.388H360.592Z" fill="#7A7A7A"/>
<path d="M421.017 452.734C421.203 451.701 421.379 450.606 421.503 449.531H360.364C360.499 450.565 360.664 451.67 360.86 452.734H421.017Z" fill="#7A7A7A"/>
<path d="M367.484 443.848C367.484 444.341 367.338 444.822 367.064 445.232C366.79 445.641 366.402 445.96 365.947 446.149C365.492 446.337 364.991 446.386 364.508 446.29C364.025 446.194 363.581 445.957 363.233 445.609C362.885 445.261 362.647 444.817 362.551 444.334C362.455 443.851 362.504 443.35 362.693 442.895C362.881 442.44 363.201 442.051 363.61 441.778C364.02 441.504 364.501 441.358 364.994 441.358C365.321 441.358 365.644 441.422 365.947 441.547C366.249 441.673 366.523 441.856 366.754 442.087C366.986 442.318 367.169 442.593 367.294 442.895C367.419 443.197 367.484 443.521 367.484 443.848Z" fill="#8C8C8C"/>
<path d="M379.925 443.848C379.925 444.341 379.779 444.822 379.505 445.232C379.232 445.641 378.843 445.96 378.388 446.149C377.933 446.337 377.432 446.386 376.949 446.29C376.466 446.194 376.022 445.957 375.674 445.609C375.326 445.261 375.089 444.817 374.993 444.334C374.897 443.851 374.946 443.35 375.134 442.895C375.323 442.44 375.642 442.051 376.052 441.778C376.461 441.504 376.942 441.358 377.435 441.358C377.762 441.358 378.086 441.422 378.388 441.547C378.69 441.673 378.965 441.856 379.196 442.087C379.427 442.318 379.61 442.593 379.736 442.895C379.861 443.197 379.925 443.521 379.925 443.848Z" fill="#8C8C8C"/>
<path d="M392.355 443.848C392.355 444.341 392.209 444.823 391.934 445.233C391.66 445.642 391.271 445.962 390.815 446.15C390.36 446.338 389.858 446.387 389.375 446.29C388.892 446.193 388.448 445.955 388.1 445.605C387.752 445.256 387.516 444.811 387.421 444.328C387.326 443.844 387.377 443.343 387.567 442.888C387.757 442.433 388.078 442.045 388.489 441.773C388.9 441.5 389.382 441.356 389.875 441.358C390.534 441.361 391.164 441.624 391.629 442.091C392.094 442.558 392.355 443.189 392.355 443.848Z" fill="#8C8C8C"/>
<path d="M404.795 443.848C404.795 444.341 404.649 444.822 404.375 445.232C404.102 445.641 403.713 445.96 403.258 446.149C402.803 446.337 402.302 446.386 401.819 446.29C401.336 446.194 400.892 445.957 400.544 445.609C400.196 445.261 399.958 444.817 399.862 444.334C399.766 443.851 399.816 443.35 400.004 442.895C400.192 442.44 400.512 442.051 400.921 441.778C401.331 441.504 401.812 441.358 402.305 441.358C402.632 441.358 402.955 441.422 403.258 441.547C403.56 441.673 403.834 441.856 404.065 442.087C404.297 442.318 404.48 442.593 404.605 442.895C404.73 443.197 404.795 443.521 404.795 443.848Z" fill="#8C8C8C"/>
<path d="M417.235 443.848C417.235 444.341 417.089 444.822 416.816 445.232C416.542 445.641 416.153 445.96 415.698 446.149C415.243 446.337 414.742 446.386 414.259 446.29C413.776 446.194 413.333 445.957 412.984 445.609C412.636 445.261 412.399 444.817 412.303 444.334C412.207 443.851 412.256 443.35 412.444 442.895C412.633 442.44 412.952 442.051 413.362 441.778C413.771 441.504 414.253 441.358 414.745 441.358C415.072 441.358 415.396 441.422 415.698 441.547C416 441.673 416.275 441.856 416.506 442.087C416.737 442.318 416.921 442.593 417.046 442.895C417.171 443.197 417.235 443.521 417.235 443.848Z" fill="#8C8C8C"/>
<path d="M428.684 20.8494H163.724V289.261H428.684V20.8494Z" fill="#263238" stroke="#263238" stroke-linecap="round" stroke-linejoin="round"/>
<path d="M424.882 15.1456H154.745V284.033H424.882V15.1456Z" fill="white" stroke="#263238" stroke-linecap="round" stroke-linejoin="round"/>
<path d="M424.892 15.1458H417.639V284.033H424.892V15.1458Z" fill="#DEDEDE" stroke="#263238" stroke-linecap="round" stroke-linejoin="round"/>
<path d="M424.892 52.5809H417.639V106.827H424.892V52.5809Z" fill="#B8B8B8" stroke="#263238" stroke-linecap="round" stroke-linejoin="round"/>
<path d="M249.929 15.1458H242.675V284.033H249.929V15.1458Z" fill="#DEDEDE" stroke="#263238" stroke-linecap="round" stroke-linejoin="round"/>
<path d="M249.929 52.5809H242.675V162.624H249.929V52.5809Z" fill="#B8B8B8" stroke="#263238" stroke-linecap="round" stroke-linejoin="round"/>
<path d="M242.913 15.1456H154.745V284.033H242.913V15.1456Z" fill="white" stroke="#263238" stroke-linecap="round" stroke-linejoin="round"/>
<path d="M424.882 15.1456H154.745V39.1484H424.882V15.1456Z" fill="#DEDEDE" stroke="#263238" stroke-linecap="round" stroke-linejoin="round"/>
<path d="M241.436 101.403H156.977V146.918H241.436V101.403Z" fill="url(#paint6_linear_126_13214)"/>
<path d="M424.882 15.1456H154.745V27.8445H424.882V15.1456Z" fill="#263238" stroke="#263238" stroke-linecap="round" stroke-linejoin="round"/>
<path d="M397.045 21.9964C397.045 21.4079 396.871 20.8325 396.544 20.3432C396.217 19.8538 395.752 19.4724 395.208 19.2472C394.665 19.0219 394.066 18.963 393.489 19.0778C392.912 19.1926 392.382 19.4761 391.965 19.8922C391.549 20.3084 391.266 20.8386 391.151 21.4159C391.036 21.9931 391.095 22.5915 391.32 23.1352C391.546 23.679 391.927 24.1438 392.416 24.4707C392.906 24.7977 393.481 24.9722 394.07 24.9722C394.461 24.9736 394.848 24.8976 395.21 24.7485C395.572 24.5994 395.9 24.3803 396.177 24.1037C396.453 23.8271 396.673 23.4985 396.822 23.1368C396.971 22.7752 397.047 22.3876 397.045 21.9964Z" fill="white" stroke="#263238" stroke-linecap="round" stroke-linejoin="round"/>
<path d="M406.066 21.9964C406.066 21.4079 405.891 20.8325 405.564 20.3432C405.237 19.8538 404.773 19.4724 404.229 19.2472C403.685 19.0219 403.087 18.963 402.51 19.0778C401.932 19.1926 401.402 19.4761 400.986 19.8922C400.57 20.3084 400.286 20.8386 400.171 21.4159C400.057 21.9931 400.116 22.5915 400.341 23.1352C400.566 23.679 400.947 24.1438 401.437 24.4707C401.926 24.7977 402.502 24.9722 403.09 24.9722C403.481 24.9736 403.869 24.8976 404.23 24.7485C404.592 24.5994 404.921 24.3803 405.197 24.1037C405.474 23.8271 405.693 23.4985 405.842 23.1368C405.991 22.7752 406.067 22.3876 406.066 21.9964Z" fill="white" stroke="#263238" stroke-linecap="round" stroke-linejoin="round"/>
<path d="M415.086 21.9964C415.086 21.4079 414.912 20.8325 414.585 20.3432C414.258 19.8538 413.793 19.4724 413.249 19.2472C412.706 19.0219 412.107 18.963 411.53 19.0778C410.953 19.1926 410.423 19.4761 410.006 19.8922C409.59 20.3084 409.307 20.8386 409.192 21.4159C409.077 21.9931 409.136 22.5915 409.361 23.1352C409.587 23.679 409.968 24.1438 410.457 24.4707C410.947 24.7977 411.522 24.9722 412.111 24.9722C412.502 24.9736 412.889 24.8976 413.251 24.7485C413.613 24.5994 413.941 24.3803 414.218 24.1037C414.494 23.8271 414.714 23.4985 414.863 23.1368C415.012 22.7752 415.088 22.3876 415.086 21.9964Z" fill="white" stroke="#263238" stroke-linecap="round" stroke-linejoin="round"/>
<path d="M201.303 65.042L199.588 60.1133H179.253V65.042V89.2411V94.1698H222.113V65.042H201.303Z" fill="white" stroke="#263238" stroke-linecap="round" stroke-linejoin="round"/>
<path d="M220.223 67.8938H181.135V89.3961H220.223V67.8938Z" fill="white" stroke="#263238" stroke-linecap="round" stroke-linejoin="round"/>
<path d="M222.113 72.6677H179.253V94.17H222.113V72.6677Z" fill="white" stroke="#263238" stroke-linecap="round" stroke-linejoin="round"/>
<path d="M201.303 164.752L199.588 159.834H179.253V164.752V188.962V193.88H222.113V164.752H201.303Z" fill="white" stroke="#263238" stroke-linecap="round" stroke-linejoin="round"/>
<path d="M220.223 167.604H181.135V189.107H220.223V167.604Z" fill="white" stroke="#263238" stroke-linecap="round" stroke-linejoin="round"/>
<path d="M222.113 172.378H179.253V193.88H222.113V172.378Z" fill="white" stroke="#263238" stroke-linecap="round" stroke-linejoin="round"/>
<path d="M201.303 215.641L199.588 210.723H179.253V215.641V239.85V244.769H222.113V215.641H201.303Z" fill="white" stroke="#263238" stroke-linecap="round" stroke-linejoin="round"/>
<path d="M220.223 218.493H181.135V239.995H220.223V218.493Z" fill="white" stroke="#263238" stroke-linecap="round" stroke-linejoin="round"/>
<path d="M222.113 223.266H179.253V244.769H222.113V223.266Z" fill="white" stroke="#263238" stroke-linecap="round" stroke-linejoin="round"/>
<path d="M201.303 112.573L199.588 107.644H179.253V112.573V136.772V141.7H222.113V112.573H201.303Z" fill="url(#paint7_linear_126_13214)" stroke="#263238" stroke-linecap="round" stroke-linejoin="round"/>
<path d="M220.223 115.424H181.135V136.927H220.223V115.424Z" fill="white" stroke="#263238" stroke-linecap="round" stroke-linejoin="round"/>
<path d="M222.113 120.198H179.253V141.7H222.113V120.198Z" fill="url(#paint8_linear_126_13214)" stroke="#263238" stroke-linecap="round" stroke-linejoin="round"/>
<path d="M299.436 62.2214H259.996V112.872H299.436V62.2214Z" fill="white" stroke="#263238" stroke-linecap="round" stroke-linejoin="round"/>
<path d="M264.653 72.3784H293.181" stroke="#263238" stroke-linecap="round" stroke-linejoin="round"/>
<path d="M264.653 81.1818H293.181" stroke="#263238" stroke-linecap="round" stroke-linejoin="round"/>
<path d="M264.653 89.9852H293.181" stroke="#263238" stroke-linecap="round" stroke-linejoin="round"/>
<path d="M264.653 98.7889H293.181" stroke="#263238" stroke-linecap="round" stroke-linejoin="round"/>
<path d="M350.993 62.2214H311.553V112.872H350.993V62.2214Z" fill="white" stroke="#263238" stroke-linecap="round" stroke-linejoin="round"/>
<path d="M316.833 72.3784H345.361" stroke="#263238" stroke-linecap="round" stroke-linejoin="round"/>
<path d="M316.833 81.1818H345.361" stroke="#263238" stroke-linecap="round" stroke-linejoin="round"/>
<path d="M316.833 89.9852H345.361" stroke="#263238" stroke-linecap="round" stroke-linejoin="round"/>
<path d="M316.833 98.7889H345.361" stroke="#263238" stroke-linecap="round" stroke-linejoin="round"/>
<path d="M403.173 62.2214H363.733V112.872H403.173V62.2214Z" fill="white" stroke="#263238" stroke-linecap="round" stroke-linejoin="round"/>
<path d="M369.013 72.3784H397.542" stroke="#263238" stroke-linecap="round" stroke-linejoin="round"/>
<path d="M369.013 81.1818H397.542" stroke="#263238" stroke-linecap="round" stroke-linejoin="round"/>
<path d="M369.013 89.9852H397.542" stroke="#263238" stroke-linecap="round" stroke-linejoin="round"/>
<path d="M369.013 98.7889H397.542" stroke="#263238" stroke-linecap="round" stroke-linejoin="round"/>
<path d="M260.582 123.876H297.263" stroke="#263238" stroke-linecap="round" stroke-linejoin="round"/>
<path d="M313.278 123.876H349.959" stroke="#263238" stroke-linecap="round" stroke-linejoin="round"/>
<path d="M365.976 123.876H402.657" stroke="#263238" stroke-linecap="round" stroke-linejoin="round"/>
<path d="M298.813 137.65H259.373V188.301H298.813V137.65Z" fill="white" stroke="#263238" stroke-linecap="round" stroke-linejoin="round"/>
<path d="M264.653 147.807H293.181" stroke="#263238" stroke-linecap="round" stroke-linejoin="round"/>
<path d="M264.653 156.611H293.181" stroke="#263238" stroke-linecap="round" stroke-linejoin="round"/>
<path d="M264.653 165.414H293.181" stroke="#263238" stroke-linecap="round" stroke-linejoin="round"/>
<path d="M264.653 174.217H293.181" stroke="#263238" stroke-linecap="round" stroke-linejoin="round"/>
<path d="M350.993 137.65H311.553V188.301H350.993V137.65Z" fill="white" stroke="#263238" stroke-linecap="round" stroke-linejoin="round"/>
<path d="M316.833 147.807H345.361" stroke="#263238" stroke-linecap="round" stroke-linejoin="round"/>
<path d="M316.833 156.611H345.361" stroke="#263238" stroke-linecap="round" stroke-linejoin="round"/>
<path d="M316.833 165.414H345.361" stroke="#263238" stroke-linecap="round" stroke-linejoin="round"/>
<path d="M316.833 174.217H345.361" stroke="#263238" stroke-linecap="round" stroke-linejoin="round"/>
<path d="M403.173 137.65H363.733V188.301H403.173V137.65Z" fill="white" stroke="#263238" stroke-linecap="round" stroke-linejoin="round"/>
<path d="M369.013 147.807H397.542" stroke="#263238" stroke-linecap="round" stroke-linejoin="round"/>
<path d="M369.013 156.611H397.542" stroke="#263238" stroke-linecap="round" stroke-linejoin="round"/>
<path d="M369.013 165.414H397.542" stroke="#263238" stroke-linecap="round" stroke-linejoin="round"/>
<path d="M369.013 174.217H397.542" stroke="#263238" stroke-linecap="round" stroke-linejoin="round"/>
<path d="M260.582 199.305H297.263" stroke="#263238" stroke-linecap="round" stroke-linejoin="round"/>
<path d="M313.278 199.305H349.959" stroke="#263238" stroke-linecap="round" stroke-linejoin="round"/>
<path d="M365.976 199.305H402.657" stroke="#263238" stroke-linecap="round" stroke-linejoin="round"/>
<path d="M298.813 213.079H259.373V263.729H298.813V213.079Z" fill="white" stroke="#263238" stroke-linecap="round" stroke-linejoin="round"/>
<path d="M264.653 223.235H293.181" stroke="#263238" stroke-linecap="round" stroke-linejoin="round"/>
<path d="M264.653 232.039H293.181" stroke="#263238" stroke-linecap="round" stroke-linejoin="round"/>
<path d="M264.653 240.842H293.181" stroke="#263238" stroke-linecap="round" stroke-linejoin="round"/>
<path d="M264.653 249.646H293.181" stroke="#263238" stroke-linecap="round" stroke-linejoin="round"/>
<path d="M350.993 213.079H311.553V263.729H350.993V213.079Z" fill="white" stroke="#263238" stroke-linecap="round" stroke-linejoin="round"/>
<path d="M316.833 223.235H345.361" stroke="#263238" stroke-linecap="round" stroke-linejoin="round"/>
<path d="M316.833 232.039H345.361" stroke="#263238" stroke-linecap="round" stroke-linejoin="round"/>
<path d="M316.833 240.842H345.361" stroke="#263238" stroke-linecap="round" stroke-linejoin="round"/>
<path d="M316.833 249.646H345.361" stroke="#263238" stroke-linecap="round" stroke-linejoin="round"/>
<path d="M403.173 213.079H363.733V263.729H403.173V213.079Z" fill="white" stroke="#263238" stroke-linecap="round" stroke-linejoin="round"/>
<path d="M369.013 223.235H397.542" stroke="#263238" stroke-linecap="round" stroke-linejoin="round"/>
<path d="M369.013 232.039H397.542" stroke="#263238" stroke-linecap="round" stroke-linejoin="round"/>
<path d="M369.013 240.842H397.542" stroke="#263238" stroke-linecap="round" stroke-linejoin="round"/>
<path d="M369.013 249.646H397.542" stroke="#263238" stroke-linecap="round" stroke-linejoin="round"/>
<path d="M260.582 274.734H297.263" stroke="#263238" stroke-linecap="round" stroke-linejoin="round"/>
<path d="M313.278 274.734H349.959" stroke="#263238" stroke-linecap="round" stroke-linejoin="round"/>
<path d="M365.976 274.734H402.657" stroke="#263238" stroke-linecap="round" stroke-linejoin="round"/>
<path d="M315.862 30.8823H202.719V36.0487H315.862V30.8823Z" fill="white" stroke="#263238" stroke-linecap="round" stroke-linejoin="round"/>
<path d="M357.709 30.8823H323.611V36.0487H357.709V30.8823Z" fill="white" stroke="#263238" stroke-linecap="round" stroke-linejoin="round"/>
<path d="M258.288 425.906V435.707C258.06 435.736 257.85 435.847 257.698 436.02C257.546 436.193 257.462 436.415 257.462 436.646C257.462 436.876 257.546 437.098 257.698 437.271C257.85 437.444 258.06 437.555 258.288 437.585H269.509V423.982H258.288C258.033 423.982 257.789 424.084 257.608 424.264C257.428 424.444 257.327 424.689 257.327 424.944C257.327 425.199 257.428 425.444 257.608 425.624C257.789 425.805 258.033 425.906 258.288 425.906Z" fill="url(#paint9_linear_126_13214)"/>
<path opacity="0.3" d="M258.288 425.906V435.707C258.06 435.736 257.85 435.847 257.698 436.02C257.546 436.193 257.462 436.415 257.462 436.646C257.462 436.876 257.546 437.098 257.698 437.271C257.85 437.444 258.06 437.555 258.288 437.585H269.509V423.982H258.288C258.033 423.982 257.789 424.084 257.608 424.264C257.428 424.444 257.327 424.689 257.327 424.944C257.327 425.199 257.428 425.444 257.608 425.624C257.789 425.805 258.033 425.906 258.288 425.906Z" fill="white"/>
<path d="M266.99 425.921H258.288V435.707H266.99V425.921Z" fill="url(#paint10_linear_126_13214)"/>
<path opacity="0.6" d="M266.99 425.921H258.288V435.707H266.99V425.921Z" fill="white"/>
<path d="M265.173 424.959H313.247C315.323 424.959 317.002 427.57 317.002 430.806C317.002 434.043 315.323 436.638 313.247 436.638H265.173V424.959Z" fill="url(#paint11_linear_126_13214)"/>
<path opacity="0.9" d="M265.173 424.959H313.247C315.323 424.959 317.002 427.57 317.002 430.806C317.002 434.043 315.323 436.638 313.247 436.638H265.173V424.959Z" fill="white"/>
<path d="M265.174 437.585C275.051 437.585 302.836 437.752 312.728 437.585C319.491 437.462 319.858 424.486 313.217 424.028C308.637 423.708 303.828 424.028 299.187 424.028H265.174C264.945 424.057 264.735 424.169 264.583 424.342C264.431 424.514 264.347 424.737 264.347 424.967C264.347 425.197 264.431 425.42 264.583 425.592C264.735 425.765 264.945 425.877 265.174 425.906H311.156C313.324 425.906 314.881 425.906 315.736 428.486C316.453 430.699 316.224 435.218 313.262 435.707C312.922 435.73 312.58 435.73 312.24 435.707H265.174C264.945 435.736 264.735 435.847 264.583 436.02C264.431 436.193 264.347 436.415 264.347 436.646C264.347 436.876 264.431 437.098 264.583 437.271C264.735 437.444 264.945 437.555 265.174 437.585Z" fill="url(#paint12_linear_126_13214)"/>
<g opacity="0.2">
<path d="M265.174 437.585C275.051 437.585 302.836 437.752 312.728 437.585C319.491 437.462 319.858 424.486 313.217 424.028C308.637 423.708 303.828 424.028 299.187 424.028H265.174C264.945 424.057 264.735 424.169 264.583 424.342C264.431 424.514 264.347 424.737 264.347 424.967C264.347 425.197 264.431 425.42 264.583 425.592C264.735 425.765 264.945 425.877 265.174 425.906H311.156C313.324 425.906 314.881 425.906 315.736 428.486C316.453 430.699 316.224 435.218 313.262 435.707C312.922 435.73 312.58 435.73 312.24 435.707H265.174C264.945 435.736 264.735 435.847 264.583 436.02C264.431 436.193 264.347 436.415 264.347 436.646C264.347 436.876 264.431 437.098 264.583 437.271C264.735 437.444 264.945 437.555 265.174 437.585Z" fill="white"/>
</g>
<path d="M259.907 439.126V448.21C259.698 448.238 259.506 448.341 259.367 448.499C259.228 448.658 259.152 448.862 259.152 449.072C259.152 449.283 259.228 449.487 259.367 449.646C259.506 449.804 259.698 449.907 259.907 449.935H270.288V437.386H259.907C259.676 437.386 259.455 437.478 259.292 437.641C259.128 437.804 259.037 438.026 259.037 438.256C259.037 438.487 259.128 438.708 259.292 438.872C259.455 439.035 259.676 439.126 259.907 439.126Z" fill="url(#paint13_linear_126_13214)"/>
<path opacity="0.3" d="M259.907 439.126V448.21C259.698 448.238 259.506 448.341 259.367 448.499C259.228 448.658 259.152 448.862 259.152 449.072C259.152 449.283 259.228 449.487 259.367 449.646C259.506 449.804 259.698 449.907 259.907 449.935H270.288V437.386H259.907C259.676 437.386 259.455 437.478 259.292 437.641C259.128 437.804 259.037 438.026 259.037 438.256C259.037 438.487 259.128 438.708 259.292 438.872C259.455 439.035 259.676 439.126 259.907 439.126Z" fill="white"/>
<path d="M268.028 439.142H259.967V448.21H268.028V439.142Z" fill="url(#paint14_linear_126_13214)"/>
<path opacity="0.6" d="M268.028 439.142H259.967V448.21H268.028V439.142Z" fill="white"/>
<path d="M266.334 438.256H310.85C312.774 438.256 314.331 440.684 314.331 443.66C314.331 446.637 312.805 449.065 310.85 449.065H266.334V438.256Z" fill="url(#paint15_linear_126_13214)"/>
<path opacity="0.9" d="M266.334 438.256H310.85C312.774 438.256 314.331 440.684 314.331 443.66C314.331 446.637 312.805 449.065 310.85 449.065H266.334V438.256Z" fill="white"/>
<path d="M266.334 449.935C275.493 449.935 301.217 450.103 310.377 449.935C316.636 449.828 316.972 437.813 310.835 437.386C306.545 437.096 302.133 437.386 297.843 437.386H266.334C266.103 437.386 265.881 437.478 265.718 437.641C265.555 437.804 265.463 438.025 265.463 438.256C265.463 438.487 265.555 438.708 265.718 438.871C265.881 439.035 266.103 439.126 266.334 439.126H308.926C310.926 439.126 312.361 439.126 313.14 441.523C313.812 443.569 313.598 447.752 310.85 448.21C310.54 448.233 310.229 448.233 309.919 448.21H266.334C266.125 448.238 265.933 448.34 265.794 448.499C265.655 448.658 265.578 448.861 265.578 449.072C265.578 449.283 265.655 449.487 265.794 449.646C265.933 449.804 266.125 449.907 266.334 449.935Z" fill="url(#paint16_linear_126_13214)"/>
<path d="M254.792 451.843V462.652C254.541 462.682 254.309 462.804 254.141 462.994C253.973 463.184 253.88 463.429 253.88 463.682C253.88 463.936 253.973 464.181 254.141 464.37C254.309 464.56 254.541 464.682 254.792 464.713C258.899 464.713 263.021 464.713 267.143 464.713V449.721H254.792C254.511 449.721 254.241 449.833 254.042 450.032C253.843 450.231 253.731 450.501 253.731 450.782C253.731 451.064 253.843 451.333 254.042 451.532C254.241 451.731 254.511 451.843 254.792 451.843Z" fill="url(#paint17_linear_126_13214)"/>
<path opacity="0.3" d="M254.792 451.843V462.652C254.541 462.682 254.309 462.804 254.141 462.994C253.973 463.184 253.88 463.429 253.88 463.682C253.88 463.936 253.973 464.181 254.141 464.37C254.309 464.56 254.541 464.682 254.792 464.713C258.899 464.713 263.021 464.713 267.143 464.713V449.721H254.792C254.511 449.721 254.241 449.833 254.042 450.032C253.843 450.231 253.731 450.501 253.731 450.782C253.731 451.064 253.843 451.333 254.042 451.532C254.241 451.731 254.511 451.843 254.792 451.843Z" fill="white"/>
<path d="M264.395 451.858H254.792V462.652H264.395V451.858Z" fill="url(#paint18_linear_126_13214)"/>
<path opacity="0.6" d="M264.395 451.858H254.792V462.652H264.395V451.858Z" fill="white"/>
<path d="M262.365 450.82H315.354C317.644 450.82 319.491 453.69 319.491 457.247C319.491 460.804 317.644 463.69 315.354 463.69H262.365V450.82Z" fill="url(#paint19_linear_126_13214)"/>
<path opacity="0.9" d="M262.365 450.82H315.354C317.644 450.82 319.491 453.69 319.491 457.247C319.491 460.804 317.644 463.69 315.354 463.69H262.365V450.82Z" fill="white"/>
<path d="M262.364 464.713C273.264 464.713 303.889 464.911 314.773 464.713C322.239 464.591 322.636 450.286 315.323 449.782C310.224 449.431 304.973 449.782 299.858 449.782H262.364C262.113 449.813 261.881 449.935 261.713 450.125C261.545 450.314 261.452 450.559 261.452 450.813C261.452 451.066 261.545 451.311 261.713 451.501C261.881 451.691 262.113 451.813 262.364 451.843H313.048C315.445 451.843 317.155 451.843 318.071 454.698C318.88 457.141 318.621 462.117 315.354 462.652C314.983 462.682 314.61 462.682 314.239 462.652H262.334C262.082 462.682 261.85 462.804 261.682 462.994C261.514 463.184 261.421 463.429 261.421 463.682C261.421 463.936 261.514 464.181 261.682 464.37C261.85 464.56 262.082 464.682 262.334 464.713H262.364Z" fill="url(#paint20_linear_126_13214)"/>
<g opacity="0.2">
<path d="M262.364 464.713C273.264 464.713 303.889 464.911 314.773 464.713C322.239 464.591 322.636 450.286 315.323 449.782C310.224 449.431 304.973 449.782 299.858 449.782H262.364C262.113 449.813 261.881 449.935 261.713 450.125C261.545 450.314 261.452 450.559 261.452 450.813C261.452 451.066 261.545 451.311 261.713 451.501C261.881 451.691 262.113 451.813 262.364 451.843H313.048C315.445 451.843 317.155 451.843 318.071 454.698C318.88 457.141 318.621 462.117 315.354 462.652C314.983 462.682 314.61 462.682 314.239 462.652H262.334C262.082 462.682 261.85 462.804 261.682 462.994C261.514 463.184 261.421 463.429 261.421 463.682C261.421 463.936 261.514 464.181 261.682 464.37C261.85 464.56 262.082 464.682 262.334 464.713H262.364Z" fill="#263238"/>
</g>
<path d="M8.74707 118.894L23.25 96.1477L48.4699 87.9955L83.9029 93.5371L86.0249 114.711L68.4534 118.039L53.3551 115.75L44.9587 112.483L35.2798 120.772L21.8303 123.108L12.8842 121.978L8.74707 118.894Z" fill="url(#paint21_linear_126_13214)"/>
<path opacity="0.1" d="M8.74707 118.894L23.25 96.1477L48.4699 87.9955L83.9029 93.5371L86.0249 114.711L68.4534 118.039L53.3551 115.75L44.9587 112.483L35.2798 120.772L21.8303 123.108L12.8842 121.978L8.74707 118.894Z" fill="#263238"/>
<path opacity="0.2" d="M53.3703 88.7588L50.7903 114.757L44.9586 112.483L38.272 118.207L43.9663 89.461L48.4698 87.9955L53.3703 88.7588Z" fill="#263238"/>
<path d="M7.83105 122.528C7.83105 122.528 32.9135 132.954 45.7372 114.895C45.7372 114.895 72.0104 127.779 86.0249 114.742L83.5975 110.773C83.5975 110.773 76.7888 121.917 44.6838 109.979C44.6838 109.979 31.0358 127.779 8.74704 118.925L7.83105 122.528Z" fill="url(#paint22_linear_126_13214)"/>
<path opacity="0.8" d="M7.83105 122.528C7.83105 122.528 32.9135 132.954 45.7372 114.895C45.7372 114.895 72.0104 127.779 86.0249 114.742L83.5975 110.773C83.5975 110.773 76.7888 121.917 44.6838 109.979C44.6838 109.979 31.0358 127.779 8.74704 118.925L7.83105 122.528Z" fill="white"/>
<path d="M26.6846 100.025L44.8667 85.4307L70.5293 84.011L103.352 94.9874L101.337 111.551L83.9178 110.727L69.9186 106.117L62.5145 102.025L51.6907 106.498L38.3785 105.735L30.0584 103.155L26.6846 100.025Z" fill="url(#paint23_linear_126_13214)"/>
<path opacity="0.1" d="M26.6846 100.025L44.8667 85.4307L70.5293 84.011L103.352 94.9874L101.337 111.551L83.9178 110.727L69.9186 106.117L62.5145 102.025L51.6907 106.498L38.3785 105.735L30.0584 103.155L26.6846 100.025Z" fill="#263238"/>
<path opacity="0.2" d="M75.0788 85.5223L67.6594 104.865L62.5146 102.025L55.0342 105.109L65.9496 84.2553L70.5294 84.011L75.0788 85.5223Z" fill="#263238"/>
<path d="M25.082 102.605C25.082 102.605 47.0807 115.352 62.7745 103.994C62.7745 103.994 85.4448 118.833 101.307 111.536L99.7799 108.055C99.7799 108.055 91.1544 115.261 62.7287 100.04C57.2617 103.24 51.0414 104.927 44.7068 104.927C38.3723 104.927 32.152 103.24 26.685 100.04L25.082 102.605Z" fill="url(#paint24_linear_126_13214)"/>
<path opacity="0.8" d="M25.082 102.605C25.082 102.605 47.0807 115.352 62.7745 103.994C62.7745 103.994 85.4448 118.833 101.307 111.536L99.7799 108.055C99.7799 108.055 91.1544 115.261 62.7287 100.04C57.2617 103.24 51.0414 104.927 44.7068 104.927C38.3723 104.927 32.152 103.24 26.685 100.04L25.082 102.605Z" fill="white"/>
<path d="M24.3667 355.789L104.845 354.116C104.845 354.116 102.775 344.381 101.707 344.188C100.639 343.996 86.7403 333.465 71.7102 339.848C68.4317 341.218 66.0509 342.271 64.3546 343.021C62.6285 342.335 60.2136 341.402 56.8758 340.145C41.5819 334.399 28.1509 345.499 27.0645 345.736C25.9782 345.973 24.3667 355.789 24.3667 355.789Z" fill="url(#paint25_linear_126_13214)"/>
<path opacity="0.6" d="M24.3663 355.789L104.844 354.116L104.829 353.872C104.489 352.364 102.697 344.37 101.737 344.186L101.548 344.106C99.6098 343.204 86.2039 333.698 71.7574 339.875C68.4646 341.262 66.0829 342.3 64.3885 343.08C62.6614 342.379 60.2465 341.446 56.9087 340.189C41.6148 334.443 28.1838 345.543 27.1127 345.779C26.0416 346.015 24.3663 355.789 24.3663 355.789Z" fill="white"/>
<path d="M15.1706 355.989L96.6256 354.285C96.6256 354.285 94.4716 344.433 93.4497 344.237C92.4277 344.042 78.3403 334.884 63.1312 341.34C59.809 342.743 55.752 348.002 55.752 348.002C55.752 348.002 51.4823 342.904 48.0987 341.65C32.6324 335.838 18.9917 345.559 17.9063 345.811C16.8209 346.064 15.1706 355.989 15.1706 355.989Z" fill="url(#paint26_linear_126_13214)"/>
<path opacity="0.8" d="M15.1706 355.989L96.6256 354.285C96.6256 354.285 94.4716 344.433 93.4497 344.237C92.4277 344.042 78.3403 334.884 63.1312 341.34C59.809 342.743 55.752 348.002 55.752 348.002C55.752 348.002 51.4823 342.904 48.0987 341.65C32.6324 335.838 18.9917 345.559 17.9063 345.811C16.8209 346.064 15.1706 355.989 15.1706 355.989Z" fill="white"/>
<path d="M55.4505 350.729L58.1304 355.363L52.0045 355.491L55.4505 350.729Z" fill="url(#paint27_linear_126_13214)"/>
<g opacity="0.3">
<path d="M55.4505 350.729L58.1304 355.363L52.0045 355.491L55.4505 350.729Z" fill="#263238"/>
</g>
<path opacity="0.1" d="M93.5591 344.276C94.1307 345.382 94.5936 346.542 94.941 347.737C95.7587 350.745 96.6254 354.285 96.6254 354.285L104.844 354.116L104.829 353.872C104.489 352.364 102.697 344.37 101.737 344.186L101.549 344.106L93.5591 344.276Z" fill="#263238"/>
<path d="M12.1236 359.073L52.0892 359.233L52.1806 359.227C52.9831 358.481 54.0314 358.056 55.1267 358.032C56.222 358.007 57.2881 358.386 58.1228 359.095L58.2038 359.167L99.3251 357.77L109.706 357.433L108.854 353.892L58.1202 354.95C57.2755 354.192 56.1744 353.784 55.0397 353.807C53.9051 353.831 52.8219 354.285 52.0095 355.077L13.0808 355.831L12.1236 359.073Z" fill="#263238"/>
<g opacity="0.3">
<path d="M98.4414 353.971L99.3311 357.632L109.712 357.295L108.845 353.755L98.4414 353.971Z" fill="#263238"/>
</g>
<path d="M51.8591 348.616C51.8591 348.616 45.4451 341.542 37.8767 343.047C37.8767 343.047 43.1812 342.267 51.8591 348.616Z" fill="url(#paint28_linear_126_13214)"/>
<path opacity="0.4" d="M51.8591 348.616C51.8591 348.616 45.4451 341.542 37.8767 343.047C37.8767 343.047 43.1812 342.267 51.8591 348.616Z" fill="white"/>
<path d="M66.8568 351.613C66.8568 351.613 75.1385 346.881 81.8792 350.661C81.8782 350.645 77.0614 348.258 66.8568 351.613Z" fill="url(#paint29_linear_126_13214)"/>
<path opacity="0.4" d="M66.8568 351.613C66.8568 351.613 75.1385 346.881 81.8792 350.661C81.8782 350.645 77.0614 348.258 66.8568 351.613Z" fill="white"/>
<path d="M58.8792 349.319C58.8792 349.319 65.4306 342.387 72.9694 344.036C72.9694 344.036 67.6815 343.147 58.8792 349.319Z" fill="url(#paint30_linear_126_13214)"/>
<path opacity="0.4" d="M58.8792 349.319C58.8792 349.319 65.4306 342.387 72.9694 344.036C72.9694 344.036 67.6815 343.147 58.8792 349.319Z" fill="white"/>
<path d="M41.8768 348.713C41.8768 348.713 33.4272 344.277 26.8285 348.29C26.8285 348.29 31.5458 345.727 41.8768 348.713Z" fill="url(#paint31_linear_126_13214)"/>
<path opacity="0.4" d="M41.8768 348.713C41.8768 348.713 33.4272 344.277 26.8285 348.29C26.8285 348.29 31.5458 345.727 41.8768 348.713Z" fill="white"/>
<path d="M3.13248 463.892H77.7998V445.329H3.13248V463.892Z" fill="url(#paint32_linear_126_13214)"/>
<path opacity="0.6" d="M3.37662 463.984H78.0439V445.42H3.37662V463.984Z" fill="white"/>
<path opacity="0.6" d="M3.13231 463.984H60.4419V445.42H3.13231V463.984Z" fill="white"/>
<path d="M3.51456 461.542L77.8155 463.847L77.7239 461.969L3.46875 460.992L3.51456 461.542Z" fill="url(#paint33_linear_126_13214)"/>
<path d="M77.8152 452.962L3.62109 448.779V449.405L77.8152 454.366V452.962Z" fill="url(#paint34_linear_126_13214)"/>
<path d="M77.8152 447.344L3.62109 449.054V449.649L77.8152 448.764V447.344Z" fill="url(#paint35_linear_126_13214)"/>
<path d="M78.0134 456.595L3.81934 460.213V459.664L78.0134 455.359V456.595Z" fill="url(#paint36_linear_126_13214)"/>
<path d="M3.33105 445.573L77.5099 445.634V446.245H3.33105V445.573Z" fill="url(#paint37_linear_126_13214)"/>
<path d="M8.5065 408.598H83.1738V390.034H8.5065V408.598Z" fill="url(#paint38_linear_126_13214)"/>
<path opacity="0.6" d="M8.7355 408.69H83.4028V390.126H8.7355V408.69Z" fill="white"/>
<path opacity="0.6" d="M8.50633 408.69H65.8159V390.126H8.50633V408.69Z" fill="white"/>
<path d="M8.8572 406.247L83.1581 408.552L83.0818 406.674L8.82666 405.697L8.8572 406.247Z" fill="url(#paint39_linear_126_13214)"/>
<path d="M83.1583 397.667L8.97949 393.484V394.11L83.1583 399.072V397.667Z" fill="url(#paint40_linear_126_13214)"/>
<path d="M83.1583 392.049L8.97949 393.759V394.37L83.1583 393.469V392.049Z" fill="url(#paint41_linear_126_13214)"/>
<path d="M83.3718 401.301L9.17773 404.919V404.385L83.3718 400.064V401.301Z" fill="url(#paint42_linear_126_13214)"/>
<path d="M7.55974 445.069H82.2271V426.505H7.55974V445.069Z" fill="url(#paint43_linear_126_13214)"/>
<path opacity="0.6" d="M7.80437 445.161H82.4717V426.597H7.80437V445.161Z" fill="white"/>
<path opacity="0.6" d="M65.0371 426.597H7.72754V445.161H65.0371V426.597Z" fill="white"/>
<path d="M81.9219 442.169L7.65153 443.146L7.5752 445.023L81.8761 442.718L81.9219 442.169Z" fill="url(#paint44_linear_126_13214)"/>
<path d="M8.04834 426.75L82.2424 426.826V427.437H8.04834V426.75Z" fill="url(#paint45_linear_126_13214)"/>
<path d="M7.5752 435.543L81.754 430.582V429.956L7.5752 434.139V435.543Z" fill="url(#paint46_linear_126_13214)"/>
<path d="M82.2424 428.521L8.04834 430.23V430.841L82.2424 429.94V428.521Z" fill="url(#paint47_linear_126_13214)"/>
<path d="M82.4411 437.787L8.24707 441.39V440.856L82.4411 436.551V437.787Z" fill="url(#paint48_linear_126_13214)"/>
<path d="M79.647 409.01L5.01018 409.392L4.90332 427.574H79.647V409.01Z" fill="url(#paint49_linear_126_13214)"/>
<path opacity="0.6" d="M4.99529 427.574H79.6626V409.01H4.99529V427.574Z" fill="white"/>
<path opacity="0.6" d="M62.2129 409.01H4.90332V427.574H62.2129V409.01Z" fill="white"/>
<path d="M64.4566 409.392H5.00977V411.285H63.1895L64.4566 409.392Z" fill="url(#paint50_linear_126_13214)"/>
<path d="M79.2191 416.995L5.00977 417.682V418.231H79.2191V416.995Z" fill="url(#paint51_linear_126_13214)"/>
<path d="M5.00977 425.589L79.2191 421.971V422.521L5.00977 426.826V425.589Z" fill="url(#paint52_linear_126_13214)"/>
<path d="M5.00977 418.598L79.2191 420.078V420.613L5.00977 419.834V418.598Z" fill="url(#paint53_linear_126_13214)"/>
<path d="M98.7146 368.631H24.5205V377.974H98.7146V368.631Z" fill="url(#paint54_linear_126_13214)"/>
<path opacity="0.6" d="M98.7146 368.631H24.5205V377.974H98.7146V368.631Z" fill="white"/>
<path opacity="0.6" d="M83.6468 368.631H24.5205V377.974H83.6468V368.631Z" fill="white"/>
<path d="M98.76 375.257L24.5659 375.623V375.898H98.76V375.257Z" fill="url(#paint55_linear_126_13214)"/>
<path d="M24.5659 371.761L98.76 369.883V370.158L24.5659 372.402V371.761Z" fill="url(#paint56_linear_126_13214)"/>
<path d="M24.3218 371.257L98.5158 372.02V372.295L24.3218 371.898V371.257Z" fill="url(#paint57_linear_126_13214)"/>
<path d="M88.3332 364.509H14.1392V369.013H88.3332V364.509Z" fill="url(#paint58_linear_126_13214)"/>
<path opacity="0.6" d="M88.3332 364.555H14.1392V369.028H88.3332V364.555Z" fill="white"/>
<path opacity="0.6" d="M73.2654 364.265H14.1392V369.013H73.2654V364.265Z" fill="white"/>
<path d="M14.1851 367.944L88.3639 366.051V366.341L14.1851 368.585V367.944Z" fill="url(#paint59_linear_126_13214)"/>
<path d="M14.1851 365.685L88.3639 366.448V366.738L14.1851 366.326V365.685Z" fill="url(#paint60_linear_126_13214)"/>
<path d="M95.2492 359.914H21.0552V364.417H95.2492V359.914Z" fill="url(#paint61_linear_126_13214)"/>
<path opacity="0.6" d="M95.2492 359.944H21.0552V364.417H95.2492V359.944Z" fill="white"/>
<path opacity="0.6" d="M80.1814 359.67H21.0552V364.417H80.1814V359.67Z" fill="white"/>
<path d="M21.1008 361.944L95.3102 362.845L95.2949 363.135L21.0703 362.586L21.1008 361.944Z" fill="url(#paint62_linear_126_13214)"/>
<path d="M21.085 361.089L95.279 361.837V362.127L21.085 361.715V361.089Z" fill="url(#paint63_linear_126_13214)"/>
<path d="M93.6916 377.974H19.4976V390.019H93.6916V377.974Z" fill="url(#paint64_linear_126_13214)"/>
<path opacity="0.6" d="M93.6916 377.974H19.4976V390.019H93.6916V377.974Z" fill="white"/>
<path opacity="0.6" d="M76.7461 377.974H19.4976V390.019H76.7461V377.974Z" fill="white"/>
<path d="M93.2188 381.714L19.04 381.302V380.966H93.2188V381.714Z" fill="url(#paint65_linear_126_13214)"/>
<path d="M19.5439 383.47L93.738 385.638V385.317L19.5439 382.737V383.47Z" fill="url(#paint66_linear_126_13214)"/>
<path d="M93.7374 377.989H23.7568L25.2987 379.47H93.7374V377.989Z" fill="url(#paint67_linear_126_13214)"/>
<path d="M19.8032 388.157L93.982 387.256V386.951L19.8032 387.409V388.157Z" fill="url(#paint68_linear_126_13214)"/>
<path d="M263.633 45.8499C264.433 45.8499 265.153 46.0379 265.793 46.4139C266.433 46.7819 266.937 47.2939 267.305 47.9499C267.673 48.5979 267.857 49.3299 267.857 50.1459C267.857 50.9619 267.673 51.6979 267.305 52.3539C266.937 53.0019 266.433 53.5139 265.793 53.8899C265.153 54.2579 264.433 54.4419 263.633 54.4419C262.945 54.4419 262.321 54.3299 261.761 54.1059C261.201 53.8819 260.733 53.5539 260.357 53.1219L261.113 52.3659C261.745 53.0299 262.565 53.3619 263.573 53.3619C264.109 53.3619 264.597 53.2459 265.037 53.0139C265.477 52.7739 265.837 52.4419 266.117 52.0179C266.397 51.5939 266.565 51.1099 266.621 50.5659H262.553V49.5819H266.609C266.529 49.0619 266.349 48.6019 266.069 48.2019C265.789 47.8019 265.433 47.4899 265.001 47.2659C264.569 47.0419 264.093 46.9299 263.573 46.9299C262.573 46.9299 261.753 47.2619 261.113 47.9259L260.357 47.1699C260.733 46.7379 261.201 46.4099 261.761 46.1859C262.329 45.9619 262.953 45.8499 263.633 45.8499ZM269.802 45.9459H270.99V52.4259L275.958 45.9459H277.062V54.3459H275.886V47.8779L270.906 54.3459H269.802V45.9459ZM283.461 54.4419C282.613 54.4419 281.849 54.2579 281.169 53.8899C280.489 53.5139 279.953 52.9979 279.561 52.3419C279.177 51.6859 278.985 50.9539 278.985 50.1459C278.985 49.3379 279.177 48.6059 279.561 47.9499C279.953 47.2939 280.489 46.7819 281.169 46.4139C281.849 46.0379 282.613 45.8499 283.461 45.8499C284.301 45.8499 285.061 46.0379 285.741 46.4139C286.421 46.7819 286.953 47.2939 287.337 47.9499C287.721 48.5979 287.913 49.3299 287.913 50.1459C287.913 50.9619 287.721 51.6979 287.337 52.3539C286.953 53.0019 286.421 53.5139 285.741 53.8899C285.061 54.2579 284.301 54.4419 283.461 54.4419ZM283.461 53.3739C284.077 53.3739 284.629 53.2339 285.117 52.9539C285.613 52.6739 286.001 52.2899 286.281 51.8019C286.569 51.3059 286.713 50.7539 286.713 50.1459C286.713 49.5379 286.569 48.9899 286.281 48.5019C286.001 48.0059 285.613 47.6179 285.117 47.3379C284.629 47.0579 284.077 46.9179 283.461 46.9179C282.845 46.9179 282.285 47.0579 281.781 47.3379C281.285 47.6179 280.893 48.0059 280.605 48.5019C280.325 48.9899 280.185 49.5379 280.185 50.1459C280.185 50.7539 280.325 51.3059 280.605 51.8019C280.893 52.2899 281.285 52.6739 281.781 52.9539C282.285 53.2339 282.845 53.3739 283.461 53.3739ZM293.608 54.4419C292.768 54.4419 292.008 54.2579 291.328 53.8899C290.656 53.5139 290.128 53.0019 289.744 52.3539C289.36 51.6979 289.168 50.9619 289.168 50.1459C289.168 49.3299 289.36 48.5979 289.744 47.9499C290.128 47.2939 290.66 46.7819 291.34 46.4139C292.02 46.0379 292.78 45.8499 293.62 45.8499C294.276 45.8499 294.876 45.9619 295.42 46.1859C295.964 46.4019 296.428 46.7259 296.812 47.1579L296.032 47.9139C295.4 47.2499 294.612 46.9179 293.668 46.9179C293.044 46.9179 292.48 47.0579 291.976 47.3379C291.472 47.6179 291.076 48.0059 290.788 48.5019C290.508 48.9899 290.368 49.5379 290.368 50.1459C290.368 50.7539 290.508 51.3059 290.788 51.8019C291.076 52.2899 291.472 52.6739 291.976 52.9539C292.48 53.2339 293.044 53.3739 293.668 53.3739C294.604 53.3739 295.392 53.0379 296.032 52.3659L296.812 53.1219C296.428 53.5539 295.96 53.8819 295.408 54.1059C294.864 54.3299 294.264 54.4419 293.608 54.4419Z" fill="#263238"/>
<defs>
<linearGradient id="paint0_linear_126_13214" x1="388.985" y1="346.835" x2="388.985" y2="403.685" gradientUnits="userSpaceOnUse">
<stop stop-color="#7454AE"/>
<stop offset="1" stop-color="#C152C5"/>
</linearGradient>
<linearGradient id="paint1_linear_126_13214" x1="405.866" y1="352.436" x2="422.666" y2="357.775" gradientUnits="userSpaceOnUse">
<stop stop-color="#7454AE"/>
<stop offset="1" stop-color="#C152C5"/>
</linearGradient>
<linearGradient id="paint2_linear_126_13214" x1="344.601" y1="404.002" x2="344.601" y2="422.68" gradientUnits="userSpaceOnUse">
<stop stop-color="#7454AE"/>
<stop offset="1" stop-color="#C152C5"/>
</linearGradient>
<linearGradient id="paint3_linear_126_13214" x1="417.605" y1="380.382" x2="432.87" y2="395.775" gradientUnits="userSpaceOnUse">
<stop stop-color="#7454AE"/>
<stop offset="1" stop-color="#C152C5"/>
</linearGradient>
<linearGradient id="paint4_linear_126_13214" x1="343.043" y1="354.273" x2="375.309" y2="401.08" gradientUnits="userSpaceOnUse">
<stop stop-color="#7454AE"/>
<stop offset="1" stop-color="#C152C5"/>
</linearGradient>
<linearGradient id="paint5_linear_126_13214" x1="436.068" y1="404.002" x2="436.068" y2="422.68" gradientUnits="userSpaceOnUse">
<stop stop-color="#7454AE"/>
<stop offset="1" stop-color="#C152C5"/>
</linearGradient>
<linearGradient id="paint6_linear_126_13214" x1="199.206" y1="101.403" x2="199.206" y2="146.918" gradientUnits="userSpaceOnUse">
<stop stop-color="#7454AE"/>
<stop offset="1" stop-color="#C152C5"/>
</linearGradient>
<linearGradient id="paint7_linear_126_13214" x1="200.683" y1="107.644" x2="200.683" y2="141.7" gradientUnits="userSpaceOnUse">
<stop stop-color="#7454AE"/>
<stop offset="1" stop-color="#C152C5"/>
</linearGradient>
<linearGradient id="paint8_linear_126_13214" x1="200.683" y1="120.198" x2="200.683" y2="141.7" gradientUnits="userSpaceOnUse">
<stop stop-color="#7454AE"/>
<stop offset="1" stop-color="#C152C5"/>
</linearGradient>
<linearGradient id="paint9_linear_126_13214" x1="263.418" y1="423.982" x2="263.418" y2="437.585" gradientUnits="userSpaceOnUse">
<stop stop-color="#7454AE"/>
<stop offset="1" stop-color="#C152C5"/>
</linearGradient>
<linearGradient id="paint10_linear_126_13214" x1="262.639" y1="425.921" x2="262.639" y2="435.707" gradientUnits="userSpaceOnUse">
<stop stop-color="#7454AE"/>
<stop offset="1" stop-color="#C152C5"/>
</linearGradient>
<linearGradient id="paint11_linear_126_13214" x1="291.088" y1="424.959" x2="291.088" y2="436.638" gradientUnits="userSpaceOnUse">
<stop stop-color="#7454AE"/>
<stop offset="1" stop-color="#C152C5"/>
</linearGradient>
<linearGradient id="paint12_linear_126_13214" x1="291.176" y1="423.886" x2="291.176" y2="437.659" gradientUnits="userSpaceOnUse">
<stop stop-color="#7454AE"/>
<stop offset="1" stop-color="#C152C5"/>
</linearGradient>
<linearGradient id="paint13_linear_126_13214" x1="264.662" y1="437.386" x2="264.662" y2="449.935" gradientUnits="userSpaceOnUse">
<stop stop-color="#7454AE"/>
<stop offset="1" stop-color="#C152C5"/>
</linearGradient>
<linearGradient id="paint14_linear_126_13214" x1="263.998" y1="439.142" x2="263.998" y2="448.21" gradientUnits="userSpaceOnUse">
<stop stop-color="#7454AE"/>
<stop offset="1" stop-color="#C152C5"/>
</linearGradient>
<linearGradient id="paint15_linear_126_13214" x1="290.333" y1="438.256" x2="290.333" y2="449.065" gradientUnits="userSpaceOnUse">
<stop stop-color="#7454AE"/>
<stop offset="1" stop-color="#C152C5"/>
</linearGradient>
<linearGradient id="paint16_linear_126_13214" x1="290.361" y1="437.257" x2="290.361" y2="450.01" gradientUnits="userSpaceOnUse">
<stop stop-color="#7454AE"/>
<stop offset="1" stop-color="#C152C5"/>
</linearGradient>
<linearGradient id="paint17_linear_126_13214" x1="260.437" y1="449.721" x2="260.437" y2="464.713" gradientUnits="userSpaceOnUse">
<stop stop-color="#7454AE"/>
<stop offset="1" stop-color="#C152C5"/>
</linearGradient>
<linearGradient id="paint18_linear_126_13214" x1="259.594" y1="451.858" x2="259.594" y2="462.652" gradientUnits="userSpaceOnUse">
<stop stop-color="#7454AE"/>
<stop offset="1" stop-color="#C152C5"/>
</linearGradient>
<linearGradient id="paint19_linear_126_13214" x1="290.928" y1="450.82" x2="290.928" y2="463.69" gradientUnits="userSpaceOnUse">
<stop stop-color="#7454AE"/>
<stop offset="1" stop-color="#C152C5"/>
</linearGradient>
<linearGradient id="paint20_linear_126_13214" x1="291.008" y1="449.626" x2="291.008" y2="464.801" gradientUnits="userSpaceOnUse">
<stop stop-color="#7454AE"/>
<stop offset="1" stop-color="#C152C5"/>
</linearGradient>
<linearGradient id="paint21_linear_126_13214" x1="47.386" y1="87.9955" x2="47.386" y2="123.108" gradientUnits="userSpaceOnUse">
<stop stop-color="#7454AE"/>
<stop offset="1" stop-color="#C152C5"/>
</linearGradient>
<linearGradient id="paint22_linear_126_13214" x1="46.928" y1="109.979" x2="46.928" y2="125.522" gradientUnits="userSpaceOnUse">
<stop stop-color="#7454AE"/>
<stop offset="1" stop-color="#C152C5"/>
</linearGradient>
<linearGradient id="paint23_linear_126_13214" x1="65.0182" y1="84.011" x2="65.0182" y2="111.551" gradientUnits="userSpaceOnUse">
<stop stop-color="#7454AE"/>
<stop offset="1" stop-color="#C152C5"/>
</linearGradient>
<linearGradient id="paint24_linear_126_13214" x1="63.1943" y1="100.04" x2="63.1943" y2="113.554" gradientUnits="userSpaceOnUse">
<stop stop-color="#7454AE"/>
<stop offset="1" stop-color="#C152C5"/>
</linearGradient>
<linearGradient id="paint25_linear_126_13214" x1="63.4966" y1="337.447" x2="64.7139" y2="356.659" gradientUnits="userSpaceOnUse">
<stop stop-color="#7454AE"/>
<stop offset="1" stop-color="#C152C5"/>
</linearGradient>
<linearGradient id="paint26_linear_126_13214" x1="54.8543" y1="338.663" x2="56.0071" y2="356.859" gradientUnits="userSpaceOnUse">
<stop stop-color="#7454AE"/>
<stop offset="1" stop-color="#C152C5"/>
</linearGradient>
<linearGradient id="paint27_linear_126_13214" x1="54.7725" y1="350.772" x2="55.0757" y2="355.556" gradientUnits="userSpaceOnUse">
<stop stop-color="#7454AE"/>
<stop offset="1" stop-color="#C152C5"/>
</linearGradient>
<linearGradient id="paint28_linear_126_13214" x1="44.6581" y1="342.521" x2="45.0716" y2="349.046" gradientUnits="userSpaceOnUse">
<stop stop-color="#7454AE"/>
<stop offset="1" stop-color="#C152C5"/>
</linearGradient>
<linearGradient id="paint29_linear_126_13214" x1="74.25" y1="349.274" x2="74.368" y2="351.137" gradientUnits="userSpaceOnUse">
<stop stop-color="#7454AE"/>
<stop offset="1" stop-color="#C152C5"/>
</linearGradient>
<linearGradient id="paint30_linear_126_13214" x1="65.7588" y1="344.066" x2="66.0628" y2="348.863" gradientUnits="userSpaceOnUse">
<stop stop-color="#7454AE"/>
<stop offset="1" stop-color="#C152C5"/>
</linearGradient>
<linearGradient id="paint31_linear_126_13214" x1="34.2268" y1="346.516" x2="34.3961" y2="349.187" gradientUnits="userSpaceOnUse">
<stop stop-color="#7454AE"/>
<stop offset="1" stop-color="#C152C5"/>
</linearGradient>
<linearGradient id="paint32_linear_126_13214" x1="40.4661" y1="463.892" x2="40.4661" y2="445.329" gradientUnits="userSpaceOnUse">
<stop stop-color="#7454AE"/>
<stop offset="1" stop-color="#C152C5"/>
</linearGradient>
<linearGradient id="paint33_linear_126_13214" x1="40.6421" y1="460.992" x2="40.6421" y2="463.847" gradientUnits="userSpaceOnUse">
<stop stop-color="#7454AE"/>
<stop offset="1" stop-color="#C152C5"/>
</linearGradient>
<linearGradient id="paint34_linear_126_13214" x1="40.7181" y1="448.779" x2="40.7181" y2="454.366" gradientUnits="userSpaceOnUse">
<stop stop-color="#7454AE"/>
<stop offset="1" stop-color="#C152C5"/>
</linearGradient>
<linearGradient id="paint35_linear_126_13214" x1="40.7181" y1="447.344" x2="40.7181" y2="449.649" gradientUnits="userSpaceOnUse">
<stop stop-color="#7454AE"/>
<stop offset="1" stop-color="#C152C5"/>
</linearGradient>
<linearGradient id="paint36_linear_126_13214" x1="40.9164" y1="455.359" x2="40.9164" y2="460.213" gradientUnits="userSpaceOnUse">
<stop stop-color="#7454AE"/>
<stop offset="1" stop-color="#C152C5"/>
</linearGradient>
<linearGradient id="paint37_linear_126_13214" x1="40.4205" y1="445.573" x2="40.4205" y2="446.245" gradientUnits="userSpaceOnUse">
<stop stop-color="#7454AE"/>
<stop offset="1" stop-color="#C152C5"/>
</linearGradient>
<linearGradient id="paint38_linear_126_13214" x1="45.8402" y1="408.598" x2="45.8402" y2="390.034" gradientUnits="userSpaceOnUse">
<stop stop-color="#7454AE"/>
<stop offset="1" stop-color="#C152C5"/>
</linearGradient>
<linearGradient id="paint39_linear_126_13214" x1="45.9924" y1="405.697" x2="45.9924" y2="408.552" gradientUnits="userSpaceOnUse">
<stop stop-color="#7454AE"/>
<stop offset="1" stop-color="#C152C5"/>
</linearGradient>
<linearGradient id="paint40_linear_126_13214" x1="46.0689" y1="393.484" x2="46.0689" y2="399.072" gradientUnits="userSpaceOnUse">
<stop stop-color="#7454AE"/>
<stop offset="1" stop-color="#C152C5"/>
</linearGradient>
<linearGradient id="paint41_linear_126_13214" x1="46.0689" y1="392.049" x2="46.0689" y2="394.37" gradientUnits="userSpaceOnUse">
<stop stop-color="#7454AE"/>
<stop offset="1" stop-color="#C152C5"/>
</linearGradient>
<linearGradient id="paint42_linear_126_13214" x1="46.2748" y1="400.064" x2="46.2748" y2="404.919" gradientUnits="userSpaceOnUse">
<stop stop-color="#7454AE"/>
<stop offset="1" stop-color="#C152C5"/>
</linearGradient>
<linearGradient id="paint43_linear_126_13214" x1="44.8934" y1="445.069" x2="44.8934" y2="426.505" gradientUnits="userSpaceOnUse">
<stop stop-color="#7454AE"/>
<stop offset="1" stop-color="#C152C5"/>
</linearGradient>
<linearGradient id="paint44_linear_126_13214" x1="44.7486" y1="442.169" x2="44.7486" y2="445.023" gradientUnits="userSpaceOnUse">
<stop stop-color="#7454AE"/>
<stop offset="1" stop-color="#C152C5"/>
</linearGradient>
<linearGradient id="paint45_linear_126_13214" x1="45.1454" y1="426.75" x2="45.1454" y2="427.437" gradientUnits="userSpaceOnUse">
<stop stop-color="#7454AE"/>
<stop offset="1" stop-color="#C152C5"/>
</linearGradient>
<linearGradient id="paint46_linear_126_13214" x1="44.6646" y1="429.956" x2="44.6646" y2="435.543" gradientUnits="userSpaceOnUse">
<stop stop-color="#7454AE"/>
<stop offset="1" stop-color="#C152C5"/>
</linearGradient>
<linearGradient id="paint47_linear_126_13214" x1="45.1454" y1="428.521" x2="45.1454" y2="430.841" gradientUnits="userSpaceOnUse">
<stop stop-color="#7454AE"/>
<stop offset="1" stop-color="#C152C5"/>
</linearGradient>
<linearGradient id="paint48_linear_126_13214" x1="45.3441" y1="436.551" x2="45.3441" y2="441.39" gradientUnits="userSpaceOnUse">
<stop stop-color="#7454AE"/>
<stop offset="1" stop-color="#C152C5"/>
</linearGradient>
<linearGradient id="paint49_linear_126_13214" x1="42.2751" y1="409.01" x2="42.2751" y2="427.574" gradientUnits="userSpaceOnUse">
<stop stop-color="#7454AE"/>
<stop offset="1" stop-color="#C152C5"/>
</linearGradient>
<linearGradient id="paint50_linear_126_13214" x1="34.7332" y1="409.392" x2="34.7332" y2="411.285" gradientUnits="userSpaceOnUse">
<stop stop-color="#7454AE"/>
<stop offset="1" stop-color="#C152C5"/>
</linearGradient>
<linearGradient id="paint51_linear_126_13214" x1="42.1144" y1="416.995" x2="42.1144" y2="418.231" gradientUnits="userSpaceOnUse">
<stop stop-color="#7454AE"/>
<stop offset="1" stop-color="#C152C5"/>
</linearGradient>
<linearGradient id="paint52_linear_126_13214" x1="42.1144" y1="421.971" x2="42.1144" y2="426.826" gradientUnits="userSpaceOnUse">
<stop stop-color="#7454AE"/>
<stop offset="1" stop-color="#C152C5"/>
</linearGradient>
<linearGradient id="paint53_linear_126_13214" x1="42.1144" y1="418.598" x2="42.1144" y2="420.613" gradientUnits="userSpaceOnUse">
<stop stop-color="#7454AE"/>
<stop offset="1" stop-color="#C152C5"/>
</linearGradient>
<linearGradient id="paint54_linear_126_13214" x1="61.6175" y1="368.631" x2="61.6175" y2="377.974" gradientUnits="userSpaceOnUse">
<stop stop-color="#7454AE"/>
<stop offset="1" stop-color="#C152C5"/>
</linearGradient>
<linearGradient id="paint55_linear_126_13214" x1="61.663" y1="375.257" x2="61.663" y2="375.898" gradientUnits="userSpaceOnUse">
<stop stop-color="#7454AE"/>
<stop offset="1" stop-color="#C152C5"/>
</linearGradient>
<linearGradient id="paint56_linear_126_13214" x1="61.663" y1="369.883" x2="61.663" y2="372.402" gradientUnits="userSpaceOnUse">
<stop stop-color="#7454AE"/>
<stop offset="1" stop-color="#C152C5"/>
</linearGradient>
<linearGradient id="paint57_linear_126_13214" x1="61.4188" y1="371.257" x2="61.4188" y2="372.295" gradientUnits="userSpaceOnUse">
<stop stop-color="#7454AE"/>
<stop offset="1" stop-color="#C152C5"/>
</linearGradient>
<linearGradient id="paint58_linear_126_13214" x1="51.2362" y1="364.509" x2="51.2362" y2="369.013" gradientUnits="userSpaceOnUse">
<stop stop-color="#7454AE"/>
<stop offset="1" stop-color="#C152C5"/>
</linearGradient>
<linearGradient id="paint59_linear_126_13214" x1="51.2745" y1="366.051" x2="51.2745" y2="368.585" gradientUnits="userSpaceOnUse">
<stop stop-color="#7454AE"/>
<stop offset="1" stop-color="#C152C5"/>
</linearGradient>
<linearGradient id="paint60_linear_126_13214" x1="51.2745" y1="365.685" x2="51.2745" y2="366.738" gradientUnits="userSpaceOnUse">
<stop stop-color="#7454AE"/>
<stop offset="1" stop-color="#C152C5"/>
</linearGradient>
<linearGradient id="paint61_linear_126_13214" x1="58.1522" y1="359.914" x2="58.1522" y2="364.417" gradientUnits="userSpaceOnUse">
<stop stop-color="#7454AE"/>
<stop offset="1" stop-color="#C152C5"/>
</linearGradient>
<linearGradient id="paint62_linear_126_13214" x1="58.1902" y1="361.944" x2="58.1902" y2="363.135" gradientUnits="userSpaceOnUse">
<stop stop-color="#7454AE"/>
<stop offset="1" stop-color="#C152C5"/>
</linearGradient>
<linearGradient id="paint63_linear_126_13214" x1="58.182" y1="361.089" x2="58.182" y2="362.127" gradientUnits="userSpaceOnUse">
<stop stop-color="#7454AE"/>
<stop offset="1" stop-color="#C152C5"/>
</linearGradient>
<linearGradient id="paint64_linear_126_13214" x1="56.5946" y1="377.974" x2="56.5946" y2="390.019" gradientUnits="userSpaceOnUse">
<stop stop-color="#7454AE"/>
<stop offset="1" stop-color="#C152C5"/>
</linearGradient>
<linearGradient id="paint65_linear_126_13214" x1="56.1294" y1="380.966" x2="56.1294" y2="381.714" gradientUnits="userSpaceOnUse">
<stop stop-color="#7454AE"/>
<stop offset="1" stop-color="#C152C5"/>
</linearGradient>
<linearGradient id="paint66_linear_126_13214" x1="56.641" y1="382.737" x2="56.641" y2="385.638" gradientUnits="userSpaceOnUse">
<stop stop-color="#7454AE"/>
<stop offset="1" stop-color="#C152C5"/>
</linearGradient>
<linearGradient id="paint67_linear_126_13214" x1="58.7471" y1="377.989" x2="58.7471" y2="379.47" gradientUnits="userSpaceOnUse">
<stop stop-color="#7454AE"/>
<stop offset="1" stop-color="#C152C5"/>
</linearGradient>
<linearGradient id="paint68_linear_126_13214" x1="56.8926" y1="386.951" x2="56.8926" y2="388.157" gradientUnits="userSpaceOnUse">
<stop stop-color="#7454AE"/>
<stop offset="1" stop-color="#C152C5"/>
</linearGradient>
</defs>
</svg>
