<svg width="371" height="454" viewBox="0 0 371 454" fill="none" xmlns="http://www.w3.org/2000/svg">
<path d="M132.069 189H0L9.76459 94.9194H142.952L132.069 189Z" fill="#F5F5F5"/>
<path d="M14.5212 173.214C14.3996 173.214 15.7691 159.05 17.5681 141.611C19.367 124.173 20.9229 110.008 21.0363 110.008C21.1498 110.008 19.7884 124.165 17.9894 141.611C16.1905 159.058 14.6346 173.223 14.5212 173.214Z" fill="#E0E0E0"/>
<path d="M38.5638 113.209C36.3609 113.417 34.147 113.488 31.9352 113.419C29.7235 113.488 27.5096 113.417 25.3066 113.209C27.5093 112.995 29.7235 112.925 31.9352 112.998C34.147 112.925 36.3612 112.995 38.5638 113.209Z" fill="#E0E0E0"/>
<path d="M94.972 113.209C94.972 113.322 83.1491 113.42 68.5711 113.42C53.9931 113.42 42.1621 113.322 42.1621 113.209C42.1621 113.095 53.985 112.998 68.5711 112.998C83.1572 112.998 94.972 113.087 94.972 113.209Z" fill="#E0E0E0"/>
<path d="M36.9993 146.635C34.7967 146.849 32.5825 146.919 30.3708 146.846C28.159 146.919 25.9448 146.849 23.7422 146.635C25.9451 146.427 28.159 146.356 30.3708 146.425C32.5825 146.356 34.7964 146.427 36.9993 146.635Z" fill="#E0E0E0"/>
<path d="M93.4075 146.635C93.4075 146.757 81.5846 146.846 67.0066 146.846C52.4286 146.846 40.5977 146.757 40.5977 146.635C40.5977 146.514 52.4205 146.425 67.0066 146.425C81.5927 146.425 93.4075 146.522 93.4075 146.635Z" fill="#E0E0E0"/>
<path d="M75.4173 162.088C75.4173 162.21 63.5944 162.299 49.0164 162.299C34.4384 162.299 22.6074 162.21 22.6074 162.088C22.6074 161.967 34.4303 161.878 49.0164 161.878C63.6025 161.878 75.4173 161.935 75.4173 162.088Z" fill="#E0E0E0"/>
<path d="M44.4079 122.649C44.4079 122.763 40.2347 122.86 35.0809 122.86C29.9272 122.86 25.7539 122.763 25.7539 122.649C25.7539 122.536 29.9353 122.43 35.0809 122.43C40.2266 122.43 44.4079 122.528 44.4079 122.649Z" fill="#E0E0E0"/>
<path d="M43.9372 136.482C43.9372 136.603 39.7559 136.692 34.6102 136.692C29.4646 136.692 25.2832 136.603 25.2832 136.482C25.2832 136.36 29.4565 136.271 34.6102 136.271C39.764 136.271 43.9372 136.368 43.9372 136.482Z" fill="#E0E0E0"/>
<path d="M59.7068 156.262C59.7068 156.376 55.5254 156.473 50.3797 156.473C45.2341 156.473 41.0527 156.376 41.0527 156.262C41.0527 156.149 45.226 156.052 50.3797 156.052C55.5335 156.052 59.7068 156.141 59.7068 156.262Z" fill="#E0E0E0"/>
<path d="M112.248 122.649C112.248 122.763 101.584 122.86 88.4239 122.86C75.264 122.86 64.5918 122.763 64.5918 122.649C64.5918 122.536 75.264 122.43 88.4239 122.43C101.584 122.43 112.248 122.528 112.248 122.649Z" fill="#E0E0E0"/>
<path d="M97.5562 137.284C97.5562 137.406 86.8921 137.495 73.7322 137.495C60.5723 137.495 49.9082 137.406 49.9082 137.284C49.9082 137.162 60.5723 137.073 73.7322 137.073C86.8921 137.073 97.5562 137.171 97.5562 137.284Z" fill="#E0E0E0"/>
<path d="M113.957 156.262C113.957 156.376 103.285 156.473 90.1329 156.473C76.9811 156.473 66.3008 156.376 66.3008 156.262C66.3008 156.149 76.973 156.052 90.1329 156.052C103.293 156.052 113.957 156.141 113.957 156.262Z" fill="#E0E0E0"/>
<path d="M70.451 173.214C70.451 173.328 59.7788 173.425 46.6189 173.425C33.459 173.425 22.7949 173.328 22.7949 173.214C22.7949 173.101 33.459 173.004 46.6189 173.004C59.7788 173.004 70.451 173.093 70.451 173.214Z" fill="#E0E0E0"/>
<path d="M123.146 173.214C123.146 173.328 112.474 173.425 99.3223 173.425C86.1705 173.425 75.4902 173.328 75.4902 173.214C75.4902 173.101 86.1543 173.004 99.3223 173.004C112.49 173.004 123.146 173.093 123.146 173.214Z" fill="#E0E0E0"/>
<path d="M70.4432 178.725C70.4432 178.846 59.7791 178.936 46.6192 178.936C33.4593 178.936 22.7871 178.846 22.7871 178.725C22.7871 178.603 33.4593 178.514 46.6192 178.514C59.7791 178.514 70.4432 178.611 70.4432 178.725Z" fill="#E0E0E0"/>
<path d="M72.7616 126.62C72.7616 126.733 62.0975 126.831 48.9376 126.831C35.7776 126.831 25.1055 126.733 25.1055 126.62C25.1055 126.507 35.7776 126.409 48.9376 126.409C62.0975 126.409 72.7616 126.498 72.7616 126.62Z" fill="#E0E0E0"/>
<path d="M60.054 122.698C58.0163 122.907 55.9669 122.977 53.9197 122.909C51.8699 122.977 49.8177 122.907 47.7773 122.698C49.8174 122.484 51.8699 122.414 53.9197 122.487C55.9669 122.414 58.0167 122.485 60.054 122.698Z" fill="#E0E0E0"/>
<path d="M35.4446 151.181C33.4043 151.39 31.3521 151.46 29.3022 151.392C27.2551 151.46 25.2056 151.39 23.168 151.181C25.2056 150.973 27.2551 150.902 29.3022 150.971C31.3521 150.902 33.4043 150.973 35.4446 151.181Z" fill="#E0E0E0"/>
<path d="M35.1536 156.262C33.1159 156.471 31.0665 156.541 29.0193 156.473C26.9695 156.541 24.9173 156.471 22.877 156.262C24.917 156.049 26.9695 155.978 29.0193 156.051C31.0665 155.978 33.1163 156.049 35.1536 156.262Z" fill="#E0E0E0"/>
<path d="M141.493 104.87C141.493 104.992 111.794 105.081 75.1667 105.081C38.5394 105.081 8.82422 104.992 8.82422 104.87C8.82422 104.749 38.5232 104.66 75.1667 104.66C111.81 104.66 141.493 104.757 141.493 104.87Z" fill="#E0E0E0"/>
<path d="M17.7791 101.961C18.6473 101.961 19.3511 101.257 19.3511 100.389C19.3511 99.521 18.6473 98.8171 17.7791 98.8171C16.9109 98.8171 16.207 99.521 16.207 100.389C16.207 101.257 16.9109 101.961 17.7791 101.961Z" fill="white"/>
<path d="M24.5291 101.961C25.3973 101.961 26.1012 101.257 26.1012 100.389C26.1012 99.521 25.3973 98.8171 24.5291 98.8171C23.6609 98.8171 22.957 99.521 22.957 100.389C22.957 101.257 23.6609 101.961 24.5291 101.961Z" fill="white"/>
<path d="M31.2791 101.961C32.1473 101.961 32.8512 101.257 32.8512 100.389C32.8512 99.521 32.1473 98.8171 31.2791 98.8171C30.4109 98.8171 29.707 99.521 29.707 100.389C29.707 101.257 30.4109 101.961 31.2791 101.961Z" fill="white"/>
<path d="M201.123 453.184H56.2617L66.9721 350H213.06L201.123 453.184Z" fill="#F5F5F5"/>
<path d="M72.1889 435.87C72.0645 435.87 73.5576 420.333 75.5308 401.205C77.504 382.078 79.2106 366.541 79.335 366.594C79.4595 366.648 77.9662 382.122 75.993 401.259C74.0198 420.395 72.3133 435.878 72.1889 435.87Z" fill="#E0E0E0"/>
<path d="M98.5607 370.052C93.7186 370.36 88.8617 370.36 84.0195 370.052C88.8617 369.744 93.7186 369.744 98.5607 370.052Z" fill="#E0E0E0"/>
<path d="M160.442 370.052C160.442 370.176 147.474 370.283 131.475 370.283C115.476 370.283 102.508 370.176 102.508 370.052C102.508 369.927 115.476 369.821 131.475 369.821C147.474 369.821 160.442 369.927 160.442 370.052Z" fill="#E0E0E0"/>
<path d="M96.8548 406.725C92.0097 407.033 87.1498 407.033 82.3047 406.725C87.1498 406.417 92.0097 406.417 96.8548 406.725Z" fill="#E0E0E0"/>
<path d="M158.77 406.725C158.77 406.849 145.802 406.956 129.803 406.956C113.804 406.956 100.836 406.849 100.836 406.725C100.836 406.6 113.804 406.494 129.803 406.494C145.802 406.494 158.77 406.592 158.77 406.725Z" fill="#E0E0E0"/>
<path d="M138.994 423.63C138.994 423.755 126.026 423.861 110.027 423.861C94.0285 423.861 81.0605 423.755 81.0605 423.63C81.0605 423.506 94.0285 423.399 110.027 423.399C126.026 423.399 138.994 423.497 138.994 423.63Z" fill="#E0E0E0"/>
<path d="M104.978 380.407C104.978 380.531 100.392 380.638 94.7479 380.638C89.1039 380.638 84.5176 380.531 84.5176 380.407C84.5176 380.282 89.095 380.158 94.7746 380.158C100.454 380.158 104.978 380.273 104.978 380.407Z" fill="#E0E0E0"/>
<path d="M104.455 395.579C104.455 395.712 99.8775 395.81 94.2245 395.81C88.5716 395.81 83.9941 395.712 83.9941 395.579C83.9941 395.446 88.5716 395.348 94.2245 395.348C99.8775 395.348 104.455 395.454 104.455 395.579Z" fill="#E0E0E0"/>
<path d="M121.75 417.275C121.75 417.4 117.172 417.506 111.519 417.506C105.867 417.506 101.289 417.4 101.289 417.275C101.289 417.151 105.867 417.044 111.519 417.044C117.172 417.044 121.75 417.151 121.75 417.275Z" fill="#E0E0E0"/>
<path d="M179.409 380.407C179.409 380.531 167.703 380.638 153.268 380.638C138.834 380.638 127.137 380.531 127.137 380.407C127.137 380.282 138.834 380.176 153.268 380.176C167.703 380.176 179.409 380.273 179.409 380.407Z" fill="#E0E0E0"/>
<path d="M163.276 396.459C163.276 396.592 151.57 396.69 137.135 396.69C122.701 396.69 111.004 396.592 111.004 396.459C111.004 396.326 122.701 396.228 137.135 396.228C151.57 396.228 163.276 396.335 163.276 396.459Z" fill="#E0E0E0"/>
<path d="M181.257 417.275C181.257 417.4 169.56 417.506 155.126 417.506C140.691 417.506 128.994 417.4 128.994 417.275C128.994 417.151 140.691 417.044 155.126 417.044C169.56 417.044 181.257 417.151 181.257 417.275Z" fill="#E0E0E0"/>
<path d="M133.536 435.87C133.536 435.994 121.83 436.101 107.404 436.101C92.9784 436.101 81.2637 435.994 81.2637 435.87C81.2637 435.745 92.9607 435.638 107.404 435.638C121.848 435.638 133.536 435.736 133.536 435.87Z" fill="#E0E0E0"/>
<path d="M191.336 435.87C191.336 435.994 179.639 436.101 165.205 436.101C150.77 436.101 139.064 435.994 139.064 435.87C139.064 435.745 150.77 435.638 165.205 435.638C179.639 435.638 191.336 435.736 191.336 435.87Z" fill="#E0E0E0"/>
<path d="M133.527 441.914C133.527 442.047 121.83 442.145 107.395 442.145C92.9607 442.145 81.2637 442.047 81.2637 441.914C81.2637 441.78 92.9607 441.682 107.395 441.682C121.83 441.682 133.527 441.789 133.527 441.914Z" fill="#E0E0E0"/>
<path d="M136.079 384.762C136.079 384.886 124.373 384.993 109.938 384.993C95.5036 384.993 83.8066 384.886 83.8066 384.762C83.8066 384.638 95.5036 384.531 109.938 384.531C124.373 384.531 136.079 384.602 136.079 384.762Z" fill="#E0E0E0"/>
<path d="M122.133 380.46C117.652 380.768 113.156 380.768 108.676 380.46C113.156 380.152 117.652 380.152 122.133 380.46Z" fill="#E0E0E0"/>
<path d="M95.1395 411.702C90.6562 412.01 86.1571 412.01 81.6738 411.702C86.1571 411.394 90.6562 411.394 95.1395 411.702Z" fill="#E0E0E0"/>
<path d="M94.8201 417.275C90.3398 417.583 85.8436 417.583 81.3633 417.275C85.8436 416.967 90.3398 416.967 94.8201 417.275Z" fill="#E0E0E0"/>
<path d="M211.468 360.906C211.468 361.039 178.884 361.137 138.709 361.137C98.5336 361.137 65.9492 361.039 65.9492 360.906C65.9492 360.773 98.5158 360.675 138.709 360.675C178.901 360.675 211.468 360.781 211.468 360.906Z" fill="#E0E0E0"/>
<path d="M75.7614 357.715C76.7138 357.715 77.4858 356.943 77.4858 355.991C77.4858 355.038 76.7138 354.266 75.7614 354.266C74.8091 354.266 74.0371 355.038 74.0371 355.991C74.0371 356.943 74.8091 357.715 75.7614 357.715Z" fill="white"/>
<path d="M83.1657 357.715C84.118 357.715 84.8901 356.943 84.8901 355.991C84.8901 355.038 84.118 354.266 83.1657 354.266C82.2134 354.266 81.4414 355.038 81.4414 355.991C81.4414 356.943 82.2134 357.715 83.1657 357.715Z" fill="white"/>
<path d="M90.572 357.715C91.5243 357.715 92.2963 356.943 92.2963 355.991C92.2963 355.038 91.5243 354.266 90.572 354.266C89.6197 354.266 88.8477 355.038 88.8477 355.991C88.8477 356.943 89.6197 357.715 90.572 357.715Z" fill="white"/>
<path d="M213.797 73.5216H110.586L118.212 0H222.297L213.797 73.5216Z" fill="#EBEBEB"/>
<path d="M121.933 61.1783C121.791 61.1783 122.808 50.1058 124.211 36.4813C125.614 22.8568 126.875 11.8148 127.027 11.825C127.18 11.8351 126.153 22.9076 124.739 36.5321C123.326 50.1566 122.076 61.1986 121.933 61.1783Z" fill="#E0E0E0"/>
<path d="M140.773 14.2854C137.328 14.6378 133.857 14.6378 130.412 14.2854C133.857 13.9329 137.328 13.9329 140.773 14.2854Z" fill="#E0E0E0"/>
<path d="M184.81 14.2854C184.81 14.4379 175.567 14.5497 164.169 14.5497C152.772 14.5497 143.529 14.4379 143.529 14.2854C143.529 14.1328 152.772 14.021 164.169 14.021C175.567 14.021 184.81 14.1837 184.81 14.2854Z" fill="#E0E0E0"/>
<path d="M139.503 40.416C136.059 40.7685 132.587 40.7685 129.143 40.416C132.587 40.0635 136.059 40.0635 139.503 40.416Z" fill="#E0E0E0"/>
<path d="M183.589 40.416C183.589 40.5583 174.347 40.6803 162.949 40.6803C151.551 40.6803 142.309 40.5583 142.309 40.416C142.309 40.2736 151.551 40.1516 162.949 40.1516C174.347 40.1516 183.589 40.2736 183.589 40.416Z" fill="#E0E0E0"/>
<path d="M169.528 52.4545C169.528 52.6071 160.286 52.7189 148.888 52.7189C137.49 52.7189 128.258 52.6071 128.258 52.4545C128.258 52.302 137.49 52.1902 148.888 52.1902C160.286 52.1902 169.528 52.3122 169.528 52.4545Z" fill="#E0E0E0"/>
<path d="M145.289 21.6672C142.868 21.9288 140.432 22.0172 137.999 21.9316C135.569 22.0174 133.136 21.929 130.719 21.6672C133.136 21.3993 135.569 21.3109 137.999 21.4028C140.432 21.3112 142.869 21.3995 145.289 21.6672Z" fill="#E0E0E0"/>
<path d="M144.922 32.4854C142.502 32.7531 140.065 32.8415 137.632 32.7498C135.199 32.8415 132.762 32.7531 130.342 32.4854C132.762 32.2238 135.199 32.1355 137.632 32.2211C140.065 32.1355 142.501 32.2238 144.922 32.4854Z" fill="#E0E0E0"/>
<path d="M157.246 47.9297C154.826 48.1974 152.389 48.2858 149.956 48.1941C147.523 48.2858 145.086 48.1974 142.666 47.9297C145.087 47.6681 147.523 47.5798 149.956 47.6654C152.389 47.5798 154.826 47.6681 157.246 47.9297Z" fill="#E0E0E0"/>
<path d="M198.323 21.6669C198.323 21.8093 189.985 21.9313 179.706 21.9313C169.426 21.9313 161.109 21.8093 161.109 21.6669C161.109 21.5246 169.447 21.4026 179.736 21.4026C190.026 21.4026 198.323 21.5144 198.323 21.6669Z" fill="#E0E0E0"/>
<path d="M186.821 33.1057C186.821 33.248 178.484 33.37 168.205 33.37C157.925 33.37 149.588 33.248 149.588 33.1057C149.588 32.9633 157.925 32.8413 168.205 32.8413C178.484 32.8413 186.821 32.9633 186.821 33.1057Z" fill="#E0E0E0"/>
<path d="M199.644 47.9299C199.644 48.0824 191.307 48.1942 181.027 48.1942C170.748 48.1942 162.4 48.0824 162.4 47.9299C162.4 47.7774 170.738 47.6655 181.027 47.6655C191.317 47.6655 199.644 47.7875 199.644 47.9299Z" fill="#E0E0E0"/>
<path d="M165.644 61.1782C165.644 61.3307 157.307 61.4425 147.017 61.4425C136.728 61.4425 128.4 61.3307 128.4 61.1782C128.4 61.0257 136.738 60.9138 147.017 60.9138C157.297 60.9138 165.644 61.0358 165.644 61.1782Z" fill="#E0E0E0"/>
<path d="M206.863 61.1782C206.863 61.3307 198.526 61.4425 188.246 61.4425C177.967 61.4425 169.619 61.3307 169.619 61.1782C169.619 61.0257 177.957 60.9138 188.246 60.9138C198.536 60.9138 206.863 61.0358 206.863 61.1782Z" fill="#E0E0E0"/>
<path d="M165.634 65.4892C165.634 65.6417 157.297 65.7536 147.017 65.7536C136.738 65.7536 128.4 65.6417 128.4 65.4892C128.4 65.3367 136.728 65.2249 147.017 65.2249C157.307 65.2249 165.634 65.3469 165.634 65.4892Z" fill="#E0E0E0"/>
<path d="M167.443 24.7683C167.443 24.9208 159.105 25.0326 148.826 25.0326C138.546 25.0326 130.209 24.9208 130.209 24.7683C130.209 24.6158 138.546 24.5039 148.826 24.5039C159.105 24.5039 167.443 24.6259 167.443 24.7683Z" fill="#E0E0E0"/>
<path d="M157.52 21.7078C154.33 22.06 151.112 22.06 147.922 21.7078C151.112 21.3555 154.33 21.3555 157.52 21.7078Z" fill="#E0E0E0"/>
<path d="M138.281 43.9646C135.095 44.3171 131.88 44.3171 128.693 43.9646C131.88 43.6121 135.095 43.6121 138.281 43.9646Z" fill="#E0E0E0"/>
<path d="M138.059 47.93C134.869 48.2822 131.651 48.2822 128.461 47.93C131.651 47.5777 134.869 47.5777 138.059 47.93Z" fill="#E0E0E0"/>
<path d="M221.158 7.77827C221.158 7.92061 197.956 8.04263 169.304 8.04263C140.652 8.04263 117.449 7.92061 117.449 7.77827C117.449 7.63592 140.652 7.51392 169.304 7.51392C197.956 7.51392 221.158 7.62575 221.158 7.77827Z" fill="#E0E0E0"/>
<path d="M125.706 4.27057C125.698 4.51329 125.618 4.74817 125.477 4.94564C125.335 5.14311 125.139 5.29433 124.912 5.38025C124.684 5.46616 124.437 5.48293 124.2 5.42845C123.964 5.37396 123.748 5.25066 123.582 5.07407C123.415 4.89747 123.304 4.6755 123.264 4.4361C123.223 4.1967 123.254 3.95058 123.353 3.72876C123.451 3.50694 123.614 3.31934 123.819 3.18959C124.024 3.05984 124.263 2.99374 124.506 2.99963C124.669 3.00357 124.829 3.03965 124.977 3.1058C125.126 3.17195 125.259 3.26685 125.371 3.38502C125.483 3.50319 125.57 3.64228 125.627 3.79428C125.685 3.94628 125.711 4.10816 125.706 4.27057Z" fill="white"/>
<path d="M130.983 4.27046C130.975 4.51189 130.896 4.74563 130.757 4.94253C130.617 5.13942 130.422 5.29077 130.196 5.37768C129.971 5.46459 129.725 5.48322 129.489 5.43126C129.253 5.37929 129.038 5.25903 128.87 5.08546C128.702 4.9119 128.589 4.69271 128.544 4.45523C128.5 4.21776 128.527 3.97251 128.621 3.75006C128.715 3.52762 128.873 3.33783 129.074 3.20436C129.275 3.07089 129.511 2.99964 129.753 2.99951C129.918 2.99942 130.081 3.03254 130.233 3.0969C130.385 3.16125 130.523 3.25552 130.638 3.37411C130.752 3.49269 130.842 3.63316 130.902 3.78715C130.961 3.94114 130.989 4.1055 130.983 4.27046Z" fill="white"/>
<path d="M136.259 4.27046C136.251 4.51189 136.172 4.74563 136.032 4.94253C135.892 5.13942 135.697 5.29077 135.472 5.37768C135.246 5.46459 135 5.48322 134.764 5.43126C134.529 5.37929 134.313 5.25903 134.145 5.08546C133.977 4.9119 133.864 4.69271 133.82 4.45523C133.775 4.21776 133.802 3.97251 133.896 3.75006C133.99 3.52762 134.148 3.33783 134.349 3.20436C134.551 3.07089 134.787 2.99964 135.028 2.99951C135.193 2.99942 135.357 3.03254 135.509 3.0969C135.661 3.16125 135.798 3.25552 135.913 3.37411C136.028 3.49269 136.118 3.63316 136.177 3.78715C136.236 3.94114 136.264 4.1055 136.259 4.27046Z" fill="white"/>
<path d="M306.797 275.522H203.586L211.212 202H315.297L306.797 275.522Z" fill="#EBEBEB"/>
<path d="M214.933 263.178C214.791 263.178 215.808 252.106 217.211 238.481C218.614 224.857 219.875 213.815 220.027 213.825C220.18 213.835 219.153 224.907 217.739 238.532C216.326 252.157 215.076 263.198 214.933 263.178Z" fill="#E0E0E0"/>
<path d="M233.773 216.285C230.328 216.638 226.857 216.638 223.412 216.285C226.857 215.933 230.328 215.933 233.773 216.285Z" fill="#E0E0E0"/>
<path d="M277.81 216.285C277.81 216.438 268.567 216.55 257.169 216.55C245.772 216.55 236.529 216.438 236.529 216.285C236.529 216.133 245.772 216.021 257.169 216.021C268.567 216.021 277.81 216.184 277.81 216.285Z" fill="#E0E0E0"/>
<path d="M232.503 242.416C229.059 242.768 225.587 242.768 222.143 242.416C225.587 242.063 229.059 242.063 232.503 242.416Z" fill="#E0E0E0"/>
<path d="M276.589 242.416C276.589 242.558 267.347 242.68 255.949 242.68C244.551 242.68 235.309 242.558 235.309 242.416C235.309 242.274 244.551 242.152 255.949 242.152C267.347 242.152 276.589 242.274 276.589 242.416Z" fill="#E0E0E0"/>
<path d="M262.528 254.454C262.528 254.607 253.286 254.719 241.888 254.719C230.49 254.719 221.258 254.607 221.258 254.454C221.258 254.302 230.49 254.19 241.888 254.19C253.286 254.19 262.528 254.312 262.528 254.454Z" fill="#E0E0E0"/>
<path d="M238.289 223.667C235.868 223.929 233.432 224.017 230.999 223.931C228.569 224.017 226.136 223.929 223.719 223.667C226.136 223.399 228.569 223.311 230.999 223.403C233.432 223.311 235.869 223.399 238.289 223.667Z" fill="#E0E0E0"/>
<path d="M237.922 234.485C235.502 234.753 233.065 234.841 230.632 234.75C228.199 234.841 225.762 234.753 223.342 234.485C225.762 234.224 228.199 234.135 230.632 234.221C233.065 234.135 235.501 234.224 237.922 234.485Z" fill="#E0E0E0"/>
<path d="M250.244 249.93C247.824 250.198 245.387 250.286 242.954 250.194C240.521 250.286 238.084 250.198 235.664 249.93C238.085 249.668 240.521 249.58 242.954 249.666C245.387 249.58 247.824 249.668 250.244 249.93Z" fill="#E0E0E0"/>
<path d="M291.323 223.667C291.323 223.809 282.985 223.931 272.706 223.931C262.426 223.931 254.109 223.809 254.109 223.667C254.109 223.525 262.447 223.403 272.736 223.403C283.026 223.403 291.323 223.514 291.323 223.667Z" fill="#E0E0E0"/>
<path d="M279.821 235.106C279.821 235.248 271.484 235.37 261.205 235.37C250.925 235.37 242.588 235.248 242.588 235.106C242.588 234.963 250.925 234.841 261.205 234.841C271.484 234.841 279.821 234.963 279.821 235.106Z" fill="#E0E0E0"/>
<path d="M292.644 249.93C292.644 250.082 284.307 250.194 274.027 250.194C263.748 250.194 255.4 250.082 255.4 249.93C255.4 249.777 263.738 249.666 274.027 249.666C284.317 249.666 292.644 249.788 292.644 249.93Z" fill="#E0E0E0"/>
<path d="M258.644 263.178C258.644 263.331 250.307 263.443 240.017 263.443C229.728 263.443 221.4 263.331 221.4 263.178C221.4 263.026 229.738 262.914 240.017 262.914C250.297 262.914 258.644 263.036 258.644 263.178Z" fill="#E0E0E0"/>
<path d="M299.863 263.178C299.863 263.331 291.526 263.443 281.246 263.443C270.967 263.443 262.619 263.331 262.619 263.178C262.619 263.026 270.957 262.914 281.246 262.914C291.536 262.914 299.863 263.036 299.863 263.178Z" fill="#E0E0E0"/>
<path d="M258.634 267.489C258.634 267.642 250.297 267.754 240.017 267.754C229.738 267.754 221.4 267.642 221.4 267.489C221.4 267.337 229.728 267.225 240.017 267.225C250.307 267.225 258.634 267.347 258.634 267.489Z" fill="#E0E0E0"/>
<path d="M260.443 226.768C260.443 226.921 252.105 227.032 241.826 227.032C231.546 227.032 223.209 226.921 223.209 226.768C223.209 226.616 231.546 226.504 241.826 226.504C252.105 226.504 260.443 226.626 260.443 226.768Z" fill="#E0E0E0"/>
<path d="M250.52 223.708C247.33 224.06 244.112 224.06 240.922 223.708C244.112 223.356 247.33 223.356 250.52 223.708Z" fill="#E0E0E0"/>
<path d="M231.281 245.964C228.095 246.317 224.88 246.317 221.693 245.964C224.88 245.612 228.095 245.612 231.281 245.964Z" fill="#E0E0E0"/>
<path d="M231.059 249.93C227.869 250.282 224.651 250.282 221.461 249.93C224.651 249.578 227.869 249.578 231.059 249.93Z" fill="#E0E0E0"/>
<path d="M314.158 209.778C314.158 209.921 290.956 210.043 262.304 210.043C233.652 210.043 210.449 209.921 210.449 209.778C210.449 209.636 233.652 209.514 262.304 209.514C290.956 209.514 314.158 209.626 314.158 209.778Z" fill="#E0E0E0"/>
<path d="M218.706 206.27C218.698 206.513 218.618 206.748 218.477 206.946C218.335 207.143 218.139 207.294 217.912 207.38C217.684 207.466 217.437 207.483 217.2 207.428C216.964 207.374 216.748 207.251 216.582 207.074C216.415 206.897 216.304 206.675 216.264 206.436C216.223 206.197 216.254 205.95 216.353 205.729C216.451 205.507 216.614 205.319 216.819 205.189C217.024 205.06 217.263 204.994 217.506 205C217.669 205.003 217.829 205.04 217.977 205.106C218.126 205.172 218.259 205.267 218.371 205.385C218.483 205.503 218.57 205.642 218.627 205.794C218.685 205.946 218.711 206.108 218.706 206.27Z" fill="white"/>
<path d="M223.981 206.27C223.973 206.512 223.895 206.746 223.755 206.942C223.615 207.139 223.42 207.291 223.194 207.378C222.969 207.464 222.723 207.483 222.487 207.431C222.251 207.379 222.036 207.259 221.868 207.085C221.7 206.912 221.587 206.693 221.542 206.455C221.498 206.218 221.525 205.972 221.619 205.75C221.713 205.527 221.871 205.338 222.072 205.204C222.273 205.071 222.51 205 222.751 204.999C222.916 204.999 223.08 205.032 223.231 205.097C223.383 205.161 223.521 205.255 223.636 205.374C223.751 205.493 223.84 205.633 223.9 205.787C223.959 205.941 223.987 206.105 223.981 206.27Z" fill="white"/>
<path d="M229.259 206.27C229.251 206.512 229.172 206.746 229.032 206.942C228.892 207.139 228.697 207.291 228.472 207.378C228.246 207.464 228 207.483 227.764 207.431C227.529 207.379 227.313 207.259 227.145 207.085C226.977 206.912 226.864 206.693 226.82 206.455C226.775 206.218 226.802 205.972 226.896 205.75C226.99 205.527 227.148 205.338 227.349 205.204C227.551 205.071 227.787 205 228.028 204.999C228.193 204.999 228.357 205.032 228.509 205.097C228.661 205.161 228.798 205.255 228.913 205.374C229.028 205.493 229.118 205.633 229.177 205.787C229.236 205.941 229.264 206.105 229.259 206.27Z" fill="white"/>
<path d="M361.088 387.324H248.33L256.667 307H370.381L361.088 387.324Z" fill="#263238"/>
<path d="M355.354 387.324H242.586L250.923 307H364.637L355.354 387.324Z" fill="#9A9A9A"/>
<path d="M351.166 383.684H246.531L254.269 309.156H359.788L351.166 383.684Z" fill="#F5F5F5"/>
<path d="M257.878 371.259C257.726 371.259 258.763 360.024 260.196 346.216C261.63 332.409 262.891 321.204 263.033 321.225C263.175 321.245 262.149 332.409 260.715 346.267C259.281 360.126 258.021 371.269 257.878 371.259Z" fill="#263238"/>
<path d="M276.921 323.716C273.429 324.068 269.91 324.068 266.418 323.716C269.91 323.363 273.429 323.363 276.921 323.716Z" fill="#263238"/>
<path d="M321.619 323.716C321.619 323.858 312.254 323.98 300.694 323.98C289.133 323.98 279.779 323.858 279.779 323.716C279.779 323.573 289.144 323.451 300.694 323.451C312.244 323.451 321.619 323.573 321.619 323.716Z" fill="url(#paint0_linear_526_2383)"/>
<path d="M275.691 350.202C272.195 350.555 268.673 350.555 265.178 350.202C268.673 349.85 272.195 349.85 275.691 350.202Z" fill="#263238"/>
<path d="M320.379 350.202C320.379 350.355 311.014 350.466 299.464 350.466C287.914 350.466 278.539 350.355 278.539 350.202C278.539 350.05 287.903 349.938 299.464 349.938C311.024 349.938 320.379 350.06 320.379 350.202Z" fill="url(#paint1_linear_526_2383)"/>
<path d="M306.123 362.413C306.123 362.556 296.758 362.678 285.208 362.678C273.658 362.678 264.283 362.556 264.283 362.413C264.283 362.271 273.648 362.149 285.208 362.149C296.769 362.149 306.123 362.271 306.123 362.413Z" fill="url(#paint2_linear_526_2383)"/>
<path d="M281.598 331.189C279.144 331.463 276.674 331.555 274.206 331.463C271.739 331.555 269.268 331.463 266.814 331.189C269.269 330.927 271.739 330.839 274.206 330.924C276.673 330.839 279.143 330.927 281.598 331.189Z" fill="url(#paint3_linear_526_2383)"/>
<path d="M281.182 342.16C278.727 342.421 276.257 342.509 273.79 342.424C271.323 342.509 268.853 342.421 266.398 342.16C268.853 341.892 271.323 341.804 273.79 341.895C276.257 341.804 278.728 341.892 281.182 342.16Z" fill="url(#paint4_linear_526_2383)"/>
<path d="M293.678 357.828C291.223 358.089 288.753 358.177 286.286 358.092C283.819 358.178 281.349 358.089 278.895 357.828C281.349 357.56 283.819 357.471 286.286 357.563C288.753 357.472 291.224 357.56 293.678 357.828Z" fill="url(#paint5_linear_526_2383)"/>
<path d="M335.315 331.189C335.315 331.341 326.865 331.463 316.444 331.463C306.022 331.463 297.562 331.341 297.562 331.189C297.562 331.036 306.012 330.924 316.444 330.924C326.876 330.924 335.315 331.046 335.315 331.189Z" fill="#263238"/>
<path d="M323.662 342.79C323.662 342.942 315.213 343.054 304.791 343.054C294.37 343.054 285.91 342.942 285.91 342.79C285.91 342.637 294.359 342.526 304.791 342.526C315.223 342.526 323.662 342.648 323.662 342.79Z" fill="#263238"/>
<path d="M336.655 357.828C336.655 357.97 328.206 358.092 317.784 358.092C307.363 358.092 298.883 357.96 298.883 357.828C298.883 357.695 307.332 357.563 317.764 357.563C328.196 357.563 336.655 357.675 336.655 357.828Z" fill="#263238"/>
<path d="M302.188 371.259C302.188 371.401 293.729 371.523 283.307 371.523C272.885 371.523 264.426 371.401 264.426 371.259C264.426 371.117 272.885 370.995 283.307 370.995C293.729 370.995 302.188 371.106 302.188 371.259Z" fill="#263238"/>
<path d="M343.936 371.259C343.936 371.401 335.487 371.523 325.065 371.523C314.643 371.523 306.184 371.401 306.184 371.259C306.184 371.117 314.633 370.995 325.065 370.995C335.497 370.995 343.936 371.106 343.936 371.259Z" fill="#263238"/>
<path d="M302.178 375.621C302.178 375.774 293.729 375.885 283.307 375.885C272.885 375.885 264.426 375.774 264.426 375.621C264.426 375.469 272.875 375.357 283.307 375.357C293.739 375.357 302.178 375.479 302.178 375.621Z" fill="#263238"/>
<path d="M304.018 334.341C304.018 334.483 295.569 334.605 285.147 334.605C274.725 334.605 266.266 334.483 266.266 334.341C266.266 334.198 274.715 334.076 285.147 334.076C295.579 334.076 304.018 334.198 304.018 334.341Z" fill="#263238"/>
<path d="M293.953 331.239C290.719 331.592 287.457 331.592 284.223 331.239C287.456 330.873 290.72 330.873 293.953 331.239Z" fill="#9A9A9A"/>
<path d="M274.482 353.801C271.251 354.154 267.992 354.154 264.762 353.801C267.992 353.449 271.251 353.449 274.482 353.801Z" fill="#9A9A9A"/>
<path d="M274.216 357.828C270.986 358.18 267.727 358.18 264.496 357.828C267.727 357.475 270.986 357.475 274.216 357.828Z" fill="#9A9A9A"/>
<path d="M358.475 317.117C358.475 317.259 334.948 317.381 305.919 317.381C276.891 317.381 253.363 317.259 253.363 317.117C253.363 316.974 276.891 316.842 305.919 316.842C334.948 316.842 358.475 316.964 358.475 317.117Z" fill="#263238"/>
<path d="M261.7 313.558C261.7 313.806 261.627 314.048 261.489 314.254C261.351 314.46 261.155 314.62 260.926 314.714C260.697 314.809 260.445 314.833 260.202 314.784C259.959 314.735 259.736 314.615 259.562 314.439C259.387 314.263 259.269 314.039 259.222 313.796C259.175 313.553 259.201 313.301 259.297 313.072C259.394 312.844 259.555 312.65 259.762 312.513C259.969 312.377 260.212 312.306 260.46 312.308C260.624 312.308 260.786 312.34 260.937 312.403C261.088 312.466 261.225 312.558 261.341 312.674C261.456 312.791 261.547 312.929 261.609 313.08C261.671 313.232 261.702 313.394 261.7 313.558Z" fill="white"/>
<path d="M267.048 313.558C267.048 313.806 266.974 314.048 266.837 314.254C266.699 314.46 266.503 314.62 266.274 314.714C266.045 314.809 265.793 314.833 265.55 314.784C265.307 314.735 265.084 314.615 264.91 314.439C264.735 314.263 264.617 314.039 264.57 313.796C264.523 313.553 264.549 313.301 264.645 313.072C264.741 312.844 264.903 312.65 265.11 312.513C265.317 312.377 265.56 312.306 265.808 312.308C265.971 312.308 266.134 312.34 266.285 312.403C266.436 312.466 266.573 312.558 266.688 312.674C266.804 312.791 266.895 312.929 266.957 313.08C267.018 313.232 267.049 313.394 267.048 313.558Z" fill="white"/>
<path d="M272.448 313.558C272.448 313.806 272.375 314.048 272.237 314.254C272.099 314.46 271.903 314.62 271.674 314.714C271.445 314.809 271.193 314.833 270.95 314.784C270.707 314.735 270.484 314.615 270.31 314.439C270.135 314.263 270.017 314.039 269.97 313.796C269.923 313.553 269.949 313.301 270.045 313.072C270.142 312.844 270.303 312.65 270.51 312.513C270.717 312.377 270.96 312.306 271.208 312.308C271.372 312.308 271.534 312.34 271.685 312.403C271.836 312.466 271.973 312.558 272.089 312.674C272.204 312.791 272.295 312.929 272.357 313.08C272.419 313.232 272.45 313.394 272.448 313.558Z" fill="white"/>
<path d="M176.24 321.503H57.625L66.3894 237H186.021L176.24 321.503Z" fill="#263238"/>
<path d="M170.201 321.503H51.5859L60.3605 237H179.982L170.201 321.503Z" fill="#9A9A9A"/>
<path d="M165.808 317.669H55.7441L63.8782 239.267H174.877L165.808 317.669Z" fill="#EBEBEB"/>
<path d="M67.7312 303.414C67.5888 303.414 68.6869 291.6 70.1816 277.07C71.6762 262.541 73.0183 250.767 73.1606 250.787C73.303 250.807 72.2049 262.592 70.7103 277.131C69.2156 291.671 67.8735 303.425 67.7312 303.414Z" fill="#263238"/>
<path d="M87.7728 253.41C84.0972 253.763 80.3963 253.763 76.7207 253.41C80.3957 253.044 84.0979 253.044 87.7728 253.41Z" fill="#263238"/>
<path d="M134.787 253.41C134.787 253.553 124.934 253.675 112.774 253.675C100.614 253.675 90.7715 253.553 90.7715 253.41C90.7715 253.268 100.624 253.136 112.774 253.136C124.924 253.136 134.787 253.258 134.787 253.41Z" fill="url(#paint6_linear_526_2383)"/>
<path d="M86.4721 281.27C82.7964 281.622 79.0955 281.622 75.4199 281.27C79.0955 280.917 82.7964 280.917 86.4721 281.27Z" fill="#263238"/>
<path d="M133.486 281.27C133.486 281.412 123.624 281.534 111.473 281.534C99.3231 281.534 89.4707 281.412 89.4707 281.27C89.4707 281.127 99.3231 281.005 111.473 281.005C123.624 281.005 133.486 281.127 133.486 281.27Z" fill="url(#paint7_linear_526_2383)"/>
<path d="M118.488 294.111C118.488 294.264 108.636 294.376 96.4854 294.376C84.3352 294.376 74.4727 294.264 74.4727 294.111C74.4727 293.959 84.325 293.847 96.4854 293.847C108.646 293.847 118.488 293.969 118.488 294.111Z" fill="url(#paint8_linear_526_2383)"/>
<path d="M92.6419 261.229C87.4658 261.582 82.2718 261.582 77.0957 261.229C82.2718 260.877 87.4658 260.877 92.6419 261.229Z" fill="url(#paint9_linear_526_2383)"/>
<path d="M92.2454 272.8C87.0698 273.166 81.8748 273.166 76.6992 272.8C81.8753 272.448 87.0693 272.448 92.2454 272.8Z" fill="url(#paint10_linear_526_2383)"/>
<path d="M105.392 289.292C100.216 289.644 95.0218 289.644 89.8457 289.292C95.0218 288.939 100.216 288.939 105.392 289.292Z" fill="url(#paint11_linear_526_2383)"/>
<path d="M149.195 261.229C149.195 261.382 140.309 261.494 129.338 261.494C118.367 261.494 109.48 261.382 109.48 261.229C109.48 261.077 118.367 260.965 129.338 260.965C140.309 260.965 149.195 261.128 149.195 261.229Z" fill="#263238"/>
<path d="M136.943 273.43C136.943 273.583 128.046 273.695 117.086 273.695C106.125 273.695 97.2285 273.583 97.2285 273.43C97.2285 273.278 106.115 273.166 117.086 273.166C128.057 273.166 136.943 273.329 136.943 273.43Z" fill="#263238"/>
<path d="M150.607 289.292C150.607 289.434 141.71 289.556 130.75 289.556C119.789 289.556 110.893 289.434 110.893 289.292C110.893 289.149 119.779 289.027 130.75 289.027C141.721 289.027 150.607 289.139 150.607 289.292Z" fill="#263238"/>
<path d="M114.349 303.415C114.349 303.557 105.463 303.679 94.492 303.679C83.5212 303.679 74.6348 303.557 74.6348 303.415C74.6348 303.272 83.5314 303.15 94.492 303.15C105.453 303.15 114.349 303.272 114.349 303.415Z" fill="#263238"/>
<path d="M158.263 303.415C158.263 303.557 149.367 303.679 138.406 303.679C127.445 303.679 118.549 303.557 118.549 303.415C118.549 303.272 127.435 303.15 138.406 303.15C149.377 303.15 158.263 303.272 158.263 303.415Z" fill="#263238"/>
<path d="M114.349 308C114.349 308.142 105.463 308.264 94.492 308.264C83.5212 308.264 74.6348 308.142 74.6348 308C74.6348 307.858 83.5212 307.736 94.492 307.736C105.463 307.736 114.349 307.868 114.349 308Z" fill="#263238"/>
<path d="M116.271 264.585C116.271 264.727 107.385 264.849 96.4139 264.849C85.4431 264.849 76.5566 264.727 76.5566 264.585C76.5566 264.442 85.4431 264.32 96.4139 264.32C107.385 264.32 116.271 264.442 116.271 264.585Z" fill="#263238"/>
<path d="M105.678 261.311C102.277 261.663 98.8496 261.663 95.4492 261.311C98.8496 260.958 102.277 260.958 105.678 261.311Z" fill="#9A9A9A"/>
<path d="M85.17 285.052C81.7696 285.404 78.3418 285.404 74.9414 285.052C78.3418 284.699 81.7696 284.699 85.17 285.052Z" fill="#9A9A9A"/>
<path d="M84.9258 289.292C81.5254 289.644 78.0977 289.644 74.6973 289.292C78.0977 288.939 81.5254 288.939 84.9258 289.292Z" fill="#9A9A9A"/>
<path d="M173.556 246.456C173.556 246.608 148.808 246.72 118.275 246.72C87.742 246.72 62.9941 246.608 62.9941 246.456C62.9941 246.303 87.742 246.192 118.275 246.192C148.808 246.192 173.556 246.314 173.556 246.456Z" fill="#263238"/>
<path d="M71.758 242.724C71.758 242.984 71.6811 243.237 71.537 243.453C71.3928 243.669 71.188 243.837 70.9483 243.936C70.7086 244.035 70.4449 244.061 70.1905 244.011C69.9361 243.96 69.7024 243.835 69.5189 243.652C69.3355 243.468 69.2106 243.235 69.16 242.98C69.1094 242.726 69.1353 242.462 69.2346 242.222C69.3339 241.983 69.502 241.778 69.7177 241.634C69.9334 241.49 70.187 241.413 70.4464 241.413C70.619 241.411 70.7902 241.444 70.9499 241.51C71.1097 241.575 71.2548 241.672 71.3769 241.794C71.4989 241.916 71.5955 242.061 71.6609 242.221C71.7264 242.38 71.7593 242.552 71.758 242.724Z" fill="white"/>
<path d="M77.3811 242.724C77.3811 242.984 77.3041 243.237 77.16 243.453C77.0159 243.669 76.811 243.837 76.5714 243.936C76.3317 244.035 76.068 244.061 75.8135 244.011C75.5591 243.96 75.3254 243.835 75.142 243.652C74.9586 243.468 74.8336 243.235 74.783 242.98C74.7324 242.726 74.7584 242.462 74.8577 242.222C74.9569 241.983 75.125 241.778 75.3407 241.634C75.5564 241.49 75.81 241.413 76.0694 241.413C76.2421 241.411 76.4132 241.444 76.573 241.51C76.7327 241.575 76.8778 241.672 76.9999 241.794C77.122 241.916 77.2185 242.061 77.284 242.221C77.3494 242.38 77.3824 242.552 77.3811 242.724Z" fill="white"/>
<path d="M83.0139 242.724C83.0139 242.984 82.9369 243.237 82.7928 243.453C82.6487 243.669 82.4438 243.837 82.2042 243.936C81.9645 244.035 81.7008 244.061 81.4464 244.011C81.1919 243.96 80.9582 243.835 80.7748 243.652C80.5914 243.468 80.4664 243.235 80.4158 242.98C80.3652 242.726 80.3912 242.462 80.4905 242.222C80.5897 241.983 80.7579 241.778 80.9735 241.634C81.1892 241.49 81.4428 241.413 81.7023 241.413C81.8749 241.411 82.046 241.444 82.2058 241.51C82.3655 241.575 82.5107 241.672 82.6327 241.794C82.7548 241.916 82.8513 242.061 82.9168 242.221C82.9822 242.38 83.0152 242.552 83.0139 242.724Z" fill="white"/>
<path d="M277.628 178.69H164.352L172.73 98H286.962L277.628 178.69Z" fill="#263238"/>
<path d="M271.863 178.69H158.586L166.964 98H281.196L271.863 178.69Z" fill="#9A9A9A"/>
<path d="M267.653 175.04H162.551L170.319 100.166H276.316L267.653 175.04Z" fill="#FAFAFA"/>
<path d="M174.101 162.523C173.958 162.523 175.006 151.237 176.439 137.369C177.873 123.5 179.144 112.245 179.296 112.265C179.449 112.285 178.392 123.541 176.958 137.42C175.524 151.298 174.253 162.523 174.101 162.523Z" fill="#263238"/>
<path d="M193.247 114.736C189.738 115.088 186.203 115.088 182.693 114.736C186.203 114.383 189.738 114.383 193.247 114.736Z" fill="#263238"/>
<path d="M238.136 114.736C238.136 114.878 228.731 115 217.12 115C205.508 115 196.104 114.878 196.104 114.736C196.104 114.593 205.508 114.471 217.12 114.471C228.731 114.471 238.136 114.563 238.136 114.736Z" fill="url(#paint12_linear_526_2383)"/>
<path d="M191.995 141.324C188.486 141.676 184.951 141.676 181.441 141.324C184.951 140.971 188.486 140.971 191.995 141.324Z" fill="#263238"/>
<path d="M236.896 141.324C236.896 141.466 227.481 141.588 215.88 141.588C204.278 141.588 194.863 141.466 194.863 141.324C194.863 141.182 204.268 141.06 215.88 141.06C227.491 141.06 236.896 141.171 236.896 141.324Z" fill="url(#paint13_linear_526_2383)"/>
<path d="M222.58 153.586C222.58 153.728 213.164 153.85 201.563 153.85C189.962 153.85 180.547 153.728 180.547 153.586C180.547 153.444 189.952 153.322 201.563 153.322C213.175 153.322 222.58 153.444 222.58 153.586Z" fill="url(#paint14_linear_526_2383)"/>
<path d="M197.893 122.229C192.952 122.582 187.991 122.582 183.049 122.229C187.991 121.877 192.952 121.877 197.893 122.229Z" fill="url(#paint15_linear_526_2383)"/>
<path d="M197.516 133.241C192.575 133.593 187.614 133.593 182.672 133.241C187.614 132.888 192.575 132.888 197.516 133.241Z" fill="url(#paint16_linear_526_2383)"/>
<path d="M210.063 148.98C205.121 149.333 200.161 149.333 195.219 148.98C200.161 148.628 205.121 148.628 210.063 148.98Z" fill="url(#paint17_linear_526_2383)"/>
<path d="M251.894 122.229C251.894 122.372 243.404 122.494 232.931 122.494C222.459 122.494 213.969 122.372 213.969 122.229C213.969 122.087 222.448 121.965 232.931 121.965C243.414 121.965 251.894 122.077 251.894 122.229Z" fill="#263238"/>
<path d="M240.191 133.881C240.191 134.024 231.701 134.146 221.228 134.146C210.756 134.146 202.266 134.024 202.266 133.881C202.266 133.739 210.756 133.617 221.228 133.617C231.701 133.617 240.191 133.729 240.191 133.881Z" fill="#263238"/>
<path d="M253.245 148.98C253.245 149.123 244.755 149.245 234.283 149.245C223.81 149.245 215.32 149.123 215.32 148.98C215.32 148.838 223.81 148.716 234.283 148.716C244.755 148.716 253.245 148.828 253.245 148.98Z" fill="#263238"/>
<path d="M218.615 162.523C218.615 162.666 210.125 162.788 199.653 162.788C189.18 162.788 180.721 162.615 180.721 162.523C180.721 162.432 189.211 162.259 199.683 162.259C210.156 162.259 218.615 162.32 218.615 162.523Z" fill="#263238"/>
<path d="M260.556 162.523C260.556 162.666 252.066 162.788 241.593 162.788C231.121 162.788 222.631 162.666 222.631 162.523C222.631 162.381 231.121 162.259 241.593 162.259C252.066 162.259 260.556 162.32 260.556 162.523Z" fill="#263238"/>
<path d="M218.614 166.855C218.614 167.007 210.125 167.119 199.652 167.119C189.179 167.119 180.689 167.007 180.689 166.855C180.689 166.702 189.179 166.59 199.652 166.59C210.125 166.59 218.614 166.712 218.614 166.855Z" fill="#263238"/>
<path d="M220.454 125.391C220.454 125.534 211.964 125.656 201.492 125.656C191.019 125.656 182.529 125.534 182.529 125.391C182.529 125.249 191.019 125.127 201.492 125.127C211.964 125.127 220.454 125.239 220.454 125.391Z" fill="#263238"/>
<path d="M210.349 122.27C207.102 122.622 203.826 122.622 200.578 122.27C203.826 121.917 207.102 121.917 210.349 122.27Z" fill="#9A9A9A"/>
<path d="M190.755 144.933C187.508 145.286 184.232 145.286 180.984 144.933C184.232 144.581 187.508 144.581 190.755 144.933Z" fill="#9A9A9A"/>
<path d="M190.533 148.98C187.285 149.333 184.009 149.333 180.762 148.98C184.009 148.628 187.285 148.628 190.533 148.98Z" fill="#9A9A9A"/>
<path d="M275.158 108.076C275.158 108.229 251.528 108.351 222.378 108.351C193.228 108.351 169.537 108.229 169.537 108.076C169.537 107.923 193.167 107.812 222.337 107.812C251.508 107.812 275.158 107.934 275.158 108.076Z" fill="#263238"/>
<path d="M176.704 105.758C177.394 105.758 177.954 105.198 177.954 104.507C177.954 103.817 177.394 103.257 176.704 103.257C176.013 103.257 175.453 103.817 175.453 104.507C175.453 105.198 176.013 105.758 176.704 105.758Z" fill="white"/>
<path d="M182.073 105.758C182.764 105.758 183.323 105.198 183.323 104.507C183.323 103.817 182.764 103.257 182.073 103.257C181.382 103.257 180.822 103.817 180.822 104.507C180.822 105.198 181.382 105.758 182.073 105.758Z" fill="white"/>
<path d="M187.442 105.758C188.133 105.758 188.693 105.198 188.693 104.507C188.693 103.817 188.133 103.257 187.442 103.257C186.751 103.257 186.191 103.817 186.191 104.507C186.191 105.198 186.751 105.758 187.442 105.758Z" fill="white"/>
<defs>
<linearGradient id="paint0_linear_526_2383" x1="300.699" y1="323.451" x2="300.699" y2="323.98" gradientUnits="userSpaceOnUse">
<stop stop-color="#7454AE"/>
<stop offset="1" stop-color="#C152C5"/>
</linearGradient>
<linearGradient id="paint1_linear_526_2383" x1="299.459" y1="349.938" x2="299.459" y2="350.466" gradientUnits="userSpaceOnUse">
<stop stop-color="#7454AE"/>
<stop offset="1" stop-color="#C152C5"/>
</linearGradient>
<linearGradient id="paint2_linear_526_2383" x1="285.203" y1="362.149" x2="285.203" y2="362.678" gradientUnits="userSpaceOnUse">
<stop stop-color="#7454AE"/>
<stop offset="1" stop-color="#C152C5"/>
</linearGradient>
<linearGradient id="paint3_linear_526_2383" x1="274.206" y1="330.893" x2="274.206" y2="331.497" gradientUnits="userSpaceOnUse">
<stop stop-color="#7454AE"/>
<stop offset="1" stop-color="#C152C5"/>
</linearGradient>
<linearGradient id="paint4_linear_526_2383" x1="273.79" y1="341.86" x2="273.79" y2="342.455" gradientUnits="userSpaceOnUse">
<stop stop-color="#7454AE"/>
<stop offset="1" stop-color="#C152C5"/>
</linearGradient>
<linearGradient id="paint5_linear_526_2383" x1="286.286" y1="357.528" x2="286.286" y2="358.124" gradientUnits="userSpaceOnUse">
<stop stop-color="#7454AE"/>
<stop offset="1" stop-color="#C152C5"/>
</linearGradient>
<linearGradient id="paint6_linear_526_2383" x1="112.779" y1="253.136" x2="112.779" y2="253.675" gradientUnits="userSpaceOnUse">
<stop stop-color="#7454AE"/>
<stop offset="1" stop-color="#C152C5"/>
</linearGradient>
<linearGradient id="paint7_linear_526_2383" x1="111.478" y1="281.005" x2="111.478" y2="281.534" gradientUnits="userSpaceOnUse">
<stop stop-color="#7454AE"/>
<stop offset="1" stop-color="#C152C5"/>
</linearGradient>
<linearGradient id="paint8_linear_526_2383" x1="96.4803" y1="293.847" x2="96.4803" y2="294.376" gradientUnits="userSpaceOnUse">
<stop stop-color="#7454AE"/>
<stop offset="1" stop-color="#C152C5"/>
</linearGradient>
<linearGradient id="paint9_linear_526_2383" x1="84.8688" y1="260.965" x2="84.8688" y2="261.494" gradientUnits="userSpaceOnUse">
<stop stop-color="#7454AE"/>
<stop offset="1" stop-color="#C152C5"/>
</linearGradient>
<linearGradient id="paint10_linear_526_2383" x1="84.4723" y1="272.536" x2="84.4723" y2="273.075" gradientUnits="userSpaceOnUse">
<stop stop-color="#7454AE"/>
<stop offset="1" stop-color="#C152C5"/>
</linearGradient>
<linearGradient id="paint11_linear_526_2383" x1="97.6188" y1="289.027" x2="97.6188" y2="289.556" gradientUnits="userSpaceOnUse">
<stop stop-color="#7454AE"/>
<stop offset="1" stop-color="#C152C5"/>
</linearGradient>
<linearGradient id="paint12_linear_526_2383" x1="217.12" y1="114.471" x2="217.12" y2="115" gradientUnits="userSpaceOnUse">
<stop stop-color="#7454AE"/>
<stop offset="1" stop-color="#C152C5"/>
</linearGradient>
<linearGradient id="paint13_linear_526_2383" x1="215.88" y1="141.06" x2="215.88" y2="141.588" gradientUnits="userSpaceOnUse">
<stop stop-color="#7454AE"/>
<stop offset="1" stop-color="#C152C5"/>
</linearGradient>
<linearGradient id="paint14_linear_526_2383" x1="201.563" y1="153.322" x2="201.563" y2="153.85" gradientUnits="userSpaceOnUse">
<stop stop-color="#7454AE"/>
<stop offset="1" stop-color="#C152C5"/>
</linearGradient>
<linearGradient id="paint15_linear_526_2383" x1="190.471" y1="121.965" x2="190.471" y2="122.494" gradientUnits="userSpaceOnUse">
<stop stop-color="#7454AE"/>
<stop offset="1" stop-color="#C152C5"/>
</linearGradient>
<linearGradient id="paint16_linear_526_2383" x1="190.094" y1="132.976" x2="190.094" y2="133.505" gradientUnits="userSpaceOnUse">
<stop stop-color="#7454AE"/>
<stop offset="1" stop-color="#C152C5"/>
</linearGradient>
<linearGradient id="paint17_linear_526_2383" x1="202.641" y1="148.716" x2="202.641" y2="149.245" gradientUnits="userSpaceOnUse">
<stop stop-color="#7454AE"/>
<stop offset="1" stop-color="#C152C5"/>
</linearGradient>
</defs>
</svg>
