<svg width="318" height="346" viewBox="0 0 318 346" fill="none" xmlns="http://www.w3.org/2000/svg">
<path d="M317.286 111.109L305.001 345L149.366 336.835L150.671 312.042L161.65 102.925L259.647 108.07L317.286 111.109Z" fill="white"/>
<mask id="mask0_126_13591" style="mask-type:luminance" maskUnits="userSpaceOnUse" x="149" y="102" width="169" height="243">
<path d="M317.286 111.109L305.001 345L149.366 336.835L150.671 312.042L161.65 102.925L259.647 108.07L317.286 111.109Z" fill="white"/>
</mask>
<g mask="url(#mask0_126_13591)">
<path opacity="0.2" d="M268.707 248.14L233.643 251.03L243.877 295.191L150.671 312.042L161.651 102.925L259.648 108.07L268.707 248.14Z" fill="#263238" fill-opacity="0.7"/>
</g>
<path d="M317.286 111.109L305.001 345L149.366 336.835L150.671 312.042L161.65 102.925L259.647 108.07L317.286 111.109Z" stroke="#263238" stroke-linecap="round" stroke-linejoin="round"/>
<path d="M172.63 118.919L213.137 121.044" stroke="#263238" stroke-width="2" stroke-linecap="round" stroke-linejoin="round"/>
<path d="M172.22 126.692L199.771 128.146" stroke="#263238" stroke-width="2" stroke-linecap="round" stroke-linejoin="round"/>
<path d="M181.13 145.576L297.638 151.69" stroke="#263238" stroke-width="2" stroke-linecap="round" stroke-linejoin="round"/>
<path d="M180.72 153.349L297.228 159.464" stroke="#263238" stroke-width="2" stroke-linecap="round" stroke-linejoin="round"/>
<path d="M180.254 162.428L279.612 167.629" stroke="#263238" stroke-width="2" stroke-linecap="round" stroke-linejoin="round"/>
<path d="M180.295 170.709L179.796 180.184L189.272 180.682L189.77 171.207L180.295 170.709Z" stroke="#263238" stroke-linecap="round" stroke-linejoin="round"/>
<path d="M197.469 171.618L196.971 181.094L206.446 181.592L206.945 172.116L197.469 171.618Z" stroke="#263238" stroke-linecap="round" stroke-linejoin="round"/>
<path d="M214.624 172.529L214.126 182.004L223.601 182.502L224.1 173.027L214.624 172.529Z" stroke="#263238" stroke-linecap="round" stroke-linejoin="round"/>
<path d="M231.798 173.438L231.3 182.914L240.775 183.412L241.273 173.937L231.798 173.438Z" stroke="#263238" stroke-linecap="round" stroke-linejoin="round"/>
<path d="M174.924 145.241C174.912 145.549 174.839 145.853 174.71 146.133C174.58 146.414 174.397 146.666 174.17 146.875C173.943 147.085 173.677 147.248 173.388 147.354C173.098 147.461 172.79 147.509 172.481 147.497C171.853 147.465 171.264 147.184 170.842 146.718C170.421 146.251 170.202 145.636 170.235 145.008C170.267 144.38 170.547 143.79 171.014 143.369C171.481 142.948 172.096 142.729 172.724 142.761C173.032 142.776 173.335 142.851 173.615 142.982C173.894 143.114 174.145 143.299 174.353 143.528C174.561 143.756 174.721 144.024 174.826 144.314C174.93 144.605 174.976 144.914 174.961 145.222L174.924 145.241Z" fill="#263238"/>
<path d="M178.744 190.93L295.252 197.044" stroke="#263238" stroke-width="2" stroke-linecap="round" stroke-linejoin="round"/>
<path d="M178.334 198.704L294.842 204.818" stroke="#263238" stroke-width="2" stroke-linecap="round" stroke-linejoin="round"/>
<path d="M177.868 207.782L277.225 212.983" stroke="#263238" stroke-width="2" stroke-linecap="round" stroke-linejoin="round"/>
<path d="M177.888 216.093L177.39 225.568L186.865 226.066L187.364 216.591L177.888 216.093Z" stroke="#263238" stroke-linecap="round" stroke-linejoin="round"/>
<path d="M195.081 216.983L194.583 226.458L204.058 226.957L204.557 217.481L195.081 216.983Z" stroke="#263238" stroke-linecap="round" stroke-linejoin="round"/>
<path d="M212.237 217.875L211.738 227.35L221.214 227.849L221.712 218.373L212.237 217.875Z" stroke="#263238" stroke-linecap="round" stroke-linejoin="round"/>
<path d="M229.392 218.784L228.894 228.26L238.369 228.758L238.868 219.283L229.392 218.784Z" stroke="#263238" stroke-linecap="round" stroke-linejoin="round"/>
<path d="M172.557 190.595C172.542 190.906 172.467 191.211 172.334 191.493C172.202 191.775 172.015 192.028 171.785 192.237C171.554 192.447 171.285 192.609 170.992 192.714C170.699 192.82 170.388 192.866 170.077 192.851C169.606 192.828 169.152 192.667 168.772 192.386C168.393 192.106 168.105 191.719 167.946 191.275C167.786 190.831 167.761 190.35 167.875 189.892C167.989 189.434 168.236 189.02 168.585 188.703C168.933 188.385 169.369 188.178 169.835 188.108C170.302 188.037 170.778 188.107 171.206 188.307C171.633 188.508 171.991 188.83 172.234 189.234C172.478 189.638 172.597 190.105 172.575 190.576L172.557 190.595Z" fill="#263238"/>
<path d="M176.377 236.284L292.866 242.399" stroke="#263238" stroke-width="2" stroke-linecap="round" stroke-linejoin="round"/>
<path d="M175.967 244.058L292.456 250.172" stroke="#263238" stroke-width="2" stroke-linecap="round" stroke-linejoin="round"/>
<path d="M175.482 253.117L274.84 258.337" stroke="#263238" stroke-width="2" stroke-linecap="round" stroke-linejoin="round"/>
<path d="M175.52 261.419L175.022 270.894L184.497 271.393L184.996 261.917L175.52 261.419Z" stroke="#263238" stroke-linecap="round" stroke-linejoin="round"/>
<path d="M194.705 262.272L194.23 271.767L203.726 272.241L204.2 262.746L194.705 262.272Z" stroke="#263238" stroke-width="1.00125" stroke-linecap="round" stroke-linejoin="round"/>
<path d="M209.849 263.24L209.351 272.715L218.826 273.214L219.325 263.738L209.849 263.24Z" stroke="#263238" stroke-linecap="round" stroke-linejoin="round"/>
<path d="M227.043 264.13L226.545 273.605L236.02 274.103L236.518 264.628L227.043 264.13Z" stroke="#263238" stroke-linecap="round" stroke-linejoin="round"/>
<path d="M170.17 235.949C170.156 236.26 170.08 236.566 169.948 236.847C169.815 237.129 169.628 237.382 169.398 237.592C169.168 237.801 168.898 237.963 168.605 238.069C168.312 238.174 168.001 238.22 167.69 238.205C167.057 238.205 166.45 237.954 166.003 237.506C165.555 237.059 165.304 236.452 165.304 235.819C165.304 235.186 165.555 234.579 166.003 234.131C166.45 233.684 167.057 233.432 167.69 233.432H168.026C168.337 233.447 168.642 233.522 168.924 233.655C169.206 233.787 169.459 233.974 169.668 234.204C169.878 234.435 170.04 234.704 170.145 234.997C170.25 235.29 170.297 235.601 170.282 235.912L170.17 235.949Z" fill="#263238"/>
<path d="M173.916 282.925L290.405 289.058" stroke="#263238" stroke-width="2" stroke-linecap="round" stroke-linejoin="round"/>
<path d="M173.506 290.698L290.014 296.831" stroke="#263238" stroke-width="2" stroke-linecap="round" stroke-linejoin="round"/>
<path d="M173.04 299.776L272.398 304.996" stroke="#263238" stroke-width="2" stroke-linecap="round" stroke-linejoin="round"/>
<path d="M173.051 308.083L172.553 317.558L182.028 318.056L182.526 308.581L173.051 308.083Z" stroke="#263238" stroke-linecap="round" stroke-linejoin="round"/>
<path d="M190.247 308.974L189.749 318.449L199.224 318.947L199.722 309.472L190.247 308.974Z" stroke="#263238" stroke-linecap="round" stroke-linejoin="round"/>
<path d="M207.439 309.866L206.941 319.341L216.416 319.839L216.914 310.364L207.439 309.866Z" stroke="#263238" stroke-linecap="round" stroke-linejoin="round"/>
<path d="M224.595 310.795L224.097 320.27L233.572 320.768L234.07 311.293L224.595 310.795Z" stroke="#263238" stroke-linecap="round" stroke-linejoin="round"/>
<path d="M167.709 282.608C167.683 283.075 167.519 283.524 167.237 283.898C166.956 284.272 166.57 284.554 166.128 284.709C165.686 284.864 165.209 284.884 164.755 284.767C164.302 284.651 163.894 284.403 163.581 284.054C163.269 283.705 163.067 283.272 163.001 282.809C162.935 282.345 163.008 281.873 163.21 281.451C163.412 281.029 163.735 280.676 164.138 280.437C164.54 280.199 165.005 280.085 165.472 280.11C165.783 280.127 166.088 280.204 166.369 280.339C166.65 280.474 166.901 280.663 167.109 280.895C167.317 281.127 167.477 281.398 167.58 281.692C167.683 281.986 167.727 282.297 167.709 282.608Z" fill="#263238"/>
<path d="M183.516 174.656L184.746 176.781L189.798 171.208" stroke="#263238" stroke-width="2" stroke-linecap="round" stroke-linejoin="round"/>
<path d="M215.505 221.241L216.735 223.366L221.787 217.792" stroke="#263238" stroke-width="2" stroke-linecap="round" stroke-linejoin="round"/>
<path d="M231.555 269.112L232.785 271.237L237.837 265.644" stroke="#263238" stroke-width="2" stroke-linecap="round" stroke-linejoin="round"/>
<path d="M193.527 311.837L194.757 313.944L199.809 308.37" stroke="#263238" stroke-width="2" stroke-linecap="round" stroke-linejoin="round"/>
<path d="M213.864 278.805L63.7091 320.543L1 94.8534L63.1685 77.5729L151.155 53.1343L208.048 257.89L213.864 278.805Z" fill="white"/>
<mask id="mask1_126_13591" style="mask-type:luminance" maskUnits="userSpaceOnUse" x="1" y="53" width="213" height="268">
<path d="M213.864 278.805L63.7091 320.543L1 94.8534L63.1685 77.5729L151.155 53.1343L208.048 257.89L213.864 278.805Z" fill="white"/>
</mask>
<g mask="url(#mask1_126_13591)">
<path opacity="0.2" d="M208.048 257.89L91.9505 265.402L63.1685 77.5729L151.155 53.1343L208.048 257.89Z" fill="#263238" fill-opacity="0.7"/>
</g>
<path d="M213.864 278.805L63.7091 320.543L1 94.8534L63.1685 77.5729L151.155 53.1343L208.048 257.89L213.864 278.805Z" stroke="#263238" stroke-linecap="round" stroke-linejoin="round"/>
<path d="M16.5093 106.523L55.5813 95.6733" stroke="#263238" stroke-width="2" stroke-linecap="round" stroke-linejoin="round"/>
<path d="M18.5786 114.035L45.161 106.653" stroke="#263238" stroke-width="2" stroke-linecap="round" stroke-linejoin="round"/>
<path d="M33.0259 129.097L145.433 97.873" stroke="#263238" stroke-width="2" stroke-linecap="round" stroke-linejoin="round"/>
<path d="M35.1138 136.591L147.52 105.367" stroke="#263238" stroke-width="2" stroke-linecap="round" stroke-linejoin="round"/>
<path d="M37.5366 145.352L133.409 118.714" stroke="#263238" stroke-width="2" stroke-linecap="round" stroke-linejoin="round"/>
<path d="M49.3837 150.655L40.2417 153.196L42.7821 162.338L51.9241 159.797L49.3837 150.655Z" stroke="#263238" stroke-linecap="round" stroke-linejoin="round"/>
<path d="M65.9584 146.033L56.8164 148.573L59.3569 157.715L68.4988 155.175L65.9584 146.033Z" stroke="#263238" stroke-linecap="round" stroke-linejoin="round"/>
<path d="M82.537 141.423L73.395 143.964L75.9355 153.106L85.0774 150.565L82.537 141.423Z" stroke="#263238" stroke-linecap="round" stroke-linejoin="round"/>
<path d="M99.0863 136.828L89.9443 139.369L92.4848 148.511L101.627 145.97L99.0863 136.828Z" stroke="#263238" stroke-linecap="round" stroke-linejoin="round"/>
<path d="M27.0424 130.757C27.2106 131.362 27.1312 132.01 26.8217 132.557C26.5123 133.105 25.9981 133.506 25.3924 133.675C24.7867 133.843 24.1389 133.763 23.5917 133.454C23.0445 133.144 22.6426 132.63 22.4745 132.024C22.3064 131.419 22.3858 130.771 22.6952 130.224C23.0047 129.677 23.5188 129.275 24.1246 129.107C24.7303 128.938 25.378 129.018 25.9252 129.327C26.4724 129.637 26.8743 130.151 27.0424 130.757Z" fill="#263238"/>
<path d="M45.1797 172.848L157.586 141.624" stroke="#263238" stroke-width="2" stroke-linecap="round" stroke-linejoin="round"/>
<path d="M47.2676 180.361L159.674 149.118" stroke="#263238" stroke-width="2" stroke-linecap="round" stroke-linejoin="round"/>
<path d="M49.7095 189.103L145.563 162.465" stroke="#263238" stroke-width="2" stroke-linecap="round" stroke-linejoin="round"/>
<path d="M61.5477 194.397L52.4058 196.937L54.9462 206.079L64.0882 203.539L61.5477 194.397Z" stroke="#263238" stroke-linecap="round" stroke-linejoin="round"/>
<path d="M78.1097 189.797L68.9678 192.337L71.5082 201.479L80.6502 198.939L78.1097 189.797Z" stroke="#263238" stroke-linecap="round" stroke-linejoin="round"/>
<path d="M94.6894 185.192L85.5474 187.733L88.0878 196.875L97.2298 194.334L94.6894 185.192Z" stroke="#263238" stroke-linecap="round" stroke-linejoin="round"/>
<path d="M111.282 180.565L102.14 183.105L104.681 192.247L113.823 189.707L111.282 180.565Z" stroke="#263238" stroke-linecap="round" stroke-linejoin="round"/>
<path d="M39.2154 174.526C39.3415 174.981 39.3301 175.462 39.1827 175.91C39.0352 176.358 38.7583 176.753 38.3869 177.043C38.0156 177.334 37.5664 177.508 37.0961 177.544C36.6258 177.58 36.1555 177.475 35.7445 177.244C35.3336 177.012 35.0005 176.664 34.7872 176.243C34.5739 175.823 34.4901 175.348 34.5463 174.88C34.6025 174.412 34.7962 173.971 35.1029 173.612C35.4096 173.254 35.8156 172.995 36.2696 172.867C36.5695 172.782 36.8833 172.757 37.193 172.793C37.5026 172.83 37.802 172.927 38.074 173.079C38.346 173.232 38.5852 173.436 38.7779 173.681C38.9705 173.927 39.1129 174.207 39.1968 174.508L39.2154 174.526Z" fill="#263238"/>
<path d="M57.3525 216.618L169.741 185.375" stroke="#263238" stroke-width="2" stroke-linecap="round" stroke-linejoin="round"/>
<path d="M59.4399 224.112L171.828 192.888" stroke="#263238" stroke-width="2" stroke-linecap="round" stroke-linejoin="round"/>
<path d="M61.8638 232.873L157.736 206.235" stroke="#263238" stroke-width="2" stroke-linecap="round" stroke-linejoin="round"/>
<path d="M73.6952 238.148L64.5532 240.688L67.0937 249.83L76.2356 247.29L73.6952 238.148Z" stroke="#263238" stroke-linecap="round" stroke-linejoin="round"/>
<path d="M90.2929 233.538L81.1509 236.079L83.6913 245.221L92.8333 242.68L90.2929 233.538Z" stroke="#263238" stroke-linecap="round" stroke-linejoin="round"/>
<path d="M106.836 228.939L97.6938 231.479L100.234 240.621L109.376 238.081L106.836 228.939Z" stroke="#263238" stroke-linecap="round" stroke-linejoin="round"/>
<path d="M123.415 224.334L114.273 226.875L116.814 236.017L125.956 233.476L123.415 224.334Z" stroke="#263238" stroke-linecap="round" stroke-linejoin="round"/>
<path d="M51.3692 218.277C51.4953 218.732 51.4839 219.213 51.3365 219.661C51.189 220.109 50.9121 220.504 50.5407 220.794C50.1694 221.085 49.7202 221.259 49.2499 221.295C48.7796 221.331 48.3093 221.226 47.8983 220.995C47.4874 220.763 47.1543 220.415 46.941 219.994C46.7278 219.574 46.6439 219.099 46.7001 218.631C46.7563 218.163 46.9499 217.722 47.2567 217.363C47.5634 217.005 47.9694 216.746 48.4234 216.618C48.7233 216.533 49.0371 216.508 49.3468 216.544C49.6564 216.58 49.9558 216.678 50.2278 216.83C50.4998 216.983 50.739 217.187 50.9317 217.432C51.1243 217.678 51.2667 217.958 51.3506 218.259L51.3692 218.277Z" fill="#263238"/>
<path d="M69.8608 261.618L182.249 230.394" stroke="#263238" stroke-width="2" stroke-linecap="round" stroke-linejoin="round"/>
<path d="M71.9302 269.13L184.337 237.887" stroke="#263238" stroke-width="2" stroke-linecap="round" stroke-linejoin="round"/>
<path d="M74.3721 277.873L170.244 251.235" stroke="#263238" stroke-width="2" stroke-linecap="round" stroke-linejoin="round"/>
<path d="M86.2055 283.17L77.0635 285.71L79.6039 294.852L88.7459 292.311L86.2055 283.17Z" stroke="#263238" stroke-linecap="round" stroke-linejoin="round"/>
<path d="M102.785 278.56L93.6426 281.101L96.183 290.243L105.325 287.702L102.785 278.56Z" stroke="#263238" stroke-linecap="round" stroke-linejoin="round"/>
<path d="M119.364 273.956L110.222 276.496L112.762 285.638L121.904 283.098L119.364 273.956Z" stroke="#263238" stroke-linecap="round" stroke-linejoin="round"/>
<path d="M135.926 269.356L126.784 271.896L129.324 281.038L138.466 278.498L135.926 269.356Z" stroke="#263238" stroke-linecap="round" stroke-linejoin="round"/>
<path d="M63.8778 263.277C64.0534 263.885 63.9801 264.538 63.6741 265.093C63.3682 265.647 62.8546 266.057 62.2464 266.232C61.6382 266.408 60.9852 266.335 60.431 266.029C59.8768 265.723 59.4668 265.209 59.2913 264.601C59.1183 263.99 59.1937 263.336 59.501 262.781C59.8083 262.225 60.3227 261.814 60.932 261.636C61.5351 261.469 62.18 261.545 62.7275 261.848C63.2751 262.152 63.6815 262.658 63.8592 263.259L63.8778 263.277Z" fill="#263238"/>
<path d="M60.1299 151.56L61.9754 153.182L64.9952 146.284" stroke="#263238" stroke-width="2" stroke-linecap="round" stroke-linejoin="round"/>
<path d="M55.6377 200.381L57.4832 202.003L60.4844 195.106" stroke="#263238" stroke-width="2" stroke-linecap="round" stroke-linejoin="round"/>
<path d="M67.7915 243.685L69.637 245.307L72.6382 238.409" stroke="#263238" stroke-width="2" stroke-linecap="round" stroke-linejoin="round"/>
<path d="M113.407 279.159L115.252 280.781L118.272 273.884" stroke="#263238" stroke-width="2" stroke-linecap="round" stroke-linejoin="round"/>
<path d="M228.528 1.00007L73.4019 15.9097L95.8108 249.062L250.937 234.153L228.528 1.00007Z" fill="white" stroke="#263238" stroke-linecap="round" stroke-linejoin="round"/>
<path d="M86.6191 30.131L126.996 26.2537" stroke="#263238" stroke-width="2" stroke-linecap="round" stroke-linejoin="round"/>
<path d="M87.3647 37.8856L114.823 35.2385" stroke="#263238" stroke-width="2" stroke-linecap="round" stroke-linejoin="round"/>
<path d="M98.96 55.2406L215.076 44.0745" stroke="#263238" stroke-width="2" stroke-linecap="round" stroke-linejoin="round"/>
<path d="M99.7056 62.9768L215.822 51.8293" stroke="#263238" stroke-width="2" stroke-linecap="round" stroke-linejoin="round"/>
<path d="M100.582 72.0178L199.622 62.5107" stroke="#263238" stroke-width="2" stroke-linecap="round" stroke-linejoin="round"/>
<path d="M111.332 79.2885L101.887 80.1963L102.795 89.6411L112.24 88.7334L111.332 79.2885Z" stroke="#263238" stroke-linecap="round" stroke-linejoin="round"/>
<path d="M128.452 77.6384L119.007 78.5461L119.915 87.991L129.359 87.0832L128.452 77.6384Z" stroke="#263238" stroke-linecap="round" stroke-linejoin="round"/>
<path d="M145.571 76.0087L136.126 76.9165L137.034 86.3614L146.479 85.4536L145.571 76.0087Z" stroke="#263238" stroke-linecap="round" stroke-linejoin="round"/>
<path d="M162.689 74.3417L153.244 75.2495L154.151 84.6944L163.596 83.7866L162.689 74.3417Z" stroke="#263238" stroke-linecap="round" stroke-linejoin="round"/>
<path d="M92.7901 55.8377C92.8357 56.3073 92.7412 56.7799 92.5183 57.1958C92.2954 57.6117 91.9543 57.9521 91.5379 58.1742C91.1216 58.3962 90.6488 58.4899 90.1793 58.4433C89.7098 58.3968 89.2646 58.2121 88.9 57.9126C88.5354 57.6131 88.2678 57.2123 88.1309 56.7607C87.9941 56.3092 87.9941 55.8272 88.1311 55.3757C88.2681 54.9242 88.5358 54.5234 88.9004 54.224C89.2651 53.9246 89.7104 53.74 90.1799 53.6936C90.4897 53.6627 90.8025 53.6932 91.1005 53.7833C91.3985 53.8734 91.6757 54.0215 91.9164 54.2189C92.1572 54.4163 92.3566 54.6592 92.5033 54.9338C92.65 55.2084 92.7411 55.5092 92.7715 55.819L92.7901 55.8377Z" fill="#263238"/>
<path d="M103.303 100.446L219.419 89.2981" stroke="#263238" stroke-width="2" stroke-linecap="round" stroke-linejoin="round"/>
<path d="M104.049 108.2L220.165 97.0342" stroke="#263238" stroke-width="2" stroke-linecap="round" stroke-linejoin="round"/>
<path d="M104.925 117.241L203.966 107.716" stroke="#263238" stroke-width="2" stroke-linecap="round" stroke-linejoin="round"/>
<path d="M115.674 124.486L106.229 125.394L107.137 134.838L116.582 133.931L115.674 124.486Z" stroke="#263238" stroke-linecap="round" stroke-linejoin="round"/>
<path d="M132.793 122.854L123.349 123.762L124.256 133.207L133.701 132.299L132.793 122.854Z" stroke="#263238" stroke-linecap="round" stroke-linejoin="round"/>
<path d="M149.913 121.206L140.468 122.114L141.376 131.558L150.821 130.651L149.913 121.206Z" stroke="#263238" stroke-linecap="round" stroke-linejoin="round"/>
<path d="M167.035 119.595L157.59 120.502L158.498 129.947L167.942 129.04L167.035 119.595Z" stroke="#263238" stroke-linecap="round" stroke-linejoin="round"/>
<path d="M97.1339 101.043C97.1795 101.512 97.0849 101.985 96.862 102.401C96.6392 102.817 96.298 103.157 95.8817 103.379C95.4654 103.601 94.9926 103.695 94.5231 103.648C94.0535 103.602 93.6083 103.417 93.2438 103.118C92.8792 102.818 92.6115 102.417 92.4747 101.966C92.3378 101.514 92.3379 101.032 92.4748 100.581C92.6118 100.129 92.8795 99.7284 93.2442 99.429C93.6089 99.1296 94.0541 98.945 94.5237 98.8986C94.8359 98.8677 95.1511 98.8987 95.4514 98.9897C95.7516 99.0808 96.0309 99.2302 96.2734 99.4294C96.5158 99.6285 96.7166 99.8735 96.8643 100.15C97.0119 100.427 97.1035 100.73 97.1339 101.043Z" fill="#263238"/>
<path d="M107.646 145.651L223.763 134.503" stroke="#263238" stroke-width="2" stroke-linecap="round" stroke-linejoin="round"/>
<path d="M108.392 153.405L224.508 142.239" stroke="#263238" stroke-width="2" stroke-linecap="round" stroke-linejoin="round"/>
<path d="M109.269 162.447L208.309 152.921" stroke="#263238" stroke-width="2" stroke-linecap="round" stroke-linejoin="round"/>
<path d="M120.016 169.702L110.571 170.609L111.479 180.054L120.924 179.146L120.016 169.702Z" stroke="#263238" stroke-linecap="round" stroke-linejoin="round"/>
<path d="M137.136 168.053L127.691 168.961L128.599 178.406L138.044 177.498L137.136 168.053Z" stroke="#263238" stroke-linecap="round" stroke-linejoin="round"/>
<path d="M154.255 166.422L144.811 167.33L145.718 176.774L155.163 175.867L154.255 166.422Z" stroke="#263238" stroke-linecap="round" stroke-linejoin="round"/>
<path d="M171.375 164.774L161.93 165.681L162.838 175.126L172.283 174.218L171.375 164.774Z" stroke="#263238" stroke-linecap="round" stroke-linejoin="round"/>
<path d="M101.458 146.247C101.501 146.714 101.404 147.182 101.18 147.593C100.956 148.005 100.615 148.34 100.201 148.558C99.7859 148.776 99.3161 148.865 98.8504 148.816C98.3847 148.767 97.9442 148.58 97.5844 148.28C97.2247 147.981 96.9619 147.581 96.8293 147.132C96.6967 146.683 96.7003 146.204 96.8395 145.757C96.9788 145.31 97.2475 144.914 97.6117 144.62C97.9759 144.326 98.4192 144.146 98.8855 144.103C99.1952 144.075 99.5075 144.108 99.8044 144.201C100.101 144.293 100.377 144.443 100.616 144.642C100.855 144.841 101.052 145.086 101.197 145.361C101.341 145.636 101.43 145.938 101.458 146.247Z" fill="#263238"/>
<path d="M112.121 192.16L228.237 180.994" stroke="#263238" stroke-width="2" stroke-linecap="round" stroke-linejoin="round"/>
<path d="M112.866 199.896L228.982 188.749" stroke="#263238" stroke-width="2" stroke-linecap="round" stroke-linejoin="round"/>
<path d="M113.724 208.938L212.765 199.431" stroke="#263238" stroke-width="2" stroke-linecap="round" stroke-linejoin="round"/>
<path d="M124.483 216.204L115.038 217.112L115.946 226.556L125.391 225.649L124.483 216.204Z" stroke="#263238" stroke-linecap="round" stroke-linejoin="round"/>
<path d="M141.621 214.572L132.176 215.48L133.084 224.925L142.529 224.017L141.621 214.572Z" stroke="#263238" stroke-linecap="round" stroke-linejoin="round"/>
<path d="M158.72 212.907L149.275 213.815L150.183 223.26L159.628 222.352L158.72 212.907Z" stroke="#263238" stroke-linecap="round" stroke-linejoin="round"/>
<path d="M175.839 211.257L166.395 212.165L167.302 221.61L176.747 220.702L175.839 211.257Z" stroke="#263238" stroke-linecap="round" stroke-linejoin="round"/>
<path d="M105.933 192.739C105.982 193.209 105.891 193.684 105.67 194.103C105.449 194.522 105.109 194.865 104.692 195.09C104.276 195.315 103.801 195.411 103.33 195.365C102.859 195.32 102.412 195.135 102.046 194.835C101.68 194.535 101.411 194.132 101.275 193.679C101.138 193.226 101.139 192.742 101.278 192.29C101.417 191.837 101.687 191.436 102.054 191.138C102.422 190.839 102.87 190.657 103.341 190.613C103.651 190.582 103.964 190.613 104.262 190.703C104.56 190.793 104.837 190.941 105.078 191.139C105.318 191.336 105.518 191.579 105.664 191.853C105.811 192.128 105.902 192.429 105.933 192.739Z" fill="#263238"/>
<path d="M105.615 83.6498L107.143 85.5699L111.319 79.3064" stroke="#263238" stroke-width="2" stroke-linecap="round" stroke-linejoin="round"/>
<path d="M144.146 124.996L145.675 126.916L149.832 120.653" stroke="#263238" stroke-width="2" stroke-linecap="round" stroke-linejoin="round"/>
<path d="M131.452 172.792L132.98 174.712L137.156 168.449" stroke="#263238" stroke-width="2" stroke-linecap="round" stroke-linejoin="round"/>
<path d="M169.908 215.649L171.437 217.569L175.612 211.305" stroke="#263238" stroke-width="2" stroke-linecap="round" stroke-linejoin="round"/>
</svg>
