<svg width="30" height="26" viewBox="0 0 30 26" fill="none" xmlns="http://www.w3.org/2000/svg">
<path d="M27.6758 6.24219C27.2695 7.96875 23.6133 13.1484 23.6133 13.1484C23.3086 13.6562 23.1562 13.9102 23.6133 14.4688C23.8164 14.7227 27.625 18.3789 28.1836 20.1055C28.4375 20.9688 28.0312 21.375 27.168 21.375H24.1719C23.0547 21.375 22.6992 20.5117 20.668 18.4805C18.8906 16.7539 18.1289 16.5 17.6719 16.5C16.7578 16.5 16.9102 16.8555 16.9102 20.2578C16.9102 20.9688 16.6562 21.375 14.7773 21.375C11.6289 21.375 8.125 19.4961 5.63672 15.9414C1.92969 10.7109 0.914062 6.80078 0.914062 5.98828C0.914062 5.53125 1.11719 5.125 1.92969 5.125H4.92578C5.6875 5.125 5.99219 5.48047 6.29688 6.29297C7.76953 10.5586 10.207 14.3164 11.2227 14.3164C11.6289 14.3164 11.7812 14.1133 11.7812 13.1484V8.73047C11.6797 6.69922 10.6133 6.54688 10.6133 5.83594C10.6133 5.48047 10.8672 5.125 11.375 5.125H16.0469C16.707 5.125 16.9102 5.48047 16.9102 6.24219V12.1836C16.9102 12.793 17.2148 13.0469 17.3672 13.0469C17.7734 13.0469 18.0781 12.793 18.7891 12.1328C20.9219 9.69531 22.4453 5.98828 22.4453 5.98828C22.6484 5.53125 23.0039 5.125 23.7656 5.125H26.7617C27.6758 5.125 27.8281 5.63281 27.6758 6.24219Z" fill="white"/>
</svg>
