<svg width="30" height="26" viewBox="0 0 30 26" fill="none" xmlns="http://www.w3.org/2000/svg">
<path d="M27.8789 6.59766C28.4883 8.73047 28.4883 13.3008 28.4883 13.3008C28.4883 13.3008 28.4883 17.8203 27.8789 20.0039C27.5742 21.2227 26.6094 22.1367 25.4414 22.4414C23.2578 23 14.625 23 14.625 23C14.625 23 5.94141 23 3.75781 22.4414C2.58984 22.1367 1.625 21.2227 1.32031 20.0039C0.710938 17.8203 0.710938 13.3008 0.710938 13.3008C0.710938 13.3008 0.710938 8.73047 1.32031 6.59766C1.625 5.37891 2.58984 4.41406 3.75781 4.10938C5.94141 3.5 14.625 3.5 14.625 3.5C14.625 3.5 23.2578 3.5 25.4414 4.10938C26.6094 4.41406 27.5742 5.37891 27.8789 6.59766ZM11.7812 17.4141L18.9922 13.3008L11.7812 9.1875V17.4141Z" fill="white"/>
</svg>
