<svg width="200" height="72" viewBox="0 0 200 72" fill="none" xmlns="http://www.w3.org/2000/svg">
<path d="M101.446 71.5499C100.836 71.5499 100.345 71.0589 100.345 70.4485C100.345 69.8381 100.836 69.3471 101.446 69.3471H170.74C178.211 69.3471 184.979 66.3217 189.875 61.4252C194.772 56.5287 197.797 49.7611 197.797 42.2903V39.8355C197.797 39.2251 198.288 38.7341 198.899 38.7341C199.509 38.7341 200 39.2251 200 39.8355V42.2903C200 50.3716 196.722 57.6964 191.428 62.991C186.133 68.2856 178.808 71.5632 170.727 71.5632H101.446V71.5499ZM98.5536 0.0132694C99.164 0.0132694 99.655 0.504246 99.655 1.11465C99.655 1.72505 99.164 2.21603 98.5536 2.21603H29.2596C21.7887 2.21603 15.0212 5.24151 10.1247 10.138C5.22824 15.0345 2.20276 21.802 2.20276 29.2728V31.7277C2.20276 32.3381 1.71178 32.8291 1.10138 32.8291C0.490977 32.8291 0 32.3381 0 31.7277V29.2728C0 21.1916 3.2776 13.8668 8.57219 8.57219C13.8668 3.2776 21.1916 0 29.2728 0H98.5536V0.0132694ZM40.5122 22.1072C44.2941 22.1072 47.439 23.4209 49.9735 26.0483C52.5212 28.6491 53.8084 31.9002 53.8084 35.7749C53.8084 39.663 52.5345 42.914 49.9735 45.5414C47.4522 48.1423 44.2941 49.4427 40.5122 49.4427H29.578V22.1072H40.5122ZM40.5122 43.4448C42.6752 43.4448 44.4135 42.7548 45.7537 41.3747C47.1072 39.9682 47.784 38.1104 47.784 35.7882C47.784 33.466 47.1072 31.6215 45.7537 30.2415C44.4267 28.8349 42.6752 28.1316 40.5122 28.1316H35.828V43.4448H40.5122ZM71.311 29.923H77.1762V49.4559H71.311V47.6247C69.931 49.2171 67.9936 50.0133 65.4857 50.0133C62.9114 50.0133 60.7086 49.018 58.8774 47.0409C57.0594 45.0372 56.1438 42.5823 56.1438 39.6895C56.1438 36.7967 57.0594 34.3684 58.8774 32.3779C60.6953 30.3742 62.8981 29.3657 65.4857 29.3657C67.9804 29.3657 69.931 30.1619 71.311 31.7542V29.923ZM63.2962 43.1661C64.1587 44.0287 65.2734 44.4533 66.6534 44.4533C68.0334 44.4533 69.1481 44.0287 70.0106 43.1661C70.8731 42.3036 71.2978 41.1492 71.2978 39.6895C71.2978 38.2298 70.8731 37.0754 70.0106 36.2128C69.1481 35.3503 68.0334 34.9257 66.6534 34.9257C65.2734 34.9257 64.1587 35.3503 63.2962 36.2128C62.4337 37.0754 62.009 38.2298 62.009 39.6895C62.009 41.1492 62.4337 42.3036 63.2962 43.1661ZM92.914 35.5494H88.8933V42.4628C88.8933 43.2458 89.2118 43.7367 89.8355 43.949C90.4591 44.1614 91.4942 44.2277 92.9273 44.1481V49.4559C89.1985 49.854 86.6242 49.4958 85.1911 48.3944C83.758 47.2797 83.0414 45.2893 83.0414 42.4496V35.5361H79.9098V29.923H83.0281V26.2075L88.8933 24.4559V29.923H92.914V35.5494ZM110.032 29.923H115.897V49.4559H110.032V47.6247C108.652 49.2171 106.714 50.0133 104.206 50.0133C101.632 50.0133 99.4294 49.018 97.5982 47.0409C95.7803 45.0372 94.8647 42.5823 94.8647 39.6895C94.8647 36.7967 95.7803 34.3684 97.5982 32.3779C99.4161 30.3742 101.619 29.3657 104.206 29.3657C106.701 29.3657 108.652 30.1619 110.032 31.7542V29.923ZM102.03 43.1661C102.893 44.0287 104.007 44.4533 105.387 44.4533C106.768 44.4533 107.882 44.0287 108.745 43.1661C109.607 42.3036 110.032 41.1492 110.032 39.6895C110.032 38.2298 109.607 37.0754 108.745 36.2128C107.882 35.3503 106.768 34.9257 105.387 34.9257C104.007 34.9257 102.893 35.3503 102.03 36.2128C101.168 37.0754 100.743 38.2298 100.743 39.6895C100.73 41.1492 101.168 42.3036 102.03 43.1661ZM126.645 43.4448H136.412V49.4559H120.395V22.1072H126.645V43.4448ZM139.159 22.1072H145.409V49.4559H139.159V22.1072ZM167.078 35.2707C169.321 36.7038 170.435 38.7606 170.435 41.4411C170.435 43.8163 169.586 45.7404 167.901 47.2266C166.202 48.7128 164.106 49.4559 161.611 49.4559H150.119V22.1072H160.828C163.283 22.1072 165.326 22.837 166.959 24.2967C168.631 25.7298 169.453 27.6008 169.453 29.923C169.453 32.1125 168.657 33.8907 167.078 35.2707ZM160.828 27.9724H156.369V32.8158H160.828C161.531 32.8158 162.102 32.5902 162.553 32.1523C162.991 31.6879 163.217 31.104 163.217 30.4007C163.217 29.6975 162.991 29.1269 162.553 28.6757C162.102 28.198 161.531 27.9724 160.828 27.9724ZM161.598 43.5908C162.381 43.5908 163.004 43.3519 163.469 42.8875C163.933 42.3965 164.172 41.7596 164.172 40.9766C164.172 40.1937 163.933 39.5701 163.469 39.1056C163.004 38.6147 162.381 38.3625 161.598 38.3625H156.356V43.5908H161.598Z" fill="#031E80"/>
</svg>
