<svg width="200" height="61" viewBox="0 0 200 61" fill="none" xmlns="http://www.w3.org/2000/svg">
<path fill-rule="evenodd" clip-rule="evenodd" d="M190.487 60.8067H9.51251C4.26014 60.8067 0 56.5466 0 51.2942V9.51251C0 4.26014 4.26014 0 9.51251 0H190.487C195.74 0 200 4.26014 200 9.51251V51.2942C200.011 56.5466 195.751 60.8067 190.487 60.8067Z" fill="#A53436"/>
<path d="M90.8218 29.26C91.4366 29.26 92.0406 29.2384 92.623 29.1953C93.2054 29.1522 93.7123 28.9041 94.1221 28.4727C94.6506 27.8903 94.9202 26.9951 94.9202 25.7872C94.9202 25.3774 94.8771 24.946 94.7908 24.5145C94.7045 24.0724 94.4564 23.6949 94.0466 23.3713C93.6368 23.0154 93.1622 22.8105 92.6122 22.7566C92.0729 22.7026 91.5013 22.6703 90.9189 22.6703H85.4185C85.0086 22.6703 84.6959 22.735 84.4694 22.8644C84.2537 22.9938 84.0811 23.1556 83.9625 23.3282C83.8439 23.5007 83.7684 23.6949 83.7468 23.8998C83.7144 24.1047 83.7036 24.2988 83.7036 24.4714V29.2708H90.8218V29.26ZM73.7382 45.8152V20.7937C73.7382 20.1466 73.8137 19.424 73.9539 18.6366C74.1049 17.8385 74.4392 17.1483 74.9677 16.5659C75.2912 16.1884 75.7873 15.8217 76.4668 15.4874C77.1463 15.153 78.0091 14.9805 79.066 14.9805H96.1066C97.3361 14.9805 98.5117 15.1099 99.6333 15.3579C100.744 15.606 101.736 16.1992 102.588 17.1375C103.322 17.9032 103.883 18.9386 104.282 20.2436C104.681 21.5486 104.875 23.3174 104.875 25.5499C104.875 26.0784 104.853 26.7794 104.81 27.6422C104.767 28.5051 104.648 29.411 104.454 30.3493C104.26 31.2876 103.98 32.2044 103.613 33.078C103.246 33.9623 102.739 34.6742 102.092 35.235C101.359 35.8498 100.485 36.2812 99.4715 36.5292C98.4577 36.7773 97.5302 36.9067 96.6782 36.9067H83.6929V45.8045H73.7382V45.8152Z" fill="white"/>
<path d="M131.342 45.8154L122.002 33.8763C121.624 33.3802 121.225 32.787 120.815 32.0967C120.406 31.4065 120.201 30.727 120.201 30.0475C120.201 29.4651 120.352 28.8612 120.664 28.2464C120.977 27.6317 121.29 27.0816 121.613 26.6179L129.896 14.9915H141.695L130.997 27.7179C130.414 28.3974 130.047 28.9043 129.918 29.2602C129.789 29.6161 129.724 29.8642 129.724 30.0044C129.724 30.5005 129.918 31.0074 130.296 31.5035C130.673 31.9996 131.029 32.4311 131.352 32.7762L143.335 45.8154H131.342ZM109.275 14.9915H119.23V45.8262H109.275V14.9915Z" fill="white"/>
<path d="M167.634 45.8154L168.076 27.7179C168.076 27.4267 168.065 27.1571 168.033 26.9306C168 26.6933 167.871 26.5747 167.634 26.5747C167.483 26.5747 167.342 26.7041 167.191 26.9521C167.04 27.2002 166.814 27.5777 166.49 28.0738L157.722 43.0436C157.517 43.3995 157.248 43.7662 156.924 44.1437C156.6 44.5212 156.18 44.8663 155.673 45.1575C155.155 45.4487 154.53 45.6968 153.775 45.8801C153.031 46.0742 152.125 46.1713 151.068 46.1713C149.536 46.1713 148.328 45.9556 147.433 45.535C146.538 45.1144 145.848 44.5535 145.362 43.8633C144.877 43.173 144.564 42.3857 144.413 41.5121C144.262 40.6277 144.198 39.7218 144.198 38.7835V14.9914H154.325L153.883 32.6575V33.1428C153.883 33.3477 153.904 33.5742 153.947 33.8223C153.99 34.0704 154.141 34.1998 154.411 34.1998C154.562 34.1998 154.691 34.1027 154.81 33.9086C154.929 33.7144 155.091 33.4448 155.295 33.0889L163.794 18.2485C164.269 17.3965 164.797 16.7278 165.38 16.2425C165.962 15.7572 166.566 15.4012 167.159 15.164C167.763 14.9267 168.345 14.7865 168.917 14.7218C169.489 14.6679 169.996 14.6355 170.438 14.6355C172.196 14.6355 173.576 14.9159 174.558 15.4767C175.539 16.0376 176.273 16.7062 176.736 17.5044C177.211 18.3025 177.491 19.1329 177.599 20.0173C177.707 20.9017 177.75 21.6459 177.75 22.2606V45.8262H167.634V45.8154Z" fill="white"/>
<path d="M29.3033 45.6428H23.8892L29.3033 48.2313V45.6428Z" fill="#262821"/>
<path d="M23.8892 45.6427V51.7795L26.5962 50.248L29.3033 51.7795V45.6427H47.5626C49.2127 45.6427 50.5609 44.1004 50.5609 42.2022V20.6104L23.8892 45.6427Z" fill="white"/>
<path d="M28.063 38.1796L40.865 15.0454H28.0198C25.7442 15.0454 23.8999 17.1701 23.8999 19.7801V33.4018V45.6321V45.6968L23.9323 45.6321H29.314L28.063 38.1796Z" fill="white"/>
<path fill-rule="evenodd" clip-rule="evenodd" d="M50.5609 20.4272V17.9035C50.5609 16.3288 49.45 15.0454 48.0695 15.0454H41.1023C40.9513 15.0454 40.8003 15.1425 40.7248 15.2935L25.4315 42.925C25.151 43.4319 25.7119 44.0036 26.1109 43.6153L50.3991 20.8263C50.4962 20.7292 50.5609 20.5782 50.5609 20.4272Z" fill="#DADADA"/>
<path d="M29.3033 45.6428H23.8892L29.3033 48.2313V45.6428Z" fill="#B2B2B2"/>
</svg>
