<svg width="13" height="25" viewBox="0 0 13 25" fill="none" xmlns="http://www.w3.org/2000/svg">
<path d="M2.83528 1.09041C2.29795 0.463514 1.35415 0.390915 0.727262 0.928251C0.10037 1.46559 0.0277708 2.40938 0.565107 3.03627L2.83528 1.09041ZM10.8002 12.68L11.9353 13.6529C12.4152 13.0931 12.4152 12.2669 11.9353 11.7071L10.8002 12.68ZM0.565107 22.3237C0.0277708 22.9506 0.10037 23.8944 0.727262 24.4318C1.35415 24.9691 2.29795 24.8965 2.83528 24.2696L0.565107 22.3237ZM0.565107 3.03627L9.66511 13.6529L11.9353 11.7071L2.83528 1.09041L0.565107 3.03627ZM9.66511 11.7071L0.565107 22.3237L2.83528 24.2696L11.9353 13.6529L9.66511 11.7071Z" fill="white"/>
</svg>
