<svg width="16" height="11" viewBox="0 0 16 11" fill="none" xmlns="http://www.w3.org/2000/svg">
<path d="M1.86342 5.46955C1.57053 5.17665 1.09565 5.17665 0.802762 5.46955C0.509868 5.76244 0.509868 6.23731 0.802762 6.53021L1.86342 5.46955ZM5.45788 10.1247L4.92755 10.655C5.22044 10.9479 5.69531 10.9479 5.9882 10.655L5.45788 10.1247ZM14.8274 1.81617C15.1203 1.52328 15.1203 1.04841 14.8274 0.755509C14.5345 0.462609 14.0597 0.462599 13.7668 0.755486L14.8274 1.81617ZM0.802762 6.53021L4.92755 10.655L5.98821 9.59434L1.86342 5.46955L0.802762 6.53021ZM5.9882 10.655L14.8274 1.81617L13.7668 0.755486L4.92756 9.59433L5.9882 10.655Z" fill="white"/>
</svg>
