<svg width="137" height="85" viewBox="0 0 137 85" fill="none" xmlns="http://www.w3.org/2000/svg">
							<path d="M35.0814 0.420691C46.7614 0.420691 56.5081 4.48855 64.3217 12.6243C72.2157 20.6795 76.1628 30.7081 76.1628 42.7103C76.1628 54.7126 72.2157 64.7815 64.3217 72.9172C56.5081 80.9724 46.7614 85 35.0814 85H0.645517V0.420691H35.0814ZM35.0814 64.0968C40.9617 64.0968 45.7545 62.1636 49.4599 58.2971C53.1652 54.3501 55.0179 49.1545 55.0179 42.7103C55.0179 36.2662 53.1652 31.1109 49.4599 27.2444C45.7545 23.2974 40.9617 21.3239 35.0814 21.3239H22.8778V64.0968H35.0814ZM107.821 64.0968H136.94V85H86.1924V0.420691H107.821V64.0968Z" fill="white"/>
						</svg>