<svg width="12" height="10" viewBox="0 0 12 10" fill="none" xmlns="http://www.w3.org/2000/svg">
<path d="M9.45954 9.04052C9.85006 9.43105 10.4832 9.43105 10.8738 9.04052C11.2643 8.65 11.2643 8.01683 10.8738 7.62631L9.45954 9.04052ZM6.83331 5.00008L6.12621 4.29297C5.93867 4.48051 5.83331 4.73486 5.83331 5.00008C5.83331 5.2653 5.93867 5.51965 6.12621 5.70719L6.83331 5.00008ZM10.8738 2.37385C11.2643 1.98333 11.2643 1.35017 10.8738 0.959641C10.4832 0.569117 9.85006 0.569117 9.45954 0.959641L10.8738 2.37385ZM4.45954 9.04052C4.85006 9.43105 5.48323 9.43105 5.87375 9.04052C6.26428 8.65 6.26428 8.01683 5.87375 7.62631L4.45954 9.04052ZM1.83331 5.00008L1.12621 4.29297C0.93867 4.48051 0.833313 4.73486 0.833313 5.00008C0.833313 5.2653 0.93867 5.51965 1.12621 5.70719L1.83331 5.00008ZM5.87375 2.37385C6.26428 1.98333 6.26428 1.35017 5.87375 0.959641C5.48323 0.569117 4.85006 0.569117 4.45954 0.959641L5.87375 2.37385ZM10.8738 7.62631L7.54042 4.29297L6.12621 5.70719L9.45954 9.04052L10.8738 7.62631ZM7.54042 5.70719L10.8738 2.37385L9.45954 0.959641L6.12621 4.29297L7.54042 5.70719ZM5.87375 7.62631L2.54042 4.29297L1.12621 5.70719L4.45954 9.04052L5.87375 7.62631ZM2.54042 5.70719L5.87375 2.37385L4.45954 0.959641L1.12621 4.29297L2.54042 5.70719Z" fill="#CDD2E6"/>
</svg>
