<svg width="81" height="83" viewBox="0 0 81 83" fill="none" xmlns="http://www.w3.org/2000/svg">
<path d="M79.5805 20.6586C79.0387 20.1252 78.3066 19.829 77.5458 19.8353C77.4361 19.8272 77.3263 19.8272 77.2166 19.8353V12.9375C77.3212 11.1025 76.7799 9.2888 75.6859 7.81032C74.5918 6.33242 73.0145 5.28401 71.228 4.84659C63.6783 2.58852 55.9062 1.15311 48.0466 0.56636C34.9789 -0.393029 21.8468 1.10318 9.33008 4.97873C7.7189 5.44091 6.30189 6.41294 5.29058 7.74903C4.2787 9.08448 3.72824 10.7116 3.72015 12.3864V19.8601H3.38228C2.6192 19.8601 1.88716 20.1627 1.34642 20.7012C0.806286 21.2392 0.501745 21.9701 0.499451 22.7325V30.7165C0.50807 31.4744 0.814332 32.1984 1.3516 32.7324C1.88942 33.2669 2.61574 33.5683 3.37421 33.5729C3.48684 33.581 3.59945 33.581 3.71209 33.5729V67.139C3.71209 70.2749 5.35945 72.5962 8.03652 73.4275C8.54735 73.5757 9.08288 73.6497 9.68388 73.7732V79.2798C9.68388 80.1525 10.0315 80.9902 10.6492 81.6074C11.2669 82.2252 12.1053 82.572 12.9793 82.572H21.8511C22.7251 82.572 23.5629 82.2252 24.1806 81.6074C24.7989 80.9902 25.1459 80.1525 25.1459 79.2798V73.7566H55.7397V79.2798C55.7397 80.1525 56.0867 80.9902 56.705 81.6074C57.3227 82.2252 58.1605 82.572 59.0345 82.572H67.915C68.7884 82.572 69.6268 82.2252 70.2445 81.6074C70.8628 80.9902 71.2098 80.1525 71.2098 79.2798V73.74L71.8608 73.6332C73.4036 73.4489 74.8173 72.6824 75.813 71.4905C76.8082 70.2986 77.3098 68.7707 77.215 67.2211V33.5493C77.3276 33.5573 77.4402 33.5573 77.5529 33.5493C78.3165 33.547 79.0486 33.2427 79.5887 32.703C80.1294 32.1633 80.4334 31.4318 80.4357 30.6682V22.6927C80.4334 21.9279 80.1248 21.1958 79.579 20.6596L79.5805 20.6586ZM23.796 61.509H17.9638H12.4367C11.7403 61.563 11.0536 61.3195 10.5468 60.8396C10.04 60.3596 9.75956 59.6878 9.77566 58.9902C9.73428 58.1015 9.77566 57.2041 9.77566 56.3153C9.75152 55.6212 10.0204 54.9494 10.5175 54.4637C11.0145 53.9779 11.6931 53.7242 12.3873 53.7638C14.103 53.7236 15.8206 53.7948 17.5271 53.9779C20.9868 54.4964 23.2358 56.7603 24.9406 59.5994H24.9411C25.2101 59.9944 25.225 60.51 24.9791 60.9199C24.7331 61.3299 24.2718 61.5601 23.796 61.509ZM15.8963 44.9737C16.2497 44.1894 16.7531 43.4821 17.3788 42.8912C18.8182 41.5449 20.6977 40.7675 22.6681 40.7037C24.6385 40.6399 26.565 41.2951 28.0878 42.5455C29.2468 43.5187 30.0282 44.8674 30.2955 46.3567C25.471 46.2058 20.661 45.7436 15.8963 44.9737ZM34.4632 46.4636C34.2064 43.7284 32.8876 41.2021 30.7891 39.4263C28.4804 37.4897 25.5378 36.4729 22.5251 36.5705C19.5125 36.6675 16.6417 37.8721 14.4623 39.9528C13.2665 41.1183 12.3564 42.5433 11.8018 44.1176L11.6122 44.0602C9.96484 43.5831 9.76714 43.3523 9.76714 41.5908V15.5487C9.76714 13.7792 10.0556 13.4088 11.7852 12.9639C30.7007 8.09972 50.5429 8.12221 69.4482 13.0299C70.8898 13.4083 71.1944 13.7872 71.1944 15.3099V28.6192V41.9204C71.1944 43.2374 70.964 43.7065 69.6625 43.9368C65.9391 44.62 62.249 45.3854 58.4513 45.7557L58.4507 45.7563C50.4787 46.5038 42.4669 46.7403 34.4632 46.4642V46.4636ZM71.1366 59.1229C71.1153 59.7855 70.8286 60.4113 70.3402 60.8602C69.8523 61.3092 69.2042 61.5429 68.5416 61.5096H62.899H57.2564C56.7128 61.5917 56.1761 61.3242 55.9153 60.8401C55.655 60.3561 55.7268 59.7613 56.0946 59.3531C58.4011 55.7148 61.5643 53.5503 66.0536 53.7724H68.525C69.1893 53.7391 69.8386 53.9745 70.327 54.4252C70.8149 54.8759 71.101 55.504 71.12 56.1677C71.1872 57.1512 71.1929 58.1381 71.1366 59.1227L71.1366 59.1229Z" fill="#333333"/>
</svg>
