<svg width="127" height="119" viewBox="0 0 127 119" fill="none" xmlns="http://www.w3.org/2000/svg">
<path d="M124.06 0.326506H18.7151C17.3952 0.326506 16.3264 1.39532 16.3264 2.71522C16.3264 4.03512 17.3952 5.10393 18.7151 5.10393H121.668V57.0825C121.668 58.4013 122.738 59.4712 124.057 59.4712C125.376 59.4712 126.446 58.4013 126.446 57.0825L126.447 2.71476C126.447 1.39486 125.378 0.32605 124.058 0.32605L124.06 0.326506Z" fill="#333333"/>
<path d="M116.096 8.29005H10.7512C9.43131 8.29005 8.3625 9.35886 8.3625 10.6788C8.3625 11.9987 9.43131 13.0675 10.7512 13.0675H113.704V65.0461C113.704 66.3648 114.774 67.4348 116.093 67.4348C117.412 67.4348 118.482 66.3648 118.482 65.0461V54.2035L118.483 10.678C118.483 9.35812 117.414 8.28931 116.094 8.28931L116.096 8.29005Z" fill="#333333"/>
<path d="M108.133 15.8546H2.78759C1.24879 15.8546 0 17.1034 0 18.6422V73.0128C0 74.5527 1.24879 75.8004 2.78759 75.8004H14.9456V70.2251L5.57523 70.224V57.9425C9.376 58.6436 12.6793 60.7501 14.9456 63.6999V56.647C14.9456 56.4448 14.9634 56.2515 14.9778 56.0581C12.2569 54.0961 9.05269 52.7773 5.57503 52.3106V39.3448C14.8754 38.0971 22.2437 30.7298 23.4926 21.4294H87.4057C88.5878 30.8066 95.9927 38.2526 105.347 39.5072V52.4718C102.422 52.864 99.6937 53.8606 97.2806 55.336C92.0631 58.5235 88.3534 63.9199 87.4569 70.225H59.3321V75.8003H89.1028C89.3884 75.8992 89.6895 75.9648 90.0072 75.9648C90.3261 75.9648 90.6283 75.8992 90.9116 75.8003H108.132C109.671 75.8003 110.919 74.5526 110.919 73.0127V50.302L110.92 36.9284V18.643C110.92 17.1031 109.673 15.8554 108.133 15.8554L108.133 15.8546ZM5.57779 33.7111V21.4296H17.8592C16.7115 27.6514 11.8007 32.5611 5.57779 33.7111ZM93.0383 21.4296H105.347V33.8743C99.0701 32.7144 94.1314 27.7271 93.0383 21.4296ZM103.512 58.5499C104.108 58.3621 104.723 58.2166 105.345 58.1021V70.2212H93.0871C94.1703 64.6982 98.2225 60.2263 103.512 58.5499Z" fill="#333333"/>
<path d="M59.334 57.3978V63.3363C66.1846 61.3553 71.2752 54.2691 71.2752 45.8286C71.2752 44.4009 71.1141 43.021 70.842 41.6888C69.1987 33.7104 62.9358 27.7485 55.4643 27.7485C52.7644 27.7485 50.2223 28.5285 47.997 29.8984C43.034 32.9514 39.6508 38.9456 39.6508 45.8273C39.6508 45.9128 39.6608 45.9962 39.6619 46.0839C41.264 46.1528 43.2138 46.3017 45.2571 46.6017C45.2449 46.3439 45.2249 46.0884 45.2249 45.8295C45.2249 39.24 49.4224 33.8393 54.721 33.3703C54.9665 33.3481 55.2132 33.3236 55.4632 33.3236C58.6052 33.3236 61.4204 35.0657 63.2982 37.7976C64.7937 39.9719 65.7003 42.7739 65.7003 45.8281C65.7003 51.0487 63.0649 55.5275 59.334 57.3973L59.334 57.3978Z" fill="#333333"/>
<path d="M70.3752 83.8577C66.6655 83.8577 62.708 84.2177 59.3327 85.041C58.3439 85.281 57.4106 85.5654 56.5451 85.8898V56.6481C56.5451 56.4393 56.504 56.2448 56.4762 56.046C55.9952 52.4685 51.3233 50.4286 45.6704 49.482C43.8083 49.1698 41.844 48.9821 39.892 48.8876C38.9687 48.8443 38.0455 48.8176 37.14 48.8176C28.5117 48.8176 18.519 50.7342 17.8037 56.046C17.777 56.2449 17.7348 56.4393 17.7348 56.6482V58.4158L17.7359 66.2042V104.434C17.7359 110.214 28.1896 112.265 37.1413 112.265C41.9387 112.265 47.1516 111.668 50.9715 110.233L50.9704 110.803C50.9704 111.607 51.1903 112.329 51.5614 112.993C53.8635 117.106 62.6662 118.635 70.3755 118.635C79.3272 118.635 89.7818 116.584 89.7818 110.803V91.6891C89.7818 91.4791 89.7407 91.2858 89.7118 91.0858C88.9985 85.775 79.0038 83.8597 70.3755 83.8597L70.3752 83.8577ZM84.2065 110.405C83.1144 111.386 78.2225 113.058 70.3752 113.058C62.5291 113.058 57.6384 111.386 56.5451 110.405V107.044C57.1928 107.286 57.8739 107.512 58.596 107.708C62.1192 108.668 66.3921 109.076 70.374 109.076C75.1714 109.076 80.3844 108.478 84.2053 107.042L84.2065 110.405ZM37.1428 54.3931C38.7771 54.3931 40.2726 54.4697 41.6435 54.5942C45.9488 54.983 48.9097 55.8718 50.2974 56.6073C50.323 56.6218 50.3607 56.6362 50.3852 56.6484C50.3807 56.6518 50.3707 56.6551 50.3663 56.6584C49.5186 57.1206 48.0253 57.6462 45.9753 58.0761C45.4021 58.1961 44.7887 58.3083 44.1277 58.4072C42.1656 58.7072 39.8346 58.9061 37.1436 58.9061C33.544 58.9061 30.5862 58.5506 28.312 58.0761C26.2488 57.6439 24.7479 57.114 23.9011 56.6485C25.6754 55.673 30.2787 54.3931 37.1428 54.3931ZM84.2065 100.848C83.1232 101.826 78.2347 103.503 70.3752 103.503C65.47 103.503 61.7213 102.85 59.3327 102.119C57.8961 101.681 56.9518 101.216 56.5451 100.847V97.4893C57.4095 97.8138 58.3439 98.0982 59.3327 98.3382C62.7057 99.1637 66.6655 99.5214 70.3752 99.5214C75.1726 99.5214 80.3855 98.9237 84.2065 97.4872V100.848ZM50.9715 73.0135V75.3644C50.8237 75.4977 50.5971 75.6466 50.3071 75.8011C49.8038 76.0699 49.0961 76.3588 48.1839 76.6355C45.7952 77.3654 42.0466 78.0176 37.1414 78.0176C32.2362 78.0176 28.4875 77.3643 26.0989 76.6332C25.189 76.3566 24.4824 76.0677 23.9769 75.8C23.6858 75.6444 23.4591 75.4978 23.3114 75.3622V72.0026C23.4258 72.0437 23.5402 72.0881 23.6591 72.1303C24.4257 72.4025 25.2424 72.6414 26.099 72.8514C26.3234 72.9059 26.5467 72.9592 26.7756 73.0125C29.9964 73.7225 33.6786 74.0369 37.1414 74.0369C40.6043 74.0369 44.2865 73.7247 47.5073 73.0125C47.7362 72.9614 47.9595 72.907 48.1839 72.8514C49.1727 72.6114 50.106 72.327 50.9715 72.0026V73.0135ZM26.0988 63.2975C29.4741 64.123 33.4316 64.4808 37.1413 64.4808C40.8511 64.4808 44.8086 64.1208 48.1838 63.2975C48.8182 63.142 49.436 62.9742 50.0237 62.7865C50.3504 62.6809 50.6604 62.5631 50.9714 62.4487V65.8083C50.5648 66.175 49.6226 66.6394 48.1838 67.0805C45.7951 67.8104 42.0465 68.4626 37.1413 68.4626C32.2362 68.4626 28.4874 67.8093 26.0988 67.0782C24.6623 66.6405 23.7179 66.175 23.3113 65.8061V62.4485C24.1757 62.7729 25.1089 63.0553 26.0988 63.2975ZM26.0988 82.4106C29.4741 83.2361 33.4316 83.5938 37.1413 83.5938C40.8511 83.5938 44.8086 83.2339 48.1838 82.4106C49.1727 82.1706 50.1059 81.8862 50.9714 81.5617V84.9205C50.5648 85.2872 49.6226 85.7516 48.1838 86.1927C45.7951 86.9226 42.0465 87.5748 37.1413 87.5748C32.2362 87.5748 28.4874 86.9215 26.0988 86.1904C24.6623 85.7527 23.7179 85.2872 23.3113 84.9183V81.5607C24.1757 81.8862 25.1089 82.1684 26.0988 82.4106ZM23.3113 91.1177C24.1757 91.4421 25.11 91.7265 26.0988 91.9665C29.4741 92.792 33.4316 93.1498 37.1413 93.1498C40.8511 93.1498 44.8086 92.7898 48.1838 91.9665C49.1727 91.7265 50.1059 91.4421 50.9714 91.1177V94.4773C50.5648 94.8439 49.6226 95.3083 48.1838 95.7494C45.7951 96.4794 42.0465 97.1316 37.1413 97.1316C32.2362 97.1316 28.4874 96.4783 26.0988 95.7472C24.6623 95.3095 23.7179 94.8439 23.3113 94.4751V91.1177ZM70.375 93.9464C65.4553 93.9464 61.7211 93.2864 59.3325 92.5542C58.3892 92.2643 57.6359 91.9665 57.1326 91.6898C57.6359 91.4132 58.3892 91.1143 59.3325 90.8266C61.7212 90.0944 65.4553 89.4344 70.375 89.4344C77.2379 89.4344 81.8399 90.7155 83.6175 91.6898C81.841 92.6665 77.2401 93.9464 70.375 93.9464ZM23.3113 100.675C24.1757 100.999 25.11 101.284 26.0988 101.524C29.4741 102.349 33.4316 102.707 37.1413 102.707C40.8511 102.707 44.8086 102.347 48.1838 101.524C49.1727 101.284 50.1059 100.999 50.9714 100.675V104.035C49.8793 105.016 44.9874 106.689 37.1413 106.689C29.2952 106.689 24.4045 105.016 23.3111 104.035L23.3113 100.675Z" fill="#333333"/>
</svg>
