<svg width="83" height="83" viewBox="0 0 83 83" fill="none" xmlns="http://www.w3.org/2000/svg">
<path d="M12.4639 82.572C5.86623 82.572 0.499451 77.2052 0.499451 70.6082V12.2484C0.499451 5.65142 5.86623 0.284668 12.4639 0.284668H70.8223C77.42 0.284668 82.7868 5.65142 82.7868 12.2484V70.6066C82.7868 77.2042 77.42 82.571 70.8223 82.571L12.4639 82.572ZM32.0005 69.9188V50.023H43.3004C53.5251 50.023 61.8428 41.7041 61.8428 31.4808C61.8428 21.2568 53.5238 12.9385 43.3004 12.9385L21.4421 12.9392V69.9194H32.001L32.0005 69.9188ZM32.0005 39.4662V23.4954H43.9643C48.3655 23.4954 51.9478 27.0776 51.9478 31.4808C51.9478 35.8833 48.3655 39.4662 43.9643 39.4662H32.0005Z" fill="#333333"/>
</svg>
