<svg width="739" height="710" viewBox="0 0 739 710" fill="none" xmlns="http://www.w3.org/2000/svg">
<g filter="url(#filter0_i_298_634)">
<path fill-rule="evenodd" clip-rule="evenodd" d="M739.001 31.7275V547.631C662.578 573.45 586.804 606.834 521.189 649.452C272.918 810.709 49.5708 531.851 10.5033 391.615C-28.5641 251.38 48.0896 42.9773 284.908 6.48054C390.661 -9.81752 459.612 8.14346 523.162 24.6974C589.196 41.8988 649.399 57.5809 739.001 31.7275Z" fill="url(#paint0_linear_298_634)"/>
</g>
<path fill-rule="evenodd" clip-rule="evenodd" d="M549.461 630.804C539.125 636.872 528.992 643.152 519.094 649.651C515.052 652.306 511.014 654.841 506.983 657.258C492.92 654.716 481.942 640.789 477.102 628.613C476.779 627.801 476.46 626.875 476.144 625.847C475.747 635.16 475.747 642.78 475.747 642.78C475.747 642.78 477.453 645.956 479.922 651.128C482.663 656.675 485.182 662.329 487.473 668.075C403.273 710.996 322.307 703.943 251.266 670.868L252.398 663.16C243.975 661.933 224.877 646.684 212.066 636.456L212.066 636.456L211.134 635.712C197.273 624.65 137.143 551.004 137.143 551.004L147.61 543.707L145.973 539.708L89.9779 537.718C83.0275 528.987 76.4087 520.158 70.1417 511.302C70.2055 511.372 70.269 511.442 70.332 511.513C72.2631 513.401 74.8951 516.054 77.7606 519.018C79.9791 521.27 81.9843 523.374 83.6037 525.11L87.3644 524.033L78.2123 507.659V507.581C78.1293 506.943 78.1975 506.294 78.4113 505.687C78.625 505.08 78.9783 504.531 79.4427 504.086C79.9685 503.701 80.5655 503.423 81.1991 503.271C81.8164 503.122 82.4565 503.094 83.084 503.189C83.8016 503.137 84.5192 503.302 85.1426 503.665C85.7545 503.99 86.3246 504.388 86.8402 504.851C87.8649 505.788 88.784 506.834 89.5811 507.971L89.6007 507.997C89.9669 507.145 90.5939 506.523 91.1697 506.349C96.7605 504.885 102.594 504.598 108.301 505.506C113.767 506.193 124.778 506.099 124.778 506.099C124.778 506.099 142.189 502.869 148.823 503.384C154.719 503.842 173.429 519.392 177.523 522.851L181.341 520.189L229.903 570.155C230.207 570.213 230.506 570.296 230.796 570.405C229.386 561.764 217.192 486.032 218.967 461.49C221.312 428.861 239.077 415.104 249.064 409.899C250.84 396.1 254.188 376.041 260.222 356.327C265.254 339.837 270.566 324.322 275.248 310.649C280.246 296.052 284.525 283.554 286.978 274.209C287.479 272.29 287.979 270.36 288.481 268.422L288.482 268.42C301.392 218.586 315.63 163.626 387.584 168.702C387.584 168.702 433.651 177.58 455.532 211.641C468.396 231.691 479.547 318.053 481.758 386.269C481.806 387.687 481.529 393.43 481.257 399.073V399.073L481.257 399.074C481.093 402.456 480.932 405.801 480.843 408.158L496.834 412.685L497.004 413.642L497.223 412.685C497.223 412.685 527.093 422.53 525.879 480.994C524.664 539.458 525.614 559.133 525.614 559.133L570.388 511.669L575.026 516.794C579.283 512.95 584.868 508.061 587.784 506.146C592.892 502.791 604.37 498.251 608.653 497.845C612.936 497.439 632.979 503.244 632.979 503.244C632.979 503.244 637.245 502.864 642.81 502.582C642.871 501.802 642.984 501.028 643.149 500.264C643.581 498.429 644.604 496.788 646.058 495.592C647.513 494.397 649.32 493.714 651.2 493.648H652.072V494.054C651.952 496.864 651.833 499.617 651.717 502.292C654.833 502.259 657.903 502.313 660.535 502.516C660.719 500.906 661.019 499.308 661.432 497.736C661.929 495.818 662.867 494.044 664.173 492.556C664.906 491.795 665.805 491.215 666.799 490.86C667.794 490.505 668.856 490.386 669.904 490.512L670.854 490.652H671.181V491.011C671.129 494.176 671.076 497.26 671.025 500.242L671.025 500.259L671.025 500.283C670.981 502.813 670.939 505.268 670.9 507.635C671.782 509.395 671.583 511.09 670.8 512.569L670.798 512.647C670.755 514.311 670.714 515.917 670.714 517.458C670.709 519.862 670.012 522.213 668.705 524.23C668.534 524.475 668.359 524.717 668.178 524.955L668.285 524.885H676.436C677.317 523.828 678.159 522.838 678.936 521.941C682.636 516.981 690.82 507.938 698.513 512.621L698.287 512.969C698.133 513.336 697.937 513.685 697.703 514.01C697.372 514.591 696.931 515.309 696.393 516.184C697.418 515.812 701.217 514.736 703.73 518.098L678.911 539.886L678.813 539.989C678.081 540.768 677.274 541.471 676.404 542.087L675.293 543.062H674.536C674.355 543.093 674.17 543.103 673.985 543.094L674.055 543.062H673.985L654.223 541.78L654.004 542.048L618.542 539.708L618.728 539.634L599.184 538.896L597.241 541.344L607.578 552.767C607.578 552.767 576.643 598.805 549.461 630.804ZM230.476 570.594C230.375 570.546 230.283 570.501 230.199 570.46L230.928 571.21L230.904 571.066L230.856 570.771C230.718 570.707 230.592 570.648 230.476 570.594ZM670.01 519.049L670.16 513.57L670.184 513.539L670.217 513.494C670.243 515.462 670.239 517.335 670.01 519.049ZM651.052 515.711L651.091 515.71C653.041 515.68 654.949 515.695 656.761 515.709H656.763H656.766H656.769C657.226 515.713 657.677 515.717 658.121 515.72C657.572 517.54 657.058 519.243 656.58 520.819L649.363 526.477L649.203 526.604L648.514 525.868C648.905 524.303 649.32 522.645 649.754 520.905L649.755 520.9C650.17 519.241 650.602 517.508 651.052 515.711ZM93.7403 514.189C98.8416 515.25 114.359 516.303 114.359 516.303L98.6377 520.805C97.1448 518.92 95.6765 516.943 94.2377 514.899C94.0684 514.662 93.9031 514.426 93.7403 514.189Z" fill="#7630A1"/>
<g clip-path="url(#clip0_298_634)">
<g opacity="0.35">
<path d="M590.008 205.774L566.648 196.163C566.648 196.163 558.596 215.791 538.07 207.756C534.089 206.281 530.665 203.599 528.276 200.084C525.886 196.569 524.65 192.395 524.739 188.143C524.762 184.57 525.63 181.053 527.27 177.88C528.91 174.707 531.277 171.968 534.176 169.888C540.826 164.973 552.211 161.946 566.881 171.198L588.186 119.116L565.106 109.614L552.429 140.507C552.429 140.507 516.609 135.561 501.939 171.307C487.923 205.509 516.454 226.557 532.401 233.11C542.415 237.245 573.516 247.215 590.008 205.774Z" fill="#F5F5F5"/>
<path d="M578.287 76.7154L569.291 98.6357L592.726 108.289L601.722 86.3687L578.287 76.7154Z" fill="#F5F5F5"/>
<path d="M582.113 202.435L558.752 192.808C558.752 192.808 550.7 212.452 530.19 204.417C526.207 202.942 522.781 200.261 520.389 196.746C517.997 193.231 516.758 189.057 516.843 184.804C516.873 181.232 517.743 177.717 519.383 174.545C521.023 171.373 523.386 168.634 526.281 166.548C532.931 161.649 544.05 159.278 558.643 168.53L580.275 115.792L557.195 106.321L544.518 137.215C544.518 137.215 508.698 132.222 493.981 168C479.965 202.201 507.312 222.766 520.456 228.164C530.47 232.283 565.62 243.923 582.113 202.435Z" fill="#E0E0E0"/>
<path d="M570.386 73.417L561.391 95.3374L584.826 104.991L593.821 83.0704L570.386 73.417Z" fill="#E0E0E0"/>
</g>
<g opacity="0.31">
<path d="M95.2378 259.332L123.909 247.989C123.909 247.989 114.409 223.866 139.249 213.537C152.16 208.17 162.251 214.037 167.562 219.482C170.567 222.65 172.78 226.486 174.02 230.677C175.26 234.867 175.491 239.292 174.695 243.589C172.997 253.543 165.538 265.869 144.871 270.113L170.085 334.085L198.445 322.867L183.478 284.921C183.478 284.921 219.189 258.879 201.887 214.973C185.316 172.97 142.395 178.68 122.819 186.42C110.516 191.256 74.7116 208.872 95.2378 259.332Z" fill="#F5F5F5"/>
<path d="M204.049 336.024L175.268 347.412L185.879 374.332L214.661 362.944L204.049 336.024Z" fill="#F5F5F5"/>
<path d="M83.7911 263.872L112.478 252.529C112.478 252.529 102.962 228.407 127.818 218.078C140.713 212.711 150.82 218.577 156.131 224.023C159.128 227.189 161.336 231.021 162.576 235.204C163.815 239.388 164.051 243.806 163.264 248.098C161.566 258.053 153.779 269.583 133.113 273.811L158.654 338.595L186.998 327.376L172.047 289.43C172.047 289.43 207.758 263.373 190.44 219.467C173.885 177.464 132.443 182.581 116.34 188.979C104.037 193.831 63.2806 213.397 83.7911 263.872Z" fill="#E0E0E0"/>
<path d="M192.616 340.554L163.834 351.942L174.445 378.862L203.227 367.474L192.616 340.554Z" fill="#E0E0E0"/>
</g>
<g opacity="0.4">
<path d="M560.782 357.029H574.627C574.627 357.029 574.627 345.389 586.712 345.186C589.049 345.086 591.358 345.723 593.314 347.008C595.27 348.293 596.774 350.161 597.614 352.348C598.342 354.166 598.632 356.131 598.462 358.082C598.291 360.034 597.665 361.918 596.633 363.582C594.281 367.452 589.142 370.978 579.813 369.339V400.545H593.502V382.29C593.502 382.29 612.705 377.313 612.705 356.124C612.705 335.84 594.546 331.159 586.774 331.159C580.763 331.128 560.517 332.563 560.782 357.029Z" fill="#E0E0E0"/>
<path d="M593.596 407.052H579.704V420.049H593.596V407.052Z" fill="#E0E0E0"/>
</g>
<g opacity="0.1">
<path d="M171.982 377.609L178.585 373.412C179.056 374.171 179.675 374.827 180.406 375.34C181.136 375.853 181.963 376.213 182.835 376.398C183.708 376.583 184.609 376.59 185.485 376.417C186.36 376.244 187.191 375.896 187.929 375.393C189.072 374.739 189.978 373.738 190.518 372.536C191.058 371.333 191.204 369.99 190.935 368.7C190.736 367.609 190.283 366.581 189.612 365.699C188.94 364.818 188.07 364.108 187.073 363.629C184.783 362.505 181.264 362.38 177.323 366L167.87 351.084L174.396 346.934L179.924 355.671C183.112 354.736 186.518 354.88 189.616 356.082C192.713 357.284 195.328 359.476 197.055 362.318C203.176 371.992 195.95 379.746 192.243 382.103C189.331 383.897 179.255 389.358 171.982 377.609Z" fill="#E0E0E0"/>
<path d="M168.562 337.631L172.494 343.835L165.868 348.051L161.936 341.847L168.562 337.631Z" fill="#E0E0E0"/>
</g>
<g opacity="0.17">
<path d="M666.326 275.394L658.71 278.406C659.059 279.273 659.229 280.201 659.212 281.136C659.194 282.071 658.989 282.992 658.608 283.845C658.227 284.699 657.679 285.467 656.995 286.103C656.312 286.739 655.507 287.231 654.63 287.549C653.37 288.107 651.968 288.257 650.619 287.977C649.27 287.698 648.043 287.002 647.108 285.989C646.311 285.148 645.725 284.129 645.398 283.017C645.07 281.905 645.01 280.731 645.224 279.592C645.675 276.955 647.731 273.896 653.228 272.773L646.438 255.61L638.916 258.606L642.856 268.607C640.124 270.738 638.165 273.709 637.282 277.064C636.398 280.418 636.639 283.97 637.966 287.175C642.374 298.331 653.369 296.973 657.651 295.288C660.953 293.993 671.761 288.797 666.326 275.394Z" fill="#E0E0E0"/>
<path d="M642.784 244.707L635.151 247.75L637.992 254.904L645.625 251.861L642.784 244.707Z" fill="#E0E0E0"/>
</g>
<path d="M283.69 137.347C258.782 127.527 246.552 99.298 256.372 74.2956C266.192 49.2931 294.345 36.9851 319.252 46.8048C344.16 56.6245 356.391 84.8534 346.57 109.856C336.75 134.858 308.598 147.166 283.69 137.347Z" fill="white"/>
<path d="M320.804 136.622L320.072 136.934L317.923 137.777L316.365 138.385C315.773 138.588 315.104 138.744 314.387 138.947L312.067 139.571C311.241 139.821 310.323 139.883 309.373 140.071C304.743 140.886 300.016 140.986 295.356 140.367C289.162 139.595 283.175 137.629 277.727 134.578L275.437 133.283C274.705 132.8 273.989 132.269 273.242 131.723C272.476 131.244 271.738 130.723 271.03 130.163L268.896 128.337L266.934 126.465L266.825 126.356L264.816 124.234C264.162 123.5 263.586 122.673 262.963 121.909C262.314 121.128 261.71 120.31 261.156 119.459C260 117.742 258.959 115.949 258.042 114.092C257.59 113.14 257.06 112.204 256.656 111.221C256.142 109.863 255.628 108.475 255.098 107.086L254.958 106.665L254.538 105.104C254.273 104.043 253.946 102.982 253.712 101.89C253.282 99.6648 253.001 97.4129 252.871 95.1498C252.708 92.8278 252.708 90.4972 252.871 88.1753C252.965 87.0051 253.167 85.8505 253.323 84.6646C253.416 84.0717 253.447 83.4788 253.587 82.9015L254.008 81.154C254.396 79.2579 254.917 77.3914 255.565 75.5682C255.939 74.6476 256.297 73.7426 256.656 72.822L257.979 69.8107L258.446 68.9993L259.365 67.439L260.3 65.8007L261.374 64.2404L262.465 62.6802L262.994 62.0092L263.617 61.2915L268.538 56.0801L268.896 55.7369C272.82 52.2641 277.247 49.4075 282.025 47.2645C286.846 45.2062 291.949 43.8911 297.163 43.3638H297.614H304.825H305.775L306.725 43.4886L308.594 43.7538L310.463 44.0035L312.285 44.4404L314.091 44.846L314.995 45.0645L317.969 46.0787L320.71 47.1553C322.498 47.9064 324.231 48.7823 325.896 49.7766L327.454 50.6659C327.968 50.9624 328.435 51.3369 328.918 51.6801C329.883 52.3666 330.88 53.022 331.799 53.7397C333.6 55.1825 335.302 56.7464 336.891 58.4206C338.446 60.0672 339.892 61.8132 341.221 63.6475C341.859 64.5681 342.42 65.5355 343.012 66.4561L343.884 67.8603C343.966 67.9796 344.039 68.1047 344.102 68.2348C344.756 69.5766 345.41 70.9029 346.064 72.2135C346.5 73.1809 346.827 74.1951 347.201 75.1781C347.935 77.1209 348.534 79.1125 348.992 81.1384C349.239 82.1195 349.426 83.1147 349.553 84.1185C349.693 85.1171 349.895 86.0845 349.973 87.0675C350.051 88.0505 350.098 89.0335 350.145 90.0164V92.8406C350.145 93.7767 350.145 94.7129 350.036 95.6491C349.926 96.5853 349.802 97.4746 349.708 98.3796C349.615 99.2846 349.475 100.174 349.319 101.048L348.712 103.607C347.224 109.674 344.58 115.396 340.925 120.458C338.203 124.344 334.899 127.786 331.129 130.662C330.35 131.224 329.681 131.848 328.933 132.222L326.893 133.486C326.254 133.876 325.678 134.251 325.133 134.563L323.576 135.296L321.489 136.295C321.022 136.529 320.773 136.622 320.773 136.622L321.458 136.248L323.513 135.202L325.071 134.422C325.6 134.126 326.177 133.736 326.8 133.346C327.422 132.956 328.092 132.503 328.824 132.051C329.572 131.567 330.294 131.047 330.989 130.49C334.703 127.646 337.963 124.252 340.66 120.426C344.27 115.381 346.877 109.686 348.338 103.653C348.54 102.826 348.743 101.984 348.93 101.126C349.117 100.268 349.179 99.3626 349.304 98.4732C349.455 97.5796 349.559 96.6786 349.615 95.7739C349.615 94.8533 349.615 93.9328 349.724 92.9966C349.833 92.0604 349.724 91.0306 349.724 90.2817V90.0945L349.537 87.2079C349.459 86.2405 349.257 85.2732 349.117 84.2902C348.99 83.2966 348.803 82.3118 348.556 81.3412C348.09 79.3377 347.492 77.3674 346.765 75.4433C346.391 74.476 346.064 73.4774 345.628 72.51L343.681 68.5625C343.618 68.4374 343.545 68.3175 343.463 68.2036L342.607 66.8149C342.015 65.91 341.454 64.9582 340.816 64.0532C338.158 60.38 335.032 57.0702 331.518 54.2078C330.6 53.4901 329.618 52.8503 328.668 52.1638C328.186 51.8361 327.734 51.4617 327.22 51.1652L325.663 50.2915C323.58 49.1184 321.427 48.0762 319.215 47.1709L315.758 46.0007L314.886 45.7042L313.998 45.4858L312.207 45.0645L310.4 44.6432L308.547 44.378L306.6 44.0347L305.666 43.9099H304.732H297.568H297.147C286.765 44.8114 276.96 49.0847 269.224 56.0801L268.881 56.4078L264.006 61.5724L263.383 62.2901L262.854 63.0546L261.764 64.6149L260.705 66.1752L259.786 67.7355L258.867 69.2958L258.415 70.0915L258.042 70.9341L256.484 74.2731C255.647 76.5213 254.95 78.8194 254.397 81.154L253.992 82.8859C253.852 83.4476 253.821 84.0405 253.728 84.6178C253.572 85.7881 253.369 86.9427 253.276 88.0973C253.113 90.3932 253.113 92.6978 253.276 94.9938C253.409 97.2299 253.685 99.4553 254.101 101.656C254.335 102.733 254.647 103.794 254.911 104.777L255.332 106.337C255.332 106.462 255.41 106.602 255.456 106.743L257.014 110.846C257.419 111.829 257.933 112.75 258.369 113.702C259.286 115.544 260.326 117.321 261.483 119.022C262.022 119.866 262.615 120.674 263.259 121.441C263.882 122.221 264.442 123.001 265.081 123.75L267.121 125.981L268.102 127.011L268.196 127.105L271.31 129.773C271.996 130.397 272.79 130.849 273.506 131.333C274.223 131.817 274.955 132.378 275.687 132.893L277.945 134.188C283.323 137.242 289.241 139.224 295.372 140.024C300.001 140.664 304.7 140.601 309.31 139.836C310.26 139.649 311.179 139.602 311.989 139.353L314.309 138.76C315.026 138.557 315.695 138.417 316.287 138.229L317.845 137.652L320.025 136.856L320.804 136.622Z" fill="#263238"/>
<path d="M340.162 157.749C341.848 157.442 343.389 156.595 344.552 155.334C345.715 154.073 346.437 152.467 346.61 150.759C346.782 149.051 346.394 147.333 345.506 145.865C344.618 144.397 343.277 143.258 341.686 142.62C340.095 141.982 338.34 141.881 336.686 142.33C335.032 142.78 333.569 143.756 332.518 145.112C331.467 146.468 330.884 148.129 330.859 149.846C330.833 151.563 331.365 153.241 332.375 154.628C333.241 155.838 334.434 156.775 335.814 157.328C337.193 157.881 338.702 158.027 340.162 157.749Z" fill="white"/>
<path d="M341.906 157.187C341.763 157.279 341.612 157.357 341.454 157.421C341.004 157.612 340.534 157.753 340.053 157.842C338.259 158.187 336.401 157.888 334.804 157C333.697 156.397 332.748 155.542 332.032 154.503C331.167 153.232 330.678 151.742 330.62 150.205C330.562 148.668 330.938 147.145 331.705 145.812C332.571 144.3 333.901 143.107 335.498 142.413C337.095 141.719 338.872 141.559 340.567 141.958C342.062 142.305 343.43 143.067 344.512 144.157C345.595 145.248 346.349 146.622 346.687 148.122C346.952 149.359 346.926 150.641 346.609 151.866C346.166 153.642 345.113 155.205 343.635 156.282C343.245 156.576 342.821 156.822 342.373 157.015C342.225 157.091 342.068 157.148 341.906 157.187C341.906 157.187 342.529 156.875 343.463 156.095C344.825 154.999 345.779 153.477 346.173 151.773C346.41 150.786 346.449 149.761 346.287 148.759C346.124 147.757 345.765 146.797 345.228 145.936C344.692 145.075 343.99 144.329 343.163 143.743C342.335 143.156 341.4 142.741 340.411 142.52C338.846 142.174 337.213 142.326 335.739 142.957C334.26 143.595 333.021 144.688 332.204 146.078C331.475 147.314 331.11 148.732 331.151 150.168C331.193 151.604 331.638 152.998 332.437 154.191C333.095 155.186 333.975 156.014 335.007 156.61C336.522 157.488 338.289 157.828 340.022 157.577C341.236 157.468 341.875 157.187 341.906 157.187Z" fill="#263238"/>
<path d="M287.724 83.8532H295.059C295.059 83.0189 295.226 82.1931 295.549 81.4244C295.873 80.6558 296.347 79.96 296.944 79.3782C297.541 78.7963 298.248 78.3403 299.023 78.0369C299.799 77.7335 300.628 77.5891 301.46 77.612C302.696 77.5699 303.914 77.9136 304.947 78.5957C305.979 79.2777 306.774 80.2644 307.222 81.4191C307.608 82.3817 307.76 83.422 307.668 84.455C307.576 85.4881 307.242 86.4847 306.693 87.3638C305.447 89.4234 302.721 91.2957 297.769 90.4844V106.992H305.026V97.2716C308.006 96.3969 310.617 94.5657 312.457 92.0596C314.298 89.5536 315.265 86.5114 315.212 83.4007C315.212 72.6503 305.587 70.1538 301.46 70.1538C298.314 70.1538 287.584 70.9184 287.724 83.8532Z" fill="#263238"/>
<path d="M297.817 110.394H305.184V117.29H297.817V110.394Z" fill="#263238"/>
<path d="M569.376 521.983C569.376 521.983 582.676 509.5 587.784 506.146C592.892 502.791 604.37 498.251 608.653 497.845C612.936 497.439 632.979 503.244 632.979 503.244C632.979 503.244 662.569 500.607 667.537 504.071C672.505 507.534 672.1 511.139 670.013 513.76C667.927 516.381 659.937 515.57 651.091 515.71C642.246 515.851 639.894 516.678 639.894 516.678L652.742 530.377L619.43 539.661L599.184 538.896L591.849 548.133L569.376 521.983Z" fill="#FFBF9D"/>
<path d="M670.776 491.089L669.967 520.625L668.549 524.292L654.003 542.048L618.542 539.707L646.793 528.536L656.838 520.875L660.731 508.268C660.731 508.268 659.517 488.858 670.776 491.089Z" fill="#FFBF9D"/>
<path d="M668.285 524.885H676.913C676.913 524.885 688.157 506.317 698.513 512.621L696.13 516.288C696.13 516.288 700.803 514.181 703.73 518.098L675.293 543.062H673.985L643.694 541.096L668.285 524.885Z" fill="#FFBF9D"/>
<path d="M663.129 530.533C663.94 530.632 664.758 530.668 665.574 530.642C667.632 530.647 669.669 531.055 671.57 531.844L671.851 531.968L672.037 531.703C672.925 530.471 674 529.129 675.152 527.74L681.273 520.157C682.176 519.15 682.994 518.07 683.718 516.927C682.651 517.765 681.684 518.723 680.837 519.783C679.17 521.639 676.912 524.261 674.514 527.225C673.392 528.629 672.333 529.971 671.399 531.298L671.882 531.157C669.873 530.364 667.713 530.029 665.559 530.174C664.734 530.152 663.912 530.273 663.129 530.533Z" fill="#FF9A6C"/>
<path d="M601.676 513.37C605.113 514.525 608.455 515.944 611.674 517.614C614.745 519.545 617.67 521.699 620.427 524.058C619.859 523.131 619.149 522.299 618.324 521.593C614.554 517.945 609.926 515.31 604.869 513.932C603.845 513.562 602.765 513.372 601.676 513.37Z" fill="#FF9A6C"/>
<path d="M630.02 505.709C631.241 507.483 632.6 509.158 634.085 510.717C635.364 512.452 636.77 514.09 638.29 515.617C637.425 513.614 636.212 511.781 634.708 510.202C633.41 508.45 631.825 506.931 630.02 505.709Z" fill="#FF9A6C"/>
<path d="M659.642 534.668C659.887 534.462 660.111 534.232 660.311 533.981L662.149 531.937L664.999 528.676L666.774 526.632C667.472 525.877 668.118 525.074 668.705 524.229C670.012 522.213 670.71 519.862 670.714 517.458C670.714 514.946 670.823 512.262 670.87 509.438C670.964 503.774 671.073 497.564 671.182 491.011V490.652H670.855L669.905 490.512C668.857 490.386 667.794 490.505 666.8 490.86C665.805 491.214 664.906 491.795 664.173 492.556C662.868 494.044 661.929 495.818 661.432 497.736C660.52 501.204 660.162 504.796 660.373 508.377V508.252C658.925 513.042 657.648 517.302 656.558 520.89L656.667 520.75L649.363 526.476L647.416 528.037C646.98 528.411 646.762 528.598 646.778 528.63C647.037 528.499 647.282 528.342 647.51 528.161L649.534 526.71L657.01 521.156V521.078C658.131 517.489 659.47 513.276 660.981 508.486V508.252C660.807 504.762 661.18 501.266 662.087 497.892C662.596 496.097 663.525 494.45 664.796 493.086C665.448 492.412 666.248 491.899 667.132 491.587C668.015 491.276 668.959 491.175 669.889 491.292L670.746 491.417L670.419 491.011C670.325 497.549 670.247 503.758 670.185 509.422C670.123 515.086 670.823 520.344 668.269 523.917C667.691 524.755 667.051 525.548 666.354 526.289L664.625 528.38C663.582 529.675 662.647 530.798 661.884 531.734L660.171 533.872C659.963 534.115 659.786 534.382 659.642 534.668Z" fill="#FF9A6C"/>
<path d="M673.985 543.093C674.538 543.123 675.085 542.969 675.542 542.656C676.745 541.916 677.845 541.019 678.813 539.988C682.053 536.623 685.032 533.013 687.721 529.191C690.945 524.776 693.67 520.656 695.508 517.629C696.458 516.069 697.205 514.883 697.704 514.01C698.009 513.585 698.251 513.117 698.42 512.621C698.42 512.621 698.031 513.027 697.439 513.838C696.847 514.649 695.959 515.975 695.025 517.317C692.985 520.251 690.197 524.307 686.989 528.723C684.313 532.526 681.422 536.173 678.33 539.645C677.391 540.687 676.348 541.628 675.215 542.454C674.819 542.693 674.408 542.907 673.985 543.093Z" fill="#FF9A6C"/>
<path d="M622.234 524.027L637.807 522.966L642.479 510.124L643.336 501.48C643.522 499.436 644.464 497.535 645.976 496.149C647.489 494.764 649.463 493.994 651.512 493.991H651.668L650.796 515.18L647.666 528.333L634.957 535.838H619.384L622.234 524.027Z" fill="#FFBF9D"/>
<path d="M622.234 524.027L637.807 522.966L642.479 510.124L643.336 501.48C643.522 499.436 644.464 497.535 645.976 496.149C647.489 494.764 649.463 493.994 651.512 493.991H651.668L650.796 515.18L647.666 528.333L634.957 535.838" fill="#FFBF9D"/>
<path d="M634.957 535.838C635.278 535.726 635.586 535.58 635.876 535.401L638.43 533.966L647.774 528.567H647.867V528.442C648.817 524.666 649.923 520.219 651.153 515.304V515.226C651.434 508.861 651.745 501.668 652.072 494.053V493.648H651.2C649.32 493.714 647.513 494.397 646.058 495.592C644.603 496.787 643.581 498.429 643.149 500.263C642.965 501.117 642.845 501.982 642.79 502.853C642.718 503.696 642.64 504.523 642.557 505.334C642.401 506.895 642.245 508.58 642.09 510.14V510.046C640.376 514.821 638.835 519.158 637.417 522.919L637.682 522.731L626.235 523.636L623.121 523.917C622.753 523.933 622.388 523.986 622.031 524.073C622.393 524.111 622.758 524.111 623.121 524.073L626.235 523.949L637.682 523.293H637.885V523.106L642.635 510.28V510.187C642.79 508.626 642.962 507.066 643.133 505.397C643.133 504.585 643.304 503.743 643.382 502.916C643.437 502.082 643.552 501.253 643.725 500.435C644.119 498.773 645.048 497.286 646.367 496.204C647.687 495.121 649.324 494.503 651.029 494.443H651.449L651.06 494.022C650.764 501.636 650.468 508.829 650.219 515.211V515.133C649.035 520.063 647.976 524.495 647.104 528.302L647.244 528.13L637.994 533.747L635.502 535.307C635.307 535.471 635.125 535.648 634.957 535.838Z" fill="#FF9A6C"/>
<path d="M286.978 274.209C300.371 222.953 312.83 163.428 387.584 168.702C387.584 168.702 433.651 177.58 455.532 211.641C468.396 231.691 479.547 318.053 481.758 386.269C481.852 389.046 480.699 408.409 480.777 411.124L282.898 427.632H247.249C247.249 427.632 249.476 391.433 260.222 356.327C270.625 322.234 282.228 292.308 286.978 274.209Z" fill="#263238"/>
<path d="M397.473 188.221L392.801 183.759L342.265 204.167C338.737 204.364 335.411 205.879 332.943 208.412C330.476 210.945 329.045 214.313 328.934 217.851L329.385 382.82C329.385 394.008 331.55 403.697 338.293 412.622L345.395 421.984C361.576 443.391 394.873 441.628 407.69 418.036C408.461 416.698 409.057 415.266 409.465 413.776C409.794 412.56 410.048 411.325 410.228 410.079C411.786 396.801 411.786 385.301 411.786 385.301C412.689 370.728 412.985 364.737 412.985 364.877C412.985 365.017 443.945 361.32 452.309 321.501C456.467 301.701 455.688 274.474 454.52 247.668C452.994 210.596 427.235 188.19 397.473 188.221Z" fill="#FFBF9D"/>
<path d="M384.47 274.209C384.413 275.551 383.837 276.818 382.862 277.742C381.888 278.665 380.593 279.172 379.253 279.155C378.593 279.176 377.935 279.063 377.32 278.824C376.705 278.584 376.144 278.223 375.671 277.761C375.199 277.299 374.824 276.746 374.57 276.136C374.315 275.526 374.187 274.87 374.191 274.209C374.248 272.869 374.822 271.604 375.793 270.681C376.763 269.758 378.054 269.249 379.393 269.263C380.052 269.246 380.708 269.361 381.323 269.602C381.937 269.843 382.497 270.205 382.97 270.665C383.443 271.126 383.819 271.677 384.077 272.285C384.334 272.894 384.468 273.548 384.47 274.209Z" fill="#263238"/>
<path d="M437.233 275.55C437.181 276.89 436.607 278.156 435.635 279.077C434.663 279.999 433.37 280.502 432.032 280.481C431.376 280.5 430.722 280.387 430.11 280.15C429.498 279.913 428.939 279.555 428.467 279.099C427.994 278.643 427.617 278.097 427.357 277.493C427.097 276.889 426.961 276.239 426.955 275.582C427.011 274.239 427.588 272.972 428.562 272.048C429.536 271.125 430.831 270.618 432.172 270.636C432.829 270.615 433.484 270.726 434.097 270.964C434.71 271.202 435.27 271.56 435.742 272.019C436.214 272.477 436.589 273.026 436.846 273.633C437.102 274.24 437.234 274.892 437.233 275.55Z" fill="#263238"/>
<path d="M449.256 258.294C448.587 258.933 444.849 255.859 439.32 255.594C433.791 255.329 429.602 257.903 429.026 257.155C428.746 256.842 429.462 255.594 431.284 254.471C433.763 252.929 436.656 252.189 439.569 252.349C442.441 252.491 445.194 253.54 447.434 255.345C449.069 256.764 449.583 258.013 449.256 258.294Z" fill="#263238"/>
<path d="M394.436 256.406C393.704 256.983 390.278 253.535 384.812 252.692C379.345 251.85 374.907 253.987 374.424 253.223C374.175 252.879 375 251.787 376.947 250.773C379.566 249.499 382.515 249.069 385.388 249.54C388.236 249.967 390.876 251.29 392.926 253.316C394.405 254.877 394.794 256.156 394.436 256.406Z" fill="#263238"/>
<path d="M412.502 299.173C412.502 298.861 415.959 298.424 421.566 298.003C422.983 298.003 424.338 297.707 424.68 296.755C424.878 295.298 424.622 293.816 423.948 292.511L420.32 281.589C415.289 265.986 411.723 253.145 412.346 252.942C412.969 252.739 417.563 265.253 422.593 280.871C423.808 284.725 424.961 288.392 426.051 291.902C426.502 293.541 427.328 295.413 426.502 297.504C426.275 297.991 425.939 298.42 425.52 298.758C425.102 299.096 424.612 299.334 424.089 299.454C423.295 299.621 422.485 299.69 421.675 299.657C415.959 299.657 412.502 299.501 412.502 299.173Z" fill="#263238"/>
<path d="M413.016 364.908C394.132 364.257 375.801 358.364 360.065 347.885C360.065 347.885 372.15 376.345 412.439 374.598L413.016 364.908Z" fill="#FF9A6C"/>
<path d="M395.2 310.439C396.01 309.511 396.999 308.757 398.106 308.221C399.214 307.685 400.418 307.378 401.647 307.318C405.12 307.131 407.565 307.568 409.434 310.298C409.798 310.979 410.02 311.727 410.087 312.497C410.154 313.267 410.064 314.042 409.823 314.776C409.418 315.416 409.714 315.431 409.091 315.868C406.832 317.454 404.28 318.573 401.585 319.161C398.906 319.785 395.823 319.161 394.436 316.961C393.889 315.924 393.669 314.745 393.806 313.581C393.942 312.416 394.428 311.32 395.2 310.439Z" fill="#FF9A6C"/>
<path d="M395.761 230.973C395.06 232.393 390.294 230.973 384.438 230.832C378.583 230.692 373.708 231.769 373.148 230.318C372.898 229.615 373.926 228.336 376.013 227.197C378.708 225.799 381.717 225.121 384.75 225.231C387.747 225.288 390.675 226.138 393.238 227.696C395.2 228.96 396.072 230.302 395.761 230.973Z" fill="#263238"/>
<path d="M448.462 248.276C447.434 249.478 443.681 247.996 439.118 247.699C434.555 247.403 430.615 248.12 429.774 246.763C429.415 246.092 430.085 244.875 431.845 243.767C434.177 242.415 436.872 241.826 439.554 242.082C442.239 242.271 444.8 243.285 446.889 244.984C448.462 246.357 448.929 247.684 448.462 248.276Z" fill="#263238"/>
<path d="M329.961 288.251C329.961 288.251 351.235 293.4 381.355 228.274C391.696 206.086 411.646 183.712 411.646 183.712L392.957 180.997C392.957 180.997 337.094 196.803 336.191 197.505C335.288 198.207 322.175 226.432 322.175 226.432L329.961 288.251Z" fill="#263238"/>
<path d="M336.923 285.645C337.063 282.65 333.964 275.441 331.052 274.833C323.265 273.272 309.031 273.132 307.894 293.135C306.336 320.487 334.073 316.399 334.167 315.619C334.26 314.838 336.44 295.959 336.923 285.645Z" fill="#FFBF9D"/>
<path d="M326.426 304.79C326.301 304.697 325.927 305.087 325.102 305.414C323.941 305.831 322.665 305.786 321.536 305.29C318.717 304.057 316.552 299.329 316.692 294.368C316.761 292.022 317.346 289.72 318.405 287.627C318.711 286.793 319.213 286.045 319.869 285.447C320.525 284.849 321.316 284.42 322.174 284.194C322.73 284.083 323.307 284.168 323.807 284.435C324.307 284.703 324.699 285.136 324.915 285.661C325.242 286.457 325.024 286.987 325.18 287.034C325.336 287.081 325.787 286.613 325.631 285.474C325.512 284.788 325.166 284.162 324.65 283.695C323.929 283.091 323.003 282.789 322.065 282.853C320.93 283.011 319.854 283.458 318.94 284.152C318.027 284.846 317.306 285.763 316.848 286.816C315.556 289.116 314.845 291.698 314.777 294.336C314.636 299.86 317.159 305.18 321.006 306.553C321.728 306.806 322.497 306.894 323.257 306.81C324.017 306.727 324.748 306.474 325.398 306.07C326.332 305.414 326.504 304.837 326.426 304.79Z" fill="#FF9A6C"/>
<path d="M412.175 314.355C412.082 313.653 407.503 313.746 401.881 312.685C396.259 311.624 392.023 309.861 391.696 310.485C391.368 311.109 395.449 313.965 401.429 315.073C407.409 316.18 412.284 314.979 412.175 314.355Z" fill="#263238"/>
<path d="M178.32 523.527C178.32 523.527 155.458 503.899 148.824 503.384C142.189 502.869 124.778 506.099 124.778 506.099C124.778 506.099 113.767 506.192 108.301 505.506C102.594 504.597 96.7607 504.884 91.1698 506.349C89.519 506.848 87.4477 511.029 92.3067 513.76C94.3624 514.946 114.359 516.303 114.359 516.303L64.3363 530.627L70.8305 535.994C71.7058 536.725 72.8056 537.133 73.9453 537.149L145.974 539.708L149.275 547.774L178.32 523.527Z" fill="#FFBF9D"/>
<path d="M123.719 523.543H100.358C100.358 523.543 92.1664 512.621 89.2074 508.096C86.6066 504.117 83.4918 502.963 80.7664 503.899C80.0579 504.155 79.4659 504.659 79.1001 505.319C78.8397 505.797 78.7033 506.334 78.7033 506.879C78.7033 507.424 78.8397 507.961 79.1001 508.439L89.3787 527.662L83.9902 525.837C83.9902 525.837 73.2132 515.258 71.1108 512.808C69.0083 510.359 61.346 500.061 54.5559 507.566L63.9001 518.051L54.5559 511.42C54.5559 511.42 47.0493 504.944 43.0469 512.637L71.0796 536.291" fill="#FFBF9D"/>
<path d="M148.045 513.838C147.741 513.712 147.429 513.608 147.11 513.526C146.212 513.213 145.283 512.998 144.338 512.886C140.803 512.396 137.201 512.771 133.842 513.978C131.493 514.784 129.233 515.829 127.098 517.099C125.946 517.785 124.778 518.519 123.594 519.346L121.819 520.61C121.258 521.015 120.557 521.546 120.106 521.795C114.188 522.263 107.429 522.654 100.327 523.153L100.67 523.293C98.4738 520.688 96.3246 517.863 94.2378 514.899C93.4124 513.744 92.6804 512.59 91.8861 511.419C91.0919 510.249 90.4222 509.079 89.5812 507.971C88.7841 506.834 87.865 505.787 86.8403 504.851C86.3247 504.388 85.7546 503.989 85.1427 503.665C84.493 503.287 83.7412 503.123 82.9935 503.197H83.1337C82.4903 503.093 81.8328 503.118 81.1992 503.27C80.5655 503.423 79.9685 503.7 79.4427 504.086C78.9784 504.531 78.625 505.079 78.4113 505.687C78.1976 506.294 78.1294 506.943 78.2124 507.581V507.659L89.5501 527.943C89.8825 528.926 90.4234 529.826 91.1359 530.58C91.8483 531.334 92.7152 531.925 93.6771 532.312C95.0715 532.888 96.5607 533.201 98.0689 533.232C98.9974 533.282 99.928 533.282 100.857 533.232L101.822 533.139C101.502 533.098 101.177 533.098 100.857 533.139C100.234 533.139 99.2992 533.139 98.0844 533.014C96.6239 532.928 95.19 532.584 93.8484 532C92.9752 531.62 92.192 531.06 91.5504 530.355C90.9089 529.65 90.4236 528.818 90.1263 527.912L78.9911 507.456V507.581C78.9255 507.066 78.98 506.543 79.1502 506.053C79.3205 505.563 79.6018 505.12 79.9722 504.757C80.8802 504.127 81.999 503.881 83.087 504.07H83.2271C83.773 504.08 84.3079 504.225 84.7845 504.492C85.3422 504.791 85.8646 505.152 86.3419 505.568C87.3264 506.45 88.2092 507.439 88.9738 508.517C90.5312 510.686 91.9484 513.198 93.646 515.429C95.7484 518.41 97.9131 521.249 100.14 523.871L100.265 524.027H100.467C107.6 523.512 114.234 523.09 120.339 522.56C121.034 522.181 121.691 521.737 122.302 521.234L124.061 519.97C125.214 519.143 126.366 518.41 127.488 517.707C129.582 516.454 131.794 515.409 134.091 514.587C137.37 513.361 140.888 512.912 144.37 513.276C145.307 513.357 146.235 513.524 147.142 513.775C147.44 513.829 147.742 513.85 148.045 513.838Z" fill="#FF9A6C"/>
<path d="M54.509 507.565C54.7447 508.039 55.049 508.476 55.4122 508.86C56.0508 509.656 56.9696 510.78 58.1376 512.168C60.4425 514.93 63.6975 518.721 67.3106 522.872C70.9237 527.022 74.054 530.954 76.7482 533.419C77.7781 534.423 78.905 535.322 80.1122 536.103C80.546 536.411 81.0312 536.638 81.5449 536.774C81.1492 536.43 80.7274 536.117 80.2835 535.838C79.1793 534.972 78.1384 534.028 77.1687 533.014C74.6302 530.47 71.6712 526.461 67.9646 522.357C64.2581 518.253 61.0188 514.462 58.6204 511.794C57.4057 510.452 56.4245 509.375 55.7237 508.673C55.3627 508.258 54.9551 507.887 54.509 507.565Z" fill="#FF9A6C"/>
<path d="M67.3259 508.673C68.1566 509.879 69.1062 510.997 70.1604 512.012C71.9825 514.01 74.5522 516.693 77.4177 519.673C79.7693 522.107 81.9652 524.354 83.6472 526.055H83.7251C85.581 526.807 87.5211 527.331 89.5029 527.615C89.0025 527.363 88.4815 527.154 87.9456 526.991L83.8653 525.431L83.9898 525.524C82.3079 523.715 80.1587 521.452 77.7603 519.018C74.8948 516.054 72.2628 513.401 70.3317 511.513C69.4149 510.48 68.4091 509.53 67.3259 508.673Z" fill="#FF9A6C"/>
<path d="M255.831 407.098C255.831 407.098 222.254 415.758 218.968 461.49C217.084 487.531 230.929 571.21 230.929 571.21L181.342 520.188L137.144 551.004C137.144 551.004 197.274 624.65 211.134 635.712C224.995 646.775 247.11 664.593 254.305 663.158C261.5 661.722 261.437 628.488 261.437 628.488V445.107L255.831 407.098Z" fill="#7630A1"/>
<path d="M497.223 412.684C497.223 412.684 527.093 422.53 525.878 480.994C524.664 539.458 525.614 559.133 525.614 559.133L570.388 511.669L607.578 552.767C607.578 552.767 565.965 614.695 536.858 644.824C509.417 673.19 485.029 648.553 477.102 628.613C470.685 612.464 465.515 551.051 465.515 551.051L497.223 412.684Z" fill="#7630A1"/>
<g opacity="0.3">
<path d="M253.23 512.418C250.536 495.255 249.804 476.656 257.606 460.928C276.746 508.346 275.89 562.769 269.037 613.01L253.868 656.48C244.306 627.365 253.401 596.362 253.183 565.983C253.059 548.632 255.924 529.519 253.23 512.418Z" fill="black"/>
</g>
<path d="M503.437 449.913C503.437 449.913 483.471 584.488 479.609 596.268C475.746 608.048 475.746 642.78 475.746 642.78C475.746 642.78 478.332 637.946 479.609 665.204H262.355L261.982 597.906C262.503 590.851 262.628 583.772 262.355 576.702C261.296 557.042 259.786 514.852 254.148 488.936C247.607 458.791 256.422 407.192 256.422 407.192L331.814 388.594C349.662 414.276 394.187 414.635 411.738 388.594L496.833 412.684L503.437 449.913Z" fill="#7630A1"/>
<path d="M257.029 592.508C256.842 592.072 256.59 591.667 256.282 591.306C255.752 590.573 254.958 589.528 253.961 588.186C251.367 584.807 248.468 581.673 245.302 578.824C242.081 576.044 238.484 573.733 234.619 571.959C233.061 571.288 231.909 570.789 231.052 570.508C230.614 570.318 230.154 570.187 229.682 570.118C229.511 570.445 237.329 572.957 244.773 579.479C247.895 582.284 250.82 585.303 253.525 588.514C254.597 589.927 255.768 591.262 257.029 592.508Z" fill="#263238"/>
<path d="M490.76 589.715C490.915 589.715 491.492 586.969 493.407 582.865C495.895 577.519 499.495 572.769 503.966 568.932C508.482 565.145 513.747 562.358 519.415 560.756C523.776 559.554 526.61 559.43 526.595 559.196C525.932 559.124 525.264 559.124 524.601 559.196C522.804 559.351 521.023 559.654 519.275 560.1C513.442 561.534 508.021 564.305 503.44 568.196C498.859 572.087 495.243 576.991 492.878 582.522C492.163 584.186 491.575 585.902 491.118 587.655C490.916 588.325 490.796 589.016 490.76 589.715Z" fill="#263238"/>
<path d="M489.14 516.787C489.554 516.647 489.943 516.442 490.292 516.178C490.993 515.726 491.99 515.039 493.189 514.15C496.286 511.788 499.187 509.179 501.864 506.348C504.523 503.517 507.013 500.532 509.323 497.408C510.358 496.171 511.266 494.833 512.033 493.414C510.902 494.542 509.861 495.758 508.918 497.049C507.018 499.343 504.402 502.51 501.303 505.802C498.646 508.603 495.828 511.244 492.862 513.713C491.568 514.671 490.326 515.697 489.14 516.787Z" fill="#263238"/>
<path d="M312.955 589.621C312.955 589.621 312.955 589.746 313.157 589.933C313.36 590.12 313.547 590.448 313.827 590.791C314.434 591.54 315.26 592.679 316.474 594.021C319.845 597.887 323.488 601.506 327.376 604.85C333.16 609.799 339.32 614.291 345.8 618.284C353.723 623.172 361.912 627.615 370.328 631.593C379.268 635.868 387.895 639.66 395.713 643.17C403.531 646.681 410.524 649.926 416.302 652.844C422.08 655.762 426.69 658.258 429.835 660.068C431.393 660.958 432.608 661.629 433.433 662.159L434.383 662.69L434.726 662.861C434.638 662.77 434.539 662.691 434.43 662.627L433.526 662.019C432.717 661.519 431.549 660.724 429.991 659.803C426.876 657.899 422.329 655.309 416.567 652.329C410.804 649.349 403.812 646.088 396.009 642.484C388.207 638.879 379.595 635.119 370.686 630.86C362.294 626.891 354.116 622.479 346.189 617.644C339.721 613.702 333.557 609.279 327.75 604.413C323.834 601.125 320.135 597.586 316.677 593.818C315.431 592.508 314.559 591.4 313.92 590.698L313.188 589.886L312.955 589.621Z" fill="#263238"/>
<g opacity="0.3">
<path d="M491.928 481.883C496.233 524.975 491.245 568.491 477.304 609.484L491.928 481.883Z" fill="black"/>
</g>
<g opacity="0.3">
<path d="M335.754 630.969C354.879 648.569 374.066 663.61 397.598 671.989C379.859 673.549 361.965 666.7 348.26 655.341C334.555 643.982 324.791 631.936 318.514 615.288L335.754 630.969Z" fill="black"/>
</g>
<path d="M357.542 650.363C357.698 650.192 345.8 639.254 330.974 625.945C316.147 612.635 304 601.963 303.86 602.119C303.72 602.275 315.602 613.228 330.429 626.538C345.255 639.847 357.387 650.519 357.542 650.363Z" fill="#263238"/>
<path d="M315.244 320.143C315.244 322.079 315.817 323.971 316.891 325.58C317.964 327.189 319.49 328.443 321.276 329.183C323.061 329.923 325.025 330.116 326.919 329.737C328.814 329.359 330.554 328.425 331.919 327.055C333.284 325.686 334.213 323.941 334.588 322.042C334.963 320.144 334.767 318.176 334.026 316.389C333.284 314.601 332.03 313.075 330.422 312.002C328.815 310.928 326.925 310.357 324.993 310.36C323.712 310.36 322.443 310.614 321.259 311.105C320.075 311.597 318.999 312.318 318.094 313.227C317.188 314.135 316.471 315.214 315.982 316.401C315.493 317.588 315.242 318.859 315.244 320.143Z" fill="#FE8900"/>
<path d="M257.138 448.633C260.014 424.709 262.89 400.784 265.766 376.86L327.516 358.136C328.715 400.826 336.175 448.774 346.89 490.106C324.046 497.509 299.905 500.023 276.029 497.486C274.991 485.94 273.953 474.394 272.915 462.848C271.368 471.554 269.81 480.26 268.242 488.967C261.764 485.316 257.948 478.045 256.656 470.743C255.363 463.44 256.251 456.013 257.138 448.633Z" fill="#263238"/>
<path d="M305.464 497.814C305.464 497.814 305.464 497.502 305.277 496.909C305.09 496.316 304.934 495.348 304.669 494.272L302.302 484.177C300.278 475.408 297.288 462.707 294.375 446.87C290.829 428.327 288.581 409.557 287.647 390.7C286.462 367.635 288.56 344.519 293.877 322.047C299.141 299.526 308.881 278.3 322.517 259.635C324.074 257.529 325.632 255.391 327.392 253.472C329.151 251.553 330.662 249.509 332.422 247.715L334.991 244.984L337.608 242.394C339.321 240.647 341.096 239.04 342.809 237.401C349.74 230.973 356.514 225.325 362.573 220.02C368.631 214.715 374.05 209.831 378.52 205.259C379.657 204.136 380.685 202.981 381.635 201.905C382.585 200.828 383.628 199.767 384.5 198.784L387.07 195.804L389.266 192.98C390.699 191.232 391.773 189.547 392.786 188.127C393.798 186.707 394.545 185.459 395.153 184.445L396.601 182.151C396.913 181.621 397.053 181.34 397.053 181.34C397.053 181.34 396.866 181.59 396.539 182.105L395.09 184.383C394.468 185.397 393.689 186.629 392.661 188.034C391.633 189.438 390.543 191.154 389.095 192.824L386.883 195.601L384.298 198.55C383.41 199.595 382.445 200.656 381.401 201.671C380.358 202.685 379.345 203.886 378.193 204.994C373.708 209.535 368.273 214.356 362.199 219.661C356.125 224.966 349.335 230.583 342.358 236.964C340.645 238.603 338.838 240.21 337.125 241.957L334.493 244.563L331.908 247.294C330.132 249.088 328.528 251.101 326.831 253.067C325.133 255.033 323.545 257.139 321.91 259.308C308.187 278.041 298.387 299.36 293.098 321.985C287.748 344.531 285.65 367.729 286.869 390.871C287.834 409.736 290.145 428.507 293.783 447.042C296.774 462.879 299.842 475.564 301.96 484.317C303.034 488.686 303.891 492.119 304.483 494.381C304.779 495.504 305.012 496.378 305.168 496.987C305.324 497.595 305.464 497.814 305.464 497.814Z" fill="#455A64"/>
</g>
<defs>
<filter id="filter0_i_298_634" x="0.81543" y="0.0646973" width="738.186" height="698.12" filterUnits="userSpaceOnUse" color-interpolation-filters="sRGB">
<feFlood flood-opacity="0" result="BackgroundImageFix"/>
<feBlend mode="normal" in="SourceGraphic" in2="BackgroundImageFix" result="shape"/>
<feColorMatrix in="SourceAlpha" type="matrix" values="0 0 0 0 0 0 0 0 0 0 0 0 0 0 0 0 0 0 127 0" result="hardAlpha"/>
<feOffset/>
<feGaussianBlur stdDeviation="29"/>
<feComposite in2="hardAlpha" operator="arithmetic" k2="-1" k3="1"/>
<feColorMatrix type="matrix" values="0 0 0 0 0.183333 0 0 0 0 0.0397222 0 0 0 0 0.0397222 0 0 0 0.26 0"/>
<feBlend mode="normal" in2="shape" result="effect1_innerShadow_298_634"/>
</filter>
<linearGradient id="paint0_linear_298_634" x1="827.98" y1="156.574" x2="-84.3806" y2="591.471" gradientUnits="userSpaceOnUse">
<stop stop-color="#FC79FF"/>
<stop offset="1" stop-color="#FEA500"/>
</linearGradient>
<clipPath id="clip0_298_634">
<rect width="660.73" height="666.275" fill="white" transform="matrix(-1 0 0 1 703.73 43.2856)"/>
</clipPath>
</defs>
</svg>
