<svg width="27" height="27" viewBox="0 0 27 27" fill="none" xmlns="http://www.w3.org/2000/svg">
<path fill-rule="evenodd" clip-rule="evenodd" d="M0.8503 1.48954C0.143336 2.19651 0.143335 3.34272 0.850298 4.04968L11.091 14.2903L1.49025 23.891C0.783282 24.598 0.783283 25.7442 1.49025 26.4512C2.19721 27.1581 3.34342 27.1581 4.05039 26.4512L13.6511 16.8505L23.2515 26.4509C23.9585 27.1579 25.1047 27.1579 25.8117 26.4509C26.5186 25.744 26.5186 24.5977 25.8117 23.8908L16.2112 14.2903L26.4516 4.04995C27.1586 3.34298 27.1586 2.19677 26.4516 1.4898C25.7447 0.782841 24.5985 0.782839 23.8915 1.4898L13.6511 11.7302L3.41044 1.48954C2.70348 0.782581 1.55726 0.78258 0.8503 1.48954Z" fill="url(#paint0_linear_295_526)"/>
<defs>
<linearGradient id="paint0_linear_295_526" x1="-2.5" y1="24.5" x2="29.9263" y2="-3.16961" gradientUnits="userSpaceOnUse">
<stop stop-color="#7630A1"/>
<stop offset="1" stop-color="#D722F5"/>
</linearGradient>
</defs>
</svg>
