<svg width="24" height="23" viewBox="0 0 24 23" fill="none" xmlns="http://www.w3.org/2000/svg">
<path fill-rule="evenodd" clip-rule="evenodd" d="M1.3252 0.868645C0.724943 1.4689 0.724942 2.44212 1.3252 3.04238L10.0202 11.7374L1.86876 19.8889C1.2685 20.4891 1.2685 21.4623 1.86876 22.0626C2.46902 22.6629 3.44223 22.6629 4.04249 22.0626L12.194 13.9111L20.3454 22.0625C20.9456 22.6628 21.9188 22.6628 22.5191 22.0625C23.1194 21.4623 23.1194 20.4891 22.5191 19.8888L14.3677 11.7374L23.0627 3.04245C23.6629 2.44219 23.6629 1.46897 23.0627 0.868715C22.4624 0.268456 21.4892 0.268455 20.8889 0.868715L12.194 9.56367L3.49894 0.868645C2.89868 0.268385 1.92546 0.268386 1.3252 0.868645Z" fill="url(#paint0_linear_324_8)"/>
<defs>
<linearGradient id="paint0_linear_324_8" x1="-1.51925" y1="20.4059" x2="26.0129" y2="-3.08747" gradientUnits="userSpaceOnUse">
<stop stop-color="#FE5B00"/>
<stop offset="1" stop-color="#FBA11B"/>
</linearGradient>
</defs>
</svg>
