<svg width="36" height="36" viewBox="0 0 36 36" fill="none" xmlns="http://www.w3.org/2000/svg">
<path fill-rule="evenodd" clip-rule="evenodd" d="M-7.5175e-07 18.4138C-7.08047e-07 19.4136 0.810493 20.2241 1.81029 20.2241L16.2928 20.2241L16.2928 33.8015C16.2928 34.8013 17.1033 35.6118 18.1031 35.6118C19.1029 35.6118 19.9133 34.8013 19.9133 33.8015L19.9133 20.2241L33.4904 20.2241C34.4902 20.2241 35.3007 19.4136 35.3007 18.4138C35.3007 17.414 34.4902 16.6035 33.4904 16.6035L19.9134 16.6035L19.9133 2.12139C19.9133 1.12159 19.1029 0.311092 18.1031 0.311092C17.1033 0.311092 16.2928 1.12159 16.2928 2.12138L16.2928 16.6035L1.81029 16.6035C0.810495 16.6035 -7.95453e-07 17.414 -7.5175e-07 18.4138Z" fill="url(#paint0_linear_295_395)"/>
<defs>
<linearGradient id="paint0_linear_295_395" x1="13.9018" y1="37.0537" x2="17.2653" y2="-5.44059" gradientUnits="userSpaceOnUse">
<stop stop-color="#FE5B00"/>
<stop offset="1" stop-color="#FBA11B"/>
</linearGradient>
</defs>
</svg>
