<svg width="849" height="1366" viewBox="0 0 849 1366" fill="none" xmlns="http://www.w3.org/2000/svg">
<g filter="url(#filter0_i_494_1708)">
<path fill-rule="evenodd" clip-rule="evenodd" d="M849 0.81817V1366H58.6966C54.8804 1351.32 51.5885 1336.23 48.8532 1320.71C-39.3934 820.168 278.545 729.908 357.399 707.521C363.296 705.847 367.855 704.553 370.808 703.495C413.252 688.287 450.544 639.599 466.827 431.159C501.684 88.8839 672.194 -6.15982 849 0.81817Z" fill="url(#paint0_linear_494_1708)"/>
</g>
<path fill-rule="evenodd" clip-rule="evenodd" d="M683.225 1366H614.401C505.915 1320.07 364.767 1227.1 419.274 1108.66C447.018 1048.38 492.813 1021.96 532.514 999.051C563.62 981.105 590.986 965.317 602.998 937.089C613.293 912.895 606.551 876.282 598.697 833.627C585.691 762.998 569.636 675.805 622.824 601C681.917 517.891 781.187 522.827 849.002 528.61V870.132L712.242 1116.77L769.128 1296.19C738.486 1320.86 708.429 1345.33 683.225 1366Z" fill="url(#paint1_linear_494_1708)"/>
<mask id="mask0_494_1708" style="mask-type:luminance" maskUnits="userSpaceOnUse" x="0" y="474" width="822" height="822">
<path d="M0 474H822V1296H0V474Z" fill="white"/>
</mask>
<g mask="url(#mask0_494_1708)">
<path d="M269.318 539.629L220.613 522.405L172.381 539.395C166.223 542.261 160.822 543.976 160.822 549.624V577.748C160.822 597.277 166.019 616.632 176.71 633.718C185.707 648.098 199.639 662.902 221.086 672.313C240.801 666.006 255.517 649.195 264.514 634.816C275.207 617.729 280.404 598.375 280.404 578.845V553.553C280.404 545.498 276.068 541.565 269.318 539.629Z" fill="#FF8A00" fill-opacity="0.35"/>
<path d="M236.79 585.031C236.79 577.583 230.752 571.545 223.304 571.545C215.857 571.545 209.82 577.583 209.82 585.031C209.82 591.194 213.98 596.335 219.627 597.944V618.106H226.984V597.943C232.631 596.333 236.79 591.194 236.79 585.031Z" fill="#FF8A00" fill-opacity="0.57"/>
</g>
<mask id="mask1_494_1708" style="mask-type:luminance" maskUnits="userSpaceOnUse" x="0" y="474" width="822" height="822">
<path d="M0 474H822V1296H0V474Z" fill="white"/>
</mask>
<g mask="url(#mask1_494_1708)">
<path d="M617.662 845.144H323.986C318.03 845.144 313.201 840.314 313.201 834.358V564.17C313.201 558.213 318.03 553.385 323.986 553.385H617.662C623.62 553.385 628.448 558.213 628.448 564.17V834.358C628.448 840.314 623.62 845.144 617.662 845.144Z" fill="white"/>
<path d="M617.662 845.144C617.662 845.144 617.923 845.116 618.438 845.082C618.951 845.047 619.719 844.94 620.695 844.659C621.66 844.357 622.842 843.86 624.047 842.956C625.241 842.057 626.479 840.753 627.314 838.954C628.245 837.176 628.435 834.932 628.342 832.475C628.335 830.018 628.328 827.331 628.32 824.422C628.31 818.598 628.297 811.881 628.282 804.32C628.249 774.061 628.203 730.296 628.146 676.218C628.129 649.174 628.111 619.554 628.093 587.756C628.078 579.814 628.064 571.735 628.049 563.529C627.858 559.545 625.111 555.798 621.3 554.422C619.413 553.638 617.35 553.765 615.232 553.758C613.131 553.76 611.022 553.762 608.905 553.762C591.965 553.768 574.533 553.773 556.657 553.78C485.149 553.79 406.533 553.801 324.014 553.814C321.532 553.816 319.076 554.725 317.21 556.349C315.329 557.955 314.071 560.26 313.746 562.702C313.575 563.902 313.642 565.197 313.629 566.478V570.315C313.627 572.871 313.627 575.423 313.627 577.969C313.627 588.161 313.627 598.283 313.626 608.331C313.624 628.429 313.622 648.231 313.621 667.691C313.611 706.606 313.603 744.143 313.594 779.904C313.59 797.782 313.583 815.217 313.576 832.158C313.586 833.21 313.548 834.294 313.624 835.293C313.736 836.304 313.941 837.309 314.333 838.246C315.09 840.132 316.411 841.766 318.064 842.918C319.722 844.064 321.703 844.717 323.705 844.761C325.772 844.766 327.83 844.773 329.882 844.778C338.097 844.781 346.183 844.786 354.134 844.789C385.934 844.807 415.555 844.825 442.599 844.842C496.677 844.899 540.438 844.945 570.695 844.976C585.81 845.013 597.548 845.039 605.52 845.057C609.493 845.075 612.526 845.09 614.576 845.1C616.617 845.115 617.662 845.144 617.662 845.144C617.662 845.144 616.617 845.174 614.576 845.187C612.526 845.197 609.493 845.212 605.52 845.23C597.548 845.248 585.81 845.276 570.695 845.31C540.438 845.343 496.677 845.389 442.599 845.447C415.555 845.463 385.934 845.48 354.134 845.499C346.183 845.503 338.097 845.506 329.882 845.511C327.823 845.506 325.758 845.503 323.685 845.498C321.543 845.452 319.418 844.755 317.64 843.53C315.868 842.297 314.453 840.546 313.639 838.527C313.22 837.521 312.996 836.442 312.876 835.361C312.795 834.254 312.835 833.223 312.825 832.158C312.819 815.217 312.812 797.782 312.805 779.904C312.799 744.143 312.791 706.606 312.781 667.691C312.779 648.231 312.777 628.429 312.774 608.331C312.774 598.283 312.774 588.161 312.772 577.969V570.315V566.478C312.789 565.204 312.713 563.923 312.897 562.582C313.253 559.938 314.615 557.441 316.649 555.703C318.665 553.944 321.333 552.958 324.014 552.958C406.533 552.969 485.149 552.981 556.657 552.991C574.533 552.997 591.965 553.002 608.905 553.009C611.022 553.01 613.131 553.01 615.232 553.012C617.289 553.018 619.533 552.884 621.56 553.727C625.642 555.205 628.58 559.22 628.78 563.483C628.789 571.706 628.795 579.799 628.802 587.756C628.785 619.554 628.767 649.174 628.751 676.218C628.693 730.296 628.647 774.061 628.614 804.32C628.6 811.881 628.588 818.598 628.577 824.422C628.568 827.331 628.562 830.018 628.555 832.475C628.637 834.91 628.43 837.241 627.469 839.028C626.609 840.85 625.343 842.162 624.126 843.06C622.9 843.965 621.697 844.452 620.718 844.743C619.732 845.013 618.956 845.106 618.441 845.126C617.923 845.146 617.662 845.144 617.662 845.144Z" fill="#1A2E35"/>
<path d="M336.992 573.605C336.992 576.615 334.552 579.055 331.542 579.055C328.531 579.055 326.092 576.615 326.092 573.605C326.092 570.595 328.531 568.155 331.542 568.155C334.552 568.155 336.992 570.595 336.992 573.605Z" fill="#1A2E35"/>
<path d="M352.909 573.605C352.909 576.615 350.47 579.055 347.46 579.055C344.449 579.055 342.01 576.615 342.01 573.605C342.01 570.595 344.449 568.155 347.46 568.155C350.47 568.155 352.909 570.595 352.909 573.605Z" fill="#1A2E35"/>
<path d="M368.827 573.605C368.827 576.615 366.388 579.055 363.378 579.055C360.367 579.055 357.928 576.615 357.928 573.605C357.928 570.595 360.367 568.155 363.378 568.155C366.388 568.155 368.827 570.595 368.827 573.605Z" fill="#1A2E35"/>
<path d="M628.448 589.066C628.448 589.303 557.871 589.493 470.833 589.493C383.763 589.493 313.201 589.303 313.201 589.066C313.201 588.829 383.763 588.639 470.833 588.639C557.871 588.639 628.448 588.829 628.448 589.066Z" fill="#1A2E35"/>
<path d="M515.356 698.973C515.356 698.973 515.48 698.799 515.732 698.465C515.798 698.383 515.868 698.289 515.944 698.187C516.016 698.081 516.081 697.952 516.159 697.819C516.312 697.55 516.501 697.245 516.638 696.861C516.713 696.672 516.802 696.474 516.878 696.262C516.939 696.042 517.003 695.812 517.069 695.57C517.146 695.33 517.187 695.07 517.228 694.799C517.263 694.528 517.337 694.25 517.346 693.953C517.473 692.769 517.394 691.386 517.159 689.862C516.687 686.804 515.39 683.201 513.404 679.286C511.42 675.362 508.691 671.142 505.337 666.744C501.982 662.343 497.947 657.798 493.311 653.234C488.668 648.675 483.413 644.097 477.521 639.756C474.573 637.591 471.466 635.49 468.188 633.511C464.913 631.527 461.462 629.677 457.82 628.076C454.179 626.493 450.337 625.112 446.285 624.459C444.266 624.147 442.183 623.997 440.134 624.308C439.112 624.464 438.109 624.743 437.162 625.168C436.231 625.621 435.377 626.226 434.668 626.992C433.989 627.782 433.481 628.699 433.134 629.675C432.822 630.663 432.654 631.693 432.616 632.727C432.537 634.798 432.925 636.851 433.463 638.823C434.573 642.775 436.381 646.436 438.369 649.875C440.376 653.311 442.607 656.532 444.95 659.558C447.291 662.59 449.73 665.441 452.219 668.122C457.202 673.483 462.35 678.183 467.407 682.277C472.469 686.365 477.443 689.856 482.198 692.688C486.951 695.519 491.453 697.752 495.577 699.274C499.693 700.801 503.418 701.679 506.511 701.801C508.053 701.862 509.432 701.783 510.595 701.522C510.889 701.479 511.157 701.374 511.423 701.308C511.689 701.235 511.941 701.166 512.171 701.063C512.403 700.967 512.625 700.879 512.835 700.793C513.039 700.695 513.223 700.583 513.404 700.487C513.771 700.308 514.052 700.085 514.3 699.902C514.425 699.81 514.543 699.731 514.642 699.649C514.736 699.559 514.82 699.478 514.895 699.406C515.196 699.116 515.356 698.973 515.356 698.973C515.356 698.973 515.209 699.128 514.912 699.424C514.838 699.498 514.754 699.58 514.662 699.672C514.565 699.757 514.445 699.838 514.323 699.932C514.075 700.119 513.795 700.346 513.427 700.53C513.248 700.629 513.062 700.742 512.858 700.844C512.648 700.93 512.426 701.023 512.191 701.119C511.962 701.226 511.707 701.298 511.443 701.372C511.175 701.439 510.905 701.546 510.609 701.592C509.442 701.862 508.056 701.951 506.506 701.895C503.4 701.788 499.659 700.92 495.529 699.401C491.393 697.887 486.875 695.662 482.109 692.836C477.343 690.009 472.355 686.522 467.28 682.433C462.212 678.341 457.049 673.639 452.055 668.275C449.561 665.59 447.113 662.736 444.765 659.7C442.416 656.668 440.177 653.441 438.163 649.995C436.167 646.545 434.351 642.872 433.231 638.887C432.689 636.899 432.296 634.826 432.373 632.717C432.414 631.666 432.582 630.613 432.906 629.598C433.261 628.594 433.784 627.647 434.487 626.83C435.219 626.039 436.103 625.414 437.06 624.949C438.032 624.512 439.057 624.227 440.098 624.068C442.183 623.752 444.287 623.907 446.324 624.221C450.406 624.88 454.263 626.267 457.917 627.857C461.567 629.467 465.028 631.323 468.308 633.312C471.591 635.298 474.703 637.404 477.654 639.577C483.551 643.929 488.81 648.521 493.453 653.091C498.09 657.668 502.121 662.225 505.473 666.639C508.824 671.052 511.55 675.287 513.524 679.224C515.503 683.155 516.791 686.773 517.251 689.847C517.483 691.38 517.554 692.769 517.417 693.959C517.407 694.258 517.33 694.538 517.294 694.811C517.249 695.084 517.207 695.345 517.128 695.585C517.059 695.827 516.993 696.06 516.93 696.279C516.852 696.494 516.76 696.69 516.684 696.88C516.544 697.265 516.349 697.569 516.191 697.839C516.112 697.97 516.044 698.097 515.97 698.204C515.89 698.306 515.817 698.398 515.752 698.482C515.494 698.809 515.356 698.973 515.356 698.973Z" fill="#FF7A00"/>
<path d="M530.279 662.949C530.279 662.949 530.256 662.735 530.223 662.319C530.215 662.216 530.205 662.097 530.195 661.969C530.177 661.842 530.141 661.704 530.11 661.551C530.044 661.251 529.985 660.895 529.83 660.517C529.761 660.328 529.697 660.121 529.61 659.911C529.508 659.709 529.403 659.493 529.291 659.27C529.191 659.039 529.048 658.817 528.898 658.589C528.744 658.362 528.612 658.106 528.421 657.877C527.729 656.909 526.751 655.929 525.559 654.949C523.17 652.983 519.805 651.156 515.718 649.557C511.625 647.949 506.78 646.616 501.348 645.565C495.916 644.516 489.879 643.809 483.382 643.49C476.884 643.18 469.911 643.26 462.627 643.943C458.985 644.288 455.267 644.791 451.503 645.494C447.74 646.195 443.933 647.112 440.148 648.34C436.379 649.581 432.593 651.11 429.134 653.32C427.421 654.431 425.765 655.705 424.442 657.302C423.786 658.099 423.22 658.975 422.798 659.922C422.406 660.881 422.17 661.902 422.152 662.944C422.168 663.985 422.401 665.007 422.793 665.966C423.217 666.913 423.777 667.79 424.437 668.589C425.757 670.186 427.414 671.46 429.127 672.573C432.586 674.784 436.372 676.313 440.145 677.556C443.93 678.784 447.737 679.703 451.502 680.402C455.265 681.107 458.985 681.608 462.627 681.955C469.913 682.637 476.884 682.718 483.384 682.407C489.883 682.088 495.919 681.381 501.351 680.331C506.781 679.28 511.628 677.949 515.72 676.339C519.807 674.74 523.172 672.915 525.561 670.947C526.751 669.967 527.729 668.987 528.421 668.019C528.614 667.792 528.744 667.536 528.898 667.309C529.049 667.079 529.191 666.858 529.291 666.628C529.403 666.403 529.51 666.189 529.61 665.985C529.697 665.775 529.761 665.569 529.83 665.379C529.985 665.001 530.044 664.647 530.11 664.345C530.141 664.193 530.177 664.055 530.195 663.927C530.205 663.799 530.215 663.682 530.223 663.578C530.256 663.163 530.279 662.949 530.279 662.949C530.279 662.949 530.272 663.163 530.246 663.58C530.243 663.685 530.235 663.802 530.226 663.932C530.21 664.06 530.175 664.2 530.148 664.353C530.085 664.655 530.029 665.012 529.876 665.395C529.809 665.586 529.745 665.795 529.661 666.007C529.561 666.212 529.455 666.429 529.347 666.656C529.245 666.888 529.104 667.111 528.954 667.343C528.803 667.572 528.671 667.832 528.48 668.062C527.788 669.042 526.813 670.03 525.62 671.019C523.231 673.008 519.861 674.85 515.769 676.466C511.674 678.09 506.821 679.437 501.384 680.499C495.944 681.562 489.901 682.281 483.392 682.608C476.885 682.928 469.905 682.854 462.605 682.177C458.957 681.833 455.232 681.334 451.459 680.63C447.686 679.931 443.867 679.012 440.071 677.783C436.285 676.537 432.484 675.004 428.997 672.777C427.268 671.654 425.594 670.368 424.249 668.742C423.579 667.932 423.005 667.034 422.569 666.063C422.166 665.075 421.926 664.019 421.908 662.942C421.926 661.865 422.17 660.812 422.574 659.827C423.008 658.854 423.587 657.958 424.256 657.147C425.602 655.523 427.274 654.237 429.002 653.116C432.491 650.89 436.29 649.36 440.074 648.113C443.87 646.884 447.689 645.965 451.461 645.268C455.234 644.562 458.957 644.064 462.605 643.721C469.903 643.043 476.884 642.969 483.391 643.29C489.899 643.617 495.941 644.334 501.381 645.398C506.818 646.46 511.671 647.808 515.766 649.43C519.859 651.046 523.23 652.888 525.62 654.877C526.812 655.866 527.788 656.856 528.479 657.834C528.67 658.065 528.801 658.324 528.954 658.553C529.104 658.785 529.245 659.008 529.347 659.242C529.455 659.468 529.561 659.684 529.661 659.891C529.745 660.103 529.807 660.31 529.876 660.503C530.029 660.884 530.085 661.241 530.148 661.545C530.175 661.698 530.21 661.836 530.226 661.966C530.235 662.094 530.243 662.212 530.246 662.318C530.272 662.735 530.279 662.949 530.279 662.949Z" fill="#FF7A00"/>
<path d="M510.505 618.106C510.505 618.106 510.324 617.994 509.974 617.764C509.887 617.706 509.788 617.642 509.682 617.571C509.57 617.507 509.438 617.453 509.3 617.384C509.021 617.249 508.703 617.08 508.31 616.971C508.116 616.911 507.914 616.835 507.696 616.774C507.472 616.73 507.239 616.682 506.992 616.633C506.749 616.57 506.487 616.547 506.214 616.526C505.941 616.509 505.657 616.455 505.359 616.467C504.169 616.421 502.798 616.595 501.292 616.935C498.274 617.617 494.769 619.16 491.001 621.41C487.223 623.658 483.2 626.671 479.042 630.321C474.883 633.97 470.627 638.309 466.393 643.249C462.167 648.194 457.96 653.754 454.035 659.929C452.079 663.018 450.195 666.265 448.447 669.671C446.695 673.075 445.087 676.645 443.739 680.389C442.411 684.13 441.299 688.058 440.926 692.145C440.754 694.18 440.747 696.27 441.199 698.292C441.426 699.301 441.773 700.283 442.261 701.197C442.779 702.094 443.441 702.907 444.254 703.559C445.087 704.184 446.039 704.626 447.037 704.904C448.045 705.149 449.082 705.244 450.116 705.211C452.188 705.147 454.21 704.62 456.14 703.947C460.006 702.566 463.534 700.511 466.827 698.292C470.117 696.053 473.176 693.606 476.034 691.06C478.898 688.517 481.572 685.885 484.078 683.218C489.082 677.878 493.416 672.419 497.153 667.09C500.881 661.759 504.023 656.556 506.52 651.619C509.017 646.682 510.934 642.036 512.169 637.817C513.408 633.607 514.028 629.827 513.936 626.735C513.892 625.193 513.716 623.822 513.376 622.681C513.313 622.388 513.19 622.129 513.106 621.869C513.016 621.609 512.93 621.361 512.808 621.141C512.7 620.914 512.595 620.7 512.496 620.494C512.383 620.299 512.259 620.121 512.151 619.95C511.947 619.595 511.704 619.331 511.505 619.095C511.406 618.977 511.319 618.864 511.229 618.772C511.133 618.684 511.046 618.606 510.969 618.536C510.661 618.255 510.505 618.106 510.505 618.106C510.505 618.106 510.671 618.242 510.985 618.517C511.066 618.586 511.155 618.665 511.25 618.75C511.342 618.842 511.431 618.954 511.534 619.069C511.737 619.304 511.983 619.569 512.192 619.922C512.302 620.093 512.429 620.271 512.544 620.468C512.646 620.674 512.751 620.889 512.864 621.114C512.986 621.336 513.075 621.584 513.168 621.844C513.254 622.107 513.381 622.369 513.445 622.661C513.795 623.805 513.977 625.185 514.032 626.733C514.138 629.839 513.53 633.632 512.299 637.855C511.074 642.087 509.165 646.748 506.673 651.696C504.181 656.646 501.046 661.862 497.319 667.207C493.583 672.547 489.248 678.018 484.241 683.371C481.734 686.044 479.055 688.683 476.188 691.232C473.326 693.787 470.26 696.242 466.962 698.489C463.658 700.717 460.118 702.783 456.219 704.174C454.274 704.853 452.232 705.387 450.123 705.455C449.072 705.488 448.008 705.391 446.974 705.139C445.949 704.853 444.967 704.398 444.104 703.752C443.266 703.078 442.582 702.237 442.049 701.315C441.548 700.376 441.194 699.372 440.962 698.344C440.504 696.286 440.513 694.177 440.684 692.124C441.063 688.004 442.181 684.061 443.515 680.308C444.868 676.553 446.483 672.974 448.242 669.565C449.994 666.153 451.883 662.903 453.846 659.809C457.784 653.626 462.001 648.064 466.24 643.118C470.487 638.176 474.756 633.839 478.929 630.192C483.1 626.546 487.137 623.536 490.932 621.293C494.716 619.049 498.236 617.514 501.272 616.843C502.785 616.508 504.166 616.34 505.361 616.394C505.662 616.384 505.946 616.44 506.221 616.46C506.495 616.483 506.758 616.509 507.003 616.572C507.252 616.625 507.485 616.674 507.71 616.721C507.929 616.784 508.133 616.861 508.327 616.925C508.72 617.039 509.037 617.213 509.315 617.351C509.453 617.422 509.585 617.479 509.696 617.545C509.803 617.619 509.9 617.685 509.989 617.744C510.334 617.981 510.505 618.106 510.505 618.106Z" fill="#FF7A00"/>
<path d="M421.44 685.287C422.226 686.072 422.226 687.344 421.44 688.13C420.655 688.916 419.384 688.916 418.598 688.13C417.814 687.344 417.814 686.072 418.598 685.287C419.384 684.502 420.655 684.502 421.44 685.287Z" fill="#FF7A00"/>
<path d="M534.854 622.999C534.854 624.108 533.954 625.009 532.843 625.009C531.735 625.009 530.834 624.108 530.834 622.999C530.834 621.889 531.735 620.988 532.843 620.988C533.954 620.988 534.854 621.889 534.854 622.999Z" fill="#FF7A00"/>
<path d="M434.134 691.897C434.134 692.178 433.904 692.408 433.623 692.408C433.341 692.408 433.111 692.178 433.111 691.897C433.111 691.614 433.341 691.386 433.623 691.386C433.904 691.386 434.134 691.614 434.134 691.897Z" fill="#FF7A00"/>
<path d="M445.037 635.57C445.037 635.851 444.808 636.081 444.525 636.081C444.244 636.081 444.016 635.851 444.016 635.57C444.016 635.287 444.244 635.059 444.525 635.059C444.808 635.059 445.037 635.287 445.037 635.57Z" fill="#FF7A00"/>
<path d="M524.757 662.949C524.757 663.23 524.527 663.46 524.246 663.46C523.965 663.46 523.734 663.23 523.734 662.949C523.734 662.666 523.965 662.438 524.246 662.438C524.527 662.438 524.757 662.666 524.757 662.949Z" fill="#FF7A00"/>
<path d="M531.857 639.133C531.857 639.415 531.626 639.644 531.345 639.644C531.064 639.644 530.834 639.415 530.834 639.133C530.834 638.851 531.064 638.621 531.345 638.621C531.626 638.621 531.857 638.851 531.857 639.133Z" fill="#FF7A00"/>
<path d="M497.427 674.181H491.109V639.797C491.109 631.703 484.525 625.119 476.431 625.119C468.34 625.119 461.754 631.703 461.754 639.797V674.181H455.438V639.797C455.438 628.22 464.856 618.801 476.431 618.801C488.008 618.801 497.427 628.22 497.427 639.797V674.181Z" fill="#FF7A00"/>
<mask id="mask2_494_1708" style="mask-type:luminance" maskUnits="userSpaceOnUse" x="455" y="618" width="43" height="57">
<path d="M455.438 618.802H497.427V674.182H455.438V618.802Z" fill="white"/>
</mask>
<g mask="url(#mask2_494_1708)">
<g opacity="0.300003">
<path d="M497.427 674.181H491.109V639.797C491.109 631.703 484.525 625.119 476.431 625.119C468.34 625.119 461.754 631.703 461.754 639.797V674.181H455.438V639.797C455.438 628.22 464.856 618.801 476.431 618.801C488.008 618.801 497.427 628.22 497.427 639.797V674.181Z" fill="black"/>
</g>
</g>
<path d="M501.021 695.19H451.841C449.796 695.19 448.137 693.533 448.137 691.488V662.588C448.137 660.543 449.796 658.885 451.841 658.885H501.021C503.066 658.885 504.725 660.543 504.725 662.588V691.488C504.725 693.533 503.066 695.19 501.021 695.19Z" fill="#FF7A00"/>
<mask id="mask3_494_1708" style="mask-type:luminance" maskUnits="userSpaceOnUse" x="471" y="667" width="11" height="17">
<path d="M471.701 667.578H481.161V683.909H471.701V667.578Z" fill="white"/>
</mask>
<g mask="url(#mask3_494_1708)">
<g opacity="0.300003">
<path d="M481.161 672.308C481.161 669.696 479.043 667.578 476.431 667.578C473.819 667.578 471.701 669.696 471.701 672.308C471.701 674.47 473.159 676.273 475.14 676.837V683.908H477.72V676.837C479.701 676.273 481.161 674.47 481.161 672.308Z" fill="black"/>
</g>
</g>
<path d="M451.155 691.747C451.025 691.747 450.92 685.692 450.92 678.225C450.92 670.756 451.025 664.703 451.155 664.703C451.285 664.703 451.39 670.756 451.39 678.225C451.39 685.692 451.285 691.747 451.155 691.747Z" fill="#FAFAFA"/>
<path d="M472.726 678.371C472.712 678.394 472.504 678.297 472.172 678.057C471.839 677.817 471.395 677.409 470.954 676.814C470.071 675.657 469.266 673.556 469.789 671.287C470.338 669.022 472.001 667.506 473.308 666.868C473.971 666.534 474.55 666.368 474.954 666.304C475.362 666.238 475.589 666.245 475.592 666.271C475.612 666.36 474.694 666.447 473.468 667.159C472.261 667.841 470.752 669.303 470.246 671.394C469.761 673.49 470.453 675.474 471.227 676.625C472.005 677.812 472.784 678.3 472.726 678.371Z" fill="#FAFAFA"/>
<path d="M560.445 758.823H386.214C377.755 758.823 370.896 751.966 370.896 743.506V741.62C370.896 733.16 377.755 726.301 386.214 726.301H560.445C568.905 726.301 575.762 733.16 575.762 741.62V743.506C575.762 751.966 568.905 758.823 560.445 758.823Z" fill="#F5F5F5"/>
<path d="M561.953 803.415H387.721C379.261 803.415 372.404 796.558 372.404 788.098V786.212C372.404 777.752 379.261 770.894 387.721 770.894H561.953C570.413 770.894 577.268 777.752 577.268 786.212V788.098C577.268 796.558 570.413 803.415 561.953 803.415Z" fill="#F5F5F5"/>
<path d="M403.275 742.306V737.596H405.224V742.234C405.224 743.832 405.919 744.493 407.096 744.493C408.286 744.493 408.972 743.832 408.972 742.234V737.596H410.894V742.306C410.894 744.781 409.475 746.152 407.085 746.152C404.693 746.152 403.275 744.781 403.275 742.306Z" fill="#1A2E35"/>
<path d="M412.061 745.407L412.685 744.06C413.261 744.433 414.139 744.685 414.931 744.685C415.796 744.685 416.121 744.456 416.121 744.096C416.121 743.039 412.217 744.121 412.217 741.537C412.217 740.312 413.323 739.447 415.209 739.447C416.097 739.447 417.083 739.651 417.696 740.011L417.071 741.344C416.434 740.984 415.796 740.864 415.209 740.864C414.367 740.864 414.007 741.129 414.007 741.466C414.007 742.571 417.913 741.502 417.913 744.049C417.913 745.251 416.795 746.104 414.86 746.104C413.765 746.104 412.661 745.803 412.061 745.407Z" fill="#1A2E35"/>
<path d="M420.448 742.21H423.633C423.5 741.393 422.886 740.864 422.046 740.864C421.193 740.864 420.58 741.381 420.448 742.21ZM425.362 743.303H420.473C420.652 744.109 421.336 744.602 422.322 744.602C423.008 744.602 423.5 744.397 423.945 743.976L424.941 745.057C424.341 745.743 423.439 746.103 422.273 746.103C420.039 746.103 418.584 744.697 418.584 742.774C418.584 740.841 420.064 739.446 422.035 739.446C423.932 739.446 425.398 740.721 425.398 742.799C425.398 742.943 425.374 743.147 425.362 743.303Z" fill="#1A2E35"/>
<path d="M430.661 739.446V741.177C430.504 741.164 430.385 741.153 430.241 741.153C429.207 741.153 428.521 741.717 428.521 742.955V746.008H426.648V739.543H428.437V740.397C428.894 739.77 429.664 739.446 430.661 739.446Z" fill="#1A2E35"/>
<path d="M438.388 742.306V746.007H436.514V742.594C436.514 741.55 436.032 741.069 435.204 741.069C434.304 741.069 433.653 741.621 433.653 742.811V746.007H431.779V739.543H433.57V740.299C434.074 739.747 434.832 739.446 435.708 739.446C437.236 739.446 438.388 740.335 438.388 742.306Z" fill="#1A2E35"/>
<path d="M443.928 743.964V743.303H442.643C441.766 743.303 441.49 743.627 441.49 744.061C441.49 744.529 441.886 744.842 442.546 744.842C443.17 744.842 443.711 744.552 443.928 743.964ZM445.802 742.318V746.007H444.048V745.202C443.7 745.79 443.027 746.103 442.077 746.103C440.563 746.103 439.662 745.263 439.662 744.145C439.662 743.004 440.468 742.21 442.439 742.21H443.928C443.928 741.404 443.447 740.936 442.439 740.936C441.753 740.936 441.045 741.164 440.576 741.537L439.904 740.227C440.611 739.722 441.656 739.446 442.69 739.446C444.66 739.446 445.802 740.36 445.802 742.318Z" fill="#1A2E35"/>
<path d="M458.419 742.306V746.007H456.545V742.594C456.545 741.55 456.076 741.069 455.318 741.069C454.478 741.069 453.89 741.609 453.89 742.762V746.007H452.014V742.594C452.014 741.55 451.57 741.069 450.789 741.069C449.959 741.069 449.37 741.609 449.37 742.762V746.007H447.496V739.543H449.286V740.288C449.766 739.735 450.488 739.446 451.318 739.446C452.219 739.446 452.987 739.794 453.446 740.503C453.96 739.842 454.802 739.446 455.777 739.446C457.314 739.446 458.419 740.335 458.419 742.306Z" fill="#1A2E35"/>
<path d="M461.556 742.21H464.74C464.607 741.393 463.994 740.864 463.154 740.864C462.301 740.864 461.688 741.381 461.556 742.21ZM466.47 743.303H461.581C461.76 744.109 462.444 744.602 463.43 744.602C464.116 744.602 464.607 744.397 465.053 743.976L466.049 745.057C465.449 745.743 464.546 746.103 463.381 746.103C461.147 746.103 459.693 744.697 459.693 742.774C459.693 740.841 461.171 739.446 463.142 739.446C465.04 739.446 466.506 740.721 466.506 742.799C466.506 742.943 466.481 743.147 466.47 743.303Z" fill="#1A2E35"/>
<path d="M474.57 743.051C474.57 742.006 473.932 741.417 473.067 741.417C472.191 741.417 471.578 742.029 471.578 743.051C471.578 744.084 472.191 744.709 473.067 744.709C473.932 744.709 474.57 744.108 474.57 743.051ZM478.858 742.714C478.858 744.866 477.874 746.091 476.395 746.091C475.578 746.091 475.002 745.731 474.749 745.046C474.33 745.72 473.644 746.091 472.694 746.091C471.144 746.091 469.919 744.866 469.919 743.051C469.919 741.248 471.132 740.023 472.694 740.023C473.488 740.023 474.113 740.299 474.545 740.817V740.107H476.179V744C476.179 744.577 476.433 744.769 476.756 744.769C477.309 744.769 477.646 744.133 477.646 742.739C477.646 740.299 475.842 738.618 473.174 738.618C470.494 738.618 468.706 740.444 468.706 742.954C468.706 745.514 470.46 747.329 473.127 747.329C473.884 747.329 474.738 747.173 475.494 746.8L475.879 747.906C475.147 748.278 474.077 748.483 473.127 748.483C469.654 748.483 467.359 746.127 467.359 742.954C467.359 739.819 469.677 737.475 473.174 737.475C476.551 737.475 478.858 739.698 478.858 742.714Z" fill="#1A2E35"/>
<path d="M491.114 742.306V746.007H489.24V742.594C489.24 741.55 488.771 741.069 488.014 741.069C487.173 741.069 486.585 741.609 486.585 742.762V746.007H484.709V742.594C484.709 741.55 484.265 741.069 483.484 741.069C482.654 741.069 482.066 741.609 482.066 742.762V746.007H480.191V739.543H481.982V740.288C482.462 739.735 483.183 739.446 484.014 739.446C484.915 739.446 485.682 739.794 486.141 740.503C486.656 739.842 487.497 739.446 488.472 739.446C490.009 739.446 491.114 740.335 491.114 742.306Z" fill="#1A2E35"/>
<path d="M496.643 743.964V743.303H495.358C494.481 743.303 494.205 743.627 494.205 744.061C494.205 744.529 494.601 744.842 495.261 744.842C495.885 744.842 496.426 744.552 496.643 743.964ZM498.517 742.318V746.007H496.763V745.202C496.415 745.79 495.742 746.103 494.792 746.103C493.278 746.103 492.377 745.263 492.377 744.145C492.377 743.004 493.183 742.21 495.154 742.21H496.643C496.643 741.404 496.163 740.936 495.154 740.936C494.468 740.936 493.76 741.164 493.291 741.537L492.619 740.227C493.326 739.722 494.371 739.446 495.405 739.446C497.375 739.446 498.517 740.36 498.517 742.318Z" fill="#1A2E35"/>
<path d="M500.211 739.542H502.085V746.006H500.211V739.542ZM499.984 737.596C499.984 737.007 500.453 736.55 501.15 736.55C501.845 736.55 502.316 736.982 502.316 737.559C502.316 738.184 501.845 738.641 501.15 738.641C500.453 738.641 499.984 738.184 499.984 737.596Z" fill="#1A2E35"/>
<path d="M503.828 737.091H505.702V746.006H503.828V737.091Z" fill="#1A2E35"/>
<path d="M506.988 744.926C506.988 744.229 507.504 743.772 508.154 743.772C508.803 743.772 509.319 744.229 509.319 744.926C509.319 745.611 508.803 746.103 508.154 746.103C507.504 746.103 506.988 745.611 506.988 744.926Z" fill="#1A2E35"/>
<path d="M510.027 742.774C510.027 740.828 511.53 739.447 513.633 739.447C514.992 739.447 516.061 740.036 516.529 741.093L515.074 741.874C514.726 741.26 514.21 740.984 513.621 740.984C512.671 740.984 511.926 741.645 511.926 742.774C511.926 743.904 512.671 744.565 513.621 744.565C514.21 744.565 514.726 744.3 515.074 743.675L516.529 744.469C516.061 745.502 514.992 746.104 513.633 746.104C511.53 746.104 510.027 744.721 510.027 742.774Z" fill="#1A2E35"/>
<path d="M522.248 742.774C522.248 741.656 521.54 740.984 520.603 740.984C519.666 740.984 518.944 741.656 518.944 742.774C518.944 743.892 519.666 744.565 520.603 744.565C521.54 744.565 522.248 743.892 522.248 742.774ZM517.047 742.774C517.047 740.828 518.548 739.447 520.603 739.447C522.658 739.447 524.147 740.828 524.147 742.774C524.147 744.721 522.658 746.104 520.603 746.104C518.548 746.104 517.047 744.721 517.047 742.774Z" fill="#1A2E35"/>
<path d="M536.321 742.306V746.007H534.447V742.594C534.447 741.55 533.978 741.069 533.221 741.069C532.381 741.069 531.792 741.609 531.792 742.762V746.007H529.916V742.594C529.916 741.55 529.472 741.069 528.691 741.069C527.861 741.069 527.273 741.609 527.273 742.762V746.007H525.398V739.543H527.189V740.288C527.669 739.735 528.391 739.446 529.221 739.446C530.122 739.446 530.889 739.794 531.348 740.503C531.863 739.842 532.704 739.446 533.679 739.446C535.216 739.446 536.321 740.335 536.321 742.306Z" fill="#1A2E35"/>
<path d="M428.381 787.33L431.424 788.978L430.057 791.268L426.984 789.453L427.042 792.831H424.416L424.444 789.425L421.373 791.268L420.033 788.978L423.076 787.33L420.033 785.655L421.373 783.365L424.444 785.208L424.416 781.801H427.042L426.984 785.208L430.057 783.365L431.424 785.655L428.381 787.33Z" fill="#1A2E35"/>
<path d="M441.053 787.33L444.096 788.978L442.729 791.268L439.656 789.453L439.713 792.831H437.088L437.116 789.425L434.045 791.268L432.705 788.978L435.748 787.33L432.705 785.655L434.045 783.365L437.116 785.208L437.088 781.801H439.713L439.656 785.208L442.729 783.365L444.096 785.655L441.053 787.33Z" fill="#1A2E35"/>
<path d="M453.721 787.33L456.764 788.978L455.397 791.268L452.324 789.453L452.381 792.831H449.756L449.784 789.425L446.713 791.268L445.373 788.978L448.416 787.33L445.373 785.655L446.713 783.365L449.784 785.208L449.756 781.801H452.381L452.324 785.208L455.397 783.365L456.764 785.655L453.721 787.33Z" fill="#1A2E35"/>
<path d="M466.391 787.33L469.434 788.978L468.066 791.268L464.994 789.453L465.051 792.831H462.426L462.454 789.425L459.383 791.268L458.043 788.978L461.086 787.33L458.043 785.655L459.383 783.365L462.454 785.208L462.426 781.801H465.051L464.994 785.208L468.066 783.365L469.434 785.655L466.391 787.33Z" fill="#1A2E35"/>
<path d="M479.061 787.33L482.104 788.978L480.736 791.268L477.664 789.453L477.721 792.831H475.096L475.124 789.425L472.053 791.268L470.713 788.978L473.756 787.33L470.713 785.655L472.053 783.365L475.124 785.208L475.096 781.801H477.721L477.664 785.208L480.736 783.365L482.104 785.655L479.061 787.33Z" fill="#1A2E35"/>
<path d="M491.733 787.33L494.776 788.978L493.408 791.268L490.336 789.453L490.393 792.831H487.768L487.796 789.425L484.725 791.268L483.385 788.978L486.428 787.33L483.385 785.655L484.725 783.365L487.796 785.208L487.768 781.801H490.393L490.336 785.208L493.408 783.365L494.776 785.655L491.733 787.33Z" fill="#1A2E35"/>
<path d="M504.401 787.33L507.444 788.978L506.076 791.268L503.004 789.453L503.061 792.831H500.436L500.464 789.425L497.393 791.268L496.053 788.978L499.096 787.33L496.053 785.655L497.393 783.365L500.464 785.208L500.436 781.801H503.061L503.004 785.208L506.076 783.365L507.444 785.655L504.401 787.33Z" fill="#1A2E35"/>
<path d="M517.071 787.33L520.114 788.978L518.746 791.268L515.673 789.453L515.731 792.831H513.106L513.134 789.425L510.063 791.268L508.723 788.978L511.766 787.33L508.723 785.655L510.063 783.365L513.134 785.208L513.106 781.801H515.731L515.673 785.208L518.746 783.365L520.114 785.655L517.071 787.33Z" fill="#1A2E35"/>
<path d="M655.621 1025.76H410.62C404.83 1025.76 400.135 1021.07 400.135 1015.27V888.456C400.135 882.666 404.83 877.971 410.62 877.971H655.621C661.409 877.971 666.106 882.666 666.106 888.456V1015.27C666.106 1021.07 661.409 1025.76 655.621 1025.76Z" fill="white"/>
<path d="M655.62 1025.76C655.615 1025.71 656.335 1025.77 657.688 1025.51C659.01 1025.22 661.05 1024.53 662.966 1022.63C663.908 1021.69 664.776 1020.43 665.341 1018.88C665.649 1018.11 665.808 1017.26 665.93 1016.37C665.997 1015.48 665.984 1014.53 665.977 1013.54C665.966 1009.6 665.953 1005.05 665.938 999.931C665.907 979.434 665.861 949.802 665.801 913.189C665.797 908.612 665.792 903.925 665.788 899.134C665.787 896.737 665.783 894.316 665.782 891.868C665.723 889.416 666.04 886.909 665.037 884.669C664.131 882.425 662.382 880.504 660.176 879.398C659.076 878.842 657.867 878.489 656.628 878.362C655.406 878.27 654.073 878.331 652.786 878.315C647.591 878.318 642.299 878.323 636.918 878.326C615.385 878.339 592.377 878.352 568.169 878.365C519.748 878.377 466.516 878.387 410.64 878.4C408.961 878.408 407.297 878.832 405.823 879.615C404.369 880.434 403.09 881.581 402.189 882.983C401.302 884.386 400.708 885.994 400.603 887.654C400.522 889.316 400.58 891.095 400.562 892.803C400.562 899.703 400.562 906.557 400.562 913.363C400.558 926.97 400.557 940.379 400.555 953.555C400.55 966.732 400.547 979.674 400.544 992.351C400.542 998.687 400.539 1004.96 400.537 1011.16C400.549 1012.7 400.511 1014.27 400.562 1015.77C400.631 1017.25 401.03 1018.71 401.718 1020.01C403.102 1022.62 405.665 1024.54 408.517 1025.14C409.926 1025.47 411.43 1025.34 412.944 1025.37C414.449 1025.37 415.948 1025.37 417.442 1025.37C420.43 1025.37 423.4 1025.37 426.35 1025.38C432.248 1025.38 438.066 1025.38 443.802 1025.38C455.272 1025.39 466.409 1025.4 477.175 1025.4C498.709 1025.42 518.765 1025.44 537.078 1025.46C573.69 1025.51 603.321 1025.56 623.815 1025.59C634.044 1025.63 641.99 1025.66 647.397 1025.67C650.082 1025.69 652.132 1025.71 653.531 1025.72C654.912 1025.73 655.62 1025.76 655.62 1025.76C655.62 1025.76 654.912 1025.79 653.531 1025.8C652.132 1025.81 650.082 1025.83 647.397 1025.85C641.99 1025.86 634.044 1025.89 623.815 1025.93C603.321 1025.96 573.69 1026 537.078 1026.06C518.765 1026.08 498.709 1026.1 477.175 1026.12C466.409 1026.12 455.272 1026.13 443.802 1026.14C438.066 1026.14 432.248 1026.14 426.35 1026.14C423.4 1026.15 420.43 1026.15 417.442 1026.15C415.948 1026.15 414.449 1026.15 412.944 1026.15C411.463 1026.12 409.913 1026.27 408.353 1025.91C405.275 1025.27 402.51 1023.2 401.014 1020.39C400.271 1018.98 399.838 1017.41 399.761 1015.81C399.707 1014.23 399.745 1012.71 399.733 1011.16C399.73 1004.96 399.728 998.687 399.727 992.351C399.723 979.674 399.718 966.732 399.715 953.555C399.713 940.379 399.71 926.97 399.709 913.363C399.709 906.557 399.707 899.703 399.707 892.803C399.727 891.064 399.664 889.384 399.75 887.587C399.866 885.786 400.506 884.037 401.473 882.517C402.449 880.994 403.835 879.75 405.413 878.864C407.013 878.012 408.823 877.552 410.64 877.543C466.516 877.555 519.748 877.566 568.169 877.576C592.377 877.591 615.385 877.604 636.918 877.617C642.299 877.621 647.591 877.626 652.786 877.629C654.095 877.649 655.351 877.585 656.695 877.687C658.017 877.823 659.306 878.203 660.478 878.796C662.831 879.98 664.69 882.028 665.65 884.42C666.137 885.614 666.397 886.893 666.416 888.169C666.421 889.408 666.425 890.641 666.428 891.868C666.426 894.316 666.423 896.737 666.421 899.134C666.416 903.925 666.411 908.612 666.408 913.189C666.349 949.802 666.303 979.434 666.272 999.931C666.257 1005.05 666.244 1009.6 666.232 1013.54C666.231 1014.53 666.239 1015.48 666.161 1016.4C666.032 1017.3 665.861 1018.17 665.542 1018.95C664.952 1020.53 664.056 1021.8 663.087 1022.76C661.119 1024.67 659.043 1025.33 657.705 1025.59C657.019 1025.7 656.498 1025.76 656.146 1025.76C655.796 1025.77 655.62 1025.76 655.62 1025.76Z" fill="#1A2E35"/>
<path d="M455.089 998.496H430.948C427.359 998.496 424.451 995.586 424.451 991.999V954.404C424.451 950.813 427.359 947.907 430.948 947.907H455.089C458.678 947.907 461.586 950.813 461.586 954.404V991.999C461.586 995.586 458.678 998.496 455.089 998.496Z" fill="#ECECEC"/>
<path d="M501.462 998.496H477.321C473.734 998.496 470.824 995.586 470.824 991.999V954.404C470.824 950.813 473.734 947.907 477.321 947.907H501.462C505.051 947.907 507.959 950.813 507.959 954.404V991.999C507.959 995.586 505.051 998.496 501.462 998.496Z" fill="#ECECEC"/>
<path d="M547.833 998.496H523.694C520.105 998.496 517.195 995.586 517.195 991.999V954.404C517.195 950.813 520.105 947.907 523.694 947.907H547.833C551.423 947.907 554.33 950.813 554.33 954.404V991.999C554.33 995.586 551.423 998.496 547.833 998.496Z" fill="#ECECEC"/>
<path d="M594.208 998.496H570.067C566.48 998.496 563.57 995.586 563.57 991.999V954.404C563.57 950.813 566.48 947.907 570.067 947.907H594.208C597.797 947.907 600.705 950.813 600.705 954.404V991.999C600.705 995.586 597.797 998.496 594.208 998.496Z" fill="#ECECEC"/>
<path d="M640.581 998.496H616.44C612.853 998.496 609.943 995.586 609.943 991.999V954.404C609.943 950.813 612.853 947.907 616.44 947.907H640.581C644.17 947.907 647.078 950.813 647.078 954.404V991.999C647.078 995.586 644.17 998.496 640.581 998.496Z" fill="#ECECEC"/>
<path d="M449.668 977.137C449.668 974.316 447.638 972.481 444.307 972.481C441.062 972.481 438.831 974.541 438.831 977.194C438.831 979.508 440.779 981.822 444.477 981.822C447.553 981.822 449.668 979.988 449.668 977.137ZM451.109 977.109C451.109 980.722 448.315 983.063 444.533 983.063C439.341 983.063 436.604 979.34 436.604 973.158C436.604 966.471 440.159 963.026 445.381 963.026C447.073 963.026 448.654 963.309 449.867 964.042L449.274 965.2C448.259 964.552 446.875 964.296 445.381 964.296C440.949 964.296 438.042 967.204 438.042 972.932C438.042 973.525 438.07 974.4 438.211 975.304C439.03 972.708 441.512 971.24 444.505 971.24C448.457 971.24 451.109 973.553 451.109 977.109Z" fill="#FF8A00"/>
<path d="M496.984 977.448H492.836V982.923H491.426V977.448H480.166V976.403L490.89 963.167H492.498L481.971 976.179H491.454V971.352H492.836V976.179H496.984V977.448Z" fill="#FF8A00"/>
<path d="M544.81 985.726C544.81 985.965 540.957 986.155 536.206 986.155C531.451 986.155 527.598 985.965 527.598 985.726C527.598 985.489 531.451 985.299 536.206 985.299C540.957 985.299 544.81 985.489 544.81 985.726Z" fill="#FF8A00"/>
<path d="M421.046 892.72C421.046 894.944 419.245 896.746 417.02 896.746C414.796 896.746 412.994 894.944 412.994 892.72C412.994 890.495 414.796 888.694 417.02 888.694C419.245 888.694 421.046 890.495 421.046 892.72Z" fill="#1A2E35"/>
<path d="M432.654 892.72C432.654 894.944 430.85 896.746 428.626 896.746C426.401 896.746 424.6 894.944 424.6 892.72C424.6 890.495 426.401 888.694 428.626 888.694C430.85 888.694 432.654 890.495 432.654 892.72Z" fill="#1A2E35"/>
<path d="M444.048 892.72C444.048 894.944 442.245 896.746 440.022 896.746C437.796 896.746 435.996 894.944 435.996 892.72C435.996 890.495 437.796 888.694 440.022 888.694C442.245 888.694 444.048 890.495 444.048 892.72Z" fill="#1A2E35"/>
<path d="M666.503 904.067C666.503 904.304 606.954 904.495 533.513 904.495C460.048 904.495 400.512 904.304 400.512 904.067C400.512 903.829 460.048 903.638 533.513 903.638C606.954 903.638 666.503 903.829 666.503 904.067Z" fill="#1A2E35"/>
</g>
<path d="M116.089 1244.31H101.37L95.9121 1178.05H113.245L116.089 1244.31Z" fill="#1A2E35"/>
<path d="M243.649 1244.31H258.37L263.826 1178.05H246.494L243.649 1244.31Z" fill="#1A2E35"/>
<path d="M273.939 1186.44L84.4911 1190.89L78.7239 1068.52C78.16 1056.54 87.7215 1046.52 99.7162 1046.52H261.129C273.308 1046.52 282.937 1056.84 282.093 1068.99L273.939 1186.44Z" fill="#7630A1"/>
<path d="M283.652 1068.1C283.652 1068.12 283.473 1068.13 283.123 1068.15C282.729 1068.16 282.216 1068.17 281.571 1068.19C280.149 1068.21 278.148 1068.25 275.6 1068.28C270.356 1068.3 262.867 1068.33 253.638 1068.36C235.094 1068.39 209.475 1068.19 181.198 1068.84C152.908 1069.78 127.267 1069.62 108.728 1069.34C99.4554 1069.19 91.9555 1069.01 86.772 1068.86C84.2238 1068.77 82.2247 1068.7 80.8043 1068.65C80.1598 1068.62 79.6485 1068.6 79.2523 1068.58C78.9038 1068.55 78.7246 1068.54 78.7246 1068.52C78.7246 1068.51 78.9038 1068.5 79.254 1068.49C79.6502 1068.49 80.1631 1068.48 80.8076 1068.48C82.228 1068.49 84.2287 1068.5 86.7786 1068.52C92.0196 1068.57 99.5064 1068.65 108.736 1068.73C127.277 1068.86 152.89 1068.92 181.177 1067.99C209.475 1067.33 235.097 1067.63 253.64 1067.76C262.869 1067.84 270.357 1067.9 275.6 1067.95C278.148 1067.98 280.149 1068 281.57 1068.02C282.214 1068.04 282.729 1068.05 283.123 1068.06C283.473 1068.07 283.652 1068.09 283.652 1068.1Z" fill="#1A2E35"/>
<path d="M147.829 1048.43C147.882 1048.72 141.893 1048.82 135.529 1052.12C129.117 1055.34 125.522 1060.12 125.321 1059.91C125.246 1059.86 126.022 1058.6 127.667 1056.87C129.303 1055.14 131.886 1053.02 135.139 1051.36C138.398 1049.7 141.63 1048.86 143.989 1048.54C146.353 1048.22 147.829 1048.34 147.829 1048.43Z" fill="#1A2E35"/>
<path d="M225.748 825.948L248.908 868.253L282.834 849.278L299.332 854.721C299.332 854.721 257.709 899.851 250.955 902.151C244.203 904.449 231.415 904.868 224.102 895.718C217.444 887.389 198.069 843.646 198.069 843.646L225.748 825.948Z" fill="#FFBF9D"/>
<path d="M321.09 798.333C320.487 797.587 319.538 797.21 318.588 797.34L302.454 799.561C301.04 799.778 299.784 800.589 299.003 801.789L265.5 853.282L268.076 854.722L285.917 854.16L321.598 798.961L321.09 798.333Z" fill="#1A2E35"/>
<path d="M309.672 805.022C310.015 805.322 310.62 805.196 311.023 804.737C311.424 804.278 311.472 803.662 311.128 803.361C310.783 803.059 310.18 803.187 309.777 803.646C309.374 804.103 309.328 804.719 309.672 805.022Z" fill="white"/>
<path d="M321.599 798.962C321.607 799.029 320.497 799.244 318.48 799.578C316.299 799.917 313.417 800.364 309.93 800.903C308.107 801.171 306.13 801.46 304.02 801.77C303.004 801.863 302.103 802.386 301.526 803.239C300.906 804.201 300.27 805.187 299.617 806.199C296.978 810.267 294.091 814.716 291.062 819.387C284.967 828.731 279.406 837.16 275.34 843.235C273.359 846.158 271.722 848.573 270.482 850.401C269.316 852.081 268.647 852.992 268.59 852.956C268.534 852.919 269.098 851.938 270.165 850.194C271.338 848.323 272.889 845.85 274.765 842.86C278.684 836.69 284.155 828.202 290.249 818.857C293.302 814.201 296.211 809.766 298.869 805.71C299.536 804.702 300.187 803.718 300.82 802.759C301.529 801.701 302.765 801.053 303.89 800.976C306.01 800.708 307.995 800.456 309.825 800.224C313.333 799.808 316.233 799.465 318.428 799.205C320.461 798.986 321.591 798.896 321.599 798.962Z" fill="#375A64"/>
<path d="M303.702 817.371C303.702 817.371 302.263 817.113 301.476 821.047C300.689 824.981 298.153 836.264 298.153 836.264L290.619 832.26L281.192 833.489C281.192 833.489 279.136 835.387 280.645 836.42C282.152 837.451 288.11 838.516 288.11 838.516L292.503 844.834L279.894 838.754C279.894 838.754 275.685 839.851 276.918 842.419C278.151 844.987 286.654 853.021 286.654 853.021L280.336 852.542L272.823 847.98C272.823 847.98 270.518 848.086 271.378 850.049C272.237 852.011 280.05 859.105 280.05 859.105L289.524 863.704C289.524 863.704 294.696 863.298 295.193 861.778C295.687 860.258 295.816 858.093 295.816 858.093C295.816 858.093 298.561 857.353 299.074 856.021C299.587 854.69 299.257 852.582 299.257 852.582C299.257 852.582 303.566 853.338 304.101 850.936C304.636 848.536 304.187 843.803 303.753 841.953C303.317 840.106 305.589 822.931 305.413 822.411C305.237 821.892 306.403 816.235 303.702 817.371Z" fill="#FFBF9D"/>
<path d="M295.525 861.798C295.557 861.91 294.641 862.311 293.054 862.566C291.473 862.824 289.211 862.849 286.809 862.281C284.41 861.708 282.401 860.665 281.106 859.723C279.802 858.783 279.166 858.01 279.245 857.925C279.424 857.682 282.424 860.281 287.034 861.338C291.622 862.469 295.474 861.499 295.525 861.798Z" fill="#FF9A6C"/>
<path d="M293.282 858.399C293.134 858.618 291.455 857.738 289.663 856.267C287.868 854.797 286.676 853.324 286.862 853.135C287.053 852.941 288.521 854.077 290.278 855.516C292.034 856.957 293.435 858.174 293.282 858.399Z" fill="#FF9A6C"/>
<path d="M298.265 850.226C298.122 850.445 296.453 849.587 294.775 848.03C293.09 846.478 292.102 844.885 292.307 844.724C292.522 844.553 293.81 845.822 295.434 847.316C297.052 848.817 298.418 849.999 298.265 850.226Z" fill="#FF9A6C"/>
<path d="M303.507 843.64C303.249 843.751 302.297 841.972 300.795 840.035C299.308 838.085 297.835 836.709 298.008 836.487C298.153 836.277 299.986 837.378 301.564 839.443C303.154 841.498 303.747 843.553 303.507 843.64Z" fill="#FF9A6C"/>
<path d="M309.918 1148.54C309.973 1148.53 310.028 1147.98 309.87 1146.98C309.707 1145.99 309.301 1144.54 308.297 1143.02C308.038 1142.64 307.78 1142.24 307.356 1141.87C306.957 1141.51 306.261 1141.23 305.594 1141.47C305.262 1141.58 304.93 1141.88 304.815 1142.26C304.688 1142.63 304.752 1143.01 304.849 1143.31C305.069 1143.94 305.397 1144.39 305.671 1144.9C306.283 1145.93 306.787 1146.96 307.568 1148.12C307.963 1148.71 308.851 1149.2 309.659 1149.06C310.458 1148.96 311.101 1148.57 311.682 1148.16C312.808 1147.35 313.801 1146.42 314.652 1145.43C315.078 1144.93 315.468 1144.42 315.823 1143.9C316.158 1143.39 316.554 1142.87 316.702 1142.15C316.854 1141.46 316.594 1140.56 315.81 1140.24C315.017 1139.96 314.37 1140.35 313.927 1140.67C313.031 1141.41 312.492 1142.18 311.945 1142.92C310.901 1144.39 310.325 1145.75 310 1146.69C309.681 1147.64 309.605 1148.19 309.659 1148.21C309.821 1148.28 310.357 1146.08 312.474 1143.31C313 1142.65 313.651 1141.85 314.379 1141.29C314.753 1141.03 315.216 1140.86 315.499 1141C315.795 1141.11 315.961 1141.55 315.862 1141.98C315.77 1142.42 315.435 1142.9 315.091 1143.39C314.748 1143.88 314.371 1144.36 313.963 1144.83C313.146 1145.76 312.198 1146.64 311.137 1147.41C310.628 1147.78 310.072 1148.08 309.554 1148.14C309.035 1148.2 308.627 1148 308.285 1147.55C307.636 1146.61 307.013 1145.44 306.413 1144.47C306.123 1143.97 305.776 1143.47 305.627 1143.05C305.469 1142.61 305.556 1142.32 305.867 1142.2C306.579 1141.9 307.272 1142.71 307.756 1143.39C309.761 1146.23 309.735 1148.59 309.918 1148.54Z" fill="#1A2E35"/>
<path d="M269.516 1149.92L249.454 1193.39L217.084 1178.44L237.833 1124.63L269.516 1149.92Z" fill="#FFBF9D"/>
<path d="M253.246 1190.49L241.526 1212.84C241.526 1212.84 271.527 1243.86 268.709 1250.8L198.182 1216.98L217.558 1172.15L253.246 1190.49Z" fill="#FF8A00"/>
<path d="M221.182 1199.33C219.638 1199.05 217.96 1200.13 217.615 1201.66C217.271 1203.2 218.356 1204.91 219.895 1205.22C221.434 1205.53 223.489 1204.29 223.66 1202.73C223.831 1201.17 222.446 1199.22 220.878 1199.3" fill="#E1E1E1"/>
<mask id="mask4_494_1708" style="mask-type:luminance" maskUnits="userSpaceOnUse" x="198" y="1211" width="72" height="40">
<path d="M198.183 1211.36H269.146V1250.8H198.183V1211.36Z" fill="white"/>
</mask>
<g mask="url(#mask4_494_1708)">
<g opacity="0.600006">
<path d="M198.182 1216.98L201.116 1211.36L267.641 1245.89C267.641 1245.89 270.125 1248.76 268.709 1250.8L198.182 1216.98Z" fill="white"/>
</g>
</g>
<path d="M242.84 1213.03C242.665 1213.37 240.866 1212.7 238.642 1213C236.407 1213.23 234.819 1214.31 234.568 1214.02C234.282 1213.8 235.784 1211.99 238.484 1211.68C241.182 1211.34 243.067 1212.75 242.84 1213.03Z" fill="#1A2E35"/>
<path d="M248.771 1219.64C248.691 1220.01 246.919 1219.88 245.049 1220.78C243.156 1221.62 242.105 1223.05 241.77 1222.87C241.419 1222.77 242.148 1220.64 244.492 1219.57C246.827 1218.48 248.921 1219.31 248.771 1219.64Z" fill="#1A2E35"/>
<path d="M248.727 1230.51C248.38 1230.43 248.725 1228.48 250.512 1227.02C252.293 1225.54 254.272 1225.58 254.28 1225.93C254.34 1226.31 252.809 1226.82 251.359 1228.04C249.881 1229.23 249.085 1230.64 248.727 1230.51Z" fill="#1A2E35"/>
<path d="M246.205 1204.42C245.909 1204.67 244.558 1203.43 242.547 1202.63C240.553 1201.79 238.727 1201.72 238.689 1201.34C238.608 1200.99 240.698 1200.43 243.054 1201.4C245.414 1202.36 246.504 1204.23 246.205 1204.42Z" fill="#1A2E35"/>
<path d="M259.854 1184.69L312.732 1052.36C312.732 1052.36 311.543 1029.78 307.385 1022.65C303.225 1015.52 177.26 973.926 177.26 973.926C177.26 973.926 145.174 966.201 123.784 973.926C102.394 981.649 86.3497 1008.39 89.3221 1023.24C92.2928 1038.1 104.83 1049.01 104.83 1049.01L197.461 1051.76L247.95 1070.18L213.95 1167.63L259.854 1184.69Z" fill="#1A2E35"/>
<path d="M306.886 1094.26L308.078 1142.13L272.431 1143L267.294 1085.56L306.886 1094.26Z" fill="#FFBF9D"/>
<path d="M310.2 1137.85L309.549 1163.08C309.549 1163.08 350.164 1177.67 350.697 1185.14L272.485 1185.93L270.08 1137.15L310.2 1137.85Z" fill="#FF8A00"/>
<path d="M285.331 1159.94C283.822 1160.37 282.793 1162.08 283.159 1163.6C283.526 1165.13 285.259 1166.19 286.775 1165.79C288.292 1165.38 289.589 1163.37 289.055 1161.89C288.519 1160.42 286.416 1159.28 285.042 1160.04" fill="#E1E1E1"/>
<mask id="mask5_494_1708" style="mask-type:luminance" maskUnits="userSpaceOnUse" x="272" y="1179" width="79" height="7">
<path d="M272.484 1179.59H350.724V1185.93H272.484V1179.59Z" fill="white"/>
</mask>
<g mask="url(#mask5_494_1708)">
<g opacity="0.600006">
<path d="M272.484 1185.93L272.636 1179.59L347.567 1181.2C347.567 1181.2 351.064 1182.68 350.696 1185.14L272.484 1185.93Z" fill="white"/>
</g>
</g>
<path d="M310.813 1162.67C310.805 1163.05 308.896 1163.24 307.03 1164.49C305.13 1165.69 304.178 1167.35 303.826 1167.21C303.473 1167.14 304.02 1164.85 306.305 1163.38C308.579 1161.89 310.892 1162.32 310.813 1162.67Z" fill="#1A2E35"/>
<path d="M319.051 1165.98C319.141 1166.35 317.494 1167.02 316.213 1168.64C314.885 1170.23 314.576 1171.98 314.195 1171.97C313.838 1172.03 313.55 1169.8 315.181 1167.81C316.794 1165.8 319.039 1165.62 319.051 1165.98Z" fill="#1A2E35"/>
<path d="M323.81 1175.75C323.464 1175.83 322.914 1173.93 323.872 1171.83C324.817 1169.72 326.609 1168.88 326.774 1169.2C326.994 1169.51 325.845 1170.64 325.084 1172.38C324.281 1174.1 324.188 1175.71 323.81 1175.75Z" fill="#1A2E35"/>
<path d="M310.031 1153.46C309.875 1153.81 308.116 1153.3 305.959 1153.47C303.799 1153.59 302.127 1154.33 301.925 1154.01C301.701 1153.73 303.325 1152.3 305.87 1152.14C308.412 1151.96 310.215 1153.16 310.031 1153.46Z" fill="#1A2E35"/>
<path d="M286.07 961.371C286.07 961.371 307.427 959.663 309.804 982.837C312.181 1006.01 314.514 1114.15 314.514 1114.15L264.604 1118.31L256.879 1007.79L177.26 973.926C177.26 973.926 271.809 958.399 286.07 961.371Z" fill="#1A2E35"/>
<path d="M198.036 930.099C198.036 930.099 210.998 966.442 208.529 970.491C206.06 974.542 172.728 991.209 172.728 991.209L89.3211 1023.24C89.3211 1023.24 80.7559 1009.61 80.7559 988.685C80.7559 967.752 109.768 930.099 109.768 930.099H198.036Z" fill="#1A2E35"/>
<path d="M173.314 972.071C173.309 972.085 173.44 972.155 173.705 972.282C174.011 972.423 174.4 972.602 174.889 972.829C175.99 973.319 177.532 974.006 179.51 974.884C183.603 976.67 189.484 979.229 196.846 982.438C211.722 988.842 232.575 997.818 256.704 1008.2L256.434 1007.83C257.19 1018.74 258.009 1030.53 258.854 1042.73C260.883 1071.24 262.754 1097.53 264.233 1118.34L264.26 1118.71L264.635 1118.68C279.815 1117.35 292.272 1116.26 300.997 1115.49C305.284 1115.09 308.653 1114.77 311.007 1114.55C312.115 1114.44 312.983 1114.35 313.624 1114.28C314.214 1114.21 314.517 1114.17 314.515 1114.15C314.513 1114.13 314.208 1114.14 313.614 1114.17C312.971 1114.21 312.1 1114.26 310.989 1114.33C308.631 1114.51 305.256 1114.76 300.96 1115.07C292.231 1115.76 279.764 1116.74 264.572 1117.94L264.973 1118.29C263.546 1097.48 261.741 1071.18 259.783 1042.66C258.925 1030.47 258.095 1018.68 257.325 1007.76L257.306 1007.49L257.056 1007.38C232.874 997.118 211.977 988.248 197.068 981.919C189.662 978.815 183.746 976.334 179.628 974.606C177.627 973.784 176.064 973.143 174.951 972.686C174.448 972.491 174.048 972.333 173.736 972.209C173.462 972.106 173.319 972.058 173.314 972.071Z" fill="#375A64"/>
<path d="M106.981 975.706C107.002 975.767 107.836 975.535 109.322 975.067C110.979 974.532 113.085 973.853 115.602 973.043C120.901 971.361 128.253 969.02 136.619 967.731C144.985 966.44 152.728 966.84 158.136 968.007C163.566 969.132 166.688 970.682 166.757 970.506C166.78 970.458 166.025 970.033 164.588 969.41C163.153 968.78 161.006 968.019 158.277 967.366C152.83 966.013 144.951 965.502 136.481 966.812C128.013 968.114 120.647 970.575 115.392 972.418C112.763 973.352 110.652 974.152 109.202 974.725C107.75 975.3 106.96 975.647 106.981 975.706Z" fill="#375A64"/>
<path d="M118.771 956.55C118.794 956.698 121.564 956.158 126.063 956.51C128.309 956.665 130.982 957.01 133.958 957.354C136.929 957.707 140.19 958.108 143.567 958.748C150.344 959.954 156.175 962.315 159.91 964.809C163.681 967.265 165.449 969.503 165.579 969.376C165.615 969.347 165.233 968.747 164.367 967.808C163.502 966.871 162.162 965.574 160.28 964.263C156.563 961.574 150.602 959.05 143.741 957.832C140.322 957.186 137.034 956.808 134.052 956.502C131.071 956.204 128.38 955.925 126.098 955.851C123.816 955.769 121.962 955.899 120.701 956.093C119.436 956.283 118.759 956.495 118.771 956.55Z" fill="#375A64"/>
<path d="M155.61 664.499C146.013 662.868 137.577 666.562 129.482 671.973C121.389 677.381 115.295 685.547 111.775 694.624C108.069 704.183 107.167 714.942 110.016 724.791C112.865 734.64 119.61 743.457 128.751 748.101C141.235 754.44 157.202 752.229 168.369 743.786C179.539 735.34 185.922 721.378 186.46 707.386C186.828 697.747 184.525 687.885 179.138 679.882C173.752 671.879 165.155 665.9 155.61 664.499Z" fill="#1A2E35"/>
<path d="M128.318 697.134C129.722 693.463 129.176 689.363 129.731 685.472C130.955 676.903 137.859 670.033 145.844 666.69C153.273 663.583 162.345 664.261 171.295 667.154C177.429 669.137 183.201 672.596 187.291 677.577C192.718 684.191 194.63 693.534 192.238 701.749L148.396 695.362C144.292 698.758 140.09 702.212 135.111 704.106C133.649 704.662 132.077 705.08 130.535 704.835C128.992 704.59 127.491 703.541 127.124 702.022C126.725 700.361 127.708 698.729 128.318 697.134Z" fill="#1A2E35"/>
<path d="M172.232 679.258L133.955 687.368C130.252 687.614 127.354 690.652 127.283 694.363L127.744 777.199C127.775 782.858 129.67 788.347 133.137 792.819L136.789 797.527C145.111 808.261 161.97 807.181 168.327 795.178C168.773 794.338 169.08 793.603 169.21 793.01C169.338 792.265 169.536 791.772 169.57 791.139L170.298 783.063C170.672 775.688 170.724 768.195 170.724 768.262C170.724 768.262 186.39 766.283 190.403 746.101C192.399 736.065 192.535 719.487 192.206 705.919C191.912 693.705 184.42 678.444 172.232 679.258Z" fill="#FFBF9D"/>
<path d="M186.383 721.463C186.378 722.841 185.208 723.972 183.771 723.993C182.336 724.015 181.172 722.918 181.177 721.54C181.182 720.164 182.352 719.032 183.787 719.01C185.226 718.989 186.388 720.087 186.383 721.463Z" fill="#1A2E35"/>
<path d="M188.28 714.393C187.944 714.72 186.028 713.183 183.225 713.081C180.426 712.94 178.314 714.302 178.023 713.947C177.88 713.79 178.233 713.189 179.152 712.571C180.06 711.956 181.589 711.384 183.333 711.458C185.079 711.536 186.522 712.236 187.341 712.926C188.176 713.622 188.446 714.247 188.28 714.393Z" fill="#1A2E35"/>
<path d="M161.263 720.835C161.26 722.212 160.089 723.344 158.651 723.365C157.216 723.386 156.053 722.29 156.057 720.912C156.062 719.536 157.232 718.403 158.667 718.38C160.106 718.359 161.268 719.457 161.263 720.835Z" fill="#1A2E35"/>
<path d="M161.668 713.71C161.331 714.037 159.413 712.5 156.611 712.4C153.813 712.258 151.701 713.619 151.41 713.264C151.267 713.106 151.617 712.506 152.541 711.89C153.448 711.273 154.976 710.701 156.722 710.775C158.466 710.854 159.909 711.553 160.728 712.243C161.561 712.939 161.833 713.563 161.668 713.71Z" fill="#1A2E35"/>
<path d="M170.076 735.025C170.069 734.865 171.822 734.632 174.659 734.38C175.378 734.334 176.062 734.218 176.201 733.734C176.389 733.223 176.119 732.44 175.805 731.595C175.2 729.836 174.566 727.995 173.9 726.063C171.263 718.192 169.384 711.729 169.701 711.626C170.018 711.522 172.415 717.819 175.052 725.692C175.685 727.632 176.292 729.481 176.867 731.252C177.107 732.075 177.536 733.016 177.13 734.074C176.916 734.602 176.376 734.97 175.912 735.076C175.448 735.197 175.044 735.191 174.69 735.197C171.843 735.24 170.081 735.184 170.076 735.025Z" fill="#1A2E35"/>
<path d="M170.725 768.263C170.725 768.263 157.029 768.613 143.81 759.952C143.81 759.952 150.103 774.276 170.502 773.163L170.725 768.263Z" fill="#FF9A6C"/>
<path d="M168.629 741.733C167.672 740.362 165.936 739.562 164.175 739.682C162.954 739.765 161.703 740.303 160.925 741.266C160.147 742.226 159.937 743.627 160.573 744.597C161.288 745.69 162.858 745.998 164.21 745.669C165.563 745.34 166.748 744.505 167.876 743.67C168.187 743.44 168.507 743.198 168.708 742.873C168.91 742.549 168.967 742.113 168.744 741.83" fill="#FF9A6C"/>
<path d="M161.754 736.643C162.211 736.635 162.097 739.676 164.619 741.937C167.133 744.204 170.39 743.988 170.396 744.414C170.431 744.607 169.651 744.977 168.282 744.962C166.937 744.955 164.992 744.447 163.452 743.065C161.915 741.679 161.3 739.887 161.244 738.634C161.178 737.358 161.547 736.617 161.754 736.643Z" fill="#1A2E35"/>
<path d="M161.511 705.391C161.206 706.142 158.421 705.672 155.118 705.94C151.809 706.144 149.121 707.002 148.71 706.303C148.529 705.968 149.019 705.269 150.118 704.572C151.21 703.879 152.933 703.244 154.916 703.101C156.898 702.961 158.694 703.344 159.871 703.879C161.059 704.411 161.645 705.034 161.511 705.391Z" fill="#1A2E35"/>
<path d="M187.943 702.106C187.425 702.723 185.52 701.988 183.2 701.866C180.885 701.664 178.896 702.128 178.47 701.444C178.283 701.113 178.618 700.489 179.499 699.918C180.371 699.351 181.806 698.915 183.399 699.025C184.992 699.137 186.352 699.769 187.132 700.451C187.928 701.138 188.173 701.804 187.943 702.106Z" fill="#1A2E35"/>
<path d="M121.301 691.223C125.27 679.567 142.596 663.686 154.858 664.787L174.233 676.94C172.914 683.6 167.639 689.314 161.106 691.162C157.617 692.148 153.436 692.356 151.316 695.297C149.149 698.299 150.291 702.757 148.269 705.859C145.468 710.157 138.049 709.803 135.916 714.469C134.986 716.509 135.402 718.975 134.433 720.997C133.146 723.692 126.194 727.001 123.364 726.043C120.537 725.084 120.625 720.236 119.744 717.678C118.242 713.307 118.94 711.071 119.512 708.656C120.867 702.94 119.407 696.785 121.301 691.223Z" fill="#1A2E35"/>
<path d="M131.717 728.609C131.771 727.097 130.162 723.464 128.677 723.173C124.714 722.397 117.513 722.438 117.053 732.563C116.425 746.406 130.45 744.181 130.494 743.785C130.525 743.476 131.526 733.831 131.717 728.609Z" fill="#FFBF9D"/>
<path d="M126.503 738.349C126.443 738.303 126.254 738.507 125.838 738.676C125.432 738.839 124.743 738.932 124.035 738.63C122.596 738.028 121.47 735.649 121.516 733.152C121.538 731.89 121.857 730.703 122.348 729.729C122.817 728.736 123.504 728.059 124.245 727.962C124.985 727.826 125.487 728.289 125.639 728.687C125.807 729.083 125.707 729.354 125.779 729.381C125.817 729.419 126.087 729.164 126.001 728.587C125.955 728.309 125.809 727.975 125.496 727.694C125.176 727.41 124.694 727.25 124.178 727.281C123.108 727.308 122.102 728.245 121.562 729.313C120.962 730.384 120.576 731.717 120.55 733.134C120.512 735.927 121.822 738.602 123.797 739.271C124.758 739.569 125.585 739.312 126.019 739.005C126.463 738.683 126.55 738.377 126.503 738.349Z" fill="#FF9A6C"/>
<path d="M118.337 687.632C118.381 683.302 112.972 680.469 108.754 679.488C104.535 678.508 100.077 679.79 96.2775 681.871C94.0548 683.088 91.819 684.821 91.3209 687.305C90.8244 689.789 93.2147 692.75 95.587 691.86C91.0414 693.416 88.7365 699.487 91.1038 703.668C93.4712 707.847 99.8631 708.994 103.534 705.897C102.349 709.864 99.7628 713.395 96.3383 715.721C103.459 716.737 111.019 713.696 115.453 708.032C119.887 702.37 121.028 694.302 118.337 687.632Z" fill="#1A2E35"/>
<path d="M108.727 709.649C108.629 709.664 108.259 708.094 108.211 705.494C108.155 702.902 108.54 699.28 109.804 695.504C111.083 691.733 112.969 688.615 114.582 686.585C116.193 684.545 117.437 683.517 117.506 683.59C117.761 683.771 113.117 688.369 110.674 695.796C108.126 703.188 109.04 709.66 108.727 709.649Z" fill="#FF8A00"/>
<path d="M170.212 672.754C171.486 678.39 180.051 685.617 183.811 690.005C190.985 698.376 192.401 701.156 192.33 719.871C195.717 713.409 198.311 707.074 198.051 699.781C197.79 692.489 195.105 685.183 190.035 679.935C184.965 674.686 177.434 671.708 170.212 672.754Z" fill="#1A2E35"/>
<path d="M228.921 826.771C228.921 826.771 214.001 801.895 209.86 796.865C205.979 792.147 200.977 789.363 197.64 787.902C195.782 787.09 193.829 786.532 191.832 786.185L170.376 781.434C170.376 781.434 170.338 796.079 154.993 796.985C139.648 797.892 126.728 776.517 126.728 776.517C126.728 776.517 101.94 780.351 96.0081 783.402C90.0749 786.452 80.755 790.328 75.6257 816.012L72.0254 841.138L114.769 845.09L118.86 908.604L140.057 923.364C140.057 923.364 198.824 938.643 202.579 939.654C206.334 940.664 207.578 845.09 207.578 845.09C207.578 845.09 222.673 835.328 228.921 826.771Z" fill="#7630A1"/>
<path d="M200.788 816.09C200.844 816.07 201.133 816.723 201.613 817.923C202.102 819.12 202.725 820.884 203.418 823.088C204.811 827.496 206.338 833.728 207.203 840.741C208.056 847.758 208.078 854.176 207.788 858.788C207.647 861.096 207.468 862.958 207.284 864.237C207.108 865.517 206.983 866.22 206.923 866.214C206.864 866.207 206.877 865.492 206.951 864.206C207.034 862.921 207.121 861.06 207.183 858.763C207.316 854.168 207.198 847.807 206.353 840.845C205.495 833.888 204.074 827.686 202.838 823.259C202.223 821.045 201.689 819.259 201.299 818.033C200.918 816.802 200.732 816.111 200.788 816.09Z" fill="#375A64"/>
<path d="M198.966 920.13L118.488 902.611L114.77 845.089L78.9814 841.78C78.9814 841.78 80.3049 881.104 81.6809 892.795C83.6603 909.61 93.5999 932.553 99.4131 937.137C105.228 941.72 202.579 939.654 202.579 939.654L198.966 920.13Z" fill="#FFBF9D"/>
<path d="M244.646 930.556C244.08 931.678 242.903 932.412 241.651 932.302C241.401 932.28 241.139 932.231 240.871 932.144C239.091 931.573 239.259 927.948 239.259 927.948L230.728 926.556C230.728 926.556 219.637 933.707 215.692 938.448C211.746 943.19 201.68 939.349 201.68 939.349L198.191 921.17L213.89 906.974C213.89 906.974 212.925 907.821 214.008 905.166C215.09 902.507 220.024 903.513 220.024 903.513C220.791 902.2 224.014 901.73 224.014 901.73L237.782 903.316C240.62 903.643 243.156 905.238 244.682 907.651L250.505 916.869C250.505 916.869 253.581 923.506 253.086 925.048C252.34 927.376 249.877 926.858 249.877 926.858C249.877 926.858 249.201 931.221 248.054 931.373C246.908 931.526 244.646 930.556 244.646 930.556Z" fill="#FFBF9D"/>
<path d="M215.34 917.5C215.355 917.643 217.186 917.474 220.127 917.602C223.06 917.745 227.121 918.259 231.364 919.706C233.485 920.418 235.443 921.279 237.157 922.182C238.823 923.119 240.557 923.89 241.092 925.1C241.358 925.694 241.238 926.297 240.94 926.741C240.651 927.185 240.253 927.476 239.901 927.619C239.178 927.918 238.709 927.714 238.695 927.798C238.66 927.816 239.12 928.176 240.013 927.943C240.444 927.826 240.942 927.538 241.341 927.025C241.751 926.537 241.986 925.667 241.667 924.87C241.369 924.066 240.685 923.446 239.954 922.935C239.204 922.443 238.418 921.94 237.542 921.47C235.809 920.508 233.815 919.603 231.643 918.873C227.3 917.395 223.124 916.966 220.14 916.982C217.143 917.012 215.325 917.403 215.34 917.5Z" fill="#FF9A6C"/>
<path d="M214.377 926.279C214.393 926.54 219.996 926.307 226.88 926.709C233.768 927.088 239.308 927.956 239.354 927.697C239.374 927.584 238.011 927.221 235.769 926.828C233.526 926.433 230.403 926.032 226.931 925.833C223.46 925.638 220.31 925.682 218.038 925.82C215.765 925.958 214.37 926.165 214.377 926.279Z" fill="#FF9A6C"/>
<path d="M244.567 930.207C244.613 930.199 244.674 929.693 244.739 928.739C244.797 927.791 244.856 926.415 244.749 924.706C244.69 923.855 244.6 922.914 244.365 921.915C244.146 920.909 243.666 919.848 243.012 918.915C241.77 917.036 240.046 915.091 237.853 913.631C235.666 912.187 233.48 910.971 231.267 910.302C229.07 909.636 227.015 909.473 225.319 909.398C223.616 909.337 222.245 909.375 221.298 909.411C220.351 909.448 219.826 909.498 219.826 909.557C219.82 909.698 221.926 909.769 225.279 910.016C226.95 910.17 228.942 910.395 231.025 911.073C233.09 911.737 235.24 912.958 237.355 914.353C239.47 915.77 241.081 917.552 242.344 919.372C243.676 921.109 243.924 923.102 244.129 924.761C244.462 928.095 244.378 930.212 244.567 930.207Z" fill="#FF9A6C"/>
<path d="M224.678 905.228C224.678 905.359 226.738 905.412 230.027 905.792C233.197 906.278 238.267 906.508 241.154 910.878C244.281 914.85 246.941 918.6 248.105 921.678C249.338 924.734 249.228 926.848 249.407 926.833C249.454 926.835 249.535 926.315 249.487 925.373C249.448 924.433 249.246 923.062 248.687 921.462C247.628 918.214 244.986 914.322 241.839 910.329C241.037 909.325 240.169 908.373 239.163 907.623C238.16 906.857 236.995 906.411 235.923 906.101C233.753 905.487 231.755 905.308 230.086 905.173C226.744 904.95 224.676 905.118 224.678 905.228Z" fill="#FF9A6C"/>
<path d="M218.704 935.513C218.722 935.535 219.003 935.319 219.523 934.888C220.111 934.415 220.876 933.802 221.827 933.037C223.861 931.466 226.883 929.227 230.876 926.803L230.682 926.843C233.225 927.275 236.094 927.763 239.201 928.291L238.91 927.933C238.89 928.63 238.93 929.31 239.068 930.016C239.211 930.709 239.431 931.457 240.035 932.066C240.349 932.362 240.796 932.538 241.166 932.585C241.546 932.682 241.958 932.722 242.366 932.656C243.178 932.539 243.944 932.112 244.487 931.482C244.626 931.328 244.745 931.155 244.857 930.977L244.935 930.841L244.973 930.772L244.991 930.739L244.995 930.734C245.105 930.691 244.043 931.081 244.495 930.917L244.503 930.92L244.521 930.928L244.791 931.037C245.151 931.18 245.517 931.309 245.892 931.428C246.269 931.545 246.653 931.647 247.06 931.719C247.265 931.753 247.472 931.783 247.694 931.788C247.901 931.796 248.151 931.803 248.483 931.637C248.963 931.293 249.136 930.889 249.318 930.507C249.489 930.121 249.627 929.73 249.741 929.335C249.978 928.546 250.149 927.75 250.29 926.922L249.792 927.267C250.898 927.463 252.2 927.195 252.968 926.183C253.313 925.713 253.596 925.133 253.555 924.467C253.527 923.87 253.392 923.348 253.252 922.817C252.656 920.725 251.812 918.72 250.902 916.686L250.892 916.661L250.874 916.637C249.884 915.067 248.833 913.403 247.77 911.718C247.109 910.672 246.451 909.633 245.8 908.603C245.146 907.603 244.559 906.482 243.64 905.584C242.756 904.69 241.694 903.99 240.549 903.531C239.415 903.039 238.151 902.918 237.038 902.803C232.476 902.288 228.126 901.798 224.058 901.341L224.002 901.336L223.956 901.343C223.159 901.479 222.413 901.665 221.681 901.943C220.966 902.23 220.21 902.554 219.702 903.325L220.18 903.176C218.722 902.579 217.034 902.572 215.758 903.422C214.475 904.267 213.884 905.63 213.57 906.911L213.673 906.73C209.165 910.784 205.486 914.094 202.854 916.459C201.642 917.577 200.672 918.47 199.941 919.144C199.282 919.767 198.943 920.106 198.966 920.13C198.987 920.153 199.365 919.861 200.066 919.285C200.825 918.644 201.833 917.794 203.094 916.73C205.772 914.417 209.517 911.182 214.104 907.218L214.18 907.154L214.209 907.039C214.497 905.91 215.079 904.665 216.138 904.011C217.165 903.317 218.645 903.34 219.866 903.85L220.167 903.975L220.345 903.7C220.639 903.241 221.293 902.896 221.949 902.656C222.612 902.41 223.346 902.232 224.07 902.117L223.97 902.119C228.034 902.597 232.38 903.11 236.941 903.648C238.103 903.776 239.188 903.884 240.227 904.331C241.261 904.751 242.221 905.385 243.02 906.196C243.832 906.982 244.385 908.034 245.06 909.069C245.71 910.1 246.367 911.141 247.028 912.188C248.092 913.87 249.144 915.535 250.135 917.102L250.109 917.053C251.005 919.042 251.85 921.054 252.424 923.043C252.559 923.538 252.68 924.046 252.702 924.498C252.748 924.89 252.549 925.312 252.296 925.667C251.801 926.368 250.801 926.586 249.963 926.45L249.534 926.379L249.465 926.793C249.335 927.574 249.17 928.36 248.953 929.103C248.748 929.805 248.439 930.66 248.062 930.946C248.043 930.956 247.896 931 247.715 930.982C247.549 930.982 247.37 930.958 247.194 930.93C246.838 930.871 246.479 930.775 246.126 930.67C245.771 930.561 245.42 930.44 245.077 930.307L244.824 930.205L244.809 930.2L244.802 930.198C245.251 930.032 244.186 930.418 244.296 930.381L244.293 930.384L244.28 930.41L244.25 930.466L244.189 930.575C244.1 930.714 244.008 930.851 243.9 930.972C243.474 931.476 242.877 931.811 242.256 931.906C241.943 931.957 241.631 931.929 241.319 931.85C240.978 931.804 240.751 931.709 240.539 931.525C239.727 930.68 239.611 929.169 239.606 927.964L239.604 927.65L239.315 927.604C236.199 927.117 233.326 926.668 230.776 926.271L230.666 926.253L230.58 926.307C226.585 928.822 223.614 931.135 221.628 932.792C220.642 933.629 219.901 934.298 219.414 934.768C218.929 935.239 218.684 935.493 218.704 935.513Z" fill="#FF9A6C"/>
<path d="M349.062 877.674L243.058 878.535C239.621 878.535 236.334 880.188 235.82 883.587L224.234 960.847H169.636C167.878 960.847 166.451 962.271 166.451 964.03C166.451 965.787 167.878 967.213 169.636 967.213H223.281H233.464H344.021L355.939 885.672C356.576 881.463 353.318 877.674 349.062 877.674Z" fill="#E1E1E1"/>
<path d="M349.062 877.674C349.062 877.674 349.639 877.602 350.732 877.832C351.794 878.078 353.464 878.733 354.781 880.516C355.439 881.389 355.937 882.553 356.092 883.9C356.264 885.264 355.873 886.704 355.702 888.26C355.258 891.382 354.747 894.979 354.173 899.02C351.84 915.216 348.478 938.561 344.344 967.26L344.304 967.541H344.021C298.895 967.566 239.596 967.602 174.839 967.64H170.287C169.585 967.671 168.607 967.63 167.878 967.183C167.125 966.769 166.54 966.073 166.247 965.271C165.613 963.652 166.371 961.671 167.893 960.868C168.62 960.428 169.588 960.392 170.282 960.42H172.524C178.497 960.421 184.409 960.421 190.243 960.421C201.914 960.426 213.281 960.43 224.235 960.434L223.827 960.785C227.996 933.116 231.887 907.305 235.376 884.15C235.498 882.685 236.16 881.097 237.337 880.114C238.488 879.093 239.945 878.55 241.391 878.325C242.866 878.101 244.268 878.221 245.664 878.174C247.065 878.165 248.451 878.156 249.827 878.146C255.331 878.11 260.656 878.073 265.787 878.039C276.045 877.973 285.533 877.914 294.147 877.858C311.358 877.771 325.079 877.7 334.524 877.653C339.219 877.643 342.844 877.638 345.327 877.633C346.538 877.638 347.464 877.643 348.115 877.646C348.743 877.653 349.062 877.674 349.062 877.674C349.062 877.674 348.743 877.702 348.115 877.718C347.466 877.733 346.538 877.751 345.327 877.776C342.846 877.812 339.219 877.865 334.526 877.934C325.079 878.037 311.36 878.19 294.151 878.382C285.534 878.466 276.047 878.562 265.788 878.664C260.657 878.711 255.334 878.762 249.83 878.815C248.454 878.828 247.066 878.841 245.667 878.854C244.273 878.902 242.838 878.793 241.498 879.007C240.152 879.218 238.817 879.729 237.803 880.636C236.76 881.544 236.209 882.81 236.078 884.256C232.622 907.415 228.772 933.233 224.644 960.908L224.591 961.26H224.235C213.281 961.263 201.914 961.266 190.243 961.271C184.409 961.271 178.497 961.273 172.524 961.275H170.282C169.489 961.252 168.901 961.283 168.306 961.617C167.145 962.231 166.565 963.742 167.051 964.975C167.273 965.587 167.72 966.121 168.294 966.437C168.891 966.775 169.486 966.807 170.287 966.785H174.839C239.596 966.823 298.895 966.859 344.021 966.886L343.696 967.165C347.951 938.484 351.409 915.154 353.81 898.965C354.416 894.929 354.956 891.337 355.424 888.218C355.612 886.657 356.013 885.225 355.857 883.924C355.722 882.622 355.255 881.486 354.627 880.628C353.371 878.874 351.748 878.198 350.709 877.925C349.639 877.667 349.059 877.717 349.062 877.674Z" fill="#1A2E35"/>
<path d="M284.928 921.461C284.928 925.125 287.898 928.097 291.565 928.097C295.229 928.097 298.201 925.125 298.201 921.461C298.201 917.796 295.229 914.825 291.565 914.825C287.898 914.825 284.928 917.796 284.928 921.461Z" fill="white"/>
<path d="M228.531 966.499C228.68 966.525 232.055 946.851 236.065 922.563C240.078 898.269 243.21 878.56 243.059 878.535C242.909 878.51 239.535 898.179 235.522 922.476C231.511 946.761 228.381 966.474 228.531 966.499Z" fill="#1A2E35"/>
<path d="M466.287 925.89C466.885 926.067 467.342 926.357 467.659 926.758C467.977 927.159 468.135 927.654 468.135 928.242C468.135 929.11 467.804 929.787 467.141 930.272C466.488 930.757 465.55 931 464.327 931H459.497V921.2H464.061C465.2 921.2 466.087 921.419 466.721 921.858C467.356 922.297 467.673 922.922 467.673 923.734C467.673 924.219 467.552 924.649 467.309 925.022C467.067 925.386 466.726 925.675 466.287 925.89ZM461.751 925.26H463.865C464.36 925.26 464.733 925.162 464.985 924.966C465.237 924.761 465.363 924.462 465.363 924.07C465.363 923.687 465.233 923.393 464.971 923.188C464.719 922.983 464.351 922.88 463.865 922.88H461.751V925.26ZM464.243 929.32C465.307 929.32 465.839 928.9 465.839 928.06C465.839 927.248 465.307 926.842 464.243 926.842H461.751V929.32H464.243ZM476.565 928.9H472.015L471.147 931H468.823L473.191 921.2H475.431L479.813 931H477.433L476.565 928.9ZM475.851 927.178L474.297 923.426L472.743 927.178H475.851ZM494.049 921.2V931H481.113V921.2H483.367V929.152H486.461V921.2H488.715V929.152H491.795V921.2H494.049ZM504.239 927.052H502.671V931H500.417V921.2H502.671V925.162H504.295L506.871 921.2H509.265L506.059 925.932L509.363 931H506.787L504.239 927.052ZM515.06 931.168C514.043 931.168 513.123 930.949 512.302 930.51C511.49 930.071 510.851 929.469 510.384 928.704C509.927 927.929 509.698 927.061 509.698 926.1C509.698 925.139 509.927 924.275 510.384 923.51C510.851 922.735 511.49 922.129 512.302 921.69C513.123 921.251 514.043 921.032 515.06 921.032C516.077 921.032 516.992 921.251 517.804 921.69C518.616 922.129 519.255 922.735 519.722 923.51C520.189 924.275 520.422 925.139 520.422 926.1C520.422 927.061 520.189 927.929 519.722 928.704C519.255 929.469 518.616 930.071 517.804 930.51C516.992 930.949 516.077 931.168 515.06 931.168ZM515.06 929.236C515.639 929.236 516.161 929.105 516.628 928.844C517.095 928.573 517.459 928.2 517.72 927.724C517.991 927.248 518.126 926.707 518.126 926.1C518.126 925.493 517.991 924.952 517.72 924.476C517.459 924 517.095 923.631 516.628 923.37C516.161 923.099 515.639 922.964 515.06 922.964C514.481 922.964 513.959 923.099 513.492 923.37C513.025 923.631 512.657 924 512.386 924.476C512.125 924.952 511.994 925.493 511.994 926.1C511.994 926.707 512.125 927.248 512.386 927.724C512.657 928.2 513.025 928.573 513.492 928.844C513.959 929.105 514.481 929.236 515.06 929.236ZM532.004 929.152V933.03H529.904V931H522.988V933.03H520.888L520.902 929.152H521.294C521.882 929.133 522.297 928.704 522.54 927.864C522.782 927.024 522.932 925.825 522.988 924.266L523.1 921.2H530.632V929.152H532.004ZM524.99 924.476C524.943 925.643 524.845 926.623 524.696 927.416C524.546 928.2 524.318 928.779 524.01 929.152H528.392V923.048H525.032L524.99 924.476ZM547.603 929.152V933.03H545.503V931H538.587V933.03H536.487L536.501 929.152H536.893C537.481 929.133 537.897 928.704 538.139 927.864C538.382 927.024 538.531 925.825 538.587 924.266L538.699 921.2H546.231V929.152H547.603ZM540.589 924.476C540.543 925.643 540.445 926.623 540.295 927.416C540.146 928.2 539.917 928.779 539.609 929.152H543.991V923.048H540.631L540.589 924.476ZM553.806 931.168C552.789 931.168 551.869 930.949 551.048 930.51C550.236 930.071 549.597 929.469 549.13 928.704C548.673 927.929 548.444 927.061 548.444 926.1C548.444 925.139 548.673 924.275 549.13 923.51C549.597 922.735 550.236 922.129 551.048 921.69C551.869 921.251 552.789 921.032 553.806 921.032C554.823 921.032 555.738 921.251 556.55 921.69C557.362 922.129 558.001 922.735 558.468 923.51C558.935 924.275 559.168 925.139 559.168 926.1C559.168 927.061 558.935 927.929 558.468 928.704C558.001 929.469 557.362 930.071 556.55 930.51C555.738 930.949 554.823 931.168 553.806 931.168ZM553.806 929.236C554.385 929.236 554.907 929.105 555.374 928.844C555.841 928.573 556.205 928.2 556.466 927.724C556.737 927.248 556.872 926.707 556.872 926.1C556.872 925.493 556.737 924.952 556.466 924.476C556.205 924 555.841 923.631 555.374 923.37C554.907 923.099 554.385 922.964 553.806 922.964C553.227 922.964 552.705 923.099 552.238 923.37C551.771 923.631 551.403 924 551.132 924.476C550.871 924.952 550.74 925.493 550.74 926.1C550.74 926.707 550.871 927.248 551.132 927.724C551.403 928.2 551.771 928.573 552.238 928.844C552.705 929.105 553.227 929.236 553.806 929.236ZM565.549 931.168C564.551 931.168 563.645 930.953 562.833 930.524C562.031 930.085 561.396 929.483 560.929 928.718C560.472 927.943 560.243 927.071 560.243 926.1C560.243 925.129 560.472 924.261 560.929 923.496C561.396 922.721 562.031 922.119 562.833 921.69C563.645 921.251 564.555 921.032 565.563 921.032C566.413 921.032 567.178 921.181 567.859 921.48C568.55 921.779 569.129 922.208 569.595 922.768L568.139 924.112C567.477 923.347 566.655 922.964 565.675 922.964C565.069 922.964 564.527 923.099 564.051 923.37C563.575 923.631 563.202 924 562.931 924.476C562.67 924.952 562.539 925.493 562.539 926.1C562.539 926.707 562.67 927.248 562.931 927.724C563.202 928.2 563.575 928.573 564.051 928.844C564.527 929.105 565.069 929.236 565.675 929.236C566.655 929.236 567.477 928.849 568.139 928.074L569.595 929.418C569.129 929.987 568.55 930.421 567.859 930.72C567.169 931.019 566.399 931.168 565.549 931.168ZM578.468 923.048H575.332V931H573.092V923.048H569.97V921.2H578.468V923.048ZM588.316 921.2L584.144 928.956C583.743 929.703 583.257 930.267 582.688 930.65C582.128 931.033 581.517 931.224 580.854 931.224C580.341 931.224 579.809 931.112 579.258 930.888L579.804 929.166C580.196 929.287 580.523 929.348 580.784 929.348C581.064 929.348 581.316 929.283 581.54 929.152C581.764 929.012 581.969 928.797 582.156 928.508L582.24 928.396L578.376 921.2H580.798L583.402 926.464L586.09 921.2H588.316ZM598.326 921.2V931H596.072V923.048H591.648V931H589.394V921.2H598.326ZM607.391 928.9H602.841L601.973 931H599.649L604.017 921.2H606.257L610.639 931H608.259L607.391 928.9ZM606.677 927.178L605.123 923.426L603.569 927.178H606.677Z" fill="#263238"/>
<defs>
<filter id="filter0_i_494_1708" x="33.5166" y="0.46582" width="815.483" height="1369.53" filterUnits="userSpaceOnUse" color-interpolation-filters="sRGB">
<feFlood flood-opacity="0" result="BackgroundImageFix"/>
<feBlend mode="normal" in="SourceGraphic" in2="BackgroundImageFix" result="shape"/>
<feColorMatrix in="SourceAlpha" type="matrix" values="0 0 0 0 0 0 0 0 0 0 0 0 0 0 0 0 0 0 127 0" result="hardAlpha"/>
<feOffset dy="4"/>
<feGaussianBlur stdDeviation="31.5"/>
<feComposite in2="hardAlpha" operator="arithmetic" k2="-1" k3="1"/>
<feColorMatrix type="matrix" values="0 0 0 0 0.671667 0 0 0 0 0.3224 0 0 0 0 0 0 0 0 0.53 0"/>
<feBlend mode="normal" in2="shape" result="effect1_innerShadow_494_1708"/>
</filter>
<linearGradient id="paint0_linear_494_1708" x1="441.584" y1="919.891" x2="1043.82" y2="1328.49" gradientUnits="userSpaceOnUse">
<stop stop-color="#FEA500"/>
<stop offset="1" stop-color="#F2D01C"/>
</linearGradient>
<linearGradient id="paint1_linear_494_1708" x1="527.247" y1="631.374" x2="901.456" y2="803.587" gradientUnits="userSpaceOnUse">
<stop stop-color="#FE5B00"/>
<stop offset="1" stop-color="#F2D01C" stop-opacity="0"/>
</linearGradient>
</defs>
</svg>
