<svg width="20" height="21" viewBox="0 0 20 21" fill="none" xmlns="http://www.w3.org/2000/svg">
<path d="M8.5 12C8.5 12.5523 8.94772 13 9.5 13C10.0523 13 10.5 12.5523 10.5 12H8.5ZM10.5 8C10.5 7.44772 10.0523 7 9.5 7C8.94772 7 8.5 7.44772 8.5 8H10.5ZM17.7929 5.70711C18.1834 6.09763 18.8166 6.09763 19.2071 5.70711C19.5976 5.31658 19.5976 4.68342 19.2071 4.29289L17.7929 5.70711ZM17.2071 2.29289C16.8166 1.90237 16.1834 1.90237 15.7929 2.29289C15.4024 2.68342 15.4024 3.31658 15.7929 3.70711L17.2071 2.29289ZM7.5 0C6.94772 0 6.5 0.447715 6.5 1C6.5 1.55228 6.94772 2 7.5 2V0ZM11.5 2C12.0523 2 12.5 1.55228 12.5 1C12.5 0.447715 12.0523 0 11.5 0V2ZM9.5 19C5.63401 19 2.5 15.866 2.5 12H0.5C0.5 16.9706 4.52944 21 9.5 21V19ZM2.5 12C2.5 8.13401 5.63401 5 9.5 5V3C4.52944 3 0.5 7.02944 0.5 12H2.5ZM9.5 5C13.366 5 16.5 8.13401 16.5 12H18.5C18.5 7.02944 14.4706 3 9.5 3V5ZM16.5 12C16.5 15.866 13.366 19 9.5 19V21C14.4706 21 18.5 16.9706 18.5 12H16.5ZM10.5 12V8H8.5V12H10.5ZM19.2071 4.29289L17.2071 2.29289L15.7929 3.70711L17.7929 5.70711L19.2071 4.29289ZM7.5 2H11.5V0H7.5V2Z" fill="white"/>
</svg>
