<svg width="32" height="32" viewBox="0 0 32 32" fill="none" xmlns="http://www.w3.org/2000/svg">
<g clip-path="url(#clip0_21_317)">
<path d="M31.5334 9.78013C31.5334 9.78013 31.2275 7.62066 30.2854 6.67245C29.0925 5.42449 27.7589 5.41837 27.1472 5.34496C22.767 5.02686 16.1908 5.02686 16.1908 5.02686H16.1785C16.1785 5.02686 9.60225 5.02686 5.22214 5.34496C4.6104 5.41837 3.27679 5.42449 2.08388 6.67245C1.14179 7.62066 0.842034 9.78013 0.842034 9.78013C0.842034 9.78013 0.523926 12.3189 0.523926 14.8515V17.2251C0.523926 19.7577 0.835917 22.2965 0.835917 22.2965C0.835917 22.2965 1.14179 24.4559 2.07776 25.4041C3.27067 26.6521 4.83674 26.6093 5.53413 26.7439C8.0423 26.9825 16.1846 27.0559 16.1846 27.0559C16.1846 27.0559 22.767 27.0436 27.1472 26.7316C27.7589 26.6582 29.0925 26.6521 30.2854 25.4041C31.2275 24.4559 31.5334 22.2965 31.5334 22.2965C31.5334 22.2965 31.8454 19.7638 31.8454 17.2251V14.8515C31.8454 12.3189 31.5334 9.78013 31.5334 9.78013ZM12.9485 20.1064V11.3034L21.409 15.7202L12.9485 20.1064Z" fill="#A53436"/>
</g>
<defs>
<clipPath id="clip0_21_317">
<rect width="31.3214" height="31.3214" fill="white" transform="translate(0.523926 0.383789)"/>
</clipPath>
</defs>
</svg>
