<svg width="148" height="39" viewBox="0 0 148 39" fill="none" xmlns="http://www.w3.org/2000/svg">
<g clip-path="url(#clip0_242_116)">
<path d="M26.8097 16.9453V0.908312H37.1234V3.90617H29.9547V7.1297H35.2272V9.91807H29.9547V13.9797H37.4163V16.9453H26.8097ZM129.824 1.42404C129.721 1.40389 129.629 1.34698 129.562 1.2631C129.496 1.17922 129.459 1.07365 129.459 0.964681C129.459 0.855709 129.496 0.750188 129.562 0.666311C129.629 0.582435 129.721 0.525519 129.824 0.505371H136.885C139.826 0.518068 142.644 1.74424 144.726 3.91734C146.807 6.09044 147.984 9.03473 148 12.11V35.3839C148.003 35.8045 147.848 36.2094 147.568 36.5122C147.286 36.7809 146.918 36.9302 146.535 36.9312H131.242C131.178 36.9439 131.111 36.9416 131.048 36.9244C130.984 36.9072 130.925 36.8755 130.874 36.8317C130.824 36.7878 130.783 36.7328 130.755 36.6706C130.727 36.6084 130.712 36.5406 130.712 36.4719C130.712 36.4032 130.727 36.3353 130.755 36.2731C130.783 36.211 130.824 36.156 130.874 36.1121C130.925 36.0682 130.984 36.0366 131.048 36.0194C131.111 36.0022 131.178 35.9998 131.242 36.0126H146.458C146.615 36.0217 146.768 35.9699 146.89 35.8674C146.948 35.8028 146.993 35.7268 147.022 35.6437C147.051 35.5606 147.064 35.4723 147.06 35.3839V12.11C147.06 10.7113 146.796 9.32643 146.282 8.03475C145.769 6.74306 145.017 5.57008 144.069 4.58313C143.123 3.57377 141.997 2.76941 140.753 2.21625C139.51 1.66308 138.174 1.37199 136.823 1.3596L129.824 1.42404ZM18.1764 0.505371C18.2788 0.525519 18.3713 0.582435 18.4378 0.666311C18.5043 0.750188 18.5407 0.855709 18.5407 0.964681C18.5407 1.07365 18.5043 1.17922 18.4378 1.2631C18.3713 1.34698 18.2788 1.40389 18.1764 1.42404H11.1155C9.76425 1.43643 8.42865 1.72757 7.18525 2.28073C5.94185 2.8339 4.81511 3.6382 3.86966 4.64757C2.92165 5.63451 2.16945 6.8075 1.6562 8.09918C1.14295 9.39086 0.878778 10.7758 0.87885 12.1745V35.4484C0.874719 35.5368 0.887593 35.6251 0.916723 35.7082C0.945853 35.7912 0.990625 35.8673 1.04841 35.9319C1.17019 36.0344 1.324 36.0861 1.4801 36.077H16.7734C16.838 36.0643 16.9045 36.0666 16.9681 36.0838C17.0317 36.101 17.0909 36.1327 17.1415 36.1766C17.1921 36.2205 17.2328 36.2754 17.2608 36.3376C17.2887 36.3998 17.3032 36.4676 17.3032 36.5363C17.3032 36.605 17.2887 36.6729 17.2608 36.7351C17.2328 36.7973 17.1921 36.8522 17.1415 36.8961C17.0909 36.94 17.0317 36.9717 16.9681 36.9889C16.9045 37.0061 16.838 37.0084 16.7734 36.9957H1.54175C1.15967 36.9947 0.79158 36.8453 0.508841 36.5766C0.229668 36.2738 0.0747598 35.869 0.0771763 35.4484V12.11C0.0934032 9.03473 1.27019 6.09044 3.35167 3.91734C5.43314 1.74424 8.25102 0.518068 11.1926 0.505371H18.1764ZM29.5384 27.035H30.1397V36.5122H28.3205V30.742L23.1251 36.6733H22.5392V27.2123H24.3584V32.9179L29.5539 27.035H29.5384ZM38.5572 33.756C38.5693 34.1587 38.492 34.5589 38.3315 34.9252C38.1711 35.2915 37.9317 35.614 37.6322 35.8674C36.9367 36.4402 36.0648 36.7268 35.1809 36.6733C34.4464 36.6843 33.7225 36.4895 33.0842 36.1093C32.4757 35.7273 31.9878 35.1668 31.6813 34.4975L32.9455 33.5466C33.172 33.9536 33.4956 34.2923 33.8847 34.5296C34.2738 34.7668 34.7151 34.8946 35.1655 34.9004C35.5752 34.9159 35.9793 34.7976 36.3218 34.5619C36.4626 34.4589 36.5771 34.3212 36.655 34.1609C36.733 34.0007 36.7721 33.823 36.7688 33.6433C36.7725 33.4856 36.7409 33.3292 36.6767 33.1866C36.6125 33.0439 36.5173 32.9188 36.3988 32.8212C36.0853 32.6014 35.7121 32.4939 35.3351 32.515H34.1634V30.9032H35.1963C35.5085 30.9215 35.8161 30.8181 36.0597 30.6131C36.1683 30.5118 36.2552 30.3876 36.3147 30.2487C36.3743 30.1099 36.405 29.9594 36.405 29.8072C36.405 29.6551 36.3743 29.5046 36.3147 29.3657C36.2552 29.2268 36.1683 29.1027 36.0597 29.0014C35.7945 28.792 35.4663 28.689 35.1347 28.7113C34.7514 28.7133 34.3763 28.8277 34.052 29.0414C33.7277 29.255 33.4673 29.5595 33.3001 29.9201L32.0359 28.9691C32.3115 28.3483 32.7567 27.8267 33.3155 27.4702C33.897 27.1064 34.5651 26.922 35.2426 26.9383C36.0188 26.8889 36.7842 27.1479 37.3855 27.6636C37.6538 27.9092 37.8653 28.2152 38.0041 28.5586C38.143 28.902 38.2056 29.2738 38.1872 29.6461C38.1934 30.01 38.1154 30.3701 37.9597 30.6957C37.804 31.0212 37.5752 31.3026 37.293 31.5157C37.6905 31.6932 38.0263 31.9939 38.2551 32.3773C38.4839 32.7606 38.5947 33.2081 38.5726 33.6593L38.5572 33.756ZM47.283 34.7876H48.4701V38.4946H46.6509V36.5122H41.1009V38.4946H39.2818V34.7876H40.0834C40.808 34.159 41.178 32.1443 41.178 28.7435V27.1317H47.3447V34.707L47.283 34.7876ZM41.9797 34.7876H45.4638V28.9369H42.8122C42.9112 30.9257 42.6282 32.9151 41.9797 34.7876ZM55.5463 36.5122L55.053 35.3034H51.4147L50.9213 36.5122H48.9634L52.9409 27.035H53.5422L57.5042 36.5122H55.5463ZM54.4209 33.74L53.2338 30.597L52.0468 33.74H54.4209ZM59.7089 36.5122V28.9369H56.8722V27.2123H64.3801V28.9369H61.528V36.5122H59.7089ZM65.5826 36.5122V27.2123H71.5643V28.9369H67.4018V30.8227H70.4851V32.4344H67.4018V34.7876H71.7338V36.5122H65.5826ZM74.2005 27.2123H80.2901V36.5122H78.4709V28.9369H75.9117C75.9197 30.4986 75.7907 32.0578 75.5263 33.5949C75.4186 34.4472 75.1056 35.2568 74.6168 35.9481C74.4205 36.1699 74.1818 36.3462 73.9163 36.4656C73.6507 36.585 73.3641 36.6448 73.0751 36.6411C72.8134 36.6388 72.5535 36.5954 72.3043 36.5122V34.9004H72.6743C73.219 34.9004 73.6044 34.433 73.8305 33.4981C74.1145 31.991 74.2437 30.4565 74.216 28.9207V27.1962L74.2005 27.2123ZM82.3405 36.5122V27.2123H84.1597V30.4358H85.7785C86.6343 30.404 87.4704 30.7088 88.1218 31.29C88.4098 31.572 88.6393 31.9127 88.7962 32.2911C88.9532 32.6696 89.0342 33.0777 89.0342 33.4901C89.0342 33.9026 88.9532 34.3107 88.7962 34.6891C88.6393 35.0676 88.4098 35.4083 88.1218 35.6902C87.4704 36.2714 86.6343 36.5762 85.7785 36.5444L82.3405 36.5122ZM84.1597 34.9004H85.7785C86.1508 34.9199 86.5157 34.7869 86.7959 34.5297C86.9201 34.3988 87.0172 34.2425 87.0808 34.0705C87.1445 33.8985 87.1735 33.7146 87.1659 33.5304C87.1738 33.3437 87.145 33.1573 87.0814 32.9827C87.0177 32.8081 86.9206 32.6489 86.7959 32.515C86.6603 32.3817 86.5001 32.2787 86.3252 32.2122C86.1503 32.1457 85.9643 32.1171 85.7785 32.1282H84.1597V34.9004ZM90.0643 31.9187C90.0506 31.2788 90.1672 30.6432 90.4064 30.0541C90.6456 29.465 91.002 28.9358 91.4518 28.5017C91.8875 28.0404 92.4093 27.6779 92.9849 27.4366C93.5604 27.1954 94.1773 27.0806 94.7972 27.0995C95.6008 27.0915 96.3925 27.3026 97.0943 27.7119C97.7755 28.1181 98.3399 28.7082 98.7284 29.4204L97.3563 30.4358C97.1073 29.9518 96.7384 29.5468 96.2881 29.2632C95.8378 28.9796 95.3228 28.8279 94.7972 28.824C94.4164 28.8133 94.0377 28.8852 93.6849 29.035C93.332 29.1847 93.0126 29.4093 92.7468 29.6944C92.218 30.2905 91.9242 31.0734 91.9242 31.8864C91.9242 32.6994 92.218 33.4823 92.7468 34.0784C93.0155 34.3583 93.3358 34.5784 93.6882 34.7252C94.0407 34.872 94.4179 34.9426 94.7972 34.9326C95.3228 34.9288 95.8378 34.7771 96.2881 34.4935C96.7384 34.2099 97.1073 33.8049 97.3563 33.3209L98.7284 34.3363C98.3752 35.0896 97.8175 35.7174 97.1251 36.1415C96.4188 36.5535 95.6214 36.7647 94.8126 36.7539C94.191 36.7801 93.571 36.6703 92.9923 36.4316C92.4136 36.1929 91.8889 35.8306 91.4518 35.3678C90.9996 34.933 90.6427 34.4011 90.4059 33.8085C90.169 33.2159 90.0578 32.5767 90.0797 31.9348L90.0643 31.9187ZM102.274 36.5766V29.0014H99.4376V27.2768H106.961V29.0014H104.093V36.5766H102.274ZM115.039 33.8367C115.048 34.2068 114.979 34.5745 114.838 34.9141C114.697 35.2537 114.487 35.5571 114.222 35.803C113.636 36.3283 112.882 36.6044 112.11 36.5766H108.148V27.2768H111.308C112.045 27.2442 112.766 27.5032 113.328 28.0021C113.585 28.2326 113.791 28.5198 113.929 28.843C114.068 29.1663 114.136 29.5175 114.13 29.8717C113.856 30.1622 113.657 30.5209 113.552 30.914C113.447 31.307 113.44 31.7215 113.531 32.1183C113.622 32.515 113.809 32.881 114.072 33.1816C114.336 33.4823 114.669 33.7077 115.039 33.8367ZM111.154 28.9047H109.906V31.0322H111.154C111.464 31.0505 111.77 30.9535 112.018 30.7582C112.118 30.6563 112.196 30.5331 112.247 30.3968C112.297 30.2604 112.319 30.1144 112.311 29.9684C112.321 29.8247 112.3 29.6803 112.249 29.5463C112.199 29.4123 112.119 29.2921 112.018 29.1948C111.775 28.9869 111.467 28.8832 111.154 28.9047ZM113.251 33.74C113.255 33.5806 113.227 33.422 113.169 33.2748C113.11 33.1276 113.023 32.995 112.912 32.8857C112.652 32.6635 112.322 32.5488 111.987 32.5634H109.906V34.9004H111.987C112.321 34.9211 112.65 34.812 112.912 34.5942C113.023 34.4849 113.11 34.3523 113.169 34.2051C113.227 34.0578 113.255 33.8993 113.251 33.74ZM116.011 31.8864C115.998 31.2482 116.113 30.6143 116.35 30.0257C116.586 29.4371 116.938 28.9069 117.383 28.4695C117.822 28.0135 118.345 27.6545 118.919 27.4137C119.494 27.1728 120.109 27.055 120.728 27.0672C121.347 27.055 121.962 27.1728 122.537 27.4137C123.111 27.6545 123.634 28.0135 124.073 28.4695C124.523 28.9036 124.88 29.4328 125.119 30.0219C125.358 30.611 125.475 31.2465 125.461 31.8864C125.473 32.5284 125.356 33.1658 125.116 33.7573C124.877 34.3487 124.522 34.881 124.073 35.3195C123.636 35.777 123.113 36.1361 122.538 36.3745C121.963 36.6129 121.347 36.7256 120.728 36.7056C120.109 36.7285 119.492 36.6172 118.917 36.3786C118.341 36.14 117.819 35.7794 117.383 35.3195C116.938 34.8783 116.587 34.3452 116.351 33.7541C116.114 33.163 115.998 32.5269 116.011 31.8864ZM123.596 31.8864C123.605 31.4826 123.538 31.0809 123.398 30.7046C123.257 30.3283 123.047 29.9849 122.778 29.6944C122.513 29.4142 122.196 29.1938 121.846 29.0469C121.496 28.9 121.12 28.8296 120.743 28.8402C120.366 28.8267 119.99 28.8957 119.64 29.0428C119.289 29.1899 118.972 29.4118 118.708 29.6944C118.175 30.2914 117.879 31.0777 117.879 31.8945C117.879 32.7112 118.175 33.4976 118.708 34.0945C119.259 34.6434 119.99 34.9495 120.751 34.9495C121.512 34.9495 122.243 34.6434 122.794 34.0945C123.065 33.8027 123.277 33.4567 123.417 33.0774C123.558 32.698 123.623 32.2929 123.611 31.8864H123.596ZM76.4822 16.9776V0.94053H79.5655V7.1297H86.3334V0.988881H89.4168V17.026H86.3334V10.0953H79.5501V17.026L76.4822 16.9776ZM40.1297 16.9776V0.94053H45.1555C47.3617 0.819117 49.5256 1.60597 51.1834 3.13251C51.9583 3.8521 52.5694 4.74368 52.9722 5.74203C53.375 6.74039 53.5592 7.82028 53.5113 8.90265C53.5521 9.99035 53.3633 11.0741 52.9583 12.0769C52.5533 13.0797 51.9421 13.977 51.168 14.705C49.5313 16.2659 47.3686 17.0833 45.1555 16.9776H40.1297ZM43.213 14.0119H45.0784C46.4547 14.0757 47.7999 13.5722 48.8247 12.6097C49.2999 12.133 49.6723 11.5557 49.9169 10.9164C50.1615 10.2771 50.2727 9.59051 50.243 8.90265C50.2702 8.22133 50.1593 7.5417 49.9175 6.90836C49.6757 6.27502 49.3086 5.70231 48.8401 5.22783C47.7939 4.30083 46.4478 3.82788 45.0784 3.90617H43.213V14.0119ZM56.1167 16.9776V0.94053H61.8826C63.3337 0.879412 64.7537 1.39149 65.8601 2.37498C66.3667 2.83928 66.768 3.41584 67.0347 4.06269C67.3014 4.70953 67.4268 5.41039 67.4018 6.11428C67.4203 6.81727 67.292 7.51603 67.0258 8.16184C66.7595 8.80766 66.3617 9.38502 65.8601 9.85359C64.7552 10.8415 63.3355 11.3592 61.8826 11.3042H59.2618V16.9776H56.1167ZM59.2001 8.43523H61.8209C62.1317 8.45369 62.443 8.40765 62.7367 8.29977C63.0304 8.19188 63.3007 8.02431 63.5322 7.80666C63.9267 7.3712 64.1472 6.79468 64.1488 6.1949C64.1534 5.89404 64.0982 5.59546 63.9867 5.31804C63.8753 5.04062 63.71 4.79038 63.5013 4.58313C63.0424 4.15007 62.4385 3.92411 61.8209 3.95452H59.2001V8.5642V8.43523ZM92.9009 10.3532V0.956663H95.9843V10.6273C95.9568 11.1179 96.0246 11.6093 96.1835 12.0719C96.3425 12.5345 96.5893 12.9587 96.9092 13.3189C97.2345 13.6386 97.6174 13.8873 98.0357 14.0506C98.4539 14.2139 98.899 14.2884 99.3451 14.2698C99.794 14.2933 100.243 14.2212 100.664 14.0577C101.086 13.8942 101.471 13.6429 101.796 13.3189C102.116 12.9587 102.363 12.5345 102.522 12.0719C102.681 11.6093 102.749 11.1179 102.721 10.6273V0.956663H105.805V10.3532C105.805 12.1571 105.119 13.8871 103.899 15.1627C102.679 16.4383 101.024 17.1549 99.2988 17.1549C97.5734 17.1549 95.9186 16.4383 94.6985 15.1627C93.4784 13.8871 92.793 12.1571 92.793 10.3532H92.9009ZM121.19 12.2712C121.208 12.91 121.09 13.5449 120.845 14.1302C120.6 14.7155 120.233 15.2366 119.772 15.656C118.771 16.5666 117.476 17.0449 116.149 16.9937H109.32V0.956663H114.746C116.02 0.903396 117.266 1.34557 118.246 2.1977C118.686 2.59635 119.037 3.09236 119.271 3.64986C119.506 4.20735 119.619 4.8124 119.603 5.42123C119.622 5.95966 119.531 6.49623 119.334 6.99419C119.137 7.49215 118.84 7.93975 118.462 8.30631C119.276 8.55138 119.988 9.07563 120.483 9.79476C120.978 10.5139 121.227 11.3861 121.19 12.2712ZM114.5 3.77725H112.341V7.43594H114.5C115.054 7.49382 115.609 7.32003 116.041 6.95243C116.22 6.782 116.36 6.57192 116.45 6.33764C116.541 6.10336 116.58 5.85077 116.565 5.59851C116.584 5.34825 116.546 5.09703 116.455 4.86478C116.364 4.63253 116.222 4.42568 116.041 4.26076C115.609 3.89317 115.054 3.71937 114.5 3.77725ZM118.092 12.1584C118.105 11.8828 118.061 11.6074 117.963 11.3513C117.864 11.0953 117.714 10.8647 117.521 10.6756C117.086 10.3074 116.54 10.1131 115.98 10.1276H112.403V14.1731H115.98C116.538 14.1921 117.084 14.0037 117.521 13.6412C117.714 13.4522 117.864 13.2216 117.963 12.9655C118.061 12.7095 118.105 12.434 118.092 12.1584Z" fill="#263238"/>
</g>
<defs>
<clipPath id="clip0_242_116">
<rect width="148" height="37.9893" fill="white" transform="translate(0 0.505371)"/>
</clipPath>
</defs>
</svg>
