<svg width="148" height="41" viewBox="0 0 148 41" fill="none" xmlns="http://www.w3.org/2000/svg">
<g clip-path="url(#clip0_242_107)">
<path d="M0.000162922 34.1416V40.9668L3.00641 39.2644L6.08974 40.9668V37.0203L0.0772509 34.1416H0.000162922ZM6.01265 34.1416H26.2856C27.2319 34.0701 28.1122 33.6272 28.7355 32.9088C29.3589 32.1903 29.675 31.2542 29.6156 30.3033V6.23688C29.5839 6.31297 29.5366 6.38153 29.4768 6.43808L2.46684 31.882C2.01976 32.3153 1.40308 31.6808 1.71141 31.1081L18.6697 0.30928L18.8085 0.0616455H4.62516C3.31599 0.149169 2.09459 0.753431 1.22793 1.74238C0.361265 2.73132 -0.0801572 4.02452 0.000162922 5.33924V34.1726L6.01265 34.1416Z" fill="#263238"/>
<path d="M50.1196 4.84519C50.1196 4.63996 50.2008 4.44314 50.3454 4.29801C50.4899 4.15289 50.686 4.07135 50.8905 4.07135C51.0949 4.07135 51.291 4.15289 51.4355 4.29801C51.5801 4.44314 51.6613 4.63996 51.6613 4.84519V16.7159C51.6613 16.9212 51.5801 17.118 51.4355 17.2631C51.291 17.4082 51.0949 17.4898 50.8905 17.4898C50.686 17.4898 50.4899 17.4082 50.3454 17.2631C50.2008 17.118 50.1196 16.9212 50.1196 16.7159V4.84519ZM144.608 12.5836L141.525 5.83573L138.442 12.5836H144.608ZM135.358 16.4373L140.677 4.75233C140.741 4.55394 140.867 4.38166 141.036 4.2616C141.206 4.14153 141.41 4.08021 141.618 4.08684H141.695C141.897 4.08446 142.096 4.14794 142.26 4.26788C142.423 4.38782 142.544 4.55776 142.604 4.75233L147.938 16.4219C147.996 16.5374 148.027 16.6642 148.031 16.7933C148.031 16.9821 147.956 17.1632 147.823 17.2967C147.69 17.4302 147.51 17.5052 147.322 17.5052C147.159 17.4995 147.001 17.4448 146.869 17.3483C146.737 17.2517 146.637 17.1177 146.582 16.9635L145.21 13.8682H137.979L136.607 16.9635C136.558 17.1116 136.462 17.2397 136.334 17.3289C136.206 17.418 136.053 17.4636 135.898 17.4588C135.721 17.4588 135.55 17.3892 135.424 17.2649C135.297 17.1405 135.224 16.9712 135.22 16.7933C135.222 16.6523 135.259 16.5142 135.328 16.3909L135.358 16.4373ZM130.795 4.84519C130.795 4.63996 130.876 4.44314 131.021 4.29801C131.165 4.15289 131.361 4.07135 131.566 4.07135C131.77 4.07135 131.966 4.15289 132.111 4.29801C132.255 4.44314 132.337 4.63996 132.337 4.84519V16.7159C132.337 16.9212 132.255 17.118 132.111 17.2631C131.966 17.4082 131.77 17.4898 131.566 17.4898C131.361 17.4898 131.165 17.4082 131.021 17.2631C130.876 17.118 130.795 16.9212 130.795 16.7159V4.84519ZM120.558 16.004C121.262 16.0534 121.969 15.9554 122.633 15.7161C123.297 15.4768 123.904 15.1013 124.416 14.6137C124.928 14.1262 125.333 13.537 125.606 12.8838C125.878 12.2306 126.013 11.5274 126 10.8192C126.015 10.1084 125.882 9.40244 125.61 8.74585C125.339 8.08926 124.934 7.49638 124.423 7.00471C123.911 6.51303 123.304 6.13327 122.639 5.88943C121.973 5.64559 121.265 5.54298 120.558 5.58809H117.475V16.0349L120.558 16.004ZM116.01 4.93805C116.01 4.74367 116.086 4.55705 116.222 4.41817C116.357 4.27929 116.541 4.19919 116.735 4.19514H120.558C121.452 4.13362 122.349 4.25731 123.194 4.55845C124.038 4.85959 124.812 5.33179 125.467 5.94573C126.122 6.55967 126.644 7.30224 127.001 8.12731C127.358 8.95237 127.542 9.8423 127.542 10.7419C127.542 11.6427 127.358 12.5339 127.001 13.3605C126.644 14.1871 126.123 14.9315 125.468 15.5479C124.814 16.1643 124.04 16.6395 123.196 16.9441C122.352 17.2488 121.454 17.3766 120.558 17.3195H116.735C116.541 17.3154 116.357 17.2354 116.222 17.0965C116.086 16.9576 116.01 16.771 116.01 16.5766V4.89162V4.93805ZM103.43 16.623V4.93805C103.434 4.74226 103.514 4.5556 103.652 4.41713C103.789 4.27866 103.975 4.1991 104.17 4.19514H112.326C112.422 4.1804 112.521 4.18679 112.615 4.21385C112.709 4.24091 112.796 4.28802 112.87 4.35195C112.944 4.41588 113.004 4.49515 113.044 4.58428C113.085 4.67342 113.106 4.77035 113.106 4.86843C113.106 4.96651 113.085 5.06339 113.044 5.15253C113.004 5.24166 112.944 5.32093 112.87 5.38486C112.796 5.44879 112.709 5.4959 112.615 5.52296C112.521 5.55002 112.422 5.55641 112.326 5.54167H104.926V10.0454H111.478C111.658 10.0454 111.83 10.1171 111.958 10.2448C112.085 10.3725 112.156 10.5458 112.156 10.7264C112.156 10.907 112.085 11.0802 111.958 11.2079C111.83 11.3356 111.658 11.4073 111.478 11.4073H104.926V16.0504H112.418C112.515 16.0356 112.614 16.042 112.707 16.0691C112.801 16.0962 112.888 16.1433 112.962 16.2072C113.037 16.2711 113.096 16.3503 113.137 16.4395C113.178 16.5286 113.199 16.6255 113.199 16.7236C113.199 16.8217 113.178 16.9186 113.137 17.0078C113.096 17.0969 113.037 17.1762 112.962 17.2401C112.888 17.304 112.801 17.3511 112.707 17.3782C112.614 17.4053 112.515 17.4116 112.418 17.3969H104.17C103.975 17.3929 103.789 17.3134 103.652 17.1749C103.514 17.0365 103.434 16.8498 103.43 16.654V16.623ZM87.1659 4.84519C87.1698 4.65351 87.2474 4.4708 87.3824 4.33523C87.5175 4.19966 87.6995 4.12173 87.8905 4.11778H88.06C88.2007 4.11787 88.3388 4.15512 88.4606 4.22575C88.5824 4.29638 88.6835 4.39792 88.7538 4.52019L93.3788 11.5931L98.0038 4.52019C98.0741 4.39792 98.1752 4.29638 98.297 4.22575C98.4188 4.15512 98.5569 4.11787 98.6975 4.11778H98.8671C99.0607 4.11774 99.2466 4.19386 99.385 4.32985C99.5233 4.46584 99.6031 4.65086 99.6071 4.84519V16.7004C99.6071 16.8975 99.5292 17.0864 99.3904 17.2257C99.2516 17.3651 99.0634 17.4433 98.8671 17.4433C98.6721 17.4394 98.4862 17.3598 98.3482 17.2214C98.2103 17.0829 98.131 16.8962 98.1271 16.7004V6.87265L93.9184 13.0634C93.8579 13.1749 93.7688 13.2681 93.6604 13.3334C93.552 13.3987 93.4281 13.4337 93.3017 13.4348C93.1733 13.4333 93.0475 13.3982 92.9367 13.3331C92.8259 13.268 92.7338 13.175 92.6696 13.0634L88.4763 6.87265V16.7004C88.4914 16.8038 88.4842 16.9092 88.4551 17.0095C88.426 17.1098 88.3758 17.2027 88.3078 17.2817C88.2398 17.3608 88.1555 17.4242 88.0609 17.4677C87.9663 17.5111 87.8634 17.5336 87.7594 17.5336C87.6553 17.5336 87.5525 17.5111 87.4579 17.4677C87.3632 17.4242 87.2791 17.3608 87.211 17.2817C87.143 17.2027 87.0928 17.1098 87.0637 17.0095C87.0346 16.9092 87.0274 16.8038 87.0425 16.7004V4.84519H87.1659ZM73.4913 10.8966C75.4646 10.8966 76.8675 9.87516 76.8675 8.18819C76.8675 6.64051 75.6342 5.58809 73.5067 5.58809H69.4521V10.9431L73.4913 10.8966ZM67.9721 4.92256C67.976 4.72677 68.0553 4.54011 68.1932 4.40164C68.3312 4.26317 68.5171 4.18366 68.7121 4.1797H73.6146C74.2923 4.13963 74.9712 4.2353 75.6117 4.46115C76.2522 4.687 76.8416 5.03853 77.3455 5.49524C77.6795 5.8384 77.9416 6.24526 78.1164 6.69185C78.2912 7.13843 78.375 7.61567 78.3629 8.09533C78.3661 9.05778 78.0075 9.98598 77.3588 10.6946C76.7101 11.4033 75.8189 11.8402 74.8634 11.9181L78.1163 16.1432C78.2658 16.2845 78.3543 16.479 78.3629 16.6849C78.3551 16.878 78.2742 17.0608 78.1367 17.196C77.9991 17.3312 77.8154 17.4086 77.623 17.4124C77.4828 17.4082 77.3456 17.371 77.2224 17.3038C77.0992 17.2366 76.9935 17.1412 76.9138 17.0254L73.2292 12.1967H69.4521V16.6695C69.4521 16.8747 69.3709 17.0716 69.2264 17.2167C69.0818 17.3618 68.8857 17.4433 68.6813 17.4433C68.4768 17.4433 68.2808 17.3618 68.1362 17.2167C67.9916 17.0716 67.9104 16.8747 67.9104 16.6695V4.89162L67.9721 4.92256ZM60.125 11.3609C62.2988 11.3609 63.7325 10.2002 63.7325 8.46676C63.7325 6.59406 62.3142 5.60354 60.2021 5.60354H56.8875V11.4073L60.125 11.3609ZM55.5 4.93805C55.5 4.74367 55.5758 4.55705 55.7113 4.41817C55.8467 4.27929 56.031 4.19919 56.2246 4.19514H60.4025C63.3779 4.19514 65.3204 5.74284 65.3204 8.3739C65.3204 11.2216 62.9617 12.6919 60.1558 12.6919H56.98V16.6849C56.98 16.7838 56.9604 16.8817 56.9222 16.9729C56.8841 17.064 56.8282 17.1466 56.7579 17.2158C56.6875 17.285 56.6041 17.3394 56.5125 17.3758C56.421 17.4122 56.3231 17.4299 56.2246 17.4278C56.1281 17.4279 56.0327 17.4085 55.9437 17.371C55.8548 17.3335 55.7742 17.2785 55.7067 17.2094C55.6392 17.1402 55.5862 17.0581 55.5507 16.9681C55.5152 16.878 55.498 16.7818 55.5 16.6849V4.90711V4.93805Z" fill="#263238"/>
<path d="M50.2275 24.9651H50.8751V28.3235C50.8751 28.9426 50.8751 29.4998 50.8751 30.0105L54.2513 24.9651H55.0221V31.001H54.3592V27.6735C54.3592 27.1318 54.3592 26.5437 54.4363 25.9401L51.0601 31.001H50.2892V24.9651H50.2275ZM60.1405 26.3735C60.1483 26.5527 60.1195 26.7317 60.0559 26.8994C59.9923 27.0671 59.8951 27.2199 59.7705 27.3485C59.4812 27.6145 59.1129 27.7776 58.7221 27.8128C59.147 27.8518 59.5501 28.0191 59.8784 28.2926C60.0051 28.4204 60.1046 28.5728 60.1708 28.7404C60.2371 28.908 60.2687 29.0873 60.2638 29.2676C60.2745 29.5222 60.2223 29.7754 60.1121 30.0049C60.0018 30.2344 59.8368 30.433 59.6317 30.5831C59.1096 30.9349 58.4863 31.1036 57.8588 31.0629C57.2663 31.0857 56.6762 30.9746 56.1321 30.7379V30.0879C56.4054 30.2112 56.6892 30.3096 56.98 30.3819C57.2743 30.4427 57.5739 30.4738 57.8742 30.4748C58.3079 30.5087 58.7408 30.4001 59.1076 30.1652C59.246 30.0623 59.3566 29.9263 59.4293 29.7695C59.502 29.6128 59.5345 29.4402 59.5238 29.2676C59.5294 29.0993 59.4894 28.9326 59.4079 28.7854C59.3264 28.6382 59.2066 28.516 59.0613 28.4318C58.631 28.2188 58.1526 28.1228 57.6738 28.1533H56.7796V27.5497H57.643C58.0985 27.5752 58.5521 27.4734 58.9534 27.2556C59.0977 27.1666 59.2164 27.0411 59.2975 26.8918C59.3787 26.7425 59.4195 26.5744 59.4159 26.4044C59.4171 26.2676 59.3872 26.1324 59.3284 26.009C59.2697 25.8856 59.1836 25.7774 59.0767 25.6925C58.8162 25.5073 58.5015 25.4147 58.1825 25.4293C57.9062 25.422 57.6304 25.4585 57.3655 25.5377C57.0594 25.6282 56.7685 25.7638 56.5021 25.9401L56.163 25.4758C56.4412 25.2575 56.7614 25.0995 57.1034 25.0115C57.4471 24.8997 57.8059 24.8423 58.1672 24.8413C58.6837 24.8092 59.1955 24.9567 59.6163 25.2591C59.7852 25.3829 59.9213 25.5464 60.0127 25.7353C60.1041 25.9242 60.148 26.1327 60.1405 26.3425V26.3735ZM66.3072 32.5642H65.6288V31.0165H61.4509V32.5642H60.788V30.351H61.2505C61.7166 29.5327 62.0791 28.6593 62.3296 27.7509C62.6182 26.8429 62.7892 25.9014 62.8384 24.9496H65.5363V30.351H66.3072V32.5642ZM64.8426 30.351V25.5841H63.4705C63.3922 26.3992 63.2268 27.2035 62.9772 27.9831C62.7395 28.8101 62.4031 29.6052 61.9751 30.351H64.8426ZM71.1017 30.9856L70.3463 29.0664H67.9413L67.2013 30.9856H66.4922L68.8663 24.9186H69.4521L71.8263 30.9856H71.1017ZM70.1305 28.4318L69.3751 26.5127C69.2668 26.2292 69.1742 25.9398 69.0976 25.646C69.0251 25.9393 68.9376 26.2285 68.8355 26.5127L68.1263 28.3854L70.1305 28.4318ZM73.923 30.9856H73.2138V25.5687H71.3176V24.9651H75.8192V25.5841H74.0001V31.001L73.923 30.9856ZM80.0897 30.9856H76.7288V24.9651H80.1667V25.5841H77.5151V27.5342H79.9972V28.1533H77.5151V30.3819H80.1667V31.001L80.0897 30.9856ZM85.7013 30.9856H85.0076V25.5687H83.0496L82.9263 26.5592C82.7567 27.8902 82.6026 28.8497 82.4792 29.4533C82.4186 29.9173 82.2437 30.3588 81.9705 30.7379C81.8685 30.8568 81.7398 30.9496 81.5951 31.0088C81.4504 31.068 81.2937 31.0919 81.138 31.0784C80.954 31.08 80.7713 31.0486 80.5984 30.9856V30.3974C80.7431 30.4662 80.9008 30.5031 81.0609 30.5057C81.1347 30.5047 81.2074 30.4876 81.274 30.4555C81.3406 30.4235 81.3993 30.3772 81.4463 30.32C81.5833 30.1368 81.6781 29.9254 81.7238 29.701C81.8673 29.1461 81.9754 28.5826 82.0476 28.014C82.1709 27.1782 82.3096 26.1465 82.4638 24.9186H85.7013V30.9546V30.9856ZM91.5134 29.2367C91.5304 29.4821 91.489 29.728 91.3925 29.9541C91.296 30.1802 91.1472 30.3799 90.9584 30.5367C90.5109 30.8592 89.9667 31.0176 89.4167 30.9856H87.4126V24.9651H88.1063V27.5497H89.3088C89.9008 27.509 90.4901 27.661 90.9892 27.9831C91.1764 28.1352 91.3256 28.3292 91.4246 28.5495C91.5237 28.7699 91.5699 29.0105 91.5597 29.2521L91.5134 29.2367ZM88.0601 30.3819H89.2934C90.2955 30.3819 90.8351 29.995 90.8351 29.2367C90.8492 29.0779 90.8209 28.9182 90.7531 28.774C90.6854 28.6299 90.5807 28.5065 90.4497 28.4164C90.0745 28.2056 89.6445 28.1139 89.2163 28.1533H88.1063V30.3819H88.0601ZM95.3675 25.4913C95.0775 25.4805 94.7887 25.5347 94.5221 25.6498C94.2555 25.7649 94.0176 25.938 93.8259 26.1568C93.4165 26.6673 93.2129 27.3135 93.2555 27.9676C93.2139 28.6285 93.411 29.2823 93.8105 29.8093C94.0045 30.0233 94.2434 30.1912 94.5101 30.3009C94.7767 30.4107 95.0644 30.4595 95.3522 30.4439C95.8429 30.4401 96.3308 30.3671 96.8013 30.2272V30.8462C96.3042 31.0106 95.7829 31.0892 95.2597 31.0784C94.8801 31.1026 94.4998 31.0431 94.1456 30.9041C93.7914 30.7651 93.4718 30.5498 93.2092 30.2736C92.6922 29.6212 92.4341 28.7997 92.4846 27.9676C92.4726 27.4003 92.5941 26.8383 92.8392 26.327C93.058 25.8735 93.407 25.4962 93.8413 25.2436C94.3127 24.9816 94.8442 24.8482 95.383 24.8567C95.9577 24.8466 96.5272 24.9684 97.048 25.2127L96.7551 25.8163C96.3271 25.6081 95.8586 25.4971 95.383 25.4913H95.3675ZM99.9925 30.9856H99.2988V25.5687H97.3872V24.9651H101.889V25.5841H99.9925V31.001V30.9856ZM102.798 24.9496H104.51C105.107 24.908 105.704 25.0311 106.236 25.3055C106.516 25.5558 106.695 25.8995 106.74 26.2726C106.786 26.6457 106.694 27.0226 106.483 27.333C106.253 27.5833 105.941 27.7425 105.604 27.7818C106.514 27.9366 106.976 28.4164 106.976 29.2212C106.99 29.4602 106.949 29.6992 106.855 29.9194C106.762 30.1397 106.618 30.3351 106.437 30.4903C105.993 30.8199 105.446 30.9791 104.895 30.9391H102.783V24.9651L102.798 24.9496ZM103.508 27.5342H104.664C105.033 27.5638 105.404 27.483 105.728 27.3021C105.843 27.2078 105.932 27.0863 105.989 26.9485C106.045 26.8107 106.067 26.6609 106.051 26.5127C106.063 26.3689 106.035 26.2246 105.97 26.096C105.904 25.9675 105.804 25.8599 105.681 25.7853C105.33 25.6037 104.935 25.5234 104.54 25.5532H103.508V27.5342ZM103.508 28.1378V30.3974H104.756C105.144 30.4309 105.532 30.3268 105.851 30.1034C105.979 29.997 106.079 29.8613 106.143 29.7077C106.208 29.5541 106.234 29.3872 106.221 29.2212C106.234 29.0642 106.206 28.9065 106.142 28.763C106.077 28.6195 105.977 28.4949 105.851 28.4009C105.507 28.1966 105.108 28.1046 104.71 28.1378H103.508ZM113.498 27.9676C113.54 28.7893 113.283 29.5984 112.773 30.2427C112.224 30.7732 111.492 31.0696 110.73 31.0696C109.968 31.0696 109.236 30.7732 108.688 30.2427C108.205 29.5653 107.946 28.7536 107.946 27.9211C107.946 27.0886 108.205 26.277 108.688 25.5996C108.949 25.3225 109.269 25.1067 109.623 24.9676C109.978 24.8285 110.358 24.7695 110.738 24.7948C111.116 24.7759 111.494 24.8394 111.845 24.981C112.196 25.1226 112.513 25.3389 112.773 25.6151C113.285 26.2641 113.543 27.0789 113.498 27.9056V27.9676ZM108.703 27.9676C108.659 28.6265 108.838 29.2811 109.212 29.8248C109.404 30.0414 109.642 30.2112 109.909 30.3212C110.177 30.4311 110.465 30.4784 110.753 30.4593C111.042 30.482 111.332 30.4364 111.599 30.3262C111.867 30.216 112.105 30.0442 112.295 29.8248C112.628 29.2628 112.803 28.6212 112.803 27.9676C112.803 27.3139 112.628 26.6723 112.295 26.1103C112.105 25.8909 111.867 25.7192 111.599 25.609C111.332 25.4988 111.042 25.4531 110.753 25.4758C110.465 25.4567 110.177 25.504 109.909 25.614C109.642 25.7239 109.404 25.8937 109.212 26.1103C108.838 26.654 108.659 27.3086 108.703 27.9676Z" fill="#263238"/>
</g>
<defs>
<clipPath id="clip0_242_107">
<rect width="148" height="40.9362" fill="white" transform="translate(0 0.0319214)"/>
</clipPath>
</defs>
</svg>
