<svg width="124" height="55" viewBox="0 0 124 55" fill="none" xmlns="http://www.w3.org/2000/svg">
<g clip-path="url(#clip0_242_112)">
<path d="M97.3129 50.4706H119.406V9.43408C115.156 9.36506 110.913 9.7994 106.763 10.7282C103.288 11.6341 100.57 13.0576 100.506 15.3223V15.4258V16.72H96.3897V15.4258V15.3223C96.3897 13.0576 93.6201 11.6341 90.1452 10.7412C85.9921 9.80669 81.7438 9.37229 77.4894 9.44704V40.0011H73.3606V5.3188H75.3737H77.0919C81.8315 5.20722 86.5672 5.67215 91.1966 6.70351C93.9153 7.26022 96.4381 8.53771 98.5054 10.4047L98.5823 10.327C102.583 4.41291 110.93 1.26823 117.662 0.0388184V4.19292C115.672 4.43813 113.721 4.93373 111.854 5.6682C114.521 5.40087 117.2 5.28423 119.88 5.3188H121.599H123.612V54.5988H97.3129V50.4317V50.4706Z" fill="#263238"/>
<path d="M0.452393 44.3494V54.6247H2.31164V46.0965H4.20935V54.6247H6.05579V44.3494H0.452393ZM7.2611 54.6247H9.12034V50.7424H9.42809C9.8624 50.7437 10.2926 50.6574 10.6934 50.4885C11.0942 50.3196 11.4574 50.0715 11.7618 49.7588C12.3229 49.0631 12.6105 48.1832 12.5696 47.287C12.5903 46.8742 12.5271 46.4614 12.3837 46.0741C12.2404 45.6869 12.02 45.3333 11.7361 45.0353C11.3821 44.7382 10.973 44.5154 10.5327 44.3799C10.0923 44.2443 9.62964 44.1987 9.17165 44.2459C8.52137 44.2435 7.87256 44.3086 7.23545 44.44V54.56L7.2611 54.6247ZM9.12034 46.0059C9.26344 45.9505 9.41592 45.9241 9.56912 45.9282C10.4282 45.9282 10.7744 46.627 10.7744 47.52C10.7744 48.4129 10.3513 49.2024 9.41527 49.2024C9.3175 49.2169 9.21812 49.2169 9.12034 49.2024V46.0317V46.0059ZM15.9675 44.2329C13.8518 44.2329 12.826 46.6529 12.826 49.4094C12.826 52.1659 13.6723 54.7024 15.8393 54.7024C17.6473 54.7024 18.9295 53.1235 18.9295 49.2541C18.9295 46.9118 18.2756 44.1812 15.9675 44.1812V44.2329ZM15.8906 45.9671C16.7369 45.9671 16.9933 47.5976 16.9933 49.3965C16.9933 51.4929 16.6856 53.0071 15.9162 53.0071C15.1469 53.0071 14.7494 51.8294 14.7494 49.4871C14.7494 47.1447 15.1597 45.9671 15.8906 45.9671ZM22.2249 43.9871V44.7635C20.7375 45.0094 19.1988 46.4459 19.1988 49.4612C19.1988 52.4764 20.481 53.887 22.212 54.1588V55H23.8533V54.1588C25.5587 53.9 26.8666 52.5671 26.8666 49.4094C26.8666 46.4588 25.5843 45.0094 23.8533 44.7635V43.9871H22.2249ZM22.2249 52.6964C21.6479 52.5541 21.0452 51.6094 21.0452 49.4871C21.0452 47.3647 21.6607 46.3941 22.2249 46.2129V52.6835V52.6964ZM23.8405 46.2259C24.379 46.3682 25.0202 47.1059 25.0202 49.4482C25.0202 51.7906 24.456 52.567 23.8405 52.7094V46.2388V46.2259ZM30.2517 44.2459C28.1488 44.2459 27.1102 46.6659 27.1102 49.4223C27.1102 52.1788 27.9565 54.7153 30.1235 54.7153C31.9443 54.7153 33.2137 53.1365 33.2137 49.267C33.2137 46.9247 32.5597 44.1941 30.2517 44.1941V44.2459ZM30.1876 45.98C31.0211 45.98 31.2775 47.6106 31.2775 49.4094C31.2775 51.5059 30.9826 53.02 30.2004 53.02C29.4183 53.02 29.0336 51.8424 29.0336 49.5C29.0336 47.1577 29.4439 45.98 30.1876 45.98ZM33.9446 44.3624V54.6118C34.5184 54.6875 35.0969 54.7221 35.6756 54.7153C36.2309 54.7651 36.7902 54.6926 37.3149 54.5026C37.8396 54.3127 38.3172 54.0099 38.7145 53.6153C39.2699 52.9729 39.5551 52.1372 39.5095 51.2859C39.5312 50.8479 39.4626 50.4102 39.3081 50.0003C39.1536 49.5905 38.9166 49.2174 38.6119 48.9047C38.0371 48.3993 37.2969 48.1272 36.5347 48.1412C36.2848 48.1414 36.0356 48.1674 35.791 48.2188V46.0706H38.8171V44.3624H33.9446ZM35.8038 49.7976C35.9441 49.7771 36.0866 49.7771 36.2269 49.7976C36.4184 49.802 36.6065 49.8496 36.7774 49.937C36.9482 50.0243 37.0975 50.1492 37.2143 50.3024C37.4731 50.6428 37.6047 51.0643 37.5861 51.4929C37.5992 51.9188 37.473 52.3372 37.2271 52.6835C37.1063 52.8378 36.9524 52.9622 36.7769 53.0474C36.6013 53.1326 36.4089 53.1764 36.2142 53.1753C36.0781 53.1957 35.9399 53.1957 35.8038 53.1753V49.8882V49.7976ZM40.2019 54.6247H42.0612V50.7424H42.4202C42.8545 50.7437 43.2847 50.6574 43.6855 50.4885C44.0862 50.3196 44.4495 50.0715 44.7539 49.7588C45.315 49.0631 45.6026 48.1832 45.5617 47.287C45.5824 46.8742 45.5191 46.4614 45.3758 46.0741C45.2325 45.6869 45.0121 45.3333 44.7282 45.0353C44.375 44.737 43.966 44.5134 43.5254 44.3778C43.0849 44.2422 42.6218 44.1973 42.1637 44.2459C41.5135 44.2435 40.8647 44.3086 40.2275 44.44V54.56L40.2019 54.6247ZM42.0612 46.0059C42.2043 45.9505 42.3567 45.9241 42.5099 45.9282C43.369 45.9282 43.7152 46.627 43.7152 47.52C43.7152 48.4129 43.2921 49.2024 42.3561 49.2024C42.2583 49.2169 42.159 49.2169 42.0612 49.2024V46.0317V46.0059ZM48.8314 52.2824L49.2545 54.6247H51.0497L49.1776 44.3494H46.9593L44.8821 54.6247H46.6901L47.1132 52.2824H48.8314ZM47.3055 50.7294L47.6646 48.5941C47.7671 47.9988 47.9082 46.9247 47.9979 46.2388C48.0749 46.9247 48.2031 47.947 48.3057 48.5812L48.6134 50.7294H47.3055ZM51.5369 46.3682C51.9229 46.1213 52.3634 45.9746 52.8192 45.9412C52.9802 45.9254 53.1428 45.9455 53.2952 46.0002C53.4477 46.0549 53.5864 46.1429 53.7014 46.2577C53.8164 46.3726 53.905 46.5116 53.9609 46.6649C54.0167 46.8182 54.0384 46.982 54.0245 47.1447C54.0245 48.0894 53.1782 48.5294 52.3191 48.5294H52.1396V50.0435H52.4088C53.409 50.0435 54.2937 50.4965 54.2937 51.6353C54.3044 51.8346 54.2718 52.0339 54.1982 52.2192C54.1247 52.4046 54.0119 52.5714 53.8678 52.7082C53.7237 52.845 53.5518 52.9484 53.3641 53.0112C53.1763 53.074 52.9772 53.0946 52.7807 53.0718C52.261 53.0715 51.7512 52.9283 51.3061 52.6576L51.0369 54.2882C51.6283 54.6062 52.2903 54.7666 52.9602 54.7541C53.3772 54.7862 53.7962 54.731 54.1911 54.5921C54.586 54.4532 54.9482 54.2336 55.2551 53.9469C55.5621 53.6602 55.8071 53.3127 55.9748 52.9261C56.1425 52.5394 56.2294 52.122 56.2299 51.7C56.2776 51.1098 56.1116 50.5223 55.7626 50.0463C55.4136 49.5703 54.9054 49.2382 54.3322 49.1118C54.815 48.9481 55.2327 48.632 55.5237 48.2101C55.8146 47.7883 55.9633 47.2831 55.9478 46.7694C55.9625 46.4206 55.9027 46.0727 55.7723 45.7493C55.6419 45.4259 55.4441 45.1346 55.1923 44.8952C54.9405 44.6558 54.6407 44.4739 54.313 44.3619C53.9854 44.2498 53.6377 44.2103 53.2936 44.2459C52.5452 44.2264 51.8083 44.4338 51.1779 44.8412L51.4856 46.3812L51.5369 46.3682ZM59.5509 44.2329C57.4481 44.2329 56.4095 46.6529 56.4095 49.4094C56.4095 52.1659 57.2557 54.7024 59.4227 54.7024C61.2435 54.7024 62.5129 53.1235 62.5129 49.2541C62.5129 46.9118 61.859 44.1812 59.5509 44.1812V44.2329ZM59.4868 45.9671C60.3203 45.9671 60.5768 47.5976 60.5768 49.3965C60.5768 51.4929 60.269 53.0071 59.4996 53.0071C58.7303 53.0071 58.3328 51.8294 58.3328 49.4871C58.3328 47.1447 58.7431 45.9671 59.4868 45.9671ZM63.2438 54.5988C63.8177 54.6745 64.3961 54.7091 64.9748 54.7024C65.5397 54.7742 66.1134 54.7186 66.6545 54.5396C67.1955 54.3606 67.6904 54.0625 68.1035 53.667C68.5844 53.1142 68.8368 52.3963 68.8087 51.6612C68.8386 51.1195 68.6882 50.5834 68.3816 50.1379C68.0749 49.6924 67.6295 49.3631 67.1162 49.2024V49.1376C67.54 48.9439 67.8977 48.628 68.1441 48.2296C68.3905 47.8312 68.5146 47.3682 68.501 46.8988C68.5157 46.555 68.4595 46.2117 68.3359 45.891C68.2123 45.5702 68.024 45.2788 67.783 45.0353C67.0951 44.4929 66.2291 44.234 65.3595 44.3106C64.6492 44.2929 63.9393 44.358 63.2438 44.5047V54.5988ZM65.1031 45.8635C65.2558 45.8121 65.4167 45.7901 65.5775 45.7988C66.3468 45.7988 66.6674 46.3812 66.6674 47.0929C66.6887 47.266 66.6751 47.4417 66.6275 47.6094C66.5798 47.7771 66.4991 47.9333 66.3901 48.0687C66.2811 48.2041 66.1461 48.3158 65.9933 48.3972C65.8404 48.4786 65.6728 48.528 65.5006 48.5423H65.1031V45.8247V45.8635ZM65.1031 50.0565H65.5006C65.6961 50.0591 65.889 50.1027 66.0669 50.1845C66.2449 50.2664 66.404 50.3847 66.5342 50.5319C66.6645 50.6792 66.7629 50.8522 66.8234 51.0399C66.8838 51.2276 66.9049 51.426 66.8854 51.6223C66.924 51.8195 66.9166 52.023 66.8638 52.2168C66.8109 52.4105 66.7141 52.5892 66.581 52.7386C66.4478 52.8881 66.282 53.0042 66.0967 53.0777C65.9114 53.1513 65.7117 53.1802 65.5134 53.1623C65.377 53.1769 65.2395 53.1769 65.1031 53.1623V50.0823V50.0565ZM72.8735 52.2824L73.2837 54.6247H75.0789L73.2325 44.3494H70.9757L68.9113 54.6247H70.7065L71.1296 52.2824H72.8735ZM71.3476 50.7294L71.6938 48.5941C71.7964 47.9988 71.9374 46.9247 72.04 46.2388C72.1297 46.9247 72.258 47.947 72.3477 48.5812L72.6683 50.7294H71.3476ZM75.6816 44.3494V54.6247H77.5408V50.3282H79.4898V54.6247H81.3362V44.3494H79.4898V48.4647H77.5408V44.3494H75.6816ZM82.5415 44.3494V54.6247H84.2469L85.6574 50.7424C86.0254 49.7502 86.3421 48.7394 86.6063 47.7141C86.6063 48.7494 86.4909 50.3023 86.4909 52.347V54.6506H88.1193V44.3753H86.4396L85.0291 48.3612C84.747 49.1377 84.2726 50.4965 84.0033 51.3765C84.0674 50.3153 84.1828 48.5424 84.1828 46.6529V44.3753L82.5415 44.3494ZM93.4021 48.4517H91.2223V46.0965H93.5175V44.3494H89.3631V54.6247H93.6842V52.8906H91.2351V50.1212H93.415V48.4517H93.4021Z" fill="#263238"/>
</g>
<defs>
<clipPath id="clip0_242_112">
<rect width="123.095" height="55" fill="white" transform="translate(0.452393)"/>
</clipPath>
</defs>
</svg>
