<svg width="11" height="13" viewBox="0 0 11 13" fill="none" xmlns="http://www.w3.org/2000/svg">
<path d="M0.5 4.5C0.223858 4.5 0 4.72386 0 5C0 5.27614 0.223858 5.5 0.5 5.5V4.5ZM10.5 5.5C10.7761 5.5 11 5.27614 11 5C11 4.72386 10.7761 4.5 10.5 4.5V5.5ZM1.18237 12.3637L1.40937 11.9182H1.40937L1.18237 12.3637ZM0.636242 11.8175L0.190739 12.0445L0.636242 11.8175ZM10.3639 11.8175L9.91839 11.5905L10.3639 11.8175ZM9.81737 12.3637L9.59037 11.9182L9.81737 12.3637ZM9.81737 2.63624L10.0444 2.19074V2.19074L9.81737 2.63624ZM10.3639 3.18253L9.91839 3.40952L10.3639 3.18253ZM1.18237 2.63624L1.40937 3.08175L1.18237 2.63624ZM0.636242 3.18253L1.08175 3.40952L0.636242 3.18253ZM7.72855 7.85355C7.92382 7.65829 7.92382 7.34171 7.72855 7.14645C7.53329 6.95118 7.21671 6.95118 7.02145 7.14645L7.72855 7.85355ZM4.875 10L4.52145 10.3536C4.71671 10.5488 5.03329 10.5488 5.22855 10.3536L4.875 10ZM3.97855 8.39645C3.78329 8.20118 3.46671 8.20118 3.27145 8.39645C3.07618 8.59171 3.07618 8.90829 3.27145 9.10355L3.97855 8.39645ZM8.5 1.25C8.5 0.973858 8.27614 0.75 8 0.75C7.72386 0.75 7.5 0.973858 7.5 1.25H8.5ZM7.5 2.5C7.5 2.77614 7.72386 3 8 3C8.27614 3 8.5 2.77614 8.5 2.5H7.5ZM3.5 1.25C3.5 0.973858 3.27614 0.75 3 0.75C2.72386 0.75 2.5 0.973858 2.5 1.25H3.5ZM2.5 2.5C2.5 2.77614 2.72386 3 3 3C3.27614 3 3.5 2.77614 3.5 2.5H2.5ZM0.5 5.5H10.5V4.5H0.5V5.5ZM2.50012 3H8.50012V2H2.50012V3ZM10 4.49997V10.5H11V4.49997H10ZM8.50012 12H2.50012V13H8.50012V12ZM1 10.5V4.49997H0V10.5H1ZM2.50012 12C2.14185 12 1.90313 11.9996 1.71971 11.9846C1.54209 11.9701 1.46081 11.9444 1.40937 11.9182L0.955378 12.8092C1.17133 12.9193 1.39889 12.9617 1.63828 12.9813C1.87186 13.0004 2.15833 13 2.50012 13V12ZM0 10.5C0 10.8418 -0.000388801 11.1282 0.0186905 11.3617C0.0382461 11.6011 0.0807139 11.8286 0.190739 12.0445L1.08175 11.5905C1.05553 11.5391 1.02987 11.4578 1.01537 11.2803C1.00039 11.0969 1 10.8583 1 10.5H0ZM1.40937 11.9182C1.26832 11.8464 1.15369 11.7317 1.08175 11.5905L0.190739 12.0445C0.358478 12.3737 0.626018 12.6414 0.955378 12.8092L1.40937 11.9182ZM10 10.5C10 10.8583 9.99965 11.097 9.98469 11.2804C9.97021 11.4579 9.94458 11.5391 9.91839 11.5905L10.8094 12.0445C10.9194 11.8285 10.9619 11.601 10.9814 11.3616C11.0004 11.1281 11 10.8417 11 10.5H10ZM8.50012 13C8.84191 13 9.12826 13.0004 9.36174 12.9813C9.60108 12.9617 9.82847 12.9192 10.0444 12.8092L9.59037 11.9182C9.53887 11.9445 9.45767 11.9701 9.28026 11.9846C9.09698 11.9996 8.8584 12 8.50012 12V13ZM9.91839 11.5905C9.84661 11.7314 9.73175 11.8462 9.59037 11.9182L10.0444 12.8092C10.3734 12.6416 10.6415 12.3741 10.8094 12.0445L9.91839 11.5905ZM8.50012 3C8.85841 3 9.09698 3.00039 9.28027 3.01537C9.45769 3.02987 9.53888 3.05551 9.59037 3.08175L10.0444 2.19074C9.82846 2.08073 9.60106 2.03825 9.36173 2.01869C9.12825 1.99961 8.8419 2 8.50012 2V3ZM11 4.49997C11 4.15824 11.0004 3.87184 10.9814 3.63836C10.9619 3.39903 10.9194 3.17151 10.8094 2.95553L9.91839 3.40952C9.94458 3.46093 9.97021 3.5421 9.98469 3.71963C9.99964 3.90301 10 4.14164 10 4.49997H11ZM9.59037 3.08175C9.7317 3.15375 9.84659 3.2686 9.91839 3.40952L10.8094 2.95553C10.6415 2.62604 10.3734 2.35841 10.0444 2.19074L9.59037 3.08175ZM2.50012 2C2.15833 2 1.87187 1.99961 1.63829 2.01869C1.39891 2.03824 1.17134 2.0807 0.955378 2.19074L1.40937 3.08175C1.4608 3.05554 1.54207 3.02988 1.7197 3.01537C1.90313 3.00039 2.14184 3 2.50012 3V2ZM1 4.49997C1 4.14169 1.00039 3.90306 1.01537 3.71971C1.02987 3.54221 1.05552 3.46099 1.08175 3.40952L0.190739 2.95553C0.0807199 3.17145 0.0382482 3.39892 0.0186909 3.63828C-0.00038892 3.87179 0 4.15819 0 4.49997H1ZM0.955378 2.19074C0.625965 2.35858 0.358451 2.62638 0.190739 2.95553L1.08175 3.40952C1.15372 3.26827 1.26838 3.15358 1.40937 3.08175L0.955378 2.19074ZM7.02145 7.14645L4.52145 9.64645L5.22855 10.3536L7.72855 7.85355L7.02145 7.14645ZM5.22855 9.64645L3.97855 8.39645L3.27145 9.10355L4.52145 10.3536L5.22855 9.64645ZM7.5 1.25V2.5H8.5V1.25H7.5ZM2.5 1.25V2.5H3.5V1.25H2.5Z" fill="#031E80"/>
</svg>
