<svg width="60" height="60" viewBox="0 0 60 60" fill="none" xmlns="http://www.w3.org/2000/svg">
<path d="M10 20.0003H50M40 5.00024V10.0002M20 5.00024V10.0002M18.0005 10.0002H42.0005C44.8008 10.0002 46.2 10.0002 47.2695 10.5452C48.2103 11.0246 48.9762 11.7895 49.4556 12.7304C50.0006 13.7999 50 15.1999 50 18.0001V42.0002C50 44.8004 50.0006 46.2008 49.4556 47.2704C48.9762 48.2112 48.2103 48.9759 47.2695 49.4552C46.2 50.0002 44.8008 50.0003 42.0005 50.0003H18.0005C15.2002 50.0003 13.7991 50.0002 12.7295 49.4552C11.7887 48.9759 11.0244 48.2112 10.545 47.2704C10 46.2008 10 44.8004 10 42.0002V18.0001C10 15.1999 10 13.7999 10.545 12.7304C11.0244 11.7895 11.7887 11.0246 12.7295 10.5452C13.7991 10.0002 15.2002 10.0002 18.0005 10.0002Z" stroke="black" stroke-opacity="0.5" stroke-width="2.8125" stroke-linecap="round" stroke-linejoin="round"/>
</svg>
