<svg width="10" height="5" viewBox="0 0 10 5" fill="none" xmlns="http://www.w3.org/2000/svg">
<path d="M9.35355 0.853553C9.54882 0.658291 9.54882 0.341709 9.35355 0.146447C9.15829 -0.0488155 8.84171 -0.0488155 8.64645 0.146447L9.35355 0.853553ZM5 4.5L4.64645 4.85355C4.74022 4.94732 4.86739 5 5 5C5.13261 5 5.25979 4.94732 5.35355 4.85355L5 4.5ZM1.35355 0.146447C1.15829 -0.0488155 0.841709 -0.0488155 0.646447 0.146447C0.451184 0.341709 0.451184 0.658291 0.646447 0.853553L1.35355 0.146447ZM8.64645 0.146447L4.64645 4.14645L5.35355 4.85355L9.35355 0.853553L8.64645 0.146447ZM5.35355 4.14645L1.35355 0.146447L0.646447 0.853553L4.64645 4.85355L5.35355 4.14645Z" fill="white"/>
</svg>
