<svg width="212" height="356" viewBox="0 0 212 356" fill="none" xmlns="http://www.w3.org/2000/svg">
<g opacity="0.44">
<path d="M60.9488 31.3497C67.5453 27.3739 74.6407 24.2913 82.0489 22.1828L86.3982 1.29278L121.663 0.675781L126.747 21.3895C134.23 23.2252 141.435 26.0512 148.17 29.7925L165.979 18.04L191.37 42.5439L180.32 60.9953C184.297 67.5905 187.38 74.6844 189.489 82.091L210.354 86.4394L210.971 121.697L190.253 126.78C188.425 134.255 185.598 141.449 181.848 148.169L193.603 166.004L169.094 191.36L150.874 180.312C144.29 184.312 137.191 187.396 129.774 189.479L125.425 210.369L90.1598 210.986L85.1051 190.419C77.6166 188.587 70.4102 185.75 63.6818 181.987L45.8731 193.739L20.3943 168.883L31.4439 150.667C27.4672 144.071 24.384 136.978 22.2751 129.571L1.4101 125.223L0.792969 89.9651L21.3641 84.8822C23.2156 77.4104 26.0518 70.2176 29.7982 63.4927L18.0433 45.6583L42.5523 20.3024L60.7725 31.3497H60.9488ZM79.7567 78.3596C74.556 83.7438 71.0692 90.5491 69.7372 97.9147C68.4052 105.28 69.2878 112.875 72.2734 119.739C75.2591 126.603 80.2137 132.428 86.5105 136.477C92.8074 140.525 100.164 142.616 107.649 142.485C115.135 142.353 122.413 140.005 128.564 135.738C134.714 131.471 139.461 125.475 142.204 118.511C144.946 111.546 145.561 103.925 143.971 96.6104C142.381 89.2962 138.658 82.6176 133.271 77.4194C126.053 70.4464 116.361 66.6252 106.325 66.796C96.2897 66.9668 86.733 71.1157 79.7567 78.3302V78.3596Z" fill="#AAAAAA"/>
<path d="M79.7568 78.3299C81.7602 75.8988 84.1416 73.8056 86.8098 72.1305C92.9879 68.1396 100.187 66.0166 107.543 66.0166C114.898 66.0166 122.097 68.1396 128.275 72.1305C134.096 75.9184 138.787 81.2069 141.852 87.4381C143.547 90.7716 144.708 94.3508 145.291 98.0447C146.011 101.923 146.091 105.893 145.526 109.797C144.449 118.013 140.76 125.666 135.003 131.628C129.247 137.589 121.727 141.544 113.552 142.91C105.962 144.187 98.1628 143.164 91.1591 139.972C85.247 137.321 80.1016 133.219 76.2017 128.045C72.3018 122.872 69.7742 116.797 68.8542 110.385C67.6073 101.775 69.3609 92.9984 73.8206 85.5283C75.3683 82.8032 77.3539 80.3514 79.6981 78.2712C79.9038 78.4474 77.4353 80.7392 74.4965 85.9396C70.5044 93.3607 69.108 101.903 70.5292 110.208C71.4276 115.895 73.6525 121.29 77.0238 125.957C80.88 131.311 86.094 135.54 92.1289 138.209C98.7886 141.154 106.171 142.064 113.347 140.824C121.034 139.481 128.093 135.723 133.499 130.096C138.905 124.469 142.377 117.266 143.41 109.533C144.403 102.324 143.237 94.9834 140.06 88.437C137.361 82.887 133.319 78.0989 128.3 74.5072C123.281 70.9155 117.444 68.6342 111.319 67.8702C102.977 66.781 94.5098 68.4968 87.2506 72.7475C82.2842 75.95 79.9332 78.6237 79.7568 78.3299Z" fill="#AAAAAA"/>
<path d="M60.9493 31.3497C60.5429 31.1731 60.15 30.9669 59.7738 30.7327L56.2767 28.676L42.5528 20.5668H42.9936C36.7341 27.0894 28.5351 35.6981 18.6316 46.0696V45.3939L30.3865 63.0226L30.5922 63.3458L30.4159 63.6983C26.7204 70.379 23.9334 77.523 22.1286 84.9409V85.3523H21.6878L1.11672 90.494L1.70446 89.7301C1.91017 100.836 2.14527 112.618 2.40976 124.987L1.73385 124.165L22.4519 128.572H22.9809V129.101C25.0903 136.423 28.1533 143.437 32.0909 149.961L32.3848 150.432L32.0909 150.931L21.0707 169.147V167.972L46.4907 192.417H45.2271L63.0358 180.665L63.5647 180.342L64.0937 180.635C70.7286 184.384 77.8346 187.23 85.2232 189.097L85.8403 189.244L85.9872 189.89C87.6035 196.354 89.3374 203.435 91.1006 210.457L90.0427 209.664L125.307 209.018L124.279 209.87C125.66 203.288 127.218 196.178 128.628 189.009V188.363L129.275 188.186C136.583 186.111 143.58 183.067 150.081 179.137L150.669 178.784L151.227 179.137L169.447 190.184L168.095 190.361L192.604 164.975V166.327L180.849 148.492L180.497 147.964L180.791 147.376C184.512 140.742 187.319 133.636 189.137 126.251V125.634L189.754 125.487L210.325 120.433L209.531 121.462C209.336 109.415 209.14 97.663 208.944 86.2043L209.737 87.1739L188.872 82.7961H188.284V82.2379C186.212 74.9071 183.178 67.8828 179.263 61.3479V60.9953L179.556 60.4958L190.635 42.3089V43.4254L165.304 18.8627H166.332L148.465 30.6152L148.083 30.8502L147.671 30.6445C141.006 26.9014 133.87 24.0655 126.454 22.2122H126.042V21.8008C124.22 14.2499 122.574 7.46281 121.017 1.05771L121.663 1.5572L86.3987 2.0273L86.8689 1.64534C85.2232 9.72516 83.6069 16.5416 82.2844 22.2415V22.4472H82.0787C76.5435 24.0063 71.1705 26.0921 66.0333 28.676L62.2129 30.6739C61.8098 30.923 61.3872 31.1392 60.9493 31.3203C61.3212 31.0187 61.714 30.7438 62.1248 30.4976C62.9476 30.0275 64.1525 29.2636 65.8569 28.3528C70.9835 25.6169 76.3806 23.4211 81.9612 21.8008L81.7261 22.0652L85.9285 1.17524V0.793281H86.3399L121.605 0H122.104V0.499474C123.691 6.90457 125.366 13.6622 127.247 21.0663L126.718 20.5374C134.26 22.3783 141.524 25.2139 148.318 28.9698H147.524L165.333 17.2174L165.891 16.8648L166.362 17.3349L191.782 41.78L192.311 42.2795L191.928 42.8965C188.343 48.7727 184.699 54.884 180.908 61.1128V60.1432C185.012 66.8324 188.213 74.0344 190.43 81.5621L189.695 80.857L210.56 85.176L211.353 85.3523V86.1456C211.559 97.6042 211.794 109.386 212 121.403V122.226L211.207 122.431L190.635 127.514L191.399 126.75C189.515 134.369 186.619 141.701 182.789 148.551V147.435C186.668 153.311 190.547 159.187 194.544 165.269L195.014 165.974L194.426 166.591L169.917 191.976L169.33 192.594L168.595 192.153L150.345 181.105H151.462C144.747 185.093 137.533 188.176 130.009 190.272L130.773 189.45C129.275 196.619 127.835 203.729 126.424 210.31L126.248 211.162H125.366L90.1015 211.779H89.2492L89.0435 210.927C87.3097 203.788 85.5758 196.707 83.9889 190.361L84.753 191.124C77.1895 189.237 69.9074 186.363 63.0945 182.575H64.1819C57.9811 186.6 51.898 190.596 46.3438 194.327L45.6679 194.768L45.0801 194.209L19.7189 169.706L19.1605 169.177L19.5719 168.501L30.651 150.314V151.284C26.6469 144.612 23.5441 137.439 21.4233 129.953L22.0993 130.57L1.23427 126.075L0.558359 125.928V125.252C0.352648 112.882 0.176324 101.071 0 89.9945V89.3775L0.587746 89.2306L21.3352 84.2358L20.8062 84.7353C22.7056 77.2007 25.5908 69.9495 29.3873 63.1695V63.9334C25.1849 57.4989 21.2764 51.4758 17.7793 46.0696L17.6324 45.5996L17.9556 45.2764L42.6116 20.038L42.7879 19.8617H43.023L56.453 28.2059L59.9207 30.3801C60.2912 30.6727 60.6354 30.9971 60.9493 31.3497Z" fill="#AAAAAA"/>
</g>
<g opacity="0.44">
<path d="M159.368 267.583C162.137 268.466 164.777 269.712 167.218 271.29L174.229 267.328L183.177 277.182L178.563 283.778C179.904 286.358 180.894 289.106 181.508 291.948L189.274 294.078L188.636 307.38L180.651 308.834C179.769 311.604 178.523 314.243 176.945 316.685L180.902 323.688L171.05 332.634L164.453 328.019C161.877 329.36 159.132 330.347 156.292 330.955L154.155 338.728L140.862 338.08L139.464 330.161C136.691 329.288 134.05 328.04 131.614 326.453L124.603 330.416L115.655 320.562L120.234 314.011C118.892 311.43 117.904 308.679 117.298 305.833L109.532 303.703L110.248 290.288L118.166 288.893C119.049 286.123 120.295 283.483 121.872 281.042L117.915 274.039L127.768 265.093L134.328 269.666C136.909 268.333 139.656 267.348 142.496 266.739L144.633 258.966L157.926 259.614L159.324 267.533L159.368 267.583ZM150.706 284.615C147.884 284.479 145.085 285.182 142.663 286.636C140.242 288.091 138.306 290.231 137.101 292.786C135.895 295.341 135.475 298.196 135.892 300.99C136.31 303.784 137.547 306.392 139.446 308.484C141.346 310.575 143.823 312.057 146.564 312.741C149.305 313.424 152.187 313.28 154.846 312.326C157.505 311.371 159.821 309.65 161.501 307.379C163.181 305.108 164.15 302.39 164.285 299.568C164.469 295.785 163.142 292.084 160.597 289.278C158.052 286.473 154.497 284.793 150.714 284.608L150.706 284.615Z" fill="#AAAAAA"/>
<path d="M150.714 284.607C151.902 284.571 153.088 284.726 154.228 285.067C156.897 285.827 159.291 287.342 161.121 289.429C162.95 291.517 164.139 294.088 164.543 296.834C164.916 299.429 164.583 302.075 163.577 304.495C163.052 305.806 162.325 307.025 161.422 308.11C160.501 309.279 159.394 310.289 158.145 311.1C155.546 312.839 152.456 313.696 149.332 313.545C146.208 313.395 143.215 312.244 140.794 310.264C138.543 308.428 136.893 305.96 136.057 303.178C135.338 300.841 135.222 298.36 135.72 295.966C136.218 293.573 137.314 291.344 138.904 289.488C141.038 286.992 143.965 285.306 147.194 284.713C148.352 284.475 149.542 284.428 150.716 284.576C150.717 284.678 149.452 284.548 147.245 285.008C144.146 285.721 141.375 287.45 139.371 289.919C137.981 291.589 137.003 293.562 136.518 295.68C135.958 298.106 136.054 300.638 136.798 303.015C137.619 305.637 139.198 307.959 141.335 309.687C143.628 311.534 146.451 312.603 149.393 312.737C152.334 312.871 155.242 312.065 157.694 310.434C159.987 308.923 161.78 306.765 162.847 304.235C163.751 302.089 164.104 299.75 163.875 297.432C163.645 295.114 162.841 292.89 161.534 290.962C159.768 288.324 157.174 286.348 154.162 285.345C152.018 284.732 150.674 284.73 150.714 284.607Z" fill="#AAAAAA"/>
<path d="M159.367 267.582C159.316 267.423 159.277 267.26 159.25 267.095L158.964 265.591L157.851 259.679L157.961 259.804C154.552 259.65 150.07 259.465 144.662 259.235L144.854 259.067L142.776 266.788L142.735 266.927L142.591 266.965C139.776 267.578 137.055 268.564 134.501 269.898L134.384 270L134.275 269.875L127.698 265.316L128.061 265.293C124.96 268.114 121.675 271.112 118.23 274.264L118.296 273.868L122.199 280.844L122.331 280.994L122.181 281.125C120.627 283.546 119.399 286.16 118.527 288.9L118.467 289.101L118.252 289.142L110.341 290.546L110.674 290.253L110.061 303.549L109.746 303.19L117.512 305.32L117.735 305.39L117.783 305.613C118.37 308.429 119.33 311.153 120.639 313.715L120.75 313.927L120.604 314.129C119.171 316.196 117.593 318.449 116.039 320.697L116.001 320.199L124.957 330.046L124.46 329.966C126.671 328.721 129.076 327.394 131.462 326.011L131.645 325.85L131.856 325.99C134.263 327.547 136.868 328.776 139.6 329.643L139.847 329.722L139.885 329.968L141.283 337.887L140.897 337.548L154.198 338.188L153.815 338.524L155.951 330.751L156.014 330.52L156.254 330.457C159.062 329.863 161.777 328.892 164.325 327.57L164.5 327.417L164.695 327.555L171.247 332.136L170.758 332.167C174.128 329.114 177.414 326.135 180.618 323.229L180.54 323.695L176.591 316.685L176.445 316.518L176.604 316.379C178.168 313.967 179.407 311.359 180.288 308.622L180.388 308.534L180.603 308.493L188.52 307.113L188.203 307.391L188.872 294.091L189.128 294.383L181.348 292.236L181.186 292.186L181.142 292.018C180.546 289.195 179.576 286.465 178.257 283.899L178.154 283.782L178.271 283.68C179.961 281.284 181.477 279.129 182.907 277.093L182.927 277.401L174.02 267.51L174.246 267.548C171.543 269.091 169.207 270.329 167.26 271.371L167.202 271.422L167.15 271.364C165.331 270.181 163.402 269.175 161.391 268.36L159.874 267.773C159.703 267.72 159.536 267.654 159.376 267.575C159.554 267.606 159.73 267.649 159.902 267.704C160.24 267.821 160.756 267.972 161.439 268.23C163.491 269.004 165.456 269.989 167.305 271.17L167.171 271.169L174.145 267.165L174.253 267.07L174.356 267.186L183.354 276.997L183.478 277.139L183.336 277.263C181.913 279.307 180.412 281.463 178.779 283.839L178.798 283.557C180.151 286.156 181.154 288.922 181.778 291.785L181.581 291.56L189.346 293.69L189.585 293.761L189.569 294.011L188.955 307.306L188.945 307.581L188.675 307.626C186.115 308.07 183.475 308.556 180.764 309.03L181.039 308.789C180.161 311.618 178.914 314.318 177.329 316.82L177.346 316.436L181.311 323.432L181.459 323.701L181.234 323.898C178.033 326.807 174.748 329.805 171.389 332.853L171.155 333.057L170.9 332.883L164.339 328.31L164.746 328.337C162.115 329.697 159.314 330.699 156.417 331.317L156.734 331.039C156.032 333.601 155.329 336.164 154.597 338.811L154.514 339.12L154.193 339.107L140.891 338.467L140.57 338.454L140.512 338.135L139.107 330.208L139.385 330.525C136.583 329.611 133.914 328.331 131.447 326.717L131.87 326.729C129.463 328.088 127.087 329.448 124.868 330.685L124.583 330.847L124.363 330.596L115.415 320.742L115.203 320.5L115.394 320.23C116.989 317.962 118.567 315.708 119.973 313.679L119.946 314.086C118.6 311.47 117.604 308.688 116.985 305.812L117.255 306.121C114.57 305.362 111.923 304.63 109.482 303.982L109.189 303.9L109.201 303.594L109.846 290.301L109.857 290.011L110.151 289.96L118.069 288.579L117.794 288.821C118.691 286.024 119.954 283.36 121.551 280.895L121.545 281.241L117.63 274.201L117.503 273.973L117.695 273.804C121.154 270.669 124.462 267.68 127.562 264.875L127.737 264.721L127.925 264.852L134.504 269.497L134.23 269.471C136.841 268.136 139.617 267.151 142.485 266.541L142.269 266.731C143.049 263.938 143.786 261.33 144.45 258.993L144.547 258.834L144.719 258.846L158.016 259.564L158.11 259.57L158.168 259.637L159.141 265.524L159.387 267.049C159.396 267.227 159.389 267.406 159.367 267.582Z" fill="#AAAAAA"/>
</g>
</svg>
