<svg width="283" height="380" viewBox="0 0 283 380" fill="none" xmlns="http://www.w3.org/2000/svg">
<g opacity="0.44">
<path d="M216.026 278.901C212.386 285.49 207.887 291.566 202.647 296.971L209.174 316.778L179.626 334.534L165.201 319.486C157.97 321.589 150.49 322.718 142.961 322.843L133.631 341.493L100.165 333.16L100.5 312.143C93.9115 308.504 87.8351 304.006 82.4306 298.768L62.6449 305.283L44.8929 275.742L59.9452 261.315C57.8397 254.095 56.7167 246.624 56.6065 239.103L37.9415 229.752L46.2955 196.313L67.1161 196.76C70.7343 190.157 75.2357 184.078 80.496 178.69L73.9688 158.883L103.516 141.127L117.845 156.065C125.079 153.957 132.565 152.836 140.099 152.733L149.43 134.083L183.143 142.671L182.692 163.49C189.281 167.129 195.357 171.626 200.762 176.865L220.547 170.349L238.299 199.89L223.371 214.245C225.456 221.474 226.57 228.948 226.685 236.471L245.35 245.822L236.996 279.261L216.176 278.815L216.026 278.901ZM177.134 248.302C178.905 241.203 178.531 233.739 176.059 226.853C173.587 219.968 169.128 213.971 163.246 209.62C157.365 205.269 150.325 202.76 143.016 202.41C135.708 202.061 128.46 203.886 122.188 207.655C115.917 211.424 110.904 216.969 107.783 223.586C104.662 230.204 103.574 237.598 104.656 244.833C105.738 252.069 108.942 258.82 113.862 264.234C118.782 269.648 125.198 273.481 132.298 275.249C141.815 277.624 151.886 276.122 160.297 271.073C168.708 266.024 174.769 257.842 177.148 248.326L177.134 248.302Z" fill="#AAAAAA"/>
<path d="M177.149 248.326C176.641 251.363 175.648 254.299 174.209 257.02C170.93 263.418 165.873 268.733 159.648 272.327C153.422 275.922 146.291 277.643 139.111 277.284C132.333 276.922 125.778 274.738 120.139 270.962C117.075 268.969 114.344 266.506 112.045 263.665C109.54 260.734 107.532 257.412 106.103 253.832C103 246.351 102.382 238.071 104.341 230.212C106.3 222.353 110.732 215.33 116.984 210.18C122.785 205.389 129.886 202.444 137.374 201.723C143.674 201.078 150.034 202.036 155.863 204.509C161.692 206.981 166.8 210.889 170.712 215.866C175.975 222.545 178.78 230.83 178.656 239.333C178.677 242.395 178.195 245.441 177.227 248.347C176.967 248.299 177.936 245.153 177.883 239.315C177.635 231.082 174.643 223.17 169.381 216.834C165.842 212.46 161.322 208.981 156.188 206.678C150.307 204.031 143.827 202.999 137.415 203.69C130.339 204.451 123.646 207.289 118.178 211.845C112.328 216.738 108.189 223.369 106.363 230.773C104.537 238.178 105.118 245.971 108.023 253.022C110.705 259.608 115.279 265.252 121.168 269.24C126.164 272.619 131.926 274.697 137.929 275.284C143.933 275.871 149.988 274.95 155.545 272.604C163.138 269.449 169.467 263.859 173.534 256.714C176.173 251.576 176.856 248.164 177.149 248.326Z" fill="#AAAAAA"/>
<path d="M216.027 278.901C216.457 278.852 216.89 278.835 217.323 278.849L221.288 278.881L236.867 279.038L236.494 279.253C238.605 270.674 241.338 259.38 244.652 245.762L244.982 246.334L226.418 237.157L226.086 236.984L226.063 236.599C225.926 229.139 224.794 221.73 222.696 214.569L222.495 214.221L222.868 214.006L237.767 199.601L237.643 200.535C232.042 191.235 226.085 181.377 219.817 171.037L220.791 171.403L201.101 177.797L200.653 178.055L200.395 177.608C195.031 172.441 189.011 168.001 182.489 164.403L182.011 164.148L182.016 163.582L182.441 142.778L183.016 143.773L149.554 135.504L150.623 134.886L141.293 153.537L141.003 154.069L140.412 154.079C132.964 154.148 125.558 155.212 118.392 157.242L117.798 157.419L117.358 156.944C112.831 152.263 107.903 147.117 102.979 142.035L104.262 142.189L74.7289 159.969L75.1831 158.746C77.2302 164.991 79.3865 171.771 81.6959 178.528L82.0118 179.075L81.5507 179.54C76.3796 184.869 71.9441 190.864 68.3622 197.368L68.037 197.953L67.3921 197.928L46.5715 197.481L47.6295 196.671L39.2899 230.135L38.6294 228.991L57.2944 238.342L57.8514 238.617L57.8898 239.258C57.9818 246.692 59.0781 254.078 61.149 261.218L61.4505 261.74L60.9999 262.166L46.0576 276.496L46.2267 275.238C52.2793 285.338 58.1884 295.19 63.9539 304.793L62.8085 304.36L82.6085 297.869L83.1059 297.582L83.3787 298.055C88.7153 303.247 94.7158 307.71 101.224 311.328L101.396 311.626L101.391 312.192L100.901 333L100.356 332.055L133.801 340.467L132.93 340.969L142.31 322.29L142.519 321.905L142.968 321.878C150.438 321.789 157.864 320.702 165.047 318.646L165.396 318.445L165.597 318.793C170.829 324.294 175.539 329.235 179.987 333.895L179.196 333.788L208.815 316.157L208.604 316.71C206.048 309.067 204.085 302.507 202.419 297.037L202.318 296.863L202.493 296.762C206.416 292.737 209.944 288.346 213.03 283.649L215.287 280.091C215.507 279.683 215.759 279.293 216.041 278.926C215.874 279.363 215.675 279.788 215.448 280.197C214.981 280.997 214.335 282.232 213.337 283.836C210.335 288.657 206.84 293.153 202.908 297.252L202.978 296.913L209.629 316.648L209.816 316.972L209.468 317.173L180.006 335.078L179.584 335.322L179.339 334.899C174.866 330.253 170.146 325.352 164.936 320.004L165.642 320.193C158.359 322.321 150.825 323.47 143.239 323.611L143.91 323.223L134.58 341.874L134.28 342.445L133.652 342.277L100.19 334.008L99.498 333.844L99.5198 333.135C99.6829 326.409 99.7808 319.456 99.9456 312.331L100.419 313.152C93.6772 309.495 87.4479 304.964 81.8932 299.675L82.8596 299.913L63.0883 306.454L62.3306 306.692L61.9429 306.021C56.1692 296.422 50.2126 286.565 44.166 276.494L43.764 275.798L44.3351 275.236L59.263 260.881L58.9896 261.901C56.8618 254.531 55.7299 246.91 55.624 239.24L56.1696 240.185C50.0146 237.107 43.8596 234.029 37.5046 230.834L36.762 230.467L36.958 229.657L45.2976 196.194L45.4936 195.384L46.3308 195.398L67.1763 195.831L66.2311 196.376C69.9663 189.719 74.5656 183.585 79.9095 178.134L79.6648 179.203C77.43 172.403 75.1741 165.681 73.1519 159.421L72.8848 158.614L73.631 158.183L103.178 140.427L103.9 140.011L104.49 140.631C109.447 145.827 114.375 150.973 118.819 155.57L117.799 155.296C125.123 153.198 132.692 152.072 140.31 151.949L139.389 152.48C142.671 146.043 145.867 139.688 148.745 133.816L149.101 133.112L149.872 133.298L183.313 141.645L184.044 141.82L184.026 142.593L183.536 163.401L183.062 162.58C189.712 166.27 195.843 170.825 201.297 176.125L200.423 175.933L220.28 169.542L220.924 169.336L221.254 169.908C227.473 180.277 233.394 190.188 238.957 199.478L239.258 200L238.833 200.412L223.712 214.778L223.916 214.097C225.99 221.403 227.092 228.95 227.192 236.544L226.818 235.898C233.52 239.29 239.771 242.478 245.373 245.345L245.727 245.671L245.612 246.103L237.076 279.514L237.013 279.75L236.814 279.865L221.369 279.365L217.371 279.219C216.914 279.153 216.465 279.046 216.027 278.901Z" fill="#AAAAAA"/>
</g>
<g opacity="0.44">
<path d="M91.5552 82.8102C88.7154 83.4302 85.8057 83.6705 82.9025 83.5247L78.8126 90.4617L66.1361 86.4016L66.8337 78.3826C64.3825 76.8182 62.1509 74.9339 60.1982 72.7793L52.4078 74.8173L46.3091 62.979L52.4973 57.7268C51.8768 54.8874 51.6361 51.9782 51.7815 49.0755L44.8534 44.9889L48.9126 32.315L56.933 33.0135C58.4936 30.5643 60.3771 28.3366 62.5327 26.3903L60.497 18.5905L72.3329 12.5047L77.5028 18.664C80.3411 18.0339 83.2521 17.7935 86.1555 17.9495L90.2454 11.0126L102.922 15.0727L102.232 23.0356C104.685 24.5995 106.916 26.4879 108.864 28.6493L116.654 26.6114L122.741 38.5863L116.582 43.7546C117.202 46.594 117.443 49.5032 117.297 52.4059L124.226 56.4925L120.166 69.1663L112.198 68.4857C110.63 70.9309 108.743 73.1569 106.588 75.1053L108.624 82.9051L96.7881 88.9909L91.6182 82.8316L91.5552 82.8102ZM90.5406 63.7286C93.0526 62.4358 95.1246 60.4273 96.4947 57.9569C97.8647 55.4866 98.4712 52.6654 98.2375 49.8501C98.0038 47.0349 96.9403 44.3521 95.1817 42.141C93.423 39.9299 91.048 38.2898 88.3572 37.4282C85.6664 36.5666 82.7805 36.5221 80.0646 37.3004C77.3487 38.0788 74.9248 39.6449 73.0993 41.8008C71.2739 43.9566 70.1289 46.6054 69.8093 49.4121C69.4896 52.2188 70.0096 55.0574 71.3035 57.5688C73.0364 60.9366 76.0361 63.4786 79.6429 64.6357C83.2497 65.7929 87.1684 65.4703 90.537 63.7391L90.5406 63.7286Z" fill="#AAAAAA"/>
<path d="M90.537 63.7388C89.526 64.3643 88.4209 64.8233 87.2641 65.098C84.572 65.7742 81.7417 65.659 79.1133 64.7661C76.4849 63.8733 74.17 62.2408 72.4467 60.0647C70.8264 58.0046 69.7922 55.5454 69.4532 52.9467C69.2521 51.5497 69.2719 50.1299 69.512 48.7391C69.7252 47.2657 70.1787 45.8374 70.8546 44.5109C72.2367 41.7057 74.4838 39.4187 77.2645 37.9871C80.0452 36.5555 83.2124 36.0551 86.2994 36.5594C89.1668 37.0243 91.8295 38.3367 93.9447 40.3275C95.7357 41.9923 97.0764 44.0829 97.842 46.4048C98.6077 48.7268 98.7735 51.2046 98.3239 53.6076C97.7243 56.8356 96.0324 59.759 93.532 61.8871C92.6482 62.673 91.641 63.3081 90.5508 63.7669C90.4987 63.679 91.659 63.1597 93.3404 61.658C95.6677 59.4908 97.2036 56.6078 97.7039 53.4673C98.0731 51.3263 97.933 49.1283 97.2947 47.0514C96.5666 44.6702 95.2168 42.526 93.3842 40.8398C91.3619 38.979 88.8344 37.7578 86.1197 37.3299C83.2096 36.8767 80.231 37.3626 77.6162 38.7171C75.0014 40.0716 72.8865 42.2242 71.5786 44.8623C70.3487 47.3176 69.8742 50.0823 70.215 52.8073C70.5056 55.1181 71.3689 57.3198 72.7265 59.2125C74.0841 61.1052 75.8929 62.6289 77.9889 63.6454C80.8375 65.0472 84.0715 65.4618 87.1815 64.824C89.345 64.2824 90.5096 63.6124 90.537 63.7388Z" fill="#AAAAAA"/>
<path d="M91.5549 82.8103C91.6787 82.9227 91.794 83.0441 91.9 83.1735L92.9 84.3329L96.8198 88.8965L96.6623 88.843C99.6908 87.272 103.666 85.191 108.464 82.6869L108.382 82.9284L106.321 75.202L106.287 75.0616L106.392 74.957C108.524 73.0183 110.387 70.8037 111.932 68.372L111.982 68.2251L112.14 68.2786L120.115 68.9382L119.812 69.1399C121.087 65.1462 122.433 60.9075 123.84 56.4553L123.981 56.8313L117.113 52.7416L116.924 52.6774L116.988 52.4884C117.123 49.6157 116.88 46.7376 116.265 43.9282L116.217 43.7245L116.382 43.5817L122.532 38.4099L122.389 38.8299L116.273 27.009L116.724 27.1624L108.934 29.2004L108.705 29.2516L108.552 29.0824C106.636 26.9375 104.442 25.0581 102.029 23.4939L101.826 23.3665L101.852 23.1177C102.059 20.6117 102.299 17.8709 102.521 15.1476L102.803 15.5595L90.123 11.5099L90.5939 11.3303C89.3015 13.5144 87.8819 15.8662 86.5076 18.2567L86.4291 18.4877L86.1767 18.4722C83.3133 18.327 80.4434 18.5651 77.6433 19.1804L77.3905 19.2351L77.2338 19.0413L72.0639 12.882L72.5684 12.9831L60.7289 19.0794L60.8929 18.5964L62.9287 26.3962L62.9905 26.628L62.8141 26.8023C60.6792 28.7211 58.8134 30.9196 57.2675 33.3382L57.1926 33.5586L56.9543 33.5362L48.9899 32.8451L49.3983 32.5739C48.006 36.9023 46.6495 41.1258 45.3286 45.2442L45.1628 44.8014L52.0873 48.8985L52.2973 48.9698L52.2296 49.1693C52.0803 52.0405 52.3117 54.9188 52.9178 57.7293L52.875 57.8553L52.7093 57.9981L46.5427 63.1523L46.6783 62.7533L52.7489 74.6055L52.3814 74.4806L60.1927 72.4498L60.3578 72.4122L60.4798 72.5356C62.4073 74.6823 64.6129 76.5618 67.0382 78.1243L67.1853 78.1743L67.1353 78.3213C66.8698 81.2407 66.6341 83.8658 66.4132 86.3437L66.2428 86.0867L78.9014 90.1993L78.6871 90.2787C80.2559 87.5912 81.6609 85.3516 82.8253 83.4753L82.8503 83.4018L82.9238 83.4267C85.091 83.5415 87.2642 83.4484 89.4136 83.1486L91.0213 82.8984C91.1956 82.8583 91.3728 82.8324 91.5513 82.8208C91.3818 82.8834 91.2081 82.934 91.0314 82.9721C90.6803 83.0402 90.157 83.1669 89.4374 83.2855C87.2733 83.6409 85.0782 83.7704 82.8873 83.672L83.0034 83.606L78.966 90.5608L78.9197 90.6973L78.7727 90.6474L66.0748 86.6503L65.8962 86.5896L65.9569 86.4112C66.1673 83.9297 66.389 81.3116 66.6156 78.4375L66.7404 78.6907C64.2688 77.1174 62.0174 75.2224 60.0455 73.0556L60.329 73.1519L52.5387 75.1899L52.2964 75.2481L52.1854 75.023L46.069 63.2022L45.9406 62.9595L46.152 62.7853C48.1464 61.1207 50.1904 59.3792 52.3012 57.6136L52.1835 57.96C51.5291 55.0716 51.2592 52.1094 51.381 49.1504L51.5579 49.4916L44.6262 45.4155L44.3641 45.2562L44.4604 44.9727C45.7777 40.8531 47.1239 36.6144 48.509 32.2953L48.6089 32.0013L48.9174 32.0241L56.8853 32.7048L56.5195 32.885C58.1177 30.3914 60.0426 28.1228 62.2427 26.1398L62.1072 26.5388C61.4343 23.9681 60.7614 21.3974 60.0714 18.7389L59.989 18.4299L60.2739 18.2807L72.1134 12.1845L72.3983 12.0353L72.6074 12.282L77.7877 18.4449L77.3887 18.3093C80.2725 17.6994 83.2243 17.4735 86.1674 17.6376L85.7945 17.8389C87.2003 15.459 88.5779 13.093 89.8808 10.9124L90.0473 10.6293L90.3623 10.7363L103.039 14.7964L103.343 14.8999L103.313 15.2293C103.066 17.9911 102.826 20.7318 102.623 23.1923L102.443 22.8265C104.917 24.419 107.17 26.3302 109.145 28.5108L108.756 28.3788C111.46 27.6931 114.119 27.0036 116.557 26.3444L116.852 26.269L116.994 26.5398L123.082 38.3745L123.218 38.6313L122.989 38.8228L116.822 43.977L116.94 43.6305C117.561 46.5007 117.799 49.4404 117.648 52.373L117.481 52.0704L124.392 56.2095L124.615 56.344L124.533 56.5855C123.105 61.0306 121.735 65.2727 120.453 69.2523L120.378 69.4727L120.15 69.4539L112.13 68.7203L112.38 68.6061C110.787 71.0679 108.875 73.3089 106.696 75.2708L106.788 74.9979C107.509 77.8073 108.175 80.434 108.768 82.7904L108.764 82.9762L108.609 83.0524L96.7346 89.0784L96.6502 89.1199L96.5662 89.0914L92.78 84.4795L91.8047 83.2816C91.7078 83.1321 91.6242 82.9744 91.5549 82.8103Z" fill="#AAAAAA"/>
</g>
</svg>
