<svg width="738" height="650" viewBox="0 0 738 650" fill="none" xmlns="http://www.w3.org/2000/svg">
<g filter="url(#filter0_i_393_740)">
<path d="M61.1129 156.117C29.0002 204.499 1.61285 369.617 51.1129 441.617C51.1129 441.617 61.1129 469.445 104.113 491.617C147.113 513.79 217.134 526.59 291.113 542.617C411.358 568.669 560.113 607.617 603.613 582.617C647.113 557.618 752.5 329.999 735.613 266.117C718.726 202.236 597.845 108.499 569.613 83.1174C522.792 41.0237 498.613 16.1175 425.613 10.6174C352.613 5.11741 323.613 13.1174 235.613 42.6174C147.613 72.1174 93.2256 107.736 61.1129 156.117Z" fill="url(#paint0_linear_393_740)"/>
</g>
<g opacity="0.49">
<path d="M86.4717 253.081C88.8413 251.659 91.3901 250.559 94.0506 249.812L95.6839 242.292L108.359 242.079L110.188 249.534C112.877 250.192 115.464 251.21 117.882 252.558L124.284 248.357L133.415 257.168L129.43 263.708C130.851 266.079 131.95 268.63 132.696 271.293L140.194 272.928L140.422 285.614L132.974 287.445C132.319 290.136 131.302 292.726 129.952 295.145L134.15 301.553L125.313 310.626L118.78 306.654C116.41 308.076 113.862 309.176 111.201 309.923L109.568 317.443L96.8926 317.656L95.0633 310.218C92.3758 309.549 89.7889 308.526 87.37 307.177L80.9672 311.378L71.8692 302.567L75.8384 296.028C74.4169 293.656 73.3183 291.105 72.5716 288.442L65.058 286.807L64.8457 274.121L72.2776 272.29C72.9413 269.599 73.9632 267.009 75.3157 264.59L71.1179 258.313L79.9218 249.174L86.4553 253.163L86.4717 253.081ZM93.2339 269.985C91.3633 271.923 90.1089 274.372 89.6295 277.023C89.1501 279.674 89.4672 282.408 90.5406 284.879C91.6141 287.349 93.3956 289.446 95.6599 290.903C97.9242 292.36 100.569 293.112 103.261 293.064C105.952 293.016 108.569 292.17 110.78 290.633C112.991 289.096 114.696 286.937 115.681 284.43C116.666 281.922 116.885 279.179 116.312 276.546C115.738 273.914 114.397 271.511 112.459 269.642C111.174 268.4 109.658 267.424 107.996 266.769C106.335 266.114 104.561 265.794 102.775 265.826C100.99 265.858 99.2281 266.241 97.591 266.955C95.9538 267.669 94.4732 268.698 93.2339 269.985Z" fill="#E0E0E0"/>
</g>
<g opacity="0.49">
<path d="M219.413 357.022C220.781 356.193 222.253 355.549 223.79 355.11L224.689 350.777L232.006 350.646L233.052 354.946C234.603 355.33 236.097 355.918 237.494 356.695L241.186 354.276L246.445 359.36L244.159 363.136C244.983 364.505 245.62 365.979 246.053 367.518L250.382 368.417L250.512 375.741L246.217 376.787C245.84 378.342 245.252 379.839 244.469 381.234L246.903 384.928L241.823 390.192L238.033 387.904C236.673 388.732 235.206 389.37 233.672 389.8L232.774 394.132L225.456 394.263L224.395 389.963C222.848 389.579 221.36 388.991 219.968 388.214L216.277 390.732L211.001 385.648L213.304 381.855C212.478 380.49 211.836 379.023 211.393 377.49L207.065 376.574L206.95 369.267L211.23 368.204C211.618 366.658 212.205 365.169 212.977 363.774L210.56 360.063L215.607 354.766L219.38 357.071L219.413 357.022ZM223.317 366.831C222.24 367.948 221.519 369.359 221.244 370.886C220.969 372.413 221.152 373.988 221.771 375.411C222.39 376.833 223.416 378.04 224.721 378.879C226.025 379.719 227.548 380.152 229.098 380.124C230.649 380.097 232.156 379.61 233.43 378.725C234.703 377.841 235.686 376.598 236.255 375.154C236.823 373.711 236.951 372.131 236.622 370.614C236.293 369.098 235.522 367.713 234.407 366.635C233.671 365.914 232.799 365.346 231.843 364.963C230.887 364.579 229.865 364.388 228.835 364.4C227.805 364.412 226.787 364.628 225.841 365.033C224.894 365.439 224.036 366.028 223.317 366.766V366.831Z" fill="#E0E0E0"/>
</g>
<g opacity="0.49">
<path d="M659.887 275.756C661.202 274.956 662.619 274.34 664.101 273.925L664.967 269.756L672.006 269.625L673.019 273.761C674.51 274.118 675.949 274.667 677.299 275.396L680.843 273.058L685.923 277.963L683.718 281.592C684.504 282.914 685.119 284.332 685.547 285.81L689.712 286.676L689.827 293.722L685.694 294.736C685.351 296.232 684.801 297.674 684.061 299.019L686.397 302.583L681.496 307.65L677.854 305.493C676.538 306.289 675.12 306.905 673.64 307.324L672.774 311.492L665.734 311.623L664.722 307.487C663.231 307.129 661.792 306.579 660.442 305.852L656.881 308.19L651.818 303.286L654.023 299.64C653.234 298.325 652.619 296.912 652.194 295.439L648.028 294.556L647.914 287.51L652.047 286.496C652.393 285.006 652.943 283.57 653.68 282.229L651.344 278.665L656.244 273.598L659.887 275.805V275.756ZM663.643 285.139C662.602 286.215 661.903 287.575 661.635 289.049C661.366 290.522 661.541 292.042 662.136 293.417C662.731 294.791 663.72 295.957 664.978 296.769C666.236 297.58 667.706 298 669.202 297.974C670.698 297.949 672.153 297.48 673.383 296.627C674.613 295.774 675.562 294.575 676.111 293.181C676.659 291.788 676.783 290.263 676.465 288.799C676.147 287.336 675.403 285.999 674.326 284.959C672.889 283.583 670.968 282.83 668.98 282.864C666.992 282.898 665.098 283.715 663.709 285.139H663.643Z" fill="#EBEBEB"/>
</g>
<g opacity="0.49">
<path d="M564.726 209.579C567.088 208.154 569.632 207.054 572.288 206.31L573.922 198.806L586.58 198.577L588.345 205.999C591.026 206.662 593.608 207.679 596.021 209.024L602.424 204.838L611.539 213.634L607.569 220.173C608.991 222.545 610.09 225.096 610.836 227.758L618.333 229.393L618.562 242.079L611.114 243.894C610.451 246.583 609.435 249.172 608.092 251.594L612.29 258.002L603.486 267.124L596.952 263.152C594.583 264.575 592.034 265.674 589.374 266.421L587.74 273.925L575.081 274.154L573.317 266.667C570.636 266.003 568.054 264.986 565.641 263.642L559.238 267.827L550.123 259.032L554.093 252.493C552.671 250.121 551.572 247.57 550.826 244.907L543.329 243.354L543.116 230.668L550.548 228.854C551.211 226.165 552.227 223.575 553.57 221.154L549.372 214.745L558.176 205.623L564.71 209.596L564.726 209.579ZM571.472 226.467C569.603 228.401 568.349 230.846 567.868 233.493C567.388 236.141 567.703 238.871 568.773 241.339C569.844 243.807 571.621 245.902 573.882 247.359C576.142 248.816 578.783 249.569 581.471 249.523C584.158 249.477 586.772 248.635 588.982 247.102C591.191 245.569 592.896 243.415 593.882 240.912C594.868 238.409 595.09 235.669 594.52 233.04C593.95 230.41 592.614 228.009 590.68 226.14C588.089 223.635 584.61 222.263 581.008 222.324C577.406 222.385 573.976 223.875 571.472 226.467Z" fill="#E0E0E0"/>
</g>
<g opacity="0.49">
<path d="M181.306 145.511C184.098 143.563 186.258 140.838 187.518 137.674C188.778 134.509 189.083 131.044 188.395 127.708C186.598 118.275 177.974 111.981 169.121 113.665C160.268 115.349 154.551 124.357 156.348 133.806C156.938 137.19 158.518 140.323 160.887 142.808C163.257 145.293 166.31 147.019 169.66 147.767C145.747 156.284 152.069 182.866 152.069 182.866L210.38 171.782C210.38 171.782 206.46 144.432 181.306 145.511Z" fill="#EBEBEB"/>
</g>
<g opacity="0.49">
<path d="M275.013 276.769L260.067 273.026C260.067 273.026 256.98 285.581 243.897 282.589C241.364 282.06 239.059 280.753 237.303 278.852C235.546 276.95 234.425 274.548 234.096 271.979C233.791 269.827 233.999 267.632 234.703 265.575C235.407 263.518 236.587 261.657 238.147 260.144C241.708 256.58 248.192 254.144 257.829 258.411L266.127 224.685L251.427 221.039L246.526 240.804C246.526 240.804 224.492 241.049 218.857 263.904C213.483 285.777 231.826 295.684 240.205 297.744C246.641 299.379 268.806 303.221 275.013 276.769Z" fill="#EBEBEB"/>
<path d="M252.884 214.106L267.871 217.802L271.321 203.786L256.334 200.09L252.884 214.106Z" fill="#EBEBEB"/>
</g>
<path d="M563.173 172.061L583.672 168.791C597.097 179.632 614.089 185.055 631.306 183.994C648.523 182.932 664.721 175.463 676.715 163.055C688.709 150.646 695.632 134.196 696.122 116.938C696.612 99.6804 690.635 82.863 679.365 69.7925C668.095 56.7219 652.347 48.3435 635.218 46.3045C618.089 44.2654 600.817 48.7132 586.798 58.7735C572.779 68.8337 563.028 83.7786 559.46 100.67C555.892 117.562 558.767 135.178 567.518 150.056L563.173 172.061Z" fill="white"/>
<path d="M563.174 172.06L563.419 170.671L564.203 166.486C564.905 162.726 565.951 157.2 567.306 150.023C567.318 149.977 567.346 149.937 567.385 149.91C567.424 149.883 567.472 149.871 567.519 149.876H567.617L567.323 150.105C561.51 140.265 558.216 129.14 557.735 117.719C557.59 114.15 557.726 110.575 558.143 107.028C558.63 103.225 559.406 99.4653 560.462 95.7804C564.313 82.4416 572.076 70.5671 582.746 61.6946C593.416 52.8222 606.502 47.3605 620.31 46.017C631.145 45.0009 642.067 46.5556 652.19 50.5549C662.313 54.5542 671.352 60.8854 678.572 69.035L681.349 72.3046C682.215 73.4327 682.982 74.6261 683.832 75.7868C685.445 78.1076 686.912 80.5263 688.226 83.0289C688.944 84.2387 689.402 85.5792 690.006 86.838C690.61 88.0968 691.231 89.372 691.639 90.6962C696.327 103.457 697.246 117.299 694.285 130.569C691.141 144.245 683.921 156.643 673.581 166.122C663.241 175.601 650.269 181.714 636.382 183.651C632.567 184.175 628.717 184.404 624.867 184.338C621.274 184.144 617.696 183.734 614.152 183.112C602.915 181.022 592.381 176.149 583.509 168.938H583.656L568.417 171.308L564.513 171.88L563.207 172.06L564.579 171.815L568.515 171.145L583.673 168.644C583.696 168.632 583.721 168.626 583.746 168.626C583.772 168.626 583.797 168.632 583.82 168.644C592.68 175.742 603.165 180.523 614.331 182.556C617.835 183.131 621.369 183.497 624.916 183.651C628.739 183.706 632.561 183.471 636.349 182.948C650.066 180.955 662.862 174.863 673.062 165.471C683.263 156.078 690.392 143.823 693.518 130.307C695.825 119.912 695.73 109.126 693.24 98.7721C692.607 96.1099 691.81 93.4893 690.855 90.925C690.447 89.6009 689.777 88.3911 689.222 87.1159C688.667 85.8408 688.16 84.5493 687.458 83.3396C686.157 80.8663 684.706 78.475 683.113 76.1791C682.296 75.0511 681.48 73.8741 680.663 72.746L677.919 69.4764C670.786 61.4225 661.857 55.1636 651.857 51.2072C641.857 47.2507 631.066 45.7078 620.359 46.7036C606.692 47.9924 593.728 53.3668 583.154 62.128C572.58 70.8892 564.884 82.632 561.067 95.8294C560.011 99.4768 559.231 103.198 558.731 106.962C558.296 110.53 558.149 114.128 558.29 117.719C558.707 129.109 561.933 140.218 567.682 150.056C567.711 150.093 567.727 150.139 567.727 150.187C567.727 150.234 567.711 150.28 567.682 150.317C567.647 150.337 567.608 150.348 567.568 150.348C567.528 150.348 567.488 150.337 567.453 150.317L567.747 150.219L564.481 166.567C564.105 168.398 563.811 169.837 563.615 170.785C563.419 171.733 563.174 172.06 563.174 172.06Z" fill="#263238"/>
<path d="M647.946 117.016C647.946 115.63 648.356 114.276 649.125 113.123C649.894 111.971 650.986 111.072 652.264 110.54C653.543 110.008 654.95 109.867 656.309 110.135C657.667 110.403 658.916 111.068 659.897 112.046C660.878 113.023 661.548 114.27 661.822 115.628C662.096 116.986 661.962 118.395 661.437 119.677C660.911 120.96 660.018 122.057 658.87 122.832C657.722 123.606 656.371 124.023 654.986 124.029C654.063 124.036 653.147 123.859 652.292 123.509C651.437 123.16 650.66 122.644 650.005 121.992C649.351 121.34 648.832 120.564 648.478 119.71C648.125 118.856 647.944 117.941 647.946 117.016Z" fill="#263238"/>
<path d="M619.918 117.016C619.918 115.629 620.329 114.273 621.099 113.12C621.869 111.967 622.963 111.068 624.244 110.537C625.524 110.006 626.933 109.867 628.292 110.138C629.652 110.408 630.9 111.076 631.88 112.057C632.86 113.038 633.527 114.288 633.798 115.648C634.068 117.008 633.929 118.419 633.399 119.7C632.869 120.982 631.971 122.077 630.818 122.848C629.666 123.618 628.311 124.03 626.925 124.03C625.067 124.03 623.284 123.291 621.97 121.975C620.656 120.66 619.918 118.876 619.918 117.016Z" fill="#263238"/>
<path d="M591.97 120.531C591.277 119.33 590.956 117.95 591.046 116.566C591.137 115.182 591.635 113.855 592.479 112.755C593.323 111.654 594.473 110.829 595.786 110.383C597.098 109.937 598.513 109.891 599.852 110.25C601.191 110.609 602.393 111.357 603.307 112.4C604.22 113.443 604.805 114.733 604.986 116.109C605.167 117.484 604.936 118.882 604.323 120.126C603.71 121.37 602.742 122.404 601.542 123.098C599.933 124.028 598.02 124.28 596.225 123.798C594.43 123.317 592.9 122.142 591.97 120.531Z" fill="#263238"/>
<path d="M102.609 368.007C98.297 365.964 91.0775 361.697 86.602 360.029C82.1803 358.126 77.2416 357.791 72.6039 359.081C69.9579 359.964 67.3445 362.056 67.3281 364.852L84.936 377.734L102.658 373.075L102.609 368.007Z" fill="#FF9A6C"/>
<path d="M83.4005 367.844C83.4005 367.844 51.8435 360.995 46.6657 358.281C41.4879 355.567 13.9164 341.688 9.34294 341.688C4.76947 341.688 0.833024 343.012 0 347.573L5.99451 352.248L6.7622 354.635L17.0198 359.981L18.8982 363.43L45.0323 377.392C45.0323 377.392 72.4405 391.304 77.0139 392.105C81.5874 392.906 104.422 394.819 114.19 403.123L153.391 387.021C153.391 387.021 142.104 370.95 133.317 366.994C125.542 363.463 112.491 363.463 103.36 367.19L83.4005 367.844Z" fill="#FFBF9D"/>
<path d="M109.633 394.213C109.633 394.213 159.533 503.124 167.569 524.997C167.569 524.997 223.349 515.826 225.26 484.83L153.391 386.742L109.633 394.213Z" fill="#FFBF9D"/>
<path d="M63.2936 370.28C63.2936 370.28 63.0976 370.28 62.7546 370.28C62.2469 370.213 61.7448 370.109 61.2519 369.969C59.4646 369.406 57.7272 368.696 56.0578 367.844C53.9344 366.814 51.468 365.457 48.7565 363.937C47.4008 363.185 45.9798 362.384 44.4934 361.599C43.007 360.814 41.39 360.177 39.7403 359.458C36.6858 358.073 33.5295 356.925 30.2993 356.024C27.3429 355.289 24.5008 354.717 22.3611 355.436C21.5296 355.77 20.7757 356.272 20.1462 356.911C19.5168 357.549 19.0253 358.31 18.7023 359.147C18.1306 360.324 17.951 361.027 17.8693 361.011C17.7876 360.994 17.8693 360.814 17.8693 360.471C17.9861 359.976 18.139 359.489 18.3267 359.016C18.6564 358.255 19.0848 357.54 19.6007 356.891C20.2596 355.99 21.1683 355.302 22.2141 354.913C23.4802 354.488 24.8256 354.354 26.1505 354.52C27.6333 354.659 29.1026 354.916 30.5443 355.289C33.8272 356.167 37.0337 357.31 40.1323 358.706C41.7657 359.425 43.3991 360.079 44.9181 360.896C46.4371 361.714 47.8419 362.531 49.1976 363.283C51.8763 364.918 54.2937 366.242 56.3844 367.337C58.0054 368.216 59.6802 368.991 61.3989 369.659C62.575 370.1 63.2936 370.198 63.2936 370.28Z" fill="#FF9A6C"/>
<path d="M33.1905 354.635C31.6619 354.31 30.1802 353.794 28.7804 353.098C25.4177 351.493 21.9528 350.111 18.4084 348.962C16.4713 348.416 14.4491 348.239 12.4466 348.439C11.6372 348.456 10.84 348.639 10.104 348.977C9.36801 349.314 8.70884 349.799 8.16711 350.401C7.52085 351.289 7.1004 352.322 6.94208 353.409C6.92727 353.828 6.84453 354.242 6.69707 354.635C6.59283 354.219 6.5597 353.787 6.59907 353.36C6.66502 352.192 7.04295 351.063 7.69343 350.09C8.19341 349.409 8.84123 348.85 9.58816 348.455C10.4347 348.044 11.3469 347.784 12.2832 347.687C14.3945 347.424 16.537 347.579 18.5881 348.145C22.1759 349.309 25.6525 350.792 28.9764 352.575C30.4194 353.18 31.8264 353.868 33.1905 354.635Z" fill="#FF9A6C"/>
<path d="M111.854 364.755C111.458 364.998 111.029 365.185 110.58 365.311C109.731 365.621 108.49 366.014 106.938 366.422C98.8017 368.522 90.3159 368.889 82.0289 367.501C80.7801 367.304 79.5425 367.042 78.3211 366.717C77.8603 366.637 77.4142 366.488 76.998 366.275C76.998 366.144 78.9581 366.52 82.1269 366.913C90.3556 367.949 98.7002 367.584 106.807 365.834C109.911 365.18 111.822 364.575 111.854 364.755Z" fill="#FF9A6C"/>
<path d="M576.583 300.082L503.914 285.042L486.045 271.555L390.166 290.061C388.63 292.872 373.097 314.583 373.097 314.583L335.333 327.432C319.28 331.647 304.953 340.795 294.368 353.589C284.295 366.033 276.045 379.849 269.867 394.623C252.88 434.512 228.363 480.629 228.363 480.629L212.993 455.846L148.213 486.335C148.213 486.335 186.205 562.909 198.717 573.83C212.682 585.976 244.778 587.382 266.992 564.707C280.37 551.057 319.032 497.027 327.084 483.507L338.975 540.055L349.968 604.597L332.197 649.03H591.578L580.847 607.065C580.847 607.065 591.415 497.631 594.338 477.278C601.215 429.215 576.583 300.082 576.583 300.082Z" fill="#FE8900"/>
<path d="M576.583 300.082C576.583 300.082 628.525 314.664 639.958 366.324C646.884 397.647 670.405 486.874 678.686 560.359C683.586 604.024 683.439 644.404 683.586 649.014H603.877L570.05 314.664L576.583 300.082Z" fill="#FE8900"/>
<path d="M443.316 344.45C443.274 344.64 443.203 344.822 443.104 344.989L442.369 346.493C441.715 347.801 440.735 349.763 439.674 352.215C437.371 357.119 434.659 364.411 430.282 372.519L430.069 372.944L429.71 372.634C424.32 368.04 418.456 362.514 412.429 356.547C401.73 345.921 392.355 336.03 385.413 329.017L377.246 320.729C376.331 319.797 375.613 319.094 375.008 318.489C374.724 318.244 374.471 317.964 374.257 317.655C374.562 317.868 374.851 318.103 375.123 318.358L377.475 320.483C379.5 322.363 382.375 325.11 385.919 328.657C392.959 335.556 402.416 345.398 413.082 356.008C419.126 361.958 424.941 367.451 430.265 372.111L429.677 372.225C434.071 364.198 436.897 356.972 439.314 352.084C440.507 349.632 441.503 347.736 442.205 346.444L443.055 344.989C443.186 344.597 443.3 344.433 443.316 344.45Z" fill="black"/>
<path d="M504.959 286.872C504.956 287.258 504.906 287.642 504.812 288.016C504.649 288.85 504.453 289.929 504.208 291.286C503.604 294.114 502.575 298.152 501.235 303.106C498.41 312.996 493.836 326.451 488.168 341.098C485.179 348.847 482.239 356.155 479.495 362.661L479.283 363.152L478.874 362.792C471.475 356.253 464.844 351.12 460.352 347.278C458.098 345.382 456.334 343.845 455.141 342.766L453.802 341.523C453.508 341.229 453.361 341.066 453.377 341.049C453.568 341.151 453.743 341.277 453.9 341.425L455.305 342.586L460.646 346.918C465.219 350.646 471.916 355.697 479.397 362.22L478.776 362.351C481.471 355.812 484.395 348.537 487.368 340.788C492.97 326.173 497.625 312.767 500.582 302.942C502.052 298.038 503.13 294 503.849 291.221C504.159 289.896 504.42 288.817 504.616 287.951C504.706 287.584 504.821 287.224 504.959 286.872Z" fill="black"/>
<path d="M336.934 532.845C336.869 532.727 336.819 532.6 336.787 532.469L336.477 531.324C336.183 530.278 335.775 528.84 335.252 527.025C334.729 525.21 334.158 522.856 333.504 520.175C332.851 517.494 332.148 514.421 331.446 511.02C327.832 493.283 325.291 475.344 323.835 457.301C321.989 436.163 321.581 416.954 321.679 403.058C321.679 396.11 321.858 390.503 322.054 386.612C322.152 384.732 322.218 383.244 322.267 382.149C322.267 381.675 322.267 381.299 322.348 380.988C322.331 380.858 322.331 380.726 322.348 380.596C322.348 380.596 322.348 380.726 322.348 380.988V382.149C322.348 383.244 322.348 384.732 322.348 386.628C322.348 390.503 322.218 396.126 322.234 403.058C322.234 416.937 322.806 436.114 324.651 457.219C326.122 475.235 328.575 493.158 332.001 510.906C332.671 514.306 333.292 517.445 333.929 520.061C334.566 522.676 335.04 525.063 335.562 526.943C336.085 528.823 336.363 530.213 336.64 531.275L336.885 532.42C336.932 532.556 336.948 532.701 336.934 532.845Z" fill="black"/>
<path d="M580.847 357.397C580.934 357.539 581.01 357.686 581.075 357.839C581.222 358.199 581.402 358.64 581.647 359.196L583.787 364.394C584.244 365.522 584.783 366.781 585.306 368.171L586.939 372.748C587.495 374.383 588.083 376.165 588.72 378.029C589.357 379.892 589.781 381.936 590.353 384.045C595.253 400.867 597.687 425.193 596.299 451.84C594.91 478.487 591.758 502.437 589.765 519.782C588.769 528.414 587.952 535.411 587.38 540.332C587.086 542.702 586.874 544.566 586.711 545.906L586.515 547.361C586.503 547.528 586.47 547.693 586.417 547.852C586.395 547.684 586.395 547.513 586.417 547.345L586.531 545.89C586.662 544.55 586.825 542.62 587.054 540.299C587.511 535.395 588.23 528.398 589.161 519.717C590.941 502.355 593.946 478.389 595.384 451.791C596.821 425.193 594.387 400.998 589.651 384.192C589.095 382.083 588.573 380.072 588.017 378.176L586.384 372.895L584.914 368.302C584.407 366.912 583.901 365.653 583.46 364.509C582.611 362.269 581.957 360.504 581.467 359.261L580.977 357.872C580.913 357.72 580.869 357.561 580.847 357.397Z" fill="black"/>
<path d="M228.673 536.229C228.444 536.229 228.167 523.772 228.069 508.437C227.971 493.103 228.069 480.646 228.314 480.646C228.559 480.646 228.82 493.103 228.918 508.437C229.016 523.772 228.967 536.229 228.673 536.229Z" fill="black"/>
<path d="M464.419 611.724C464.397 611.496 464.397 611.266 464.419 611.037C464.419 610.547 464.55 609.877 464.648 609.043C464.877 607.245 465.187 604.662 465.595 601.376C465.808 599.741 466.036 597.861 466.298 595.834C466.559 593.806 466.755 591.6 467 589.294C467.474 584.553 468.127 579.175 468.633 573.192C468.879 570.2 469.124 567.077 469.401 563.824C469.679 560.571 469.81 557.154 470.022 553.639C470.512 546.61 470.708 539.09 471.002 531.177C471.361 515.336 471.312 497.909 470.479 479.632C469.646 461.355 468.013 444.01 466.167 428.283C465.138 420.419 464.24 412.948 463.08 405.984C462.541 402.518 462.067 399.134 461.447 395.914L459.813 386.661C458.817 380.743 457.657 375.446 456.742 370.77C456.269 368.449 455.828 366.275 455.436 364.231C455.044 362.188 454.57 360.422 454.211 358.787L452.577 351.251C452.414 350.417 452.267 349.763 452.169 349.273C452.116 349.052 452.078 348.828 452.055 348.603C452.141 348.814 452.206 349.033 452.251 349.256C452.381 349.731 452.545 350.384 452.757 351.202C453.182 352.967 453.786 355.485 454.57 358.706L455.86 364.133C456.285 366.144 456.742 368.302 457.249 370.672C458.213 375.348 459.405 380.645 460.434 386.546C460.978 389.511 461.523 392.601 462.067 395.816C462.655 399.085 463.129 402.355 463.701 405.886C464.877 412.834 465.808 420.321 466.869 428.185C468.748 443.928 470.349 461.306 471.247 479.599C472.145 497.893 472.113 515.336 471.704 531.194C471.394 539.122 471.165 546.642 470.643 553.688C470.414 557.203 470.251 560.604 469.973 563.873C469.695 567.143 469.401 570.265 469.14 573.241C468.682 579.224 467.98 584.603 467.506 589.343C467.229 591.714 466.967 593.905 466.739 595.883C466.51 597.861 466.183 599.757 465.955 601.425L464.844 609.059L464.55 611.054C464.526 611.28 464.482 611.505 464.419 611.724Z" fill="black"/>
<path d="M498.949 435.247H499.276L500.305 435.117L504.307 434.675L519.611 433.04L574.085 427.4H574.493V427.809C574.918 444.321 575.408 462.974 575.914 482.787V482.951L575.8 483.082L569.266 490.144C561.099 498.988 553.063 507.555 545.484 515.696L545.272 515.925L544.994 515.794L504.862 495.85L504.682 495.768V495.572C502.935 477.344 501.497 462.271 500.485 451.694C499.995 446.495 499.619 442.408 499.358 439.563C499.243 438.223 499.145 437.16 499.08 436.408C499.015 435.656 499.08 435.346 499.08 435.346C499.08 435.346 499.08 435.738 499.227 436.474C499.374 437.209 499.439 438.321 499.603 439.743C499.897 442.588 500.338 446.707 500.909 451.922C502.004 462.434 503.555 477.425 505.45 495.555L505.254 495.277L545.305 514.977L544.831 515.058L568.597 489.49L575.13 482.428L575.016 482.722C574.542 462.925 574.085 444.255 573.693 427.76L574.117 428.12L519.84 433.367L504.437 434.806L500.338 435.166L499.276 435.247C499.167 435.258 499.058 435.258 498.949 435.247Z" fill="black"/>
<path d="M574.591 446.772C573.663 447.02 572.719 447.2 571.765 447.312C569.936 447.606 567.29 447.966 564.007 448.391C557.473 449.241 548.342 450.205 538.281 451.17L512.555 453.688L504.715 454.489C503.767 454.62 502.813 454.691 501.856 454.701C502.78 454.434 503.726 454.253 504.682 454.162C506.512 453.851 509.158 453.491 512.441 453.066C518.974 452.216 528.105 451.252 538.15 450.304L563.876 447.786L571.667 446.952C572.635 446.812 573.613 446.752 574.591 446.772Z" fill="black"/>
<g opacity="0.3">
<path d="M590.369 511.069L593.113 544.403C599.173 515.794 608.679 485.043 607.209 455.829C605.739 426.615 602.979 398.709 586.547 372.274C593.682 392.179 596.959 413.263 596.2 434.397C594.697 468.63 590.369 511.069 590.369 511.069Z" fill="black"/>
</g>
<path d="M217.909 448.898C217.036 446.879 215.472 445.239 213.499 444.271C211.196 443.47 208.729 444.582 206.557 445.661L147.282 475.202C143.394 477.147 139.115 479.452 137.694 483.539C135.815 488.77 139.327 494.28 142.594 498.792C148.066 506.296 154.599 514.453 163.828 515.516L214.789 480.531C221.029 479.616 224.9 472.684 224.59 466.39C224.279 460.096 221.078 454.342 217.909 448.898Z" fill="#FE8900"/>
<path d="M224.345 470.265C224.345 470.265 224.182 470.494 223.823 470.837L222.189 472.357C220.784 473.665 218.71 475.512 216.113 477.752C210.902 482.215 203.503 488.133 194.879 494.1C186.255 500.067 178.268 505.151 172.322 508.568C169.349 510.203 166.916 511.609 165.217 512.492L163.257 513.505C163.033 513.639 162.791 513.738 162.538 513.799C162.538 513.799 162.734 513.62 163.159 513.342L165.053 512.214L172.012 508.045C177.876 504.497 185.863 499.43 194.389 493.413C202.915 487.397 210.363 481.545 215.623 477.196L221.879 472.03L223.512 470.624C223.769 470.46 224.05 470.339 224.345 470.265Z" fill="black"/>
<g opacity="0.3">
<path d="M504.192 290.616C497.217 313.814 487.45 340.02 479.201 362.548C472.178 356.564 462.345 348.668 455.305 342.701C461.353 354.707 468.605 366.067 476.947 376.607C477.911 377.817 479.234 379.157 480.753 378.863C482.272 378.569 482.958 377.016 483.464 375.593C487.765 364.248 492.056 352.902 496.335 341.557C502.411 325.699 508.21 307.128 504.192 290.616Z" fill="black"/>
</g>
<path d="M393.939 38.4313C415.173 32.3008 435.035 38.4313 454.619 48.5998C474.203 58.7683 490.014 75.5414 500.223 95.0772C511.003 115.659 515.756 139.658 511.869 162.562C507.981 185.465 495.029 207.045 475.657 219.78C449.18 237.24 412.69 236.324 385.412 220.156C358.135 203.988 340.217 174.169 335.447 142.813C332.181 121.201 334.843 98.3959 344.921 79.0562C354.999 59.7165 372.819 44.006 393.922 38.4313" fill="#263238"/>
<path d="M463.652 104.952C459.552 97.0395 459.731 87.672 457.494 79.0566C452.594 60.0766 435.28 46.3606 416.463 40.8677C398.97 35.7671 378.732 39.6089 359.295 48.4041C345.999 54.4365 333.896 63.6895 325.958 75.9505C320.764 84.1683 317.61 93.51 316.757 103.196C315.905 112.882 317.379 122.632 321.057 131.632L418.064 106.08C428.158 112.619 438.497 119.387 450.176 122.428C453.571 123.496 457.185 123.66 460.662 122.902C462.389 122.5 463.963 121.608 465.195 120.331C466.426 119.055 467.263 117.45 467.604 115.709C468.062 111.818 465.514 108.385 463.652 104.952Z" fill="#263238"/>
<path d="M486.748 277.113L461.757 100.832C460.647 92.4946 456.857 84.01 448.478 84.4023L360.275 75.9014C332.638 77.1765 319.669 113.502 322.12 141.016C324.831 171.652 329.372 208.942 336.412 231.028C350.573 275.462 386.328 275.919 386.328 275.919C386.328 275.919 388.5 284.747 391.228 301.259L448.396 339.301L486.748 277.113Z" fill="#FFBF9D"/>
<path d="M343.435 174.528C343.65 176.056 344.455 177.438 345.676 178.379C346.897 179.32 348.438 179.745 349.968 179.564C350.72 179.513 351.455 179.311 352.127 178.97C352.8 178.629 353.397 178.156 353.883 177.58C354.369 177.003 354.734 176.334 354.957 175.614C355.18 174.893 355.255 174.135 355.179 173.384C354.963 171.857 354.159 170.474 352.938 169.533C351.717 168.592 350.176 168.167 348.645 168.349C347.895 168.404 347.163 168.609 346.493 168.951C345.822 169.293 345.227 169.766 344.742 170.342C344.256 170.917 343.891 171.584 343.666 172.303C343.442 173.022 343.363 173.779 343.435 174.528Z" fill="#263238"/>
<path d="M333.21 159.096C334.043 159.75 337.963 155.827 344.252 154.862C350.54 153.898 355.604 156.35 356.176 155.484C356.453 155.091 355.506 153.849 353.284 152.672C350.284 151.197 346.898 150.694 343.598 151.233C340.33 151.722 337.3 153.232 334.942 155.549C333.21 157.331 332.736 158.802 333.21 159.096Z" fill="#263238"/>
<path d="M401.469 165.129C401.684 166.656 402.489 168.039 403.71 168.98C404.931 169.921 406.472 170.346 408.002 170.164C408.753 170.109 409.485 169.904 410.155 169.562C410.825 169.219 411.421 168.747 411.906 168.171C412.391 167.595 412.757 166.929 412.981 166.21C413.206 165.491 413.284 164.734 413.213 163.985C412.997 162.457 412.193 161.075 410.971 160.134C409.75 159.193 408.21 158.768 406.679 158.949C405.928 159.003 405.195 159.206 404.523 159.547C403.852 159.889 403.256 160.362 402.77 160.938C402.284 161.514 401.919 162.182 401.695 162.901C401.472 163.621 401.395 164.379 401.469 165.129Z" fill="#263238"/>
<path d="M392.844 150.775C393.677 151.429 397.614 147.506 403.886 146.541C410.158 145.577 415.238 148.029 415.81 147.163C416.087 146.77 415.14 145.528 412.902 144.351C409.902 142.873 406.516 142.37 403.216 142.912C399.954 143.404 396.93 144.914 394.576 147.228C392.877 149.01 392.436 150.498 392.844 150.775Z" fill="#263238"/>
<path d="M379.353 200.914C379.353 200.554 375.318 200.473 368.883 200.636C367.249 200.636 365.616 200.636 365.24 199.574C364.864 198.511 365.093 196.631 365.583 194.669C366.498 190.549 367.462 186.25 368.458 181.722C372.394 163.33 374.991 148.29 374.24 148.143C373.489 147.996 369.699 162.856 365.779 181.182C364.848 185.71 363.95 190.026 363.117 194.162C362.79 196.075 362.055 198.315 363.247 200.587C363.563 201.119 363.997 201.571 364.516 201.908C365.034 202.246 365.623 202.459 366.237 202.533C367.158 202.649 368.091 202.649 369.013 202.533C375.432 201.846 379.385 201.274 379.353 200.914Z" fill="#263238"/>
<path d="M386.36 275.919C407.826 272.976 428.052 264.124 444.786 250.351C444.786 250.351 430.527 286.055 389.251 289.586L386.36 275.919Z" fill="#FF9A6C"/>
<path d="M384.318 215.644C385.282 213.957 386.658 212.544 388.319 211.537C389.979 210.53 391.868 209.963 393.808 209.889C395.214 209.802 396.623 210.001 397.951 210.473C399.279 210.945 400.497 211.68 401.534 212.635C402.531 213.554 403.223 214.757 403.515 216.081C403.807 217.406 403.686 218.788 403.167 220.041C401.844 222.69 398.381 223.785 395.262 223.311C392.135 222.709 389.159 221.492 386.507 219.731C385.719 219.32 385.015 218.766 384.432 218.096C384.148 217.782 383.963 217.391 383.899 216.973C383.835 216.554 383.895 216.126 384.073 215.742" fill="#FF9A6C"/>
<path d="M398.546 202.435C397.516 202.533 398.546 209.35 393.449 215.088C388.353 220.826 381.003 221.169 381.085 222.134C381.085 222.575 382.914 223.213 385.985 222.82C389.988 222.279 393.67 220.332 396.373 217.328C398.971 214.444 400.348 210.663 400.212 206.783C399.967 203.906 398.954 202.32 398.546 202.435Z" fill="#263238"/>
<path d="M391.081 132.008C391.946 133.643 398.104 131.845 405.601 131.616C413.099 131.387 419.354 132.482 420.106 130.798C420.432 129.997 419.142 128.542 416.496 127.267C412.982 125.731 409.164 125.015 405.333 125.174C401.501 125.333 397.756 126.361 394.38 128.183C391.848 129.687 390.688 131.24 391.081 132.008Z" fill="#263238"/>
<path d="M330.776 131.338C332.099 132.596 336.199 130.455 341.377 129.588C346.555 128.722 351.177 129.082 351.912 127.447C352.255 126.646 351.341 125.322 349.217 124.275C346.388 123.044 343.255 122.685 340.221 123.244C337.186 123.803 334.387 125.255 332.181 127.414C330.564 129.163 330.188 130.798 330.776 131.338Z" fill="#263238"/>
<path d="M477.927 89.9274C466.036 64.6207 423.045 33.2815 395.702 38.8889L355.211 71.1926C357.649 78.5158 362.016 85.045 367.852 90.0916C373.687 95.1383 380.775 98.5154 388.369 99.867C396.454 101.191 405.927 100.603 411.432 106.684C416.936 112.766 415.646 123.212 420.987 129.686C428.386 138.644 444.982 135.963 450.96 145.919C453.573 150.284 453.279 155.941 455.958 160.24C459.551 165.978 476.032 171.684 482.092 168.79C488.152 165.897 486.78 155.009 488.119 149.025C490.39 138.808 488.233 133.936 486.339 128.656C481.847 116.084 483.595 101.894 477.927 89.9274Z" fill="#263238"/>
<path d="M464.011 176.687C463.504 173.303 466.199 164.704 469.466 163.609C478.188 160.846 494.392 159.113 498.018 181.788C502.918 212.849 470.822 211.361 470.626 210.478C470.43 209.596 465.775 188.409 464.011 176.687Z" fill="#FFBF9D"/>
<path d="M478.222 197.285C478.352 197.17 478.826 197.579 479.855 197.857C481.226 198.202 482.678 198.003 483.906 197.301C486.977 195.568 488.904 189.928 488.169 184.321C487.826 181.651 486.888 179.092 485.425 176.833C484.984 175.908 484.323 175.105 483.5 174.495C482.677 173.885 481.717 173.487 480.704 173.335C480.06 173.264 479.411 173.423 478.873 173.785C478.334 174.148 477.942 174.689 477.764 175.313C477.487 176.245 477.764 176.833 477.617 176.948C477.47 177.062 476.866 176.539 476.915 175.215C476.968 174.418 477.29 173.662 477.83 173.073C478.583 172.299 479.608 171.847 480.688 171.815C483.105 171.602 485.588 173.449 487.091 175.722C488.837 178.196 489.958 181.057 490.358 184.059C491.158 190.353 488.888 196.696 484.608 198.772C483.818 199.153 482.953 199.351 482.076 199.351C481.2 199.351 480.334 199.153 479.545 198.772C478.401 198.037 478.124 197.366 478.222 197.285Z" fill="#FF9A6C"/>
<path d="M363.183 60.73C361.762 73.8085 344.333 92.2 337.049 103.039C323.05 123.719 320.568 130.34 325.501 172.469C316.223 158.769 308.775 145.168 307.533 128.689C306.292 112.21 310.457 95.0609 320.519 81.9498C330.58 68.8387 346.767 60.2232 363.281 60.6973" fill="#263238"/>
<path d="M437.191 16.3617C443.724 9.13592 453.165 4.44404 462.966 2.00819C476.947 -1.45759 492.252 -0.509408 504.976 5.57206C517.7 11.6535 527.517 23.0154 530.13 36.1265C531.391 42.8448 530.798 49.7799 528.415 56.1861C526.032 62.5923 521.949 68.2271 516.606 72.4845C523.87 79.5385 532.729 84.7319 542.43 87.6228C539.784 91.5953 534.883 93.9168 529.967 94.7505C525.007 95.3636 519.989 95.3307 515.038 94.6524C518.418 99.7023 523.475 103.391 529.314 105.066C521.277 106.929 512.893 106.658 504.993 104.281C497.27 101.931 489.877 98.6072 482.991 94.3908C459.095 80.495 445.913 68.3484 429.775 46.9816C427.603 37.7777 430.608 23.6203 437.191 16.3617Z" fill="#263238"/>
<path d="M488.691 81.9007C471.165 56.267 448.837 42.5183 428.632 38.2842L488.691 81.9007Z" fill="#263238"/>
<path d="M428.632 38.2842C429.564 38.6362 430.519 38.9257 431.49 39.1506C433.336 39.6738 435.998 40.4748 439.2 41.6846C447.53 44.9353 455.365 49.3375 462.475 54.763C469.603 60.1642 476.101 66.3499 481.847 73.2035C484.02 75.8683 485.767 78.0262 486.895 79.5793C487.457 80.4025 488.085 81.1789 488.773 81.9007C488.306 81.0081 487.76 80.16 487.14 79.3667C486.094 77.7319 484.412 75.5086 482.239 72.8275C476.64 65.7691 470.188 59.4323 463.031 53.9619C455.849 48.487 447.873 44.1428 439.379 41.0797C436.806 40.1672 434.183 39.403 431.523 38.791C430.576 38.5388 429.608 38.3692 428.632 38.2842Z" fill="#455A64"/>
<path d="M509.615 103.774C509.478 103.786 509.345 103.825 509.223 103.888L508.079 104.346C507.099 104.788 505.629 105.343 503.702 105.981C498.252 107.798 492.603 108.951 486.878 109.414C478.382 110.046 469.84 109.496 461.495 107.779C451.28 105.643 441.293 102.533 431.67 98.4936C421.396 94.2759 411.693 89.9763 403.053 85.7258C395.378 82.0156 387.991 77.7369 380.953 72.9253C376.22 69.69 371.752 66.082 367.592 62.1356C366.09 60.7624 365.011 59.6017 364.325 58.866C363.982 58.5227 363.705 58.2285 363.46 57.9996C363.369 57.8941 363.264 57.8007 363.149 57.7217C363.149 57.7217 363.149 57.8525 363.394 58.065L364.195 58.9968C364.897 59.7979 365.942 61.0076 367.462 62.4299C371.508 66.5137 375.896 70.2438 380.578 73.5793C387.587 78.5166 394.977 82.8898 402.677 86.6577C411.334 90.9572 421.02 95.2894 431.327 99.5072C441.009 103.571 451.064 106.68 461.348 108.793C469.771 110.467 478.388 110.941 486.943 110.199C492.704 109.673 498.374 108.415 503.816 106.455C505.727 105.719 507.197 105.115 508.161 104.624L509.255 104.085L509.615 103.774Z" fill="#455A64"/>
<path d="M417.067 257.723L414.078 251.904C414.29 251.789 434.806 241.245 442.695 234.607C461.267 218.979 478.368 194.015 478.629 193.737L484.019 197.416C483.301 198.462 466.265 223.376 446.974 239.594C438.432 246.738 417.933 257.266 417.067 257.723Z" fill="#455A64"/>
<path d="M432.34 239.659C432.34 239.659 404.278 252.165 404.278 254.945C404.278 257.724 408.721 263.282 412.053 263.004C415.385 262.726 425.022 257.315 426.754 255.092C428.485 252.868 431.556 247.147 434.921 244.367L432.34 239.659Z" fill="#263238"/>
<path d="M483.726 155.516L477.193 155.222C477.443 136.32 474.193 117.535 467.605 99.8186C453.443 63.2808 426.182 43.6632 386.622 41.4889C383.023 41.3392 379.419 41.5859 375.874 42.2245L378.732 39.5271C380.118 38.2185 381.728 37.1717 383.486 36.4374C385.895 35.4295 388.513 35.0254 391.113 35.2603C441.013 39.5762 463.636 71.3567 473.795 97.6443C480.717 116.137 484.087 135.772 483.726 155.516Z" fill="#455A64"/>
<path d="M480.475 214.941C491.905 214.941 501.17 201.606 501.17 185.155C501.17 168.705 491.905 155.369 480.475 155.369C469.046 155.369 459.78 168.705 459.78 185.155C459.78 201.606 469.046 214.941 480.475 214.941Z" fill="#455A64"/>
<path d="M501.17 185.155C501.149 185.014 501.149 184.871 501.17 184.73C501.17 184.419 501.17 184.011 501.072 183.52C501.072 182.458 500.876 180.905 500.598 178.91C499.753 173.283 497.562 167.944 494.212 163.347C493.079 161.863 491.774 160.518 490.324 159.342C488.745 158.088 486.96 157.12 485.048 156.481C483.005 155.818 480.842 155.612 478.711 155.876C476.456 156.215 474.297 157.022 472.373 158.246C468.293 161.082 465.144 165.064 463.324 169.69C461.285 174.613 460.235 179.891 460.235 185.22C460.235 190.55 461.285 195.828 463.324 200.751C465.14 205.38 468.29 209.363 472.373 212.195C474.295 213.424 476.455 214.232 478.711 214.565C480.842 214.829 483.005 214.623 485.048 213.96C486.96 213.321 488.745 212.353 490.324 211.099C491.778 209.927 493.083 208.582 494.212 207.094C497.562 202.497 499.753 197.158 500.598 191.531C500.84 190.004 500.998 188.465 501.072 186.921C501.072 186.43 501.072 186.022 501.17 185.711C501.148 185.576 501.148 185.438 501.17 185.302C501.195 185.437 501.195 185.576 501.17 185.711V186.921C501.152 188.479 501.043 190.035 500.843 191.58C500.112 197.313 497.968 202.773 494.604 207.47C493.456 209.007 492.129 210.401 490.651 211.623C489.021 212.944 487.168 213.963 485.179 214.631C483.041 215.346 480.771 215.581 478.531 215.317C476.167 214.981 473.9 214.145 471.883 212.865C467.652 209.982 464.376 205.9 462.475 201.143C460.378 196.123 459.299 190.736 459.299 185.294C459.299 179.853 460.378 174.465 462.475 169.445C464.37 164.689 467.64 160.607 471.867 157.723C473.888 156.45 476.152 155.615 478.515 155.271C480.754 155.007 483.024 155.242 485.163 155.958C487.142 156.646 488.992 157.663 490.635 158.966C492.112 160.188 493.439 161.582 494.587 163.118C497.952 167.815 500.096 173.275 500.827 179.008C501.026 180.554 501.135 182.109 501.154 183.667V184.746C501.182 184.881 501.187 185.019 501.17 185.155Z" fill="#263238"/>
<path d="M483.661 202.435C490.941 202.435 496.842 193.945 496.842 183.472C496.842 172.998 490.941 164.508 483.661 164.508C476.381 164.508 470.479 172.998 470.479 183.472C470.479 193.945 476.381 202.435 483.661 202.435Z" fill="#455A64"/>
<path d="M496.842 183.471C496.744 183.471 496.842 182.049 496.368 179.515C495.807 175.967 494.407 172.604 492.285 169.706C490.834 167.719 488.819 166.216 486.503 165.39C485.218 164.974 483.856 164.851 482.517 165.031C481.104 165.241 479.752 165.748 478.548 166.518C475.989 168.302 474.007 170.797 472.848 173.695C470.265 179.979 470.265 187.029 472.848 193.313C474.001 196.214 475.984 198.71 478.548 200.489C479.751 201.264 481.103 201.777 482.517 201.993C483.857 202.159 485.217 202.031 486.503 201.617C488.819 200.792 490.834 199.288 492.285 197.302C494.407 194.404 495.807 191.041 496.368 187.493C496.777 184.975 496.744 183.537 496.842 183.537C496.863 183.885 496.863 184.234 496.842 184.583C496.84 185.572 496.774 186.561 496.646 187.542C496.216 191.215 494.861 194.72 492.709 197.727C491.213 199.845 489.104 201.454 486.666 202.337C485.284 202.799 483.817 202.949 482.37 202.778C480.838 202.546 479.373 201.989 478.074 201.143C475.363 199.292 473.265 196.674 472.047 193.623C470.697 190.406 470.002 186.952 470.002 183.463C470.002 179.974 470.697 176.52 472.047 173.303C473.265 170.252 475.363 167.634 478.074 165.783C479.377 164.944 480.84 164.388 482.37 164.148C483.817 163.985 485.282 164.135 486.666 164.589C489.102 165.484 491.209 167.097 492.709 169.216C494.861 172.217 496.215 175.716 496.646 179.384C496.774 180.371 496.84 181.365 496.842 182.36C496.866 182.73 496.866 183.101 496.842 183.471Z" fill="#263238"/>
<path d="M484.559 197.105C489.791 197.105 494.032 191.001 494.032 183.471C494.032 175.941 489.791 169.837 484.559 169.837C479.326 169.837 475.085 175.941 475.085 183.471C475.085 191.001 479.326 197.105 484.559 197.105Z" fill="#455A64"/>
<path d="M494.049 183.472C493.967 183.472 493.967 182.442 493.673 180.627C493.253 178.076 492.234 175.661 490.7 173.581C489.662 172.175 488.229 171.111 486.584 170.524C485.645 170.223 484.651 170.139 483.675 170.278C482.699 170.417 481.767 170.775 480.949 171.325C477.404 173.679 475.526 178.583 475.51 183.472C475.493 188.36 477.404 193.28 480.949 195.618C481.767 196.168 482.699 196.526 483.675 196.665C484.651 196.804 485.645 196.72 486.584 196.419C488.229 195.832 489.662 194.768 490.7 193.362C492.234 191.282 493.253 188.867 493.673 186.316C493.967 184.501 493.967 183.472 494.049 183.472C494.091 183.72 494.091 183.975 494.049 184.224C494.064 184.939 494.031 185.654 493.951 186.365C493.656 189.017 492.689 191.549 491.141 193.722C490.052 195.265 488.52 196.439 486.747 197.089C485.739 197.431 484.668 197.542 483.611 197.416C482.502 197.259 481.439 196.869 480.492 196.272C478.511 194.939 476.975 193.043 476.081 190.828C475.111 188.497 474.611 185.997 474.611 183.472C474.611 180.946 475.111 178.446 476.081 176.115C476.979 173.903 478.514 172.007 480.492 170.671C481.439 170.074 482.502 169.684 483.611 169.527C484.668 169.401 485.739 169.513 486.747 169.854C488.517 170.5 490.045 171.676 491.125 173.221C493.099 175.988 494.124 179.321 494.049 182.72C494.092 182.968 494.092 183.223 494.049 183.472Z" fill="#263238"/>
<defs>
<filter id="filter0_i_393_740" x="23.9971" y="8.99902" width="713.431" height="585.656" filterUnits="userSpaceOnUse" color-interpolation-filters="sRGB">
<feFlood flood-opacity="0" result="BackgroundImageFix"/>
<feBlend mode="normal" in="SourceGraphic" in2="BackgroundImageFix" result="shape"/>
<feColorMatrix in="SourceAlpha" type="matrix" values="0 0 0 0 0 0 0 0 0 0 0 0 0 0 0 0 0 0 127 0" result="hardAlpha"/>
<feOffset dy="4"/>
<feGaussianBlur stdDeviation="10"/>
<feComposite in2="hardAlpha" operator="arithmetic" k2="-1" k3="1"/>
<feColorMatrix type="matrix" values="0 0 0 0 0 0 0 0 0 0 0 0 0 0 0 0 0 0 0.25 0"/>
<feBlend mode="normal" in2="shape" result="effect1_innerShadow_393_740"/>
</filter>
<linearGradient id="paint0_linear_393_740" x1="194" y1="-73.0011" x2="535" y2="687.499" gradientUnits="userSpaceOnUse">
<stop stop-color="#D449F0"/>
<stop offset="0.664583" stop-color="#B040D2"/>
<stop offset="1" stop-color="#A73ECA"/>
</linearGradient>
</defs>
</svg>
