<svg width="554" height="588" viewBox="0 0 554 588" fill="none" xmlns="http://www.w3.org/2000/svg">
<g filter="url(#filter0_i_393_661)">
<path d="M347.816 61.0501C382.441 76.8356 415.856 95.4864 450.675 122.315C484.774 149.204 520.163 182.897 530.721 222.801C540.56 262.765 524.848 308.999 507.15 357.472C490.171 405.885 470.543 457.283 432.033 481.91C394.243 506.478 336.796 503.648 280.638 507.624C223.761 511.659 168.892 522.439 134.416 499.729C99.9393 477.019 85.8546 420.819 71.2441 375.722C56.6336 330.625 40.0018 296.064 26.5098 255.713C13.0179 215.362 2.66577 169.22 19.4614 136.028C36.9762 102.777 82.358 82.4173 123.652 65.1617C165.004 48.5926 202.268 35.128 239.121 34.1394C275.973 33.1507 312.471 45.3245 347.816 61.0501Z" fill="url(#paint0_linear_393_661)"/>
</g>
<path d="M199.763 68.1162L194.054 56.5226C197.662 46.7008 197.465 35.8846 193.503 26.2002C189.541 16.5159 182.099 8.66396 172.641 4.18807C163.183 -0.287807 152.393 -1.06389 142.392 2.0124C132.391 5.08868 123.902 11.7948 118.594 20.8124C113.287 29.83 111.545 40.5069 113.71 50.7439C115.875 60.981 121.792 70.0378 130.296 76.1339C138.801 82.23 149.278 84.9245 159.668 83.6875C170.058 82.4506 179.61 77.3717 186.445 69.4494L199.763 68.1162Z" fill="white"/>
<path d="M199.763 68.1161L198.937 68.2175L196.401 68.4929L186.431 69.5653C186.411 69.5673 186.392 69.5655 186.374 69.56C186.356 69.5545 186.338 69.5455 186.324 69.5333C186.309 69.5212 186.297 69.5063 186.287 69.4894C186.278 69.4725 186.273 69.4539 186.271 69.4349C186.265 69.4213 186.261 69.4064 186.261 69.3914C186.261 69.3764 186.265 69.3615 186.271 69.3479L186.517 69.5073C180.551 76.4893 172.455 81.3165 163.475 83.2457C161.191 83.701 158.875 83.982 156.548 84.0862C151.45 84.3307 146.351 83.633 141.506 82.0283C135.938 80.1706 130.818 77.1758 126.47 73.2341C122.121 69.2924 118.64 64.4898 116.246 59.1311C113.62 53.2117 112.414 46.7601 112.725 40.2916C112.981 33.4996 114.918 26.8772 118.362 21.0174L119.71 18.7856L121.159 16.6988L121.927 15.6699L122.782 14.6989L124.492 12.757C125.086 12.1483 125.738 11.5977 126.347 11.018C126.95 10.4239 127.589 9.86734 128.26 9.35141C129.559 8.29966 130.924 7.33158 132.347 6.45302C137.897 2.99002 144.169 0.848129 150.679 0.192518C159.128 -0.618264 167.626 1.1441 175.056 5.24838C182.486 9.35266 188.502 15.6071 192.314 23.1912C193.36 25.2838 194.242 27.4545 194.952 29.6836C195.562 31.7732 196.046 33.8977 196.401 36.0455C197.383 42.9504 196.615 49.9913 194.169 56.5226V56.4066C196.01 60.218 197.415 63.1599 198.386 65.1018C198.836 66.0727 199.198 66.8118 199.444 67.3335C199.691 67.8552 199.778 68.0726 199.778 68.0726L199.372 67.3046C199.111 66.7684 198.734 66.0293 198.241 65.0583L193.894 56.4646C193.879 56.4273 193.879 56.386 193.894 56.3487C196.241 49.8585 196.938 42.8865 195.923 36.06C195.558 33.9379 195.075 31.8381 194.474 29.7705C193.762 27.5771 192.885 25.4406 191.85 23.3796C188.052 15.9303 182.098 9.79691 174.766 5.77771C167.433 1.75851 159.06 0.0395944 150.737 0.844654C144.355 1.50721 138.209 3.61876 132.767 7.01821C131.363 7.89622 130.017 8.86438 128.738 9.91659C128.085 10.4272 127.461 10.9739 126.869 11.5542C126.26 12.1339 125.622 12.6701 125.043 13.2787L123.362 15.1627L122.521 16.1046L121.782 17.1336L120.333 19.1769L119.014 21.3652C115.734 27.0077 113.829 33.3437 113.454 39.8598C113.078 46.3758 114.244 52.8885 116.855 58.8703C119.2 64.153 122.618 68.8906 126.892 72.7824C131.165 76.6741 136.201 79.6352 141.68 81.4776C146.46 83.0835 151.495 83.7958 156.534 83.579C158.836 83.4842 161.128 83.2129 163.388 82.7674C165.491 82.3361 167.556 81.7351 169.562 80.9704C176.015 78.5427 181.769 74.5605 186.315 69.3769C186.342 69.3503 186.378 69.3355 186.416 69.3355C186.454 69.3355 186.49 69.3503 186.517 69.3769C186.534 69.4028 186.543 69.433 186.543 69.4639C186.543 69.4947 186.534 69.5249 186.517 69.5508L186.373 69.3479L196.256 68.4929L198.836 68.2755L199.763 68.1161Z" fill="#263238"/>
<path d="M135.434 44.8567L140.854 39.4513L151.288 48.7261L171.765 29.0171L176.794 34.4226L150.505 59.1458L135.434 44.8567Z" fill="#FE8900"/>
<path d="M174.141 528.481L148.954 552.349C148.954 552.349 173.837 580.739 170.692 586.608L110 551.625L147.534 509.453L174.141 528.481Z" fill="#FE8900"/>
<g opacity="0.6">
<path d="M132.245 538.277C131.567 538.102 130.848 538.179 130.222 538.494C129.596 538.808 129.105 539.339 128.84 539.987C128.607 540.668 128.651 541.412 128.963 542.06C129.275 542.708 129.829 543.208 130.506 543.451C131.227 543.643 131.993 543.561 132.657 543.221C133.321 542.881 133.835 542.307 134.1 541.61C134.233 540.888 134.087 540.142 133.692 539.524C133.297 538.905 132.681 538.46 131.97 538.277" fill="white"/>
</g>
<g opacity="0.6">
<path d="M110 551.624L113.826 547.276L170.344 582.579C170.777 583.256 171.034 584.031 171.092 584.833C171.151 585.635 171.008 586.439 170.678 587.173L110 551.624Z" fill="white"/>
</g>
<path d="M150.099 552.653C149.911 552.943 148.375 552.16 146.375 552.189C144.375 552.218 142.839 552.972 142.65 552.682C142.462 552.392 143.94 551.001 146.375 551.001C148.809 551.001 150.331 552.421 150.099 552.653Z" fill="#263238"/>
<path d="M154.708 559.131C154.592 559.45 153.027 559.131 151.273 559.768C149.52 560.406 148.375 561.479 148.157 561.29C147.94 561.102 148.708 559.348 150.911 558.638C153.114 557.928 154.925 558.856 154.708 559.131Z" fill="#263238"/>
<path d="M153.563 568.782C153.259 568.681 153.766 566.985 155.505 565.884C157.244 564.783 158.997 564.985 158.968 565.304C158.939 565.623 157.519 565.942 156.143 566.884C154.766 567.826 153.867 568.942 153.563 568.782Z" fill="#263238"/>
<path d="M153.968 545.335C153.678 545.523 152.606 544.291 150.896 543.378C149.186 542.465 147.592 542.175 147.606 541.828C147.621 541.48 149.476 541.233 151.475 542.335C153.475 543.436 154.258 545.204 153.968 545.335Z" fill="#263238"/>
<path d="M157.954 539.248C157.881 539.364 156.62 538.828 154.983 537.364C154.036 536.504 153.199 535.531 152.49 534.466C152.062 533.832 151.68 533.169 151.345 532.481C151.125 532.089 150.974 531.663 150.896 531.22C150.828 530.896 150.872 530.558 151.022 530.262C151.173 529.967 151.42 529.732 151.722 529.597C151.994 529.487 152.288 529.444 152.58 529.469C152.872 529.494 153.154 529.587 153.403 529.742C153.786 529.97 154.128 530.258 154.418 530.597C154.959 531.141 155.444 531.739 155.867 532.379C156.584 533.462 157.126 534.65 157.476 535.901C157.92 537.016 158.001 538.244 157.707 539.408C157.519 539.408 157.418 538.089 156.678 536.162C156.006 534.372 154.953 532.751 153.592 531.408C153.07 530.858 152.548 530.51 152.142 530.698C152.027 530.698 151.983 530.8 151.998 531.061C152.07 531.384 152.187 531.697 152.345 531.988C152.643 532.634 152.977 533.263 153.345 533.872C153.979 534.903 154.706 535.874 155.519 536.77C156.983 538.306 158.055 539.104 157.954 539.248Z" fill="#263238"/>
<path d="M157.316 539.422C157.283 538.221 157.638 537.042 158.331 536.06C158.953 534.937 159.762 533.927 160.722 533.075C161.303 532.568 161.935 532.122 162.606 531.741C163.019 531.439 163.505 531.252 164.014 531.198C164.523 531.145 165.037 531.227 165.504 531.437C165.763 531.61 165.968 531.853 166.093 532.138C166.219 532.423 166.261 532.738 166.214 533.046C166.147 533.486 166.02 533.915 165.837 534.321C165.528 535.051 165.102 535.727 164.577 536.321C163.718 537.331 162.623 538.113 161.388 538.596C160.852 538.873 160.265 539.04 159.663 539.088C159.06 539.135 158.455 539.061 157.881 538.871C158.954 538.586 160.009 538.238 161.041 537.828C162.088 537.297 163.007 536.546 163.736 535.625C164.163 535.094 164.509 534.503 164.765 533.872C165.069 533.191 165.142 532.524 164.866 532.423C164.587 532.354 164.295 532.347 164.013 532.402C163.73 532.457 163.462 532.573 163.229 532.741C162.608 533.065 162.021 533.448 161.475 533.886C160.544 534.63 159.724 535.504 159.041 536.48C157.823 538.205 157.49 539.48 157.316 539.422Z" fill="#263238"/>
<path d="M363.725 530.524L369.739 562.928C369.739 562.928 405.606 574.667 405.853 581.348L337.581 582.159L332.538 530.524H363.725Z" fill="#FE8900"/>
<g opacity="0.6">
<path d="M343.218 561.928C342.543 562.123 341.963 562.558 341.584 563.149C341.206 563.741 341.055 564.45 341.16 565.145C341.323 565.827 341.741 566.421 342.329 566.804C342.917 567.187 343.629 567.33 344.319 567.203C345.038 567.005 345.657 566.546 346.057 565.917C346.456 565.287 346.606 564.532 346.479 563.797C346.225 563.11 345.721 562.544 345.068 562.214C344.415 561.883 343.661 561.812 342.957 562.015" fill="white"/>
</g>
<g opacity="0.6">
<path d="M337.523 582.158L336.436 577.202L403.519 578.072C404.238 578.433 404.854 578.968 405.312 579.629C405.77 580.29 406.056 581.055 406.142 581.854L337.523 582.158Z" fill="white"/>
</g>
<path d="M370.854 562.595C370.854 562.943 369.115 563.059 367.405 564.044C365.695 565.03 364.768 566.522 364.507 566.377C364.246 566.232 364.768 564.276 366.855 563.03C368.941 561.783 370.956 562.291 370.854 562.595Z" fill="#263238"/>
<path d="M378.1 565.826C378.1 566.16 376.651 566.696 375.477 568.116C374.303 569.536 373.897 571.015 373.564 571.015C373.231 571.015 373.057 569.058 374.579 567.319C376.1 565.58 378.1 565.508 378.1 565.826Z" fill="#263238"/>
<path d="M382.071 574.709C381.767 574.782 381.332 573.057 382.26 571.217C383.187 569.376 384.81 568.666 384.941 568.956C385.071 569.246 384.057 570.217 383.332 571.739C382.608 573.26 382.448 574.695 382.071 574.709Z" fill="#263238"/>
<path d="M368.043 555.044C367.883 555.363 366.333 554.842 364.391 554.928C362.449 555.015 360.942 555.581 360.768 555.276C360.594 554.972 362.086 553.827 364.362 553.74C366.637 553.653 368.216 554.784 368.043 555.044Z" fill="#263238"/>
<path d="M206.154 294.987C205.023 295.755 202.444 334.637 206.154 343.172L196.705 413.226C196.705 413.226 171.373 453.456 166.272 459.311C161.171 465.165 128.115 522.249 128.115 522.249L165.446 554.464C165.446 554.464 230.341 469.672 240.804 454.63C257.165 431.008 276.483 342.506 276.483 342.506L278.976 298.537L206.154 294.987Z" fill="#263238"/>
<path d="M257.136 351.042C258.281 353.114 308.8 430.747 308.8 430.747C308.8 430.747 316.466 471.89 318.162 490.034C319.857 508.178 332.291 554.827 332.291 554.827L372.956 551.639C372.956 551.639 361.956 431.516 355.16 408.097C348.363 384.678 329.451 339.448 329.451 339.448L313.51 297.103L267.57 297.973L257.136 351.042Z" fill="#263238"/>
<path d="M285.903 309.87C285.857 310.292 285.775 310.709 285.656 311.116C285.439 312 285.149 313.189 284.772 314.681C283.975 317.841 282.845 322.29 281.454 327.724C278.555 338.752 274.672 353.983 270.078 370.751C265.484 387.518 261.02 402.633 257.615 413.473C255.919 418.907 254.513 423.298 253.499 426.313C252.992 427.762 252.6 428.936 252.311 429.791C252.188 430.196 252.038 430.594 251.861 430.979C251.923 430.56 252.025 430.147 252.166 429.747L253.209 426.226C254.151 423.11 255.484 418.719 257.107 413.313C260.383 402.415 264.759 387.315 269.353 370.548C273.947 353.781 277.961 338.666 280.947 327.594C282.396 322.145 283.657 317.725 284.512 314.551L285.512 311.029C285.61 310.633 285.741 310.245 285.903 309.87Z" fill="#455A64"/>
<path d="M410.779 126.577C410.779 126.577 415.04 123.2 416.431 123.316C417.822 123.432 426.402 124.664 426.402 124.664C426.402 124.664 426.952 128.272 424.474 129.46C422.526 130.243 420.457 130.68 418.359 130.75L416.301 132.199L410.779 126.577Z" fill="#FFCAAE"/>
<path d="M298.612 138.46L365.927 191.298L399.259 159.937L400.172 153.85C400.443 152.111 400.929 150.412 401.621 148.793L410.229 128.345L430.271 161.009C430.271 161.009 380.781 225.614 372.115 227.875C360.696 230.861 303.771 192.341 303.771 192.341L298.612 138.46Z" fill="#FFCAAE"/>
<path d="M409.809 146.373C411.891 148.554 413.395 151.221 414.185 154.131C414.974 157.042 415.024 160.104 414.33 163.038C414.393 160.116 414.106 157.197 413.475 154.343C412.582 151.547 411.351 148.87 409.809 146.373Z" fill="#FF9A6C"/>
<path d="M255.035 43.48L253.731 112.461C253.267 124.243 252.644 141.677 271.295 141.561C287.468 140.242 292.149 125.084 292.569 114.027C292.772 108.809 292.946 104.462 293.004 103.882C293.004 103.882 310.698 102.911 312.655 85.521C313.597 77.1157 314.104 59.6384 314.437 43.8133C314.561 35.6423 311.613 27.7227 306.175 21.6224C300.738 15.522 293.208 11.6858 285.077 10.8732L283.395 10.7138C265.165 9.96018 255.281 25.2347 255.035 43.48Z" fill="#FFCAAE"/>
<path d="M293.047 103.998C285.003 103.175 277.363 100.062 271.034 95.0278C271.034 95.0278 275.295 108.302 292.772 108.476L293.047 103.998Z" fill="#FF935C"/>
<path d="M285.207 52.7839C284.816 52.8708 283.121 51.5086 280.309 50.697C277.498 49.8855 275.179 50.0594 274.947 49.784C274.715 49.5087 275.266 49.4073 276.295 49.3203C277.763 49.2221 279.236 49.394 280.642 49.8275C282.023 50.2017 283.318 50.8416 284.454 51.7115C285.222 52.3201 285.352 52.7404 285.207 52.7839Z" fill="#263238"/>
<path d="M281.758 56.2184C281.706 56.8338 281.414 57.404 280.945 57.8054C280.475 58.2069 279.867 58.4073 279.251 58.3632C278.949 58.3577 278.651 58.2917 278.375 58.1692C278.099 58.0468 277.85 57.8702 277.644 57.65C277.437 57.4298 277.276 57.1705 277.172 56.8873C277.067 56.604 277.02 56.3027 277.034 56.001C277.093 55.3858 277.389 54.8178 277.86 54.4174C278.33 54.017 278.938 53.8157 279.555 53.8562C279.856 53.8636 280.152 53.9309 280.426 54.0543C280.701 54.1776 280.948 54.3544 281.153 54.5744C281.358 54.7944 281.517 55.0531 281.621 55.3354C281.725 55.6177 281.771 55.9179 281.758 56.2184Z" fill="#263238"/>
<path d="M291.67 70.8117C293.129 70.5153 294.618 70.3985 296.105 70.4639C296.786 70.4639 297.453 70.4639 297.554 69.9422C297.686 69.2425 297.6 68.5191 297.308 67.8699L295.859 62.4644C293.786 54.7692 292.366 48.4652 292.685 48.3927C293.004 48.3203 294.917 54.4793 297.032 62.1745C297.525 64.0585 297.989 65.87 298.482 67.5945C298.831 68.464 298.862 69.429 298.569 70.319C298.447 70.5501 298.274 70.7501 298.063 70.9034C297.852 71.0567 297.608 71.1592 297.351 71.203C296.957 71.2518 296.558 71.2518 296.163 71.203C294.655 71.2765 293.143 71.1449 291.67 70.8117Z" fill="#263238"/>
<path d="M283.903 39.2775C283.614 39.9151 281.28 39.3644 278.483 39.4369C275.687 39.5093 273.353 40.06 273.049 39.4369C272.904 39.147 273.368 38.5529 274.324 37.9877C275.597 37.3122 277.014 36.9543 278.455 36.9443C279.891 36.9109 281.314 37.2293 282.599 37.8718C283.628 38.3935 284.077 38.9731 283.903 39.2775Z" fill="#263238"/>
<path d="M311.553 45.4365C311.234 45.9583 308.974 45.3061 306.206 45.1467C303.438 44.9873 301.148 45.2771 300.873 44.7264C300.742 44.4511 301.22 43.9874 302.191 43.5961C303.503 43.1172 304.901 42.9245 306.293 43.0309C307.703 43.1171 309.081 43.4972 310.336 44.1468C311.263 44.6685 311.698 45.1902 311.553 45.4365Z" fill="#263238"/>
<path d="M255.166 56.7691C254.861 56.6097 242.847 52.1172 242.326 64.6817C241.804 77.2462 254.513 75.1739 254.557 74.8261C254.6 74.4783 255.166 56.7691 255.166 56.7691Z" fill="#FFCAAE"/>
<path d="M250.919 69.884C250.919 69.884 250.688 70.0289 250.311 70.1884C249.784 70.3916 249.2 70.3916 248.673 70.1884C247.369 69.6377 246.34 67.4929 246.384 65.2176C246.391 64.1412 246.644 63.0806 247.123 62.1164C247.257 61.7303 247.483 61.3824 247.78 61.1023C248.078 60.8222 248.439 60.6182 248.833 60.5078C249.088 60.4496 249.356 60.483 249.589 60.6022C249.822 60.7214 250.006 60.9188 250.108 61.1599C250.253 61.5222 250.108 61.7686 250.238 61.783C250.369 61.7975 250.514 61.5947 250.427 61.0729C250.374 60.7558 250.209 60.4679 249.963 60.2614C249.632 59.984 249.205 59.8486 248.775 59.8846C248.255 59.9658 247.765 60.179 247.351 60.5038C246.938 60.8285 246.615 61.2541 246.412 61.7396C245.821 62.8038 245.507 64 245.5 65.2176C245.5 67.7537 246.673 70.1739 248.398 70.7825C248.731 70.8917 249.084 70.9262 249.433 70.8836C249.781 70.8411 250.115 70.7224 250.412 70.5362C250.891 70.1884 250.963 69.913 250.919 69.884Z" fill="#FF935C"/>
<path d="M291.902 79.1447C291.902 78.8114 289.511 78.7245 287.366 76.9999C286.463 76.2335 285.664 75.3516 284.99 74.3769C284.439 73.6233 284.048 73.1596 283.932 73.232C283.816 73.3045 283.932 73.8552 284.41 74.6812C284.976 75.862 285.792 76.9055 286.801 77.739C287.829 78.5298 289.05 79.0303 290.337 79.1882C291.294 79.3766 291.902 79.2462 291.902 79.1447Z" fill="#263238"/>
<path d="M311.003 51.3925C310.713 51.6678 308.568 51.3925 305.743 52.175C302.917 52.9576 301.018 54.2619 300.67 54.1604C300.323 54.059 300.772 53.6967 301.598 53.1025C302.832 52.271 304.199 51.6582 305.641 51.291C307.015 50.901 308.45 50.7683 309.873 50.8997C310.786 51.0157 311.148 51.2765 311.003 51.3925Z" fill="#263238"/>
<path d="M307.235 57.5372C307.183 58.1526 306.891 58.7228 306.422 59.1243C305.953 59.5258 305.344 59.7262 304.728 59.682C304.427 59.6746 304.131 59.6073 303.857 59.484C303.582 59.3606 303.335 59.1838 303.13 58.9638C302.925 58.7438 302.766 58.4851 302.662 58.2028C302.558 57.9205 302.512 57.6204 302.525 57.3199C302.581 56.7086 302.872 56.1429 303.337 55.7425C303.802 55.3422 304.405 55.1387 305.018 55.1751C305.32 55.1806 305.618 55.2465 305.894 55.369C306.17 55.4915 306.418 55.668 306.625 55.8882C306.832 56.1084 306.992 56.3678 307.097 56.651C307.202 56.9342 307.249 57.2356 307.235 57.5372Z" fill="#263238"/>
<path d="M338.479 28.988C338.289 28.2834 337.831 27.6805 337.204 27.307C335.823 26.6338 334.288 26.3388 332.755 26.4519C328.963 26.2818 325.26 25.2458 321.93 23.4231C323.122 22.8769 324.222 22.1485 325.19 21.2638C326.221 20.3685 326.986 19.2065 327.4 17.9053C327.814 16.6041 327.862 15.214 327.538 13.8875C327.49 13.6355 327.383 13.3982 327.227 13.1944C327.071 12.9907 326.87 12.8261 326.64 12.7136C325.871 12.4528 325.19 13.2063 324.625 13.786C323.914 14.7044 322.967 15.4129 321.885 15.8365C320.803 16.26 319.627 16.3828 318.481 16.1917C316.892 16.0561 315.356 15.5605 313.988 14.7425C313.944 14.6858 313.895 14.6325 313.843 14.5831C313.249 13.9164 312.655 13.2933 312.075 12.6846C307.728 8.11968 303.931 4.93146 300.003 3.22142C294.207 0.728811 284.541 -0.474018 278.439 0.946189C272.338 2.3664 266.744 7.14873 265.73 13.3513C262.411 10.2935 257.296 10.1486 253.108 11.7427H253.006C248.354 13.1919 245.601 18.0756 244.108 22.742C244.021 23.0029 243.949 23.2637 243.876 23.5101C242.26 25.9384 240.083 27.9417 237.529 29.3503C237.08 29.6112 236.558 29.9155 236.485 30.4227C236.491 30.68 236.565 30.931 236.7 31.15C236.835 31.369 237.026 31.5482 237.253 31.669C238.337 32.4893 239.589 33.0585 240.92 33.3356C240.469 34.4467 239.927 35.5181 239.297 36.5383C238.746 37.4078 238.108 38.4512 238.543 39.4367C238.742 39.7811 239.042 40.0561 239.402 40.2246C239.762 40.393 240.166 40.4468 240.558 40.3787C241.337 40.2265 242.077 39.9157 242.731 39.4657L241.079 43.0452C242.748 43.3698 244.47 43.3003 246.108 42.8423C246.834 47.2397 247.802 51.5938 249.006 55.885C250.934 55.885 252.774 55.5372 253.934 56.6386C255.513 58.0878 256.151 60.8847 258.875 59.9138C260.325 59.421 261.571 56.5951 262.064 55.2184C265.355 46.018 266.625 36.2164 265.788 26.4809C267.761 24.4902 270.098 22.8963 272.672 21.7856L272.469 21.974C277.382 20.4088 282.932 18.8872 287.497 21.3073C291.047 23.1768 293.047 26.9447 295.656 30.0025C297.925 32.7896 300.751 35.0731 303.952 36.7075C307.154 38.3418 310.66 39.291 314.249 39.4947C314.785 44.7697 314.046 51.436 314.176 56.3488L318.915 48.5521C319.26 47.9946 319.574 47.4189 319.857 46.8276L319.959 46.6537C320.39 45.7095 320.874 44.7903 321.408 43.9002C321.967 44.3835 322.681 44.6492 323.42 44.6486C324.159 44.6481 324.873 44.3812 325.431 43.8971C325.989 43.4129 326.354 42.7438 326.459 42.0125C326.564 41.2811 326.401 40.5364 326.002 39.9149C325.601 39.3314 325.112 38.8132 324.553 38.3788C325.137 38.9762 325.866 39.4117 326.668 39.6429C327.471 39.874 328.32 39.8929 329.132 39.6976C329.94 39.4796 330.652 39.0002 331.158 38.3341C331.664 37.6681 331.936 36.8531 331.929 36.0166C331.882 35.4501 331.685 34.9062 331.359 34.4404C331.033 33.9745 330.59 33.6033 330.074 33.3646C332.234 33.5878 334.411 33.1694 336.335 32.1618C337.624 31.5966 338.856 30.4372 338.479 28.988Z" fill="#263238"/>
<path d="M271.164 15.4092C270.545 15.8849 269.959 16.403 269.411 16.9598C267.955 18.6057 266.956 20.6043 266.513 22.7566C266.183 24.184 265.994 25.64 265.947 27.1042C265.947 28.7128 265.947 30.4373 266.063 32.2488C266.179 34.1551 266.179 36.0667 266.063 37.9731C265.981 38.9886 265.821 39.9962 265.585 40.9874C265.406 42.0494 264.957 43.0476 264.281 43.8858C263.97 44.2177 263.578 44.463 263.143 44.5976C262.709 44.7323 262.247 44.7517 261.803 44.6539C260.949 44.4723 260.18 44.0137 259.614 43.3496C258.707 42.0158 258.167 40.4662 258.049 38.8571H258.412C257.857 40.1595 257.109 41.371 256.194 42.4511C255.321 43.4618 254.09 44.0953 252.76 44.2191C252.139 44.2564 251.52 44.1315 250.963 43.8568C250.452 43.5678 250.039 43.1341 249.774 42.6105C249.531 42.1312 249.416 41.5969 249.441 41.0599C249.479 40.553 249.695 40.0757 250.05 39.7121L250.224 39.886C249.15 41.0452 247.847 41.9681 246.398 42.596C246.018 42.7663 245.626 42.9068 245.224 43.0163C245.089 43.0659 244.947 43.0953 244.804 43.1032L245.209 42.9583C245.47 42.8569 245.862 42.7119 246.34 42.4801C247.742 41.8158 248.998 40.8799 250.035 39.7266L250.224 39.886C249.927 40.2454 249.75 40.6882 249.716 41.153C249.682 41.6178 249.794 42.0816 250.035 42.4801C250.275 42.9423 250.649 43.3212 251.108 43.567C251.606 43.8286 252.17 43.9394 252.731 43.8858C253.973 43.7517 255.118 43.1508 255.933 42.2047C256.812 41.1416 257.53 39.9551 258.064 38.6832L258.339 38.1325L258.441 38.7412C258.526 40.2939 259.027 41.7952 259.89 43.0887C260.394 43.6826 261.083 44.0907 261.846 44.2481C262.224 44.3361 262.618 44.3235 262.989 44.2116C263.36 44.0997 263.696 43.8924 263.962 43.6104C264.584 42.8223 264.998 41.8904 265.165 40.9004C265.398 39.948 265.558 38.979 265.643 38.0021C265.751 36.11 265.751 34.2133 265.643 32.3212C265.643 30.5097 265.498 28.7852 265.643 27.1476C265.696 25.6375 265.905 24.1369 266.266 22.6696C266.724 20.5018 267.761 18.4986 269.266 16.8729C269.811 16.2807 270.453 15.7857 271.164 15.4092Z" fill="#455A64"/>
<path d="M324.683 33.8281L324.538 33.9441L324.089 34.2484C323.856 34.4266 323.603 34.5773 323.336 34.6977C322.993 34.9052 322.635 35.0845 322.263 35.2339C319.894 36.2306 317.315 36.6239 314.756 36.3787C310.952 36.0285 307.331 34.5783 304.337 32.2051C300.747 29.2744 297.789 25.6459 295.642 21.539C294.439 19.3942 293.453 17.1914 292.366 15.1771C291.381 13.2001 290.117 11.3749 288.613 9.75708C287.257 8.29994 285.558 7.20413 283.671 6.56886C282.808 6.30151 281.908 6.1743 281.005 6.19207C280.179 6.21979 279.36 6.35623 278.57 6.59785C277.183 7.02192 275.903 7.73847 274.817 8.69917C274.008 9.41869 273.323 10.2656 272.788 11.2063C272.36 12.0282 272.034 12.8993 271.817 13.8003C271.817 13.8003 271.817 13.8003 271.817 13.6119L271.918 13.0757C272.074 12.4016 272.313 11.7494 272.628 11.1338C273.155 10.1616 273.841 9.28471 274.657 8.53976C275.733 7.54037 277.014 6.78851 278.411 6.33699C279.227 6.07752 280.076 5.93124 280.932 5.90224C281.864 5.8747 282.793 5.99703 283.686 6.26453C285.635 6.90271 287.394 8.01868 288.801 9.51072C290.323 11.1456 291.601 12.9904 292.598 14.9887C293.7 17.032 294.685 19.2203 295.888 21.3361C298.038 25.4162 300.997 29.0157 304.583 31.9152C307.523 34.2482 311.067 35.6959 314.8 36.0889C317.318 36.3584 319.863 36.0154 322.22 35.0889C323.067 34.7207 323.889 34.2996 324.683 33.8281Z" fill="#455A64"/>
<path d="M326.465 26.2058C326.465 26.2058 326.263 26.3797 325.828 26.6261C325.231 26.9731 324.605 27.2688 323.958 27.5101C323.019 27.8852 322.049 28.1809 321.06 28.3941C319.82 28.6475 318.558 28.7833 317.292 28.7999C316.028 28.7968 314.766 28.6755 313.524 28.4376C312.51 28.2447 311.515 27.9585 310.553 27.5825C309.905 27.3386 309.276 27.048 308.669 26.713C308.441 26.6039 308.227 26.4677 308.032 26.3073C308.032 26.3073 309.017 26.7565 310.655 27.3217C311.603 27.6366 312.571 27.8883 313.553 28.0753C315.996 28.5278 318.501 28.5278 320.944 28.0753C321.928 27.8855 322.897 27.6239 323.842 27.2927C325.494 26.6696 326.436 26.0899 326.465 26.2058Z" fill="#455A64"/>
<path d="M278.541 114.403L296.481 121.649C300.829 122.925 309.249 130.055 314.292 134.88L335.146 162.705L303.264 201.558L278.541 114.403Z" fill="#455A64"/>
<path d="M253.47 101.273L250.571 105.795C250.571 105.795 208.545 116.823 204.98 125.258C200.067 137.112 206.429 173.936 206.429 173.936L215.327 253.265L203.154 297.161L314.814 299.073C314.814 299.073 308.032 183.993 306.467 171.806C304.902 159.618 294.25 118.316 294.25 118.316L253.47 101.273Z" fill="#455A64"/>
<path d="M304.641 149.358C304.678 149.476 304.703 149.597 304.714 149.72C304.714 150.01 304.757 150.372 304.844 150.807C304.946 151.822 305.105 153.213 305.279 154.981C305.656 158.604 306.134 163.864 306.728 170.357C307.829 183.399 309.09 201.326 310.337 221.165C311.583 241.005 312.757 259.004 313.713 272.003C314.206 278.452 314.597 283.698 314.887 287.393C315.003 289.161 315.104 290.553 315.177 291.582C315.177 292.016 315.177 292.379 315.177 292.668C315.196 292.793 315.196 292.92 315.177 293.045C315.132 292.924 315.108 292.797 315.104 292.668C315.104 292.379 315.104 292.031 314.974 291.596C314.858 290.582 314.713 289.176 314.525 287.408C314.162 283.785 313.684 278.539 313.076 272.032C311.96 258.989 310.713 241.077 309.467 221.223C308.221 201.369 307.047 183.399 306.076 170.4C305.598 163.951 305.192 158.705 304.917 155.01C304.786 153.242 304.699 151.836 304.627 150.822C304.627 150.372 304.627 150.025 304.627 149.735C304.615 149.609 304.62 149.482 304.641 149.358Z" fill="#263238"/>
<path opacity="0.3" d="M208.632 277.684L219.878 281.944L226.139 262.308C226.139 262.308 236.848 270.525 244.355 269.452C251.862 268.38 262.571 262.308 262.571 262.308L286.874 266.829L313.496 275.887L311.525 243.019L241.138 239.439L219.878 241.947L208.632 277.684Z" fill="black"/>
<path d="M140.955 305.595L159.113 296.9C160.794 291.277 162.49 285.669 164.345 279.51L186.082 289.161C188.676 281.075 190.995 273.901 193.328 266.453L215.153 275.872C217.617 267.887 219.849 260.699 222.211 253.019C228.5 255.917 233.804 258.699 239.369 260.583C242.411 261.605 245.704 261.605 248.745 260.583C256.586 257.41 264.078 253.337 271.933 249.613C273.063 251.772 273.773 253.019 274.396 254.323C278.135 262.134 278.381 262.25 286.366 258.583C294.844 254.685 303.351 250.816 311.756 246.744C315.307 245.019 318.031 245.294 321.669 247.352C349.334 262.916 377.173 263.772 403.939 245.642C429.257 228.484 440.343 203.717 436.619 173.559C432.894 143.402 415.779 122.62 387.491 112.07C342.928 95.448 294.511 124.287 287.091 171.342C286.482 175.226 285.048 177.298 281.512 178.776C274.266 181.805 267.15 185.24 259.991 188.515C248.006 194.022 248.006 194.036 251.818 206.76C249.427 208.05 247.47 209.267 245.325 210.238C217.544 222.933 143.534 255.96 119.246 266.757L110.942 295.639L140.955 305.595ZM418.054 176.617C415.831 182.385 411.945 187.363 406.89 190.921C401.835 194.48 395.838 196.457 389.658 196.605C383.478 196.752 377.393 195.061 372.175 191.748C366.956 188.434 362.838 183.646 360.343 177.991C357.847 172.335 357.086 166.066 358.156 159.978C359.226 153.889 362.079 148.255 366.353 143.789C370.628 139.324 376.131 136.227 382.167 134.891C388.203 133.555 394.499 134.041 400.258 136.286C404.088 137.753 407.589 139.964 410.56 142.791C413.53 145.618 415.912 149.006 417.566 152.758C419.221 156.51 420.116 160.553 420.2 164.653C420.283 168.753 419.554 172.829 418.054 176.646V176.617Z" fill="#FE8900"/>
<path opacity="0.3" d="M255.02 227.527L129.723 281.901C129.22 282.116 128.679 282.23 128.132 282.235C127.585 282.241 127.042 282.138 126.534 281.934C126.027 281.729 125.565 281.426 125.174 281.043C124.784 280.659 124.473 280.202 124.26 279.698C123.824 278.689 123.806 277.549 124.211 276.527C124.616 275.505 125.41 274.686 126.419 274.249L251.716 219.934C252.725 219.496 253.867 219.476 254.891 219.878C255.915 220.28 256.738 221.071 257.18 222.078C257.612 223.088 257.627 224.227 257.223 225.248C256.818 226.269 256.027 227.088 255.02 227.527Z" fill="black"/>
<path d="M261.904 228.005L261.527 228.208L260.411 228.744L256.064 230.759L240.122 238.005C226.703 244.135 208.139 252.569 187.589 261.757C167.04 270.945 148.316 279.147 134.708 284.814C127.912 287.712 122.39 289.944 118.564 291.48L114.144 293.233L112.985 293.668L112.579 293.784C112.701 293.714 112.827 293.651 112.956 293.596L114.086 293.089L118.434 291.205L134.636 284.364C148.186 278.568 166.837 270.307 187.401 261.177L240.035 237.614L255.977 230.556L260.324 228.672L261.469 228.194C261.602 228.106 261.749 228.042 261.904 228.005Z" fill="#263238"/>
<path d="M275.672 255.584C275.483 255.685 269.773 244.164 262.919 229.875C256.064 215.586 250.644 203.934 250.832 203.789C251.021 203.645 256.731 215.209 263.6 229.498C270.469 243.787 275.86 255.497 275.672 255.584Z" fill="#263238"/>
<path d="M432.967 183.341C432.967 183.341 432.967 182.95 432.865 182.196C432.764 181.443 432.749 180.298 432.662 178.849C432.662 178.11 432.576 177.284 432.518 176.385C432.46 175.487 432.228 174.501 432.068 173.487C431.909 172.472 431.721 171.269 431.532 170.052C431.344 168.835 430.923 167.56 430.619 166.197C428.969 159.595 426.336 153.279 422.808 147.459C418.178 139.725 412.108 132.951 404.925 127.504L401.882 125.243C400.809 124.548 399.693 123.895 398.578 123.214C397.468 122.493 396.322 121.83 395.143 121.229L391.505 119.475L389.694 118.548L387.738 117.838L383.781 116.389C382.448 115.939 381.028 115.664 379.651 115.273C378.252 114.865 376.829 114.546 375.39 114.316C372.456 113.772 369.488 113.429 366.507 113.287C365.058 113.287 363.464 113.084 361.927 113.113L357.276 113.345C356.493 113.345 355.71 113.345 354.928 113.505L352.595 113.867C351.03 114.113 349.435 114.302 347.87 114.635C344.673 115.344 341.526 116.264 338.451 117.389L336.117 118.244C335.741 118.388 335.335 118.519 334.958 118.678L333.828 119.229L329.292 121.417C327.843 122.214 326.393 123.156 324.944 124.026C324.234 124.49 323.495 124.881 322.785 125.475L320.712 127.011C317.913 129.099 315.251 131.364 312.742 133.793L309.148 137.677L308.249 138.663L307.438 139.735L305.829 141.88L304.192 143.996L302.743 146.314L301.293 148.633L300.583 149.807C300.38 150.198 300.192 150.618 299.989 151.024L297.598 155.98C296.975 157.705 296.337 159.444 295.699 161.183C290.879 175.557 290.879 191.111 295.699 205.485L297.612 210.687L299.989 215.644L300.598 216.875L301.308 218.035L302.757 220.368L304.206 222.672L305.815 224.832L307.423 226.991L308.235 228.063L309.133 229.049L312.698 232.976C315.201 235.408 317.863 237.669 320.669 239.744L322.727 241.294C323.422 241.816 324.176 242.207 324.901 242.671C326.35 243.541 327.799 244.483 329.248 245.28L333.784 247.468L334.915 248.019C335.291 248.178 335.697 248.308 336.074 248.453L338.407 249.308C341.469 250.427 344.601 251.342 347.783 252.047C349.349 252.381 350.943 252.569 352.508 252.815L354.841 253.178C355.624 253.279 356.421 253.279 357.189 253.337L361.841 253.569C363.377 253.569 364.913 253.453 366.42 253.395C369.401 253.254 372.369 252.91 375.304 252.366C376.743 252.132 378.166 251.808 379.564 251.395C381.013 251.018 382.361 250.743 383.709 250.294L387.651 248.845L389.607 248.135L391.462 247.265L395.114 245.512C396.331 244.961 397.404 244.164 398.534 243.526C399.664 242.888 400.78 242.193 401.838 241.497L404.882 239.237C412.068 233.788 418.139 227.008 422.765 219.267C426.295 213.454 428.928 207.141 430.576 200.543C430.88 199.181 431.344 197.92 431.489 196.688C431.634 195.456 431.865 194.312 432.025 193.254C432.184 192.196 432.373 191.21 432.474 190.355C432.576 189.5 432.576 188.631 432.619 187.892C432.706 186.442 432.778 185.312 432.822 184.544C432.865 183.776 432.923 183.399 432.923 183.399C432.923 183.399 432.923 183.79 432.923 184.544C432.923 185.298 432.851 186.442 432.793 187.906C432.793 188.645 432.793 189.471 432.691 190.384C432.59 191.297 432.431 192.268 432.286 193.283C432.141 194.297 431.952 195.5 431.778 196.732C431.605 197.964 431.184 199.239 430.88 200.601C429.281 207.238 426.677 213.592 423.156 219.441C418.537 227.258 412.45 234.108 405.229 239.613L402.186 241.903C401.114 242.613 399.969 243.265 398.853 243.961C397.737 244.656 396.636 245.41 395.404 245.975L391.752 247.816L389.882 248.714L387.911 249.439L383.926 250.888C382.578 251.337 381.158 251.627 379.753 252.018C378.325 252.433 376.873 252.757 375.405 252.989C372.449 253.557 369.456 253.911 366.449 254.047C364.913 254.047 363.377 254.265 361.826 254.236L357.131 254.004C356.348 254.004 355.551 254.004 354.768 253.859L352.392 253.497C350.812 253.25 349.218 253.062 347.624 252.728C344.413 252.018 341.252 251.098 338.161 249.975L335.799 249.12L334.625 248.671L333.494 248.12L328.9 245.917C327.451 245.106 326.002 244.164 324.48 243.294C323.756 242.831 323.031 242.425 322.278 241.845L320.191 240.28C317.359 238.182 314.668 235.902 312.133 233.454L308.539 229.527L307.641 228.527L306.815 227.455L305.192 225.281L303.554 223.093L302.105 220.759L300.656 218.412L299.946 217.223L299.337 215.991C298.525 214.325 297.728 212.658 296.917 210.977C296.105 209.296 295.641 207.485 294.989 205.731C290.11 191.198 290.11 175.47 294.989 160.937C295.627 159.183 296.265 157.43 296.917 155.691C297.569 153.952 298.525 152.343 299.322 150.691C299.525 150.271 299.714 149.85 299.931 149.445L300.641 148.271L302.09 145.923L303.54 143.59L305.163 141.402L306.8 139.228L307.612 138.155L308.525 137.156L312.133 133.185C314.659 130.729 317.346 128.444 320.176 126.345L322.278 124.794C322.959 124.272 323.727 123.866 324.466 123.345C325.915 122.475 327.364 121.533 328.886 120.722L333.48 118.504L334.61 117.968L335.784 117.519L338.146 116.664C341.237 115.541 344.398 114.621 347.609 113.91C349.189 113.577 350.798 113.389 352.377 113.142L354.74 112.78C355.537 112.679 356.334 112.679 357.116 112.635L361.812 112.403C363.362 112.403 364.898 112.534 366.434 112.577C369.441 112.727 372.434 113.085 375.39 113.65C376.859 113.882 378.311 114.206 379.738 114.621C381.187 115.012 382.549 115.302 383.912 115.751L387.897 117.2L389.853 117.925L391.723 118.823L395.491 120.664C396.708 121.229 397.795 122.026 398.94 122.678C400.085 123.33 401.186 124.026 402.258 124.736L405.316 127.026C412.536 132.526 418.623 139.371 423.243 147.184C426.761 153.034 429.366 159.387 430.967 166.023C431.271 167.473 431.721 168.661 431.865 169.907C432.01 171.154 432.213 172.284 432.373 173.356C432.532 174.429 432.691 175.414 432.778 176.255C432.865 177.095 432.778 177.994 432.88 178.733C432.88 180.182 432.981 181.312 433.01 182.095C433.039 182.877 432.967 183.341 432.967 183.341Z" fill="#263238"/>
<path d="M423.301 165.4C423.264 165.214 423.24 165.025 423.228 164.835L423.112 163.183C423.112 162.806 423.112 162.4 423.04 161.951C422.967 161.502 422.881 161.024 422.808 160.502C422.647 159.283 422.4 158.078 422.069 156.894C421.243 153.628 419.929 150.506 418.171 147.633C415.878 143.815 412.872 140.474 409.316 137.793C405.019 134.517 400.009 132.302 394.694 131.33C388.605 130.188 382.323 130.688 376.492 132.779C374.942 133.346 373.432 134.014 371.97 134.779C370.494 135.594 369.076 136.509 367.724 137.518C366.346 138.544 365.034 139.658 363.797 140.851C362.578 142.117 361.445 143.463 360.406 144.88C358.257 147.775 356.584 150.994 355.45 154.415C354.321 157.95 353.72 161.632 353.667 165.342C353.714 169.053 354.315 172.736 355.45 176.269C356.581 179.697 358.255 182.921 360.406 185.819C361.446 187.232 362.579 188.573 363.797 189.834C365.034 191.032 366.346 192.15 367.724 193.181C370.36 195.194 373.294 196.783 376.419 197.891C384.003 200.643 392.307 200.674 399.911 197.977C407.514 195.281 413.943 190.025 418.098 183.109C419.858 180.237 421.172 177.115 421.997 173.849C422.327 172.67 422.574 171.469 422.736 170.255C422.808 169.719 422.91 169.241 422.967 168.806L423.04 167.589L423.156 165.922C423.167 165.732 423.192 165.543 423.228 165.357C423.244 165.545 423.244 165.734 423.228 165.922C423.228 166.342 423.228 166.893 423.228 167.589C423.228 167.965 423.228 168.371 423.228 168.82C423.228 169.27 423.098 169.762 423.025 170.27C422.893 171.498 422.665 172.714 422.344 173.907C421.568 177.22 420.282 180.393 418.533 183.312C414.376 190.39 407.872 195.788 400.15 198.57C392.428 201.353 383.976 201.343 376.26 198.543C374.671 197.987 373.126 197.314 371.637 196.529C370.128 195.704 368.675 194.78 367.29 193.761C365.879 192.715 364.538 191.577 363.275 190.355C362.033 189.065 360.876 187.695 359.812 186.254C357.605 183.299 355.892 180.005 354.74 176.501C353.568 172.896 352.952 169.133 352.914 165.342C352.959 161.552 353.575 157.791 354.74 154.184C355.892 150.68 357.605 147.386 359.812 144.431C360.872 142.991 362.029 141.626 363.275 140.344C364.539 139.119 365.886 137.981 367.304 136.938C368.684 135.906 370.137 134.976 371.652 134.156C373.146 133.383 374.691 132.71 376.275 132.141C382.218 130.014 388.622 129.513 394.824 130.692C399.736 131.639 404.391 133.618 408.48 136.499C412.57 139.379 416.001 143.096 418.547 147.401C420.294 150.322 421.58 153.494 422.359 156.807C422.679 158 422.906 159.216 423.04 160.444C423.112 160.98 423.199 161.473 423.243 161.893C423.286 162.314 423.243 162.748 423.243 163.125C423.243 163.821 423.243 164.386 423.243 164.792C423.281 164.992 423.3 165.196 423.301 165.4Z" fill="#263238"/>
<path opacity="0.3" d="M329.451 114.736V251.366C335.681 254.339 342.258 256.52 349.03 257.859L347.668 108.693C341.349 109.87 335.22 111.904 329.451 114.736Z" fill="white"/>
<path d="M319.524 246.367C319.321 246.367 319.147 218.296 319.147 183.704C319.147 149.112 319.321 121.026 319.524 121.026C319.727 121.026 319.901 149.083 319.901 183.704C319.901 218.325 319.727 246.367 319.524 246.367Z" fill="white"/>
<path d="M304.583 135.735C304.28 136.345 303.915 136.923 303.496 137.46C302.743 138.547 301.714 140.141 300.496 142.141C299.081 144.489 297.785 146.908 296.612 149.387C295.197 152.425 293.954 155.541 292.888 158.72C291.858 161.915 291.012 165.166 290.352 168.458C289.772 171.501 289.381 174.255 289.178 176.603C288.975 178.95 288.859 180.82 288.83 182.138C288.842 182.822 288.793 183.506 288.685 184.182C288.566 183.507 288.513 182.823 288.526 182.138C288.471 180.278 288.514 178.415 288.656 176.559C288.83 173.797 289.168 171.049 289.671 168.328C290.879 161.652 293.005 155.175 295.989 149.082C297.199 146.59 298.554 144.171 300.047 141.836C301.037 140.263 302.111 138.744 303.264 137.286C303.652 136.727 304.094 136.208 304.583 135.735Z" fill="white"/>
<path d="M283.294 183.298C279.123 185.706 274.827 187.893 270.425 189.848C266.129 192.036 261.722 193.999 257.223 195.732C261.394 193.319 265.69 191.128 270.092 189.167C274.387 186.982 278.794 185.023 283.294 183.298Z" fill="white"/>
<path d="M245.819 213.977L245.529 214.151L244.645 214.615L241.225 216.296C238.326 217.745 233.979 219.832 228.588 222.368C217.878 227.426 203.024 234.266 186.561 241.555C170.098 248.845 154.925 255.235 143.94 259.742C138.477 261.989 134.028 263.786 130.898 265.003L127.347 266.38L126.405 266.728C126.305 266.776 126.197 266.805 126.086 266.815L126.376 266.655L127.289 266.249L130.782 264.728L143.68 259.25C154.578 254.612 169.606 248.163 186.126 240.874C202.647 233.585 217.545 226.817 228.298 221.875L241.051 216.078L244.529 214.513L245.427 214.122C245.703 213.992 245.804 213.963 245.819 213.977Z" fill="white"/>
<path d="M389.389 127.243C389.389 127.388 386.897 126.881 382.868 127.026C377.614 127.196 372.47 128.58 367.839 131.069C363.208 133.558 359.216 137.084 356.174 141.373C353.826 144.648 352.899 147.01 352.754 146.937C352.893 146.363 353.102 145.808 353.377 145.285C354.049 143.818 354.839 142.408 355.739 141.068C358.722 136.606 362.753 132.943 367.48 130.401C372.208 127.859 377.486 126.516 382.854 126.489C384.465 126.479 386.074 126.6 387.665 126.852C388.254 126.91 388.833 127.041 389.389 127.243Z" fill="white"/>
<path d="M400.505 119.737C399.885 119.528 399.288 119.256 398.723 118.925C397.592 118.345 395.94 117.577 393.882 116.693C391.459 115.66 388.982 114.755 386.463 113.983C380.299 112.079 373.911 111.002 367.464 110.78C364.831 110.687 362.194 110.73 359.566 110.911C357.319 111.07 355.508 111.259 354.262 111.447C353.617 111.574 352.962 111.632 352.305 111.621C352.926 111.403 353.567 111.248 354.218 111.157C355.97 110.799 357.741 110.538 359.522 110.375C362.166 110.119 364.823 110.022 367.478 110.085C374 110.24 380.466 111.329 386.68 113.317C389.21 114.13 391.688 115.098 394.1 116.215C395.726 116.953 397.313 117.775 398.853 118.679C399.436 118.978 399.99 119.332 400.505 119.737Z" fill="white"/>
<path opacity="0.3" d="M225.82 225.411L230.761 200.413L236.587 200.166L239.5 167.618L233.239 193.529L226.892 192.109L220.863 224.397L225.82 225.411Z" fill="black"/>
<path d="M276.845 235.411C276.845 235.411 285.541 229.092 288.511 228.049C291.482 227.005 301.554 225.15 305.105 222.658C305.518 222.846 305.875 223.139 306.141 223.507C306.407 223.875 306.573 224.306 306.622 224.757C306.672 225.208 306.604 225.665 306.424 226.082C306.244 226.499 305.96 226.862 305.597 227.136C302.681 229.917 299.23 232.077 295.453 233.483C292.903 234.237 293.7 236.077 295.453 236.715C297.207 237.353 310.307 239.613 310.307 239.613C310.307 239.613 325.451 239.932 326.698 241.468C326.943 241.787 327.112 242.157 327.194 242.55C327.275 242.944 327.265 243.351 327.166 243.74C327.067 244.129 326.881 244.491 326.621 244.798C326.362 245.105 326.036 245.349 325.669 245.511C324.785 245.816 311.771 246.685 311.771 246.685L305.09 245.888C305.09 245.888 325.872 249.729 327.045 251.482C327.275 251.758 327.435 252.083 327.515 252.433C327.594 252.782 327.59 253.146 327.502 253.493C327.415 253.841 327.246 254.162 327.011 254.432C326.775 254.703 326.479 254.913 326.147 255.047C325.075 255.685 315.916 253.902 315.916 253.902L303.453 252.366L326.147 258.858C326.147 258.858 328.205 259.743 327.785 261.453C327.364 263.163 324.538 263.525 324.538 263.525L300.525 258.873C300.525 258.873 312.22 267.104 312.626 268.177C313.177 269.626 310.757 270.916 309.829 270.322C308.902 269.727 293.888 263.264 293.888 263.264L276.657 255.409L265.252 255.554L270.208 234.411L276.845 235.411Z" fill="#FFCAAE"/>
<path d="M225.225 256.149L274.194 255.41L273.252 235.019L220.863 224.411L228.414 185.906L192.706 177.646C188.515 195.881 185.744 214.414 184.416 233.078C184.416 233.078 181.967 248.511 199.444 252.787C207.932 254.607 216.555 255.731 225.225 256.149Z" fill="#FFCAAE"/>
<path d="M183.981 182.515L233.253 193.529C233.253 193.529 241.876 161.444 242.151 152.546C242.427 143.648 230.283 115.49 213.066 121.185C213.066 121.185 207.864 120.142 203.125 127.098C201.299 129.895 183.981 182.515 183.981 182.515Z" fill="#455A64"/>
<path d="M240.007 147.923C240.134 145.528 239.949 143.126 239.456 140.779C238.869 138.265 237.979 135.832 236.804 133.533C235.535 130.618 233.539 128.079 231.008 126.156C228.409 124.364 225.435 123.189 222.312 122.722C219.736 122.348 217.13 122.227 214.53 122.359C212.775 122.419 211.029 122.637 209.313 123.012C208.11 123.287 207.473 123.562 207.444 123.49C207.415 123.417 207.574 123.388 207.879 123.243C208.32 123.037 208.775 122.863 209.241 122.722C210.963 122.203 212.737 121.872 214.53 121.736C217.168 121.527 219.821 121.6 222.443 121.954C225.697 122.389 228.802 123.591 231.5 125.461C234.113 127.46 236.156 130.108 237.428 133.141C238.6 135.517 239.458 138.036 239.978 140.634C240.33 142.388 240.452 144.181 240.34 145.967C240.302 146.453 240.235 146.937 240.138 147.416C240.123 147.591 240.079 147.763 240.007 147.923Z" fill="#263238"/>
<path d="M240.007 163.879C240.024 164.077 240.024 164.275 240.007 164.473C239.92 164.922 239.818 165.473 239.688 166.14C239.354 167.69 238.92 169.792 238.383 172.357C237.181 177.748 235.485 185.124 233.674 193.616L233.587 193.964L233.239 193.892L223.442 191.718L195.502 185.37L187.082 183.356L184.792 182.776C184.52 182.727 184.257 182.639 184.01 182.516C184.283 182.527 184.555 182.566 184.821 182.631L187.14 183.066L195.618 184.849L223.558 190.979L233.355 193.182L232.92 193.457C234.891 184.994 236.63 177.632 237.876 172.255C238.514 169.705 239.021 167.632 239.325 166.096L239.76 164.444C239.813 164.244 239.896 164.054 240.007 163.879Z" fill="#263238"/>
<path d="M433.619 159.951C434.151 160.097 434.712 160.096 435.243 159.948C435.774 159.8 436.254 159.511 436.634 159.111C438.228 157.661 440.88 154.038 439.72 152.662C438.571 151.659 437.167 150.992 435.663 150.734C435.663 150.734 437.778 148.053 436.851 146.111C436.706 145.741 436.489 145.404 436.212 145.119C435.934 144.834 435.603 144.608 435.238 144.453C434.872 144.297 434.479 144.217 434.081 144.215C433.684 144.214 433.29 144.292 432.924 144.445C433.289 143.634 433.478 142.755 433.478 141.865C433.478 140.976 433.289 140.097 432.924 139.286C432.768 138.854 432.526 138.459 432.212 138.125C431.898 137.791 431.519 137.525 431.098 137.344L428.649 136.228C428.649 136.228 430.909 132.866 428.344 130.069C427.785 129.465 427.116 128.973 426.373 128.62C424.797 127.772 422.99 127.456 421.22 127.717C419.451 127.978 417.812 128.803 416.548 130.069C418.591 132.083 420.895 134.416 420.359 135.996C420.359 135.996 409.708 143.054 412.461 146.793C414.244 149.213 416.099 148.126 416.099 148.126C416.099 148.126 413.446 150.531 414.852 152.126C415.299 152.596 415.882 152.915 416.519 153.039C417.186 153.238 417.889 153.289 418.578 153.186C419.267 153.083 419.924 152.83 420.504 152.444L422.258 151.459C422.029 152.071 421.98 152.736 422.116 153.375C422.252 154.014 422.568 154.601 423.026 155.067L423.402 155.357C424.052 155.744 424.799 155.936 425.554 155.91C426.309 155.885 427.042 155.642 427.663 155.212L431.619 152.589L431.953 154.531C431.953 154.531 429.59 157.212 433.619 159.951Z" fill="#FFCAAE"/>
<path d="M433.619 159.951C433.115 159.692 432.66 159.349 432.271 158.937C431.77 158.445 431.405 157.83 431.213 157.154C431.098 156.681 431.091 156.188 431.191 155.712C431.291 155.235 431.497 154.787 431.793 154.401V154.546C431.677 153.937 431.547 153.299 431.416 152.604L431.721 152.734C430.996 153.241 430.271 153.763 429.373 154.328L428.069 155.198C427.61 155.544 427.095 155.808 426.547 155.98C425.938 156.175 425.291 156.217 424.662 156.103C424.033 155.99 423.441 155.724 422.939 155.328C422.378 154.898 422 154.272 421.881 153.575C421.757 152.874 421.802 152.154 422.011 151.473L422.431 151.821C421.591 152.285 420.794 152.807 419.823 153.27C418.794 153.696 417.653 153.773 416.577 153.488C415.996 153.392 415.448 153.153 414.983 152.792C414.716 152.601 414.501 152.349 414.354 152.056C414.208 151.763 414.135 151.439 414.142 151.111C414.185 150.49 414.39 149.89 414.736 149.372C415.066 148.846 415.455 148.36 415.896 147.923L416.301 148.474C415.925 148.659 415.511 148.755 415.091 148.755C414.672 148.755 414.258 148.659 413.881 148.474C413.154 148.112 412.538 147.562 412.099 146.88C411.874 146.512 411.733 146.099 411.688 145.67C411.643 145.241 411.694 144.808 411.838 144.401C412.074 143.655 412.426 142.951 412.881 142.315C414.933 139.768 417.379 137.566 420.127 135.793L419.968 135.996C420.014 135.657 419.994 135.313 419.907 134.982C419.82 134.651 419.668 134.341 419.461 134.069C419.037 133.402 418.552 132.776 418.011 132.199C417.461 131.591 416.866 131.011 416.287 130.431L416.04 130.185L416.272 129.924C417.501 128.571 419.17 127.699 420.982 127.46C422.715 127.246 424.475 127.49 426.083 128.17C426.901 128.451 427.647 128.907 428.268 129.509C428.889 130.11 429.371 130.84 429.677 131.649C429.906 132.452 429.958 133.295 429.831 134.121C429.703 134.946 429.399 135.734 428.938 136.431L428.793 135.924L431.387 137.069C431.843 137.284 432.251 137.588 432.587 137.964C432.923 138.34 433.181 138.78 433.344 139.257C433.68 140.112 433.841 141.027 433.816 141.945C433.791 142.864 433.581 143.768 433.199 144.604L432.808 144.155C433.259 143.976 433.744 143.897 434.229 143.922C434.714 143.947 435.188 144.076 435.619 144.3C436.404 144.769 436.988 145.513 437.257 146.387C437.435 147.223 437.349 148.094 437.01 148.879C436.716 149.597 436.331 150.274 435.865 150.894L435.706 150.474C436.861 150.704 437.969 151.131 438.981 151.734C439.484 152.013 439.885 152.445 440.126 152.966C440.256 153.491 440.22 154.042 440.025 154.546C439.417 156.079 438.499 157.47 437.329 158.632C436.654 159.433 435.702 159.95 434.663 160.082C434.399 160.125 434.129 160.125 433.865 160.082C433.692 160.082 433.605 159.995 433.619 159.98C433.96 160.031 434.307 160.031 434.648 159.98C435.631 159.78 436.51 159.235 437.126 158.444C438.222 157.284 439.078 155.92 439.648 154.43C439.794 154.005 439.819 153.549 439.72 153.111C439.506 152.685 439.161 152.34 438.735 152.126C437.77 151.566 436.716 151.179 435.619 150.981L435.228 150.908L435.46 150.575C435.935 150.026 436.291 149.385 436.505 148.691C436.72 147.998 436.788 147.267 436.706 146.546C436.476 145.821 435.986 145.206 435.329 144.822C434.978 144.647 434.593 144.548 434.201 144.533C433.809 144.518 433.418 144.587 433.054 144.735L432.3 145.025L432.663 144.285C433.295 142.749 433.295 141.025 432.663 139.489C432.538 139.099 432.337 138.737 432.07 138.426C431.804 138.115 431.478 137.861 431.112 137.677L428.518 136.547L428.156 136.387L428.359 136.025C428.754 135.417 429.015 134.731 429.125 134.014C429.235 133.297 429.191 132.565 428.996 131.866C428.718 131.159 428.289 130.521 427.738 129.998C427.187 129.475 426.528 129.079 425.808 128.837C424.319 128.206 422.687 127.986 421.084 128.199C419.449 128.418 417.944 129.208 416.837 130.431V129.924C417.417 130.489 418.011 131.083 418.577 131.707C419.155 132.308 419.674 132.963 420.127 133.663C420.394 134.026 420.584 134.439 420.686 134.877C420.789 135.316 420.8 135.77 420.721 136.213V136.329L420.605 136.416C417.937 138.141 415.56 140.279 413.562 142.749C412.707 143.923 411.983 145.459 412.722 146.561C413.074 147.132 413.575 147.598 414.171 147.908C414.449 148.041 414.754 148.11 415.062 148.11C415.371 148.11 415.675 148.041 415.953 147.908L417.968 146.88L416.359 148.474C415.548 149.137 414.998 150.066 414.809 151.097C414.809 152.024 415.765 152.662 416.707 152.821C417.661 153.106 418.684 153.055 419.605 152.676C420.475 152.285 421.33 151.734 422.171 151.227L422.808 150.894L422.591 151.575C422.375 152.128 422.327 152.732 422.453 153.312C422.58 153.893 422.875 154.422 423.301 154.836C423.736 155.18 424.248 155.414 424.793 155.518C425.338 155.621 425.9 155.591 426.431 155.43C427.402 155.039 428.318 154.522 429.156 153.894L431.532 152.343L431.793 152.184V152.473C431.909 153.155 432.011 153.807 432.112 154.415V154.488C431.835 154.828 431.639 155.226 431.539 155.653C431.439 156.08 431.436 156.524 431.532 156.951C431.695 157.589 432.014 158.177 432.46 158.661C433.17 159.603 433.648 159.908 433.619 159.951Z" fill="#FF9A6C"/>
<path d="M429.199 135.17C429.162 136.095 428.908 136.998 428.46 137.808C427.496 139.801 426.141 141.581 424.475 143.039C422.814 144.476 421.007 145.734 419.084 146.793C418.325 147.299 417.494 147.69 416.62 147.952C417.27 147.322 418.001 146.781 418.794 146.343C420.605 145.167 422.338 143.875 423.982 142.474C425.591 141.07 426.957 139.41 428.025 137.561C428.822 136.127 429.083 135.141 429.199 135.17Z" fill="#FF9A6C"/>
<path d="M433.01 143.735C433.126 143.735 432.909 144.648 431.865 145.488C430.822 146.329 429.431 147.271 427.822 148.387C425.952 149.789 423.936 150.985 421.808 151.952C423.519 150.361 425.394 148.958 427.402 147.764C428.996 146.691 430.503 145.764 431.547 145.112C432.086 144.71 432.577 144.248 433.01 143.735Z" fill="#FF9A6C"/>
<path d="M435.967 150.546C436.082 150.72 435.198 151.546 433.836 152.14C432.474 152.735 431.257 152.836 431.213 152.633C431.17 152.43 432.257 152.024 433.532 151.459C434.807 150.894 435.851 150.372 435.967 150.546Z" fill="#FF9A6C"/>
<path d="M435.315 152.705C435.315 152.923 434.315 153.111 433.329 153.821C432.344 154.531 431.793 155.386 431.59 155.27C431.387 155.155 431.692 154.01 432.895 153.169C434.097 152.329 435.329 152.503 435.315 152.705Z" fill="#FF9A6C"/>
<defs>
<filter id="filter0_i_393_661" x="10.752" y="34.083" width="523.006" height="483.651" filterUnits="userSpaceOnUse" color-interpolation-filters="sRGB">
<feFlood flood-opacity="0" result="BackgroundImageFix"/>
<feBlend mode="normal" in="SourceGraphic" in2="BackgroundImageFix" result="shape"/>
<feColorMatrix in="SourceAlpha" type="matrix" values="0 0 0 0 0 0 0 0 0 0 0 0 0 0 0 0 0 0 127 0" result="hardAlpha"/>
<feOffset dy="4"/>
<feGaussianBlur stdDeviation="10"/>
<feComposite in2="hardAlpha" operator="arithmetic" k2="-1" k3="1"/>
<feColorMatrix type="matrix" values="0 0 0 0 0 0 0 0 0 0 0 0 0 0 0 0 0 0 0.25 0"/>
<feBlend mode="normal" in2="shape" result="effect1_innerShadow_393_661"/>
</filter>
<linearGradient id="paint0_linear_393_661" x1="39.5354" y1="529.526" x2="471.259" y2="-22.7219" gradientUnits="userSpaceOnUse">
<stop stop-color="#7630A1"/>
<stop offset="0.328125" stop-color="#B040D2"/>
<stop offset="1" stop-color="#E64EFF"/>
</linearGradient>
</defs>
</svg>
