<svg width="21" height="21" viewBox="0 0 21 21" fill="none" xmlns="http://www.w3.org/2000/svg">
<path d="M11.9744 2.05104L11.4879 2.62188L11.9744 2.05104ZM13.1954 3.09154L12.7089 3.66238L13.1954 3.09154ZM14.288 3.54428L14.3477 2.79666L14.3477 2.79666L14.288 3.54428ZM15.887 3.67194L15.8273 4.41956L15.8273 4.41956L15.887 3.67194ZM17.6492 5.43359L18.3968 5.37437L18.3968 5.37393L17.6492 5.43359ZM17.7758 7.03271L17.0282 7.09193L17.0282 7.09237L17.7758 7.03271ZM18.2289 8.12567L17.658 8.61213L17.6581 8.61225L18.2289 8.12567ZM19.2698 9.34659L19.8406 8.86013L19.8405 8.86001L19.2698 9.34659ZM19.2693 11.838L18.6985 11.3515L18.6984 11.3517L19.2693 11.838ZM18.2293 13.059L18.8001 13.5455L18.8002 13.5453L18.2293 13.059ZM17.7761 14.1519L18.5238 14.2117L18.5238 14.2116L17.7761 14.1519ZM17.6482 15.751L16.9006 15.6912L16.9006 15.6913L17.6482 15.751ZM15.8875 17.5127L15.9471 18.2603L15.9471 18.2603L15.8875 17.5127ZM14.2879 17.6403L14.2282 16.8927L14.2282 16.8927L14.2879 17.6403ZM13.1951 18.093L12.7086 17.5222L12.7086 17.5222L13.1951 18.093ZM11.9744 19.1335L12.4609 19.7044L12.4609 19.7043L11.9744 19.1335ZM9.4822 19.1336L8.99567 19.7043L8.99574 19.7044L9.4822 19.1336ZM8.2615 18.093L8.74803 17.5223L8.74796 17.5222L8.2615 18.093ZM7.16873 17.6403L7.22839 16.8927L7.22835 16.8927L7.16873 17.6403ZM5.56912 17.5127L5.50946 18.2603L5.5095 18.2603L5.56912 17.5127ZM3.80838 15.751L4.556 15.6913L4.55599 15.6912L3.80838 15.751ZM3.68045 14.1519L2.93282 14.2115L2.93283 14.2117L3.68045 14.1519ZM3.22732 13.059L2.65638 13.5453L2.65649 13.5454L3.22732 13.059ZM2.18728 11.838L2.75822 11.3517L2.75812 11.3516L2.18728 11.838ZM2.18709 9.34658L1.6163 8.86006L1.61626 8.86011L2.18709 9.34658ZM3.22778 8.12563L3.79857 8.61215L3.79862 8.61209L3.22778 8.12563ZM3.68003 7.03273L2.93242 6.97288L2.93241 6.97307L3.68003 7.03273ZM3.80806 5.43361L4.55566 5.49347L4.55568 5.49327L3.80806 5.43361ZM5.57007 3.67189L5.62973 4.41952L5.62975 4.41952L5.57007 3.67189ZM7.16821 3.54433L7.10855 2.79671L7.10854 2.79671L7.16821 3.54433ZM8.26166 3.09157L8.74812 3.66241L8.74817 3.66237L8.26166 3.09157ZM9.48246 2.05104L8.996 1.48021L8.99596 1.48025L9.48246 2.05104ZM14.2586 9.12263C14.5515 8.82974 14.5515 8.35487 14.2586 8.06197C13.9657 7.76908 13.4909 7.76908 13.198 8.06197L14.2586 9.12263ZM9.7283 12.5923L9.19797 13.1226C9.49086 13.4155 9.96573 13.4155 10.2586 13.1226L9.7283 12.5923ZM8.25863 10.062C7.96573 9.76908 7.49086 9.76908 7.19797 10.062C6.90507 10.3549 6.90507 10.8297 7.19797 11.1226L8.25863 10.062ZM11.4879 2.62188L12.7089 3.66238L13.6818 2.52071L12.4609 1.48021L11.4879 2.62188ZM12.7089 3.66238C13.1365 4.02678 13.668 4.24719 14.2284 4.2919L14.3477 2.79666C14.1023 2.77707 13.8694 2.68059 13.6818 2.52071L12.7089 3.66238ZM14.2283 4.2919L15.8273 4.41956L15.9467 2.92432L14.3477 2.79666L14.2283 4.2919ZM15.8273 4.41956C16.4006 4.46531 16.8558 4.92054 16.9016 5.49325L18.3968 5.37393C18.2925 4.06637 17.2536 3.02861 15.9466 2.92432L15.8273 4.41956ZM16.9015 5.49281L17.0282 7.09193L18.5235 6.97349L18.3968 5.37437L16.9015 5.49281ZM17.0282 7.09237C17.0729 7.65294 17.2938 8.18469 17.658 8.61213L18.7997 7.6392C18.6397 7.45143 18.543 7.21821 18.5235 6.97305L17.0282 7.09237ZM17.6581 8.61225L18.699 9.83318L19.8405 8.86001L18.7996 7.63908L17.6581 8.61225ZM18.6989 9.83306C19.0716 10.2703 19.0715 10.9138 18.6985 11.3515L19.8402 12.3245C20.6905 11.3266 20.6914 9.85853 19.8406 8.86013L18.6989 9.83306ZM18.6984 11.3517L17.6583 12.5727L18.8002 13.5453L19.8403 12.3243L18.6984 11.3517ZM17.6584 12.5725C17.2943 12.9999 17.0733 13.5315 17.0285 14.0922L18.5238 14.2116C18.5433 13.9665 18.64 13.7333 18.8001 13.5455L17.6584 12.5725ZM17.0285 14.0921L16.9006 15.6912L18.3958 15.8108L18.5238 14.2117L17.0285 14.0921ZM16.9006 15.6913C16.8548 16.2648 16.4003 16.7194 15.8278 16.7651L15.9471 18.2603C17.2549 18.156 18.2916 17.1174 18.3958 15.8106L16.9006 15.6913ZM15.8278 16.7651L14.2282 16.8927L14.3475 18.3879L15.9471 18.2603L15.8278 16.7651ZM14.2282 16.8927C13.668 16.9374 13.1363 17.1577 12.7086 17.5222L13.6816 18.6638C13.8691 18.504 14.102 18.4075 14.3475 18.3879L14.2282 16.8927ZM12.7086 17.5222L11.4879 18.5628L12.4609 19.7043L13.6816 18.6638L12.7086 17.5222ZM11.4879 18.5627C11.0504 18.9356 10.4062 18.9356 9.96867 18.5627L8.99574 19.7044C9.9939 20.555 11.4627 20.555 12.4609 19.7044L11.4879 18.5627ZM9.96873 18.5628L8.74803 17.5223L7.77497 18.6638L8.99567 19.7043L9.96873 18.5628ZM8.74796 17.5222C8.32035 17.1578 7.78872 16.9374 7.22839 16.8927L7.10907 18.3879C7.35447 18.4075 7.58745 18.504 7.77504 18.6639L8.74796 17.5222ZM7.22835 16.8927L5.62874 16.7651L5.5095 18.2603L7.10911 18.3879L7.22835 16.8927ZM5.62878 16.7651C5.05629 16.7194 4.60177 16.2648 4.556 15.6913L3.06075 15.8107C3.16503 17.1174 4.20168 18.156 5.50946 18.2603L5.62878 16.7651ZM4.55599 15.6912L4.42806 14.0921L2.93283 14.2117L3.06076 15.8108L4.55599 15.6912ZM4.42807 14.0922C4.38332 13.5315 4.16232 12.9998 3.79816 12.5725L2.65649 13.5454C2.8166 13.7333 2.91327 13.9665 2.93282 14.2115L4.42807 14.0922ZM3.79826 12.5726L2.75822 11.3517L1.61634 12.3244L2.65638 13.5453L3.79826 12.5726ZM2.75812 11.3516C2.38519 10.914 2.38518 10.2704 2.75793 9.83304L1.61626 8.86011C0.765554 9.85836 0.765929 11.3265 1.61645 12.3245L2.75812 11.3516ZM2.75788 9.8331L3.79857 8.61215L2.65699 7.63911L1.6163 8.86006L2.75788 9.8331ZM3.79862 8.61209C4.16347 8.18396 4.38299 7.65205 4.42765 7.0924L2.93241 6.97307C2.91277 7.21916 2.81636 7.4521 2.65694 7.63917L3.79862 8.61209ZM4.42764 7.09259L4.55566 5.49347L3.06045 5.37376L2.93242 6.97288L4.42764 7.09259ZM4.55568 5.49327C4.60139 4.92043 5.05658 4.46526 5.62973 4.41952L5.51041 2.92427C4.2033 3.02858 3.16476 4.06653 3.06043 5.37395L4.55568 5.49327ZM5.62975 4.41952L7.22789 4.29195L7.10854 2.79671L5.5104 2.92427L5.62975 4.41952ZM7.22787 4.29195C7.78787 4.24727 8.32025 4.02704 8.74812 3.66241L7.7752 2.52074C7.58786 2.68038 7.35429 2.7771 7.10855 2.79671L7.22787 4.29195ZM8.74817 3.66237L9.96897 2.62184L8.99596 1.48025L7.77515 2.52077L8.74817 3.66237ZM9.96893 2.62188C10.4064 2.24904 11.0504 2.24904 11.4879 2.62188L12.4609 1.48021C11.4627 0.629599 9.99414 0.629599 8.996 1.48021L9.96893 2.62188ZM13.198 8.06197L9.19797 12.062L10.2586 13.1226L14.2586 9.12263L13.198 8.06197ZM10.2586 12.062L8.25863 10.062L7.19797 11.1226L9.19797 13.1226L10.2586 12.062Z" fill="#031E80"/>
</svg>
