<svg width="14" height="15" viewBox="0 0 14 15" fill="none" xmlns="http://www.w3.org/2000/svg">
<path d="M5.97823 8.82206C5.97823 9.23627 6.31402 9.57206 6.72823 9.57206C7.14244 9.57206 7.47823 9.23627 7.47823 8.82206H5.97823ZM7.47823 6.15539C7.47823 5.74118 7.14244 5.40539 6.72823 5.40539C6.31402 5.40539 5.97823 5.74118 5.97823 6.15539H7.47823ZM12.1979 4.68572C12.4908 4.97861 12.9657 4.97861 13.2586 4.68572C13.5515 4.39283 13.5515 3.91795 13.2586 3.62506L12.1979 4.68572ZM11.9252 2.29173C11.6323 1.99883 11.1575 1.99883 10.8646 2.29173C10.5717 2.58462 10.5717 3.05949 10.8646 3.35239L11.9252 2.29173ZM5.3949 0.738724C4.98068 0.738724 4.6449 1.07451 4.6449 1.48872C4.6449 1.90294 4.98068 2.23872 5.3949 2.23872V0.738724ZM8.06156 2.23872C8.47578 2.23872 8.81156 1.90294 8.81156 1.48872C8.81156 1.07451 8.47578 0.738724 8.06156 0.738724L8.06156 2.23872ZM6.72823 13.4054C4.19693 13.4054 2.1449 11.3534 2.1449 8.82206H0.644897C0.644897 12.1818 3.3685 14.9054 6.72823 14.9054V13.4054ZM2.1449 8.82206C2.1449 6.29075 4.19693 4.23872 6.72823 4.23872V2.73872C3.3685 2.73872 0.644897 5.46232 0.644897 8.82206H2.1449ZM6.72823 4.23872C9.25954 4.23872 11.3116 6.29075 11.3116 8.82206H12.8116C12.8116 5.46232 10.088 2.73872 6.72823 2.73872V4.23872ZM11.3116 8.82206C11.3116 11.3534 9.25954 13.4054 6.72823 13.4054V14.9054C10.088 14.9054 12.8116 12.1818 12.8116 8.82206H11.3116ZM7.47823 8.82206V6.15539H5.97823V8.82206H7.47823ZM13.2586 3.62506L11.9252 2.29173L10.8646 3.35239L12.1979 4.68572L13.2586 3.62506ZM5.3949 2.23872H8.06156L8.06156 0.738724H5.3949V2.23872Z" fill="#031E80"/>
</svg>
