<svg width="839" height="532" viewBox="0 0 839 532" fill="none" xmlns="http://www.w3.org/2000/svg">
<path fill-rule="evenodd" clip-rule="evenodd" d="M838.919 0H502.054C438.526 47.4707 348.787 84.8403 262.89 120.61L262.884 120.613C139.166 172.133 23.417 220.334 5.41892 290.616C-65.0586 565.826 570.384 554.808 838.919 500.725V0Z" fill="url(#paint0_linear_56_1132)"/>
<path fill-rule="evenodd" clip-rule="evenodd" d="M808.897 232.5L822.919 35L766.298 52.3087L558.41 181.702L265.865 203.992C197.62 124.738 87.3128 152.013 22.9188 288.116C-1.71745 513.288 462.38 500.636 641.347 466.322C732.5 448.844 788.924 401.704 808.897 345.116C825.574 297.864 801.817 324.033 808.897 232.5Z" fill="url(#paint1_linear_56_1132)"/>
<g opacity="0.2">
<path d="M425.671 276.042C423.639 276.045 421.651 275.446 419.96 274.319C418.269 273.193 416.95 271.59 416.17 269.714C415.39 267.837 415.184 265.772 415.579 263.778C415.973 261.785 416.95 259.953 418.386 258.515C419.821 257.077 421.651 256.097 423.644 255.7C425.637 255.302 427.703 255.504 429.58 256.281C431.458 257.058 433.063 258.374 434.192 260.064C435.322 261.753 435.925 263.74 435.925 265.772C435.925 268.493 434.845 271.102 432.922 273.028C431 274.954 428.392 276.038 425.671 276.042Z" fill="white"/>
<path opacity="0.5" d="M425.671 276.042C423.639 276.045 421.651 275.446 419.96 274.319C418.269 273.193 416.95 271.59 416.17 269.714C415.39 267.837 415.184 265.772 415.579 263.778C415.973 261.785 416.95 259.953 418.386 258.515C419.821 257.077 421.651 256.097 423.644 255.7C425.637 255.302 427.703 255.504 429.58 256.281C431.458 257.058 433.063 258.374 434.192 260.064C435.322 261.753 435.925 263.74 435.925 265.772C435.925 268.493 434.845 271.102 432.922 273.028C431 274.954 428.392 276.038 425.671 276.042Z" fill="white"/>
<path d="M441.676 269.652C443.818 260.574 438.196 251.477 429.117 249.334C420.039 247.192 410.942 252.814 408.799 261.893C406.656 270.971 412.279 280.068 421.358 282.211C430.436 284.354 439.533 278.731 441.676 269.652Z" stroke="white" stroke-width="3" stroke-miterlimit="10"/>
<path d="M720.339 263.654H440.231V266.988H720.339V263.654Z" fill="white"/>
<path d="M426.893 250.315H423.558V230.308C423.557 230.088 423.599 229.871 423.682 229.668C423.765 229.464 423.887 229.28 424.042 229.124L526.031 127.418C526.187 127.264 526.371 127.141 526.575 127.058C526.778 126.975 526.995 126.933 527.215 126.935H620.3V130.269H527.898L426.893 230.991V250.315Z" fill="white"/>
<path d="M668.652 418.713H543.604C543.385 418.715 543.167 418.673 542.964 418.59C542.761 418.507 542.576 418.384 542.421 418.23L424.042 299.851C423.887 299.695 423.765 299.51 423.682 299.307C423.599 299.104 423.557 298.887 423.558 298.667V281.994H426.893V297.984L544.288 415.379H668.652V418.713Z" fill="white"/>
<path d="M585.287 312.006H518.311C517.873 312.004 517.454 311.83 517.144 311.522L472.126 266.788L474.477 264.421L519.011 308.671H585.287V312.006Z" fill="white"/>
<path d="M538.953 266.638L536.585 264.288L581.452 219.12C581.772 218.816 582.195 218.643 582.636 218.637H650.312V221.971H583.336L538.953 266.638Z" fill="white"/>
<path d="M793.7 181.956H528.982C528.761 181.955 528.543 181.91 528.34 181.825C528.137 181.739 527.952 181.613 527.798 181.456L501.221 154.612L503.589 152.261L529.682 178.621H793.7V181.956Z" fill="white"/>
<path d="M557.56 129.786L555.275 127.418L598.625 84.068C598.781 83.9135 598.966 83.7912 599.169 83.7083C599.372 83.6253 599.59 83.5832 599.809 83.5845H738.679V86.9191H600.426L557.56 129.786Z" fill="white"/>
<path d="M584.67 500.412L517.411 433.169C517.115 432.871 516.942 432.472 516.927 432.052V392.037H520.262V431.368L586.954 498.061L584.67 500.412Z" fill="white"/>
<path d="M569.514 417.697L567.146 415.379L611.364 370.879C611.683 370.574 612.106 370.401 612.547 370.395H751.624V373.73H613.248L569.514 417.697Z" fill="white"/>
<path d="M725.341 465.398H650.595C650.376 465.399 650.158 465.357 649.955 465.274C649.752 465.191 649.567 465.069 649.411 464.915L602.443 417.947L604.811 415.596L651.279 462.064H725.341V465.398Z" fill="white"/>
<path d="M738.679 92.8883C742.897 92.8883 746.315 89.4694 746.315 85.252C746.315 81.0346 742.897 77.6157 738.679 77.6157C734.462 77.6157 731.043 81.0346 731.043 85.252C731.043 89.4694 734.462 92.8883 738.679 92.8883Z" fill="white"/>
<path d="M635.306 146.242C631.817 146.242 628.407 145.208 625.506 143.269C622.605 141.331 620.344 138.576 619.009 135.353C617.674 132.129 617.324 128.582 618.005 125.161C618.686 121.739 620.366 118.596 622.833 116.129C625.3 113.662 628.443 111.982 631.865 111.301C635.287 110.62 638.833 110.97 642.057 112.305C645.28 113.64 648.035 115.901 649.973 118.802C651.912 121.703 652.946 125.113 652.946 128.602C652.946 133.28 651.088 137.767 647.78 141.075C644.471 144.384 639.985 146.242 635.306 146.242ZM635.306 114.297C632.477 114.297 629.711 115.136 627.358 116.707C625.006 118.279 623.172 120.514 622.09 123.128C621.007 125.742 620.724 128.618 621.276 131.393C621.828 134.168 623.19 136.717 625.191 138.718C627.191 140.718 629.74 142.081 632.515 142.633C635.29 143.185 638.167 142.901 640.781 141.819C643.395 140.736 645.629 138.902 647.201 136.55C648.773 134.197 649.612 131.431 649.612 128.602C649.607 124.809 648.099 121.173 645.417 118.491C642.735 115.81 639.099 114.301 635.306 114.297Z" fill="white"/>
<path d="M635.306 136.238C639.524 136.238 642.942 132.819 642.942 128.602C642.942 124.384 639.524 120.965 635.306 120.965C631.089 120.965 627.67 124.384 627.67 128.602C627.67 132.819 631.089 136.238 635.306 136.238Z" fill="white"/>
<path d="M801.336 180.572C801.333 182.081 800.883 183.556 800.041 184.81C799.2 186.063 798.007 187.04 796.611 187.615C795.215 188.19 793.68 188.339 792.2 188.043C790.72 187.746 789.361 187.018 788.295 185.949C787.228 184.88 786.503 183.52 786.209 182.039C785.916 180.558 786.068 179.023 786.647 177.629C787.225 176.235 788.204 175.043 789.459 174.205C790.715 173.366 792.191 172.919 793.7 172.919C794.704 172.919 795.699 173.117 796.626 173.502C797.554 173.887 798.396 174.451 799.106 175.161C799.815 175.872 800.377 176.716 800.76 177.645C801.143 178.573 801.339 179.568 801.336 180.572Z" fill="white"/>
<path d="M650.312 227.94C654.529 227.94 657.948 224.521 657.948 220.304C657.948 216.086 654.529 212.667 650.312 212.667C646.094 212.667 642.675 216.086 642.675 220.304C642.675 224.521 646.094 227.94 650.312 227.94Z" fill="white"/>
<path d="M735.344 282.961C731.855 282.961 728.445 281.927 725.544 279.988C722.643 278.05 720.382 275.295 719.047 272.072C717.712 268.849 717.362 265.302 718.043 261.88C718.724 258.458 720.404 255.315 722.871 252.848C725.338 250.381 728.481 248.701 731.903 248.02C735.325 247.339 738.872 247.689 742.095 249.024C745.318 250.359 748.073 252.62 750.011 255.521C751.95 258.422 752.984 261.832 752.984 265.321C752.984 270 751.126 274.487 747.818 277.795C744.51 281.103 740.023 282.961 735.344 282.961ZM735.344 251.016C732.515 251.016 729.749 251.855 727.397 253.427C725.044 254.999 723.21 257.233 722.128 259.847C721.045 262.461 720.762 265.337 721.314 268.112C721.866 270.887 723.228 273.436 725.229 275.437C727.229 277.437 729.778 278.8 732.553 279.352C735.328 279.904 738.205 279.621 740.819 278.538C743.433 277.455 745.667 275.622 747.239 273.269C748.811 270.916 749.65 268.151 749.65 265.321C749.645 261.529 748.137 257.892 745.455 255.211C742.773 252.529 739.137 251.02 735.344 251.016Z" fill="white"/>
<path d="M735.344 272.957C739.562 272.957 742.981 269.538 742.981 265.321C742.981 261.103 739.562 257.685 735.344 257.685C731.127 257.685 727.708 261.103 727.708 265.321C727.708 269.538 731.127 272.957 735.344 272.957Z" fill="white"/>
<path d="M585.287 317.975C589.504 317.975 592.923 314.556 592.923 310.338C592.923 306.121 589.504 302.702 585.287 302.702C581.069 302.702 577.65 306.121 577.65 310.338C577.65 314.556 581.069 317.975 585.287 317.975Z" fill="white"/>
<path d="M751.459 379.665C755.676 379.665 759.095 376.246 759.095 372.029C759.095 367.811 755.676 364.393 751.459 364.393C747.242 364.393 743.823 367.811 743.823 372.029C743.823 376.246 747.242 379.665 751.459 379.665Z" fill="white"/>
<path d="M683.658 434.42C680.165 434.423 676.75 433.39 673.844 431.452C670.938 429.514 668.672 426.757 667.333 423.531C665.994 420.305 665.642 416.755 666.322 413.328C667.001 409.902 668.681 406.754 671.15 404.283C673.619 401.812 676.765 400.129 680.19 399.446C683.616 398.764 687.167 399.113 690.394 400.448C693.622 401.784 696.38 404.047 698.321 406.951C700.262 409.855 701.298 413.27 701.298 416.763C701.298 421.443 699.44 425.931 696.132 429.242C692.825 432.553 688.338 434.415 683.658 434.42ZM683.658 402.457C680.824 402.454 678.052 403.292 675.695 404.864C673.337 406.437 671.498 408.673 670.412 411.291C669.326 413.909 669.041 416.79 669.593 419.569C670.145 422.349 671.51 424.903 673.514 426.907C675.518 428.911 678.071 430.275 680.851 430.827C683.631 431.379 686.512 431.094 689.13 430.008C691.747 428.922 693.984 427.084 695.557 424.726C697.129 422.368 697.967 419.597 697.963 416.763C697.959 412.97 696.45 409.334 693.768 406.652C691.087 403.97 687.451 402.462 683.658 402.457Z" fill="white"/>
<path d="M691.294 416.763C691.294 418.273 690.846 419.749 690.007 421.005C689.168 422.261 687.975 423.24 686.58 423.818C685.185 424.396 683.649 424.547 682.168 424.252C680.687 423.958 679.326 423.23 678.258 422.162C677.19 421.094 676.463 419.734 676.168 418.252C675.874 416.771 676.025 415.236 676.603 413.84C677.181 412.445 678.159 411.253 679.415 410.413C680.671 409.574 682.147 409.126 683.658 409.126C685.682 409.131 687.621 409.937 689.053 411.368C690.484 412.799 691.29 414.739 691.294 416.763Z" fill="white"/>
<path d="M725.34 471.367C729.558 471.367 732.977 467.948 732.977 463.731C732.977 459.514 729.558 456.095 725.34 456.095C721.123 456.095 717.704 459.514 717.704 463.731C717.704 467.948 721.123 471.367 725.34 471.367Z" fill="white"/>
<path d="M593.49 499.294C593.493 500.809 593.047 502.29 592.208 503.551C591.369 504.811 590.175 505.795 588.777 506.377C587.379 506.959 585.84 507.112 584.354 506.819C582.869 506.526 581.503 505.798 580.431 504.729C579.36 503.659 578.629 502.295 578.332 500.81C578.036 499.325 578.186 497.786 578.765 496.386C579.344 494.987 580.325 493.791 581.584 492.949C582.842 492.107 584.323 491.658 585.837 491.658C587.862 491.663 589.804 492.468 591.238 493.899C592.671 495.329 593.481 497.269 593.49 499.294Z" fill="white"/>
<g opacity="0.4">
<path d="M538.952 266.638L536.584 264.288L581.452 219.12C581.771 218.816 582.194 218.643 582.636 218.637H650.312V221.971H583.336L538.952 266.638Z" fill="white"/>
<path d="M793.7 181.956H528.982C528.761 181.955 528.543 181.91 528.34 181.825C528.137 181.739 527.952 181.613 527.798 181.456L501.221 154.612L503.589 152.261L529.682 178.621H793.7V181.956Z" fill="white"/>
<path d="M557.559 129.786L555.275 127.418L598.625 84.068C598.781 83.9135 598.965 83.7912 599.169 83.7083C599.372 83.6253 599.589 83.5832 599.809 83.5845H738.679V86.9191H600.426L557.559 129.786Z" fill="white"/>
<path d="M569.514 417.697L567.146 415.379L611.364 370.879C611.683 370.574 612.106 370.401 612.547 370.395H751.624V373.73H613.248L569.514 417.697Z" fill="white"/>
<path d="M725.341 465.398H650.595C650.376 465.399 650.158 465.357 649.955 465.274C649.752 465.191 649.567 465.069 649.411 464.915L602.443 417.947L604.811 415.596L651.279 462.064H725.341V465.398Z" fill="white"/>
<path d="M738.679 92.8883C742.896 92.8883 746.315 89.4694 746.315 85.252C746.315 81.0346 742.896 77.6157 738.679 77.6157C734.461 77.6157 731.042 81.0346 731.042 85.252C731.042 89.4694 734.461 92.8883 738.679 92.8883Z" fill="white"/>
<path d="M635.306 146.242C631.817 146.242 628.406 145.208 625.505 143.269C622.604 141.331 620.343 138.576 619.008 135.353C617.673 132.129 617.324 128.582 618.004 125.161C618.685 121.739 620.365 118.596 622.832 116.129C625.299 113.662 628.442 111.982 631.864 111.301C635.286 110.62 638.833 110.97 642.056 112.305C645.28 113.64 648.035 115.901 649.973 118.802C651.911 121.703 652.946 125.113 652.946 128.602C652.946 133.28 651.087 137.767 647.779 141.075C644.471 144.384 639.984 146.242 635.306 146.242ZM635.306 114.297C632.476 114.297 629.71 115.136 627.358 116.707C625.005 118.279 623.172 120.514 622.089 123.128C621.006 125.742 620.723 128.618 621.275 131.393C621.827 134.168 623.189 136.717 625.19 138.718C627.191 140.718 629.74 142.081 632.515 142.633C635.29 143.185 638.166 142.901 640.78 141.819C643.394 140.736 645.628 138.902 647.2 136.55C648.772 134.197 649.611 131.431 649.611 128.602C649.607 124.809 648.098 121.173 645.416 118.491C642.734 115.81 639.098 114.301 635.306 114.297Z" fill="white"/>
<path d="M801.336 180.572C801.333 182.081 800.882 183.556 800.041 184.81C799.2 186.063 798.006 187.04 796.61 187.615C795.215 188.19 793.68 188.339 792.2 188.043C790.72 187.746 789.36 187.018 788.294 185.949C787.228 184.88 786.502 183.52 786.209 182.039C785.916 180.558 786.068 179.023 786.646 177.629C787.225 176.235 788.204 175.043 789.459 174.205C790.714 173.366 792.19 172.919 793.7 172.919C794.704 172.919 795.698 173.117 796.626 173.502C797.553 173.887 798.396 174.451 799.105 175.161C799.815 175.872 800.377 176.716 800.76 177.645C801.142 178.573 801.338 179.568 801.336 180.572Z" fill="white"/>
<path d="M650.312 227.94C654.529 227.94 657.948 224.521 657.948 220.304C657.948 216.086 654.529 212.667 650.312 212.667C646.094 212.667 642.675 216.086 642.675 220.304C642.675 224.521 646.094 227.94 650.312 227.94Z" fill="white"/>
<path d="M735.344 282.961C731.855 282.961 728.445 281.927 725.544 279.988C722.643 278.05 720.382 275.295 719.047 272.072C717.712 268.849 717.362 265.302 718.043 261.88C718.724 258.458 720.404 255.315 722.871 252.848C725.338 250.381 728.481 248.701 731.903 248.02C735.325 247.339 738.872 247.689 742.095 249.024C745.318 250.359 748.073 252.62 750.011 255.521C751.95 258.422 752.984 261.832 752.984 265.321C752.984 270 751.126 274.487 747.818 277.795C744.51 281.103 740.023 282.961 735.344 282.961ZM735.344 251.016C732.515 251.016 729.749 251.855 727.397 253.427C725.044 254.999 723.21 257.233 722.128 259.847C721.045 262.461 720.762 265.337 721.314 268.112C721.866 270.887 723.228 273.436 725.229 275.437C727.229 277.437 729.778 278.8 732.553 279.352C735.328 279.904 738.205 279.621 740.819 278.538C743.433 277.455 745.667 275.622 747.239 273.269C748.811 270.916 749.65 268.151 749.65 265.321C749.645 261.529 748.137 257.892 745.455 255.211C742.773 252.529 739.137 251.02 735.344 251.016Z" fill="white"/>
<path d="M585.287 317.975C589.504 317.975 592.923 314.556 592.923 310.338C592.923 306.121 589.504 302.702 585.287 302.702C581.069 302.702 577.65 306.121 577.65 310.338C577.65 314.556 581.069 317.975 585.287 317.975Z" fill="white"/>
<path d="M751.459 379.665C755.676 379.665 759.095 376.246 759.095 372.029C759.095 367.811 755.676 364.393 751.459 364.393C747.242 364.393 743.823 367.811 743.823 372.029C743.823 376.246 747.242 379.665 751.459 379.665Z" fill="white"/>
<path d="M683.658 434.42C680.165 434.423 676.75 433.39 673.844 431.452C670.938 429.514 668.672 426.757 667.333 423.531C665.994 420.305 665.642 416.755 666.322 413.328C667.001 409.902 668.681 406.754 671.15 404.283C673.619 401.812 676.765 400.129 680.19 399.446C683.616 398.764 687.167 399.113 690.394 400.448C693.622 401.784 696.38 404.047 698.321 406.951C700.262 409.855 701.298 413.27 701.298 416.763C701.298 421.443 699.44 425.931 696.132 429.242C692.825 432.553 688.338 434.415 683.658 434.42ZM683.658 402.457C680.824 402.454 678.052 403.292 675.695 404.864C673.337 406.437 671.498 408.673 670.412 411.291C669.326 413.909 669.041 416.79 669.593 419.569C670.145 422.349 671.51 424.903 673.514 426.907C675.518 428.911 678.071 430.275 680.851 430.827C683.631 431.379 686.512 431.094 689.13 430.008C691.747 428.922 693.984 427.084 695.557 424.726C697.129 422.368 697.967 419.597 697.963 416.763C697.959 412.97 696.45 409.334 693.768 406.652C691.087 403.97 687.451 402.462 683.658 402.457Z" fill="white"/>
<path d="M725.34 471.367C729.558 471.367 732.977 467.948 732.977 463.731C732.977 459.514 729.558 456.095 725.34 456.095C721.123 456.095 717.704 459.514 717.704 463.731C717.704 467.948 721.123 471.367 725.34 471.367Z" fill="white"/>
<path d="M593.489 499.294C593.493 500.809 593.047 502.29 592.208 503.551C591.369 504.811 590.175 505.795 588.777 506.377C587.379 506.959 585.839 507.112 584.354 506.819C582.868 506.526 581.503 505.798 580.431 504.729C579.359 503.659 578.629 502.295 578.332 500.81C578.035 499.325 578.186 497.786 578.765 496.386C579.343 494.987 580.324 493.791 581.583 492.949C582.842 492.107 584.322 491.658 585.836 491.658C587.862 491.663 589.803 492.468 591.237 493.899C592.671 495.329 593.481 497.269 593.489 499.294Z" fill="white"/>
<path d="M425.225 284.745C421.393 284.739 417.648 283.597 414.465 281.464C411.281 279.33 408.801 276.302 407.337 272.76C405.874 269.218 405.493 265.322 406.242 261.564C406.991 257.805 408.837 254.353 411.547 251.643C414.257 248.933 417.709 247.087 421.467 246.338C425.226 245.589 429.122 245.97 432.664 247.434C436.205 248.897 439.234 251.377 441.367 254.561C443.501 257.745 444.643 261.489 444.649 265.321C444.654 267.873 444.154 270.401 443.18 272.76C442.205 275.118 440.774 277.261 438.97 279.066C437.165 280.871 435.022 282.301 432.664 283.276C430.305 284.25 427.777 284.75 425.225 284.745ZM425.225 250.966C422.379 250.966 419.597 251.81 417.231 253.391C414.865 254.972 413.021 257.219 411.932 259.848C410.842 262.477 410.558 265.371 411.113 268.162C411.668 270.953 413.038 273.517 415.051 275.529C417.063 277.541 419.627 278.912 422.418 279.467C425.209 280.022 428.102 279.737 430.731 278.648C433.361 277.559 435.608 275.715 437.189 273.349C438.77 270.982 439.614 268.2 439.614 265.355C439.61 261.54 438.092 257.883 435.395 255.185C432.697 252.488 429.04 250.97 425.225 250.966Z" fill="white"/>
</g>
</g>
<g opacity="0.6" filter="url(#filter0_f_56_1132)">
<path d="M504.641 186.017H86.6182C78.8285 186.017 72.5137 192.332 72.5137 200.122V500.696C72.5137 508.486 78.8285 514.8 86.6182 514.8H504.641C512.43 514.8 518.745 508.486 518.745 500.696V200.122C518.745 192.332 512.43 186.017 504.641 186.017Z" fill="white"/>
</g>
<path fill-rule="evenodd" clip-rule="evenodd" d="M86.6184 161.616H504.641C516.38 161.616 525.896 171.132 525.896 182.871V500.696C525.896 512.435 516.38 521.951 504.641 521.951H86.6184C74.8795 521.951 65.3633 512.435 65.3633 500.696V182.871C65.3633 171.132 74.8795 161.616 86.6184 161.616ZM86.6183 186.017H504.641C512.43 186.017 518.745 192.332 518.745 200.121V500.696C518.745 508.485 512.43 514.8 504.641 514.8H86.6183C78.8286 514.8 72.5138 508.485 72.5138 500.696V200.121C72.5138 192.332 78.8286 186.017 86.6183 186.017Z" fill="#ABAAAA"/>
<path opacity="0.3" d="M98.2024 167.354H93.197C91.331 167.354 89.8184 168.867 89.8184 170.733V175.738C89.8184 177.604 91.331 179.117 93.197 179.117H98.2024C100.068 179.117 101.581 177.604 101.581 175.738V170.733C101.581 168.867 100.068 167.354 98.2024 167.354Z" fill="white"/>
<path opacity="0.5" d="M117.276 167.354H112.271C110.405 167.354 108.892 168.867 108.892 170.733V175.738C108.892 177.604 110.405 179.117 112.271 179.117H117.276C119.142 179.117 120.655 177.604 120.655 175.738V170.733C120.655 168.867 119.142 167.354 117.276 167.354Z" fill="white"/>
<path opacity="0.7" d="M136.368 167.354H131.363C129.497 167.354 127.984 168.867 127.984 170.733V175.738C127.984 177.604 129.497 179.117 131.363 179.117H136.368C138.234 179.117 139.747 177.604 139.747 175.738V170.733C139.747 168.867 138.234 167.354 136.368 167.354Z" fill="white"/>
<path d="M156.605 259.578L154.62 256.003C154.297 255.414 153.821 254.922 153.242 254.579C152.664 254.236 152.004 254.055 151.331 254.055H121.585C120.589 254.055 119.634 254.45 118.93 255.154C118.226 255.858 117.831 256.813 117.831 257.809V314.656C117.831 315.694 118.243 316.69 118.977 317.424C119.711 318.158 120.707 318.571 121.746 318.571H189.318C190.357 318.571 191.352 318.158 192.087 317.424C192.821 316.69 193.233 315.694 193.233 314.656V265.013C193.233 264.017 192.838 263.062 192.134 262.358C191.43 261.654 190.475 261.259 189.479 261.259H159.465C158.881 261.261 158.308 261.106 157.804 260.811C157.301 260.515 156.887 260.089 156.605 259.578Z" fill="url(#paint2_linear_56_1132)"/>
<path opacity="0.3" d="M156.605 259.578L154.62 256.003C154.297 255.414 153.821 254.922 153.242 254.579C152.664 254.236 152.004 254.055 151.331 254.055H121.585C120.589 254.055 119.634 254.45 118.93 255.154C118.226 255.858 117.831 256.813 117.831 257.809V314.656C117.831 315.694 118.243 316.69 118.977 317.424C119.711 318.158 120.707 318.571 121.746 318.571H189.318C190.357 318.571 191.352 318.158 192.087 317.424C192.821 316.69 193.233 315.694 193.233 314.656V265.013C193.233 264.017 192.838 263.062 192.134 262.358C191.43 261.654 190.475 261.259 189.479 261.259H159.465C158.881 261.261 158.308 261.106 157.804 260.811C157.301 260.515 156.887 260.089 156.605 259.578Z" fill="white"/>
<path d="M183.83 263.529H126.179V306.629H183.83V263.529Z" fill="#263238"/>
<path opacity="0.8" d="M183.83 263.529H126.179V306.629H183.83V263.529Z" fill="white"/>
<path d="M187.996 267.855H122.014V317.194H187.996V267.855Z" fill="#263238"/>
<path opacity="0.9" d="M187.996 267.855H122.014V317.194H187.996V267.855Z" fill="white"/>
<path d="M199.83 269.089H160.305C159.498 269.05 158.693 269.179 157.939 269.469C157.185 269.758 156.499 270.201 155.925 270.769L153.351 273.88C152.882 274.374 152.312 274.761 151.679 275.014C151.047 275.267 150.367 275.38 149.687 275.345H111.073C108.392 275.345 106.604 276.793 107.069 278.581C110.841 293.222 112.736 300.533 116.508 315.156C116.847 316.143 117.486 316.999 118.335 317.605C119.184 318.21 120.202 318.536 121.245 318.535H188.246C189.289 318.536 190.307 318.21 191.156 317.605C192.005 316.999 192.644 316.143 192.983 315.156L204.031 272.342C204.478 270.555 202.619 269.089 199.83 269.089Z" fill="url(#paint3_linear_56_1132)"/>
<g opacity="0.6">
<path d="M199.83 269.089H160.305C159.498 269.05 158.693 269.179 157.939 269.469C157.185 269.758 156.499 270.201 155.925 270.769L153.351 273.88C152.882 274.374 152.312 274.761 151.679 275.014C151.047 275.267 150.367 275.38 149.687 275.345H111.073C108.392 275.345 106.604 276.793 107.069 278.581C110.841 293.222 112.736 300.533 116.508 315.156C116.847 316.143 117.486 316.999 118.335 317.605C119.184 318.21 120.202 318.536 121.245 318.535H188.246C189.289 318.536 190.307 318.21 191.156 317.605C192.005 316.999 192.644 316.143 192.983 315.156L204.031 272.342C204.478 270.555 202.619 269.089 199.83 269.089Z" fill="white"/>
</g>
<path d="M119.386 339.951C118.751 340.031 118.107 339.976 117.496 339.788C116.885 339.6 116.321 339.284 115.841 338.862C115.361 338.439 114.977 337.919 114.714 337.336C114.451 336.753 114.314 336.121 114.314 335.482C114.314 334.843 114.451 334.21 114.714 333.628C114.977 333.045 115.361 332.525 115.841 332.102C116.321 331.679 116.885 331.364 117.496 331.176C118.107 330.988 118.751 330.932 119.386 331.013H191.481C192.116 330.932 192.76 330.988 193.371 331.176C193.982 331.364 194.547 331.679 195.026 332.102C195.506 332.525 195.89 333.045 196.153 333.628C196.417 334.21 196.553 334.843 196.553 335.482C196.553 336.121 196.417 336.753 196.153 337.336C195.89 337.919 195.506 338.439 195.026 338.862C194.547 339.284 193.982 339.6 193.371 339.788C192.76 339.976 192.116 340.031 191.481 339.951H119.386Z" fill="#263238"/>
<path opacity="0.3" d="M119.386 339.951C118.751 340.031 118.107 339.976 117.496 339.788C116.885 339.6 116.321 339.284 115.841 338.862C115.361 338.439 114.977 337.919 114.714 337.336C114.451 336.753 114.314 336.121 114.314 335.482C114.314 334.843 114.451 334.21 114.714 333.628C114.977 333.045 115.361 332.525 115.841 332.102C116.321 331.679 116.885 331.364 117.496 331.176C118.107 330.988 118.751 330.932 119.386 331.013H191.481C192.116 330.932 192.76 330.988 193.371 331.176C193.982 331.364 194.547 331.679 195.026 332.102C195.506 332.525 195.89 333.045 196.153 333.628C196.417 334.21 196.553 334.843 196.553 335.482C196.553 336.121 196.417 336.753 196.153 337.336C195.89 337.919 195.506 338.439 195.026 338.862C194.547 339.284 193.982 339.6 193.371 339.788C192.76 339.976 192.116 340.031 191.481 339.951H119.386Z" fill="white"/>
<path d="M290.999 259.578L289.015 256.003C288.69 255.415 288.214 254.924 287.636 254.581C287.057 254.239 286.398 254.057 285.726 254.055H256.051C255.055 254.055 254.1 254.45 253.396 255.154C252.692 255.858 252.297 256.813 252.297 257.809V314.656C252.295 315.169 252.394 315.678 252.588 316.153C252.783 316.627 253.07 317.059 253.432 317.423C253.794 317.787 254.225 318.075 254.698 318.272C255.172 318.469 255.681 318.571 256.194 318.571H323.785C324.298 318.571 324.806 318.469 325.28 318.272C325.754 318.075 326.185 317.787 326.547 317.423C326.909 317.059 327.196 316.627 327.39 316.153C327.585 315.678 327.684 315.169 327.682 314.656V265.013C327.682 264.017 327.286 263.062 326.582 262.358C325.878 261.654 324.923 261.259 323.928 261.259H293.913C293.321 261.271 292.736 261.121 292.222 260.824C291.709 260.528 291.286 260.097 290.999 259.578Z" fill="url(#paint4_linear_56_1132)"/>
<path opacity="0.3" d="M290.999 259.578L289.015 256.003C288.69 255.415 288.214 254.924 287.636 254.581C287.057 254.239 286.398 254.057 285.726 254.055H256.051C255.055 254.055 254.1 254.45 253.396 255.154C252.692 255.858 252.297 256.813 252.297 257.809V314.656C252.295 315.169 252.394 315.678 252.588 316.153C252.783 316.627 253.07 317.059 253.432 317.423C253.794 317.787 254.225 318.075 254.698 318.272C255.172 318.469 255.681 318.571 256.194 318.571H323.785C324.298 318.571 324.806 318.469 325.28 318.272C325.754 318.075 326.185 317.787 326.547 317.423C326.909 317.059 327.196 316.627 327.39 316.153C327.585 315.678 327.684 315.169 327.682 314.656V265.013C327.682 264.017 327.286 263.062 326.582 262.358C325.878 261.654 324.923 261.259 323.928 261.259H293.913C293.321 261.271 292.736 261.121 292.222 260.824C291.709 260.528 291.286 260.097 290.999 259.578Z" fill="white"/>
<path d="M318.297 263.529H260.646V306.629H318.297V263.529Z" fill="#263238"/>
<path opacity="0.8" d="M318.297 263.529H260.646V306.629H318.297V263.529Z" fill="white"/>
<path d="M322.462 267.855H256.48V317.194H322.462V267.855Z" fill="#263238"/>
<path opacity="0.9" d="M322.462 267.855H256.48V317.194H322.462V267.855Z" fill="white"/>
<path d="M334.314 269.089H294.771C293.962 269.05 293.153 269.179 292.397 269.468C291.64 269.757 290.951 270.2 290.374 270.769L287.782 273.88C287.323 274.362 286.767 274.743 286.151 274.995C285.535 275.248 284.872 275.367 284.206 275.346H245.504C242.84 275.346 241.053 276.794 241.5 278.581C245.289 293.222 247.166 300.533 250.938 315.156C251.28 316.142 251.919 316.996 252.768 317.601C253.617 318.207 254.633 318.533 255.676 318.535H322.694C323.737 318.533 324.753 318.207 325.602 317.601C326.451 316.996 327.09 316.142 327.432 315.156L338.479 272.342C338.926 270.555 337.067 269.089 334.314 269.089Z" fill="url(#paint5_linear_56_1132)"/>
<g opacity="0.6">
<path d="M334.314 269.089H294.771C293.962 269.05 293.153 269.179 292.397 269.468C291.64 269.757 290.951 270.2 290.374 270.769L287.782 273.88C287.323 274.362 286.767 274.743 286.151 274.995C285.535 275.248 284.872 275.367 284.206 275.346H245.504C242.84 275.346 241.053 276.794 241.5 278.581C245.289 293.222 247.166 300.533 250.938 315.156C251.28 316.142 251.919 316.996 252.768 317.601C253.617 318.207 254.633 318.533 255.676 318.535H322.694C323.737 318.533 324.753 318.207 325.602 317.601C326.451 316.996 327.09 316.142 327.432 315.156L338.479 272.342C338.926 270.555 337.067 269.089 334.314 269.089Z" fill="white"/>
</g>
<path d="M253.942 339.951C252.854 339.813 251.854 339.283 251.129 338.46C250.403 337.638 250.003 336.579 250.003 335.482C250.003 334.385 250.403 333.326 251.129 332.503C251.854 331.681 252.854 331.151 253.942 331.013H326.037C326.672 330.932 327.316 330.988 327.927 331.176C328.538 331.364 329.103 331.679 329.582 332.102C330.062 332.525 330.446 333.045 330.709 333.628C330.973 334.21 331.109 334.843 331.109 335.482C331.109 336.121 330.973 336.753 330.709 337.336C330.446 337.919 330.062 338.439 329.582 338.862C329.103 339.284 328.538 339.6 327.927 339.788C327.316 339.976 326.672 340.031 326.037 339.951H253.942Z" fill="#263238"/>
<path opacity="0.3" d="M253.942 339.951C252.854 339.813 251.854 339.283 251.129 338.46C250.403 337.638 250.003 336.579 250.003 335.482C250.003 334.385 250.403 333.326 251.129 332.503C251.854 331.681 252.854 331.151 253.942 331.013H326.037C326.672 330.932 327.316 330.988 327.927 331.176C328.538 331.364 329.103 331.679 329.582 332.102C330.062 332.525 330.446 333.045 330.709 333.628C330.973 334.21 331.109 334.843 331.109 335.482C331.109 336.121 330.973 336.753 330.709 337.336C330.446 337.919 330.062 338.439 329.582 338.862C329.103 339.284 328.538 339.6 327.927 339.788C327.316 339.976 326.672 340.031 326.037 339.951H253.942Z" fill="white"/>
<path d="M156.605 403.09L154.62 399.515C154.3 398.923 153.825 398.429 153.245 398.086C152.666 397.742 152.004 397.563 151.331 397.566H121.585C120.589 397.566 119.634 397.962 118.93 398.666C118.226 399.37 117.831 400.325 117.831 401.321V458.168C117.831 458.681 117.932 459.189 118.129 459.663C118.326 460.137 118.615 460.567 118.978 460.93C119.342 461.292 119.774 461.578 120.249 461.773C120.724 461.968 121.232 462.067 121.746 462.065H189.318C189.832 462.067 190.34 461.968 190.815 461.773C191.29 461.578 191.722 461.292 192.086 460.93C192.449 460.567 192.738 460.137 192.935 459.663C193.132 459.189 193.233 458.681 193.233 458.168V408.543C193.233 407.545 192.838 406.589 192.135 405.882C191.431 405.175 190.477 404.775 189.479 404.771H159.465C158.881 404.773 158.308 404.618 157.804 404.322C157.301 404.027 156.887 403.601 156.605 403.09Z" fill="url(#paint6_linear_56_1132)"/>
<path opacity="0.3" d="M156.605 403.09L154.62 399.515C154.3 398.923 153.825 398.429 153.245 398.086C152.666 397.742 152.004 397.563 151.331 397.566H121.585C120.589 397.566 119.634 397.962 118.93 398.666C118.226 399.37 117.831 400.325 117.831 401.321V458.168C117.831 458.681 117.932 459.189 118.129 459.663C118.326 460.137 118.615 460.567 118.978 460.93C119.342 461.292 119.774 461.578 120.249 461.773C120.724 461.968 121.232 462.067 121.746 462.065H189.318C189.832 462.067 190.34 461.968 190.815 461.773C191.29 461.578 191.722 461.292 192.086 460.93C192.449 460.567 192.738 460.137 192.935 459.663C193.132 459.189 193.233 458.681 193.233 458.168V408.543C193.233 407.545 192.838 406.589 192.135 405.882C191.431 405.175 190.477 404.775 189.479 404.771H159.465C158.881 404.773 158.308 404.618 157.804 404.322C157.301 404.027 156.887 403.601 156.605 403.09Z" fill="white"/>
<path d="M183.83 407.059H126.179V450.159H183.83V407.059Z" fill="#263238"/>
<path opacity="0.8" d="M183.83 407.059H126.179V450.159H183.83V407.059Z" fill="white"/>
<path d="M187.996 411.385H122.014V460.724H187.996V411.385Z" fill="#263238"/>
<path opacity="0.9" d="M187.996 411.385H122.014V460.724H187.996V411.385Z" fill="white"/>
<path d="M199.83 412.618H160.305C159.498 412.58 158.692 412.709 157.938 412.999C157.185 413.288 156.499 413.731 155.925 414.299C154.87 415.55 154.352 416.087 153.333 417.409C152.861 417.898 152.289 418.279 151.657 418.529C151.025 418.779 150.347 418.891 149.668 418.857H111.055C108.374 418.857 106.586 420.323 107.051 422.111C110.823 436.734 112.718 444.045 116.49 458.686C116.832 459.669 117.472 460.521 118.321 461.124C119.17 461.726 120.186 462.049 121.227 462.047H188.228C189.269 462.049 190.285 461.726 191.134 461.124C191.983 460.521 192.623 459.669 192.965 458.686L204.013 415.783C204.478 414.066 202.618 412.618 199.83 412.618Z" fill="url(#paint7_linear_56_1132)"/>
<g opacity="0.6">
<path d="M199.83 412.618H160.305C159.498 412.58 158.692 412.709 157.938 412.999C157.185 413.288 156.499 413.731 155.925 414.299C154.87 415.55 154.352 416.087 153.333 417.409C152.861 417.898 152.289 418.279 151.657 418.529C151.025 418.779 150.347 418.891 149.668 418.857H111.055C108.374 418.857 106.586 420.323 107.051 422.111C110.823 436.734 112.718 444.045 116.49 458.686C116.832 459.669 117.472 460.521 118.321 461.124C119.17 461.726 120.186 462.049 121.227 462.047H188.228C189.269 462.049 190.285 461.726 191.134 461.124C191.983 460.521 192.623 459.669 192.965 458.686L204.013 415.783C204.478 414.066 202.618 412.618 199.83 412.618Z" fill="white"/>
</g>
<path d="M119.386 485.268C118.298 485.131 117.297 484.6 116.572 483.778C115.847 482.955 115.447 481.896 115.447 480.799C115.447 479.703 115.847 478.644 116.572 477.821C117.297 476.998 118.298 476.468 119.386 476.33H191.481C192.116 476.25 192.76 476.305 193.371 476.493C193.982 476.681 194.546 476.997 195.026 477.42C195.506 477.842 195.89 478.362 196.153 478.945C196.417 479.528 196.553 480.16 196.553 480.799C196.553 481.439 196.417 482.071 196.153 482.654C195.89 483.236 195.506 483.756 195.026 484.179C194.546 484.602 193.982 484.918 193.371 485.105C192.76 485.293 192.116 485.349 191.481 485.268H119.386Z" fill="#263238"/>
<path opacity="0.3" d="M119.386 485.268C118.298 485.131 117.297 484.6 116.572 483.778C115.847 482.955 115.447 481.896 115.447 480.799C115.447 479.703 115.847 478.644 116.572 477.821C117.297 476.998 118.298 476.468 119.386 476.33H191.481C192.116 476.25 192.76 476.305 193.371 476.493C193.982 476.681 194.546 476.997 195.026 477.42C195.506 477.842 195.89 478.362 196.153 478.945C196.417 479.528 196.553 480.16 196.553 480.799C196.553 481.439 196.417 482.071 196.153 482.654C195.89 483.236 195.506 483.756 195.026 484.179C194.546 484.602 193.982 484.918 193.371 485.105C192.76 485.293 192.116 485.349 191.481 485.268H119.386Z" fill="white"/>
<path d="M290.999 403.09L289.015 399.515C288.693 398.924 288.218 398.431 287.639 398.088C287.06 397.745 286.399 397.565 285.726 397.566H256.051C255.055 397.566 254.1 397.962 253.396 398.666C252.692 399.37 252.297 400.325 252.297 401.32V458.168C252.295 458.68 252.394 459.188 252.589 459.662C252.784 460.136 253.071 460.566 253.433 460.928C253.795 461.291 254.226 461.578 254.7 461.773C255.174 461.968 255.682 462.067 256.194 462.065H323.785C324.297 462.067 324.805 461.968 325.279 461.773C325.753 461.578 326.183 461.291 326.546 460.928C326.908 460.566 327.195 460.136 327.39 459.662C327.585 459.188 327.684 458.68 327.682 458.168V408.543C327.682 407.545 327.287 406.589 326.583 405.882C325.88 405.175 324.925 404.775 323.928 404.771H293.913C293.321 404.783 292.736 404.632 292.222 404.336C291.709 404.04 291.286 403.609 290.999 403.09Z" fill="url(#paint8_linear_56_1132)"/>
<path opacity="0.3" d="M290.999 403.09L289.015 399.515C288.693 398.924 288.218 398.431 287.639 398.088C287.06 397.745 286.399 397.565 285.726 397.566H256.051C255.055 397.566 254.1 397.962 253.396 398.666C252.692 399.37 252.297 400.325 252.297 401.32V458.168C252.295 458.68 252.394 459.188 252.589 459.662C252.784 460.136 253.071 460.566 253.433 460.928C253.795 461.291 254.226 461.578 254.7 461.773C255.174 461.968 255.682 462.067 256.194 462.065H323.785C324.297 462.067 324.805 461.968 325.279 461.773C325.753 461.578 326.183 461.291 326.546 460.928C326.908 460.566 327.195 460.136 327.39 459.662C327.585 459.188 327.684 458.68 327.682 458.168V408.543C327.682 407.545 327.287 406.589 326.583 405.882C325.88 405.175 324.925 404.775 323.928 404.771H293.913C293.321 404.783 292.736 404.632 292.222 404.336C291.709 404.04 291.286 403.609 290.999 403.09Z" fill="white"/>
<path d="M318.297 407.059H260.646V450.159H318.297V407.059Z" fill="#263238"/>
<path opacity="0.8" d="M318.297 407.059H260.646V450.159H318.297V407.059Z" fill="white"/>
<path d="M322.462 411.385H256.48V460.724H322.462V411.385Z" fill="#263238"/>
<path opacity="0.9" d="M322.462 411.385H256.48V460.724H322.462V411.385Z" fill="white"/>
<path d="M334.314 412.619H294.771C293.962 412.58 293.153 412.709 292.397 412.998C291.64 413.287 290.951 413.73 290.374 414.299C289.319 415.55 288.801 416.087 287.782 417.409C287.32 417.887 286.763 418.263 286.147 418.512C285.532 418.762 284.87 418.879 284.206 418.857H245.504C242.84 418.857 241.053 420.323 241.5 422.111C245.289 436.734 247.166 444.045 250.938 458.686C251.283 459.668 251.923 460.519 252.772 461.121C253.621 461.723 254.635 462.046 255.676 462.047H322.694C323.735 462.046 324.749 461.723 325.598 461.121C326.447 460.519 327.087 459.668 327.432 458.686L338.479 415.783C338.926 414.067 337.067 412.619 334.314 412.619Z" fill="url(#paint9_linear_56_1132)"/>
<g opacity="0.6">
<path d="M334.314 412.619H294.771C293.962 412.58 293.153 412.709 292.397 412.998C291.64 413.287 290.951 413.73 290.374 414.299C289.319 415.55 288.801 416.087 287.782 417.409C287.32 417.887 286.763 418.263 286.147 418.512C285.532 418.762 284.87 418.879 284.206 418.857H245.504C242.84 418.857 241.053 420.323 241.5 422.111C245.289 436.734 247.166 444.045 250.938 458.686C251.283 459.668 251.923 460.519 252.772 461.121C253.621 461.723 254.635 462.046 255.676 462.047H322.694C323.735 462.046 324.749 461.723 325.598 461.121C326.447 460.519 327.087 459.668 327.432 458.686L338.479 415.783C338.926 414.067 337.067 412.619 334.314 412.619Z" fill="white"/>
</g>
<path d="M253.942 485.268C252.854 485.13 251.854 484.6 251.129 483.778C250.403 482.955 250.003 481.896 250.003 480.799C250.003 479.703 250.403 478.643 251.129 477.821C251.854 476.998 252.854 476.468 253.942 476.33H326.037C327.125 476.468 328.126 476.998 328.851 477.821C329.576 478.643 329.976 479.703 329.976 480.799C329.976 481.896 329.576 482.955 328.851 483.778C328.126 484.6 327.125 485.13 326.037 485.268H253.942Z" fill="#263238"/>
<path opacity="0.3" d="M253.942 485.268C252.854 485.13 251.854 484.6 251.129 483.778C250.403 482.955 250.003 481.896 250.003 480.799C250.003 479.703 250.403 478.643 251.129 477.821C251.854 476.998 252.854 476.468 253.942 476.33H326.037C327.125 476.468 328.126 476.998 328.851 477.821C329.576 478.643 329.976 479.703 329.976 480.799C329.976 481.896 329.576 482.955 328.851 483.778C328.126 484.6 327.125 485.13 326.037 485.268H253.942Z" fill="white"/>
<path d="M422.499 403.09L420.514 399.515C420.19 398.923 419.711 398.429 419.129 398.086C418.547 397.743 417.883 397.564 417.207 397.566H387.532C387.039 397.566 386.551 397.664 386.096 397.852C385.64 398.041 385.227 398.317 384.878 398.666C384.529 399.015 384.253 399.428 384.064 399.884C383.875 400.339 383.778 400.828 383.778 401.321V458.168C383.776 458.68 383.875 459.188 384.07 459.662C384.265 460.136 384.552 460.566 384.915 460.928C385.277 461.291 385.707 461.578 386.181 461.773C386.655 461.968 387.163 462.067 387.675 462.065H455.266C456.3 462.065 457.291 461.654 458.022 460.923C458.753 460.192 459.163 459.201 459.163 458.168V408.543C459.163 407.545 458.768 406.589 458.065 405.882C457.361 405.175 456.407 404.775 455.409 404.771H425.341C424.76 404.77 424.191 404.613 423.691 404.318C423.191 404.022 422.779 403.598 422.499 403.09Z" fill="url(#paint10_linear_56_1132)"/>
<path opacity="0.3" d="M422.499 403.09L420.514 399.515C420.19 398.923 419.711 398.429 419.129 398.086C418.547 397.743 417.883 397.564 417.207 397.566H387.532C387.039 397.566 386.551 397.664 386.096 397.852C385.64 398.041 385.227 398.317 384.878 398.666C384.529 399.015 384.253 399.428 384.064 399.884C383.875 400.339 383.778 400.828 383.778 401.321V458.168C383.776 458.68 383.875 459.188 384.07 459.662C384.265 460.136 384.552 460.566 384.915 460.928C385.277 461.291 385.707 461.578 386.181 461.773C386.655 461.968 387.163 462.067 387.675 462.065H455.266C456.3 462.065 457.291 461.654 458.022 460.923C458.753 460.192 459.163 459.201 459.163 458.168V408.543C459.163 407.545 458.768 406.589 458.065 405.882C457.361 405.175 456.407 404.775 455.409 404.771H425.341C424.76 404.77 424.191 404.613 423.691 404.318C423.191 404.022 422.779 403.598 422.499 403.09Z" fill="white"/>
<path d="M449.724 407.059H392.073V450.159H449.724V407.059Z" fill="#263238"/>
<path opacity="0.8" d="M449.724 407.059H392.073V450.159H449.724V407.059Z" fill="white"/>
<path d="M453.889 411.385H387.907V460.724H453.889V411.385Z" fill="#263238"/>
<path opacity="0.9" d="M453.889 411.385H387.907V460.724H453.889V411.385Z" fill="white"/>
<path d="M465.741 412.619H426.199C425.389 412.58 424.581 412.709 423.824 412.998C423.067 413.287 422.378 413.73 421.801 414.299C420.746 415.55 420.228 416.087 419.209 417.409C418.747 417.887 418.191 418.263 417.575 418.512C416.959 418.762 416.298 418.879 415.634 418.857H376.931C374.268 418.857 372.48 420.323 372.927 422.111C376.717 436.734 378.594 444.045 382.366 458.686C382.71 459.668 383.351 460.519 384.199 461.121C385.048 461.723 386.062 462.046 387.103 462.047H454.104C455.147 462.05 456.166 461.728 457.018 461.126C457.87 460.524 458.514 459.671 458.859 458.686C462.53 444.385 466.206 430.084 469.889 415.783C470.353 414.067 468.494 412.619 465.741 412.619Z" fill="url(#paint11_linear_56_1132)"/>
<g opacity="0.6">
<path d="M465.741 412.619H426.199C425.389 412.58 424.581 412.709 423.824 412.998C423.067 413.287 422.378 413.73 421.801 414.299C420.746 415.55 420.228 416.087 419.209 417.409C418.747 417.887 418.191 418.263 417.575 418.512C416.959 418.762 416.298 418.879 415.634 418.857H376.931C374.268 418.857 372.48 420.323 372.927 422.111C376.717 436.734 378.594 444.045 382.366 458.686C382.71 459.668 383.351 460.519 384.199 461.121C385.048 461.723 386.062 462.046 387.103 462.047H454.104C455.147 462.05 456.166 461.728 457.018 461.126C457.87 460.524 458.514 459.671 458.859 458.686C462.53 444.385 466.206 430.084 469.889 415.783C470.353 414.067 468.494 412.619 465.741 412.619Z" fill="white"/>
</g>
<path d="M385.369 485.268C384.281 485.13 383.281 484.6 382.556 483.778C381.831 482.955 381.431 481.896 381.431 480.799C381.431 479.703 381.831 478.643 382.556 477.821C383.281 476.998 384.281 476.468 385.369 476.33H457.465C458.553 476.468 459.553 476.998 460.278 477.821C461.003 478.643 461.403 479.703 461.403 480.799C461.403 481.896 461.003 482.955 460.278 483.778C459.553 484.6 458.553 485.13 457.465 485.268H385.369Z" fill="#263238"/>
<path opacity="0.3" d="M385.369 485.268C384.281 485.13 383.281 484.6 382.556 483.778C381.831 482.955 381.431 481.896 381.431 480.799C381.431 479.703 381.831 478.643 382.556 477.821C383.281 476.998 384.281 476.468 385.369 476.33H457.465C458.553 476.468 459.553 476.998 460.278 477.821C461.003 478.643 461.403 479.703 461.403 480.799C461.403 481.896 461.003 482.955 460.278 483.778C459.553 484.6 458.553 485.13 457.465 485.268H385.369Z" fill="white"/>
<path d="M384.439 339.951C383.805 340.031 383.161 339.976 382.55 339.788C381.939 339.6 381.374 339.284 380.895 338.862C380.415 338.439 380.031 337.919 379.768 337.336C379.504 336.753 379.368 336.121 379.368 335.482C379.368 334.843 379.504 334.21 379.768 333.628C380.031 333.045 380.415 332.525 380.895 332.102C381.374 331.679 381.939 331.364 382.55 331.176C383.161 330.988 383.805 330.932 384.439 331.013H456.535C457.169 330.932 457.814 330.988 458.425 331.176C459.036 331.364 459.6 331.679 460.08 332.102C460.56 332.525 460.944 333.045 461.207 333.628C461.47 334.21 461.606 334.843 461.606 335.482C461.606 336.121 461.47 336.753 461.207 337.336C460.944 337.919 460.56 338.439 460.08 338.862C459.6 339.284 459.036 339.6 458.425 339.788C457.814 339.976 457.169 340.031 456.535 339.951H384.439Z" fill="#263238"/>
<path opacity="0.3" d="M384.439 339.951C383.805 340.031 383.161 339.976 382.55 339.788C381.939 339.6 381.374 339.284 380.895 338.862C380.415 338.439 380.031 337.919 379.768 337.336C379.504 336.753 379.368 336.121 379.368 335.482C379.368 334.843 379.504 334.21 379.768 333.628C380.031 333.045 380.415 332.525 380.895 332.102C381.374 331.679 381.939 331.364 382.55 331.176C383.161 330.988 383.805 330.932 384.439 331.013H456.535C457.169 330.932 457.814 330.988 458.425 331.176C459.036 331.364 459.6 331.679 460.08 332.102C460.56 332.525 460.944 333.045 461.207 333.628C461.47 334.21 461.606 334.843 461.606 335.482C461.606 336.121 461.47 336.753 461.207 337.336C460.944 337.919 460.56 338.439 460.08 338.862C459.6 339.284 459.036 339.6 458.425 339.788C457.814 339.976 457.169 340.031 456.535 339.951H384.439Z" fill="white"/>
<path d="M381.973 320.126L397.346 365.103C397.763 366.089 398.455 366.934 399.339 367.537C400.224 368.139 401.264 368.474 402.334 368.5H432.581C433.175 368.558 433.771 368.413 434.271 368.089C434.771 367.764 435.146 367.278 435.334 366.712L436.228 363.441C436.391 362.953 436.715 362.535 437.147 362.256C437.579 361.977 438.093 361.852 438.605 361.903H469.12C469.554 361.967 469.997 361.915 470.404 361.753C470.811 361.591 471.168 361.323 471.438 360.978C471.709 360.634 471.883 360.223 471.944 359.789C472.005 359.355 471.949 358.913 471.784 358.507L458.663 320.09L458.466 312.582V254.788C458.466 253.778 458.065 252.809 457.351 252.095C456.637 251.381 455.668 250.98 454.658 250.98H424.411C423.729 250.976 423.058 251.157 422.469 251.503C421.881 251.849 421.397 252.348 421.068 252.946L419.048 256.629C418.761 257.145 418.341 257.574 417.832 257.873C417.323 258.172 416.743 258.328 416.152 258.327H385.619C384.605 258.327 383.632 258.73 382.914 259.448C382.197 260.165 381.794 261.138 381.794 262.153V312.618L381.973 320.126Z" fill="url(#paint12_linear_56_1132)"/>
<path opacity="0.6" d="M381.973 320.126L397.346 365.103C397.763 366.089 398.455 366.934 399.339 367.537C400.224 368.139 401.264 368.474 402.334 368.5H432.581C433.175 368.558 433.771 368.413 434.271 368.089C434.771 367.764 435.146 367.278 435.334 366.712L436.228 363.441C436.391 362.953 436.715 362.535 437.147 362.256C437.579 361.977 438.093 361.852 438.605 361.903H469.12C469.554 361.967 469.997 361.915 470.404 361.753C470.811 361.591 471.168 361.323 471.438 360.978C471.709 360.634 471.883 360.223 471.944 359.789C472.005 359.355 471.949 358.913 471.784 358.507L458.663 320.09L458.466 312.582V254.788C458.466 253.778 458.065 252.809 457.351 252.095C456.637 251.381 455.668 250.98 454.658 250.98H424.411C423.729 250.976 423.058 251.157 422.469 251.503C421.881 251.849 421.397 252.348 421.068 252.946L419.048 256.629C418.761 257.145 418.341 257.574 417.832 257.873C417.323 258.172 416.743 258.328 416.152 258.327H385.619C384.605 258.327 383.632 258.73 382.914 259.448C382.197 260.165 381.794 261.138 381.794 262.153V312.618L381.973 320.126Z" fill="white"/>
<path d="M381.973 320.126L397.346 365.103C397.762 366.089 398.454 366.934 399.339 367.537C400.224 368.139 401.264 368.474 402.334 368.5H432.581C433.174 368.558 433.77 368.413 434.271 368.089C434.771 367.764 435.146 367.278 435.334 366.712L436.228 363.441C436.391 362.953 436.715 362.535 437.147 362.256C437.579 361.977 438.093 361.852 438.605 361.903H469.12C469.554 361.967 469.997 361.915 470.404 361.753C470.811 361.591 471.168 361.323 471.438 360.978C471.709 360.634 471.883 360.223 471.944 359.789C472.005 359.355 471.949 358.913 471.784 358.507L458.663 320.09L381.973 320.126Z" fill="url(#paint13_linear_56_1132)"/>
<path opacity="0.3" d="M381.973 320.126L397.346 365.103C397.762 366.089 398.454 366.934 399.339 367.537C400.224 368.139 401.264 368.474 402.334 368.5H432.581C433.174 368.558 433.77 368.413 434.271 368.089C434.771 367.764 435.146 367.278 435.334 366.712L436.228 363.441C436.391 362.953 436.715 362.535 437.147 362.256C437.579 361.977 438.093 361.852 438.605 361.903H469.12C469.554 361.967 469.997 361.915 470.404 361.753C470.811 361.591 471.168 361.323 471.438 360.978C471.709 360.634 471.883 360.223 471.944 359.789C472.005 359.355 471.949 358.913 471.784 358.507L458.663 320.09L381.973 320.126Z" fill="white"/>
<path opacity="0.1" d="M389.374 320.126H451.601L462.953 352.107H400.725L389.374 320.126Z" fill="black"/>
<path d="M389.373 320.126H451.601V269.697H389.373V320.126Z" fill="#263238"/>
<path opacity="0.8" d="M389.373 320.126H451.601V269.697H389.373V320.126Z" fill="white"/>
<path d="M389.374 320.126H451.601L464.222 283.783H401.976L389.374 320.126Z" fill="#263238"/>
<path opacity="0.9" d="M389.374 320.126H451.601L464.222 283.783H401.976L389.374 320.126Z" fill="white"/>
<path d="M389.374 320.126H451.601L464.222 347.066H401.976L389.374 320.126Z" fill="#263238"/>
<path opacity="0.9" d="M389.374 320.126H451.601L464.222 347.066H401.976L389.374 320.126Z" fill="white"/>
<path d="M389.374 320.126H451.601L471.963 306.272H409.717L389.374 320.126Z" fill="#263238"/>
<path opacity="0.8" d="M389.374 320.126H451.601L471.963 306.272H409.717L389.374 320.126Z" fill="white"/>
<g opacity="0.3">
<path d="M814.774 90.2187L768.456 101.216C768.266 101.261 768.069 101.268 767.876 101.237C767.683 101.206 767.498 101.137 767.331 101.034C767.165 100.93 767.021 100.796 766.907 100.637C766.793 100.478 766.712 100.298 766.668 100.107L751.96 38.184C751.868 37.7998 751.933 37.3949 752.139 37.0581C752.346 36.7213 752.677 36.4802 753.061 36.3876L781.594 29.6157L805.432 44.456L815.883 88.4457C815.969 88.8278 815.901 89.2286 815.694 89.5608C815.486 89.8929 815.155 90.1294 814.774 90.2187Z" fill="#F0F0F0"/>
<path d="M805.432 44.4404L781.594 29.6157L780.079 29.975L785.694 53.6179L806.44 48.6894L805.432 44.4404Z" fill="#E6E6E6"/>
<path d="M805.393 44.2764L786.163 48.8456L781.594 29.6157L805.393 44.2764Z" fill="#FAFAFA"/>
<path d="M799.169 51.6555L764.911 59.7915L770.067 81.5027L804.325 73.3667L799.169 51.6555Z" fill="#E6E6E6"/>
<path d="M777.9 71.7622L772.213 80.9944L787.132 77.4484L777.9 71.7622Z" fill="#FAFAFA"/>
<path d="M783.773 78.2453L804.323 73.3636L803.854 71.3875L792.365 64.311L783.773 78.2453Z" fill="#FAFAFA"/>
<path d="M784.109 63.381C784.282 64.1058 784.237 64.8658 783.978 65.5647C783.719 66.2636 783.259 66.87 782.655 67.307C782.051 67.7441 781.332 67.9921 780.587 68.0197C779.842 68.0473 779.106 67.8533 778.471 67.4621C777.837 67.071 777.333 66.5003 777.023 65.8225C776.713 65.1447 776.612 64.3901 776.731 63.6545C776.851 62.9188 777.186 62.2352 777.694 61.6901C778.202 61.145 778.861 60.7631 779.586 60.5926C780.556 60.3627 781.577 60.5273 782.425 61.0502C783.273 61.5732 783.879 62.4116 784.109 63.381Z" fill="#FAFAFA"/>
<path d="M712.003 240.598L679.737 239.411C679.604 239.407 679.474 239.376 679.353 239.32C679.233 239.265 679.124 239.186 679.034 239.089C678.944 238.991 678.875 238.877 678.829 238.752C678.783 238.628 678.763 238.495 678.768 238.363L680.352 195.224C680.361 194.956 680.477 194.703 680.672 194.521C680.868 194.338 681.129 194.24 681.396 194.249L701.273 194.982L714.172 208.994L713.049 239.64C713.036 239.905 712.919 240.155 712.724 240.334C712.528 240.514 712.269 240.609 712.003 240.598Z" fill="#F0F0F0"/>
<path d="M714.175 208.984L701.273 194.982L700.217 194.943L699.613 211.414L714.065 211.943L714.175 208.984Z" fill="#E6E6E6"/>
<path d="M714.179 208.869L700.782 208.379L701.272 194.982L714.179 208.869Z" fill="#FAFAFA"/>
<path d="M708.776 212.567L684.91 211.691L684.355 226.816L708.22 227.692L708.776 212.567Z" fill="#E6E6E6"/>
<path d="M691.236 221.865L685.85 226.872L696.243 227.252L691.236 221.865Z" fill="#FAFAFA"/>
<path d="M693.904 227.165L708.22 227.69L708.271 226.313L702.04 219.61L693.904 227.165Z" fill="#FAFAFA"/>
<path d="M696.811 217.509C696.793 218.014 696.626 218.503 696.33 218.913C696.035 219.323 695.624 219.636 695.151 219.813C694.677 219.989 694.162 220.021 693.67 219.905C693.178 219.788 692.732 219.528 692.388 219.158C692.044 218.787 691.818 218.323 691.738 217.824C691.658 217.325 691.728 216.813 691.939 216.354C692.15 215.895 692.492 215.508 692.923 215.244C693.354 214.98 693.854 214.849 694.359 214.869C695.034 214.894 695.672 215.186 696.132 215.681C696.592 216.176 696.836 216.834 696.811 217.509Z" fill="#FAFAFA"/>
<path d="M795.045 456.476L751.787 436.327C751.607 436.244 751.446 436.127 751.312 435.981C751.178 435.835 751.075 435.664 751.007 435.478C750.94 435.292 750.911 435.094 750.921 434.897C750.932 434.699 750.981 434.505 751.067 434.327L778.006 376.48C778.089 376.301 778.208 376.14 778.354 376.007C778.499 375.874 778.67 375.771 778.856 375.704C779.042 375.637 779.239 375.608 779.436 375.617C779.634 375.627 779.827 375.675 780.006 375.76L806.634 388.189L816.164 414.668L797.025 455.756C796.858 456.114 796.555 456.391 796.184 456.526C795.813 456.661 795.403 456.643 795.045 456.476Z" fill="#EBEBEB"/>
<path d="M816.164 414.668L806.635 388.189L805.225 387.539L794.935 409.618L814.314 418.638L816.164 414.668Z" fill="#E0E0E0"/>
<path d="M816.234 414.518L798.265 406.159L806.634 388.189L816.234 414.518Z" fill="white"/>
<path d="M797.005 440.077L765.006 425.168C762.847 424.168 760.957 427.368 763.127 428.378L795.125 443.277C797.285 444.277 799.175 441.087 797.005 440.077Z" fill="#FAFAFA"/>
<path d="M772.586 408.099L804.584 423.008C806.734 424.008 808.584 420.808 806.454 419.798L774.456 404.899C772.306 403.899 770.456 407.089 772.586 408.099Z" fill="#FAFAFA"/>
<path d="M767.636 418.508L799.635 433.417C801.784 434.417 803.634 431.217 801.504 430.207L769.506 415.308C767.356 414.308 765.506 417.498 767.636 418.508Z" fill="#FAFAFA"/>
<path d="M677.424 288.427L676.219 284.485C676.022 283.842 675.657 283.264 675.161 282.81C674.665 282.357 674.056 282.044 673.398 281.906L644.324 275.698C643.842 275.595 643.344 275.589 642.859 275.679C642.375 275.769 641.913 275.953 641.5 276.222C641.087 276.491 640.73 276.838 640.452 277.245C640.173 277.651 639.977 278.109 639.876 278.591L628.002 334.173C627.791 335.184 627.988 336.238 628.55 337.105C629.112 337.972 629.994 338.582 631.004 338.802L697.085 352.893C698.097 353.107 699.152 352.912 700.02 352.349C700.888 351.787 701.497 350.903 701.714 349.891L712.056 301.385C712.16 300.902 712.168 300.404 712.079 299.918C711.99 299.432 711.806 298.968 711.537 298.554C711.268 298.139 710.92 297.782 710.513 297.503C710.105 297.223 709.647 297.027 709.163 296.925L679.835 290.669C679.271 290.541 678.751 290.266 678.328 289.873C677.905 289.479 677.593 288.98 677.424 288.427Z" fill="#E0E0E0"/>
<path d="M709.187 296.925L680.113 290.729C679.457 290.589 678.776 290.626 678.14 290.838C677.504 291.05 676.936 291.429 676.496 291.935L673.808 295.057C673.426 295.494 672.934 295.822 672.384 296.007C671.833 296.191 671.243 296.225 670.674 296.106L641.334 289.849C640.361 289.642 639.345 289.828 638.509 290.368C637.673 290.908 637.085 291.758 636.874 292.73L628.002 334.173C627.791 335.184 627.988 336.238 628.55 337.105C629.112 337.972 629.994 338.582 631.004 338.801L697.085 352.893C698.097 353.107 699.152 352.912 700.02 352.349C700.888 351.787 701.497 350.903 701.714 349.891L712.056 301.385C712.161 300.904 712.17 300.407 712.082 299.922C711.994 299.438 711.812 298.975 711.546 298.561C711.279 298.147 710.934 297.789 710.529 297.508C710.125 297.228 709.669 297.03 709.187 296.925Z" fill="#F0F0F0"/>
</g>
<path d="M524.951 49.7808C526.704 48.7185 528.593 47.8975 530.566 47.3401L531.722 41.7789L541.118 41.6157L542.477 47.1294C544.471 47.6176 546.389 48.3722 548.181 49.3729L552.94 46.2592L559.698 52.7858L556.754 57.64C557.815 59.3943 558.636 61.283 559.195 63.2556L564.756 64.4182L564.919 73.8071L559.406 75.1668C558.918 77.1603 558.163 79.0789 557.162 80.8708L560.276 85.6298L553.749 92.3876L548.895 89.4438C547.14 90.5052 545.252 91.3282 543.28 91.8913L542.117 97.4458L532.728 97.6157L531.368 92.0953C529.375 91.6071 527.456 90.8524 525.664 89.8517L520.905 92.9655L514.148 86.4388L517.091 81.5847C516.03 79.8296 515.207 77.9412 514.644 75.969L509.089 74.8132L508.919 65.4176L514.44 64.0579C514.927 62.0662 515.682 60.1497 516.683 58.3607L513.57 53.6016L520.096 46.8438L524.951 49.7876V49.7808ZM529.954 62.297C528.572 63.7328 527.647 65.5459 527.295 67.5074C526.942 69.4689 527.179 71.4908 527.976 73.3176C528.772 75.1445 530.092 76.6944 531.768 77.7715C533.445 78.8487 535.403 79.4049 537.396 79.3698C539.388 79.3347 541.326 78.7099 542.963 77.5743C544.601 76.4387 545.865 74.8433 546.597 72.9895C547.328 71.1358 547.494 69.1068 547.073 67.159C546.652 65.2111 545.663 63.4317 544.231 62.0455C543.278 61.1228 542.153 60.3972 540.919 59.9104C539.685 59.4235 538.367 59.1849 537.041 59.2083C535.714 59.2317 534.406 59.5165 533.19 60.0466C531.974 60.5766 530.874 61.3414 529.954 62.297Z" fill="white" fill-opacity="0.3"/>
<defs>
<filter id="filter0_f_56_1132" x="62.5137" y="176.017" width="466.231" height="348.783" filterUnits="userSpaceOnUse" color-interpolation-filters="sRGB">
<feFlood flood-opacity="0" result="BackgroundImageFix"/>
<feBlend mode="normal" in="SourceGraphic" in2="BackgroundImageFix" result="shape"/>
<feGaussianBlur stdDeviation="5" result="effect1_foregroundBlur_56_1132"/>
</filter>
<linearGradient id="paint0_linear_56_1132" x1="377.937" y1="207.176" x2="671.183" y2="679.081" gradientUnits="userSpaceOnUse">
<stop stop-color="#FFAC12"/>
<stop offset="1" stop-color="#F2D01C"/>
</linearGradient>
<linearGradient id="paint1_linear_56_1132" x1="582.519" y1="531.822" x2="582.527" y2="167.808" gradientUnits="userSpaceOnUse">
<stop stop-color="#FE8A00"/>
<stop offset="1" stop-color="#F2D01C" stop-opacity="0"/>
</linearGradient>
<linearGradient id="paint2_linear_56_1132" x1="155.532" y1="254.055" x2="155.532" y2="318.571" gradientUnits="userSpaceOnUse">
<stop stop-color="#7630A1"/>
<stop offset="1" stop-color="#6AC8F3"/>
<stop offset="1" stop-color="#7630A1" stop-opacity="0"/>
</linearGradient>
<linearGradient id="paint3_linear_56_1132" x1="155.546" y1="269.082" x2="155.546" y2="318.535" gradientUnits="userSpaceOnUse">
<stop stop-color="#7630A1"/>
<stop offset="1" stop-color="#6AC8F3"/>
<stop offset="1" stop-color="#7630A1" stop-opacity="0"/>
</linearGradient>
<linearGradient id="paint4_linear_56_1132" x1="289.989" y1="254.055" x2="289.989" y2="318.571" gradientUnits="userSpaceOnUse">
<stop stop-color="#7630A1"/>
<stop offset="1" stop-color="#6AC8F3"/>
<stop offset="1" stop-color="#7630A1" stop-opacity="0"/>
</linearGradient>
<linearGradient id="paint5_linear_56_1132" x1="289.988" y1="269.082" x2="289.988" y2="318.535" gradientUnits="userSpaceOnUse">
<stop stop-color="#7630A1"/>
<stop offset="1" stop-color="#6AC8F3"/>
<stop offset="1" stop-color="#7630A1" stop-opacity="0"/>
</linearGradient>
<linearGradient id="paint6_linear_56_1132" x1="155.532" y1="397.566" x2="155.532" y2="462.065" gradientUnits="userSpaceOnUse">
<stop stop-color="#7630A1"/>
<stop offset="1" stop-color="#6AC8F3"/>
<stop offset="1" stop-color="#7630A1" stop-opacity="0"/>
</linearGradient>
<linearGradient id="paint7_linear_56_1132" x1="155.531" y1="412.612" x2="155.531" y2="462.047" gradientUnits="userSpaceOnUse">
<stop stop-color="#7630A1"/>
<stop offset="1" stop-color="#6AC8F3"/>
<stop offset="1" stop-color="#7630A1" stop-opacity="0"/>
</linearGradient>
<linearGradient id="paint8_linear_56_1132" x1="289.989" y1="397.566" x2="289.989" y2="462.065" gradientUnits="userSpaceOnUse">
<stop stop-color="#7630A1"/>
<stop offset="1" stop-color="#6AC8F3"/>
<stop offset="1" stop-color="#7630A1" stop-opacity="0"/>
</linearGradient>
<linearGradient id="paint9_linear_56_1132" x1="289.988" y1="412.612" x2="289.988" y2="462.047" gradientUnits="userSpaceOnUse">
<stop stop-color="#7630A1"/>
<stop offset="1" stop-color="#6AC8F3"/>
<stop offset="1" stop-color="#7630A1" stop-opacity="0"/>
</linearGradient>
<linearGradient id="paint10_linear_56_1132" x1="421.471" y1="397.566" x2="421.471" y2="462.065" gradientUnits="userSpaceOnUse">
<stop stop-color="#7630A1"/>
<stop offset="1" stop-color="#6AC8F3"/>
<stop offset="1" stop-color="#7630A1" stop-opacity="0"/>
</linearGradient>
<linearGradient id="paint11_linear_56_1132" x1="421.409" y1="412.612" x2="421.409" y2="462.047" gradientUnits="userSpaceOnUse">
<stop stop-color="#7630A1"/>
<stop offset="1" stop-color="#6AC8F3"/>
<stop offset="1" stop-color="#7630A1" stop-opacity="0"/>
</linearGradient>
<linearGradient id="paint12_linear_56_1132" x1="426.881" y1="250.98" x2="426.881" y2="368.512" gradientUnits="userSpaceOnUse">
<stop stop-color="#7630A1"/>
<stop offset="1" stop-color="#6AC8F3"/>
<stop offset="1" stop-color="#7630A1" stop-opacity="0"/>
</linearGradient>
<linearGradient id="paint13_linear_56_1132" x1="426.97" y1="320.09" x2="426.97" y2="368.512" gradientUnits="userSpaceOnUse">
<stop stop-color="#7630A1"/>
<stop offset="1" stop-color="#6AC8F3"/>
<stop offset="1" stop-color="#7630A1" stop-opacity="0"/>
</linearGradient>
</defs>
</svg>
