<svg width="754" height="600" viewBox="0 0 754 600" fill="none" xmlns="http://www.w3.org/2000/svg">
<path d="M676.759 315.001C677.041 314.952 677.306 315.139 677.337 315.424C677.366 315.594 677.302 315.78 677.167 315.9L637.594 346.44L635.716 347.912L615.446 363.528L539.129 379.476C538.847 379.525 538.581 379.338 538.551 379.053C538.521 378.883 538.586 378.697 538.72 378.577L599.589 331.622C600.151 331.174 600.799 330.887 601.511 330.743L625.468 325.718L627.809 325.233L676.762 315.02L676.759 315.001Z" fill="#E6E6E6"/>
<path d="M646.585 329.452C644.627 327.232 626.699 333.012 605.811 342.624C584.923 352.237 568.891 362.11 569.286 365.048L584.198 397.43C584.479 398.04 585.182 398.287 585.796 398.025L660.94 363.424C661.554 363.162 661.819 362.456 661.557 361.842L646.642 329.442L646.567 329.455L646.585 329.452Z" fill="#EBEBEB"/>
<path d="M644.62 357.381L647.771 364.223L647.233 364.472L644.9 360.436L646.421 364.827L645.523 365.236L643.175 361.222L644.696 365.613L643.797 366.021L641.449 362.007L642.989 366.395L642.45 366.644L639.299 359.801C638.82 358.721 639.031 357.481 639.832 356.624L625.575 325.661L627.915 325.176L641.953 355.653C643.096 355.648 644.144 356.319 644.617 357.362L644.62 357.381Z" fill="#E0E0E0"/>
<path d="M668.236 580.265H640.274V581.067H668.236V580.265Z" fill="#EBEBEB"/>
<path d="M327.135 560.655H25.9028V561.458H327.135V560.655Z" fill="#EBEBEB"/>
<path d="M624.675 526.26H35.96V589.288H624.675V526.26Z" fill="url(#paint0_linear_56_1296)"/>
<path d="M238.226 532.851H35.96V582.696H238.226V532.851Z" fill="white"/>
<path d="M35.96 545.14C97.4855 544.477 166.495 544.477 228.021 545.14C166.495 545.803 97.4855 545.803 35.96 545.14Z" fill="#263238"/>
<path d="M35.96 551.054C97.4855 550.391 166.495 550.391 228.021 551.054C166.495 551.717 97.4855 551.717 35.96 551.054Z" fill="#263238"/>
<path d="M35.96 556.955C97.4855 556.292 166.495 556.292 228.021 556.955C166.495 557.618 97.4855 557.618 35.96 556.955Z" fill="#263238"/>
<path d="M35.96 562.869C97.4855 562.206 166.495 562.206 228.021 562.869C166.495 563.533 97.4855 563.533 35.96 562.869Z" fill="#263238"/>
<path d="M35.96 568.784C97.4855 568.12 166.495 568.12 228.021 568.784C166.495 569.447 97.4855 569.447 35.96 568.784Z" fill="#263238"/>
<path d="M35.96 574.698C97.4855 574.035 166.495 574.035 228.021 574.698C166.495 575.361 97.4855 575.361 35.96 574.698Z" fill="#263238"/>
<path d="M35.96 539.225C97.4855 538.562 166.495 538.562 228.021 539.225C166.495 539.889 97.4855 539.889 35.96 539.225Z" fill="#263238"/>
<path opacity="0.3" d="M307.966 526.26H289.912V589.288H307.966V526.26Z" fill="white"/>
<path opacity="0.3" d="M583.342 526.26H565.288V589.288H583.342V526.26Z" fill="white"/>
<path opacity="0.2" d="M249.689 526.26H35.96V589.288H249.689V526.26Z" fill="#263238"/>
<path d="M466.909 393.248H124.824V438.14H466.909V393.248Z" fill="url(#paint1_linear_56_1296)"/>
<path d="M268.921 397.944H124.824V433.457H268.921V397.944Z" fill="white"/>
<path d="M124.824 406.687C168.647 406.024 217.83 406.024 261.653 406.687C217.83 407.35 168.647 407.35 124.824 406.687Z" fill="#263238"/>
<path d="M124.824 410.896C168.647 410.233 217.83 410.233 261.653 410.896C217.83 411.559 168.647 411.559 124.824 410.896Z" fill="#263238"/>
<path d="M124.824 415.118C168.647 414.455 217.83 414.455 261.653 415.118C217.83 415.782 168.647 415.782 124.824 415.118Z" fill="#263238"/>
<path d="M124.824 419.327C168.647 418.664 217.83 418.664 261.653 419.327C217.83 419.991 168.647 419.991 124.824 419.327Z" fill="#263238"/>
<path d="M124.824 423.537C168.647 422.874 217.83 422.874 261.653 423.537C217.83 424.2 168.647 424.2 124.824 423.537Z" fill="#263238"/>
<path d="M124.824 427.746C168.647 427.083 217.83 427.083 261.653 427.746C217.83 428.409 168.647 428.409 124.824 427.746Z" fill="#263238"/>
<path d="M124.824 402.478C168.647 401.815 217.83 401.815 261.653 402.478C217.83 403.141 168.647 403.141 124.824 402.478Z" fill="#263238"/>
<path opacity="0.3" d="M453.01 393.248H440.139V438.14H453.01V393.248Z" fill="#263238"/>
<path opacity="0.3" d="M316.195 393.248H303.324V438.14H316.195V393.248Z" fill="#263238"/>
<path opacity="0.2" d="M277.095 393.248H124.824V438.14H277.095V393.248Z" fill="#263238"/>
<path opacity="0.3" d="M427.147 409.096H327.631V422.237H427.147V409.096Z" fill="#263238"/>
<path d="M480.186 499.855H0.0273438V526.273H480.186V499.855Z" fill="#263238"/>
<path d="M201.778 503.266H0.0268555V522.863H201.778V503.266Z" fill="white"/>
<path d="M1.40771 507.15C62.9333 506.487 131.943 506.487 193.469 507.15C131.943 507.813 62.9333 507.813 1.40771 507.15Z" fill="#263238"/>
<path d="M1.40771 513.064C62.9333 512.401 131.943 512.401 193.469 513.064C131.943 513.727 62.9333 513.727 1.40771 513.064Z" fill="#263238"/>
<path d="M1.40771 518.965C62.9333 518.301 131.943 518.301 193.469 518.965C131.943 519.628 62.9333 519.628 1.40771 518.965Z" fill="#263238"/>
<path opacity="0.3" d="M259.108 499.855H254.033V526.273H259.108V499.855Z" fill="white"/>
<path opacity="0.3" d="M268.555 499.855H263.479V526.273H268.555V499.855Z" fill="white"/>
<path opacity="0.3" d="M447.867 499.855H442.792V526.273H447.867V499.855Z" fill="white"/>
<path opacity="0.3" d="M457.314 499.855H452.238V526.273H457.314V499.855Z" fill="white"/>
<path opacity="0.2" d="M206.678 499.841H0V526.26H206.678V499.841Z" fill="#263238"/>
<path d="M573.394 437.91H93.2354V464.328H573.394V437.91Z" fill="#263238"/>
<path d="M294.987 441.32H93.2354V460.918H294.987V441.32Z" fill="white"/>
<path d="M94.6162 445.204C156.142 444.541 225.152 444.541 286.677 445.204C225.152 445.868 156.142 445.868 94.6162 445.204Z" fill="#263238"/>
<path d="M94.6162 451.119C156.142 450.456 225.152 450.456 286.677 451.119C225.152 451.782 156.142 451.782 94.6162 451.119Z" fill="#263238"/>
<path d="M94.6162 457.033C156.142 456.37 225.152 456.37 286.677 457.033C225.152 457.696 156.142 457.696 94.6162 457.033Z" fill="#263238"/>
<path opacity="0.3" d="M352.316 437.91H347.241V464.328H352.316V437.91Z" fill="white"/>
<path opacity="0.3" d="M361.764 437.91H356.688V464.328H361.764V437.91Z" fill="white"/>
<path opacity="0.3" d="M541.089 437.91H536.014V464.328H541.089V437.91Z" fill="white"/>
<path opacity="0.3" d="M550.536 437.91H545.46V464.328H550.536V437.91Z" fill="white"/>
<path opacity="0.2" d="M299.886 437.896H93.2085V464.314H299.886V437.896Z" fill="#263238"/>
<path d="M19.8541 500.112L500.013 500.112V464.071L19.8541 464.071V500.112Z" fill="url(#paint2_linear_56_1296)"/>
<path opacity="0.4" d="M19.8541 500.112L500.013 500.112V464.071L19.8541 464.071V500.112Z" fill="white"/>
<path d="M298.275 496.702H500.026V468.213H298.275V496.702Z" fill="white"/>
<path d="M498.646 480.989C437.12 481.652 368.11 481.652 306.585 480.989C368.11 480.325 437.12 480.325 498.646 480.989Z" fill="#263238"/>
<path d="M498.646 486.903C437.12 487.566 368.11 487.566 306.585 486.903C368.11 486.24 437.12 486.24 498.646 486.903Z" fill="#263238"/>
<path d="M498.646 492.817C437.12 493.48 368.11 493.48 306.585 492.817C368.11 492.154 437.12 492.154 498.646 492.817Z" fill="#263238"/>
<path d="M498.646 474.858C437.12 475.521 368.11 475.521 306.585 474.858C368.11 474.195 437.12 474.195 498.646 474.858Z" fill="#263238"/>
<path opacity="0.2" d="M293.376 500.085H500.054V464.044H293.376V500.085Z" fill="#263238"/>
<path opacity="0.4" d="M252.219 474.857H62.7837V486.903H252.219V474.857Z" fill="white"/>
<path d="M438.811 506.99L430.382 505.805C431.873 495.294 440.665 475.397 463.16 475.397C489.784 475.397 503.048 490.764 504.367 506.035L495.938 506.761C494.963 495.351 484.413 483.826 463.141 483.826C441.869 483.826 439.021 506.054 438.83 506.99H438.811Z" fill="#263238"/>
<path d="M537.45 499.575H400.49C392.996 499.575 386.92 505.65 386.92 513.145V583.976C386.92 591.47 392.996 597.545 400.49 597.545H537.45C544.945 597.545 551.02 591.47 551.02 583.976V513.145C551.02 505.65 544.945 499.575 537.45 499.575Z" fill="#263238"/>
<path opacity="0.2" d="M537.45 499.575H400.49C392.996 499.575 386.92 505.65 386.92 513.145V583.976C386.92 591.47 392.996 597.545 400.49 597.545H537.45C544.945 597.545 551.02 591.47 551.02 583.976V513.145C551.02 505.65 544.945 499.575 537.45 499.575Z" fill="white"/>
<path d="M504.424 599.056C388.412 599.056 382.792 519.49 382.792 518.649L387.513 509.437C387.704 512.38 396.84 590.57 504.52 590.57C548.842 590.57 587.086 590.57 590.966 582.141C594.368 574.687 577.759 555.555 551.116 524.899V513.03C585.06 552.115 604.287 573.139 598.649 585.543C592.686 598.559 567.056 599.056 504.444 599.056H504.424Z" fill="#263238"/>
<path d="M657.735 536.311H647.032V571.497H657.735V536.311Z" fill="#263238"/>
<path d="M652.25 541.968C635.603 541.968 619.224 537.858 604.545 529.984L609.61 520.562C653.798 544.166 708.747 527.5 732.351 483.311C743.837 461.81 746.188 436.581 738.868 413.321C736.001 404.109 731.644 395.413 726.005 387.596C717.921 376.358 707.371 367.126 695.158 360.571L700.203 351.148C705.823 354.168 711.174 357.704 716.143 361.718C723.177 367.394 729.407 373.988 734.683 381.327C741.009 390.081 745.863 399.79 749.074 410.091C765.912 463.511 736.269 520.466 682.849 537.304C672.949 540.42 662.628 542.006 652.25 542.006V541.968Z" fill="#263238"/>
<g opacity="0.3">
<path d="M652.25 541.968C635.603 541.968 619.224 537.858 604.545 529.984L609.61 520.562C653.798 544.166 708.747 527.5 732.351 483.311C743.837 461.81 746.188 436.581 738.868 413.321C736.001 404.109 731.644 395.413 726.005 387.596C717.921 376.358 707.371 367.126 695.158 360.571L700.203 351.148C705.823 354.168 711.174 357.704 716.143 361.718C723.177 367.394 729.407 373.988 734.683 381.327C741.009 390.081 745.863 399.79 749.074 410.091C765.912 463.511 736.269 520.466 682.849 537.304C672.949 540.42 662.628 542.006 652.25 542.006V541.968Z" fill="white"/>
</g>
<path d="M601.105 538.91C600.666 538.91 600.226 538.814 599.844 538.585C598.582 537.878 598.085 536.311 598.754 535.011L701.331 343.657C702.019 342.357 703.644 341.86 704.943 342.548C706.243 343.236 706.74 344.861 706.052 346.16L603.456 537.438C602.997 538.317 602.099 538.872 601.105 538.891V538.91Z" fill="#263238"/>
<g opacity="0.4">
<path d="M601.105 538.91C600.666 538.91 600.226 538.814 599.844 538.585C598.582 537.878 598.085 536.311 598.754 535.011L701.331 343.657C702.019 342.357 703.644 341.86 704.943 342.548C706.243 343.236 706.74 344.861 706.052 346.16L603.456 537.438C602.997 538.317 602.099 538.872 601.105 538.891V538.91Z" fill="white"/>
</g>
<path d="M632.832 568.897H671.936C674.555 568.897 676.676 571.019 676.676 573.637V582.372H628.092V573.637C628.092 571.019 630.214 568.897 632.813 568.897H632.832Z" fill="#263238"/>
<path d="M656.398 362.444C699.535 364.661 732.714 401.434 730.516 444.57C728.299 487.707 691.526 520.887 648.39 518.689C605.253 516.472 572.073 479.699 574.271 436.562C576.488 393.406 613.261 360.246 656.398 362.444Z" fill="url(#paint3_linear_56_1296)"/>
<path opacity="0.2" d="M676.829 366.324C677.957 389.852 670.407 415.252 653.875 437.079C635.565 461.237 610.05 475.953 584.611 479.661C563.09 442.182 576.03 394.343 613.49 372.822C632.736 361.775 655.748 359.405 676.829 366.324Z" fill="white"/>
<g opacity="0.3">
<path d="M632.832 568.897H671.936C674.555 568.897 676.676 571.019 676.676 573.637V582.372H628.092V573.637C628.092 571.019 630.214 568.897 632.813 568.897H632.832Z" fill="white"/>
</g>
<path d="M611.732 579.811H693.055C696.113 579.811 698.579 582.276 698.579 585.334V594.413H606.208V585.334C606.208 582.276 608.674 579.811 611.732 579.811Z" fill="#263238"/>
<g opacity="0.4">
<path d="M611.732 579.811H693.055C696.113 579.811 698.579 582.276 698.579 585.334V594.413H606.208V585.334C606.208 582.276 608.674 579.811 611.732 579.811Z" fill="white"/>
</g>
<path d="M366.743 24.2021L378.574 19.6248C392.837 13.3443 405.285 16.3256 414.01 25.6077C422.735 34.8899 426.851 47.795 427.405 60.5273C427.764 68.7251 426.926 77.4546 430.757 84.6857C433.165 88.5818 436.175 92.0719 439.675 95.0263C443.183 97.99 446.019 101.668 447.992 105.815C449.694 110.066 449.443 115.401 446.21 118.696C444.663 119.862 443.249 121.195 441.993 122.67C440.531 124.897 440.908 127.816 440.956 130.487C441.091 136.827 439.08 143.026 435.248 148.078C431.417 153.131 425.991 156.74 419.85 158.321C413.709 159.901 407.214 159.36 401.42 156.784C395.625 154.209 390.871 149.751 387.929 144.134C383.654 136.119 383.634 126.675 383.282 117.639C382.042 85.8866 376.478 54.4512 366.743 24.2021Z" fill="#263238"/>
<path d="M339.275 11.5092C349.518 7.56728 359.649 9.78576 369.789 13.9509C379.943 18.31 388.522 25.6702 394.374 35.044C400.764 44.7867 403.801 56.348 403.025 67.9734C402.581 73.7368 400.977 79.3512 398.309 84.479C395.641 89.6069 391.964 94.1426 387.499 97.8135C375.115 107.585 357.003 108.692 342.792 101.847C328.582 95.0012 318.427 80.9913 314.719 65.6696C312.012 55.0551 312.71 43.858 316.715 33.662C318.75 28.6108 321.802 24.0325 325.683 20.212C329.563 16.3915 334.188 13.4106 339.271 11.4549" fill="#263238"/>
<path d="M376.685 41.4865C374.331 37.7418 374.017 33.0894 372.54 28.9113C369.282 19.7238 360.14 13.6778 350.579 11.76C341.683 9.9714 331.819 12.7366 322.565 17.9106C316.125 21.3772 310.802 26.602 307.215 32.9767C304.981 37.2662 303.807 42.0284 303.792 46.8647C303.776 51.701 304.919 56.4708 307.125 60.7748L354.101 44.0402C359.385 46.8793 364.801 49.7626 370.721 50.7495C372.445 51.1325 374.24 51.0594 375.927 50.5372C376.774 50.2652 377.522 49.7525 378.082 49.0617C378.641 48.3709 378.987 47.532 379.077 46.6477C379.141 44.6953 377.705 43.1164 376.685 41.4865Z" fill="#263238"/>
<path d="M324.205 31.4853L368.271 31.9979C370.271 31.7206 372.303 32.2103 373.958 33.3687C375.612 34.5271 376.768 36.2685 377.192 38.2434L395.076 129.827C396.282 136.067 395.407 142.53 392.585 148.224L389.603 154.23C382.789 167.928 363.918 170.479 354.244 158.633C353.667 157.967 353.18 157.228 352.796 156.436C352.476 155.793 352.204 155.127 351.983 154.444L349.469 145.689C347.411 137.626 345.7 129.353 345.705 129.425C345.711 129.498 327.972 130.721 319.051 109.315C314.574 98.75 310.79 80.3951 308.143 65.3535C305.668 51.8088 310.517 33.2977 324.205 31.4853Z" fill="#FFBF9D"/>
<path d="M317.768 83.0089C317.939 83.7548 318.397 84.4034 319.043 84.8152C319.688 85.227 320.469 85.369 321.218 85.2107C321.589 85.1542 321.944 85.0236 322.263 84.8267C322.583 84.6298 322.859 84.3708 323.076 84.0649C323.293 83.759 323.446 83.4125 323.526 83.0462C323.606 82.6799 323.612 82.3012 323.543 81.9326C323.37 81.1855 322.913 80.5351 322.268 80.1204C321.623 79.7057 320.842 79.5594 320.091 79.7127C319.722 79.7762 319.369 79.9119 319.052 80.112C318.735 80.3122 318.461 80.5727 318.245 80.8789C318.03 81.1851 317.876 81.5308 317.794 81.8963C317.712 82.2618 317.703 82.6399 317.768 83.0089Z" fill="#263238"/>
<path d="M314.276 73.8582C314.718 74.1508 316.497 72.0261 319.533 71.2942C322.569 70.5623 325.232 71.5525 325.469 71.0969C325.706 70.6413 325.079 70.3088 323.912 69.8189C322.359 69.2208 320.66 69.1201 319.048 69.5309C317.447 69.9011 316.009 70.7815 314.951 72.0394C314.226 72.9887 314.066 73.7293 314.276 73.8582Z" fill="#263238"/>
<path d="M345.25 77.5009C345.422 78.2481 345.879 78.8984 346.524 79.3131C347.169 79.7278 347.95 79.8741 348.702 79.7208C349.07 79.6621 349.424 79.53 349.741 79.3323C350.058 79.1346 350.332 78.8753 350.547 78.5698C350.762 78.2643 350.914 77.9188 350.993 77.5537C351.072 77.1886 351.077 76.8113 351.008 76.4441C350.836 75.7005 350.382 75.0529 349.741 74.6384C349.1 74.2238 348.323 74.0748 347.574 74.2228C347.204 74.2794 346.848 74.41 346.529 74.6068C346.21 74.8037 345.933 75.0628 345.717 75.3687C345.5 75.6746 345.346 76.021 345.266 76.3873C345.186 76.7537 345.18 77.1324 345.25 77.5009Z" fill="#263238"/>
<path d="M343.523 67.1912C343.965 67.4838 345.744 65.3591 348.78 64.6272C351.816 63.8953 354.46 64.8869 354.715 64.4299C354.97 63.9729 354.307 63.6433 353.16 63.17C351.61 62.5583 349.908 62.4512 348.294 62.8639C346.693 63.2341 345.255 64.1145 344.198 65.3724C343.454 66.3231 343.294 67.0637 343.523 67.1912Z" fill="#263238"/>
<path d="M338.872 92.5661C337.126 92.4968 335.377 92.6354 333.663 92.9788C332.867 93.0418 332.09 93.1034 331.813 92.5976C331.542 91.8048 331.525 90.9473 331.764 90.1445C332.055 88.0649 332.338 85.8949 332.648 83.6135C333.733 74.3367 334.445 66.7821 334.078 66.7384C333.71 66.6947 332.444 74.1477 331.29 83.4664C331.015 85.7449 330.77 87.9301 330.516 90.0068C330.219 91.0642 330.309 92.1924 330.768 93.1899C330.947 93.4397 331.18 93.6454 331.45 93.7911C331.72 93.9369 332.02 94.0189 332.327 94.031C332.794 94.0508 333.262 94.0137 333.72 93.9207C335.49 93.7014 337.223 93.2459 338.872 92.5661Z" fill="#263238"/>
<path d="M345.617 129.45C356.151 127.093 365.819 121.846 373.536 114.298C373.536 114.298 369.768 131.523 346.988 134.82L345.617 129.45Z" fill="#FF9A6C"/>
<path d="M342.057 99.6844C342.462 98.8082 343.083 98.05 343.863 97.4817C344.643 96.9134 345.556 96.554 346.514 96.4376C347.206 96.3331 347.913 96.371 348.59 96.5489C349.268 96.7268 349.902 97.041 350.454 97.4722C350.98 97.8797 351.369 98.4381 351.569 99.0728C351.769 99.7075 351.77 100.388 351.572 101.024C351.218 101.697 350.668 102.248 349.994 102.604C349.321 102.959 348.556 103.103 347.799 103.015C346.216 102.832 344.685 102.335 343.297 101.552C342.891 101.392 342.52 101.156 342.204 100.856C342.048 100.715 341.939 100.531 341.89 100.327C341.841 100.122 341.856 99.9082 341.932 99.7125" fill="#FF9A6C"/>
<path d="M348.517 92.5484C348.01 92.5885 348.787 95.9666 346.518 99.022C344.248 102.077 340.611 102.566 340.691 103.124C340.772 103.681 341.637 103.576 343.159 103.256C345.119 102.805 346.859 101.682 348.076 100.082C349.214 98.5375 349.714 96.6142 349.471 94.7114C349.315 93.2131 348.729 92.4769 348.517 92.5484Z" fill="#263238"/>
<path d="M340.121 56.4134C340.636 57.1734 343.603 56.0283 347.337 55.6051C351.071 55.1819 354.185 55.4447 354.535 54.5798C354.667 54.169 353.976 53.4957 352.584 52.9144C350.776 52.2924 348.847 52.1024 346.952 52.3596C345.052 52.5816 343.233 53.2562 341.648 54.3268C340.409 55.2258 339.913 56.0841 340.121 56.4134Z" fill="#263238"/>
<path d="M310.504 60.4708C311.204 61.0341 313.143 59.7885 315.677 59.1509C318.211 58.5134 320.501 58.4775 320.817 57.6335C320.948 57.2227 320.444 56.6075 319.335 56.1675C317.881 55.6812 316.314 55.64 314.836 56.0489C313.357 56.4578 312.034 57.2983 311.036 58.463C310.309 59.3942 310.178 60.26 310.504 60.4708Z" fill="#263238"/>
<path d="M383.106 33.4069C376.132 21.4199 353.479 7.70849 340.178 11.656L321.471 29.3723C322.994 32.8962 325.438 35.9445 328.547 38.1964C331.656 40.4482 335.315 41.8204 339.138 42.1684C343.203 42.4833 347.862 41.7866 350.867 44.5696C353.872 47.3527 353.648 52.5755 356.577 55.5466C360.546 59.6911 368.737 57.6408 372.129 62.3223C373.602 64.3714 373.697 67.1848 375.203 69.1949C377.237 71.8911 385.649 74.0092 388.555 72.323C391.461 70.6368 390.291 65.2878 390.689 62.2715C391.283 58.8315 390.668 55.2919 388.949 52.2539C386.162 46.2504 386.435 39.1309 383.106 33.4069Z" fill="#263238"/>
<path d="M379.899 77.0124C379.513 75.3504 378.979 72.9722 380.438 72.0922C384.797 69.4537 394.215 67.0331 396.963 78.0628C400.73 93.2159 384.747 93.8634 384.622 93.4365C384.497 93.0096 381.262 82.7283 379.899 77.0124Z" fill="#FFBF9D"/>
<path d="M387.829 86.5945C387.829 86.5945 388.13 86.7163 388.63 86.8223C389.324 86.924 390.032 86.7642 390.615 86.3738C392.065 85.3853 392.788 82.5617 392.183 79.7523C391.875 78.4785 391.303 77.2837 390.504 76.2454C390.24 75.8116 389.877 75.4465 389.444 75.1802C389.012 74.9139 388.523 74.754 388.016 74.7135C387.693 74.7125 387.38 74.8222 387.127 75.0243C386.875 75.2264 386.7 75.5087 386.63 75.8243C386.541 76.3046 386.69 76.5839 386.693 76.6201C386.696 76.6563 386.298 76.4512 386.264 75.7987C386.262 75.4007 386.392 75.0131 386.632 74.6958C386.972 74.2804 387.459 74.0134 387.992 73.951C388.644 73.9213 389.293 74.0587 389.876 74.3501C390.46 74.6415 390.96 75.0772 391.327 75.6159C392.303 76.7649 392.98 78.1364 393.3 79.6092C393.962 82.687 393.109 85.9214 391.07 87.0657C390.694 87.2884 390.272 87.4221 389.836 87.4567C389.4 87.4912 388.962 87.4256 388.556 87.2649C387.932 86.9686 387.778 86.635 387.829 86.5945Z" fill="#FF9A6C"/>
<path d="M324.985 23.8705C324.826 30.3622 316.982 40.2473 313.792 45.9236C307.736 56.7772 306.784 60.1468 311.096 80.8076C305.912 74.4116 301.654 67.9968 300.333 59.8207C298.877 51.6489 300.456 43.2267 304.772 36.1369C306.961 32.6422 309.936 29.7074 313.46 27.567C316.985 25.4265 320.961 24.1396 325.071 23.8091" fill="#263238"/>
<path d="M388.108 29.0063C378.333 17.041 366.679 11.2123 356.478 9.94573Z" fill="#263238"/>
<path d="M396.218 88.1864C396.44 87.9579 396.633 87.7043 396.796 87.4309C397.329 86.6659 397.813 85.8677 398.244 85.0411C399.839 82.0046 400.961 78.7428 401.573 75.3681C402.435 70.3625 402.68 65.2699 402.301 60.2047C401.996 53.9647 400.397 47.8563 397.604 42.268C394.935 36.6056 391.454 31.3633 387.271 26.7069C383.893 22.8893 380.035 19.5245 375.794 16.6963C372.921 14.8359 369.838 13.3208 366.61 12.1825C365.47 11.7996 364.574 11.5248 363.943 11.3745C363.64 11.2697 363.322 11.209 363.001 11.1944C363.001 11.1944 364.257 11.6591 366.474 12.539C369.619 13.7977 372.619 15.3905 375.423 17.2899C379.558 20.1579 383.322 23.5276 386.628 27.322C390.732 31.9233 394.156 37.0882 396.797 42.6594C399.547 48.1408 401.143 54.1282 401.485 60.2511C401.898 65.2549 401.722 70.2897 400.963 75.2527C400.42 78.5852 399.415 81.8257 397.977 84.8803C396.892 87.041 396.124 88.1393 396.218 88.1864Z" fill="url(#paint4_linear_56_1296)"/>
<path d="M334.225 291.42C334.225 291.42 245.191 288.41 230.528 287.115C202.558 284.617 175.312 291.271 165.472 315.928C160.996 327.203 169.407 347.448 186.796 361.558C199.791 372.14 264.513 428 264.513 428L312.462 381.049L244.991 336.655L369.565 344.202L334.225 291.42Z" fill="#263238"/>
<path d="M250.651 399.378L286.455 431.594C286.455 431.594 265.109 479.403 271.13 486.024L337.336 417.753L283.647 365.15L250.651 399.378Z" fill="#263238"/>
<path d="M304.016 407.689C304.837 407.218 305.804 407.07 306.728 407.272C307.653 407.475 308.469 408.014 309.017 408.786C309.497 409.605 309.647 410.576 309.436 411.502C309.226 412.428 308.67 413.24 307.883 413.771C307.012 414.268 305.987 414.42 305.009 414.197C304.031 413.975 303.172 413.394 302.601 412.57C302.185 411.665 302.135 410.634 302.46 409.693C302.786 408.751 303.462 407.972 304.349 407.517" fill="#E0E0E0"/>
<path d="M337.337 417.753L331.91 412.432L270.115 480.335C269.695 482.313 270.054 484.377 271.117 486.098L337.337 417.753Z" fill="url(#paint5_linear_56_1296)"/>
<path d="M285.028 432.417C285.379 432.716 287.133 431.194 289.778 430.584C292.424 429.974 294.661 430.416 294.827 429.984C294.993 429.552 292.612 428.212 289.419 429.029C286.225 429.847 284.664 432.191 285.028 432.417Z" fill="white"/>
<path d="M281.052 442.414C281.3 442.794 283.266 441.874 285.736 442.042C288.206 442.211 290.007 443.342 290.324 442.989C290.642 442.637 288.973 440.639 285.883 440.448C282.792 440.256 280.699 442.096 281.052 442.414Z" fill="white"/>
<path d="M285.479 454.657C285.842 454.41 284.66 452.356 282.042 451.472C279.424 450.587 277.182 451.456 277.322 451.846C277.462 452.235 279.354 452.231 281.489 452.99C283.624 453.749 285.139 454.957 285.479 454.657Z" fill="white"/>
<path d="M277.784 424.145C278.214 424.293 279.241 422.319 281.139 420.549C283.037 418.779 285.114 417.886 284.988 417.441C284.861 416.996 282.335 417.269 280.063 419.378C277.792 421.487 277.286 424.057 277.784 424.145Z" fill="white"/>
<path d="M226.351 395.188C226.56 395.456 226.799 395.699 227.063 395.914L229.169 397.913L237.135 404.962L264.223 428.477L264.555 428.76L264.859 428.463L270.831 422.53L300.426 393.377L309.22 384.472L311.609 382.008C311.898 381.733 312.16 381.432 312.394 381.109C312.061 381.332 311.752 381.588 311.471 381.873L308.962 384.202L299.861 392.912L270.087 421.861L264.114 427.794L264.747 427.744L237.42 404.43L229.273 397.613L227.037 395.807C226.832 395.575 226.602 395.367 226.351 395.188Z" fill="url(#paint6_linear_56_1296)"/>
<path d="M150.98 398.338L110.603 440.012L69.2088 463.802C68.5033 464.206 67.8884 464.751 67.4022 465.402C66.916 466.054 66.5689 466.799 66.3824 467.59C66.196 468.381 66.1741 469.202 66.3182 470.002C66.4623 470.802 66.7693 471.564 67.2201 472.241C67.7437 473.03 68.4493 473.683 69.2775 474.143C70.1058 474.603 71.0325 474.858 71.9795 474.885C84.2366 475.224 129.341 476.219 132.125 472.995C135.344 469.282 177.568 431.849 177.568 431.849L150.98 398.338Z" fill="#263238"/>
<path d="M67.2745 472.236L134.965 470.24L132.18 472.99C131.564 473.554 130.838 473.982 130.048 474.249C129.257 474.515 128.419 474.613 127.589 474.537C121.928 474.986 106.247 475.773 72.1538 475.016C71.1752 474.987 70.2187 474.718 69.368 474.234C68.5173 473.749 67.7985 473.063 67.2745 472.236Z" fill="url(#paint7_linear_56_1296)"/>
<g opacity="0.6">
<path d="M133.676 453.744C132.801 453.613 131.908 453.806 131.165 454.287C130.422 454.768 129.881 455.504 129.643 456.357C129.474 457.222 129.642 458.119 130.114 458.864C130.586 459.608 131.326 460.144 132.18 460.36C133.106 460.512 134.055 460.313 134.842 459.803C135.629 459.294 136.199 458.509 136.439 457.602C136.518 456.677 136.239 455.756 135.66 455.03C135.082 454.304 134.246 453.828 133.327 453.699" fill="white"/>
</g>
<path d="M94.6206 463.863C94.2836 463.744 95.515 460.68 94.2656 457.085C93.0161 453.489 90.2027 451.747 90.4691 451.434C90.7356 451.122 91.3849 451.507 92.4694 452.331C93.8632 453.466 94.9046 454.974 95.4717 456.68C96.0388 458.385 96.1079 460.217 95.671 461.96C95.2483 463.286 94.7544 463.944 94.6206 463.863Z" fill="white"/>
<path d="M86.1938 466.388C85.8321 466.416 85.8551 463.721 84.3713 461.072C82.8874 458.423 80.7061 456.849 80.8988 456.524C81.0915 456.2 83.8381 457.329 85.4887 460.474C87.1392 463.619 86.5113 466.49 86.1938 466.388Z" fill="white"/>
<path d="M107.113 462.346C106.715 462.377 106.79 458.276 104.835 453.809C102.879 449.341 99.9478 446.57 100.216 446.276C100.484 445.982 104.031 448.485 106.015 453.315C107.999 458.144 107.411 462.431 107.113 462.346Z" fill="white"/>
<path d="M120.422 450.699C120.069 450.836 118.776 447.608 115.948 444.538C113.12 441.468 110.114 439.814 110.255 439.529C110.396 439.245 113.964 440.4 116.885 443.736C119.807 447.072 120.745 450.637 120.422 450.699Z" fill="white"/>
<path d="M129.561 443.151C129.181 443.181 128.298 439.611 125.057 436.61C121.816 433.609 118.191 432.877 118.289 432.505C118.387 432.133 119.272 432.282 120.761 432.691C122.695 433.275 124.466 434.302 125.934 435.689C127.402 437.076 128.527 438.787 129.22 440.684C129.722 442.191 129.704 443.121 129.561 443.151Z" fill="white"/>
<path d="M478.19 319.507C477.478 321.784 487.006 392.427 419.706 398.195C359.293 403.382 273.607 354.425 264.61 358.705C258.736 361.518 161.649 460.409 161.649 460.409L120.425 419.268C120.425 419.268 209.661 319.379 218.633 312.026C237.836 296.199 252.133 295.176 286.054 298.585C316.417 301.64 391.647 320.158 391.647 320.158L398.239 313.539L478.19 319.507Z" fill="#263238"/>
<path d="M308.305 304.011C308.305 304.011 307.911 303.86 307.129 303.631L303.664 302.632C300.595 301.801 296.062 300.632 290.127 299.464C282.923 298.033 275.63 297.085 268.299 296.625C263.708 296.316 259.1 296.365 254.516 296.771C249.372 297.259 244.298 298.314 239.386 299.917C228.049 303.62 217.773 310.003 209.43 318.524C200.803 327.944 191.843 338.208 182.262 348.904L120.03 418.881L119.747 419.213L120.064 419.533C121.845 421.34 123.782 423.279 125.737 425.217C131.828 431.341 138.144 437.556 144.365 443.251C150.586 448.946 156.194 454.726 161.996 460.418L161.877 460.755L216.95 404.941C225.286 396.455 233.188 388.458 240.532 380.997L251.145 370.237C252.828 368.502 254.515 366.821 256.204 365.177C257.012 364.349 257.801 363.504 258.635 362.782C259.465 362.076 260.368 361.462 261.329 360.949C263.152 359.984 265.158 359.419 267.216 359.29C269.274 359.162 271.336 359.473 273.264 360.204L283.616 364.297L300.132 370.833L310.501 374.907L313.184 375.932L314.12 376.258C314.12 376.258 313.817 376.1 313.233 375.855L310.56 374.739L300.253 370.532L283.8 363.864L273.46 359.697C270.922 358.72 268.166 358.449 265.486 358.911C262.805 359.373 260.3 360.552 258.235 362.323C257.349 363.084 256.541 363.913 255.75 364.722L250.689 369.763L240.037 380.49L216.449 404.362L161.278 460.093L161.14 460.413C155.441 454.64 149.529 448.702 143.8 442.55C138.071 436.397 132.457 430.545 126.388 424.474L120.793 418.857L120.844 419.508L183.016 349.464C192.577 338.751 201.535 328.45 210.09 319.054C218.325 310.645 228.451 304.327 239.624 300.626C244.495 299.026 249.523 297.957 254.623 297.436C259.174 297.017 263.751 296.952 268.312 297.243C275.628 297.649 282.909 298.538 290.108 299.902C296.038 301.016 300.585 302.13 303.65 302.906L307.143 303.812C307.935 303.931 308.305 304.011 308.305 304.011Z" fill="url(#paint8_linear_56_1296)"/>
<path d="M332.779 143.608C332.779 143.608 311.145 154.24 310 173.331C309.04 189.241 317.263 230.776 317.416 233.621C317.697 236.092 317.043 238.578 315.584 240.591C313.079 243.755 311.878 247.757 312.23 251.777C312.272 254.479 312.956 257.132 314.226 259.517C317.117 263.62 344.09 290.275 344.09 290.275L362.425 242.832C362.425 242.832 344.566 201.186 344.479 200.083C344.391 198.979 332.779 143.608 332.779 143.608Z" fill="url(#paint9_linear_56_1296)"/>
<path d="M316.351 257.402C315.421 257.603 285.022 283.034 285.022 283.034C285.022 283.034 275.951 268.465 272.388 268.292C268.826 268.119 258.305 273.157 257.437 274.372C256.569 275.588 254.468 275.954 252.35 276.322C250.231 276.691 246.892 282.324 246.892 282.324L240.088 288.323C240.088 288.323 242.702 292.375 243.356 293.051C244.01 293.727 248.679 291.319 248.617 290.541C248.555 289.763 248.379 295.346 252.154 295.211C255.147 294.801 258.018 293.754 260.574 292.142L261.334 285.657L270.185 278.841L271.792 284.883C271.792 284.883 262.486 287.568 263.04 290.654C263.192 291.536 263.589 292.358 264.186 293.025C264.783 293.692 265.555 294.178 266.415 294.427L274.215 293.645L291.742 296.406C291.742 296.406 336.058 282.849 337.298 277.6C338.538 272.351 329.431 254.564 316.351 257.402Z" fill="#FFBF9D"/>
<path d="M323.179 250.934C319.501 254.582 308.776 254.884 307.244 259.834C305.617 264.567 285.341 282.008 285.341 282.008L303.931 294.749C303.931 294.749 340.44 293.367 341.711 287.824C342.983 282.282 333.395 264.647 333.395 264.647L323.179 250.934Z" fill="url(#paint10_linear_56_1296)"/>
<path d="M342.724 306.344C342.575 307.12 342.136 307.81 341.497 308.273C340.857 308.736 340.065 308.938 339.281 308.837L274.884 300.017L219.733 294.431L218.898 289.638L271.432 292.974L340.107 302.711C340.521 302.77 340.919 302.912 341.277 303.128C341.635 303.344 341.945 303.63 342.19 303.97C342.434 304.309 342.608 304.694 342.699 305.102C342.791 305.51 342.8 305.933 342.724 306.344Z" fill="#E0E0E0"/>
<path d="M236.492 220.886L271.669 293.446C271.987 294.105 272.126 294.837 272.07 295.567C272.015 296.296 271.768 296.998 271.354 297.602C270.94 298.206 270.374 298.689 269.713 299.004C269.052 299.318 268.32 299.452 267.591 299.393L202.079 292.59C201.362 292.529 200.674 292.281 200.082 291.871C199.491 291.462 199.017 290.904 198.709 290.254L163.488 218.299C163.324 217.962 163.249 217.589 163.269 217.215C163.29 216.841 163.404 216.478 163.603 216.16C163.801 215.843 164.077 215.581 164.404 215.399C164.732 215.217 165.1 215.121 165.475 215.12L232.777 218.56C233.552 218.561 234.311 218.779 234.968 219.191C235.624 219.602 236.152 220.19 236.492 220.886Z" fill="#E0E0E0"/>
<path d="M229.684 218.805C229.439 218.934 237.933 237.006 248.624 259.164C259.316 281.321 268.182 299.273 268.428 299.163C268.674 299.052 260.179 280.961 249.469 258.806C238.76 236.65 229.912 218.696 229.684 218.805Z" fill="#263238"/>
<path d="M216.321 255.499C218.416 258.973 218.603 262.707 216.71 263.858C214.818 265.009 211.592 263.117 209.497 259.643C207.402 256.169 207.197 252.436 209.091 251.303C210.985 250.17 214.208 252.026 216.321 255.499Z" fill="white"/>
<path d="M340.734 294.781C340.734 294.781 344.257 272.171 342.867 268.186C338.902 256.725 320.917 228.43 320.818 210.638C320.719 192.847 332.779 143.607 332.779 143.607L347.482 137.146C354.651 149.992 378.144 145.127 396.277 127.984L420.939 130.981L468.288 246.219L478.176 288.787C495.178 307.66 478.261 319.72 478.261 319.72C478.261 319.72 449.729 331.263 426.214 328.958C408.662 327.255 382.445 317.029 376.433 313.046C362.045 303.503 340.618 305.947 340.618 305.947L340.734 294.781Z" fill="url(#paint11_linear_56_1296)"/>
<path d="M383.286 292.502L367.956 300.232C367.956 300.232 358.732 295.685 357.409 295.298C349.911 294.525 342.374 294.199 334.837 294.32C332.385 294.571 329.917 294.614 327.458 294.45L349.404 305.669L364.06 322.271C367.802 323.177 371.656 323.54 375.502 323.348C381.326 322.887 394.807 318.47 394.807 318.47L383.286 292.502Z" fill="#FFBF9D"/>
<path d="M417.872 130.86C417.872 130.86 445.8 130.303 457.343 151.72C465.045 165.997 483.575 230.121 486.581 241.876C489.587 253.631 488.676 268.318 479.722 276.598C470.769 284.879 394.242 324.884 394.242 324.884L375.209 294.379L438.732 247.596L440.902 247.424L429.115 200.183" fill="url(#paint12_linear_56_1296)"/>
<path d="M429.114 200.165C429.114 200.165 429.135 200.437 429.18 200.997L429.751 203.391C430.267 205.534 431.006 208.66 431.98 212.678C433.989 220.818 436.873 232.638 440.524 247.472L440.787 247.124L438.527 247.303L374.886 293.986L374.56 294.23L374.768 294.56C380.815 304.272 387.177 314.506 393.785 325.084L393.995 325.45L394.379 325.238C409.915 317.109 426.45 308.283 443.365 298.953C450.061 295.255 456.633 291.538 463.083 287.799C466.282 285.908 469.463 284.018 472.566 282.061C475.764 280.245 478.713 278.023 481.342 275.451C483.764 272.688 485.573 269.444 486.648 265.931C487.734 262.552 488.331 259.036 488.424 255.489C488.503 252.028 488.229 248.567 487.605 245.162C487.01 241.787 486.046 238.57 485.191 235.361C481.633 222.612 478.021 210.559 474.544 199.296C471.067 188.033 467.657 177.602 464.288 168.168C462.605 163.46 460.904 158.991 459.101 154.838C457.376 150.917 455.03 147.299 452.155 144.123C449.565 141.453 446.621 139.151 443.405 137.282C440.686 135.747 437.825 134.48 434.861 133.5C430.762 132.142 426.521 131.257 422.221 130.861C420.756 130.741 419.625 130.703 418.877 130.689C418.496 130.695 418.115 130.725 417.738 130.779L418.871 130.835C419.639 130.884 420.701 130.963 422.223 131.116C426.489 131.58 430.689 132.516 434.748 133.909C437.677 134.901 440.503 136.176 443.185 137.718C446.343 139.59 449.231 141.883 451.769 144.536C454.589 147.681 456.882 151.26 458.56 155.136C460.326 159.273 462.007 163.726 463.656 168.455C466.988 177.891 470.344 188.327 473.785 199.593C477.226 210.859 480.818 222.895 484.358 235.646C485.195 238.856 486.159 242.073 486.731 245.377C487.359 248.714 487.628 252.11 487.533 255.505C487.288 262.295 485.437 269.485 480.671 274.794C478.09 277.296 475.205 279.463 472.082 281.244C468.996 283.181 465.816 285.071 462.615 286.945C456.176 290.67 449.615 294.381 442.932 298.077C426.017 307.407 409.481 316.233 394.057 324.39L394.653 324.561L375.602 294.057L375.501 294.629L438.926 247.745L438.781 247.756L440.951 247.584L441.295 247.557L441.268 247.213L432.37 212.556C431.343 208.543 430.531 205.422 429.981 203.3C429.718 202.283 429.512 201.517 429.356 200.929C429.2 200.341 429.114 200.165 429.114 200.165Z" fill="#263238"/>
<path d="M320.217 172.503C320.127 172.51 320.73 174.155 321.297 177.167C321.623 178.998 321.83 180.848 321.917 182.706C322.089 184.876 321.94 187.363 321.777 190.124C321.232 196.569 321.082 203.042 321.329 209.506C321.629 217.492 323.526 225.337 326.906 232.578C330.586 240.203 335.136 246.868 338.15 253.436C340.621 259.367 341.803 265.756 341.619 272.18C341.705 277.633 341.552 282.14 341.469 285.222C341.439 286.681 341.424 287.865 341.403 288.758C341.396 289.177 341.429 289.595 341.502 290.006C341.603 289.603 341.655 289.19 341.659 288.775C341.732 287.859 341.803 286.688 341.924 285.223C342.099 282.151 342.365 277.69 342.363 272.157C342.639 265.631 341.503 259.121 339.031 253.075C336.007 246.38 331.474 239.696 327.834 232.122C324.523 224.979 322.638 217.259 322.285 209.394C322.008 202.955 322.105 196.506 322.574 190.079C322.683 187.322 322.703 184.809 322.566 182.618C322.45 180.734 322.186 178.863 321.776 177.02C321.527 175.862 321.206 174.72 320.814 173.602C320.655 173.215 320.455 172.847 320.217 172.503Z" fill="#263238"/>
<path d="M419.388 177.568C419.569 177.553 418.502 175.108 417.724 171.038C417.267 168.657 417.039 166.237 417.043 163.813C417.079 160.847 417.418 157.893 418.055 154.997C419.283 149.725 421.528 144.743 424.664 140.332C427.072 136.956 428.988 135.184 428.85 135.05C428.334 135.375 427.863 135.767 427.45 136.216C426.231 137.359 425.112 138.605 424.105 139.939C420.747 144.334 418.362 149.393 417.11 154.78C416.464 157.753 416.143 160.787 416.152 163.829C416.19 166.305 416.489 168.77 417.044 171.183C417.244 172.118 417.5 173.039 417.809 173.944C418.009 174.628 418.263 175.296 418.568 175.94C418.774 176.514 419.05 177.061 419.388 177.568Z" fill="#263238"/>
<path d="M386.109 246.815C383.454 246.291 380.857 245.509 378.353 244.482C377.112 243.91 375.906 243.264 374.742 242.547C373.442 241.676 372.189 240.737 370.988 239.733C368.246 237.417 365.805 234.767 363.72 231.845C359.923 226.526 357.059 220.598 355.252 214.317C353.92 209.454 353.6 206.331 353.403 206.364C353.386 207.098 353.445 207.831 353.576 208.553C353.806 210.553 354.164 212.537 354.647 214.492C356.281 220.949 359.116 227.041 363.004 232.448C365.118 235.45 367.634 238.147 370.482 240.464C371.711 241.477 373.001 242.414 374.344 243.27C375.563 243.977 376.829 244.6 378.132 245.136C379.189 245.597 380.284 245.967 381.405 246.242C382.239 246.482 383.093 246.652 383.956 246.749C384.67 246.836 385.391 246.858 386.109 246.815Z" fill="#263238"/>
<path d="M459.096 254.701C456.452 251.991 453.163 249.997 449.537 248.906C446.034 247.527 442.243 247.039 438.505 247.487C442.148 247.964 445.746 248.738 449.262 249.802C452.669 251.163 455.958 252.802 459.096 254.701Z" fill="#263238"/>
<path d="M323.738 298.949C323.868 299.501 324.16 300.002 324.576 300.387C324.992 300.772 325.514 301.024 326.075 301.111C326.317 301.12 326.56 301.101 326.798 301.054C328.607 300.911 329.092 297.614 329.092 297.614L337.026 298.06C337.026 298.06 349.366 311.387 353.646 315.106C370.476 329.752 373.619 317.965 373.619 317.965L367.331 299.699L356.044 283.813C356.044 283.813 356.758 284.776 356.315 282.172C355.872 279.568 351.224 279.481 351.224 279.481C350.809 278.149 347.996 277.098 347.996 277.098L335.315 275.773C334.021 275.637 332.713 275.794 331.488 276.231C330.262 276.669 329.151 277.375 328.235 278.3L321.173 285.411C321.173 285.411 317.083 290.758 317.22 292.258C317.29 292.879 317.586 293.453 318.052 293.869C318.518 294.285 319.122 294.515 319.747 294.515C319.747 294.515 319.486 298.576 320.479 298.934C321.552 299.113 322.648 299.094 323.714 298.878L323.738 298.949Z" fill="#FFBF9D"/>
<path d="M352.663 293.054C352.673 293.18 351.012 292.657 348.337 292.195C344.866 291.593 341.329 291.475 337.826 291.845C335.9 292.053 333.993 292.411 332.123 292.916C330.453 293.43 328.733 293.767 328.01 294.752C327.849 294.965 327.747 295.216 327.714 295.48C327.68 295.745 327.717 296.014 327.82 296.259C327.973 296.66 328.241 297.005 328.59 297.254C329.169 297.663 329.635 297.572 329.624 297.664C329.613 297.755 329.171 297.918 328.411 297.523C327.968 297.282 327.617 296.9 327.415 296.437C327.257 296.123 327.185 295.773 327.209 295.422C327.232 295.071 327.35 294.733 327.549 294.443C328.032 293.788 328.705 293.296 329.475 293.034C330.234 292.738 331.049 292.455 331.921 292.204C337.298 290.631 342.985 290.437 348.456 291.64C349.921 291.9 351.339 292.376 352.663 293.054Z" fill="#FF9A6C"/>
<path d="M351.756 301.133C351.774 301.35 346.701 300.041 340.433 299.027C334.165 298.014 329.024 297.675 329.041 297.437C330.166 297.262 331.309 297.238 332.439 297.368C335.164 297.501 337.879 297.79 340.57 298.234C343.262 298.671 345.927 299.255 348.553 299.986C349.666 300.228 350.743 300.614 351.756 301.133Z" fill="#FF9A6C"/>
<path d="M323.878 298.646C323.866 298.19 323.909 297.735 324.007 297.289C324.204 296.07 324.473 294.864 324.813 293.677C325.041 292.84 325.342 292.024 325.712 291.239C326.146 290.32 326.762 289.497 327.522 288.821C329.152 287.212 331.088 285.945 333.214 285.094C335.311 284.225 337.523 283.664 339.78 283.427C341.618 283.309 343.463 283.432 345.269 283.793C346.82 284.071 348.046 284.392 348.882 284.599C349.33 284.675 349.765 284.819 350.171 285.025C348.498 284.904 346.833 284.683 345.187 284.364C343.412 284.089 341.611 284.024 339.821 284.17C337.638 284.439 335.503 285.006 333.475 285.856C331.438 286.667 329.575 287.858 327.984 289.367C326.698 290.588 325.775 292.141 325.318 293.855C324.384 296.768 324.045 298.688 323.878 298.646Z" fill="#FF9A6C"/>
<path d="M346.71 280.166C346.72 280.293 344.871 279.93 341.789 279.61C338.706 279.29 334.249 278.624 330.783 281.974C327.6 284.343 324.76 287.141 322.342 290.287C321.475 291.676 320.738 293.141 320.141 294.665C320.136 294.213 320.211 293.763 320.363 293.337C320.714 292.147 321.237 291.014 321.917 289.975C324.239 286.662 327.081 283.745 330.332 281.337C331.23 280.581 332.219 279.94 333.275 279.429C334.296 278.998 335.387 278.757 336.495 278.719C338.329 278.636 340.166 278.74 341.979 279.031C343.597 279.212 345.186 279.593 346.71 280.166Z" fill="#FF9A6C"/>
<path d="M346.049 308.574C345.831 308.343 345.629 308.098 345.445 307.839L343.73 305.718C341.583 303.122 339.285 300.654 336.847 298.329L337.01 298.316L329.062 297.926L329.405 297.663C329.296 298.305 329.107 298.931 328.843 299.527C328.59 300.189 328.148 300.761 327.573 301.175C327.226 301.356 326.835 301.438 326.445 301.41C326.075 301.424 325.706 301.366 325.358 301.241C324.645 300.956 324.056 300.429 323.693 299.753C323.591 299.588 323.51 299.411 323.451 299.226L323.432 298.991L323.854 299.267L323.565 299.29C323.203 299.319 322.842 299.347 322.48 299.376C322.118 299.405 321.756 299.433 321.395 299.462C321.196 299.453 320.999 299.426 320.806 299.381C320.555 299.357 320.318 299.255 320.128 299.089C319.842 298.755 319.658 298.347 319.597 297.912C319.54 297.535 319.51 297.154 319.507 296.772C319.456 296.016 319.451 295.256 319.491 294.499L319.869 294.906C319.324 294.905 318.789 294.754 318.324 294.47C317.858 294.186 317.48 293.779 317.23 293.295C316.988 292.774 316.941 292.183 317.098 291.631C317.259 291.145 317.459 290.673 317.696 290.218C318.684 288.463 319.798 286.781 321.028 285.186L324.714 281.4L327.107 278.99C327.869 278.145 328.718 277.383 329.639 276.714C330.613 276.097 331.699 275.677 332.835 275.478C333.93 275.327 335.042 275.343 336.133 275.527L348.009 276.806C348.678 277.065 349.315 277.399 349.908 277.802C350.593 278.179 351.129 278.779 351.426 279.502L351.026 279.279C351.72 279.13 352.44 279.151 353.124 279.341C353.807 279.531 354.435 279.883 354.953 280.369C355.803 281.349 356.254 282.612 356.216 283.909L356.202 283.728L363.998 294.612L366.056 297.616C366.317 297.952 366.547 298.312 366.742 298.69C366.429 298.394 366.152 298.062 365.917 297.7L363.705 294.818L355.87 284.136L355.861 284.028C355.89 282.883 355.483 281.771 354.723 280.915C354.287 280.506 353.756 280.212 353.179 280.058C352.602 279.903 351.995 279.894 351.413 280.031L351.106 280.055L351.083 279.766C350.809 279.23 350.381 278.788 349.854 278.498C349.281 278.143 348.678 277.837 348.053 277.585L336.092 276.385C335.073 276.217 334.035 276.201 333.012 276.338C331.98 276.507 330.993 276.889 330.116 277.459C329.242 278.095 328.439 278.824 327.722 279.633L325.329 282.043L321.42 285.774C320.226 287.337 319.14 288.979 318.17 290.69C317.947 291.091 317.767 291.514 317.633 291.952C317.527 292.325 317.559 292.723 317.722 293.074C317.902 293.427 318.176 293.723 318.513 293.931C318.851 294.138 319.239 294.249 319.635 294.251L320.033 294.219L320.063 294.599C320.021 295.326 320.024 296.055 320.072 296.782C320.055 297.404 320.198 298.019 320.487 298.569C320.585 298.624 320.693 298.658 320.804 298.672C320.961 298.709 321.121 298.727 321.282 298.725C321.615 298.726 321.947 298.699 322.276 298.646C322.622 298.646 322.966 298.619 323.307 298.564L323.579 298.543C323.197 298.318 324.077 298.867 323.983 298.82L323.993 298.947C324.033 299.089 324.093 299.225 324.17 299.351C324.446 299.885 324.906 300.302 325.464 300.523C325.735 300.623 326.023 300.668 326.312 300.656C326.571 300.72 326.844 300.698 327.09 300.594C327.96 299.809 328.52 298.738 328.671 297.575L328.649 297.304L328.92 297.282L336.859 297.782L336.967 297.773C339.383 300.155 341.639 302.694 343.721 305.373C344.433 306.318 344.967 307.095 345.316 307.595C345.599 307.89 345.845 308.219 346.049 308.574Z" fill="#FF9A6C"/>
<g opacity="0.3">
<path d="M354.72 214.723C356.618 221.308 359.679 227.5 363.758 233.007C368.605 239.284 374.29 242.347 381.346 245.955L381.868 246.114C377.829 246.48 373.761 245.879 370 244.361C366.239 242.843 362.894 240.451 360.241 237.383C357.588 234.315 355.704 230.66 354.744 226.72C353.784 222.779 353.776 218.667 354.72 214.723Z" fill="#263238"/>
</g>
<defs>
<linearGradient id="paint0_linear_56_1296" x1="330.318" y1="526.26" x2="330.318" y2="589.288" gradientUnits="userSpaceOnUse">
<stop stop-color="#F87731"/>
<stop offset="1" stop-color="#FFA828"/>
</linearGradient>
<linearGradient id="paint1_linear_56_1296" x1="295.867" y1="393.248" x2="295.867" y2="438.14" gradientUnits="userSpaceOnUse">
<stop stop-color="#F87731"/>
<stop offset="1" stop-color="#FFA828"/>
</linearGradient>
<linearGradient id="paint2_linear_56_1296" x1="259.934" y1="500.112" x2="259.934" y2="464.071" gradientUnits="userSpaceOnUse">
<stop stop-color="#F87731"/>
<stop offset="1" stop-color="#FFA828"/>
</linearGradient>
<linearGradient id="paint3_linear_56_1296" x1="652.394" y1="362.341" x2="652.394" y2="518.792" gradientUnits="userSpaceOnUse">
<stop stop-color="#F87731"/>
<stop offset="1" stop-color="#FFA828"/>
</linearGradient>
<linearGradient id="paint4_linear_56_1296" x1="380.609" y1="9.79936" x2="386.878" y2="88.9264" gradientUnits="userSpaceOnUse">
<stop stop-color="#779BDC"/>
<stop offset="1" stop-color="#856BC5"/>
</linearGradient>
<linearGradient id="paint5_linear_56_1296" x1="300.857" y1="414.892" x2="306.278" y2="483.312" gradientUnits="userSpaceOnUse">
<stop stop-color="#779BDC"/>
<stop offset="1" stop-color="#856BC5"/>
</linearGradient>
<linearGradient id="paint6_linear_56_1296" x1="269.086" y1="384.54" x2="272.54" y2="428.128" gradientUnits="userSpaceOnUse">
<stop stop-color="#779BDC"/>
<stop offset="1" stop-color="#856BC5"/>
</linearGradient>
<linearGradient id="paint7_linear_56_1296" x1="100.987" y1="469.565" x2="101.551" y2="476.687" gradientUnits="userSpaceOnUse">
<stop stop-color="#779BDC"/>
<stop offset="1" stop-color="#856BC5"/>
</linearGradient>
<linearGradient id="paint8_linear_56_1296" x1="209.219" y1="300.356" x2="221.552" y2="456.027" gradientUnits="userSpaceOnUse">
<stop stop-color="#779BDC"/>
<stop offset="1" stop-color="#856BC5"/>
</linearGradient>
<linearGradient id="paint9_linear_56_1296" x1="329.118" y1="143.898" x2="340.736" y2="290.541" gradientUnits="userSpaceOnUse">
<stop stop-color="#7543AC"/>
<stop offset="1" stop-color="#74A4E1"/>
</linearGradient>
<linearGradient id="paint10_linear_56_1296" x1="325.058" y1="253.689" x2="295.92" y2="289.194" gradientUnits="userSpaceOnUse">
<stop stop-color="#758CD4"/>
<stop offset="1" stop-color="#7575C7"/>
</linearGradient>
<linearGradient id="paint11_linear_56_1296" x1="392.999" y1="128.244" x2="409.094" y2="331.39" gradientUnits="userSpaceOnUse">
<stop stop-color="#7543AC"/>
<stop offset="1" stop-color="#74A4E1"/>
</linearGradient>
<linearGradient id="paint12_linear_56_1296" x1="420.369" y1="130.662" x2="435.498" y2="321.616" gradientUnits="userSpaceOnUse">
<stop stop-color="#7543AC"/>
<stop offset="1" stop-color="#74A4E1"/>
</linearGradient>
</defs>
</svg>
