<svg width="260" height="172" viewBox="0 0 260 172" fill="none" xmlns="http://www.w3.org/2000/svg">
<path d="M21.2964 101.136L92.6855 101.136V70.1696H21.2964V101.136Z" fill="url(#paint0_linear_56_1297)"/>
<path opacity="0.8" d="M21.2964 101.136L92.6855 101.136V70.1696H21.2964V101.136Z" fill="white"/>
<path opacity="0.2" d="M86.9499 73.2031H21.2847V70.1812H86.8906L86.9499 73.2031Z" fill="url(#paint1_linear_56_1297)"/>
<path opacity="0.2" d="M86.9618 75.8459L27.7197 77.114L86.9618 78.3702V75.8459Z" fill="url(#paint2_linear_56_1297)"/>
<path opacity="0.2" d="M86.9617 87.2937L24.2236 88.3603L86.9617 89.2491V87.2937Z" fill="url(#paint3_linear_56_1297)"/>
<path opacity="0.2" d="M86.9619 93.9895L24.7808 95.2457L86.9619 96.5137V93.9895Z" fill="url(#paint4_linear_56_1297)"/>
<path opacity="0.2" d="M21.2847 80.2544L81.4393 82.0794L21.2847 83.3356V80.2544Z" fill="url(#paint5_linear_56_1297)"/>
<path d="M180.595 85.5045C180.596 87.3464 180.234 89.1706 179.529 90.8723C178.825 92.574 177.791 94.1199 176.487 95.4213C175.184 96.7226 173.636 97.7539 171.933 98.4559C170.23 99.1579 168.405 99.5168 166.563 99.5121H17.9901C17.7155 99.5152 17.4533 99.6265 17.2603 99.8217C17.0673 100.017 16.959 100.28 16.9591 100.555V101.657C16.9575 101.793 16.983 101.929 17.0341 102.055C17.0852 102.182 17.1609 102.297 17.2568 102.394C17.3527 102.491 17.4669 102.568 17.5928 102.62C17.7186 102.673 17.8537 102.7 17.9901 102.7H167.31C169.581 102.697 171.83 102.245 173.926 101.37C176.022 100.496 177.925 99.2158 179.525 97.6036C181.125 95.9915 182.391 94.0791 183.25 91.9763C184.108 89.8735 184.543 87.6218 184.529 85.3504C184.417 80.7557 182.503 76.3894 179.199 73.1943C175.895 69.9991 171.467 68.2316 166.872 68.2734H17.9901C17.7166 68.2734 17.4544 68.3821 17.261 68.5754C17.0677 68.7688 16.9591 69.031 16.9591 69.3044V70.4184C16.9575 70.5548 16.983 70.6901 17.0341 70.8166C17.0852 70.9431 17.1609 71.0581 17.2568 71.1551C17.3527 71.2521 17.4669 71.3291 17.5928 71.3817C17.7186 71.4342 17.8537 71.4613 17.9901 71.4613H166.125C169.893 71.4476 173.518 72.9094 176.222 75.534C178.926 78.1585 180.496 81.7373 180.595 85.5045Z" fill="url(#paint6_linear_56_1297)"/>
<path opacity="0.4" d="M180.595 85.5045C180.596 87.3464 180.234 89.1706 179.529 90.8723C178.825 92.574 177.791 94.1199 176.487 95.4213C175.184 96.7226 173.636 97.7539 171.933 98.4559C170.23 99.1579 168.405 99.5168 166.563 99.5121H17.9901C17.7155 99.5152 17.4533 99.6265 17.2603 99.8217C17.0673 100.017 16.959 100.28 16.9591 100.555V101.657C16.9575 101.793 16.983 101.929 17.0341 102.055C17.0852 102.182 17.1609 102.297 17.2568 102.394C17.3527 102.491 17.4669 102.568 17.5928 102.62C17.7186 102.673 17.8537 102.7 17.9901 102.7H167.31C169.581 102.697 171.83 102.245 173.926 101.37C176.022 100.496 177.925 99.2158 179.525 97.6036C181.125 95.9915 182.391 94.0791 183.25 91.9763C184.108 89.8735 184.543 87.6218 184.529 85.3504C184.417 80.7557 182.503 76.3894 179.199 73.1943C175.895 69.9991 171.467 68.2316 166.872 68.2734H17.9901C17.7166 68.2734 17.4544 68.3821 17.261 68.5754C17.0677 68.7688 16.9591 69.031 16.9591 69.3044V70.4184C16.9575 70.5548 16.983 70.6901 17.0341 70.8166C17.0852 70.9431 17.1609 71.0581 17.2568 71.1551C17.3527 71.2521 17.4669 71.3291 17.5928 71.3817C17.7186 71.4342 17.8537 71.4613 17.9901 71.4613H166.125C169.893 71.4476 173.518 72.9094 176.222 75.534C178.926 78.1585 180.496 81.7373 180.595 85.5045Z" fill="white"/>
<path d="M234.812 85.682C234.819 87.7216 234.422 89.7424 233.646 91.6285C232.87 93.5146 231.729 95.229 230.289 96.6734C228.849 98.1178 227.138 99.2638 225.254 100.046C223.371 100.828 221.351 101.23 219.311 101.23H86.9736V70.1812H219.311C223.423 70.1812 227.365 71.8143 230.272 74.7213C233.179 77.6282 234.812 81.5709 234.812 85.682Z" fill="url(#paint7_linear_56_1297)"/>
<path opacity="0.7" d="M86.9736 70.1812V101.23H219.311C223.35 101.119 227.185 99.4359 230.002 96.54C232.819 93.6441 234.395 89.7635 234.395 85.7235C234.395 81.6835 232.819 77.8029 230.002 74.907C227.185 72.0111 223.35 70.3284 219.311 70.2167L86.9736 70.1812Z" fill="white"/>
<path opacity="0.2" d="M86.9619 78.3702V75.8459L218.885 76.9125L86.9619 78.3702Z" fill="url(#paint8_linear_56_1297)"/>
<path opacity="0.2" d="M86.9619 89.2491V87.2937L146.18 89.415L86.9619 89.2491Z" fill="url(#paint9_linear_56_1297)"/>
<path opacity="0.2" d="M86.9619 96.5137V93.9895L182.444 95.4471L86.9619 96.5137Z" fill="url(#paint10_linear_56_1297)"/>
<path opacity="0.2" d="M219.525 73.2031C222.073 73.2064 224.529 74.1519 226.422 75.8577C225.602 77.461 224.951 79.1449 224.478 80.8824L92.1287 81.9253L224.17 82.2571C223.707 84.5891 223.747 86.9932 224.289 89.3084L135.159 91.2519L225.13 92.2947C225.901 94.4466 226.902 96.5087 228.117 98.4453C230.84 96.5686 232.891 93.8701 233.971 90.7443C235.051 87.6184 235.103 84.2291 234.12 81.0716C233.136 77.9141 231.168 75.1539 228.504 73.1946C225.84 71.2352 222.619 70.1793 219.311 70.1812H86.9736V73.2031H219.525Z" fill="url(#paint11_linear_56_1297)"/>
<path d="M233.592 85.5045C233.59 87.3466 233.225 89.1702 232.519 90.8713C231.812 92.5725 230.777 94.1176 229.473 95.4185C228.169 96.7194 226.621 97.7505 224.918 98.4529C223.215 99.1553 221.39 99.5152 219.548 99.5121H84.7337C84.4592 99.5152 84.197 99.6265 84.004 99.8217C83.8109 100.017 83.7027 100.28 83.7027 100.555V101.657C83.7011 101.793 83.7267 101.929 83.7778 102.055C83.8289 102.182 83.9046 102.297 84.0005 102.394C84.0964 102.491 84.2106 102.568 84.3364 102.62C84.4623 102.673 84.5973 102.7 84.7337 102.7H220.331C222.602 102.698 224.85 102.248 226.947 101.373C229.043 100.499 230.946 99.219 232.545 97.6064C234.144 95.9938 235.409 94.0807 236.266 91.9772C237.123 89.8738 237.555 87.6216 237.538 85.3504C237.426 80.7557 235.512 76.3894 232.208 73.1943C228.904 69.9991 224.476 68.2316 219.88 68.2734H84.7811C84.5077 68.2734 84.2455 68.3821 84.0521 68.5754C83.8587 68.7688 83.7501 69.031 83.7501 69.3044V70.4184C83.7486 70.5548 83.7741 70.6901 83.8252 70.8166C83.8763 70.9431 83.952 71.0581 84.0479 71.1551C84.1438 71.2521 84.2579 71.3291 84.3838 71.3817C84.5097 71.4342 84.6447 71.4613 84.7811 71.4613H219.145C222.91 71.4538 226.528 72.9184 229.227 75.5423C231.926 78.1662 233.493 81.7414 233.592 85.5045Z" fill="url(#paint12_linear_56_1297)"/>
<path d="M218.885 81.5576V93.9891L214.382 89.4977L210.021 93.8587V81.5576H218.885Z" fill="url(#paint13_linear_56_1297)"/>
<path d="M224.739 138.501H32.0571V169.514H224.739V138.501Z" fill="url(#paint14_linear_56_1297)"/>
<path opacity="0.7" d="M224.739 138.501H32.0571V169.514H224.739V138.501Z" fill="white"/>
<path opacity="0.2" d="M224.751 146.702V144.177L92.8159 145.232L224.751 146.702Z" fill="url(#paint15_linear_56_1297)"/>
<path opacity="0.2" d="M224.751 157.569V155.625L165.521 157.735L224.751 157.569Z" fill="url(#paint16_linear_56_1297)"/>
<path opacity="0.2" d="M224.751 164.833V162.321L129.257 163.779L224.751 164.833Z" fill="url(#paint17_linear_56_1297)"/>
<path opacity="0.2" d="M75.1227 138.501L72.3496 161.669L75.6441 158.114C76.7554 162.334 78.828 166.24 81.6999 169.526C83.7637 166.823 85.4059 163.822 86.5706 160.626L176.554 159.595L87.412 157.652C87.6949 156.395 87.8419 155.112 87.8504 153.824C87.8461 152.738 87.739 151.655 87.5305 150.589L219.584 150.257L87.2223 149.226C86.7643 147.484 86.1124 145.798 85.2788 144.201C87.1715 142.495 89.6281 141.55 92.176 141.547H224.751V138.513L75.1227 138.501Z" fill="url(#paint18_linear_56_1297)"/>
<path d="M78.1091 153.824C78.1154 157.544 79.5977 161.11 82.2307 163.739C84.8636 166.367 88.432 167.843 92.1523 167.843H226.967C227.103 167.842 227.239 167.867 227.365 167.919C227.492 167.97 227.607 168.045 227.704 168.141C227.801 168.237 227.878 168.351 227.93 168.477C227.983 168.603 228.01 168.738 228.01 168.874V169.965C228.01 170.101 227.983 170.236 227.93 170.362C227.878 170.488 227.801 170.602 227.704 170.698C227.607 170.794 227.492 170.87 227.365 170.921C227.239 170.972 227.103 170.997 226.967 170.996H17.2079C14.9368 170.997 12.6878 170.549 10.5908 169.677C8.49389 168.804 6.59053 167.525 4.99065 165.913C3.39077 164.301 2.12607 162.388 1.26959 160.285C0.413107 158.181 -0.0181953 155.929 0.000588144 153.658C0.112399 149.062 2.02652 144.695 5.32995 141.498C8.63339 138.301 13.0613 136.531 17.6583 136.569H226.967C227.103 136.568 227.239 136.593 227.365 136.644C227.492 136.695 227.607 136.771 227.704 136.867C227.801 136.963 227.878 137.077 227.93 137.203C227.983 137.329 228.01 137.464 228.01 137.6V138.714C228.01 138.851 227.983 138.986 227.93 139.112C227.878 139.237 227.801 139.352 227.704 139.447C227.607 139.543 227.492 139.619 227.365 139.67C227.239 139.721 227.103 139.747 226.967 139.745H92.5671C88.7965 139.741 85.1737 141.211 82.4723 143.842C79.7709 146.472 78.205 150.055 78.1091 153.824Z" fill="url(#paint19_linear_56_1297)"/>
<path opacity="0.2" d="M78.1091 153.824C78.1154 157.544 79.5977 161.11 82.2307 163.739C84.8636 166.367 88.432 167.843 92.1523 167.843H226.967C227.103 167.842 227.239 167.867 227.365 167.919C227.492 167.97 227.607 168.045 227.704 168.141C227.801 168.237 227.878 168.351 227.93 168.477C227.983 168.603 228.01 168.738 228.01 168.874V169.965C228.01 170.101 227.983 170.236 227.93 170.362C227.878 170.488 227.801 170.602 227.704 170.698C227.607 170.794 227.492 170.87 227.365 170.921C227.239 170.972 227.103 170.997 226.967 170.996H17.2079C14.9368 170.997 12.6878 170.549 10.5908 169.677C8.49389 168.804 6.59053 167.525 4.99065 165.913C3.39077 164.301 2.12607 162.388 1.26959 160.285C0.413107 158.181 -0.0181953 155.929 0.000588144 153.658C0.112399 149.062 2.02652 144.695 5.32995 141.498C8.63339 138.301 13.0613 136.531 17.6583 136.569H226.967C227.103 136.568 227.239 136.593 227.365 136.644C227.492 136.695 227.607 136.771 227.704 136.867C227.801 136.963 227.878 137.077 227.93 137.203C227.983 137.329 228.01 137.464 228.01 137.6V138.714C228.01 138.851 227.983 138.986 227.93 139.112C227.878 139.237 227.801 139.352 227.704 139.447C227.607 139.543 227.492 139.619 227.365 139.67C227.239 139.721 227.103 139.747 226.967 139.745H92.5671C88.7965 139.741 85.1737 141.211 82.4723 143.842C79.7709 146.472 78.205 150.055 78.1091 153.824Z" fill="#FFA927"/>
<path d="M78.1093 153.824C78.1156 157.544 79.5979 161.11 82.2308 163.739C84.8638 166.367 88.4321 167.843 92.1525 167.843H226.967C227.104 167.842 227.239 167.867 227.365 167.919C227.492 167.97 227.607 168.045 227.704 168.141C227.801 168.237 227.878 168.351 227.93 168.477C227.983 168.603 228.01 168.738 228.01 168.874V169.965C228.01 170.101 227.983 170.236 227.93 170.362C227.878 170.488 227.801 170.602 227.704 170.698C227.607 170.794 227.492 170.87 227.365 170.921C227.239 170.972 227.104 170.997 226.967 170.996H91.3822C89.1109 170.996 86.8621 170.547 84.7652 169.674C82.6683 168.801 80.7648 167.522 79.1643 165.911C77.5638 164.299 76.2979 162.387 75.4395 160.284C74.5812 158.181 74.1474 155.929 74.163 153.658C74.2748 149.062 76.189 144.695 79.4924 141.498C82.7958 138.301 87.2237 136.531 91.8207 136.569H226.92C227.056 136.568 227.191 136.593 227.318 136.644C227.444 136.695 227.559 136.771 227.656 136.867C227.753 136.963 227.83 137.077 227.883 137.203C227.936 137.329 227.963 137.464 227.963 137.6V138.714C227.963 138.851 227.936 138.986 227.883 139.112C227.83 139.237 227.753 139.352 227.656 139.447C227.559 139.543 227.444 139.619 227.318 139.67C227.191 139.721 227.056 139.747 226.92 139.745H92.5673C88.7967 139.741 85.1739 141.211 82.4724 143.842C79.771 146.472 78.2052 150.055 78.1093 153.824Z" fill="url(#paint20_linear_56_1297)"/>
<path d="M92.8159 149.89V162.321L97.3192 157.818L101.68 162.179V149.89H92.8159Z" fill="url(#paint21_linear_56_1297)"/>
<path opacity="0.1" d="M78.1093 153.824C78.1156 157.544 79.5979 161.11 82.2308 163.739C84.8638 166.367 88.4321 167.843 92.1525 167.843H226.967C227.104 167.842 227.239 167.867 227.365 167.919C227.492 167.97 227.607 168.045 227.704 168.141C227.801 168.237 227.878 168.351 227.93 168.477C227.983 168.603 228.01 168.738 228.01 168.874V169.965C228.01 170.101 227.983 170.236 227.93 170.362C227.878 170.488 227.801 170.602 227.704 170.698C227.607 170.794 227.492 170.87 227.365 170.921C227.239 170.972 227.104 170.997 226.967 170.996H91.3822C89.1109 170.996 86.8621 170.547 84.7652 169.674C82.6683 168.801 80.7648 167.522 79.1643 165.911C77.5638 164.299 76.2979 162.387 75.4395 160.284C74.5812 158.181 74.1474 155.929 74.163 153.658C74.2748 149.062 76.189 144.695 79.4924 141.498C82.7958 138.301 87.2237 136.531 91.8207 136.569H226.92C227.056 136.568 227.191 136.593 227.318 136.644C227.444 136.695 227.559 136.771 227.656 136.867C227.753 136.963 227.83 137.077 227.883 137.203C227.936 137.329 227.963 137.464 227.963 137.6V138.714C227.963 138.851 227.936 138.986 227.883 139.112C227.83 139.237 227.753 139.352 227.656 139.447C227.559 139.543 227.444 139.619 227.318 139.67C227.191 139.721 227.056 139.747 226.92 139.745H92.5673C88.7967 139.741 85.1739 141.211 82.4724 143.842C79.771 146.472 78.2052 150.055 78.1093 153.824Z" fill="white"/>
<path opacity="0.1" d="M67.9295 165.983C71.1623 169.21 75.5442 171.022 80.1122 171.019H74.3882C72.1161 171.021 69.8661 170.572 67.7684 169.699C65.6707 168.826 63.7668 167.546 62.1667 165.933C60.5667 164.32 59.3022 162.405 58.4465 160.3C57.5907 158.196 57.1605 155.942 57.1809 153.67C57.2897 149.074 59.2032 144.706 62.5077 141.51C65.8121 138.314 70.2418 136.548 74.8386 136.593H80.5506C75.9548 136.551 71.5269 138.319 68.2231 141.514C64.9193 144.709 63.0048 149.075 62.893 153.67C62.872 155.954 63.3066 158.219 64.1714 160.334C65.0362 162.448 66.3138 164.368 67.9295 165.983Z" fill="white"/>
<path opacity="0.1" d="M56.4935 165.983C59.7277 169.208 64.1087 171.019 68.6761 171.019H62.9522C60.68 171.021 58.43 170.572 56.3323 169.699C54.2346 168.826 52.3307 167.546 50.7307 165.933C49.1306 164.32 47.8662 162.405 47.0104 160.3C46.1546 158.196 45.7245 155.942 45.7448 153.67C45.8567 149.075 47.7712 144.709 51.075 141.514C54.3787 138.319 58.8066 136.551 63.4025 136.593H69.1146C64.5126 136.542 60.0756 138.305 56.7642 141.501C53.4527 144.697 51.5332 149.069 51.4214 153.67C51.405 155.956 51.8452 158.223 52.7162 160.338C53.5871 162.452 54.8713 164.371 56.4935 165.983Z" fill="white"/>
<path d="M239.849 104.335H47.167V135.349H239.849V104.335Z" fill="url(#paint22_linear_56_1297)"/>
<path opacity="0.8" d="M239.849 104.335H47.167V135.349H239.849V104.335Z" fill="white"/>
<path opacity="0.2" d="M239.849 112.536V110.012L107.926 111.067L239.849 112.536Z" fill="url(#paint23_linear_56_1297)"/>
<path opacity="0.2" d="M239.849 123.403V121.46L180.619 123.581L239.849 123.403Z" fill="url(#paint24_linear_56_1297)"/>
<path opacity="0.2" d="M239.849 130.667V128.155L144.355 129.613L239.849 130.667Z" fill="url(#paint25_linear_56_1297)"/>
<path opacity="0.2" d="M90.2446 104.335L87.4478 127.456L90.7423 123.901C91.8622 128.12 93.9383 132.025 96.8099 135.313C98.8657 132.611 100.504 129.615 101.669 126.425L191.652 125.382L102.51 123.439C103.047 121.123 103.091 118.721 102.64 116.387L234.682 116.056L102.38 115.048C101.909 113.31 101.258 111.626 100.436 110.024C102.327 108.315 104.785 107.369 107.333 107.369H239.849V104.335H90.2446Z" fill="url(#paint26_linear_56_1297)"/>
<path d="M93.2193 119.658C93.2255 123.376 94.7063 126.941 97.3366 129.569C99.967 132.197 103.532 133.675 107.251 133.678H242.077C242.351 133.678 242.613 133.786 242.806 133.98C242.999 134.173 243.108 134.435 243.108 134.709V135.823C243.108 136.096 242.999 136.358 242.806 136.552C242.613 136.745 242.351 136.854 242.077 136.854H42.9838C40.7125 136.854 38.4637 136.404 36.3668 135.532C34.2699 134.659 32.3664 133.38 30.7659 131.768C29.1653 130.157 27.8995 128.245 27.0411 126.142C26.1828 124.039 25.7489 121.787 25.7646 119.516C25.8732 114.928 27.7777 110.567 31.0687 107.369C34.3597 104.171 38.7742 102.392 43.363 102.415H242.077C242.213 102.415 242.349 102.442 242.474 102.495C242.6 102.547 242.714 102.624 242.81 102.721C242.906 102.818 242.982 102.933 243.033 103.06C243.084 103.186 243.11 103.322 243.108 103.458V104.56C243.108 104.834 242.999 105.096 242.806 105.289C242.613 105.483 242.351 105.591 242.077 105.591H107.665C99.9387 105.603 93.2074 111.896 93.2193 119.658Z" fill="url(#paint27_linear_56_1297)"/>
<path opacity="0.4" d="M93.2193 119.658C93.2255 123.376 94.7063 126.941 97.3366 129.569C99.967 132.197 103.532 133.675 107.251 133.678H242.077C242.351 133.678 242.613 133.786 242.806 133.98C242.999 134.173 243.108 134.435 243.108 134.709V135.823C243.108 136.096 242.999 136.358 242.806 136.552C242.613 136.745 242.351 136.854 242.077 136.854H42.9838C40.7125 136.854 38.4637 136.404 36.3668 135.532C34.2699 134.659 32.3664 133.38 30.7659 131.768C29.1653 130.157 27.8995 128.245 27.0411 126.142C26.1828 124.039 25.7489 121.787 25.7646 119.516C25.8732 114.928 27.7777 110.567 31.0687 107.369C34.3597 104.171 38.7742 102.392 43.363 102.415H242.077C242.213 102.415 242.349 102.442 242.474 102.495C242.6 102.547 242.714 102.624 242.81 102.721C242.906 102.818 242.982 102.933 243.033 103.06C243.084 103.186 243.11 103.322 243.108 103.458V104.56C243.108 104.834 242.999 105.096 242.806 105.289C242.613 105.483 242.351 105.591 242.077 105.591H107.665C99.9387 105.603 93.2074 111.896 93.2193 119.658Z" fill="white"/>
<path d="M93.2188 119.658C93.2251 123.377 94.7058 126.941 97.3362 129.569C99.9666 132.197 103.532 133.675 107.25 133.678H242.077C242.35 133.678 242.612 133.786 242.806 133.98C242.999 134.173 243.108 134.435 243.108 134.709V135.823C243.108 136.096 242.999 136.358 242.806 136.552C242.612 136.745 242.35 136.854 242.077 136.854H106.48C104.209 136.854 101.96 136.405 99.8629 135.532C97.766 134.659 95.8625 133.38 94.262 131.769C92.6614 130.157 91.3956 128.245 90.5372 126.142C89.6789 124.039 89.245 121.787 89.2607 119.516C89.3694 114.918 91.2822 110.548 94.586 107.348C97.8897 104.149 102.319 102.377 106.918 102.415H242.077C242.213 102.415 242.348 102.442 242.474 102.495C242.6 102.548 242.714 102.625 242.81 102.722C242.906 102.819 242.982 102.934 243.033 103.06C243.084 103.187 243.109 103.322 243.108 103.458V104.56C243.108 104.834 242.999 105.096 242.806 105.289C242.612 105.483 242.35 105.591 242.077 105.591H107.665C99.9382 105.603 93.207 111.896 93.2188 119.658Z" fill="url(#paint28_linear_56_1297)"/>
<path d="M118.604 111.303V123.747L123.107 119.244L127.468 123.605V111.303H118.604Z" fill="url(#paint29_linear_56_1297)"/>
<path opacity="0.6" d="M93.2188 119.658C93.2251 123.377 94.7058 126.941 97.3362 129.569C99.9666 132.197 103.532 133.675 107.25 133.678H242.077C242.35 133.678 242.612 133.786 242.806 133.98C242.999 134.173 243.108 134.435 243.108 134.709V135.823C243.108 136.096 242.999 136.358 242.806 136.552C242.612 136.745 242.35 136.854 242.077 136.854H106.48C104.209 136.854 101.96 136.405 99.8629 135.532C97.766 134.659 95.8625 133.38 94.262 131.769C92.6614 130.157 91.3956 128.245 90.5372 126.142C89.6789 124.039 89.245 121.787 89.2607 119.516C89.3694 114.918 91.2822 110.548 94.586 107.348C97.8897 104.149 102.319 102.377 106.918 102.415H242.077C242.213 102.415 242.348 102.442 242.474 102.495C242.6 102.548 242.714 102.625 242.81 102.722C242.906 102.819 242.982 102.934 243.033 103.06C243.084 103.187 243.109 103.322 243.108 103.458V104.56C243.108 104.834 242.999 105.096 242.806 105.289C242.612 105.483 242.35 105.591 242.077 105.591H107.665C99.9382 105.603 93.207 111.896 93.2188 119.658Z" fill="white"/>
<path opacity="0.2" d="M83.0152 111.552H39.0132C37.8929 112.499 36.9926 113.679 36.375 115.009C35.7574 116.339 35.4375 117.789 35.4375 119.255C35.4375 120.722 35.7574 122.171 36.375 123.502C36.9926 124.832 37.8929 126.012 39.0132 126.958H83.0152C80.171 123.071 80.171 115.451 83.0152 111.552Z" fill="url(#paint30_linear_56_1297)"/>
<path d="M222.618 1.84937H151.229V32.8155H222.618V1.84937Z" fill="url(#paint31_linear_56_1297)"/>
<path opacity="0.7" d="M222.618 1.84937H151.229V32.8155H222.618V1.84937Z" fill="white"/>
<path opacity="0.2" d="M156.953 4.88317H222.618V1.84937H157.024L156.953 4.88317Z" fill="url(#paint32_linear_56_1297)"/>
<path opacity="0.2" d="M156.953 7.52588L216.195 8.78206L156.953 10.0501V7.52588Z" fill="url(#paint33_linear_56_1297)"/>
<path opacity="0.2" d="M156.953 18.9741L219.691 20.0289L156.953 20.9177V18.9741Z" fill="url(#paint34_linear_56_1297)"/>
<path opacity="0.2" d="M156.953 25.6697L219.122 26.9259L156.953 28.182V25.6697Z" fill="url(#paint35_linear_56_1297)"/>
<path opacity="0.2" d="M222.618 11.9343L162.475 13.7475L222.618 15.0037V11.9343Z" fill="url(#paint36_linear_56_1297)"/>
<path d="M63.2721 17.1724C63.2783 20.8908 64.759 24.4548 67.3894 27.083C70.0198 29.7111 73.5851 31.1888 77.3034 31.1919H225.912C226.186 31.1919 226.448 31.3005 226.641 31.4939C226.835 31.6873 226.943 31.9495 226.943 32.2229V33.3369C226.943 33.6104 226.835 33.8726 226.641 34.066C226.448 34.2593 226.186 34.3679 225.912 34.3679H76.5924C74.3222 34.3758 72.073 33.934 69.9745 33.0682C67.876 32.2024 65.9696 30.9296 64.3655 29.3232C62.7614 27.7169 61.4912 25.8088 60.6283 23.7091C59.7653 21.6094 59.3266 19.3596 59.3376 17.0895C59.4464 12.4948 61.3579 8.1272 64.6594 4.92987C67.961 1.73253 72.3876 -0.0380082 76.9835 0.000619008H225.912C226.186 0.000619008 226.448 0.109249 226.641 0.302603C226.835 0.495957 226.943 0.758225 226.943 1.03167V2.14565C226.943 2.41909 226.835 2.68132 226.641 2.87468C226.448 3.06803 226.186 3.17666 225.912 3.17666H77.7774C70.0033 3.11741 63.2721 9.44573 63.2721 17.1724Z" fill="url(#paint37_linear_56_1297)"/>
<path opacity="0.4" d="M63.2721 17.1724C63.2783 20.8908 64.759 24.4548 67.3894 27.083C70.0198 29.7111 73.5851 31.1888 77.3034 31.1919H225.912C226.186 31.1919 226.448 31.3005 226.641 31.4939C226.835 31.6873 226.943 31.9495 226.943 32.2229V33.3369C226.943 33.6104 226.835 33.8726 226.641 34.066C226.448 34.2593 226.186 34.3679 225.912 34.3679H76.5924C74.3222 34.3758 72.073 33.934 69.9745 33.0682C67.876 32.2024 65.9696 30.9296 64.3655 29.3232C62.7614 27.7169 61.4912 25.8088 60.6283 23.7091C59.7653 21.6094 59.3266 19.3596 59.3376 17.0895C59.4464 12.4948 61.3579 8.1272 64.6594 4.92987C67.961 1.73253 72.3876 -0.0380082 76.9835 0.000619008H225.912C226.186 0.000619008 226.448 0.109249 226.641 0.302603C226.835 0.495957 226.943 0.758225 226.943 1.03167V2.14565C226.943 2.41909 226.835 2.68132 226.641 2.87468C226.448 3.06803 226.186 3.17666 225.912 3.17666H77.7774C70.0033 3.11741 63.2721 9.44573 63.2721 17.1724Z" fill="white"/>
<path d="M9.09033 17.362C9.09347 21.4742 10.7292 25.4169 13.6381 28.3235C16.5469 31.2301 20.4908 32.8629 24.603 32.8629H156.953V1.84937H24.603C20.4888 1.84937 16.5431 3.48371 13.6339 6.3929C10.7247 9.3021 9.09033 13.2478 9.09033 17.362Z" fill="url(#paint38_linear_56_1297)"/>
<path opacity="0.5" d="M156.953 1.84937V32.8629H24.5913C20.5529 32.7512 16.7173 31.0685 13.9003 28.1726C11.0834 25.2767 9.50732 21.3961 9.50732 17.3561C9.50732 13.3161 11.0834 9.43553 13.9003 6.53963C16.7173 3.64373 20.5529 1.96102 24.5913 1.84937H156.953Z" fill="white"/>
<path opacity="0.2" d="M156.952 10.0501V7.52588L25.0176 8.58062L156.952 10.0501Z" fill="url(#paint39_linear_56_1297)"/>
<path opacity="0.2" d="M156.952 20.9177V18.9741L97.7222 21.0954L156.952 20.9177Z" fill="url(#paint40_linear_56_1297)"/>
<path opacity="0.2" d="M156.953 28.182V25.6697L61.459 27.1273L156.953 28.182Z" fill="url(#paint41_linear_56_1297)"/>
<path opacity="0.2" d="M24.3777 4.88317C21.8326 4.88987 19.3785 5.83018 17.4806 7.52587C18.3111 9.12975 18.9666 10.8183 19.4359 12.5625L151.786 13.5935L19.7441 13.9253C19.9467 14.9921 20.0538 16.0748 20.064 17.1606C20.0529 18.4451 19.9019 19.7247 19.6137 20.9765L108.755 22.9319L18.7723 23.9748C18.0039 26.1277 17.0025 28.1901 15.7859 30.1253C13.0655 28.246 11.0167 25.5466 9.9384 22.4209C8.86012 19.2952 8.80877 15.9068 9.79184 12.7498C10.7749 9.5929 12.741 6.83267 15.4032 4.87177C18.0654 2.91088 21.2846 1.85192 24.591 1.84937H156.953V4.88317H24.3777Z" fill="url(#paint42_linear_56_1297)"/>
<path d="M10.3228 17.1724C10.3228 19.0145 10.6858 20.8385 11.3911 22.5402C12.0963 24.2419 13.1301 25.7879 14.4332 27.0899C15.7362 28.3919 17.2831 29.4243 18.9854 30.1282C20.6877 30.832 22.512 31.1935 24.3541 31.1919H159.181C159.454 31.1919 159.716 31.3005 159.91 31.4939C160.103 31.6873 160.212 31.9495 160.212 32.2229V33.3369C160.212 33.6104 160.103 33.8726 159.91 34.066C159.716 34.2593 159.454 34.3679 159.181 34.3679H23.5838C21.3195 34.3648 19.0781 33.9152 16.9879 33.0448C14.8976 32.1743 12.9995 30.9002 11.4023 29.2952C9.80509 27.6903 8.54008 25.7861 7.67971 23.6917C6.81934 21.5973 6.38049 19.3537 6.38829 17.0895C6.5001 12.4937 8.41422 8.12613 11.7177 4.92911C15.0211 1.73209 19.449 -0.0380634 24.046 0.000620955H159.181C159.454 0.000620955 159.716 0.109251 159.91 0.302605C160.103 0.495959 160.212 0.758227 160.212 1.03167V2.14565C160.212 2.41909 160.103 2.68132 159.91 2.87468C159.716 3.06803 159.454 3.17666 159.181 3.17666H24.7689C21.0125 3.16884 17.4013 4.6269 14.7034 7.24068C12.0055 9.85446 10.4339 13.4177 10.3228 17.1724Z" fill="url(#paint43_linear_56_1297)"/>
<path d="M25.0176 13.238V25.6695L29.5209 21.1662L33.882 25.5273V13.238H25.0176Z" fill="url(#paint44_linear_56_1297)"/>
<path d="M256.523 36.0154H63.8408V67.0289H256.523V36.0154Z" fill="url(#paint45_linear_56_1297)"/>
<path opacity="0.7" d="M256.523 36.0154H63.8408V67.0289H256.523V36.0154Z" fill="white"/>
<path opacity="0.2" d="M256.523 44.2042V41.6799L124.6 42.7465L256.523 44.2042Z" fill="url(#paint46_linear_56_1297)"/>
<path opacity="0.2" d="M256.523 55.0834V53.1399L197.305 55.2493L256.523 55.0834Z" fill="url(#paint47_linear_56_1297)"/>
<path opacity="0.2" d="M256.523 62.3478V59.8354L161.041 61.2931L256.523 62.3478Z" fill="url(#paint48_linear_56_1297)"/>
<path opacity="0.2" d="M106.918 36.051L104.122 59.1719L107.416 55.6167C108.536 59.836 110.612 63.741 113.484 67.029C115.538 64.3212 117.176 61.3214 118.343 58.1291L208.337 57.098L119.196 55.1545C119.473 53.893 119.62 52.6064 119.634 51.3149C119.625 50.233 119.518 49.1541 119.314 48.0914L251.356 47.7596L118.971 46.7167C118.5 44.9748 117.848 43.2868 117.027 41.6802C118.921 39.9777 121.378 39.0363 123.924 39.0374H256.523V36.051H106.918Z" fill="url(#paint49_linear_56_1297)"/>
<path d="M109.893 51.3383C109.899 55.0567 111.38 58.6207 114.01 61.2489C116.641 63.877 120.206 65.3547 123.924 65.3579H258.81C258.946 65.3579 259.08 65.3845 259.205 65.4363C259.33 65.4881 259.443 65.5641 259.539 65.6598C259.635 65.7555 259.711 65.8692 259.763 65.9943C259.815 66.1194 259.841 66.2535 259.841 66.3889V67.5028C259.841 67.6382 259.815 67.7723 259.763 67.8974C259.711 68.0225 259.635 68.1361 259.539 68.2319C259.443 68.3276 259.33 68.4036 259.205 68.4554C259.08 68.5072 258.946 68.5339 258.81 68.5339H49.0511C46.7798 68.5324 44.5313 68.0815 42.435 67.2073C40.3387 66.3331 38.4361 65.0529 36.8367 63.4403C35.2372 61.8276 33.9727 59.9145 33.1158 57.8111C32.2589 55.7077 31.8266 53.4555 31.8438 51.1843C31.9495 46.5896 33.8604 42.2215 37.163 39.0254C40.4655 35.8293 44.894 34.0624 49.4896 34.1073H258.81C258.946 34.1073 259.08 34.134 259.205 34.1858C259.33 34.2376 259.443 34.3135 259.539 34.4093C259.635 34.505 259.711 34.6187 259.763 34.7438C259.815 34.8688 259.841 35.0029 259.841 35.1383V36.2523C259.841 36.3877 259.815 36.5217 259.763 36.6468C259.711 36.7719 259.635 36.8856 259.539 36.9813C259.443 37.0771 259.33 37.153 259.205 37.2048C259.08 37.2567 258.946 37.2833 258.81 37.2833H124.339C120.573 37.2759 116.953 38.7421 114.254 41.3686C111.554 43.995 109.989 47.5732 109.893 51.3383Z" fill="url(#paint50_linear_56_1297)"/>
<path opacity="0.2" d="M109.893 51.3383C109.899 55.0567 111.38 58.6207 114.01 61.2489C116.641 63.877 120.206 65.3547 123.924 65.3578H258.81C258.946 65.3578 259.08 65.3845 259.205 65.4363C259.33 65.4881 259.443 65.5641 259.539 65.6598C259.635 65.7555 259.711 65.8692 259.763 65.9943C259.815 66.1194 259.841 66.2535 259.841 66.3889V67.5028C259.841 67.6382 259.815 67.7723 259.763 67.8974C259.711 68.0225 259.635 68.1361 259.539 68.2319C259.443 68.3276 259.33 68.4036 259.205 68.4554C259.08 68.5072 258.946 68.5339 258.81 68.5339H49.0511C46.7798 68.5324 44.5313 68.0815 42.435 67.2073C40.3387 66.3331 38.4361 65.0529 36.8367 63.4403C35.2372 61.8276 33.9727 59.9145 33.1158 57.8111C32.2589 55.7077 31.8266 53.4555 31.8438 51.1843C31.9495 46.5896 33.8604 42.2215 37.163 39.0254C40.4655 35.8293 44.894 34.0624 49.4896 34.1073H258.81C258.946 34.1073 259.08 34.134 259.205 34.1858C259.33 34.2376 259.443 34.3135 259.539 34.4093C259.635 34.505 259.711 34.6187 259.763 34.7438C259.815 34.8688 259.841 35.0029 259.841 35.1383V36.2523C259.841 36.3877 259.815 36.5217 259.763 36.6468C259.711 36.7719 259.635 36.8856 259.539 36.9813C259.443 37.0771 259.33 37.153 259.205 37.2048C259.08 37.2567 258.946 37.2833 258.81 37.2833H124.339C120.573 37.2759 116.953 38.7421 114.254 41.3686C111.554 43.995 109.989 47.5732 109.893 51.3383Z" fill="white"/>
<path d="M109.893 51.3382C109.899 55.0566 111.38 58.6206 114.011 61.2488C116.641 63.8769 120.206 65.3546 123.925 65.3577H258.81C258.946 65.3577 259.08 65.3844 259.205 65.4362C259.33 65.488 259.444 65.5639 259.539 65.6597C259.635 65.7554 259.711 65.8691 259.763 65.9942C259.815 66.1193 259.841 66.2534 259.841 66.3888V67.5027C259.841 67.6381 259.815 67.7722 259.763 67.8973C259.711 68.0224 259.635 68.136 259.539 68.2318C259.444 68.3275 259.33 68.4035 259.205 68.4553C259.08 68.5071 258.946 68.5337 258.81 68.5337H123.154C120.882 68.5338 118.632 68.0841 116.535 67.2107C114.437 66.3372 112.533 65.0571 110.932 63.4444C109.331 61.8316 108.066 59.9179 107.208 57.8137C106.351 55.7095 105.918 53.4564 105.935 51.1842C106.044 46.5905 107.956 42.2242 111.258 39.0287C114.56 35.8333 118.986 34.0654 123.581 34.1072H258.81C258.946 34.1072 259.08 34.1339 259.205 34.1857C259.33 34.2375 259.444 34.3134 259.539 34.4092C259.635 34.5049 259.711 34.6186 259.763 34.7436C259.815 34.8687 259.841 35.0028 259.841 35.1382V36.2522C259.841 36.3876 259.815 36.5216 259.763 36.6467C259.711 36.7718 259.635 36.8855 259.539 36.9812C259.444 37.077 259.33 37.1529 259.205 37.2047C259.08 37.2565 258.946 37.2832 258.81 37.2832H124.339C120.573 37.2758 116.953 38.742 114.254 41.3685C111.554 43.9949 109.989 47.5731 109.893 51.3382Z" fill="url(#paint51_linear_56_1297)"/>
<path d="M124.6 47.4041V59.8356L129.103 55.3322L133.465 59.6934V47.4041H124.6Z" fill="url(#paint52_linear_56_1297)"/>
<path opacity="0.4" d="M109.893 51.3382C109.899 55.0566 111.38 58.6206 114.011 61.2488C116.641 63.8769 120.206 65.3546 123.925 65.3577H258.81C258.946 65.3577 259.08 65.3844 259.205 65.4362C259.33 65.488 259.444 65.5639 259.539 65.6597C259.635 65.7554 259.711 65.8691 259.763 65.9942C259.815 66.1193 259.841 66.2534 259.841 66.3888V67.5027C259.841 67.6381 259.815 67.7722 259.763 67.8973C259.711 68.0224 259.635 68.136 259.539 68.2318C259.444 68.3275 259.33 68.4035 259.205 68.4553C259.08 68.5071 258.946 68.5337 258.81 68.5337H123.154C120.882 68.5338 118.632 68.0841 116.535 67.2107C114.437 66.3372 112.533 65.0571 110.932 63.4444C109.331 61.8316 108.066 59.9179 107.208 57.8137C106.351 55.7095 105.918 53.4564 105.935 51.1842C106.044 46.5905 107.956 42.2242 111.258 39.0287C114.56 35.8333 118.986 34.0654 123.581 34.1072H258.81C258.946 34.1072 259.08 34.1339 259.205 34.1857C259.33 34.2375 259.444 34.3134 259.539 34.4092C259.635 34.5049 259.711 34.6186 259.763 34.7436C259.815 34.8687 259.841 35.0028 259.841 35.1382V36.2522C259.841 36.3876 259.815 36.5216 259.763 36.6467C259.711 36.7718 259.635 36.8855 259.539 36.9812C259.444 37.077 259.33 37.1529 259.205 37.2047C259.08 37.2565 258.946 37.2832 258.81 37.2832H124.339C120.573 37.2758 116.953 38.742 114.254 41.3685C111.554 43.9949 109.989 47.5731 109.893 51.3382Z" fill="white"/>
<path opacity="0.2" d="M59.7166 63.4854C61.3148 65.0877 63.2137 66.3584 65.3044 67.2248C67.395 68.0912 69.6362 68.536 71.8992 68.5339H60.4632C58.1919 68.5324 55.9434 68.0815 53.8471 67.2073C51.7508 66.3332 49.8482 65.0529 48.2487 63.4403C46.6493 61.8276 45.3848 59.9145 44.5279 57.8111C43.671 55.7077 43.2387 53.4555 43.2559 51.1843C43.3616 46.5896 45.2726 42.2215 48.5751 39.0254C51.8777 35.8293 56.3061 34.0624 60.9017 34.1073H72.3259C67.7311 34.0655 63.3045 35.8334 60.0026 39.0289C56.7007 42.2243 54.7888 46.5906 54.68 51.1843C54.6586 53.4667 55.0931 55.7304 55.9579 57.8427C56.8228 59.955 58.1007 61.8734 59.7166 63.4854Z" fill="white"/>
<defs>
<linearGradient id="paint0_linear_56_1297" x1="56.991" y1="101.136" x2="56.991" y2="70.1696" gradientUnits="userSpaceOnUse">
<stop stop-color="#F77531"/>
<stop offset="1" stop-color="#FFA927"/>
</linearGradient>
<linearGradient id="paint1_linear_56_1297" x1="54.1173" y1="70.1812" x2="54.1173" y2="73.2031" gradientUnits="userSpaceOnUse">
<stop stop-color="#6ACAF4"/>
<stop offset="1" stop-color="#744CB0"/>
</linearGradient>
<linearGradient id="paint2_linear_56_1297" x1="57.3408" y1="75.8459" x2="57.3408" y2="78.3702" gradientUnits="userSpaceOnUse">
<stop stop-color="#6ACAF4"/>
<stop offset="1" stop-color="#744CB0"/>
</linearGradient>
<linearGradient id="paint3_linear_56_1297" x1="55.5927" y1="87.2937" x2="55.5927" y2="89.2491" gradientUnits="userSpaceOnUse">
<stop stop-color="#6ACAF4"/>
<stop offset="1" stop-color="#744CB0"/>
</linearGradient>
<linearGradient id="paint4_linear_56_1297" x1="55.8713" y1="93.9895" x2="55.8713" y2="96.5137" gradientUnits="userSpaceOnUse">
<stop stop-color="#6ACAF4"/>
<stop offset="1" stop-color="#744CB0"/>
</linearGradient>
<linearGradient id="paint5_linear_56_1297" x1="51.362" y1="80.2544" x2="51.362" y2="83.3356" gradientUnits="userSpaceOnUse">
<stop stop-color="#6ACAF4"/>
<stop offset="1" stop-color="#744CB0"/>
</linearGradient>
<linearGradient id="paint6_linear_56_1297" x1="100.744" y1="68.2727" x2="100.744" y2="102.7" gradientUnits="userSpaceOnUse">
<stop stop-color="#E8549E"/>
<stop offset="1" stop-color="#F16777"/>
</linearGradient>
<linearGradient id="paint7_linear_56_1297" x1="160.893" y1="70.1812" x2="160.893" y2="101.23" gradientUnits="userSpaceOnUse">
<stop stop-color="#F77531"/>
<stop offset="1" stop-color="#FFA927"/>
</linearGradient>
<linearGradient id="paint8_linear_56_1297" x1="152.923" y1="75.8459" x2="152.923" y2="78.3702" gradientUnits="userSpaceOnUse">
<stop stop-color="#6ACAF4"/>
<stop offset="1" stop-color="#744CB0"/>
</linearGradient>
<linearGradient id="paint9_linear_56_1297" x1="116.571" y1="87.2937" x2="116.571" y2="89.415" gradientUnits="userSpaceOnUse">
<stop stop-color="#6ACAF4"/>
<stop offset="1" stop-color="#744CB0"/>
</linearGradient>
<linearGradient id="paint10_linear_56_1297" x1="134.703" y1="93.9895" x2="134.703" y2="96.5137" gradientUnits="userSpaceOnUse">
<stop stop-color="#6ACAF4"/>
<stop offset="1" stop-color="#744CB0"/>
</linearGradient>
<linearGradient id="paint11_linear_56_1297" x1="160.897" y1="70.1812" x2="160.897" y2="98.4453" gradientUnits="userSpaceOnUse">
<stop stop-color="#6ACAF4"/>
<stop offset="1" stop-color="#744CB0"/>
</linearGradient>
<linearGradient id="paint12_linear_56_1297" x1="160.62" y1="68.2727" x2="160.62" y2="102.7" gradientUnits="userSpaceOnUse">
<stop stop-color="#E8549E"/>
<stop offset="1" stop-color="#F16777"/>
</linearGradient>
<linearGradient id="paint13_linear_56_1297" x1="214.453" y1="81.5576" x2="214.453" y2="93.9891" gradientUnits="userSpaceOnUse">
<stop stop-color="#6ACAF4"/>
<stop offset="1" stop-color="#744CB0"/>
</linearGradient>
<linearGradient id="paint14_linear_56_1297" x1="128.398" y1="138.501" x2="128.398" y2="169.514" gradientUnits="userSpaceOnUse">
<stop stop-color="#F77531"/>
<stop offset="1" stop-color="#FFA927"/>
</linearGradient>
<linearGradient id="paint15_linear_56_1297" x1="158.783" y1="144.177" x2="158.783" y2="146.702" gradientUnits="userSpaceOnUse">
<stop stop-color="#6ACAF4"/>
<stop offset="1" stop-color="#744CB0"/>
</linearGradient>
<linearGradient id="paint16_linear_56_1297" x1="195.136" y1="155.625" x2="195.136" y2="157.735" gradientUnits="userSpaceOnUse">
<stop stop-color="#6ACAF4"/>
<stop offset="1" stop-color="#744CB0"/>
</linearGradient>
<linearGradient id="paint17_linear_56_1297" x1="177.004" y1="162.321" x2="177.004" y2="164.833" gradientUnits="userSpaceOnUse">
<stop stop-color="#6ACAF4"/>
<stop offset="1" stop-color="#744CB0"/>
</linearGradient>
<linearGradient id="paint18_linear_56_1297" x1="148.55" y1="138.501" x2="148.55" y2="169.526" gradientUnits="userSpaceOnUse">
<stop stop-color="#6ACAF4"/>
<stop offset="1" stop-color="#744CB0"/>
</linearGradient>
<linearGradient id="paint19_linear_56_1297" x1="114.005" y1="136.569" x2="114.005" y2="170.996" gradientUnits="userSpaceOnUse">
<stop stop-color="#F77531"/>
<stop offset="1" stop-color="#FFA927"/>
</linearGradient>
<linearGradient id="paint20_linear_56_1297" x1="151.086" y1="136.569" x2="151.086" y2="170.996" gradientUnits="userSpaceOnUse">
<stop stop-color="#F77531"/>
<stop offset="1" stop-color="#FFA927"/>
</linearGradient>
<linearGradient id="paint21_linear_56_1297" x1="97.2481" y1="149.89" x2="97.2481" y2="162.321" gradientUnits="userSpaceOnUse">
<stop stop-color="#6ACAF4"/>
<stop offset="1" stop-color="#744CB0"/>
</linearGradient>
<linearGradient id="paint22_linear_56_1297" x1="143.508" y1="104.335" x2="143.508" y2="135.349" gradientUnits="userSpaceOnUse">
<stop stop-color="#F77531"/>
<stop offset="1" stop-color="#FFA927"/>
</linearGradient>
<linearGradient id="paint23_linear_56_1297" x1="173.887" y1="110.012" x2="173.887" y2="112.536" gradientUnits="userSpaceOnUse">
<stop stop-color="#6ACAF4"/>
<stop offset="1" stop-color="#744CB0"/>
</linearGradient>
<linearGradient id="paint24_linear_56_1297" x1="210.234" y1="121.46" x2="210.234" y2="123.581" gradientUnits="userSpaceOnUse">
<stop stop-color="#6ACAF4"/>
<stop offset="1" stop-color="#744CB0"/>
</linearGradient>
<linearGradient id="paint25_linear_56_1297" x1="192.102" y1="128.155" x2="192.102" y2="130.667" gradientUnits="userSpaceOnUse">
<stop stop-color="#6ACAF4"/>
<stop offset="1" stop-color="#744CB0"/>
</linearGradient>
<linearGradient id="paint26_linear_56_1297" x1="163.648" y1="104.335" x2="163.648" y2="135.313" gradientUnits="userSpaceOnUse">
<stop stop-color="#6ACAF4"/>
<stop offset="1" stop-color="#744CB0"/>
</linearGradient>
<linearGradient id="paint27_linear_56_1297" x1="134.436" y1="102.415" x2="134.436" y2="136.854" gradientUnits="userSpaceOnUse">
<stop stop-color="#6ACAF4"/>
<stop offset="1" stop-color="#744CB0"/>
</linearGradient>
<linearGradient id="paint28_linear_56_1297" x1="166.184" y1="102.415" x2="166.184" y2="136.854" gradientUnits="userSpaceOnUse">
<stop stop-color="#6ACAF4"/>
<stop offset="1" stop-color="#744CB0"/>
</linearGradient>
<linearGradient id="paint29_linear_56_1297" x1="123.036" y1="111.303" x2="123.036" y2="123.747" gradientUnits="userSpaceOnUse">
<stop stop-color="#F77531"/>
<stop offset="1" stop-color="#FFA927"/>
</linearGradient>
<linearGradient id="paint30_linear_56_1297" x1="59.2264" y1="111.552" x2="59.2264" y2="126.958" gradientUnits="userSpaceOnUse">
<stop stop-color="#6ACAF4"/>
<stop offset="1" stop-color="#744CB0"/>
</linearGradient>
<linearGradient id="paint31_linear_56_1297" x1="186.923" y1="1.84937" x2="186.923" y2="32.8155" gradientUnits="userSpaceOnUse">
<stop stop-color="#F77531"/>
<stop offset="1" stop-color="#FFA927"/>
</linearGradient>
<linearGradient id="paint32_linear_56_1297" x1="189.785" y1="1.84937" x2="189.785" y2="4.88317" gradientUnits="userSpaceOnUse">
<stop stop-color="#6ACAF4"/>
<stop offset="1" stop-color="#744CB0"/>
</linearGradient>
<linearGradient id="paint33_linear_56_1297" x1="186.574" y1="7.52588" x2="186.574" y2="10.0501" gradientUnits="userSpaceOnUse">
<stop stop-color="#6ACAF4"/>
<stop offset="1" stop-color="#744CB0"/>
</linearGradient>
<linearGradient id="paint34_linear_56_1297" x1="188.322" y1="18.9741" x2="188.322" y2="20.9177" gradientUnits="userSpaceOnUse">
<stop stop-color="#6ACAF4"/>
<stop offset="1" stop-color="#744CB0"/>
</linearGradient>
<linearGradient id="paint35_linear_56_1297" x1="188.037" y1="25.6697" x2="188.037" y2="28.182" gradientUnits="userSpaceOnUse">
<stop stop-color="#6ACAF4"/>
<stop offset="1" stop-color="#744CB0"/>
</linearGradient>
<linearGradient id="paint36_linear_56_1297" x1="192.546" y1="11.9343" x2="192.546" y2="15.0037" gradientUnits="userSpaceOnUse">
<stop stop-color="#6ACAF4"/>
<stop offset="1" stop-color="#744CB0"/>
</linearGradient>
<linearGradient id="paint37_linear_56_1297" x1="143.14" y1="0" x2="143.14" y2="34.368" gradientUnits="userSpaceOnUse">
<stop stop-color="#E8549E"/>
<stop offset="1" stop-color="#F16777"/>
</linearGradient>
<linearGradient id="paint38_linear_56_1297" x1="83.0215" y1="1.84937" x2="83.0215" y2="32.8629" gradientUnits="userSpaceOnUse">
<stop stop-color="#E9559D"/>
<stop offset="1" stop-color="#FFA927"/>
</linearGradient>
<linearGradient id="paint39_linear_56_1297" x1="90.985" y1="7.52588" x2="90.985" y2="10.0501" gradientUnits="userSpaceOnUse">
<stop stop-color="#6ACAF4"/>
<stop offset="1" stop-color="#744CB0"/>
</linearGradient>
<linearGradient id="paint40_linear_56_1297" x1="127.337" y1="18.9741" x2="127.337" y2="21.0954" gradientUnits="userSpaceOnUse">
<stop stop-color="#6ACAF4"/>
<stop offset="1" stop-color="#744CB0"/>
</linearGradient>
<linearGradient id="paint41_linear_56_1297" x1="109.206" y1="25.6697" x2="109.206" y2="28.182" gradientUnits="userSpaceOnUse">
<stop stop-color="#6ACAF4"/>
<stop offset="1" stop-color="#744CB0"/>
</linearGradient>
<linearGradient id="paint42_linear_56_1297" x1="83.0214" y1="1.84937" x2="83.0214" y2="30.1253" gradientUnits="userSpaceOnUse">
<stop stop-color="#6ACAF4"/>
<stop offset="1" stop-color="#744CB0"/>
</linearGradient>
<linearGradient id="paint43_linear_56_1297" x1="83.2999" y1="0" x2="83.2999" y2="34.3679" gradientUnits="userSpaceOnUse">
<stop stop-color="#E8549E"/>
<stop offset="1" stop-color="#F16777"/>
</linearGradient>
<linearGradient id="paint44_linear_56_1297" x1="29.4498" y1="13.238" x2="29.4498" y2="25.6695" gradientUnits="userSpaceOnUse">
<stop stop-color="#6ACAF4"/>
<stop offset="1" stop-color="#744CB0"/>
</linearGradient>
<linearGradient id="paint45_linear_56_1297" x1="160.182" y1="36.0154" x2="160.182" y2="67.0289" gradientUnits="userSpaceOnUse">
<stop stop-color="#F77531"/>
<stop offset="1" stop-color="#FFA927"/>
</linearGradient>
<linearGradient id="paint46_linear_56_1297" x1="190.562" y1="41.6799" x2="190.562" y2="44.2042" gradientUnits="userSpaceOnUse">
<stop stop-color="#6ACAF4"/>
<stop offset="1" stop-color="#744CB0"/>
</linearGradient>
<linearGradient id="paint47_linear_56_1297" x1="226.914" y1="53.1399" x2="226.914" y2="55.2493" gradientUnits="userSpaceOnUse">
<stop stop-color="#6ACAF4"/>
<stop offset="1" stop-color="#744CB0"/>
</linearGradient>
<linearGradient id="paint48_linear_56_1297" x1="208.782" y1="59.8354" x2="208.782" y2="62.3478" gradientUnits="userSpaceOnUse">
<stop stop-color="#6ACAF4"/>
<stop offset="1" stop-color="#744CB0"/>
</linearGradient>
<linearGradient id="paint49_linear_56_1297" x1="180.322" y1="36.051" x2="180.322" y2="67.029" gradientUnits="userSpaceOnUse">
<stop stop-color="#6ACAF4"/>
<stop offset="1" stop-color="#744CB0"/>
</linearGradient>
<linearGradient id="paint50_linear_56_1297" x1="145.842" y1="34.1064" x2="145.842" y2="68.5339" gradientUnits="userSpaceOnUse">
<stop stop-color="#6ACAF4"/>
<stop offset="1" stop-color="#744CB0"/>
</linearGradient>
<linearGradient id="paint51_linear_56_1297" x1="182.888" y1="34.1064" x2="182.888" y2="68.5337" gradientUnits="userSpaceOnUse">
<stop stop-color="#6ACAF4"/>
<stop offset="1" stop-color="#744CB0"/>
</linearGradient>
<linearGradient id="paint52_linear_56_1297" x1="129.032" y1="47.4041" x2="129.032" y2="59.8356" gradientUnits="userSpaceOnUse">
<stop stop-color="#F77531"/>
<stop offset="1" stop-color="#FFA927"/>
</linearGradient>
</defs>
</svg>
