<svg width="314" height="238" viewBox="0 0 314 238" fill="none" xmlns="http://www.w3.org/2000/svg">
<path d="M228.559 171.02C228.607 171.38 228.547 171.746 228.387 172.072C228.227 172.398 227.974 172.669 227.66 172.851C227.346 173.033 226.985 173.117 226.623 173.094C226.261 173.071 225.913 172.94 225.625 172.719C225.337 172.499 225.121 172.197 225.004 171.854C224.888 171.51 224.875 171.139 224.969 170.789C225.064 170.438 225.259 170.123 225.532 169.884C225.806 169.645 226.143 169.492 226.503 169.445C226.742 169.413 226.984 169.429 227.217 169.491C227.449 169.553 227.667 169.66 227.858 169.806C228.049 169.952 228.209 170.135 228.329 170.343C228.45 170.552 228.527 170.782 228.559 171.02Z" fill="#E0E0E0"/>
<path d="M264.583 166.195C264.631 166.555 264.572 166.92 264.412 167.246C264.252 167.572 264 167.843 263.686 168.025C263.372 168.207 263.011 168.292 262.649 168.269C262.287 168.246 261.94 168.116 261.652 167.896C261.364 167.676 261.147 167.375 261.03 167.032C260.913 166.689 260.9 166.318 260.993 165.968C261.086 165.617 261.281 165.302 261.553 165.062C261.825 164.823 262.162 164.669 262.522 164.621C263.004 164.556 263.492 164.686 263.878 164.981C264.265 165.276 264.518 165.713 264.583 166.195Z" fill="#E0E0E0"/>
<path d="M263.751 166.306L263.161 166.386L260.672 147.801C260.022 142.949 257.471 138.553 253.58 135.582C249.69 132.61 244.778 131.306 239.926 131.956C235.073 132.606 230.678 135.156 227.706 139.047C224.735 142.938 223.431 147.849 224.081 152.702L226.57 171.286L225.979 171.365L223.49 152.781C222.82 147.772 224.166 142.702 227.233 138.686C230.301 134.67 234.838 132.036 239.847 131.366C244.855 130.695 249.926 132.041 253.942 135.108C257.958 138.176 260.591 142.713 261.262 147.722L263.751 166.306Z" fill="#E0E0E0"/>
<path d="M210.438 201.059C210.959 200.989 211.326 200.509 211.256 199.987C211.186 199.466 210.706 199.1 210.185 199.169C209.663 199.239 209.297 199.719 209.367 200.24C209.437 200.762 209.916 201.128 210.438 201.059Z" fill="#E0E0E0"/>
<path d="M288.201 178.316C288.892 178.224 289.377 177.588 289.284 176.897C289.192 176.206 288.557 175.721 287.865 175.813C287.174 175.906 286.689 176.541 286.781 177.232C286.874 177.923 287.509 178.409 288.201 178.316Z" fill="#E0E0E0"/>
<path d="M301.099 195.944L271.576 97.1197C271.189 95.7574 270.522 94.4908 269.618 93.4007C268.713 92.3105 267.592 91.4208 266.325 90.7881L222.464 68.8652C220.181 67.7252 217.553 67.4813 215.099 68.1814C212.644 68.8815 210.54 70.4749 209.202 72.6481L183.507 114.412C182.767 115.619 182.285 116.967 182.092 118.371C181.9 119.774 182 121.202 182.388 122.564L211.911 221.389C212.279 222.678 212.897 223.882 213.73 224.933C214.563 225.983 215.595 226.859 216.767 227.511C217.939 228.162 219.227 228.576 220.559 228.73C221.891 228.883 223.24 228.772 224.53 228.404L294.084 208.563C295.373 208.195 296.578 207.577 297.628 206.744C298.678 205.911 299.554 204.879 300.206 203.707C300.857 202.535 301.272 201.246 301.425 199.914C301.578 198.583 301.467 197.233 301.099 195.944ZM225.412 103.297C223.558 103.694 221.628 103.532 219.865 102.832C218.103 102.132 216.588 100.925 215.512 99.3641C214.436 97.803 213.846 95.9578 213.819 94.0619C213.791 92.1659 214.327 90.3044 215.357 88.7127C216.387 87.121 217.867 85.8706 219.608 85.1197C221.349 84.3687 223.274 84.151 225.139 84.4939C227.003 84.8369 228.725 85.7252 230.085 87.0464C231.445 88.3677 232.382 90.0626 232.779 91.9168C233.311 94.4028 232.834 96.9982 231.452 99.1323C230.07 101.266 227.898 102.764 225.412 103.297Z" fill="url(#paint0_linear_56_1369)"/>
<path d="M225.412 103.297C226.165 103.071 226.901 102.789 227.612 102.455C228.435 102.048 229.191 101.517 229.853 100.882C231.461 99.3782 232.496 97.3615 232.779 95.178C233.062 92.9946 232.576 90.7806 231.404 88.9167C230.926 88.1445 230.333 87.4501 229.644 86.8575C229.292 86.5477 228.921 86.2604 228.532 85.9972C228.118 85.7445 227.686 85.5212 227.241 85.3291C225.419 84.5149 223.385 84.3014 221.433 84.7194C219.481 85.1374 217.713 86.1652 216.384 87.6543C216.068 88.0121 215.775 88.3904 215.509 88.7868C215.26 89.1852 215.037 89.5983 214.839 90.024C214.457 90.8496 214.202 91.7284 214.083 92.6304C213.777 94.8082 214.237 97.0246 215.384 98.9012C216.53 100.778 218.292 102.198 220.369 102.921C221.237 103.227 222.145 103.401 223.064 103.437C223.849 103.449 224.634 103.405 225.413 103.302L225.259 103.323L224.809 103.413C224.566 103.467 224.319 103.5 224.071 103.512C223.734 103.552 223.394 103.563 223.054 103.546C222.122 103.528 221.197 103.368 220.312 103.073C219.006 102.638 217.809 101.931 216.797 100.999C215.786 100.067 214.984 98.93 214.445 97.6644C213.768 96.064 213.533 94.3111 213.765 92.5889C213.882 91.6592 214.141 90.7531 214.535 89.9025C214.925 89.0044 215.462 88.1773 216.123 87.4549C217.494 85.9007 219.327 84.8278 221.353 84.3942C223.379 83.9606 225.491 84.1892 227.377 85.0465C228.276 85.4364 229.104 85.9708 229.83 86.6284C230.539 87.252 231.147 87.9811 231.633 88.7899C232.552 90.264 233.059 91.9574 233.101 93.6938C233.132 95.0692 232.869 96.4353 232.33 97.701C231.791 98.9666 230.988 100.103 229.975 101.033C229.288 101.666 228.51 102.191 227.667 102.592C227.363 102.743 227.049 102.871 226.727 102.976C226.494 103.067 226.255 103.14 226.011 103.192L225.568 103.294L225.412 103.297Z" fill="#263238"/>
<path d="M203.99 156.011C201.099 146.354 205.414 138.741 213.619 136.266C221.825 133.791 229.7 137.783 232.59 147.423C235.479 157.062 231.166 164.693 222.884 167.178C214.602 169.663 206.902 165.732 203.99 156.011ZM222.976 150.326C221.281 144.672 218.623 143.033 215.914 143.847C213.361 144.609 211.884 147.486 213.555 153.144C215.226 158.802 218.07 160.391 220.616 159.624C223.325 158.81 224.647 155.984 222.976 150.326ZM246.841 127.112L258.294 123.674L236.923 190.86L225.452 194.295L246.841 127.112ZM251.253 170.503C248.364 160.864 252.595 153.256 260.878 150.777C269.161 148.298 276.966 152.293 279.855 161.933C282.744 171.572 278.431 179.203 270.143 181.689C261.855 184.175 254.141 180.227 251.229 170.507L251.253 170.503ZM270.215 164.822C268.52 159.167 265.776 157.558 263.147 158.343C260.519 159.128 259.117 161.983 260.788 167.64C262.459 173.298 265.222 174.911 267.85 174.12C270.477 173.33 271.891 170.515 270.191 164.825L270.215 164.822Z" fill="white"/>
<path d="M211.158 42.3325L186.878 12.3868C185.921 11.2078 184.728 10.2424 183.376 9.55301C182.024 8.86358 180.542 8.46542 179.026 8.38424L21.3477 0.510273C19.9158 0.43364 18.483 0.641584 17.132 1.12209C15.781 1.6026 14.5386 2.34614 13.4768 3.30972C12.4149 4.2733 11.5546 5.43781 10.9455 6.73592C10.3364 8.03403 9.9907 9.43999 9.92832 10.8725L7.32124 70.5702C7.25861 71.9956 7.47774 73.4194 7.96607 74.76C8.4544 76.1005 9.20235 77.3317 10.1671 78.3828C11.1318 79.434 12.2944 80.2845 13.5883 80.8858C14.8822 81.487 16.282 81.8272 17.7075 81.8868L175.138 88.7833C176.69 88.851 178.238 88.5846 179.678 88.0022C181.117 87.4197 182.415 86.5349 183.484 85.4074L210.623 56.6368C212.431 54.723 213.483 52.2169 213.581 49.5854C213.68 46.9539 212.819 44.3763 211.158 42.3325ZM196.432 52.0459C195.691 53.6536 194.489 55.0054 192.98 55.9303C191.47 56.8552 189.721 57.3117 187.952 57.2421C186.183 57.1724 184.474 56.5798 183.042 55.5392C181.61 54.4985 180.519 53.0565 179.906 51.3955C179.293 49.7346 179.187 47.9293 179.601 46.208C180.014 44.4866 180.929 42.9266 182.229 41.7251C183.529 40.5236 185.156 39.7346 186.905 39.458C188.653 39.1814 190.445 39.4294 192.052 40.1709C194.204 41.1649 195.873 42.9718 196.694 45.1951C197.516 47.4184 197.421 49.8766 196.433 52.0306L196.432 52.0459Z" fill="url(#paint1_linear_56_1369)"/>
<g opacity="0.4">
<path d="M211.277 42.3384L186.996 12.3927C186.04 11.2137 184.847 10.2483 183.495 9.55888C182.142 8.86945 180.66 8.47129 179.145 8.39011L21.1958 0.503437C19.764 0.426804 18.3311 0.634748 16.9801 1.11526C15.6291 1.59576 14.3868 2.33931 13.3249 3.30288C12.263 4.26646 11.4027 5.43097 10.7936 6.72908C10.1846 8.02719 9.83884 9.43315 9.77646 10.8657L7.16938 70.5634C7.10676 71.9888 7.32588 73.4125 7.81421 74.7531C8.30254 76.0937 9.05049 77.3248 10.0152 78.376C10.98 79.4271 12.1426 80.2777 13.4365 80.8789C14.7303 81.4802 16.1301 81.8203 17.5556 81.8799L175.257 88.7892C176.809 88.8568 178.357 88.5904 179.797 88.008C181.236 87.4256 182.534 86.5407 183.603 85.4133L210.741 56.6427C212.55 54.7288 213.602 52.2228 213.7 49.5913C213.799 46.9598 212.938 44.3821 211.277 42.3384ZM196.551 52.0518C195.81 53.6595 194.608 55.0112 193.099 55.9361C191.589 56.861 189.839 57.3176 188.071 57.2479C186.302 57.1783 184.593 56.5857 183.161 55.545C181.729 54.5043 180.637 53.0623 180.025 51.4014C179.412 49.7405 179.306 47.9352 179.72 46.2138C180.133 44.4925 181.048 42.9325 182.348 41.731C183.648 40.5295 185.275 39.7405 187.024 39.4639C188.772 39.1872 190.564 39.4353 192.171 40.1768C194.323 41.1708 195.992 42.9777 196.813 45.201C197.635 47.4243 197.54 49.8825 196.551 52.0365L196.551 52.0518Z" fill="#263238"/>
</g>
<path d="M215.713 42.5424L191.42 12.5961C190.464 11.4174 189.271 10.4523 187.919 9.76294C186.566 9.07355 185.084 8.67518 183.569 8.59353L28.3418 0.832324C26.9098 0.755171 25.4768 0.962757 24.1256 1.44307C22.7744 1.92339 21.5318 2.66689 20.4698 3.63057C19.4078 4.59425 18.5475 5.75896 17.9386 7.05731C17.3297 8.35566 16.9843 9.76187 16.9225 11.1946L14.3115 70.8921C14.2493 72.3206 14.4699 73.7474 14.9607 75.0904C15.4515 76.4334 16.2028 77.6661 17.1715 78.7179C18.1402 79.7696 19.3072 80.6196 20.6054 81.219C21.9036 81.8183 23.3074 82.1552 24.7362 82.2104L179.712 88.9934C181.263 89.0606 182.811 88.794 184.251 88.2116C185.691 87.6292 186.989 86.7446 188.057 85.6175L215.192 56.8474C217 54.932 218.049 52.4247 218.145 49.7928C218.241 47.1609 217.376 44.584 215.713 42.5424ZM200.99 52.256C200.249 53.8637 199.048 55.2154 197.538 56.1403C196.029 57.0652 194.279 57.5217 192.51 57.4521C190.741 57.3825 189.032 56.7899 187.6 55.7492C186.168 54.7085 185.077 53.2665 184.464 51.6056C183.852 49.9446 183.745 48.1394 184.159 46.418C184.572 44.6967 185.487 43.1366 186.787 41.9351C188.087 40.7337 189.715 39.9447 191.463 39.668C193.212 39.3914 195.003 39.6395 196.611 40.3809C198.762 41.375 200.432 43.1818 201.253 45.4051C202.074 47.6285 201.98 50.0867 200.991 52.2406L200.99 52.256Z" fill="url(#paint2_linear_56_1369)"/>
<path d="M115.004 35.8988C115.402 28.6661 120.071 24.3126 126.321 24.662C132.571 25.0115 136.673 29.7843 136.272 37.0747C135.871 44.365 131.258 48.6633 125.012 48.3179C118.766 47.9725 114.601 43.1314 115.004 35.8988ZM130.141 36.7384C130.395 32.1316 128.742 29.8347 126.043 29.6873C123.41 29.5391 121.444 31.7039 121.192 36.2416C120.941 40.7793 122.656 43.1444 125.29 43.2927C127.989 43.4401 129.887 41.3337 130.141 36.7384ZM151.85 26.5768L159.144 26.982L127.474 68.2448L120.18 67.8396L151.85 26.5768ZM143.055 57.7587C143.458 50.5261 148.123 46.1725 154.315 46.5154C160.565 46.8648 164.722 51.7056 164.323 58.9345C163.925 66.1634 159.257 70.5015 153.003 70.1481C146.834 69.8139 142.658 64.9722 143.055 57.7587ZM158.131 58.5916C158.382 54.0577 156.732 51.6917 154.033 51.5443C151.4 51.3961 149.44 53.4996 149.186 58.0988C148.932 62.6979 150.646 65.0015 153.28 65.1497C155.979 65.2817 157.881 63.1101 158.128 58.5722L158.131 58.5916Z" fill="white"/>
<path d="M229.182 87.5353C228.875 88.3276 228.41 89.0488 227.814 89.6546C226.593 90.8822 225.014 91.6907 223.305 91.964C221.571 92.2245 219.802 92.101 218.122 91.6022C216.433 91.1107 214.808 90.4249 213.278 89.5586C210.271 87.8466 207.574 85.6406 205.299 83.0331C204.214 81.8107 203.205 80.5226 202.279 79.176C201.374 77.8694 200.515 76.5713 199.702 75.2817C196.476 70.1297 194.008 65.2051 192.516 60.8334C192.143 59.7424 191.826 58.6963 191.556 57.6909C191.426 57.1884 191.302 56.6978 191.205 56.2122C191.095 55.742 191.024 55.2638 190.99 54.7821C190.898 53.8671 191.168 52.9526 191.742 52.2342C192.235 51.6592 192.89 51.2466 193.621 51.0507C193.923 50.966 194.233 50.9094 194.545 50.8815C194.819 50.8651 195.095 50.8714 195.368 50.9002C195.796 50.9406 196.215 51.0522 196.607 51.2305C196.845 51.3433 197.064 51.4923 197.257 51.6723C197.382 51.7973 197.436 51.8653 197.424 51.8801C197.412 51.8949 197.333 51.849 197.191 51.7539C196.986 51.6151 196.763 51.5027 196.529 51.4194C196.149 51.2849 195.75 51.2095 195.346 51.1956C195.089 51.1863 194.832 51.195 194.576 51.2216C194.289 51.2636 194.006 51.3304 193.731 51.4214C193.093 51.6232 192.529 52.0097 192.11 52.5321C191.64 53.1654 191.438 53.9576 191.546 54.7385C191.589 55.193 191.669 55.6433 191.784 56.085C191.89 56.5517 192.026 57.0275 192.165 57.5188C192.456 58.5021 192.793 59.5286 193.178 60.5983C194.725 64.8647 197.226 69.7178 200.472 74.7899C201.286 76.059 202.147 77.3392 203.054 78.6306C203.968 79.9414 204.96 81.1954 206.026 82.3853C208.235 84.9034 210.848 87.0371 213.756 88.6992C215.224 89.5286 216.782 90.1867 218.4 90.6605C219.941 91.1228 221.564 91.2436 223.156 91.0142C224.663 90.7786 226.058 90.0754 227.143 89.0041C228.422 87.6858 229.555 86.5636 229.182 87.5353Z" fill="#263238"/>
<path d="M47.8486 36.9203C50.5326 37.0439 52.9515 37.6944 55.1052 38.8718C57.2589 40.0492 58.9308 41.6637 60.121 43.7152C61.3129 45.7269 61.8493 48.0279 61.73 50.6181C61.6015 53.4076 60.7876 55.826 59.2882 57.8735C57.7889 59.9209 55.7908 61.4662 53.2939 62.5093C50.8389 63.5144 48.1293 63.9487 45.1649 63.8121C39.2761 63.5409 34.7519 61.5355 31.5921 57.7959C28.4323 54.0563 27.0057 48.8591 27.3122 42.2042C27.5306 37.4621 28.6192 33.4389 30.5778 30.1347C32.5365 26.8305 35.1586 24.3755 38.4441 22.7697C41.7697 21.1658 45.5557 20.4616 49.802 20.6572C52.0453 20.7605 54.1766 21.1182 56.1957 21.7304C58.2568 22.3045 59.9873 23.0831 61.3872 24.066L57.4543 31.0131C55.4354 29.5225 52.8436 28.7042 49.6789 28.5585C46.1136 28.3943 43.2417 29.3003 41.0632 31.2765C38.8847 33.2528 37.6244 36.2098 37.2825 40.1475C39.88 37.7912 43.402 36.7155 47.8486 36.9203ZM44.9572 56.5545C47.0403 56.6505 48.7485 56.1701 50.0818 55.1133C51.4551 54.0584 52.1858 52.5746 52.2739 50.6618C52.362 48.749 51.7708 47.2043 50.5002 46.0276C49.2715 44.8129 47.5756 44.1558 45.4124 44.0561C43.2892 43.9583 41.5191 44.4758 40.102 45.6086C38.6868 46.7015 37.9369 48.1645 37.8525 49.9976C37.7681 51.8307 38.3602 53.3555 39.629 54.572C40.8977 55.7885 42.6738 56.4494 44.9572 56.5545Z" fill="white"/>
<path d="M82.6437 65.5383C79.1585 65.3778 76.0933 64.378 73.4482 62.539C70.8031 60.7 68.7737 58.1306 67.36 54.8309C65.9883 51.4931 65.4061 47.5727 65.6135 43.0697C65.8209 38.5667 66.76 34.7363 68.431 31.5786C70.1438 28.3829 72.4017 25.991 75.2046 24.4029C78.0076 22.8148 81.1517 22.1011 84.6369 22.2616C88.122 22.4221 91.1872 23.4218 93.8323 25.2608C96.4774 27.0998 98.4859 29.6882 99.8577 33.026C101.271 36.3258 101.874 40.2272 101.667 44.7302C101.46 49.2332 100.5 53.0826 98.7867 56.2783C97.1158 59.436 94.8789 61.8089 92.0759 63.397C89.2729 64.985 86.1288 65.6988 82.6437 65.5383ZM83.0208 57.3492C85.5846 57.4673 87.6381 56.4637 89.1812 54.3384C90.7643 52.2149 91.6614 48.8618 91.8725 44.2791C92.0836 39.6964 91.4985 36.275 90.1172 34.015C88.776 31.7569 86.8235 30.5688 84.2597 30.4507C81.7359 30.3344 79.6825 31.3381 78.0993 33.4615C76.5563 35.5868 75.6792 38.9408 75.4681 43.5236C75.2571 48.1063 75.8221 51.5267 77.1633 53.7848C78.5446 56.0448 80.4971 57.233 83.0208 57.3492Z" fill="white"/>
<defs>
<linearGradient id="paint0_linear_56_1369" x1="229.278" y1="66.1746" x2="250.553" y2="225.027" gradientUnits="userSpaceOnUse">
<stop stop-color="#7542AB"/>
<stop offset="1" stop-color="#7185CF"/>
</linearGradient>
<linearGradient id="paint1_linear_56_1369" x1="112.93" y1="4.72794" x2="109.182" y2="86.0999" gradientUnits="userSpaceOnUse">
<stop stop-color="#7542AB"/>
<stop offset="1" stop-color="#7185CF"/>
</linearGradient>
<linearGradient id="paint2_linear_56_1369" x1="118.708" y1="4.99399" x2="114.961" y2="86.3661" gradientUnits="userSpaceOnUse">
<stop stop-color="#7542AB"/>
<stop offset="1" stop-color="#7185CF"/>
</linearGradient>
</defs>
</svg>
