<svg width="74" height="58" viewBox="0 0 74 58" fill="none" xmlns="http://www.w3.org/2000/svg">
<path fill-rule="evenodd" clip-rule="evenodd" d="M43.2047 15.8168L50.4231 15.8013L50.4202 49.6973L43.1893 49.7093L43.2047 15.8168ZM58.8013 52.0116L58.8388 54.7576C58.3122 54.6488 53.6973 54.7138 52.7507 54.7138C46.873 54.7138 40.5237 54.6088 34.756 54.7171L34.7806 51.9945L58.8013 52.0116ZM60.9969 56.252C61.1248 56.1916 61.0719 56.3595 61.1103 56.1112C61.1907 54.923 61.1115 53.6481 61.1336 52.4445C61.194 49.1157 61.0528 49.6985 56.4008 49.6985C55.4267 49.6985 53.5652 49.8039 52.6974 49.6685L52.7178 15.8351L60.3491 15.8155C60.4378 16.9083 60.3791 17.3716 61.1023 17.8961C61.7398 18.3586 62.7126 18.2269 63.6196 18.2269C65.5119 18.2269 67.4046 18.2269 69.2969 18.2269C70.8471 18.2269 72.9719 18.6469 72.9861 16.1905L72.9881 4.83461C72.9881 2.8994 73.2698 1.03002 71.0842 1.00003H62.5647C61.5677 0.997109 60.929 1.24875 60.6132 1.91159C60.9103 2.17573 60.5903 1.82785 61.5906 1.83868C62.4305 1.84743 63.1171 2.18531 63.6375 2.78733L63.887 3.14896C63.5137 3.17812 62.9976 3.0948 62.7076 3.20437C63.0817 3.20354 63.6412 3.10396 63.93 3.29519L70.6913 3.29644L70.6971 15.9355L62.6526 15.9413C62.6593 15.1906 62.7184 3.77931 62.6022 3.29228C62.2576 2.92523 62.2631 2.79858 61.7898 2.6111C61.3877 2.45195 60.9153 2.43945 60.5966 2.62985C60.3487 2.27739 60.7657 2.47028 60.4737 2.23906C60.2837 2.61277 60.3645 3.23437 60.3645 3.69307C55.7725 3.61891 51.1055 3.68224 46.5052 3.68973C41.8553 3.69682 37.2049 3.69057 32.5546 3.68973C30.8065 3.68973 30.9694 3.59391 30.109 4.6613L22.1903 14.1832C21.9737 14.6631 22.0845 15.1439 22.4053 15.4714C22.8202 15.8955 23.2327 15.8163 23.8764 15.8151C25.0183 15.8126 26.2349 15.8588 27.3668 15.8051C27.396 16.1396 27.4497 21.8532 27.3668 22.1811C27.2968 22.4581 26.5457 23.1001 26.3115 23.3305L24.7338 24.9116C24.4434 25.2203 24.4538 25.2362 23.8793 25.2328C22.4528 25.2249 21.0417 25.1103 20.3422 26.0382C19.5514 27.0872 19.7685 28.2267 19.7685 29.7344C19.7685 31.2251 19.5718 32.4983 20.4709 33.3832C21.3437 34.2427 22.6702 34.069 24.1193 34.069H32.7975C34.2823 34.069 35.5414 34.3023 36.5033 33.4403C37.4986 32.5483 37.292 31.4692 37.292 29.8965C37.292 28.4637 37.5216 27.0014 36.7212 26.0548C35.4347 24.5333 33.1216 25.7078 32.4054 25.0153C32.2059 24.822 32.0488 24.645 31.8463 24.4404C29.187 21.757 29.6791 22.8452 29.6787 20.1638C29.6782 18.7277 29.6537 17.2679 29.6812 15.8347L40.8824 15.8151L40.8983 49.7014C39.0389 49.6873 37.1733 49.6985 35.3118 49.6985C31.9667 49.6985 32.4804 49.4035 32.4642 55.2021C32.4579 57.4827 33.3341 57.0081 36.3659 57.0081C38.0982 57.0081 59.8225 57.0752 60.2708 56.9719C60.6411 56.8861 60.9844 56.6169 60.9957 56.2516L60.9969 56.252ZM53.0157 12.408C53.1345 12.65 53.1165 12.6217 53.3449 12.7621C53.5352 13.0775 53.7594 13.1541 54.0073 13.5258L39.9217 13.527C40.2429 13.0733 46.9251 6.5161 47.0026 6.4786L51.4925 10.961C51.7654 11.2381 51.9833 11.4576 52.2666 11.7276C52.5599 12.0068 52.7691 12.3126 53.0157 12.4084V12.408ZM22.0924 27.5551C22.7477 27.4251 34.4823 27.4955 34.9989 27.5292L34.9927 31.7638C33.6786 31.8179 22.4544 31.8754 22.0653 31.7017L22.0928 27.5551H22.0924ZM60.2687 7.30518L60.282 13.5241L56.7778 13.4908L60.2687 7.30559V7.30518ZM31.4197 6.674L36.9183 13.522L25.6978 13.4945L31.4197 6.67358V6.674ZM62.4026 7.39725C61.666 7.49807 60.4299 6.10447 61.7819 5.50496C62.2489 5.29789 62.1614 5.15708 62.5226 4.96418L62.5059 7.18311C62.4626 7.35101 62.4855 7.29018 62.403 7.39683L62.4026 7.39725ZM49.754 5.98074L58.4114 5.9774L56.8378 8.76419C56.5641 9.24872 56.3233 9.68242 56.0412 10.1557C55.8196 10.5269 55.5209 11.1785 55.2655 11.4893L49.7544 5.98074H49.754ZM38.484 11.7185C38.1665 11.5297 34.9852 7.33434 34.4131 6.71358C34.2232 6.50735 33.9724 6.19363 33.8432 5.98282C37.1849 5.97365 40.8754 5.93074 44.1742 5.99865L38.4835 11.7189L38.484 11.7185ZM60.2687 7.30518C59.9004 7.2781 59.5504 7.01729 59.2938 6.72649C58.7072 6.06073 58.4697 5.28581 58.5897 4.34841C58.6839 3.60933 58.8693 3.82847 59.5338 3.78014C59.6358 4.38216 59.4959 4.61338 59.8841 5.07958C59.9333 5.13874 60.0333 5.24082 60.0833 5.28498L60.7553 5.6991C60.3791 4.98709 60.4916 4.58755 60.9607 3.96262L61.3482 3.52934C62.4072 5.00209 60.4437 5.63744 61.2361 6.88981C61.4877 7.28768 61.6948 7.19186 62.0706 7.49849C61.6485 7.65472 60.5449 7.66264 60.2687 7.30518ZM60.2687 7.30518C60.5449 7.66264 61.6481 7.65472 62.0706 7.49849C61.6948 7.19144 61.4877 7.28768 61.2361 6.88981C60.4437 5.63744 62.4072 5.00209 61.3482 3.52934L60.9607 3.96262C60.4916 4.58755 60.3791 4.98709 60.7553 5.6991L60.0833 5.28498C60.0337 5.24123 59.9337 5.13874 59.8841 5.07958C59.4959 4.6138 59.6358 4.38258 59.5338 3.78014C58.8697 3.82847 58.6843 3.60891 58.5897 4.34841C58.4701 5.28581 58.7072 6.06073 59.2938 6.72649C59.5504 7.01729 59.9 7.2781 60.2687 7.30518ZM62.4026 7.39725C62.4851 7.29018 62.4622 7.35142 62.5055 7.18352L62.5222 4.9646C62.161 5.15749 62.2485 5.29831 61.7814 5.50537C60.4295 6.10447 61.6656 7.49849 62.4022 7.39767L62.4026 7.39725ZM60.6132 1.91159L60.4741 2.23906C60.7657 2.47028 60.3487 2.27739 60.597 2.62985C60.9157 2.43945 61.3881 2.45195 61.7902 2.6111C62.2635 2.79858 62.2581 2.92523 62.6026 3.29228L63.9304 3.29519C63.6417 3.10396 63.0817 3.20354 62.708 3.20437C62.998 3.0948 63.5138 3.17812 63.8875 3.14896L63.6379 2.78733C63.1175 2.1849 62.431 1.84743 61.591 1.83868C60.5903 1.82827 60.9103 2.17573 60.6136 1.91159H60.6132Z" fill="#263238"/>
<path d="M60.6132 1.91159C60.929 1.24875 61.5677 0.997109 62.5647 1.00003H71.0842C73.2698 1.03002 72.9881 2.8994 72.9881 4.83461L72.9861 16.1905C72.9719 18.6469 70.8471 18.2269 69.2969 18.2269C67.4046 18.2269 65.5119 18.2269 63.6196 18.2269C62.7126 18.2269 61.7398 18.3586 61.1023 17.8961C60.3791 17.3716 60.4378 16.9083 60.3491 15.8155L52.7178 15.8351L52.6974 49.6685C53.5652 49.8039 55.4267 49.6985 56.4008 49.6985C61.0528 49.6985 61.194 49.1157 61.1336 52.4445C61.1115 53.6481 61.1907 54.923 61.1103 56.1112C61.0719 56.3595 61.1248 56.1916 60.9969 56.252L60.9957 56.2516C60.9844 56.6169 60.6411 56.8861 60.2708 56.9719C59.8225 57.0752 38.0982 57.0081 36.3659 57.0081C33.3341 57.0081 32.4579 57.4827 32.4642 55.2021C32.4804 49.4035 31.9667 49.6985 35.3118 49.6985C37.1733 49.6985 39.0389 49.6873 40.8983 49.7014L40.8824 15.8151L29.6812 15.8347C29.6537 17.2679 29.6782 18.7277 29.6787 20.1638C29.6791 22.8452 29.187 21.757 31.8463 24.4404C32.0488 24.645 32.2059 24.822 32.4054 25.0153C33.1216 25.7078 35.4347 24.5333 36.7212 26.0548C37.5216 27.0014 37.292 28.4637 37.292 29.8965C37.292 31.4692 37.4986 32.5483 36.5033 33.4403C35.5414 34.3023 34.2823 34.069 32.7975 34.069H24.1193C22.6702 34.069 21.3437 34.2427 20.4709 33.3832C19.5718 32.4983 19.7685 31.2251 19.7685 29.7344C19.7685 28.2267 19.5514 27.0872 20.3422 26.0382C21.0417 25.1103 22.4528 25.2249 23.8793 25.2328C24.4538 25.2362 24.4434 25.2203 24.7338 24.9116L26.3115 23.3305C26.5457 23.1001 27.2968 22.4581 27.3668 22.1811C27.4497 21.8532 27.396 16.1396 27.3668 15.8051C26.2349 15.8588 25.0183 15.8126 23.8764 15.8151C23.2327 15.8163 22.8202 15.8955 22.4053 15.4714C22.0845 15.1439 21.9737 14.6631 22.1903 14.1832L30.109 4.6613C30.9694 3.59391 30.8065 3.68973 32.5546 3.68973C37.2049 3.69057 41.8553 3.69682 46.5052 3.68973C51.1055 3.68224 55.7725 3.61891 60.3645 3.69307C60.3645 3.23437 60.2837 2.61277 60.4737 2.23906C60.7657 2.47028 60.3487 2.27739 60.5966 2.62985C60.9153 2.43945 61.3877 2.45195 61.7898 2.6111C62.2631 2.79858 62.2576 2.92523 62.6022 3.29228C62.7184 3.77931 62.6593 15.1906 62.6526 15.9413L70.6971 15.9355L70.6913 3.29644L63.93 3.29519C63.6412 3.10396 63.0817 3.20354 62.7076 3.20437C62.9976 3.0948 63.5137 3.17812 63.887 3.14896L63.6375 2.78733C63.1171 2.18531 62.4305 1.84743 61.5906 1.83868C60.5903 1.82785 60.9103 2.17573 60.6132 1.91159ZM60.6132 1.91159L60.4741 2.23906C60.7657 2.47028 60.3487 2.27739 60.597 2.62985C60.9157 2.43945 61.3881 2.45195 61.7902 2.6111C62.2635 2.79858 62.2581 2.92523 62.6026 3.29228L63.9304 3.29519C63.6417 3.10396 63.0817 3.20354 62.708 3.20437C62.998 3.0948 63.5138 3.17812 63.8875 3.14896L63.6379 2.78733C63.1175 2.1849 62.431 1.84743 61.591 1.83868C60.5903 1.82827 60.9103 2.17573 60.6136 1.91159H60.6132ZM60.2687 7.30518L60.282 13.5241L56.7778 13.4908L60.2687 7.30559V7.30518ZM60.2687 7.30518C59.9004 7.2781 59.5504 7.01729 59.2938 6.72649M60.2687 7.30518C60.5449 7.66264 61.6485 7.65472 62.0706 7.49849M60.2687 7.30518C60.5449 7.66264 61.6481 7.65472 62.0706 7.49849M60.2687 7.30518C59.9 7.2781 59.5504 7.01729 59.2938 6.72649M62.4026 7.39725C61.666 7.49807 60.4299 6.10447 61.7819 5.50496C62.2489 5.29789 62.1614 5.15708 62.5226 4.96418L62.5059 7.18311C62.4626 7.35101 62.4855 7.29018 62.403 7.39683L62.4026 7.39725ZM62.4026 7.39725C62.4851 7.29018 62.4622 7.35142 62.5055 7.18352L62.5222 4.9646C62.161 5.15749 62.2485 5.29831 61.7814 5.50537C60.4295 6.10447 61.6656 7.49849 62.4022 7.39767L62.4026 7.39725ZM59.2938 6.72649C58.7072 6.06073 58.4697 5.28581 58.5897 4.34841M59.2938 6.72649C58.7072 6.06073 58.4701 5.28581 58.5897 4.34841M58.5897 4.34841C58.6839 3.60933 58.8693 3.82847 59.5338 3.78014M58.5897 4.34841C58.6843 3.60891 58.8697 3.82847 59.5338 3.78014M59.5338 3.78014C59.6358 4.38216 59.4959 4.61338 59.8841 5.07958M59.5338 3.78014C59.6358 4.38258 59.4959 4.6138 59.8841 5.07958M59.8841 5.07958C59.9333 5.13874 60.0333 5.24082 60.0833 5.28498M59.8841 5.07958C59.9337 5.13874 60.0337 5.24123 60.0833 5.28498M60.0833 5.28498L60.7553 5.6991C60.3791 4.98709 60.4916 4.58755 60.9607 3.96262L61.3482 3.52934C62.4072 5.00209 60.4437 5.63744 61.2361 6.88981M61.2361 6.88981C61.4877 7.28768 61.6948 7.19186 62.0706 7.49849M61.2361 6.88981C61.4877 7.28768 61.6948 7.19144 62.0706 7.49849M43.2047 15.8168L50.4231 15.8013L50.4202 49.6973L43.1893 49.7093L43.2047 15.8168ZM58.8013 52.0116L58.8388 54.7576C58.3122 54.6488 53.6973 54.7138 52.7507 54.7138C46.873 54.7138 40.5237 54.6088 34.756 54.7171L34.7806 51.9945L58.8013 52.0116ZM53.0157 12.408C53.1345 12.65 53.1165 12.6217 53.3449 12.7621C53.5352 13.0775 53.7594 13.1541 54.0073 13.5258L39.9217 13.527C40.2429 13.0733 46.9251 6.5161 47.0026 6.4786L51.4925 10.961C51.7654 11.2381 51.9833 11.4576 52.2666 11.7276C52.5599 12.0068 52.7691 12.3126 53.0157 12.4084V12.408ZM22.0924 27.5551C22.7477 27.4251 34.4823 27.4955 34.9989 27.5292L34.9927 31.7638C33.6786 31.8179 22.4544 31.8754 22.0653 31.7017L22.0928 27.5551H22.0924ZM31.4197 6.674L36.9183 13.522L25.6978 13.4945L31.4197 6.67358V6.674ZM49.754 5.98074L58.4114 5.9774L56.8378 8.76419C56.5641 9.24872 56.3233 9.68242 56.0412 10.1557C55.8196 10.5269 55.5209 11.1785 55.2655 11.4893L49.7544 5.98074H49.754ZM38.484 11.7185C38.1665 11.5297 34.9852 7.33434 34.4131 6.71358C34.2232 6.50735 33.9724 6.19363 33.8432 5.98282C37.1849 5.97365 40.8754 5.93074 44.1742 5.99865L38.4835 11.7189L38.484 11.7185Z" stroke="#263238"/>
<path fill-rule="evenodd" clip-rule="evenodd" d="M15.3824 54.1315C15.5403 54.5664 14.7 55.4976 14.505 55.653C13.1568 56.7274 12.2936 55.4592 12.4748 54.8293C12.7577 53.8469 14.8104 54.0077 15.3824 54.1315ZM11.4374 48.0196L17.223 48.0125L17.2255 53.9752L11.4395 53.9419L11.4374 48.0196ZM3.34077 48.0184L9.13848 48.0129L9.13681 53.9702L3.3416 53.9731L3.34077 48.0184ZM13.0989 56.2004C12.2131 56.0533 11.6499 56.3462 10.9483 55.7975C9.77757 54.8822 9.50719 53.614 10.1321 52.245C10.4567 51.5334 10.7791 51.4455 11.1487 51.0872C11.2595 50.9797 11.1949 51.0697 11.2274 50.9851C11.4711 51.9142 10.7891 52.0213 10.8212 53.0078C10.8329 53.367 10.9791 53.6215 11.152 53.8694C11.5599 54.4531 11.2678 53.914 11.8728 54.4143L11.9536 54.0885L12.6135 54.111C12.5794 54.2648 11.8686 55.123 12.6418 55.8146C12.741 55.9033 12.7777 55.9046 12.8764 55.9833C12.9914 56.075 13.0301 56.1271 13.0989 56.2004ZM16.7806 47.0493C17.6888 46.4656 17.738 45.4595 19.3449 46.0907C19.4261 47.3897 19.5807 48.195 18.8178 48.5916C18.7012 48.3379 18.8453 48.4854 18.6008 48.3425C18.7487 47.9055 19.1136 47.8917 19.2974 47.4468C19.5819 46.7585 18.7362 45.7615 17.7871 46.7627C17.3105 47.2655 17.0701 47.123 16.9206 47.0955C16.9018 47.0922 16.8635 47.1014 16.8501 47.0739C16.8368 47.0464 16.8022 47.061 16.7802 47.0497L16.7806 47.0493ZM11.4549 40.0963L17.2214 40.0746L17.2255 45.7174L11.4416 45.6886L11.4549 40.0963ZM3.32952 40.0763L9.13931 40.0701L9.13806 45.7169L3.34035 45.7219L3.32952 40.0763ZM3.33702 32.8725L9.13931 32.8642L9.14389 37.7911L3.34077 37.7957L3.33702 32.8721V32.8725ZM1.09435 56.2808L19.5336 56.2654L19.5232 34.0865L17.2068 34.0969L17.2259 37.7932L11.4216 37.7915L11.4236 27.8468L9.12264 27.8193C9.15722 28.3517 9.20472 30.1857 9.0914 30.574L3.37618 30.5686L3.34077 20.9967L1.05143 20.9746C0.944362 22.594 1.03768 27.8068 1.03768 29.8162V54.0673C1.03644 54.8505 1.11559 55.493 1.09476 56.2808H1.09435ZM16.7806 47.0493C16.8022 47.0605 16.8368 47.046 16.8506 47.0735C16.8639 47.101 16.9022 47.0918 16.921 47.0951C17.0705 47.1226 17.3109 47.2651 17.7875 46.7622C18.7362 45.7611 19.5823 46.7581 19.2978 47.4463C19.1141 47.8913 18.7491 47.9055 18.6012 48.3421C18.8458 48.485 18.702 48.3375 18.8183 48.5912C19.5811 48.1946 19.4265 47.3888 19.3453 46.0902C17.7384 45.4586 17.6892 46.4652 16.781 47.0489L16.7806 47.0493ZM15.382 54.1319C14.8099 54.0081 12.7577 53.8473 12.4744 54.8297C12.2931 55.4596 13.1564 56.7278 14.5046 55.6534C14.6995 55.498 15.5399 54.5668 15.382 54.1319ZM13.0985 56.2008C13.0297 56.1275 12.991 56.0754 12.876 55.9837C12.7772 55.905 12.7406 55.9038 12.6414 55.815C11.8682 55.1234 12.5789 54.2648 12.6131 54.1115L11.9532 54.089L11.8723 54.4147C11.2674 53.9144 11.559 54.4531 11.1516 53.8698C10.9787 53.6223 10.8325 53.3674 10.8208 53.0082C10.7887 52.0217 11.4707 51.9146 11.227 50.9855C11.1945 51.0701 11.2591 50.9801 11.1483 51.0876C10.7787 51.4459 10.4562 51.5338 10.1317 52.2454C9.50677 53.6144 9.77716 54.883 10.9479 55.7979C11.6495 56.3466 12.2127 56.0533 13.0985 56.2008Z" fill="#263238"/>
<path d="M16.7806 47.0493C17.6888 46.4656 17.738 45.4595 19.3449 46.0907C19.4261 47.3897 19.5807 48.195 18.8178 48.5916C18.7012 48.3379 18.8453 48.4854 18.6008 48.3425C18.7487 47.9055 19.1136 47.8917 19.2974 47.4468C19.5819 46.7585 18.7362 45.7615 17.7871 46.7627C17.3105 47.2655 17.0701 47.123 16.9206 47.0955C16.9018 47.0922 16.8635 47.1014 16.8501 47.0739C16.8368 47.0464 16.8022 47.061 16.7802 47.0497L16.7806 47.0493ZM16.7806 47.0493C16.8022 47.0605 16.8368 47.046 16.8506 47.0735C16.8639 47.101 16.9022 47.0918 16.921 47.0951C17.0705 47.1226 17.3109 47.2651 17.7875 46.7622C18.7362 45.7611 19.5823 46.7581 19.2978 47.4463C19.1141 47.8913 18.7491 47.9055 18.6012 48.3421C18.8458 48.485 18.702 48.3375 18.8183 48.5912C19.5811 48.1946 19.4265 47.3888 19.3453 46.0902C17.7384 45.4586 17.6892 46.4652 16.781 47.0489L16.7806 47.0493ZM15.3824 54.1315C15.5403 54.5664 14.7 55.4976 14.505 55.653C13.1568 56.7274 12.2936 55.4592 12.4748 54.8293C12.7577 53.8469 14.8104 54.0077 15.3824 54.1315ZM11.4374 48.0196L17.223 48.0125L17.2255 53.9752L11.4395 53.9419L11.4374 48.0196ZM3.34077 48.0184L9.13848 48.0129L9.13681 53.9702L3.3416 53.9731L3.34077 48.0184ZM13.0989 56.2004C12.2131 56.0533 11.6499 56.3462 10.9483 55.7975C9.77757 54.8822 9.50719 53.614 10.1321 52.245C10.4567 51.5334 10.7791 51.4455 11.1487 51.0872C11.2595 50.9797 11.1949 51.0697 11.2274 50.9851C11.4711 51.9142 10.7891 52.0213 10.8212 53.0078C10.8329 53.367 10.9791 53.6215 11.152 53.8694C11.5599 54.4531 11.2678 53.914 11.8728 54.4143L11.9536 54.0885L12.6135 54.111C12.5794 54.2648 11.8686 55.123 12.6418 55.8146C12.741 55.9033 12.7777 55.9046 12.8764 55.9833C12.9914 56.075 13.0301 56.1271 13.0989 56.2004ZM11.4549 40.0963L17.2214 40.0746L17.2255 45.7174L11.4416 45.6886L11.4549 40.0963ZM3.32952 40.0763L9.13931 40.0701L9.13806 45.7169L3.34035 45.7219L3.32952 40.0763ZM3.33702 32.8725L9.13931 32.8642L9.14389 37.7911L3.34077 37.7957L3.33702 32.8721V32.8725ZM1.09435 56.2808L19.5336 56.2654L19.5232 34.0865L17.2068 34.0969L17.2259 37.7932L11.4216 37.7915L11.4236 27.8468L9.12264 27.8193C9.15722 28.3517 9.20472 30.1857 9.0914 30.574L3.37618 30.5686L3.34077 20.9967L1.05143 20.9746C0.944362 22.594 1.03768 27.8068 1.03768 29.8162V54.0673C1.03644 54.8505 1.11559 55.493 1.09476 56.2808H1.09435ZM15.382 54.1319C14.8099 54.0081 12.7577 53.8473 12.4744 54.8297C12.2931 55.4596 13.1564 56.7278 14.5046 55.6534C14.6995 55.498 15.5399 54.5668 15.382 54.1319ZM13.0985 56.2008C13.0297 56.1275 12.991 56.0754 12.876 55.9837C12.7772 55.905 12.7406 55.9038 12.6414 55.815C11.8682 55.1234 12.5789 54.2648 12.6131 54.1115L11.9532 54.089L11.8723 54.4147C11.2674 53.9144 11.559 54.4531 11.1516 53.8698C10.9787 53.6223 10.8325 53.3674 10.8208 53.0082C10.7887 52.0217 11.4707 51.9146 11.227 50.9855C11.1945 51.0701 11.2591 50.9801 11.1483 51.0876C10.7787 51.4459 10.4562 51.5338 10.1317 52.2454C9.50677 53.6144 9.77716 54.883 10.9479 55.7979C11.6495 56.3466 12.2127 56.0533 13.0985 56.2008Z" stroke="#263238"/>
</svg>
