<svg width="60" height="60" viewBox="0 0 60 60" fill="none" xmlns="http://www.w3.org/2000/svg">
<path d="M30 55.1998C29.25 55.1998 28.5 55.0248 27.875 54.6748C23.2 52.1248 14.975 49.4248 9.825 48.7498L9.1 48.6498C5.825 48.2498 3.125 45.1748 3.125 41.8498V11.6498C3.125 9.67477 3.9 7.87478 5.325 6.57478C6.75 5.27478 8.6 4.64978 10.55 4.82478C16.05 5.24978 24.35 7.99978 29.05 10.9498L29.65 11.2998C29.825 11.3998 30.2 11.3998 30.35 11.3248L30.75 11.0748C35.45 8.12477 43.75 5.32478 49.275 4.84978C49.325 4.84978 49.525 4.84978 49.575 4.84978C51.4 4.67478 53.275 5.32478 54.675 6.62478C56.1 7.92478 56.875 9.72477 56.875 11.6998V41.8748C56.875 45.2248 54.175 48.2748 50.875 48.6748L50.05 48.7748C44.9 49.4498 36.65 52.1748 32.075 54.6998C31.475 55.0498 30.75 55.1998 30 55.1998ZM9.95 8.54978C9.15 8.54978 8.425 8.82478 7.85 9.34978C7.225 9.92478 6.875 10.7498 6.875 11.6498V41.8498C6.875 43.3248 8.15 44.7498 9.575 44.9498L10.325 45.0498C15.95 45.7998 24.575 48.6248 29.575 51.3498C29.8 51.4498 30.125 51.4748 30.25 51.4248C35.25 48.6498 43.925 45.7998 49.575 45.0498L50.425 44.9498C51.85 44.7748 53.125 43.3248 53.125 41.8498V11.6748C53.125 10.7498 52.775 9.94978 52.15 9.34978C51.5 8.77478 50.675 8.49978 49.75 8.54978C49.7 8.54978 49.5 8.54978 49.45 8.54978C44.675 8.97478 36.975 11.5498 32.775 14.1748L32.375 14.4498C31 15.2998 29.05 15.2998 27.725 14.4748L27.125 14.1248C22.85 11.4998 15.15 8.94978 10.25 8.54978C10.15 8.54978 10.05 8.54978 9.95 8.54978Z" fill="white"/>
<path d="M30 53.1001C28.975 53.1001 28.125 52.2501 28.125 51.2251V13.7251C28.125 12.7001 28.975 11.8501 30 11.8501C31.025 11.8501 31.875 12.7001 31.875 13.7251V51.2251C31.875 52.2751 31.025 53.1001 30 53.1001Z" fill="white"/>
<path d="M19.375 23.1001H13.75C12.725 23.1001 11.875 22.2501 11.875 21.2251C11.875 20.2001 12.725 19.3501 13.75 19.3501H19.375C20.4 19.3501 21.25 20.2001 21.25 21.2251C21.25 22.2501 20.4 23.1001 19.375 23.1001Z" fill="white"/>
<path d="M21.25 30.6001H13.75C12.725 30.6001 11.875 29.7501 11.875 28.7251C11.875 27.7001 12.725 26.8501 13.75 26.8501H21.25C22.275 26.8501 23.125 27.7001 23.125 28.7251C23.125 29.7501 22.275 30.6001 21.25 30.6001Z" fill="white"/>
</svg>
