<svg width="74" height="60" viewBox="0 0 74 60" fill="none" xmlns="http://www.w3.org/2000/svg">
<path fill-rule="evenodd" clip-rule="evenodd" d="M35.4647 56.8H9.25882C7.88235 56.8 6.24118 56.1647 5.28824 55.1588C5.23529 55.1059 5.18235 55.0529 5.12941 55C5.07647 54.9471 5.02353 54.8941 4.97059 54.8412C4.17647 53.9941 3.59412 52.4588 3.59412 51.2941V50.9765C3.59412 49.9706 3.96471 49.0176 4.38824 48.2765C4.81176 47.5353 5.18235 46.7412 5.55294 46C5.97647 45.2588 6.34706 44.4647 6.71765 43.7235C7.08824 42.9294 7.51176 42.1882 7.88235 41.4471C8.25294 40.6529 8.67647 39.9118 9.04706 39.1706C9.25882 38.8 9.41765 38.4294 9.62941 38.0059C10.2118 36.8941 10.7941 35.6235 11.4294 34.5647L12.5941 32.2882C13.2824 32.5529 13.7059 32.7118 14.5529 32.7118C15.6647 32.7118 16.5118 32.3412 17.2 31.8118C17.3059 31.7588 17.3588 31.7059 17.4647 31.6C18.1 31.0706 18.5235 30.4882 19.4765 30.4882C20.5882 30.4882 20.9588 31.1765 21.7529 31.7588C22.4941 32.2882 23.3412 32.6588 24.5059 32.6588C26.1471 32.6588 27.1 31.8647 27.8941 31.1235C28.4235 30.6471 28.8471 30.3824 29.6412 30.4353C30.5412 30.4882 30.9118 31.0706 31.6 31.6C31.6529 31.6529 31.7059 31.6529 31.7588 31.7588L33.1353 34.4059C33.4 34.9353 33.6647 35.4647 33.9824 36.0471C34.2471 36.5765 34.5647 37.1059 34.8294 37.6882C34.9882 37.9529 35.0941 38.2176 35.2529 38.4824L39.8588 47.3765C40.3882 48.4353 41.1294 49.5471 41.1294 51.0294C41.1294 51.9824 40.9706 52.7765 40.6 53.5706C40.2294 54.3118 40.0706 54.4706 39.5941 55.0529C39.1706 55.5294 38.3765 56.1118 37.7941 56.3765C37.1059 56.6941 36.3118 56.9059 35.5176 56.9059L35.4647 56.8ZM64.3176 20.9059C64.3706 21.3294 64.3176 21.9118 64.3176 22.3353V38.2706C64.3176 39.2235 64.3706 40.0176 63.9471 40.7588C62.9941 42.4529 61.1941 42.1353 60.4529 40.7588C60.0294 39.9118 60.0823 39.2765 60.0823 38.2176V26.6235C60.0823 26.4118 60.0823 21.0647 60.0823 20.8529H64.3176V20.9059ZM48.4882 20.9059C48.5412 21.3294 48.4882 21.9118 48.4882 22.3353V38.2706C48.4882 39.2765 48.5412 39.9647 48.1176 40.7588C47.2706 42.3471 45.4706 42.2941 44.6235 40.7588C44.2 39.9118 44.2529 39.2765 44.2529 38.2176V26.6235C44.2529 26.4118 44.2529 21.0647 44.2529 20.8529H48.4882V20.9059ZM37.8471 24.8765H41.7118C41.7647 25.3 41.7118 25.9353 41.7118 26.3588V38.4294C41.7118 38.9059 41.7118 39.4353 41.7647 39.9118C41.8706 40.9706 42.2941 41.8176 42.8235 42.6118C43.6176 43.6706 44.9412 44.4118 46.3176 44.4118C48.1706 44.4118 49.4941 43.2471 50.1294 42.1882C51.1353 40.4941 50.9765 39.1176 50.9765 36.9471V25.6176C50.9765 25.4059 50.9765 25.0882 50.9765 24.8765H57.5941C57.6471 25.3 57.5941 25.9353 57.5941 26.3588V36.9471C57.5941 39.3294 57.3824 40.8118 58.7059 42.6118C58.8118 42.7706 58.9176 42.8765 59.0765 43.0353C59.1294 43.0882 59.1824 43.1412 59.2353 43.1941C60.0294 43.9353 61.0353 44.4118 62.2 44.4118C64.0529 44.4118 65.3235 43.2471 66.0118 42.1882C67.0176 40.5471 66.8588 39.0647 66.8588 36.9471V25.6176C66.8588 25.4059 66.8588 25.0882 66.8588 24.8765H70.6706V51.5059H43.6176C43.6176 50.2353 43.5647 49.2294 43.0353 48.0118C42.7176 47.2706 42.0824 46.0529 41.7118 45.3118C41.2353 44.4118 40.8118 43.5647 40.3353 42.6647C40.1235 42.2412 39.8588 41.7647 39.6471 41.3412L38.9588 40.0176C38.5882 39.3824 38.2706 38.6412 37.9 38.0059C37.7941 37.8471 37.8471 37.2647 37.8471 37.0529V25.9353C37.8471 25.6706 37.7941 25.1941 37.8471 24.9294V24.8765ZM41.9235 17.2C42.1353 17.1471 42.9824 17.2 43.2471 17.2H50.0765C50.6059 17.2 50.9235 17.1471 51.0824 17.5706C51.2412 17.9412 51.0294 18.3647 50.7118 18.4176C50.5 18.4706 49.6529 18.4176 49.3353 18.4176H42.5059C42.0294 18.4176 41.6588 18.4706 41.5 18.0471C41.3941 17.7824 41.4471 17.5176 41.6588 17.3059C41.7118 17.2529 41.7647 17.2529 41.8706 17.2H41.9235ZM57.8059 17.2C58.0176 17.1471 65.5353 17.2 66.0118 17.2C66.4882 17.2 66.8588 17.1471 67.0176 17.5706C67.1765 17.9941 66.9647 18.3647 66.5941 18.4176C66.4353 18.4176 58.8647 18.4176 58.3882 18.4176C58.1765 18.4176 57.9118 18.4176 57.7529 18.3647C57.2235 18.1529 57.2235 17.2529 57.8588 17.2H57.8059ZM13.7588 29.9588C13.8118 29.8 13.9706 29.5353 14.0235 29.4294L17.0941 23.5C17.3588 22.9176 17.3059 22.8118 17.3059 22.1235C17.3059 21.5941 17.3059 21.0647 17.3059 20.4824C17.3059 20.4294 17.3059 7.72353 17.3059 7.45882H27.3118V9.25882C26.0941 9.25882 24.8765 9.25882 23.6059 9.25882C23.0765 9.25882 22.2824 9.20588 21.8588 9.36471C20.9059 9.78824 20.9059 11.2176 21.8588 11.6412C22.2824 11.8529 23.0765 11.7471 23.6059 11.7471C24.8235 11.7471 26.0412 11.7471 27.3118 11.7471V13.4941C26.0941 13.4941 24.8765 13.4941 23.6059 13.4941C23.1294 13.4941 22.2824 13.4412 21.8588 13.6C20.9059 14.0235 20.9059 15.4 21.8588 15.8765C22.2294 16.0353 23.0765 15.9824 23.5529 15.9824C24.7706 15.9824 25.9882 15.9824 27.2588 15.9824V17.7294C26.0412 17.7294 24.7706 17.7294 23.5529 17.7294C23.0765 17.7294 22.2294 17.6765 21.8059 17.8353C21.4353 17.9941 21.1176 18.4176 21.1176 18.9471C21.1176 19.4765 21.4882 19.9 21.8588 20.0588C22.2824 20.2176 23.0765 20.1647 23.5529 20.1647C24.7706 20.1647 25.9882 20.1647 27.2588 20.1647C27.2588 21.0118 27.2588 21.9118 27.2588 22.7588C27.2588 23.1294 27.4706 23.4471 27.5765 23.7118C27.7353 23.9765 29.6941 27.7882 29.7471 27.9471C28.7412 27.8941 28.1588 28.0529 27.3647 28.4235C26.9941 28.5824 26.3059 29.1647 25.9353 29.4824C25.8824 29.5353 25.8294 29.5882 25.7235 29.6412C25.4588 29.8529 25.1941 30.0118 24.7706 30.1176C24.3471 30.1706 23.8706 30.1176 23.5529 29.9588C23.0765 29.7471 22.4941 29.1118 21.9647 28.7412C20.6941 27.8941 19 27.6824 17.4647 28.3706C16.9882 28.5824 16.5647 28.9 16.1941 29.2706C15.8235 29.5882 15.4 29.9588 14.8706 30.1176C14.3412 30.2235 14.0765 30.1176 13.6529 30.0118L13.7588 29.9588ZM14.2882 4.97059C13.2824 4.97059 13.2824 3.54118 14.2882 3.54118H30.3824C31.3882 3.54118 31.3882 4.97059 30.3824 4.97059H14.2353H14.2882ZM29.8529 7.45882C30.4882 7.40588 30.7 7.51176 31.4412 7.3C31.6529 7.24706 31.8647 7.14118 32.0235 7.03529C32.5529 6.71765 33.0294 6.24118 33.2941 5.65882C34.3 3.59412 32.8706 1 30.3824 1H14.1824C11.7471 1 10.2647 3.59412 11.3235 5.65882C11.5882 6.24118 12.0647 6.71765 12.5941 7.03529C13.3882 7.45882 13.8647 7.45882 14.7647 7.45882V22.3353C14.7647 22.4412 14.6059 22.7059 14.5529 22.8118C14.0235 23.8176 13.4941 24.8765 12.9647 25.8824C12.6471 26.4647 12.3824 27.0471 12.0647 27.6294C11.7471 28.2118 11.4824 28.7941 11.1647 29.3765C10.5294 30.4882 10 31.7588 9.36471 32.8706C8.78235 33.9824 8.14706 35.2529 7.56471 36.3647C7.24706 36.9471 6.92941 37.5294 6.66471 38.1118C6.4 38.6941 6.02941 39.2765 5.76471 39.8588C5.5 40.4412 5.18235 41.0235 4.86471 41.6059C4.54706 42.1882 4.28235 42.7706 3.96471 43.3529C3.38235 44.4647 2.8 45.7353 2.16471 46.8471C1.52941 48.0118 1 49.3882 1 50.9235V51.2412C1 52.7765 1.58235 54.6294 2.48235 55.8471C2.64118 56.0059 3.01176 56.5353 3.17059 56.6941C3.27647 56.8 3.32941 56.8529 3.43529 56.9588L4.22941 57.6471C4.33529 57.7 4.44118 57.8059 4.49412 57.8588C4.81176 58.1235 5.34118 58.3882 5.76471 58.6C6.71765 59.0235 7.88235 59.3412 9.04706 59.3412H35.4118C38.0059 59.3412 40.3353 58.0176 41.7647 56.1647C42.1353 55.6353 42.4 55.2647 42.6647 54.6824C42.7176 54.5765 42.8765 54.2059 42.9294 54.1529H70.3529C70.8294 54.1529 71.8353 54.2059 72.2059 54.0471C72.6294 53.8882 73 53.4647 73 52.8824V23.7118C73 23.1294 72.6294 22.7588 72.2588 22.5471C71.8882 22.3882 70.9353 22.4412 70.4588 22.4412C69.1882 22.4412 67.9176 22.4412 66.7 22.4412C66.7 22.2824 66.7 21.0118 66.7 20.9059C68.2353 20.7471 69.4 19.4235 69.4 17.7824C69.4 16.0882 68.0235 14.7647 66.3824 14.7647H57.7529C56.0588 14.7647 54.7353 16.1941 54.7353 17.8882C54.7353 19.4765 55.8471 20.7471 57.4882 20.9588V22.4941H50.8706C50.8706 22.3353 50.8706 21.0647 50.8706 20.9588C52.3529 20.8 53.5706 19.5294 53.5706 17.8882V17.7824C53.5706 16.1412 52.1941 14.7647 50.5529 14.7647H41.9235C41.4471 14.7647 41.0235 14.8706 40.6529 15.0294C40.4941 15.0824 40.2824 15.2412 40.1765 15.2941C39.9647 15.4529 39.9647 15.5059 39.7529 15.6647C39.3294 16.0353 38.8529 16.9353 38.8529 17.7824V17.9941C38.8529 18.6294 39.1706 19.4765 39.5941 19.9C39.6471 19.9529 39.6471 19.9529 39.7 20.0059C40.0706 20.4294 40.7588 20.8529 41.6059 20.9588V22.4941C41.2882 22.4941 40.8647 22.4941 40.5471 22.4941C39.4882 22.4941 38.4294 22.4941 37.3706 22.4941C36.6294 22.4941 36.0471 22.3882 35.5706 22.8647C35.0941 23.3412 35.2 23.8706 35.2 24.6118V31.0176C35.2 31.7059 35.2529 32.4471 35.2 33.1353C35.1471 33.0824 35.0412 32.8706 34.9882 32.8176C34.9353 32.7118 34.8824 32.6059 34.8294 32.5L33.8235 30.4882C33.7176 30.2765 33.6118 30.0118 33.4529 29.8C33.3471 29.5882 33.2412 29.3765 33.0824 29.1118L30.3294 23.7647C30.2235 23.5529 29.6412 22.5471 29.6412 22.3882V7.51176L29.8529 7.45882Z" fill="#263238" stroke="#263238"/>
</svg>
