<svg width="54" height="54" viewBox="0 0 54 54" fill="none" xmlns="http://www.w3.org/2000/svg">
<path d="M20.9873 48.875C10.0123 48.875 5.1123 43.975 5.1123 33V21C5.1123 10.025 10.0123 5.125 20.9873 5.125H32.9873C43.9623 5.125 48.8623 10.025 48.8623 21C48.8623 22.025 48.0123 22.875 46.9873 22.875C45.9623 22.875 45.1123 22.025 45.1123 21C45.1123 12.05 41.9373 8.875 32.9873 8.875H20.9873C12.0373 8.875 8.8623 12.05 8.8623 21V33C8.8623 41.95 12.0373 45.125 20.9873 45.125C22.0123 45.125 22.8623 45.975 22.8623 47C22.8623 48.025 22.0123 48.875 20.9873 48.875Z" fill="#263238"/>
<path d="M16.9624 39.75C16.5624 39.75 16.1374 39.625 15.7874 39.35C13.6124 37.625 12.5874 34.875 12.5874 30.75V23.25C12.5874 16 15.9624 12.625 23.2124 12.625H30.7124C34.8374 12.625 37.5624 13.65 39.3124 15.825C39.9624 16.625 39.8124 17.825 39.0124 18.45C38.2124 19.1 37.0124 18.975 36.3874 18.15C35.7874 17.375 34.5374 16.375 30.7374 16.375H23.2374C18.0374 16.375 16.3624 18.05 16.3624 23.25V30.75C16.3624 34.55 17.3874 35.8 18.1374 36.4C18.9374 37.05 19.0874 38.225 18.4374 39.025C18.0624 39.5 17.5124 39.75 16.9624 39.75Z" fill="#263238"/>
<path d="M17.0122 8.875C15.9622 8.875 15.1372 8.025 15.1372 7V2C15.1372 0.975 15.9872 0.125 17.0122 0.125C18.0372 0.125 18.8872 0.975 18.8872 2V7C18.8872 8.025 18.0372 8.875 17.0122 8.875Z" fill="#263238"/>
<path d="M26.9873 8.875C25.9623 8.875 25.1123 8.025 25.1123 7V2C25.1123 0.975 25.9623 0.125 26.9873 0.125C28.0123 0.125 28.8623 0.975 28.8623 2V7C28.8623 8.025 28.0123 8.875 26.9873 8.875Z" fill="#263238"/>
<path d="M36.9873 8.875C35.9623 8.875 35.1123 8.025 35.1123 7V2C35.1123 0.975 35.9623 0.125 36.9873 0.125C38.0123 0.125 38.8623 0.975 38.8623 2V7C38.8623 8.025 38.0123 8.875 36.9873 8.875Z" fill="#263238"/>
<path d="M51.9873 18.875H46.9873C45.9623 18.875 45.1123 18.025 45.1123 17C45.1123 15.975 45.9623 15.125 46.9873 15.125H51.9873C53.0123 15.125 53.8623 15.975 53.8623 17C53.8623 18.025 53.0373 18.875 51.9873 18.875Z" fill="#263238"/>
<path d="M17.0122 53.875C15.9872 53.875 15.1372 53.025 15.1372 52V47C15.1372 45.975 15.9872 45.125 17.0122 45.125C18.0372 45.125 18.8872 45.975 18.8872 47V52C18.8872 53.025 18.0372 53.875 17.0122 53.875Z" fill="#263238"/>
<path d="M6.9873 18.875H1.9873C0.962305 18.875 0.112305 18.05 0.112305 17C0.112305 15.95 0.962305 15.125 1.9873 15.125H6.9873C8.0123 15.125 8.8623 15.975 8.8623 17C8.8623 18.025 8.0373 18.875 6.9873 18.875Z" fill="#263238"/>
<path d="M6.9873 28.875H1.9873C0.962305 28.875 0.112305 28.025 0.112305 27C0.112305 25.975 0.962305 25.125 1.9873 25.125H6.9873C8.0123 25.125 8.8623 25.975 8.8623 27C8.8623 28.025 8.0373 28.875 6.9873 28.875Z" fill="#263238"/>
<path d="M6.9873 38.875H1.9873C0.962305 38.875 0.112305 38.025 0.112305 37C0.112305 35.975 0.962305 35.125 1.9873 35.125H6.9873C8.0123 35.125 8.8623 35.975 8.8623 37C8.8623 38.025 8.0373 38.875 6.9873 38.875Z" fill="#263238"/>
<path d="M38.7621 45.3499C35.5371 45.3499 32.9121 42.7249 32.9121 39.4999C32.9121 36.2749 35.5371 33.6499 38.7621 33.6499C41.9871 33.6499 44.6121 36.2749 44.6121 39.4999C44.5871 42.7249 41.9871 45.3499 38.7621 45.3499ZM38.7621 37.3999C37.6121 37.3999 36.6621 38.3499 36.6621 39.4999C36.6621 40.6499 37.6121 41.5999 38.7621 41.5999C39.9121 41.5999 40.8621 40.6499 40.8621 39.4999C40.8371 38.3499 39.9121 37.3999 38.7621 37.3999Z" fill="#263238"/>
<path d="M42.9873 53.8749C41.5873 53.8749 40.2123 53.1499 39.4623 51.8499L39.2873 51.5749C39.0123 51.0999 38.7873 50.9749 38.7373 50.9499C38.7123 50.9499 38.4623 51.0999 38.1873 51.5749L38.0373 51.8249C36.8873 53.7999 34.3623 54.4499 32.4373 53.2999L30.1873 51.9999C29.1623 51.4249 28.4373 50.4749 28.1373 49.3249C27.8373 48.1999 27.9873 46.9999 28.5623 45.9999C28.8373 45.5249 28.8373 45.2499 28.8123 45.1999C28.7873 45.1749 28.5623 45.0499 28.0123 45.0499C25.5873 45.0499 23.6123 43.0749 23.6123 40.6749V38.3499C23.6123 35.9249 25.5873 33.9749 27.9873 33.9749C28.5373 33.9749 28.7623 33.8249 28.8123 33.7999C28.8123 33.7749 28.8123 33.4999 28.5373 33.0249C27.9623 31.9999 27.7873 30.8249 28.1123 29.6999C28.4123 28.5749 29.1373 27.6249 30.1623 27.0249L32.4373 25.6999C34.3373 24.5749 36.8623 25.2249 37.9873 27.1749L38.1373 27.4499C38.4123 27.9249 38.6373 28.0499 38.6873 28.0749C38.7123 28.0749 38.9623 27.9249 39.2373 27.4499L39.3873 27.1999C40.5623 25.2249 43.0623 24.5749 44.9873 25.7249L47.3123 26.9999C48.3373 27.5749 49.0623 28.5249 49.3623 29.6749C49.6623 30.7999 49.5123 31.9999 48.9373 32.9999C48.6623 33.4749 48.6623 33.7499 48.6873 33.7999C48.7123 33.8249 48.9373 33.9499 49.4873 33.9499C51.9123 33.9499 53.8873 35.9249 53.8873 38.3249V40.6499C53.8873 43.0749 51.9123 45.0249 49.5123 45.0249C48.9623 45.0249 48.7373 45.1749 48.6873 45.1999C48.6873 45.2249 48.6873 45.4999 48.9623 45.9749C49.5373 46.9999 49.7123 48.1749 49.3873 49.2999C49.0873 50.4249 48.3623 51.3749 47.3373 51.9749L45.0623 53.2999C44.3873 53.6749 43.6873 53.8749 42.9873 53.8749ZM38.7623 47.1999C40.2623 47.1999 41.6373 48.0999 42.5623 49.6999L42.7123 49.9749C42.7873 50.0999 42.9873 50.1749 43.1373 50.0749L45.4373 48.7499C45.6373 48.6499 45.7123 48.4499 45.7373 48.3499C45.7623 48.2499 45.7873 48.0749 45.6873 47.8749C44.7623 46.2999 44.6873 44.6499 45.4373 43.3499C46.1873 42.0499 47.6623 41.2999 49.4873 41.2999C49.8373 41.2999 50.1373 40.9999 50.1373 40.6749V38.3499C50.1373 37.9999 49.8373 37.7249 49.5123 37.7249C47.6873 37.7249 46.1873 36.9749 45.4623 35.6749C44.7123 34.3749 44.8123 32.7249 45.7123 31.1499C45.8373 30.9499 45.8123 30.7499 45.7623 30.6749C45.7373 30.5749 45.6623 30.3999 45.4623 30.2749L43.1873 28.9499C43.0123 28.8499 42.8123 28.9249 42.7123 29.0749L42.5873 29.2999C41.6623 30.8999 40.2873 31.7999 38.7873 31.7999C37.2873 31.7999 35.9123 30.8999 34.9873 29.2999L34.8373 29.0499C34.7623 28.8999 34.5373 28.8499 34.4123 28.9249L32.1123 30.2499C31.9123 30.3499 31.8373 30.5499 31.8123 30.6499C31.7873 30.7499 31.7623 30.9249 31.8623 31.1249C32.7873 32.6999 32.8623 34.3499 32.1123 35.6499C31.3623 36.9499 29.8873 37.6999 28.0623 37.6999C27.7123 37.6999 27.4123 37.9999 27.4123 38.3249V40.6499C27.4123 40.9999 27.7123 41.2749 28.0373 41.2749C29.8623 41.2749 31.3623 42.0249 32.0873 43.3249C32.8373 44.6249 32.7373 46.2749 31.8373 47.8499C31.7373 48.0499 31.7623 48.2249 31.7873 48.3249C31.8123 48.4249 31.8873 48.5999 32.0873 48.7249L34.3623 50.0499C34.5373 50.1499 34.7373 50.0749 34.8373 49.9249L34.9623 49.6749C35.8623 48.0999 37.2623 47.1999 38.7623 47.1999Z" fill="#263238"/>
</svg>
