<svg width="54" height="54" viewBox="0 0 54 54" fill="none" xmlns="http://www.w3.org/2000/svg">
<path d="M20.875 48.75C9.9 48.75 5 43.85 5 32.875V20.875C5 9.9 9.9 5 20.875 5H32.875C43.85 5 48.75 9.9 48.75 20.875C48.75 21.9 47.9 22.75 46.875 22.75C45.85 22.75 45 21.9 45 20.875C45 11.925 41.825 8.75 32.875 8.75H20.875C11.925 8.75 8.75 11.925 8.75 20.875V32.875C8.75 41.825 11.925 45 20.875 45C21.9 45 22.75 45.85 22.75 46.875C22.75 47.9 21.9 48.75 20.875 48.75Z" fill="white"/>
<path d="M16.8501 39.625C16.4501 39.625 16.0251 39.5 15.6751 39.225C13.5001 37.5 12.4751 34.75 12.4751 30.625V23.125C12.4751 15.875 15.8501 12.5 23.1001 12.5H30.6001C34.7251 12.5 37.4501 13.525 39.2001 15.7C39.8501 16.5 39.7001 17.7 38.9001 18.325C38.1001 18.975 36.9001 18.85 36.2751 18.025C35.6751 17.25 34.4251 16.25 30.6251 16.25H23.1251C17.9251 16.25 16.2501 17.925 16.2501 23.125V30.625C16.2501 34.425 17.2751 35.675 18.0251 36.275C18.8251 36.925 18.9751 38.1 18.3251 38.9C17.9501 39.375 17.4001 39.625 16.8501 39.625Z" fill="white"/>
<path d="M16.8999 8.75C15.8499 8.75 15.0249 7.9 15.0249 6.875V1.875C15.0249 0.85 15.8749 0 16.8999 0C17.9249 0 18.7749 0.85 18.7749 1.875V6.875C18.7749 7.9 17.9249 8.75 16.8999 8.75Z" fill="white"/>
<path d="M26.875 8.75C25.85 8.75 25 7.9 25 6.875V1.875C25 0.85 25.85 0 26.875 0C27.9 0 28.75 0.85 28.75 1.875V6.875C28.75 7.9 27.9 8.75 26.875 8.75Z" fill="white"/>
<path d="M36.875 8.75C35.85 8.75 35 7.9 35 6.875V1.875C35 0.85 35.85 0 36.875 0C37.9 0 38.75 0.85 38.75 1.875V6.875C38.75 7.9 37.9 8.75 36.875 8.75Z" fill="white"/>
<path d="M51.875 18.75H46.875C45.85 18.75 45 17.9 45 16.875C45 15.85 45.85 15 46.875 15H51.875C52.9 15 53.75 15.85 53.75 16.875C53.75 17.9 52.925 18.75 51.875 18.75Z" fill="white"/>
<path d="M16.8999 53.75C15.8749 53.75 15.0249 52.9 15.0249 51.875V46.875C15.0249 45.85 15.8749 45 16.8999 45C17.9249 45 18.7749 45.85 18.7749 46.875V51.875C18.7749 52.9 17.9249 53.75 16.8999 53.75Z" fill="white"/>
<path d="M6.875 18.75H1.875C0.85 18.75 0 17.925 0 16.875C0 15.825 0.85 15 1.875 15H6.875C7.9 15 8.75 15.85 8.75 16.875C8.75 17.9 7.925 18.75 6.875 18.75Z" fill="white"/>
<path d="M6.875 28.75H1.875C0.85 28.75 0 27.9 0 26.875C0 25.85 0.85 25 1.875 25H6.875C7.9 25 8.75 25.85 8.75 26.875C8.75 27.9 7.925 28.75 6.875 28.75Z" fill="white"/>
<path d="M6.875 38.75H1.875C0.85 38.75 0 37.9 0 36.875C0 35.85 0.85 35 1.875 35H6.875C7.9 35 8.75 35.85 8.75 36.875C8.75 37.9 7.925 38.75 6.875 38.75Z" fill="white"/>
<path d="M38.6498 45.2249C35.4248 45.2249 32.7998 42.5999 32.7998 39.3749C32.7998 36.1499 35.4248 33.5249 38.6498 33.5249C41.8748 33.5249 44.4998 36.1499 44.4998 39.3749C44.4748 42.5999 41.8748 45.2249 38.6498 45.2249ZM38.6498 37.2749C37.4998 37.2749 36.5498 38.2249 36.5498 39.3749C36.5498 40.5249 37.4998 41.4749 38.6498 41.4749C39.7998 41.4749 40.7498 40.5249 40.7498 39.3749C40.7248 38.2249 39.7998 37.2749 38.6498 37.2749Z" fill="white"/>
<path d="M42.875 53.7499C41.475 53.7499 40.1 53.0249 39.35 51.7249L39.175 51.4499C38.9 50.9749 38.675 50.8499 38.625 50.8249C38.6 50.8249 38.35 50.9749 38.075 51.4499L37.925 51.6999C36.775 53.6749 34.25 54.3249 32.325 53.1749L30.075 51.8749C29.05 51.2999 28.325 50.3499 28.025 49.1999C27.725 48.0749 27.875 46.8749 28.45 45.8749C28.725 45.3999 28.725 45.1249 28.7 45.0749C28.675 45.0499 28.45 44.9249 27.9 44.9249C25.475 44.9249 23.5 42.9499 23.5 40.5499V38.2249C23.5 35.7999 25.475 33.8499 27.875 33.8499C28.425 33.8499 28.65 33.6999 28.7 33.6749C28.7 33.6499 28.7 33.3749 28.425 32.8999C27.85 31.8749 27.675 30.6999 28 29.5749C28.3 28.4499 29.025 27.4999 30.05 26.8999L32.325 25.5749C34.225 24.4499 36.75 25.0999 37.875 27.0499L38.025 27.3249C38.3 27.7999 38.525 27.9249 38.575 27.9499C38.6 27.9499 38.85 27.7999 39.125 27.3249L39.275 27.0749C40.45 25.0999 42.95 24.4499 44.875 25.5999L47.2 26.8749C48.225 27.4499 48.95 28.3999 49.25 29.5499C49.55 30.6749 49.4 31.8749 48.825 32.8749C48.55 33.3499 48.55 33.6249 48.575 33.6749C48.6 33.6999 48.825 33.8249 49.375 33.8249C51.8 33.8249 53.775 35.7999 53.775 38.1999V40.5249C53.775 42.9499 51.8 44.8999 49.4 44.8999C48.85 44.8999 48.625 45.0499 48.575 45.0749C48.575 45.0999 48.575 45.3749 48.85 45.8499C49.425 46.8749 49.6 48.0499 49.275 49.1749C48.975 50.2999 48.25 51.2499 47.225 51.8499L44.95 53.1749C44.275 53.5499 43.575 53.7499 42.875 53.7499ZM38.65 47.0749C40.15 47.0749 41.525 47.9749 42.45 49.5749L42.6 49.8499C42.675 49.9749 42.875 50.0499 43.025 49.9499L45.325 48.6249C45.525 48.5249 45.6 48.3249 45.625 48.2249C45.65 48.1249 45.675 47.9499 45.575 47.7499C44.65 46.1749 44.575 44.5249 45.325 43.2249C46.075 41.9249 47.55 41.1749 49.375 41.1749C49.725 41.1749 50.025 40.8749 50.025 40.5499V38.2249C50.025 37.8749 49.725 37.5999 49.4 37.5999C47.575 37.5999 46.075 36.8499 45.35 35.5499C44.6 34.2499 44.7 32.5999 45.6 31.0249C45.725 30.8249 45.7 30.6249 45.65 30.5499C45.625 30.4499 45.55 30.2749 45.35 30.1499L43.075 28.8249C42.9 28.7249 42.7 28.7999 42.6 28.9499L42.475 29.1749C41.55 30.7749 40.175 31.6749 38.675 31.6749C37.175 31.6749 35.8 30.7749 34.875 29.1749L34.725 28.9249C34.65 28.7749 34.425 28.7249 34.3 28.7999L32 30.1249C31.8 30.2249 31.725 30.4249 31.7 30.5249C31.675 30.6249 31.65 30.7999 31.75 30.9999C32.675 32.5749 32.75 34.2249 32 35.5249C31.25 36.8249 29.775 37.5749 27.95 37.5749C27.6 37.5749 27.3 37.8749 27.3 38.1999V40.5249C27.3 40.8749 27.6 41.1499 27.925 41.1499C29.75 41.1499 31.25 41.8999 31.975 43.1999C32.725 44.4999 32.625 46.1499 31.725 47.7249C31.625 47.9249 31.65 48.0999 31.675 48.1999C31.7 48.2999 31.775 48.4749 31.975 48.5999L34.25 49.9249C34.425 50.0249 34.625 49.9499 34.725 49.7999L34.85 49.5499C35.75 47.9749 37.15 47.0749 38.65 47.0749Z" fill="white"/>
</svg>
