<svg width="60" height="60" viewBox="0 0 60 60" fill="none" xmlns="http://www.w3.org/2000/svg">
<path fill-rule="evenodd" clip-rule="evenodd" d="M25.7593 54.9937H34.2116C34.4062 54.9937 35.8081 56.4789 35.9021 56.6192H24.0689C24.1661 56.4741 25.5653 54.9937 25.7594 54.9937H25.7593ZM42.6638 45.0462H53.8467C53.4475 45.591 50.884 46.3773 49.9833 46.5142C47.785 46.8484 45.7855 46.5704 43.8348 45.6956C43.5182 45.5537 42.9354 45.2823 42.6638 45.0462ZM6.05913 45.0462H17.2421C16.4657 45.721 14.3671 46.35 13.379 46.5145C11.6209 46.8073 10.197 46.6586 8.55717 46.1891C8.01721 46.0345 6.28486 45.3542 6.05913 45.0462ZM48.2552 27.1664C48.4543 27.3122 49.05 28.6259 49.2088 28.9435L55.6021 41.6652H41.0383C41.1216 41.3076 41.7032 40.2703 41.9052 39.8664L46.4574 30.8299C46.715 30.3223 48.1878 27.4557 48.2552 27.1664ZM11.7156 27.1664L13.4985 30.7799C13.8547 31.3747 14.1111 31.9573 14.4247 32.5845C14.8756 33.4861 18.8485 41.3045 18.9325 41.6652H4.36874L8.03139 34.4049C8.65115 33.1655 9.23216 32.0034 9.85193 30.7639C10.1683 30.1314 10.4458 29.5761 10.7621 28.9435C10.921 28.6259 11.5167 27.3122 11.7157 27.1664H11.7156ZM28.3599 20.2096V19.8844C28.3599 19.0748 29.1576 18.389 29.9854 18.389C30.8132 18.389 31.6109 19.0747 31.6109 19.8844C31.6109 20.4222 31.5477 20.872 31.1093 21.2684C30.0433 22.2322 28.36 21.4107 28.36 20.2096H28.3599ZM28.6692 8.06718L30.0504 5.58063L30.6573 6.79429C30.8762 7.23207 31.0672 7.63818 31.2859 8.05129L30.0014 9.36753L28.6694 8.06718H28.6692ZM24.9791 8.31138C24.9791 9.12242 25.5175 9.53253 25.938 9.95304L28.219 12.2232C28.4025 12.4215 28.3645 12.368 28.3645 12.7279C28.3644 13.5959 28.3599 14.4649 28.3599 15.3332C27.3008 15.58 26.4144 16.4656 25.8494 17.3089C25.6934 17.5418 25.3946 18.0191 25.3692 18.324C22.5301 18.324 19.691 18.324 16.8519 18.324C15.2541 18.324 14.0664 18.146 13.5115 19.2747C13.1165 20.078 13.4923 20.9215 12.5199 21.4689C11.4551 22.0681 10.1165 21.3604 10.0292 20.1404C9.8734 17.9644 7.72485 18.1231 7.08671 18.8964C6.19138 19.9813 6.91012 21.8124 7.45078 22.7189C7.75682 23.2321 8.20668 23.7359 8.6974 24.073C8.89866 24.2112 9.06027 24.3118 9.24505 24.4355L3.87033 35.2501C2.96351 37.0637 2.08056 38.8295 1.18292 40.6248C0.854115 41.2823 -0.0341301 42.7255 0.0466739 43.4505C0.156244 44.4329 0.846724 44.9875 1.42723 45.6468C2.06418 46.3702 3.12562 47.1852 3.91358 47.7117C8.65415 50.8788 15.3737 50.7701 20.02 47.3037L21.6821 45.91L22.6236 44.8359C23.8884 43.2849 23.3431 43.0093 22.2701 40.8631L18.7808 33.8196C17.9878 32.2335 17.2333 30.7246 16.4402 29.1384C16.1786 28.6152 14.2293 24.8993 14.1213 24.4354C14.6252 24.098 15.0959 23.7961 15.4775 23.3211C15.6858 23.0619 15.832 22.911 16.0046 22.6128C16.1522 22.3577 16.3225 22.0233 16.3969 21.7047H25.3042C25.6275 22.3785 25.9465 23.0325 26.4901 23.5747C26.8839 23.9674 27.7629 24.6214 28.36 24.7606V51.6127H25.5643C24.1668 51.6127 23.943 52.0312 23.2399 52.7342L19.7615 56.2127C19.2449 56.7293 18.3473 57.3552 18.3473 58.3095C18.3473 59.2296 19.0425 60 19.9728 60H40.063C40.8583 60 41.6235 59.2348 41.6235 58.4396C41.6235 57.2511 41.0304 56.9687 40.2094 56.1477L36.7635 52.7018C35.9964 51.9347 35.9249 51.6128 34.4066 51.6128H31.6758V24.7607C32.2447 24.6281 33.1689 23.9525 33.5458 23.5748C33.9504 23.1692 34.2367 22.763 34.494 22.2473C34.5949 22.0449 34.6445 21.8864 34.7316 21.7048H43.6389C43.8562 22.6376 44.4754 23.3191 45.1541 23.8956C45.3988 24.1034 45.6584 24.264 45.9145 24.4355C45.8017 24.9195 39.4048 37.455 38.936 38.3926C38.533 39.1985 38.1687 39.9271 37.7657 40.7332C37.5016 41.2615 36.6821 42.6285 36.6821 43.1605C36.6821 44.1129 36.9386 44.3039 37.4617 44.9815C38.0147 45.6978 39.0909 46.6566 39.8029 47.1916C41.1735 48.2215 42.6146 48.9861 44.3539 49.4674C49.4169 50.8686 54.4376 49.4838 58.0573 46.1359C58.2262 45.9797 58.4659 45.7471 58.6025 45.5758C59.3169 44.6804 59.9582 44.4073 59.9582 43.0955C59.9582 42.7068 59.6378 42.1945 59.4814 41.8818L53.0664 29.1168C52.2922 27.5684 51.5329 25.9609 50.7258 24.4355C51.4186 23.9717 52.043 23.5107 52.5028 22.7666C52.9907 21.9769 53.3265 21.077 53.3265 20.0794C53.3265 19.2358 52.656 18.3889 51.8311 18.3889C51.2619 18.3889 50.7526 18.4732 50.3832 18.8915C49.7945 19.5583 50.1176 20.5206 49.4764 21.1706C49.3098 21.3395 49.2584 21.4101 49.0377 21.5121C48.2412 21.8799 47.4589 21.6283 46.9717 21.0377C46.5259 20.4971 46.7558 19.9249 46.5012 19.3627C45.9621 18.172 44.9027 18.3239 43.2489 18.3239C40.3881 18.3239 37.5274 18.3239 34.6666 18.3239C34.5761 17.2368 32.6861 15.5685 31.6758 15.3331C31.6758 14.4869 31.6805 13.6403 31.6725 12.7942C31.6669 12.209 31.7621 12.2866 32.0821 11.9684L34.0001 10.0504C34.6663 9.38431 34.9917 9.17006 34.9917 8.11612C34.9917 7.58175 33.2379 4.34839 32.8895 3.65162C32.6167 3.10597 31.5695 0.76235 31.1684 0.431343C30.9226 0.228484 30.3675 -0.0336048 29.9365 0.00355106C28.8346 0.0985383 28.5957 0.752861 28.1866 1.57109L25.4341 7.07585C25.2701 7.40376 24.979 7.84704 24.979 8.31119L24.9791 8.31138Z" fill="#263238"/>
</svg>
