<svg width="80" height="27" viewBox="0 0 80 27" fill="none" xmlns="http://www.w3.org/2000/svg">
<path d="M2.61281 26C2.149 26 1.75897 25.8399 1.44273 25.5198C1.14758 25.1997 1 24.805 1 24.3355V2.66453C1 2.17371 1.14758 1.77892 1.44273 1.48015C1.75897 1.16005 2.149 1 2.61281 1C3.11879 1 3.54044 1.20273 3.87776 1.60819L17.6657 20.1741V2.66453C17.6657 2.17371 17.8238 1.77892 18.1401 1.48015C18.4563 1.16005 18.8463 1 19.3101 1C19.795 1 20.1851 1.16005 20.4802 1.48015C20.7754 1.77892 20.923 2.17371 20.923 2.66453V24.3355C20.923 24.805 20.7754 25.1997 20.4802 25.5198C20.1851 25.8399 19.795 26 19.3101 26C19.0993 26 18.8674 25.9573 18.6144 25.872C18.3825 25.7653 18.1928 25.6159 18.0452 25.4238L4.25725 6.85787V24.3355C4.25725 24.805 4.09913 25.1997 3.78289 25.5198C3.48773 25.8399 3.09771 26 2.61281 26Z" fill="white"/>
<path d="M29.3665 26C28.9027 26 28.5127 25.8399 28.1965 25.5198C27.8802 25.1997 27.7221 24.805 27.7221 24.3355V2.66453C27.7221 2.17371 27.8802 1.77892 28.1965 1.48015C28.5127 1.16005 28.9027 1 29.3665 1H43.6605C44.1454 1 44.5354 1.14938 44.8305 1.44814C45.1257 1.72557 45.2733 2.09902 45.2733 2.5685C45.2733 3.01664 45.1257 3.37943 44.8305 3.65685C44.5354 3.93427 44.1454 4.07298 43.6605 4.07298H31.011V11.8515H40.087C40.5719 11.8515 40.9619 12.0009 41.2571 12.2996C41.5522 12.577 41.6998 12.9398 41.6998 13.388C41.6998 13.8361 41.5522 14.2096 41.2571 14.5083C40.9619 14.7857 40.5719 14.9245 40.087 14.9245H31.011V22.927H43.6605C44.1454 22.927 44.5354 23.0657 44.8305 23.3431C45.1257 23.6206 45.2733 23.9834 45.2733 24.4315C45.2733 24.901 45.1257 25.2851 44.8305 25.5839C44.5354 25.8613 44.1454 26 43.6605 26H29.3665Z" fill="white"/>
<path d="M58.0967 26C57.7172 26 57.3799 25.8826 57.0848 25.6479C56.7896 25.4131 56.5788 25.093 56.4523 24.6876L50.0959 3.30474C49.8851 2.60051 49.8956 2.04567 50.1275 1.6402C50.3805 1.2134 50.7811 1 51.3292 1C51.6876 1 52.0144 1.1067 52.3096 1.3201C52.6047 1.51216 52.8155 1.8216 52.942 2.2484L58.4762 21.7746H57.7805L62.9035 2.44046C62.9878 2.12036 63.1776 1.85361 63.4727 1.6402C63.7679 1.4268 64.1052 1.3201 64.4847 1.3201C64.822 1.3201 65.1383 1.41613 65.4334 1.60819C65.7497 1.77892 65.9499 2.04567 66.0343 2.40845L71.1889 21.7746H70.5565L76.1222 2.08835C76.3331 1.36278 76.8707 1 77.7351 1C78.3254 1 78.7048 1.23474 78.8735 1.70422C79.0422 2.15237 79.0422 2.68587 78.8735 3.30474L72.5171 24.6556C72.3696 25.061 72.1482 25.3918 71.853 25.6479C71.579 25.8826 71.2522 26 70.8727 26C70.4721 26 70.1243 25.872 69.8291 25.6159C69.555 25.3598 69.3548 25.0504 69.2283 24.6876L64.1368 4.77721H64.8958L59.7411 24.6556C59.5936 25.061 59.3722 25.3918 59.077 25.6479C58.803 25.8826 58.4762 26 58.0967 26Z" fill="white"/>
<path fill-rule="evenodd" clip-rule="evenodd" d="M2.61281 2C2.4071 2 2.2761 2.05948 2.15412 2.18295C2.07497 2.26307 2 2.38901 2 2.66453V24.3355C2 24.5669 2.06246 24.7114 2.1665 24.8293C2.28503 24.9445 2.41404 25 2.61281 25C2.85363 25 2.9645 24.9322 3.04771 24.842C3.0555 24.8335 3.06343 24.8252 3.0715 24.817C3.19409 24.693 3.25725 24.5545 3.25725 24.3355V6.85787C3.25725 6.42657 3.53377 6.04387 3.94326 5.90845C4.35275 5.77302 4.80292 5.9154 5.06007 6.26166L18.8418 24.8192C18.8778 24.8648 18.9239 24.9061 18.9909 24.9427C19.1369 24.9873 19.2412 25 19.3101 25C19.551 25 19.6618 24.9322 19.745 24.842C19.8559 24.7217 19.923 24.5752 19.923 24.3355V2.66453C19.923 2.38901 19.848 2.26307 19.7688 2.18295C19.7608 2.17478 19.7528 2.16647 19.745 2.15803C19.6618 2.06779 19.551 2 19.3101 2C19.1044 2 18.9734 2.05948 18.8515 2.18295C18.8434 2.19113 18.8352 2.19917 18.8268 2.20706C18.7371 2.29182 18.6657 2.40997 18.6657 2.66453V20.1741C18.6657 20.6054 18.3892 20.9881 17.9797 21.1236C17.5702 21.259 17.12 21.1166 16.8629 20.7703L3.09386 2.2299C2.943 2.05574 2.80125 2 2.61281 2ZM0.731344 0.777354C1.24184 0.260624 1.89089 0 2.61281 0C3.43004 0 4.12846 0.345942 4.64651 0.968643C4.65826 0.982773 4.66963 0.997223 4.68058 1.01198L16.6657 17.1504V2.66453C16.6657 1.94312 16.9068 1.27648 17.4407 0.765265C17.9493 0.256559 18.5939 0 19.3101 0C20.0335 0 20.698 0.248459 21.2037 0.789665C21.7062 1.30527 21.923 1.964 21.923 2.66453V24.3355C21.923 25.0347 21.6948 25.6778 21.2154 26.1977C20.7083 26.7477 20.0391 27 19.3101 27C18.9661 27 18.6246 26.9308 18.2947 26.8195C18.2613 26.8082 18.2285 26.7952 18.1964 26.7804C17.8253 26.6097 17.504 26.3608 17.2522 26.0331L17.2424 26.02L5.25725 9.88165V24.3355C5.25725 25.0497 5.00812 25.6963 4.50624 26.2105C4.00058 26.7516 3.33613 27 2.61281 27C1.89089 27 1.24184 26.7394 0.731344 26.2226C0.723273 26.2145 0.715343 26.2062 0.707558 26.1977C0.228115 25.6778 0 25.0347 0 24.3355V2.66453C0 1.95841 0.220187 1.29476 0.731344 0.777354ZM29.3665 2C29.1608 2 29.0298 2.05948 28.9079 2.18295C28.8998 2.19113 28.8916 2.19917 28.8832 2.20706C28.7935 2.29182 28.7221 2.40997 28.7221 2.66453V24.3355C28.7221 24.5545 28.7853 24.693 28.9079 24.817C29.0298 24.9405 29.1608 25 29.3665 25H43.6605C43.928 25 44.0565 24.9333 44.1325 24.8671C44.2135 24.7796 44.2733 24.6594 44.2733 24.4315C44.2733 24.2268 44.2172 24.1391 44.1457 24.0718C44.0714 24.002 43.9441 23.927 43.6605 23.927H31.011C30.4587 23.927 30.011 23.4793 30.011 22.927V14.9245C30.011 14.3722 30.4587 13.9245 31.011 13.9245H40.087C40.3548 13.9245 40.4833 13.8576 40.5593 13.7913C40.648 13.6962 40.6998 13.5827 40.6998 13.388C40.6998 13.1833 40.6437 13.0955 40.5722 13.0283C40.5632 13.0198 40.5544 13.0112 40.5457 13.0024C40.4677 12.9235 40.3494 12.8515 40.087 12.8515H31.011C30.4587 12.8515 30.011 12.4038 30.011 11.8515V4.07298C30.011 3.5207 30.4587 3.07298 31.011 3.07298H43.6605C43.9441 3.07298 44.0714 2.99799 44.1457 2.92819C44.2172 2.86094 44.2733 2.77319 44.2733 2.5685C44.2733 2.32703 44.2073 2.23471 44.1457 2.1768C44.1367 2.16834 44.1278 2.15972 44.1192 2.15094C44.0412 2.07205 43.9229 2 43.6605 2H29.3665ZM27.4971 0.765269C28.0057 0.256561 28.6503 0 29.3665 0H43.6605C44.3619 0 45.0184 0.222909 45.5289 0.732285C46.048 1.22763 46.2733 1.87698 46.2733 2.5685C46.2733 3.2601 46.0342 3.89792 45.5154 4.38551C44.9994 4.87055 44.3467 5.07298 43.6605 5.07298H32.011V10.8515H40.087C40.7884 10.8515 41.4449 11.0744 41.9554 11.5837C42.4648 12.0696 42.6998 12.7024 42.6998 13.388C42.6998 14.0797 42.4618 14.7117 41.9685 15.2111C41.963 15.2167 41.9574 15.2222 41.9518 15.2276C41.9485 15.2308 41.9452 15.2339 41.9419 15.237C41.4259 15.722 40.7732 15.9245 40.087 15.9245H32.011V21.927H43.6605C44.3467 21.927 44.9994 22.1294 45.5154 22.6145C46.0342 23.1021 46.2733 23.7399 46.2733 24.4315C46.2733 25.1302 46.0445 25.7779 45.5419 26.2867C45.5333 26.2954 45.5244 26.3041 45.5154 26.3125C44.9994 26.7976 44.3467 27 43.6605 27H29.3665C28.6446 27 27.9956 26.7394 27.4851 26.2226C26.9752 25.7065 26.7221 25.0554 26.7221 24.3355V2.66453C26.7221 1.94312 26.9632 1.27648 27.4971 0.765269ZM50.993 2.14144C50.9567 2.20928 50.8819 2.44338 51.0539 3.01794L51.0545 3.01979L57.4087 24.3954C57.4832 24.6312 57.5891 24.7713 57.7072 24.8652C57.8242 24.9583 57.9418 25 58.0967 25C58.2497 25 58.342 24.9601 58.4244 24.8902C58.5691 24.7639 58.6929 24.5936 58.7864 24.3536L59.3133 22.3218C59.3008 22.3408 59.2877 22.3594 59.2739 22.3777C59.0849 22.6277 58.7896 22.7746 58.4762 22.7746H57.7805C57.4701 22.7746 57.1773 22.6305 56.988 22.3845C56.7987 22.1385 56.7343 21.8186 56.8138 21.5185L57.0798 20.5149L51.9818 2.52759C51.9048 2.27075 51.8116 2.18914 51.7642 2.15827C51.7504 2.14934 51.7369 2.14007 51.7237 2.13048C51.596 2.0382 51.4736 2 51.3292 2C51.0977 2 51.0427 2.0594 50.993 2.14144ZM59.1535 20.4971L63.2099 5.18856L63.4811 6.24912L59.4737 21.7032C59.4688 21.6357 59.4571 21.5683 59.4383 21.502L59.1535 20.4971ZM64.5069 10.2608L60.7091 24.9066C60.7012 24.9373 60.6917 24.9677 60.6808 24.9976C60.4813 25.5457 60.1689 26.0245 59.7324 26.4032L59.7276 26.4074C59.2624 26.8058 58.7014 27 58.0967 27C57.4927 27 56.9356 26.807 56.4623 26.4305C55.991 26.0557 55.676 25.5571 55.4977 24.9854L55.4936 24.9725L49.1379 3.59153C49.1378 3.59117 49.1377 3.59081 49.1376 3.59045C48.8925 2.77116 48.8308 1.89316 49.2595 1.14372L49.2673 1.1303C49.722 0.363191 50.4725 0 51.3292 0C51.8937 0 52.4181 0.170387 52.8762 0.495924C53.4061 0.849071 53.7274 1.37917 53.9008 1.96424L53.9042 1.9757L58.0842 16.7242L61.9365 2.1857C62.0858 1.61906 62.4243 1.16427 62.8868 0.82983C63.3599 0.48776 63.9042 0.320102 64.4847 0.320102C65.0112 0.320102 65.5041 0.469614 65.9456 0.748686C66.4981 1.05981 66.8581 1.55564 67.0042 2.16463L70.9113 16.8438L75.16 1.81629L75.162 1.80932C75.3213 1.26098 75.6304 0.776383 76.1242 0.443168C76.605 0.1187 77.1686 0 77.7351 0C78.1575 0 78.5974 0.0836792 78.9885 0.325612C79.3909 0.57457 79.6603 0.941013 79.8121 1.35903C80.0735 2.05921 80.0431 2.81639 79.8383 3.56768L79.8319 3.59007L73.4756 24.9409C73.4699 24.96 73.4636 24.9789 73.4568 24.9976C73.2573 25.5457 72.9449 26.0245 72.5084 26.4032L72.5035 26.4074C72.0384 26.8058 71.4774 27 70.8727 27C70.238 27 69.6557 26.7894 69.1738 26.3712C69.1645 26.3632 69.1554 26.3549 69.1464 26.3466C68.7509 25.9771 68.4625 25.5288 68.284 25.0168C68.2747 24.99 68.2665 24.9628 68.2594 24.9353L64.5069 10.2608ZM69.8453 20.6144L69.5942 21.5026C69.5089 21.8041 69.5699 22.1281 69.7589 22.3779C69.948 22.6278 70.2432 22.7746 70.5565 22.7746H71.1889C71.4995 22.7746 71.7925 22.6303 71.9818 22.3841C72.1711 22.1378 72.2352 21.8176 72.1553 21.5174L71.9192 20.6304L77.0825 2.36737C77.0828 2.36634 77.0831 2.3653 77.0834 2.36427C77.1348 2.18946 77.1994 2.1304 77.2429 2.10101C77.2997 2.06269 77.4371 2 77.7351 2C77.8431 2 77.9003 2.01397 77.9242 2.022C77.9265 2.02705 77.9293 2.03374 77.9324 2.04232L77.9376 2.05646C78.0101 2.2492 78.0401 2.55344 77.9115 3.03135L71.5681 24.3387C71.474 24.5865 71.3481 24.7612 71.2005 24.8901C71.1181 24.9601 71.0257 25 70.8727 25C70.7129 25 70.602 24.9581 70.4975 24.8716C70.3604 24.7397 70.257 24.5841 70.1852 24.3934L65.5463 6.2526L65.7814 5.34611L69.8453 20.6144ZM65.4001 3.91366L65.0679 2.66566C65.0652 2.65544 65.0626 2.64517 65.0602 2.63487C65.0459 2.57307 65.0285 2.5466 65.0211 2.53672C65.0143 2.52763 64.9994 2.51028 64.9584 2.48815C64.9344 2.47519 64.9109 2.46125 64.888 2.44636C64.7476 2.35502 64.6196 2.3201 64.4847 2.3201C64.3062 2.3201 64.1758 2.36585 64.0587 2.45058C63.9309 2.54294 63.8899 2.62166 63.8705 2.69521L63.5293 3.98289C63.7019 3.8509 63.9149 3.77721 64.1368 3.77721H64.8958C65.0753 3.77721 65.249 3.82541 65.4001 3.91366Z" fill="white"/>
</svg>
