<svg width="62" height="62" viewBox="0 0 62 62" fill="none" xmlns="http://www.w3.org/2000/svg">
<path fill-rule="evenodd" clip-rule="evenodd" d="M31.9934 42.8661V33.1182C32.8531 33.5306 34.7089 33.7896 35.6034 36.1317C36.3327 38.0413 35.9529 39.6195 34.7995 41.1731C34.1599 42.0345 33.0487 42.6202 31.9934 42.8661ZM31.9934 30.7436V23.1203C34.9055 23.1203 38.8297 24.8256 40.8338 26.7772C41.2064 27.14 41.4899 27.2431 41.8305 27.6551C44.3366 30.6868 45.9904 33.7888 45.9904 37.9921C45.9904 41.4538 44.6914 44.6866 42.7436 47.2427C41.9467 48.2884 41.7866 48.3516 40.9614 49.0847C40.5537 49.4469 40.428 49.6069 39.9577 49.9555C37.9438 51.448 34.7673 52.8639 31.9934 52.8639V45.2405C31.9934 44.7626 32.4929 44.8678 32.9788 44.7263C35.748 43.9203 37.9921 41.2783 37.9921 38.367C37.9921 34.8353 36.1574 32.2457 33.0736 31.2881C32.5597 31.1284 31.9934 31.2174 31.9934 30.7436H31.9934ZM14.997 24.495C16.0596 25.2065 16.8487 26.9945 18.4963 26.9945H20.8708C21.8941 26.9945 21.3893 26.2745 22.8703 26.6195C23.244 28.2234 22.4032 29.9116 24.1001 31.1386C25.1003 31.8618 24.9949 31.3273 24.9949 33.618C24.9949 34.2741 24.7116 34.3327 24.236 34.4839C21.5896 35.3255 22.6613 34.475 20.7313 34.4128C19.683 34.379 18.6384 35.0885 18.2047 35.9509C18.0221 36.314 17.9914 36.6005 17.9909 37.1118C17.9889 39.042 18.0498 38.9919 16.2468 38.9919C15.4483 38.9919 15.3434 38.3118 15.0387 37.7005C14.1316 35.8812 13.9683 36.2944 14.9122 34.408C15.9213 32.3914 16.0673 31.6252 14.3409 29.9001C13.824 29.3835 13.0388 28.4816 12.4975 28.1192L14.997 24.495V24.495ZM16.4967 22.9953C17.278 21.8286 20.761 19.5723 22.1377 19.0134C23.3798 18.509 24.3295 18.1204 25.7286 17.7303C26.8595 17.415 28.5338 17.1216 29.9938 17.1216V58.8626C22.4733 58.8626 14.7097 53.3604 11.819 46.419C11.0234 44.5084 11.0758 44.6494 10.5468 42.5673C8.905 36.1052 11.4174 31.0843 11.4978 30.1188C12.0583 30.2684 12.3891 30.8251 12.7789 31.2122C13.2145 31.6447 13.7691 31.9522 13.5111 32.616C13.1889 33.4454 12.1226 34.9625 12.1226 35.9925C12.1226 36.8382 13.0654 38.4037 13.4045 39.0847C13.706 39.6902 13.6731 39.7807 14.2736 40.3402C15.2548 41.2544 18.767 41.577 19.7515 39.4972C20.2643 38.4138 19.6952 36.4924 20.4959 36.4924C21.8882 36.4924 22.4613 37.7411 25.56 36.1826C27.3435 35.2857 26.9945 33.6197 26.9945 31.6185C26.9945 30.1654 25.242 29.7667 25.0417 29.0722C24.7674 28.1209 25.4354 26.4847 24.3375 25.2773C22.6916 23.4671 20.7944 24.9949 20.2459 24.9949C18.3126 24.9949 18.5935 25.1618 17.5901 24.1514C17.1953 23.7538 16.7956 23.4417 16.4967 22.9953L16.4967 22.9953ZM31.9934 17.1216C36.5756 17.1216 41.2927 19.2889 44.7039 22.1572C47.3336 24.3684 49.7422 27.9352 50.882 31.3509C53.6146 39.5392 51.1219 47.8855 44.836 53.7091C44.3989 54.1139 43.83 54.5149 43.3661 54.8636C42.8598 55.2441 42.4404 55.5316 41.8737 55.8707C39.1005 57.5298 35.6712 58.8626 31.9934 58.8626V54.9885C33.0408 54.9885 34.4937 54.6466 35.4192 54.4151C37.1572 53.9805 39.4848 52.8793 40.849 51.8466C43.1081 50.1365 45.1573 47.9666 46.3653 45.3655C50.4137 36.6491 46.8276 26.9348 38.4088 22.7036C37.4857 22.2396 36.613 21.872 35.5195 21.5937C34.6556 21.3739 33.0797 20.9957 31.9934 20.9957V17.1216ZM43.116 18.2463C43.852 18.2463 45.4903 17.7631 46.1623 17.5434L48.9897 16.6217C48.9897 20.442 48.4628 19.9959 52.9889 19.9959C52.9889 24.072 52.6026 23.9951 55.1135 23.9951C54.983 24.555 54.7114 24.8604 54.4485 25.3298C54.0058 26.1203 52.8023 29.2978 52.364 29.6189C52.2241 27.9368 49.0519 23.4802 47.4591 21.9015L46.0862 20.65C45.5145 20.1408 43.8125 18.6822 43.116 18.4962V18.2463V18.2463ZM50.9893 15.9968C50.9893 15.5739 51.9577 15.2626 52.3224 15.0804C52.9117 14.7859 53.3643 14.5816 53.8637 14.2472L58.5819 19.027L56.6749 21.6824C56.3134 22.1026 56.6825 21.9955 54.9885 21.9955C54.9885 17.4033 55.5816 17.9964 50.9893 17.9964V15.9968V15.9968ZM17.9964 18.9962V9.99812H19.9959V17.4965C19.9959 17.909 19.4194 18.1092 19.0671 18.3173C18.6349 18.5727 18.3687 18.7469 17.9964 18.9962ZM15.9968 2.99961H21.9955V7.99853H15.9968V2.99961ZM23.9951 4.99917C24.9614 4.99917 27.625 5.38677 28.5205 5.59773C29.8205 5.90395 30.6031 6.22016 31.7648 6.72741C31.9522 6.80925 31.8539 6.75224 32.0215 6.84574C32.1843 6.93658 32.1467 6.91472 32.2433 6.99876H23.9951V4.99917ZM13.9972 4.99917V6.99876H5.749L7.46104 6.21129C8.79196 5.6904 10.0937 5.43282 11.5834 5.20983C12.0216 5.14425 13.4979 4.99917 13.9972 4.99917H13.9972ZM13.9972 1.99981V2.99961C9.25742 2.99961 5.66665 4.33716 1.99916 6.74816C1.55692 7.03887 1 7.28006 1 7.99851C1 9.24731 2.28338 8.99864 3.49948 8.99831H13.9972C14.0959 10.1841 14.9575 9.9981 15.9968 9.9981V20.3709C15.9968 20.7639 15.5516 20.9385 15.2843 21.158C15.0041 21.3879 14.7901 21.6417 14.5281 21.9015C11.8956 24.5123 9.9671 28.0154 8.85698 31.6021C8.0451 34.2251 7.99851 36.1335 7.99851 38.8669C7.99851 44.4677 10.7998 50.3539 14.6533 54.2074C16.5677 56.1218 18.5248 57.4932 21.0781 58.7803C26.8968 61.7132 34.9183 61.738 40.7434 58.8645C45.6081 56.4647 49.376 52.9216 51.7824 47.9083C53.6135 44.0935 54.428 39.3924 53.8122 34.9192C53.711 34.1842 53.4888 33.4059 53.4888 32.7432C53.4888 32.5184 55.7464 27.3522 56.0282 26.7844C56.3012 26.2343 56.5124 25.9397 56.7801 25.4118L57.947 23.4544C58.9519 21.8187 60.9159 20.033 60.6484 18.713C60.4332 17.6512 57.48 15.0516 56.5818 14.1534C55.2843 12.8559 54.4282 11.4855 52.4346 12.6931C52.0302 12.938 51.7103 13.0744 51.2809 13.2891C47.396 15.2309 44.8571 15.8485 40.6025 16.746C39.8249 16.91 39.2215 16.4585 37.9465 16.0424C34.092 14.7843 29.7043 14.6581 25.6948 15.5719C24.9696 15.7372 24.4482 15.9078 23.8541 16.1058C23.2217 16.3165 22.6011 16.6056 21.9955 16.7467V9.9981C23.0348 9.9981 23.8964 10.1841 23.995 8.99831H34.4928C35.7089 8.99864 36.9923 9.24731 36.9923 7.99851C36.9923 7.14401 35.7078 6.54302 34.7664 5.97536C31.581 4.05473 28.065 2.99959 23.9951 2.99959C23.9951 2.1778 24.1839 1 22.9953 1H14.997C14.3925 1 13.9972 1.39529 13.9972 1.9998L13.9972 1.99981Z" fill="#263238" stroke="#263238"/>
<path fill-rule="evenodd" clip-rule="evenodd" d="M19.4959 45.9903H22.9951C24.7364 45.9903 23.1131 47.8367 25.3209 49.2883C26.2094 49.8725 25.9945 50.1755 25.9945 51.989C25.9945 53.1776 24.8167 52.9888 23.9949 52.9888C21.9069 52.9888 24.2385 49.7768 21.5393 48.3209C20.3763 47.6936 17.4294 48.5336 18.3112 46.6908C18.5698 46.1506 18.7654 45.9903 19.4959 45.9903ZM16.1216 46.7401C16.1216 48.073 16.2646 48.9933 17.6575 49.7033C18.3209 50.0414 18.3012 50.0053 19.2459 49.9894C19.9359 49.9778 20.4516 49.9226 20.7801 50.3299C21.3441 51.0292 20.6035 52.1919 21.3266 53.5325C22.2512 55.2469 23.68 54.9884 25.3696 54.9884C26.7294 54.9884 27.994 53.7238 27.994 52.3639C27.994 50.3367 28.2933 49.1647 27.1554 48.0787C26.5181 47.4705 26.1278 47.7007 25.998 46.6116C25.8154 45.0785 24.7565 43.9907 23.37 43.9907H18.871C17.23 43.9907 16.1216 45.9273 16.1216 46.7401V46.7401Z" fill="#263238" stroke="#263238"/>
</svg>
