<svg width="49" height="60" viewBox="0 0 49 60" fill="none" xmlns="http://www.w3.org/2000/svg">
<path fill-rule="evenodd" clip-rule="evenodd" d="M25.8879 0H23.0003C22.9074 0.0471413 19.7431 0.460534 19.2413 0.579294C18.0138 0.870301 16.9238 1.18035 15.8256 1.59102C13.7713 2.35797 11.6569 3.55645 10.1398 4.68693C7.5728 6.59978 6.42817 7.84359 4.66796 10.1562C3.63351 11.5143 2.92961 12.8514 2.21478 14.3754C-2.26268 23.9278 0.508303 34.5065 6.55474 40.9685C7.10566 41.5569 8.00625 42.6837 9.4696 42.0981C10.392 41.7282 11.2079 40.4436 10.5605 39.2343C10.24 38.6368 9.22373 37.7004 8.54624 36.8228C6.46186 34.1212 5.09048 31.271 4.51134 27.671C3.94494 24.1481 4.37748 19.521 5.90548 16.388C6.70772 14.7434 6.47825 15.1061 7.45533 13.5151C8.50799 11.8007 10.1753 9.96223 11.6186 8.82449C19.4717 2.63175 29.7525 2.63901 37.4681 8.85894C38.406 9.61501 38.8686 10.149 39.6681 11.0048C40.3984 11.7871 41.0103 12.5632 41.584 13.5151C43.1257 16.0734 43.3515 16.6436 44.2412 19.6951C44.9132 21.9996 44.9032 25.2541 44.5298 27.6774C44.1774 29.961 43.2559 32.5493 42.2424 34.2337C41.3891 35.6515 40.6479 36.7911 39.4996 38.0004C39.17 38.3467 38.7229 38.7774 38.4843 39.2424C37.8542 40.4681 38.6491 41.7255 39.5725 42.0972C41.0276 42.6837 41.9228 41.5868 42.5301 40.9313C45.1336 38.1219 47.5758 34.075 48.5119 29.2865C49.6611 23.4075 48.7368 17.736 46.0997 12.8605C44.9651 10.7627 43.0419 8.20531 41.2726 6.65871L38.8476 4.65792C36.3999 2.75686 32.9287 1.271 29.7388 0.567509L25.8897 0.00453282L25.8879 0Z" fill="#263238"/>
<path fill-rule="evenodd" clip-rule="evenodd" d="M22.4522 55.79C22.5132 55.5407 28.0561 49.949 28.2847 49.8266C28.4905 50.1031 29.7289 55.498 29.7325 55.7963L22.4522 55.79ZM19.3461 55.7963C19.3115 55.4781 20.7284 49.4313 20.9597 48.6798L26.4097 48.7061C26.3232 48.9517 23.4366 51.7993 22.9321 52.3396C22.3557 52.9569 21.7611 53.5662 21.1582 54.1572C20.7958 54.5126 19.7268 55.7582 19.3461 55.7963ZM22.6735 46.592C22.7418 46.31 22.9166 46.2049 23.1051 46.0109L24.604 44.5014C25.0948 43.9865 26.3296 42.6829 26.61 42.5714C26.7976 43.0491 27.5416 46.1749 27.5389 46.6001L22.6735 46.592ZM22.75 41.1644L24.9445 41.1662C24.8599 41.5216 24.8726 41.3892 24.634 41.6167C24.4856 41.7582 24.4419 41.8243 24.2643 42.0002C23.901 42.3601 22.2446 44.0898 22.0197 44.1433L22.75 41.1644ZM23.2381 39.033C23.2399 38.7484 24.4109 33.9309 24.5166 33.7759C24.6386 33.9554 25.7823 38.6496 25.7513 39.0793L23.2381 39.033ZM16.5002 60H32.536C33.8258 60 34.7783 58.7973 34.4829 57.5418L28.5642 32.3943C28.4531 31.9528 27.6154 28.5187 27.6773 28.3338C27.8621 28.0817 27.9477 28.0763 28.1526 27.8696C29.5149 26.4989 29.8636 24.4637 29.2435 22.6288C27.8102 18.386 21.3176 18.3226 19.8124 22.5689C18.5166 26.2251 21.3158 28.2032 21.3595 28.3338C21.3777 28.9947 20.682 31.6074 20.4971 32.3453C20.1456 33.7487 19.8943 34.9635 19.561 36.307C18.2406 41.6349 17.096 46.805 15.8348 52.1211L14.4698 57.9169V57.9169C14.2192 58.981 15.0268 60.0006 16.1201 60.0002L16.5002 60Z" fill="#263238"/>
<path fill-rule="evenodd" clip-rule="evenodd" d="M23.829 10.1191C19.4408 10.4781 16.9648 11.7781 14.1784 14.4552C13.9015 14.7208 13.8159 14.8885 13.5482 15.1614C13.1794 15.5385 12.7423 16.1795 12.4728 16.5865C10.6024 19.4059 9.69816 23.238 10.3638 26.9376C10.6188 28.3555 11.106 29.6066 11.6387 30.7416C12.196 31.9283 13.897 34.4748 15.0225 34.9499C16.3538 35.5119 17.9556 34.5773 17.9246 33.0017C17.8945 31.456 15.9786 30.7298 15.0698 28.1624C14.5453 26.6829 14.2822 25.5633 14.3723 23.7502C14.6428 18.3253 19.3788 13.9801 25.2723 14.2911C28.229 14.447 30.6704 16.067 32.0818 17.6381C35.3518 21.2771 35.5995 26.7101 32.4843 30.6836C32.141 31.1214 31.5564 31.6028 31.3187 32.106C30.3189 34.2219 32.9788 36.287 34.8273 34.3497C36.9818 32.0906 38.6127 29.1315 38.8385 25.5887C39.0443 22.3604 38.3086 19.4757 36.9718 17.2664C35.6405 15.0662 34.1088 13.4244 31.9206 12.1362C29.7889 10.8815 26.9014 9.87068 23.829 10.1218V10.1191Z" fill="#263238"/>
</svg>
