<svg width="56" height="62" viewBox="0 0 56 62" fill="none" xmlns="http://www.w3.org/2000/svg">
<path fill-rule="evenodd" clip-rule="evenodd" d="M50.7971 54.2301L38.7095 54.2475C38.6344 51.0239 39.0096 51.5883 44.7064 51.5883C46.1506 51.5883 47.5964 51.5943 49.0406 51.5879C50.8849 51.5794 50.8684 52.5292 50.7971 54.2301ZM21.9611 53.8528C21.9615 51.7271 22.1164 51.5879 24.5218 51.5879L32.6019 51.5828C34.15 51.6061 34.0541 52.7672 34.0405 54.2097L21.9632 54.2479L21.9606 53.8524L21.9611 53.8528ZM17.2602 53.6559L17.2569 54.2475L5.1986 54.247C5.18927 51.0298 5.38575 51.5879 10.9341 51.5879C12.3124 51.5879 13.6912 51.59 15.0696 51.5879C16.9144 51.5849 17.2602 51.7678 17.2602 53.6559ZM31.555 48.6945C31.6666 48.9962 31.67 49.5012 31.5732 49.8666L24.3868 49.8654C24.0384 47.9972 25.0361 48.4153 27.2789 48.4153C28.1078 48.4153 31.0712 48.1971 31.5554 48.6945H31.555ZM48.2551 48.644C48.4749 48.9453 48.3993 49.4185 48.39 49.8547L41.1192 49.8628C41.0937 48.1432 40.9749 48.4153 44.1157 48.4153L47.3685 48.4106C47.8956 48.4068 47.9839 48.3457 48.2551 48.644ZM7.74869 48.5069C8.34536 48.3384 14.1373 48.3355 14.7106 48.5078C14.9287 48.958 14.8757 49.233 14.868 49.8564L7.59591 49.8624C7.58233 49.1779 7.54795 49.0166 7.74869 48.5069ZM32.1296 31.7228C33.4795 30.8125 33.2308 30.5503 33.4095 28.7696L39.3614 28.7683C39.5108 30.5227 39.3431 30.8651 40.6422 31.7287L40.6464 46.8616C40.2403 47.2851 39.9093 47.3581 39.6173 47.9777C39.33 48.5876 39.3902 49.219 39.3796 49.9481C36.6589 50.8469 37.1461 52.6892 36.9989 54.2186L35.7588 54.2224C35.5848 52.923 36.1302 50.7417 33.384 49.9583C33.3836 49.2033 33.404 48.4229 33.087 47.8496C31.9972 45.8792 32.1275 49.4554 32.1275 41.4461C32.1275 38.2132 32.0854 34.9523 32.1291 31.7228H32.1296ZM15.3718 31.6944C16.5116 31.1563 16.5329 30.3606 16.6042 28.7713L22.6108 28.784C22.6613 29.4681 22.579 30.1293 22.8603 30.7035C23.1642 31.3243 23.5406 31.3854 23.8839 31.7975L23.8793 46.862C23.6501 47.4243 22.6036 46.896 22.6299 49.926C21.6415 50.367 21.2248 50.4849 20.7083 51.3184C20.1273 52.2559 20.345 53.0452 20.2428 54.2212L18.9709 54.1851C18.8962 52.9311 19.1373 52.3382 18.5037 51.3087C17.7737 50.1221 16.9971 50.319 16.5995 49.8166C16.5991 49.0879 16.6636 48.5124 16.3691 47.9238C16.0584 47.3034 15.8102 47.2771 15.368 46.8625L15.3726 31.6952L15.3718 31.6944ZM42.3817 31.9252L47.1911 31.9248L47.1869 46.6902L42.3426 46.6863L42.3817 31.9248V31.9252ZM25.6213 31.924L30.4291 31.9303V46.6893L25.5785 46.683L25.6213 31.924ZM8.8283 31.9588C9.45723 31.8603 13.2113 31.8293 13.5919 31.9902C13.8461 32.5635 13.6577 44.8437 13.6641 46.6863L8.7969 46.6486L8.8283 31.9588ZM48.0849 30.1649C47.534 30.3576 44.6529 30.2426 43.8203 30.2426C41.3449 30.2426 41.0024 30.5872 41.1242 28.7691L48.3841 28.8039C48.4316 29.429 48.516 29.8598 48.0849 30.1649ZM31.5117 30.024C30.9757 30.4934 28.1616 30.2426 27.2789 30.2426C24.5761 30.2426 24.2272 30.5991 24.3669 28.7687L31.6042 28.7653C31.6526 29.1804 31.6891 29.7113 31.5117 30.024ZM14.7038 30.1327C14.2629 30.2634 9.21745 30.3275 8.2694 30.2409C7.44865 30.1662 7.53437 29.5776 7.61331 28.7679L14.8472 28.7687C14.9054 29.4095 14.9181 29.679 14.7038 30.1327ZM2.73594 23.7713L53.2975 23.8048L53.2937 26.991C52.6639 27.1731 17.7037 27.0466 15.2661 27.0466C13.4744 27.0466 3.60634 27.165 2.7109 27.0088L2.73552 23.7713H2.73594ZM5.8984 22.0462C6.07706 21.7559 6.92794 21.0675 7.28484 20.7671L16.928 12.4828C17.8845 11.6264 18.7808 10.8642 19.7378 10.0732C22.3884 7.88258 25.292 5.17887 27.9613 2.96362C28.3963 3.21273 30.2199 4.86907 30.7809 5.34862C31.2545 5.75305 31.6564 6.1108 32.1529 6.53688C34.7989 8.80475 49.6916 21.5288 50.1151 22.0466L5.89798 22.0462H5.8984ZM50.1622 28.7827C51.3428 28.7004 52.6682 28.7899 53.8683 28.7717C55.3952 28.7483 55.0209 27.617 55.0213 26.1838C55.0217 25.5252 55.1032 22.948 54.9449 22.5406C54.5244 21.458 53.3361 22.6263 52.1916 21.5513C51.5215 20.922 50.8646 20.3673 50.1813 19.8199L45.1584 15.4891C43.4872 14.042 39.7094 10.6843 38.1231 9.42943L30.0824 2.50529C28.3021 0.832823 28.0589 0.532789 26.8329 1.71171C26.5791 1.95573 26.1297 2.33172 25.8255 2.57616C25.1074 3.15332 24.5349 3.70925 23.8211 4.31187L17.7763 9.49436C17.0761 10.1016 16.4671 10.6453 15.7694 11.2284C14.3987 12.3738 13.1956 13.5056 11.8193 14.6586C11.139 15.2285 10.4787 15.7633 9.80182 16.3854L3.7676 21.5772C3.13868 22.0996 3.42937 22.0356 2.36801 22.0228C0.534274 22.0008 0.988782 22.7472 0.987509 26.2819C0.987084 27.7579 0.600052 28.7713 2.26658 28.7704C3.16371 28.77 5.07214 28.6626 5.8479 28.8044C5.96715 30.3253 5.968 31.1673 7.11636 31.6867L7.10915 46.8603C5.8462 48.049 5.9523 47.7286 5.85214 49.9125C4.85146 50.4998 4.5718 50.28 3.9573 51.3061C3.39458 52.2461 3.55796 53.0019 3.48836 54.1813C0.779564 54.7033 1.00576 52.5534 0.98369 59.6634C0.981568 60.3424 1.09403 60.906 1.78279 60.9581C3.36699 61.0782 2.43081 58.4306 2.73637 55.9662L53.2372 55.9654C53.4172 56.6702 53.2708 59.0565 53.2894 59.9604C53.3158 61.2179 55.0243 61.5735 55.0239 59.6646C55.0217 53.0783 55.3354 54.4317 52.5273 54.2025C52.3995 52.673 52.728 51.6168 51.255 50.4527C50.8667 50.1459 50.5789 50.1645 50.1648 49.9125C50.1151 49.2182 50.1974 48.5396 49.9152 47.9531C49.6377 47.3755 49.2655 47.252 48.8929 46.8603L48.9048 31.6676C50.2556 31.1325 50.0994 29.6374 50.1618 28.7823L50.1622 28.7827Z" fill="#263238" stroke="#263238"/>
<path fill-rule="evenodd" clip-rule="evenodd" d="M23.6736 15.0592C23.3171 12.4756 25.2052 10.4521 27.3775 10.1372C29.9751 9.76082 32.0206 11.6633 32.327 13.8743C32.6873 16.4774 30.7335 18.5132 28.5569 18.786C26.0284 19.1031 23.9723 17.2239 23.6736 15.0592ZM27.1106 8.43846C24.0504 8.89085 21.3959 11.7299 21.9841 15.4437C22.459 18.441 25.3528 21.0459 28.9605 20.4759C31.9761 19.9998 34.5733 17.1895 34.0241 13.5327C33.5641 10.4666 30.6987 7.90799 27.1106 8.43846Z" fill="#263238" stroke="#263238"/>
</svg>
