<svg width="53" height="53" viewBox="0 0 53 53" fill="none" xmlns="http://www.w3.org/2000/svg">
<path d="M16.5624 33.677C16.1428 33.677 15.7232 33.5224 15.3919 33.1912C14.7515 32.5508 14.7515 31.4908 15.3919 30.8503L22.4586 23.7837C22.8119 23.4303 23.2757 23.2537 23.7836 23.2978C24.2694 23.342 24.7111 23.607 24.9982 24.0266L27.4053 27.6483L35.2449 19.8087C35.8853 19.1683 36.9453 19.1683 37.5857 19.8087C38.2261 20.4491 38.2261 21.5091 37.5857 22.1495L28.3107 31.4245C27.9574 31.7778 27.4936 31.9545 26.9857 31.9103C26.4999 31.8662 26.0582 31.6012 25.7711 31.1816L23.364 27.5599L17.7328 33.1912C17.4015 33.5224 16.9819 33.677 16.5624 33.677Z" fill="#292D32"/>
<path d="M36.4377 27.0522C35.5322 27.0522 34.7814 26.3013 34.7814 25.3959V22.6355H32.021C31.1156 22.6355 30.3647 21.8847 30.3647 20.9792C30.3647 20.0738 31.1156 19.323 32.021 19.323H36.4377C37.3431 19.323 38.0939 20.0738 38.0939 20.9792V25.3959C38.0939 26.3013 37.3431 27.0522 36.4377 27.0522Z" fill="#292D32"/>
<path d="M33.1248 50.2397H19.8748C7.88359 50.2397 2.76025 45.1163 2.76025 33.1251V19.8751C2.76025 7.88383 7.88359 2.7605 19.8748 2.7605H33.1248C45.1161 2.7605 50.2394 7.88383 50.2394 19.8751V33.1251C50.2394 45.1163 45.1161 50.2397 33.1248 50.2397ZM19.8748 6.073C9.69442 6.073 6.07275 9.69466 6.07275 19.8751V33.1251C6.07275 43.3055 9.69442 46.9272 19.8748 46.9272H33.1248C43.3053 46.9272 46.9269 43.3055 46.9269 33.1251V19.8751C46.9269 9.69466 43.3053 6.073 33.1248 6.073H19.8748Z" fill="#292D32"/>
</svg>
