<svg width="53" height="53" viewBox="0 0 53 53" fill="none" xmlns="http://www.w3.org/2000/svg">
<path d="M28.7082 32.573H4.4165C3.51109 32.573 2.76025 31.8222 2.76025 30.9167V13.2501C2.76025 7.46425 7.464 2.7605 13.2498 2.7605H33.1248C34.0303 2.7605 34.7811 3.51133 34.7811 4.41675V26.5001C34.7811 29.8567 32.0648 32.573 28.7082 32.573ZM6.07275 29.2605H28.7082C30.2319 29.2605 31.4686 28.0238 31.4686 26.5001V6.073H13.2498C9.29692 6.073 6.07275 9.29716 6.07275 13.2501V29.2605Z" fill="#292D32"/>
<path d="M41.9582 45.823H39.7498C38.8444 45.823 38.0936 45.0722 38.0936 44.1667C38.0936 42.643 36.8569 41.4063 35.3332 41.4063C33.8094 41.4063 32.5728 42.643 32.5728 44.1667C32.5728 45.0722 31.8219 45.823 30.9165 45.823H22.0832C21.1778 45.823 20.4269 45.0722 20.4269 44.1667C20.4269 42.643 19.1903 41.4063 17.6665 41.4063C16.1428 41.4063 14.9061 42.643 14.9061 44.1667C14.9061 45.0722 14.1553 45.823 13.2498 45.823H11.0415C6.47025 45.823 2.76025 42.113 2.76025 37.5417V30.9167C2.76025 30.0113 3.51109 29.2605 4.4165 29.2605H28.7082C30.2319 29.2605 31.4686 28.0238 31.4686 26.5001V11.0417C31.4686 10.1363 32.2194 9.3855 33.1248 9.3855H37.1882C39.3744 9.3855 41.384 10.5559 42.4661 12.4551L46.2423 19.058C46.5294 19.5659 46.5294 20.2063 46.2423 20.7143C45.9553 21.2222 45.4032 21.5313 44.8069 21.5313H41.9582C41.649 21.5313 41.4061 21.7742 41.4061 22.0834V28.7084C41.4061 29.0176 41.649 29.2605 41.9582 29.2605H48.5832C49.4886 29.2605 50.2394 30.0113 50.2394 30.9167V37.5417C50.2394 42.113 46.5294 45.823 41.9582 45.823ZM41.1852 42.5105H41.9582C44.6965 42.5105 46.9269 40.2801 46.9269 37.5417V32.573H41.9582C39.8382 32.573 38.0936 30.8284 38.0936 28.7084V22.0834C38.0936 19.9634 39.8161 18.2188 41.9582 18.2188L39.5952 14.0893C39.1094 13.228 38.1819 12.698 37.1882 12.698H34.7811V26.5001C34.7811 29.8567 32.0648 32.573 28.7082 32.573H6.07275V37.5417C6.07275 40.2801 8.30317 42.5105 11.0415 42.5105H11.8144C12.5432 39.9709 14.884 38.0938 17.6665 38.0938C20.449 38.0938 22.7898 39.9709 23.5186 42.5105H29.5031C30.2319 39.9709 32.5728 38.0938 35.3553 38.0938C38.1378 38.0938 40.4565 39.9709 41.1852 42.5105Z" fill="#292D32"/>
<path d="M17.6667 50.2396C14.31 50.2396 11.5938 47.5233 11.5938 44.1667C11.5938 40.81 14.31 38.0938 17.6667 38.0938C21.0233 38.0938 23.7396 40.81 23.7396 44.1667C23.7396 47.5233 21.0233 50.2396 17.6667 50.2396ZM17.6667 41.4062C16.1429 41.4062 14.9062 42.6429 14.9062 44.1667C14.9062 45.6904 16.1429 46.9271 17.6667 46.9271C19.1904 46.9271 20.4271 45.6904 20.4271 44.1667C20.4271 42.6429 19.1904 41.4062 17.6667 41.4062Z" fill="#292D32"/>
<path d="M35.3332 50.2396C31.9765 50.2396 29.2603 47.5233 29.2603 44.1667C29.2603 40.81 31.9765 38.0938 35.3332 38.0938C38.6898 38.0938 41.4061 40.81 41.4061 44.1667C41.4061 47.5233 38.6898 50.2396 35.3332 50.2396ZM35.3332 41.4062C33.8094 41.4062 32.5728 42.6429 32.5728 44.1667C32.5728 45.6904 33.8094 46.9271 35.3332 46.9271C36.8569 46.9271 38.0936 45.6904 38.0936 44.1667C38.0936 42.6429 36.8569 41.4062 35.3332 41.4062Z" fill="#292D32"/>
<path d="M48.5833 32.5729H41.9583C39.8383 32.5729 38.0938 30.8283 38.0938 28.7083V22.0833C38.0938 19.9633 39.8383 18.2188 41.9583 18.2188H44.8071C45.4034 18.2188 45.9554 18.5279 46.2425 19.0579L50.0187 25.6829C50.1512 25.9258 50.2396 26.2129 50.2396 26.5V30.9167C50.2396 31.8221 49.4887 32.5729 48.5833 32.5729ZM41.9583 21.5313C41.6492 21.5313 41.4062 21.7742 41.4062 22.0833V28.7083C41.4062 29.0175 41.6492 29.2604 41.9583 29.2604H46.9271V26.9417L43.8354 21.5313H41.9583Z" fill="#292D32"/>
</svg>
