<svg width="45" height="56" viewBox="0 0 45 56" fill="none" xmlns="http://www.w3.org/2000/svg">
<path fill-rule="evenodd" clip-rule="evenodd" d="M21.4612 40.1366H23.3576L24.4117 53.0025H20.5082C20.5082 51.6981 21.105 45.1473 21.2398 43.4L21.4564 40.1366H21.4612ZM21.5815 1.00963H23.295C27.7425 1.11071 32.1755 1.99635 35.0057 3.70505C36.1416 4.38854 37.3209 5.26937 38.014 6.39086C38.6734 7.45459 38.8659 8.8023 38.2691 10.0104C37.6915 11.1752 36.2283 12.1138 35.3811 12.186C35.3811 17.0522 35.7469 16.9319 32.9553 16.9319V18.4096C34.2837 18.4385 35.3811 20.0605 35.3811 21.466V22.3083C35.3811 23.8341 34.3463 25.6198 33.0563 26.4188C32.5317 26.7461 32.2236 26.8424 31.3717 26.8424C31.0781 27.9398 29.3983 29.6437 29.1576 30.0047L35.2127 32.4932C36.132 32.8782 42.8754 35.5015 43.1546 35.7277C43.684 36.1609 44.0258 36.6759 44.0258 37.6001V52.68C44.0258 53.9315 43.1353 55 41.9176 55H3.00232C1.99153 55 1 54.0085 1 52.9977V37.2824C1 36.4689 1.53909 35.8432 2.09261 35.5304L7.98886 33.2007C9.28844 32.6376 10.6025 32.1129 11.878 31.6027L15.7671 30.0047C15.4157 29.4801 14.9777 29.0517 14.6071 28.5271C14.3135 28.1083 13.784 27.3815 13.6589 26.8376C9.6735 26.8376 8.27284 20.4167 11.0645 18.7609C12.1812 18.0967 12.0753 18.7946 12.0753 16.9271C10.1404 16.9271 9.63499 17.1244 9.64943 15.1366C9.65425 14.1546 9.64943 13.1679 9.64943 12.1812C8.99964 12.1283 7.79151 11.3341 7.40164 10.9442C6.90106 10.4436 6.37642 9.53392 6.37642 8.59533C6.37642 6.81924 7.42089 5.77476 8.34985 4.87468C9.24512 4.0131 10.7469 3.32962 11.9598 2.79053C14.4579 1.6883 17.9523 1.08183 21.5719 1L21.5815 1.00963ZM20.9365 35.7036C25.0326 35.7036 24.4165 35.1405 24.4165 38.0236C23.6127 38.2113 21.4227 38.2113 20.6189 38.0236C20.6189 37.0273 20.4167 35.7036 20.9365 35.7036ZM18.6165 35.7036C18.6165 37.5327 18.3037 38.9381 19.5648 39.6072C19.5648 40.0548 19.4974 40.7624 19.4444 41.2774L18.4048 52.9977H11.5507C11.5507 51.1831 11.9261 49.0941 10.4966 49.0941C9.10072 49.0941 9.44246 51.4719 9.44246 52.8918H3.00713V37.6001C3.00713 37.2583 3.19485 37.3209 3.47402 37.2246C6.24164 36.2812 11.9887 33.7591 14.9344 32.5509L17.4084 31.5402C17.7742 31.4728 17.986 31.7423 18.4818 32.0311C20.8066 33.3884 24.3491 33.3162 26.5921 31.9782C27.7232 31.3043 27.2275 31.4343 28.8688 32.0841L40.9982 37.0417C41.2629 37.1476 41.4314 37.1813 41.6336 37.2535C41.9416 37.3642 42.0234 37.3305 42.0234 37.8118C42.0234 39.9971 42.1871 51.727 41.9176 52.8918H35.487C35.487 51.0724 35.8721 49.0941 34.4329 49.0941C33.1045 49.0941 33.4847 51.0724 33.4847 52.8918H26.5247C26.5247 52.2179 26.4525 51.8954 26.4188 51.2071C26.3418 49.6477 26.0386 47.732 26.0001 46.2495C25.952 44.3916 25.4706 41.4844 25.4706 39.6072C26.7413 38.7552 26.4188 37.5952 26.4188 35.7036C26.4188 33.1959 23.0062 33.5954 21.4612 33.5954C20.0076 33.5954 18.6117 34.1634 18.6117 35.7036H18.6165ZM30.746 24.6283C30.1828 24.6283 29.8651 25.2252 29.6534 25.6439C29.302 26.3418 28.9602 27.0157 28.4885 27.6414C27.8339 28.503 26.5921 29.6678 25.6102 30.1395C21.5623 32.0744 17.8609 30.1202 15.7767 26.5199C15.5457 26.1252 15.3146 25.4754 15.0595 25.1289C14.5686 24.4743 14.1354 24.8882 13.2642 24.7101C12.4363 24.5417 11.6614 23.0784 11.6614 21.7789C11.6614 19.5936 12.831 20.7151 13.6252 20.1616C14.3809 19.637 13.9429 17.8849 14.1932 16.8212H30.8567C30.8567 17.5191 30.9722 17.8368 30.9626 18.6117C30.9337 21.0857 32.0696 20.0316 32.7868 20.3686C33.8794 20.8788 33.3499 23.9737 31.8626 24.6861C31.2658 24.9701 31.338 24.6235 30.7508 24.6235L30.746 24.6283ZM11.6566 11.6566L14.2654 11.5218C15.021 11.4159 16.2051 11.4737 16.9608 11.3678C17.7213 11.2619 18.9679 11.3437 19.7814 11.3437L27.9735 11.3678C29.3934 11.5603 31.9878 11.3533 33.2729 11.6566V14.8189H11.6518V11.6566H11.6566ZM35.0683 10.073C34.9913 9.86122 35.0057 9.82753 34.7025 9.70238C34.6543 9.68313 34.1153 9.57242 34.096 9.57242C33.5858 9.50985 33.0515 9.54836 32.5365 9.55317C31.8915 9.55798 31.7231 9.4569 31.1695 9.44246C30.6641 9.42802 30.0866 9.48097 29.5908 9.44246C28.3056 9.33657 19.9161 9.06222 18.3614 9.29807L12.2919 9.55798C10.665 9.55317 10.6217 9.43284 9.65425 10.0826C7.28612 8.83118 8.93226 6.71816 10.6362 5.68331C11.7817 4.9902 12.6385 4.67733 14.0199 4.21526C19.6418 2.32365 29.1431 2.5595 34.3944 5.69293C37.6867 7.65674 36.5748 9.95267 35.0683 10.0778V10.073Z" fill="#263238" stroke="#263238"/>
<path fill-rule="evenodd" clip-rule="evenodd" d="M20.0894 5.43786L21.2253 6.62192C21.2253 6.89146 21.0279 8.08996 20.9365 8.28249C21.6152 8.22473 22.005 7.64233 22.4334 7.61345C22.7655 7.58938 23.5068 8.17179 23.9929 8.28249C23.9929 7.69528 23.6271 6.92997 23.9063 6.51603C24.1325 6.18391 24.6668 5.84698 24.9411 5.43304C24.455 5.31752 23.8533 5.22126 23.2517 5.22126C23.1554 4.81694 22.6885 3.84467 22.4093 3.6377C22.3612 3.85429 21.8847 4.88433 21.7836 5.01429C21.4948 5.3801 20.9798 5.22607 20.0894 5.43304V5.43786Z" fill="#263238"/>
</svg>
