<svg width="16" height="20" viewBox="0 0 16 20" fill="none" xmlns="http://www.w3.org/2000/svg">
<path d="M1 17.5V4.19995C1 3.07985 1 2.51986 1.21799 2.09204C1.40973 1.71572 1.71547 1.40973 2.0918 1.21799C2.51962 1 3.08009 1 4.2002 1H13.4002C13.9602 1 14.2405 1 14.4544 1.10899C14.6425 1.20487 14.7948 1.35786 14.8906 1.54602C14.9996 1.75993 15 2.03992 15 2.59998V14.4C15 14.96 14.9996 15.2401 14.8906 15.454C14.7948 15.6422 14.6425 15.7951 14.4544 15.891C14.2405 16 13.9601 16 13.4 16H3.25C2.00736 16 1 17.0074 1 18.25C1 18.6642 1.33579 19 1.75 19H12.4C12.9601 19 13.2405 19 13.4544 18.891C13.6425 18.7951 13.7948 18.6422 13.8906 18.454C13.9996 18.2401 14 17.9601 14 17.4V16" stroke="#383434" stroke-width="1.5" stroke-linecap="round" stroke-linejoin="round"/>
</svg>
