<svg width="24" height="24" viewBox="0 0 24 24" fill="none" xmlns="http://www.w3.org/2000/svg">
<path d="M4 20.0001H3.25C3.25 20.4143 3.58579 20.7501 4 20.7501V20.0001ZM20 20.7501C20.4142 20.7501 20.75 20.4143 20.75 20.0001C20.75 19.5859 20.4142 19.2501 20 19.2501V20.7501ZM4 16.0001L3.46967 15.4698C3.32902 15.6104 3.25 15.8012 3.25 16.0001H4ZM14.8686 5.13146L14.3383 4.60113L14.3383 4.60113L14.8686 5.13146ZM17.1313 5.13146L16.601 5.66179V5.66179L17.1313 5.13146ZM18.8686 6.86872L19.3989 6.33839V6.33839L18.8686 6.86872ZM18.8686 9.13146L18.3383 8.60113V8.60113L18.8686 9.13146ZM8 20.0001L8 20.7501C8.19892 20.7501 8.38968 20.6711 8.53033 20.5304L8 20.0001ZM19.5369 7.69112L20.2502 7.45936V7.45936L19.5369 7.69112ZM19.5369 8.30908L18.8236 8.07731L19.5369 8.30908ZM15.691 4.46325L15.4592 3.74996L15.691 4.46325ZM16.3091 4.46325L16.5408 3.74996L16.3091 4.46325ZM12.5303 7.46979C12.2374 7.17689 11.7626 7.17689 11.4697 7.46979C11.1768 7.76268 11.1768 8.23755 11.4697 8.53045L12.5303 7.46979ZM15.4697 12.5304C15.7626 12.8233 16.2374 12.8233 16.5303 12.5304C16.8232 12.2376 16.8232 11.7627 16.5303 11.4698L15.4697 12.5304ZM4 20.7501H20V19.2501H4V20.7501ZM4.75 20.0001V16.0001H3.25V20.0001H4.75ZM4.53033 16.5304L15.399 5.66179L14.3383 4.60113L3.46967 15.4698L4.53033 16.5304ZM16.601 5.66179L18.3383 7.39905L19.3989 6.33839L17.6617 4.60113L16.601 5.66179ZM18.3383 8.60113L7.46967 19.4698L8.53033 20.5304L19.399 9.66179L18.3383 8.60113ZM8 19.2501L4 19.2501L4 20.7501L8 20.7501L8 19.2501ZM18.3383 7.39905C18.545 7.60581 18.6678 7.72941 18.7517 7.82819C18.8299 7.92029 18.8293 7.9404 18.8236 7.92288L20.2502 7.45936C20.1703 7.21351 20.0336 7.02043 19.8952 6.85742C19.7625 6.70108 19.5882 6.52765 19.3989 6.33839L18.3383 7.39905ZM19.399 9.66179C19.5882 9.47253 19.7625 9.2991 19.8952 9.14277C20.0336 8.97974 20.1703 8.78667 20.2502 8.54084L18.8236 8.07731C18.8293 8.05981 18.8298 8.07992 18.7517 8.17201C18.6678 8.27078 18.5451 8.39438 18.3383 8.60113L19.399 9.66179ZM18.8236 7.92288C18.8399 7.9731 18.8399 8.0271 18.8236 8.07731L20.2502 8.54084C20.3644 8.18936 20.3644 7.81083 20.2502 7.45936L18.8236 7.92288ZM15.399 5.66179C15.6057 5.45504 15.7293 5.33228 15.8281 5.24844C15.9201 5.17028 15.9403 5.17086 15.9228 5.17654L15.4592 3.74996C15.2134 3.82983 15.0204 3.96651 14.8573 4.1049C14.701 4.23762 14.5276 4.41187 14.3383 4.60113L15.399 5.66179ZM17.6617 4.60113C17.4725 4.41191 17.299 4.23765 17.1428 4.10496C16.9798 3.96657 16.7867 3.82984 16.5408 3.74996L16.0773 5.17654C16.0598 5.17084 16.0798 5.17022 16.1719 5.24839C16.2707 5.33225 16.3942 5.455 16.601 5.66179L17.6617 4.60113ZM15.9228 5.17654C15.973 5.16023 16.0271 5.16023 16.0773 5.17654L16.5408 3.74996C16.1894 3.63576 15.8107 3.63576 15.4592 3.74996L15.9228 5.17654ZM11.4697 8.53045L15.4697 12.5304L16.5303 11.4698L12.5303 7.46979L11.4697 8.53045Z" fill="#A53436"/>
</svg>
