<svg width="26" height="15" viewBox="0 0 26 15" fill="none" xmlns="http://www.w3.org/2000/svg">
<path fill-rule="evenodd" clip-rule="evenodd" d="M22.9255 10.5148C22.9255 10.5148 24.9467 12.6097 25.4467 13.5792C25.4565 13.5932 25.4641 13.6088 25.4692 13.6251C25.673 13.9833 25.723 14.264 25.623 14.4714C25.4542 14.8138 24.883 14.9856 24.6892 15H21.1167C20.868 15 20.3505 14.9318 19.7205 14.4753C19.2392 14.1224 18.7605 13.5413 18.2967 12.9731C17.6042 12.1296 17.0055 11.3976 16.3992 11.3976C16.3226 11.3974 16.2466 11.4107 16.1742 11.437C15.7155 11.5891 15.133 12.2753 15.133 14.1026C15.133 14.6746 14.703 15 14.4017 15H12.7655C12.208 15 9.30548 14.7954 6.73173 11.9473C3.57798 8.46025 0.745464 1.46538 0.717964 1.40375C0.541714 0.951125 0.911715 0.704499 1.31171 0.704499H4.91923C5.40298 0.704499 5.56048 1.0115 5.67048 1.287C5.79798 1.60313 6.27048 2.86775 7.04548 4.2885C8.30048 6.6 9.07173 7.54062 9.68797 7.54062C9.80373 7.541 9.9176 7.50938 10.018 7.44888C10.823 6.98438 10.673 3.96713 10.6355 3.34525C10.6355 3.22463 10.6342 1.998 10.2217 1.405C9.92673 0.979999 9.42423 0.814625 9.12048 0.754375C9.20173 0.631 9.37423 0.442125 9.59548 0.330625C10.1467 0.0419996 11.143 0 12.1317 0H12.6805C13.753 0.01575 14.0305 0.0878752 14.4205 0.1915C15.2055 0.388375 15.2205 0.92225 15.1517 2.7405C15.1317 3.26 15.1105 3.84512 15.1105 4.53387C15.1105 4.68075 15.1042 4.84475 15.1042 5.01137C15.0805 5.94413 15.0492 6.99488 15.6767 7.4265C15.7581 7.47975 15.8521 7.50787 15.948 7.50787C16.1655 7.50787 16.8167 7.50787 18.583 4.32662C19.358 2.9215 19.958 1.26462 19.9992 1.14C20.0342 1.0705 20.1392 0.875 20.2667 0.79625C20.3575 0.745625 20.459 0.720376 20.5617 0.722876H24.8055C25.268 0.722876 25.5817 0.796251 25.643 0.98C25.7455 1.27775 25.623 2.18688 23.6855 4.93663C23.3592 5.39438 23.073 5.79062 22.8217 6.137C21.0655 8.556 21.0655 8.67813 22.9255 10.5148Z" fill="#383434"/>
</svg>
