<svg width="588" height="509" viewBox="0 0 588 509" fill="none" xmlns="http://www.w3.org/2000/svg">
<path d="M0.000282288 483.594H51.0918V483.98H0.000282288V483.594Z" fill="#EBEBEB"/>
<path d="M183.079 487.79H196.484V488.176H183.079V487.79Z" fill="#EBEBEB"/>
<path d="M52.6335 469.279H82.2363V469.664H52.6335V469.279Z" fill="#EBEBEB"/>
<path d="M522.964 471.87H532.729V472.256H522.964V471.87Z" fill="#EBEBEB"/>
<path d="M346.702 478.38H491.215V478.766H346.702V478.38Z" fill="#EBEBEB"/>
<path d="M47.7901 185.098H158.38L171.076 39.8909H60.4859L47.7901 185.098Z" fill="#F5F5F5"/>
<path d="M87.699 58.6183H143.434C143.789 58.6161 144.13 58.4825 144.392 58.2431C144.655 58.0038 144.819 57.6758 144.853 57.3225C144.87 57.1564 144.852 56.9886 144.801 56.8299C144.749 56.6713 144.664 56.5253 144.552 56.4016C144.44 56.2779 144.303 56.1792 144.15 56.1119C143.997 56.0446 143.832 56.0103 143.665 56.0112H87.9303C87.574 56.0172 87.2323 56.1542 86.9705 56.396C86.7088 56.6379 86.5452 56.9677 86.5111 57.3225C86.491 57.4883 86.507 57.6565 86.558 57.8155C86.609 57.9746 86.6939 58.1206 86.8068 58.2438C86.9197 58.3669 87.0578 58.4641 87.2118 58.5288C87.3659 58.5934 87.532 58.6239 87.699 58.6183Z" fill="#E0E0E0"/>
<path d="M68.9705 129.656H137.139C137.495 129.65 137.837 129.513 138.099 129.271C138.36 129.029 138.524 128.699 138.558 128.345C138.575 128.179 138.558 128.011 138.506 127.852C138.454 127.693 138.369 127.548 138.257 127.424C138.145 127.3 138.008 127.201 137.855 127.134C137.702 127.067 137.537 127.033 137.37 127.033H69.1093C68.7588 127.058 68.4271 127.201 68.169 127.439C67.9109 127.678 67.742 127.997 67.6901 128.345C67.6713 128.519 67.6912 128.695 67.7485 128.86C67.8057 129.026 67.8989 129.177 68.0212 129.302C68.1436 129.427 68.2922 129.524 68.4563 129.585C68.6204 129.646 68.796 129.671 68.9705 129.656Z" fill="#E0E0E0"/>
<path d="M68.3073 137.292H146.24C146.597 137.286 146.938 137.149 147.2 136.907C147.462 136.665 147.626 136.335 147.66 135.981C147.677 135.815 147.659 135.647 147.607 135.488C147.555 135.329 147.471 135.183 147.359 135.06C147.246 134.936 147.11 134.837 146.957 134.77C146.804 134.703 146.639 134.668 146.472 134.669H68.5232C68.1727 134.694 67.841 134.837 67.5829 135.075C67.3249 135.314 67.1559 135.633 67.1041 135.981C67.0866 136.148 67.1048 136.317 67.1576 136.477C67.2104 136.637 67.2965 136.783 67.4102 136.907C67.524 137.031 67.6628 137.13 67.8175 137.196C67.9721 137.262 68.1391 137.295 68.3073 137.292Z" fill="#E0E0E0"/>
<path d="M67.6278 144.835H145.576C145.933 144.829 146.274 144.692 146.536 144.45C146.798 144.208 146.961 143.879 146.996 143.524C147.013 143.358 146.995 143.19 146.943 143.031C146.891 142.873 146.806 142.727 146.694 142.603C146.582 142.479 146.445 142.381 146.293 142.313C146.14 142.246 145.975 142.212 145.808 142.213H67.8592C67.5087 142.237 67.1769 142.38 66.9189 142.619C66.6608 142.857 66.4919 143.176 66.44 143.524C66.4226 143.69 66.4405 143.858 66.4923 144.016C66.5442 144.175 66.629 144.321 66.741 144.445C66.8531 144.568 66.99 144.667 67.1428 144.734C67.2956 144.802 67.4608 144.836 67.6278 144.835Z" fill="#E0E0E0"/>
<path d="M66.9646 152.425H144.851C145.214 152.431 145.568 152.31 145.85 152.081C146.133 151.853 146.325 151.532 146.394 151.175C146.411 151.009 146.393 150.841 146.342 150.683C146.29 150.524 146.205 150.378 146.093 150.254C145.981 150.131 145.844 150.032 145.691 149.965C145.538 149.897 145.373 149.863 145.206 149.864H67.2577C66.9013 149.87 66.5596 150.007 66.2978 150.249C66.036 150.491 65.8725 150.82 65.8384 151.175C65.8301 151.331 65.8527 151.487 65.9048 151.635C65.9569 151.782 66.0376 151.918 66.1422 152.034C66.2468 152.15 66.3733 152.244 66.5144 152.311C66.6555 152.378 66.8085 152.417 66.9646 152.425Z" fill="#E0E0E0"/>
<path d="M66.3018 160.015H134.563C134.913 159.99 135.245 159.847 135.503 159.609C135.761 159.37 135.93 159.051 135.982 158.703C135.999 158.537 135.981 158.369 135.929 158.211C135.878 158.052 135.793 157.906 135.681 157.782C135.569 157.659 135.432 157.56 135.279 157.493C135.126 157.426 134.961 157.391 134.794 157.392H66.5332C66.1768 157.398 65.8351 157.535 65.5733 157.777C65.3116 158.019 65.148 158.349 65.114 158.703C65.0966 158.869 65.1145 159.037 65.1664 159.196C65.2182 159.355 65.3029 159.5 65.415 159.624C65.5271 159.748 65.664 159.847 65.8168 159.914C65.9696 159.981 66.1348 160.015 66.3018 160.015Z" fill="#E0E0E0"/>
<path d="M65.6393 167.604H143.588C143.938 167.58 144.27 167.437 144.528 167.198C144.786 166.96 144.955 166.641 145.007 166.293C145.025 166.126 145.007 165.958 144.954 165.799C144.901 165.64 144.814 165.494 144.7 165.371C144.586 165.249 144.447 165.152 144.293 165.087C144.138 165.023 143.971 164.992 143.804 164.997H65.8707C65.5158 164.999 65.1742 165.133 64.9121 165.372C64.65 165.612 64.4859 165.94 64.4515 166.293C64.4342 166.459 64.452 166.627 64.5039 166.786C64.5558 166.944 64.6405 167.09 64.7526 167.214C64.8647 167.338 65.0016 167.436 65.1544 167.504C65.3072 167.571 65.4724 167.605 65.6393 167.604Z" fill="#E0E0E0"/>
<path d="M64.9753 175.194H142.924C143.274 175.17 143.606 175.027 143.864 174.788C144.122 174.55 144.291 174.23 144.343 173.883C144.361 173.716 144.343 173.548 144.29 173.389C144.237 173.23 144.15 173.084 144.036 172.961C143.922 172.838 143.783 172.741 143.629 172.677C143.474 172.612 143.307 172.582 143.14 172.587H65.2067C64.8517 172.589 64.5102 172.723 64.248 172.962C63.9859 173.201 63.8218 173.53 63.7875 173.883C63.7701 174.049 63.788 174.217 63.8398 174.375C63.8917 174.534 63.9765 174.68 64.0885 174.804C64.2006 174.927 64.3375 175.026 64.4903 175.093C64.6431 175.161 64.8083 175.195 64.9753 175.194Z" fill="#E0E0E0"/>
<path d="M93.4662 67.2878H136.135C136.491 67.2819 136.833 67.1449 137.095 66.9031C137.357 66.6612 137.52 66.3314 137.554 65.9766C137.574 65.8101 137.558 65.6413 137.507 65.4815C137.456 65.3217 137.372 65.1747 137.259 65.0504C137.146 64.9262 137.008 64.8275 136.855 64.761C136.701 64.6946 136.534 64.662 136.366 64.6654H93.6976C93.3412 64.6714 92.9996 64.8083 92.7378 65.0502C92.476 65.2921 92.3125 65.6219 92.2784 65.9766C92.2585 66.1431 92.2746 66.312 92.3255 66.4718C92.3764 66.6315 92.461 66.7785 92.5736 66.9028C92.6862 67.0271 92.8241 67.1258 92.9781 67.1922C93.1321 67.2586 93.2985 67.2912 93.4662 67.2878Z" fill="#E0E0E0"/>
<path d="M99.6847 75.9573H128.408C128.765 75.9514 129.106 75.8144 129.368 75.5725C129.63 75.3306 129.793 75.0008 129.828 74.6461C129.848 74.4803 129.832 74.3121 129.781 74.153C129.73 73.994 129.645 73.8479 129.532 73.7248C129.419 73.6017 129.281 73.5044 129.127 73.4398C128.973 73.3751 128.807 73.3446 128.64 73.3503H99.9007C99.5467 73.3558 99.207 73.4906 98.9456 73.7293C98.6842 73.968 98.5191 74.2941 98.4815 74.6461C98.464 74.8134 98.4822 74.9826 98.535 75.1423C98.5878 75.3021 98.6739 75.4488 98.7877 75.5728C98.9014 75.6968 99.0402 75.7951 99.1949 75.8614C99.3495 75.9277 99.5165 75.9604 99.6847 75.9573Z" fill="#E0E0E0"/>
<path opacity="0.5" d="M68.7703 116.96H149.326L152.025 86.046H71.4699L68.7703 116.96Z" fill="#E0E0E0"/>
<path d="M588 291.939H496.615L486.125 171.954H577.51L588 291.939Z" fill="#F5F5F5"/>
<path d="M555.018 187.427H508.91C508.617 187.418 508.338 187.303 508.122 187.105C507.907 186.907 507.77 186.638 507.737 186.347C507.722 186.209 507.736 186.07 507.779 185.938C507.822 185.806 507.892 185.685 507.986 185.583C508.079 185.481 508.193 185.4 508.321 185.345C508.448 185.291 508.586 185.264 508.724 185.267H554.833C555.128 185.27 555.411 185.382 555.627 185.581C555.844 185.781 555.979 186.054 556.006 186.347C556.021 186.485 556.007 186.624 555.964 186.756C555.921 186.888 555.851 187.009 555.757 187.111C555.664 187.213 555.549 187.294 555.422 187.349C555.295 187.403 555.157 187.43 555.018 187.427Z" fill="#E0E0E0"/>
<path d="M570.506 246.124H514.108C513.814 246.121 513.531 246.009 513.314 245.809C513.097 245.61 512.963 245.337 512.936 245.044C512.92 244.906 512.935 244.767 512.978 244.635C513.02 244.503 513.091 244.382 513.184 244.28C513.278 244.177 513.392 244.096 513.52 244.042C513.647 243.987 513.785 243.961 513.923 243.964H570.306C570.601 243.969 570.884 244.082 571.103 244.281C571.321 244.479 571.46 244.75 571.494 245.044C571.507 245.181 571.491 245.319 571.447 245.45C571.403 245.581 571.332 245.701 571.239 245.802C571.146 245.904 571.033 245.985 570.907 246.041C570.781 246.096 570.644 246.124 570.506 246.124Z" fill="#E0E0E0"/>
<path d="M571.048 252.386H506.659C506.364 252.384 506.081 252.272 505.865 252.072C505.648 251.873 505.513 251.6 505.486 251.307C505.471 251.169 505.485 251.03 505.528 250.898C505.571 250.766 505.641 250.645 505.735 250.543C505.828 250.44 505.943 250.359 506.07 250.305C506.198 250.25 506.335 250.224 506.474 250.227H570.863C571.156 250.233 571.437 250.346 571.653 250.545C571.869 250.744 572.005 251.015 572.035 251.307C572.05 251.444 572.036 251.584 571.993 251.716C571.95 251.847 571.88 251.968 571.786 252.071C571.693 252.173 571.579 252.254 571.451 252.308C571.324 252.363 571.186 252.39 571.048 252.386Z" fill="#E0E0E0"/>
<path d="M571.6 258.665H507.196C506.903 258.659 506.621 258.546 506.405 258.347C506.19 258.148 506.054 257.877 506.024 257.585C506.008 257.447 506.022 257.308 506.065 257.176C506.108 257.045 506.179 256.923 506.272 256.821C506.366 256.719 506.48 256.638 506.607 256.583C506.735 256.529 506.872 256.502 507.011 256.505H571.415C571.709 256.511 571.99 256.624 572.206 256.823C572.422 257.022 572.558 257.293 572.588 257.585C572.603 257.723 572.589 257.862 572.546 257.994C572.503 258.126 572.433 258.247 572.339 258.349C572.246 258.451 572.131 258.533 572.004 258.587C571.877 258.641 571.739 258.668 571.6 258.665Z" fill="#E0E0E0"/>
<path d="M572.157 264.928H507.768C507.474 264.925 507.19 264.813 506.974 264.614C506.757 264.414 506.622 264.141 506.596 263.848C506.58 263.71 506.594 263.571 506.637 263.439C506.68 263.308 506.751 263.186 506.844 263.084C506.938 262.982 507.052 262.901 507.179 262.846C507.307 262.792 507.444 262.765 507.583 262.768H571.956C572.25 262.774 572.531 262.887 572.747 263.086C572.963 263.285 573.099 263.556 573.129 263.848C573.144 263.985 573.13 264.123 573.088 264.253C573.046 264.384 572.977 264.504 572.885 264.606C572.793 264.708 572.681 264.79 572.556 264.845C572.43 264.901 572.294 264.929 572.157 264.928Z" fill="#E0E0E0"/>
<path d="M572.696 271.207H516.298C516.005 271.201 515.723 271.087 515.507 270.889C515.291 270.69 515.156 270.419 515.126 270.127C515.11 269.989 515.124 269.85 515.167 269.718C515.21 269.586 515.281 269.465 515.374 269.363C515.468 269.26 515.582 269.179 515.709 269.125C515.837 269.07 515.974 269.044 516.113 269.047H572.511C572.805 269.053 573.086 269.166 573.302 269.365C573.518 269.564 573.653 269.835 573.683 270.127C573.699 270.264 573.685 270.404 573.642 270.536C573.599 270.667 573.528 270.788 573.435 270.891C573.341 270.993 573.227 271.074 573.1 271.129C572.972 271.183 572.835 271.21 572.696 271.207Z" fill="#E0E0E0"/>
<path d="M573.251 277.485H508.908C508.615 277.479 508.333 277.366 508.117 277.167C507.901 276.968 507.766 276.697 507.736 276.405C507.72 276.268 507.734 276.128 507.777 275.996C507.82 275.865 507.891 275.744 507.984 275.641C508.078 275.539 508.192 275.458 508.319 275.403C508.447 275.349 508.584 275.322 508.723 275.325H573.05C573.345 275.328 573.628 275.44 573.844 275.639C574.061 275.839 574.196 276.112 574.222 276.405C574.238 276.542 574.224 276.68 574.182 276.81C574.14 276.941 574.071 277.061 573.979 277.163C573.887 277.265 573.775 277.347 573.649 277.402C573.524 277.458 573.388 277.486 573.251 277.485Z" fill="#E0E0E0"/>
<path d="M573.794 283.748H509.405C509.11 283.745 508.827 283.633 508.611 283.434C508.394 283.234 508.259 282.961 508.233 282.668C508.215 282.531 508.227 282.392 508.268 282.26C508.309 282.129 508.378 282.007 508.47 281.905C508.562 281.802 508.676 281.721 508.803 281.666C508.929 281.611 509.066 281.585 509.204 281.588H573.609C573.903 281.591 574.186 281.703 574.403 281.902C574.62 282.102 574.754 282.375 574.781 282.668C574.796 282.806 574.782 282.945 574.739 283.077C574.697 283.209 574.626 283.33 574.533 283.432C574.439 283.534 574.325 283.615 574.197 283.67C574.07 283.724 573.932 283.751 573.794 283.748Z" fill="#E0E0E0"/>
<path d="M550.251 194.585H515.002C514.707 194.582 514.424 194.47 514.208 194.271C513.991 194.071 513.856 193.798 513.83 193.505C513.814 193.368 513.828 193.23 513.87 193.1C513.912 192.969 513.981 192.849 514.073 192.747C514.165 192.645 514.277 192.563 514.403 192.508C514.528 192.452 514.664 192.424 514.801 192.425H550.066C550.359 192.431 550.64 192.544 550.856 192.743C551.072 192.942 551.208 193.213 551.238 193.505C551.254 193.642 551.239 193.782 551.196 193.914C551.154 194.045 551.083 194.166 550.99 194.269C550.896 194.371 550.782 194.452 550.654 194.507C550.527 194.561 550.389 194.588 550.251 194.585Z" fill="#E0E0E0"/>
<path d="M545.13 201.758H521.373C521.081 201.749 520.801 201.634 520.586 201.436C520.371 201.238 520.234 200.969 520.201 200.678C520.188 200.541 520.204 200.402 520.248 200.272C520.291 200.141 520.362 200.021 520.455 199.919C520.548 199.818 520.661 199.736 520.788 199.681C520.914 199.626 521.05 199.598 521.188 199.598H544.929C545.224 199.601 545.507 199.713 545.723 199.912C545.94 200.112 546.075 200.385 546.101 200.678C546.117 200.814 546.103 200.952 546.061 201.083C546.019 201.214 545.95 201.334 545.858 201.436C545.766 201.538 545.654 201.62 545.528 201.675C545.403 201.73 545.267 201.759 545.13 201.758Z" fill="#E0E0E0"/>
<path opacity="0.5" d="M570.66 235.634H504.112L501.875 210.088H568.423L570.66 235.634Z" fill="#E0E0E0"/>
<path d="M383.957 154.847H266.132L252.588 0.122192H370.428L383.957 154.847Z" fill="#FAFAFA"/>
<path d="M341.442 20.0528H282.051C281.668 20.0547 281.297 19.9136 281.012 19.6568C280.726 19.4001 280.547 19.0463 280.509 18.6645C280.489 18.4878 280.507 18.3089 280.562 18.1398C280.617 17.9707 280.707 17.8153 280.827 17.6839C280.947 17.5525 281.093 17.4481 281.256 17.3778C281.42 17.3075 281.596 17.2728 281.774 17.2761H341.164C341.548 17.2742 341.919 17.4154 342.204 17.6721C342.489 17.9288 342.669 18.2826 342.707 18.6645C342.727 18.8411 342.709 19.02 342.654 19.1891C342.599 19.3582 342.509 19.5136 342.389 19.645C342.269 19.7765 342.123 19.8808 341.96 19.9511C341.796 20.0214 341.62 20.0561 341.442 20.0528Z" fill="#E6E6E6"/>
<path d="M361.403 95.7646H288.684C288.301 95.7665 287.93 95.6253 287.645 95.3686C287.359 95.1119 287.18 94.758 287.142 94.3762C287.124 94.1987 287.145 94.0195 287.201 93.8504C287.258 93.6814 287.35 93.5262 287.471 93.3951C287.592 93.264 287.739 93.1599 287.903 93.0897C288.067 93.0195 288.244 92.9848 288.422 92.9879H361.157C361.54 92.9859 361.911 93.1271 362.196 93.3838C362.481 93.6406 362.661 93.9944 362.699 94.3762C362.719 94.5555 362.701 94.7371 362.644 94.9085C362.587 95.0798 362.494 95.2369 362.371 95.3688C362.248 95.5007 362.098 95.6044 361.931 95.6727C361.764 95.7411 361.584 95.7724 361.403 95.7646Z" fill="#E6E6E6"/>
<path d="M362.099 103.863H279.06C278.673 103.865 278.301 103.721 278.015 103.462C277.73 103.202 277.552 102.844 277.517 102.459C277.5 102.282 277.52 102.103 277.577 101.934C277.633 101.765 277.725 101.609 277.846 101.478C277.967 101.347 278.114 101.243 278.278 101.173C278.442 101.103 278.619 101.068 278.797 101.071H361.867C362.251 101.069 362.622 101.21 362.907 101.467C363.192 101.724 363.372 102.078 363.41 102.459C363.428 102.64 363.406 102.823 363.348 102.995C363.29 103.167 363.195 103.325 363.071 103.457C362.947 103.59 362.796 103.695 362.629 103.765C362.461 103.835 362.28 103.868 362.099 103.863Z" fill="#E6E6E6"/>
<path d="M362.81 111.947H279.77C279.387 111.949 279.016 111.807 278.731 111.551C278.445 111.294 278.266 110.94 278.228 110.558C278.208 110.381 278.226 110.201 278.281 110.031C278.336 109.862 278.426 109.705 278.545 109.573C278.665 109.44 278.811 109.334 278.974 109.262C279.138 109.19 279.314 109.153 279.493 109.154H362.578C362.964 109.153 363.337 109.296 363.623 109.556C363.908 109.816 364.086 110.174 364.121 110.558C364.139 110.738 364.118 110.92 364.059 111.092C364.001 111.263 363.906 111.42 363.782 111.551C363.657 111.683 363.506 111.786 363.339 111.854C363.171 111.923 362.99 111.954 362.81 111.947Z" fill="#E6E6E6"/>
<path d="M363.518 120.03H280.479C280.096 120.032 279.725 119.891 279.44 119.634C279.154 119.377 278.975 119.023 278.937 118.642C278.917 118.465 278.935 118.286 278.99 118.117C279.045 117.948 279.135 117.792 279.255 117.661C279.375 117.53 279.521 117.425 279.684 117.355C279.847 117.285 280.024 117.25 280.202 117.253H363.272C363.655 117.251 364.026 117.392 364.311 117.649C364.597 117.906 364.776 118.26 364.814 118.642C364.832 118.82 364.811 119.001 364.754 119.171C364.696 119.341 364.603 119.497 364.48 119.629C364.358 119.76 364.208 119.864 364.043 119.933C363.877 120.002 363.698 120.035 363.518 120.03Z" fill="#E6E6E6"/>
<path d="M364.229 128.113H291.51C291.126 128.115 290.755 127.974 290.47 127.717C290.185 127.461 290.005 127.107 289.967 126.725C289.947 126.548 289.965 126.369 290.02 126.2C290.075 126.031 290.165 125.876 290.285 125.744C290.405 125.613 290.551 125.509 290.715 125.438C290.878 125.368 291.054 125.333 291.232 125.337H363.905C364.288 125.335 364.659 125.476 364.944 125.733C365.23 125.989 365.409 126.343 365.447 126.725C365.469 126.898 365.454 127.074 365.403 127.241C365.352 127.408 365.266 127.562 365.15 127.693C365.035 127.824 364.894 127.93 364.735 128.002C364.576 128.075 364.403 128.112 364.229 128.113Z" fill="#E6E6E6"/>
<path d="M364.937 136.212H281.898C281.511 136.214 281.139 136.07 280.853 135.81C280.567 135.55 280.39 135.193 280.355 134.808C280.332 134.631 280.349 134.451 280.403 134.281C280.457 134.111 280.547 133.954 280.667 133.822C280.787 133.69 280.935 133.586 281.099 133.516C281.264 133.447 281.441 133.414 281.62 133.42H364.69C365.074 133.418 365.444 133.559 365.73 133.816C366.015 134.073 366.194 134.426 366.232 134.808C366.255 134.989 366.238 135.172 366.183 135.345C366.127 135.519 366.034 135.678 365.911 135.811C365.787 135.945 365.636 136.05 365.468 136.119C365.3 136.188 365.118 136.22 364.937 136.212Z" fill="#E6E6E6"/>
<path d="M365.648 144.295H282.609C282.225 144.297 281.854 144.156 281.569 143.899C281.284 143.643 281.104 143.289 281.066 142.907C281.044 142.729 281.06 142.549 281.114 142.378C281.168 142.207 281.258 142.049 281.378 141.916C281.498 141.783 281.645 141.677 281.809 141.606C281.974 141.535 282.152 141.5 282.331 141.503H365.447C365.833 141.502 366.206 141.645 366.492 141.905C366.777 142.165 366.955 142.522 366.99 142.907C367.011 143.09 366.991 143.276 366.932 143.451C366.873 143.626 366.775 143.786 366.647 143.918C366.519 144.051 366.362 144.154 366.19 144.219C366.017 144.284 365.832 144.31 365.648 144.295Z" fill="#E6E6E6"/>
<path d="M335.288 29.3085H289.858C289.474 29.3104 289.103 29.1693 288.818 28.9125C288.533 28.6558 288.354 28.302 288.315 27.9202C288.293 27.743 288.309 27.5631 288.363 27.3928C288.417 27.2226 288.507 27.0661 288.627 26.9341C288.748 26.8021 288.895 26.6978 289.06 26.6283C289.224 26.5589 289.402 26.5259 289.58 26.5318H335.041C335.425 26.5299 335.796 26.6711 336.081 26.9278C336.366 27.1845 336.545 27.5383 336.584 27.9202C336.607 28.1 336.59 28.2827 336.534 28.4553C336.479 28.6278 336.386 28.786 336.262 28.9186C336.138 29.0511 335.987 29.1548 335.818 29.2222C335.65 29.2896 335.469 29.319 335.288 29.3085Z" fill="#E6E6E6"/>
<path d="M328.671 38.5643H298.05C297.666 38.5662 297.295 38.425 297.01 38.1683C296.725 37.9116 296.546 37.5577 296.507 37.1759C296.49 36.9984 296.51 36.8192 296.567 36.6501C296.623 36.481 296.715 36.3259 296.836 36.1948C296.957 36.0636 297.104 35.9596 297.268 35.8894C297.432 35.8192 297.609 35.7845 297.788 35.7875H328.424C328.808 35.7856 329.178 35.9268 329.464 36.1835C329.749 36.4402 329.928 36.7941 329.967 37.1759C329.984 37.3547 329.963 37.5352 329.906 37.7054C329.848 37.8756 329.755 38.0316 329.632 38.1629C329.51 38.2943 329.361 38.398 329.195 38.4672C329.029 38.5364 328.85 38.5695 328.671 38.5643Z" fill="#E6E6E6"/>
<path opacity="0.5" d="M361.605 82.2358H275.774L272.905 49.3009H358.721L361.605 82.2358Z" fill="#F0F0F0"/>
<path d="M477.487 351.253H542.662V361.28H477.487V351.253Z" fill="#F0F0F0"/>
<path d="M540.502 357.038H479.6C478.262 357.038 476.979 357.569 476.033 358.515C475.087 359.461 474.555 360.744 474.555 362.082V460.393H545.516V362.082C545.518 361.419 545.389 360.762 545.136 360.149C544.883 359.536 544.511 358.98 544.043 358.511C543.574 358.042 543.017 357.67 542.404 357.418C541.791 357.165 541.134 357.036 540.471 357.038H540.502Z" fill="#E6E6E6"/>
<path d="M480.155 338.912H539.978C543.054 338.912 545.547 341.405 545.547 344.481V348.769C545.547 351.845 543.054 354.338 539.978 354.338H480.155C477.08 354.338 474.586 351.845 474.586 348.769V344.481C474.586 341.405 477.08 338.912 480.155 338.912Z" fill="#E6E6E6"/>
<path d="M465.408 460.393H498.574V455.765L465.408 452.68V460.393Z" fill="#F5F5F5"/>
<path d="M205.385 317.022L226.982 269.062H277.611L269.898 313.937C269.732 314.987 269.985 316.06 270.602 316.926C271.22 317.791 272.152 318.38 273.199 318.565H273.847H296.03C296.598 318.565 297.144 318.791 297.546 319.193C297.948 319.595 298.174 320.14 298.174 320.709V323.085C298.174 323.653 297.948 324.199 297.546 324.601C297.144 325.003 296.598 325.229 296.03 325.229H206.974C206.356 325.229 205.764 324.984 205.327 324.547C204.89 324.11 204.645 323.517 204.645 322.9V320.431C204.652 319.256 204.905 318.095 205.385 317.022ZM228.802 311.099H253.099C253.864 311.098 254.604 310.827 255.189 310.333C255.773 309.839 256.164 309.154 256.292 308.399L259.963 287.219C260.036 286.798 260.025 286.368 259.931 285.951C259.837 285.535 259.662 285.141 259.416 284.793C259.169 284.445 258.856 284.149 258.495 283.922C258.133 283.695 257.731 283.541 257.31 283.47H256.755H238.382C237.758 283.468 237.146 283.645 236.621 283.982C236.096 284.319 235.679 284.8 235.42 285.368L225.84 306.548C225.618 307.045 225.522 307.59 225.563 308.134C225.603 308.677 225.778 309.202 226.072 309.661C226.366 310.12 226.769 310.499 227.246 310.764C227.722 311.028 228.257 311.17 228.802 311.176V311.099Z" fill="#263238"/>
<path opacity="0.5" d="M205.385 317.022L226.982 269.062H277.611L269.898 313.937C269.732 314.987 269.985 316.06 270.602 316.926C271.22 317.791 272.152 318.38 273.199 318.565H273.847H296.03C296.598 318.565 297.144 318.791 297.546 319.193C297.948 319.595 298.174 320.14 298.174 320.709V323.085C298.174 323.653 297.948 324.199 297.546 324.601C297.144 325.003 296.598 325.229 296.03 325.229H206.974C206.356 325.229 205.764 324.984 205.327 324.547C204.89 324.11 204.645 323.517 204.645 322.9V320.431C204.652 319.256 204.905 318.095 205.385 317.022ZM228.802 311.099H253.099C253.864 311.098 254.604 310.827 255.189 310.333C255.773 309.839 256.164 309.154 256.292 308.399L259.963 287.219C260.036 286.798 260.025 286.368 259.931 285.951C259.837 285.535 259.662 285.141 259.416 284.793C259.169 284.445 258.856 284.149 258.495 283.922C258.133 283.695 257.731 283.541 257.31 283.47H256.755H238.382C237.758 283.468 237.146 283.645 236.621 283.982C236.096 284.319 235.679 284.8 235.42 285.368L225.84 306.548C225.618 307.045 225.522 307.59 225.563 308.134C225.603 308.677 225.778 309.202 226.072 309.661C226.366 310.12 226.769 310.499 227.246 310.764C227.722 311.028 228.257 311.17 228.802 311.176V311.099Z" fill="white"/>
<path opacity="0.2" d="M228.801 311.099H253.097C253.863 311.098 254.603 310.827 255.188 310.333C255.772 309.839 256.163 309.154 256.291 308.399L259.962 287.219C260.035 286.798 260.024 286.368 259.93 285.951C259.836 285.535 259.661 285.141 259.414 284.793C259.168 284.445 258.855 284.149 258.494 283.922C258.132 283.695 257.73 283.541 257.309 283.47H256.753H238.381C237.757 283.468 237.145 283.645 236.62 283.982C236.095 284.319 235.677 284.8 235.419 285.368L225.839 306.548C225.617 307.045 225.521 307.59 225.562 308.134C225.602 308.677 225.777 309.202 226.071 309.661C226.365 310.12 226.768 310.499 227.245 310.763C227.721 311.028 228.256 311.169 228.801 311.176V311.099Z" fill="white"/>
<path d="M253.899 283.378H256.753C257.18 283.376 257.603 283.458 257.998 283.62C258.392 283.782 258.751 284.02 259.054 284.321C259.356 284.622 259.596 284.98 259.76 285.374C259.924 285.768 260.008 286.19 260.008 286.617C260.023 286.802 260.023 286.988 260.008 287.173L256.337 308.353C256.212 309.107 255.821 309.792 255.236 310.285C254.65 310.777 253.908 311.043 253.143 311.037H250.274C251.039 311.043 251.781 310.777 252.367 310.285C252.952 309.792 253.342 309.107 253.467 308.353L257.139 287.173C257.214 286.752 257.205 286.32 257.112 285.903C257.018 285.486 256.843 285.092 256.597 284.743C256.35 284.394 256.036 284.098 255.673 283.872C255.311 283.645 254.907 283.493 254.486 283.424C254.292 283.391 254.096 283.375 253.899 283.378Z" fill="#263238"/>
<path d="M202.516 317.022L224.113 269.093H226.967L205.37 317.022C204.862 318.141 204.599 319.356 204.599 320.586V323.069C204.603 323.686 204.85 324.276 205.286 324.712C205.722 325.148 206.312 325.395 206.928 325.399H204.059C203.442 325.395 202.852 325.148 202.416 324.712C201.98 324.276 201.734 323.686 201.73 323.069V320.586C201.734 319.355 202.002 318.14 202.516 317.022Z" fill="#263238"/>
<path opacity="0.2" d="M227.044 269.062H277.627L275.637 280.508H221.861L227.044 269.062Z" fill="#263238"/>
<path d="M154.478 274.091H370.275C372.158 274.12 373.975 273.403 375.33 272.097C376.686 270.79 377.47 269.001 377.51 267.119C377.533 266.805 377.533 266.491 377.51 266.178L363.873 110.234C363.662 108.095 362.671 106.108 361.089 104.651C359.508 103.195 357.446 102.371 355.296 102.336H139.453C138.52 102.316 137.591 102.48 136.721 102.82C135.851 103.16 135.057 103.669 134.385 104.317C133.712 104.965 133.175 105.74 132.803 106.596C132.431 107.453 132.232 108.375 132.218 109.309C132.195 109.617 132.195 109.926 132.218 110.234L145.871 266.193C146.086 268.336 147.082 270.326 148.67 271.782C150.257 273.238 152.324 274.06 154.478 274.091Z" fill="#263238"/>
<path d="M375.998 249.332L377.541 266.193C377.648 267.12 377.571 268.06 377.314 268.957C377.057 269.854 376.625 270.692 376.043 271.422C375.461 272.151 374.74 272.759 373.922 273.209C373.105 273.659 372.206 273.943 371.278 274.045C370.97 274.076 370.66 274.076 370.352 274.045H154.54C152.39 274.01 150.329 273.186 148.747 271.73C147.166 270.273 146.175 268.286 145.963 266.147L144.421 249.286L375.998 249.332Z" fill="url(#paint0_linear_524_1955)"/>
<path opacity="0.7" d="M375.998 249.332L377.541 266.193C377.648 267.12 377.571 268.06 377.314 268.957C377.057 269.854 376.625 270.692 376.043 271.422C375.461 272.151 374.74 272.759 373.922 273.209C373.105 273.659 372.206 273.943 371.278 274.045C370.97 274.076 370.66 274.076 370.352 274.045H154.54C152.39 274.01 150.329 273.186 148.747 271.73C147.166 270.273 146.175 268.286 145.963 266.147L144.421 249.286L375.998 249.332Z" fill="white"/>
<path d="M152.041 244.565H367.56C368.066 244.576 368.569 244.486 369.04 244.301C369.511 244.117 369.94 243.841 370.305 243.49C370.669 243.139 370.96 242.719 371.161 242.255C371.363 241.791 371.471 241.292 371.479 240.786C371.494 240.622 371.494 240.457 371.479 240.292L360.202 111.407C360.085 110.252 359.55 109.18 358.698 108.393C357.845 107.606 356.734 107.158 355.574 107.134H140.009C139.503 107.123 139 107.213 138.529 107.398C138.058 107.582 137.628 107.858 137.264 108.209C136.9 108.56 136.609 108.98 136.408 109.444C136.206 109.908 136.098 110.407 136.09 110.913C136.09 111.067 136.09 111.237 136.09 111.407L147.367 240.292C147.488 241.453 148.03 242.53 148.892 243.317C149.753 244.105 150.874 244.549 152.041 244.565Z" fill="url(#paint1_linear_524_1955)"/>
<path opacity="0.8" d="M152.041 244.565H367.56C368.066 244.576 368.569 244.486 369.04 244.301C369.511 244.117 369.94 243.841 370.305 243.49C370.669 243.139 370.96 242.719 371.161 242.255C371.363 241.791 371.471 241.292 371.479 240.786C371.494 240.622 371.494 240.457 371.479 240.292L360.202 111.407C360.085 110.252 359.55 109.18 358.698 108.393C357.845 107.606 356.734 107.158 355.574 107.134H140.009C139.503 107.123 139 107.213 138.529 107.398C138.058 107.582 137.628 107.858 137.264 108.209C136.9 108.56 136.609 108.98 136.408 109.444C136.206 109.908 136.098 110.407 136.09 110.913C136.09 111.067 136.09 111.237 136.09 111.407L147.367 240.292C147.488 241.453 148.03 242.53 148.892 243.317C149.753 244.105 150.874 244.549 152.041 244.565Z" fill="url(#paint2_linear_524_1955)"/>
<path d="M134.671 102.367H139.453C138.519 102.346 137.591 102.511 136.721 102.851C135.851 103.191 135.057 103.699 134.384 104.348C133.712 104.996 133.174 105.77 132.803 106.627C132.431 107.484 132.232 108.406 132.218 109.34C132.195 109.648 132.195 109.957 132.218 110.265L145.87 266.193C146.082 268.332 147.073 270.319 148.654 271.776C150.236 273.232 152.298 274.056 154.447 274.091H149.665C147.517 274.056 145.457 273.231 143.878 271.775C142.299 270.318 141.312 268.331 141.104 266.193L127.451 110.25C127.349 109.323 127.429 108.385 127.689 107.489C127.949 106.593 128.383 105.758 128.966 105.03C129.549 104.302 130.27 103.696 131.088 103.247C131.905 102.798 132.803 102.515 133.73 102.413L134.671 102.367Z" fill="url(#paint3_linear_524_1955)"/>
<path opacity="0.2" d="M134.671 102.367H139.453C138.519 102.346 137.591 102.511 136.721 102.851C135.851 103.191 135.057 103.699 134.384 104.348C133.712 104.996 133.174 105.77 132.803 106.627C132.431 107.484 132.232 108.406 132.218 109.34C132.195 109.648 132.195 109.957 132.218 110.265L145.87 266.193C146.082 268.332 147.073 270.319 148.654 271.776C150.236 273.232 152.298 274.056 154.447 274.091H149.665C147.517 274.056 145.457 273.231 143.878 271.775C142.299 270.318 141.312 268.331 141.104 266.193L127.451 110.25C127.349 109.323 127.429 108.385 127.689 107.489C127.949 106.593 128.383 105.758 128.966 105.03C129.549 104.302 130.27 103.696 131.088 103.247C131.905 102.798 132.803 102.515 133.73 102.413L134.671 102.367Z" fill="white"/>
<path d="M314.201 243.609H215.319L203.966 113.798H302.832L314.201 243.609Z" fill="url(#paint4_linear_524_1955)"/>
<path opacity="0.7" d="M314.201 243.609H215.319L203.966 113.798H302.832L314.201 243.609Z" fill="white"/>
<path d="M278.506 130.535H228.695C228.376 130.529 228.069 130.407 227.833 130.191C227.597 129.975 227.449 129.681 227.415 129.363C227.402 129.215 227.42 129.067 227.468 128.927C227.515 128.787 227.592 128.658 227.692 128.55C227.792 128.441 227.914 128.354 228.049 128.295C228.185 128.236 228.331 128.205 228.479 128.206H278.306C278.623 128.211 278.928 128.331 279.163 128.544C279.399 128.757 279.549 129.048 279.586 129.363C279.602 129.513 279.585 129.664 279.537 129.807C279.49 129.95 279.412 130.081 279.31 130.192C279.208 130.303 279.084 130.391 278.945 130.45C278.807 130.509 278.657 130.538 278.506 130.535Z" fill="#263238"/>
<path d="M295.256 194.045H234.246C233.926 194.039 233.62 193.917 233.384 193.701C233.148 193.485 232.999 193.19 232.965 192.872C232.952 192.724 232.971 192.574 233.02 192.433C233.068 192.292 233.146 192.162 233.248 192.053C233.35 191.944 233.473 191.858 233.611 191.8C233.748 191.741 233.896 191.713 234.045 191.715H295.056C295.372 191.718 295.677 191.837 295.911 192.051C296.144 192.265 296.29 192.557 296.321 192.872C296.339 193.021 296.324 193.173 296.278 193.316C296.233 193.458 296.157 193.59 296.056 193.701C295.955 193.812 295.831 193.9 295.693 193.96C295.556 194.019 295.406 194.048 295.256 194.045Z" fill="#263238"/>
<path d="M295.86 200.832H226.18C225.861 200.83 225.554 200.708 225.32 200.491C225.086 200.274 224.942 199.978 224.915 199.66C224.899 199.512 224.916 199.363 224.963 199.221C225.009 199.08 225.086 198.951 225.186 198.841C225.287 198.732 225.41 198.645 225.546 198.587C225.683 198.529 225.831 198.5 225.979 198.503H295.644C295.961 198.508 296.266 198.628 296.501 198.841C296.737 199.054 296.887 199.345 296.924 199.66C296.939 199.808 296.923 199.959 296.876 200.1C296.83 200.242 296.754 200.373 296.653 200.483C296.553 200.594 296.43 200.682 296.294 200.742C296.157 200.802 296.009 200.833 295.86 200.832Z" fill="#263238"/>
<path d="M296.446 207.62H226.766C226.449 207.61 226.146 207.486 225.913 207.271C225.681 207.055 225.534 206.763 225.501 206.447C225.483 206.298 225.498 206.147 225.543 206.004C225.589 205.861 225.665 205.73 225.766 205.619C225.867 205.508 225.99 205.419 226.128 205.36C226.266 205.301 226.415 205.272 226.565 205.275H296.245C296.563 205.281 296.868 205.404 297.101 205.62C297.334 205.836 297.48 206.131 297.51 206.447C297.528 206.596 297.513 206.748 297.468 206.891C297.422 207.034 297.346 207.165 297.245 207.276C297.144 207.387 297.021 207.475 296.883 207.535C296.745 207.594 296.596 207.623 296.446 207.62Z" fill="#263238"/>
<path d="M297.047 214.423H227.367C227.048 214.42 226.742 214.298 226.508 214.082C226.274 213.865 226.129 213.568 226.102 213.25C226.085 213.101 226.099 212.95 226.145 212.807C226.191 212.664 226.266 212.533 226.367 212.422C226.468 212.311 226.592 212.222 226.73 212.163C226.868 212.104 227.017 212.075 227.167 212.078H296.831C297.151 212.084 297.458 212.206 297.693 212.422C297.929 212.638 298.078 212.932 298.112 213.25C298.127 213.399 298.111 213.549 298.064 213.691C298.017 213.833 297.941 213.963 297.841 214.074C297.74 214.184 297.618 214.273 297.481 214.333C297.344 214.393 297.197 214.424 297.047 214.423Z" fill="#263238"/>
<path d="M297.573 221.195H236.563C236.243 221.189 235.936 221.067 235.701 220.851C235.465 220.635 235.316 220.34 235.282 220.023C235.267 219.874 235.283 219.724 235.33 219.582C235.377 219.44 235.453 219.31 235.553 219.199C235.654 219.088 235.776 219 235.913 218.94C236.049 218.88 236.197 218.849 236.347 218.85H297.434C297.752 218.856 298.057 218.979 298.29 219.195C298.523 219.411 298.669 219.706 298.699 220.023C298.718 220.177 298.702 220.334 298.653 220.481C298.604 220.629 298.522 220.764 298.415 220.876C298.307 220.988 298.175 221.075 298.03 221.13C297.884 221.185 297.728 221.207 297.573 221.195Z" fill="#263238"/>
<path d="M298.235 227.967H228.555C228.236 227.965 227.93 227.846 227.694 227.633C227.458 227.419 227.308 227.126 227.274 226.81C227.259 226.66 227.276 226.509 227.323 226.366C227.371 226.223 227.448 226.091 227.55 225.981C227.652 225.87 227.777 225.782 227.915 225.723C228.054 225.664 228.203 225.635 228.354 225.638H298.019C298.338 225.643 298.645 225.766 298.881 225.981C299.117 226.197 299.265 226.492 299.299 226.81C299.314 226.958 299.298 227.107 299.251 227.248C299.205 227.389 299.128 227.519 299.028 227.628C298.927 227.738 298.804 227.824 298.668 227.883C298.531 227.941 298.383 227.97 298.235 227.967Z" fill="#263238"/>
<path d="M298.821 234.755H229.141C228.825 234.749 228.522 234.628 228.289 234.415C228.057 234.202 227.909 233.911 227.876 233.598C227.858 233.448 227.872 233.297 227.918 233.154C227.964 233.011 228.04 232.88 228.141 232.769C228.242 232.658 228.365 232.569 228.503 232.51C228.641 232.451 228.79 232.422 228.94 232.425H298.62C298.938 232.431 299.243 232.554 299.476 232.77C299.709 232.987 299.855 233.281 299.885 233.598C299.9 233.745 299.884 233.895 299.837 234.036C299.791 234.177 299.714 234.307 299.614 234.416C299.513 234.525 299.39 234.612 299.254 234.671C299.117 234.729 298.969 234.757 298.821 234.755Z" fill="#263238"/>
<path d="M273.354 138.294H235.205C234.886 138.292 234.58 138.17 234.346 137.953C234.112 137.736 233.967 137.44 233.94 137.122C233.922 136.973 233.937 136.822 233.983 136.679C234.028 136.536 234.104 136.404 234.205 136.293C234.306 136.182 234.43 136.094 234.568 136.035C234.705 135.975 234.855 135.946 235.005 135.95H273.154C273.471 135.959 273.773 136.083 274.006 136.299C274.238 136.514 274.385 136.807 274.418 137.122C274.436 137.271 274.422 137.422 274.376 137.565C274.33 137.708 274.254 137.84 274.153 137.951C274.053 138.062 273.929 138.15 273.791 138.209C273.653 138.269 273.504 138.298 273.354 138.294Z" fill="#263238"/>
<path d="M267.799 146.038H242.037C241.72 146.033 241.416 145.913 241.18 145.7C240.945 145.487 240.794 145.197 240.757 144.881C240.742 144.732 240.758 144.58 240.806 144.437C240.854 144.294 240.931 144.163 241.033 144.052C241.135 143.941 241.26 143.853 241.398 143.794C241.537 143.735 241.686 143.706 241.837 143.709H267.599C267.918 143.712 268.224 143.833 268.458 144.05C268.692 144.267 268.837 144.564 268.864 144.881C268.879 145.029 268.863 145.179 268.816 145.32C268.769 145.461 268.693 145.59 268.592 145.7C268.491 145.809 268.369 145.896 268.232 145.954C268.095 146.013 267.948 146.041 267.799 146.038Z" fill="#263238"/>
<g opacity="0.4">
<path d="M278.505 130.535H228.693C228.374 130.529 228.067 130.407 227.831 130.191C227.596 129.975 227.447 129.681 227.413 129.363C227.4 129.215 227.418 129.067 227.466 128.927C227.514 128.787 227.59 128.658 227.69 128.549C227.79 128.441 227.912 128.354 228.047 128.295C228.183 128.235 228.329 128.205 228.477 128.206H278.304C278.621 128.211 278.926 128.331 279.161 128.544C279.397 128.757 279.547 129.048 279.584 129.363C279.6 129.513 279.583 129.664 279.535 129.807C279.488 129.95 279.41 130.081 279.308 130.192C279.206 130.303 279.082 130.391 278.943 130.45C278.805 130.509 278.655 130.538 278.505 130.535Z" fill="white"/>
<path d="M295.258 194.045H234.248C233.928 194.039 233.622 193.917 233.386 193.701C233.15 193.485 233.001 193.19 232.967 192.872C232.954 192.724 232.973 192.574 233.021 192.433C233.07 192.292 233.148 192.162 233.25 192.053C233.351 191.944 233.475 191.858 233.613 191.799C233.75 191.741 233.898 191.713 234.047 191.715H295.058C295.374 191.718 295.679 191.837 295.912 192.051C296.146 192.264 296.292 192.557 296.323 192.872C296.34 193.021 296.326 193.172 296.28 193.315C296.235 193.458 296.159 193.59 296.058 193.701C295.957 193.812 295.833 193.9 295.695 193.96C295.557 194.019 295.408 194.048 295.258 194.045Z" fill="white"/>
<path d="M295.86 200.832H226.18C225.861 200.829 225.554 200.708 225.32 200.491C225.086 200.274 224.942 199.977 224.915 199.66C224.899 199.512 224.916 199.362 224.963 199.221C225.009 199.08 225.086 198.951 225.186 198.841C225.287 198.732 225.41 198.645 225.546 198.587C225.683 198.528 225.831 198.5 225.979 198.503H295.644C295.961 198.508 296.266 198.628 296.501 198.841C296.737 199.054 296.887 199.344 296.924 199.66C296.939 199.808 296.923 199.958 296.876 200.1C296.83 200.242 296.754 200.373 296.653 200.483C296.553 200.594 296.43 200.682 296.294 200.742C296.157 200.802 296.009 200.833 295.86 200.832Z" fill="white"/>
<path d="M296.444 207.62H226.764C226.447 207.61 226.144 207.486 225.911 207.271C225.679 207.055 225.532 206.763 225.499 206.447C225.481 206.298 225.496 206.147 225.541 206.004C225.587 205.861 225.663 205.73 225.764 205.619C225.865 205.507 225.988 205.419 226.126 205.36C226.264 205.301 226.413 205.272 226.563 205.275H296.243C296.561 205.281 296.866 205.404 297.099 205.62C297.332 205.836 297.478 206.131 297.508 206.447C297.526 206.596 297.512 206.747 297.466 206.89C297.42 207.033 297.344 207.165 297.243 207.276C297.142 207.387 297.019 207.475 296.881 207.535C296.743 207.594 296.594 207.623 296.444 207.62Z" fill="white"/>
<path d="M297.045 214.423H227.365C227.046 214.42 226.74 214.298 226.506 214.081C226.272 213.865 226.127 213.568 226.1 213.25C226.083 213.101 226.097 212.95 226.143 212.807C226.189 212.664 226.264 212.533 226.365 212.422C226.466 212.31 226.59 212.222 226.728 212.163C226.866 212.104 227.015 212.075 227.165 212.078H296.829C297.149 212.084 297.456 212.206 297.691 212.422C297.927 212.638 298.076 212.932 298.11 213.25C298.125 213.399 298.109 213.549 298.062 213.691C298.015 213.833 297.939 213.963 297.839 214.074C297.739 214.184 297.616 214.273 297.479 214.333C297.343 214.393 297.195 214.423 297.045 214.423Z" fill="white"/>
<path d="M297.571 221.195H236.561C236.241 221.189 235.934 221.067 235.699 220.851C235.463 220.635 235.314 220.34 235.28 220.022C235.265 219.874 235.281 219.724 235.328 219.582C235.375 219.44 235.451 219.309 235.551 219.199C235.652 219.088 235.774 219 235.911 218.94C236.048 218.88 236.195 218.849 236.345 218.85H297.432C297.75 218.856 298.055 218.979 298.288 219.195C298.522 219.411 298.667 219.706 298.697 220.022C298.716 220.177 298.7 220.334 298.651 220.481C298.602 220.629 298.52 220.764 298.413 220.876C298.305 220.988 298.173 221.075 298.028 221.13C297.882 221.185 297.726 221.207 297.571 221.195Z" fill="white"/>
<path d="M298.233 227.967H228.553C228.234 227.965 227.928 227.846 227.692 227.632C227.456 227.419 227.306 227.126 227.272 226.81C227.257 226.66 227.274 226.508 227.321 226.366C227.369 226.223 227.446 226.091 227.548 225.98C227.65 225.87 227.775 225.782 227.913 225.723C228.052 225.664 228.201 225.634 228.352 225.637H298.017C298.336 225.643 298.643 225.765 298.879 225.981C299.115 226.197 299.263 226.492 299.297 226.81C299.312 226.958 299.296 227.107 299.249 227.248C299.203 227.389 299.126 227.519 299.026 227.628C298.925 227.738 298.802 227.824 298.666 227.883C298.529 227.941 298.381 227.97 298.233 227.967Z" fill="white"/>
<path d="M298.821 234.754H229.141C228.825 234.749 228.522 234.628 228.289 234.415C228.057 234.202 227.909 233.911 227.876 233.597C227.858 233.448 227.872 233.297 227.918 233.154C227.964 233.011 228.04 232.88 228.141 232.769C228.242 232.658 228.365 232.569 228.503 232.51C228.641 232.451 228.79 232.422 228.94 232.425H298.62C298.938 232.431 299.243 232.554 299.476 232.77C299.709 232.986 299.855 233.281 299.885 233.597C299.9 233.745 299.884 233.895 299.837 234.036C299.791 234.177 299.714 234.306 299.614 234.416C299.513 234.525 299.39 234.612 299.254 234.67C299.117 234.729 298.969 234.757 298.821 234.754Z" fill="white"/>
<path d="M273.352 138.294H235.203C234.884 138.292 234.578 138.17 234.344 137.953C234.11 137.736 233.965 137.44 233.938 137.122C233.921 136.973 233.935 136.822 233.981 136.679C234.026 136.536 234.102 136.404 234.203 136.293C234.304 136.182 234.428 136.094 234.566 136.035C234.704 135.975 234.853 135.946 235.003 135.95H273.152C273.469 135.959 273.771 136.083 274.004 136.299C274.237 136.514 274.383 136.807 274.417 137.122C274.434 137.271 274.42 137.422 274.374 137.565C274.328 137.708 274.252 137.84 274.152 137.951C274.051 138.062 273.927 138.15 273.789 138.209C273.651 138.269 273.502 138.298 273.352 138.294Z" fill="white"/>
<path d="M267.799 146.038H242.037C241.72 146.033 241.416 145.913 241.18 145.7C240.945 145.487 240.794 145.196 240.757 144.881C240.742 144.731 240.758 144.58 240.806 144.437C240.854 144.294 240.931 144.163 241.033 144.052C241.135 143.941 241.26 143.853 241.398 143.794C241.537 143.735 241.686 143.706 241.837 143.709H267.599C267.918 143.712 268.224 143.833 268.458 144.05C268.692 144.267 268.837 144.563 268.864 144.881C268.879 145.029 268.863 145.179 268.816 145.32C268.769 145.461 268.693 145.59 268.592 145.7C268.491 145.809 268.369 145.896 268.232 145.954C268.095 146.013 267.948 146.041 267.799 146.038Z" fill="white"/>
</g>
<path opacity="0.5" d="M295.43 182.691H223.42L221.014 155.063H293.023L295.43 182.691Z" fill="white"/>
<path d="M374.422 325.136H311.268V265.576H374.422V325.136Z" fill="#263238"/>
<path d="M436.036 325.136H372.881V265.576H436.036V325.136Z" fill="#263238"/>
<path d="M375.055 271.654H311.283V263.385H375.055V271.654Z" fill="#263238"/>
<path d="M375.04 266.933H260.994V257.323H375.04V266.933Z" fill="#263238"/>
<path opacity="0.2" d="M436.036 325.136H372.881V265.576H436.036V325.136Z" fill="#263238"/>
<path opacity="0.2" d="M375.055 271.654H311.283V263.385H375.055V271.654Z" fill="#263238"/>
<path opacity="0.2" d="M375.04 266.933H260.994V257.323H375.04V266.933Z" fill="#263238"/>
<path d="M486.309 266.933H372.264V257.323H486.309V266.933Z" fill="#263238"/>
<path d="M486.293 358.812C485.884 358.812 485.492 358.649 485.203 358.36C484.913 358.071 484.751 357.678 484.751 357.269V263.786C484.753 263.131 484.625 262.481 484.376 261.875C484.126 261.269 483.76 260.718 483.297 260.253C482.834 259.789 482.284 259.42 481.678 259.169C481.073 258.918 480.424 258.788 479.768 258.788H373.79C373.381 258.788 372.989 258.626 372.699 258.337C372.41 258.047 372.248 257.655 372.248 257.246C372.248 256.837 372.41 256.444 372.699 256.155C372.989 255.866 373.381 255.703 373.79 255.703H479.768C481.909 255.707 483.961 256.561 485.474 258.076C486.986 259.592 487.836 261.645 487.836 263.786V357.269C487.836 357.678 487.673 358.071 487.384 358.36C487.095 358.649 486.702 358.812 486.293 358.812Z" fill="url(#paint5_linear_524_1955)"/>
<path d="M486.633 362.823C480.956 362.823 476.359 370.227 476.359 379.359V391.114H481.449C482.005 391.114 485.121 390.497 485.121 379.251C485.121 379.251 486.849 391.083 483.979 391.114H488.314C488.314 391.114 490.906 390.62 490.906 384.357V374.855C490.906 374.855 495.055 391.052 490.906 391.052H496.922V379.298C496.922 370.227 492.309 362.823 486.633 362.823Z" fill="url(#paint6_linear_524_1955)"/>
<path d="M490.088 360.354H483.177C482.768 360.354 482.376 360.192 482.087 359.902C481.797 359.613 481.635 359.221 481.635 358.812C481.635 358.403 481.797 358.01 482.087 357.721C482.376 357.432 482.768 357.269 483.177 357.269H490.088C490.497 357.269 490.89 357.432 491.179 357.721C491.468 358.01 491.631 358.403 491.631 358.812C491.631 359.221 491.468 359.613 491.179 359.902C490.89 360.192 490.497 360.354 490.088 360.354Z" fill="url(#paint7_linear_524_1955)"/>
<path d="M490.088 363.44H483.177C482.768 363.44 482.376 363.277 482.087 362.988C481.797 362.698 481.635 362.306 481.635 361.897C481.635 361.488 481.797 361.095 482.087 360.806C482.376 360.517 482.768 360.354 483.177 360.354H490.088C490.497 360.354 490.89 360.517 491.179 360.806C491.468 361.095 491.631 361.488 491.631 361.897C491.631 362.306 491.468 362.698 491.179 362.988C490.89 363.277 490.497 363.44 490.088 363.44Z" fill="url(#paint8_linear_524_1955)"/>
<path d="M162.594 447.173H443.689V505.793H162.501C165.031 486.337 165.062 466.637 162.594 447.173Z" fill="url(#paint9_linear_524_1955)"/>
<path opacity="0.7" d="M162.594 447.173H443.689V505.793H162.501C165.031 486.337 165.062 466.637 162.594 447.173Z" fill="white"/>
<path d="M392.477 508.878H480.822L481.717 507.967C485.903 503.784 489.224 498.817 491.49 493.35C493.756 487.883 494.922 482.023 494.922 476.105C494.922 470.187 493.756 464.327 491.49 458.859C489.224 453.392 485.903 448.425 481.717 444.242L480.822 443.347H392.477L397.737 448.608C405.025 455.903 409.119 465.793 409.119 476.105C409.119 486.417 405.025 496.307 397.737 503.602L392.477 508.878Z" fill="url(#paint10_linear_524_1955)"/>
<g opacity="0.3">
<path d="M392.477 508.878H480.822L481.717 507.968C485.903 503.784 489.224 498.817 491.49 493.35C493.756 487.883 494.922 482.023 494.922 476.105C494.922 470.187 493.756 464.327 491.49 458.859C489.224 453.392 485.903 448.425 481.717 444.242L480.822 443.347H392.477L397.737 448.608C405.025 455.903 409.119 465.793 409.119 476.105C409.119 486.417 405.025 496.307 397.737 503.602L392.477 508.878Z" fill="#263238"/>
</g>
<path d="M159.71 508.878H398.322L398.584 508.615C406.933 500.447 411.891 489.429 412.468 477.763C412.695 471.569 411.636 465.396 409.358 459.632C407.08 453.867 403.632 448.638 399.232 444.273L398.322 443.378H159.71C158.892 443.378 158.107 443.703 157.528 444.282C156.95 444.86 156.625 445.645 156.625 446.463C156.625 447.282 156.95 448.066 157.528 448.645C158.107 449.224 158.892 449.549 159.71 449.549H395.731C402.479 456.76 406.234 466.267 406.234 476.143C406.234 486.02 402.479 495.527 395.731 502.738H159.71C158.892 502.738 158.107 503.063 157.528 503.642C156.95 504.22 156.625 505.005 156.625 505.823C156.633 506.636 156.961 507.413 157.539 507.985C158.117 508.557 158.897 508.878 159.71 508.878Z" fill="url(#paint11_linear_524_1955)"/>
<path d="M184.653 468.955H198.151C198.765 468.955 199.353 468.711 199.787 468.277C200.221 467.843 200.465 467.255 200.465 466.641C200.465 466.027 200.221 465.439 199.787 465.005C199.353 464.571 198.765 464.327 198.151 464.327H184.653C184.039 464.327 183.451 464.571 183.017 465.005C182.583 465.439 182.339 466.027 182.339 466.641C182.339 467.255 182.583 467.843 183.017 468.277C183.451 468.711 184.039 468.955 184.653 468.955Z" fill="white"/>
<path d="M215.814 468.955H341.229C341.843 468.955 342.431 468.711 342.865 468.277C343.299 467.843 343.543 467.255 343.543 466.641C343.543 466.027 343.299 465.439 342.865 465.005C342.431 464.571 341.843 464.327 341.229 464.327H215.814C215.2 464.327 214.612 464.571 214.178 465.005C213.744 465.439 213.5 466.027 213.5 466.641C213.5 467.255 213.744 467.843 214.178 468.277C214.612 468.711 215.2 468.955 215.814 468.955Z" fill="white"/>
<path d="M358.2 468.955H385.967C386.581 468.955 387.17 468.711 387.604 468.277C388.037 467.843 388.281 467.255 388.281 466.641C388.281 466.027 388.037 465.439 387.604 465.005C387.17 464.571 386.581 464.327 385.967 464.327H358.2C357.587 464.327 356.998 464.571 356.564 465.005C356.13 465.439 355.886 466.027 355.886 466.641C355.886 467.255 356.13 467.843 356.564 468.277C356.998 468.711 357.587 468.955 358.2 468.955Z" fill="white"/>
<path d="M184.654 488.561H303.436C304.05 488.561 304.638 488.318 305.072 487.884C305.506 487.45 305.75 486.861 305.75 486.247C305.75 485.634 305.506 485.045 305.072 484.611C304.638 484.177 304.05 483.933 303.436 483.933H184.654C184.041 483.933 183.452 484.177 183.018 484.611C182.584 485.045 182.341 485.634 182.341 486.247C182.341 486.861 182.584 487.45 183.018 487.884C183.452 488.318 184.041 488.561 184.654 488.561Z" fill="white"/>
<path d="M320.715 488.561H385.967C386.581 488.561 387.17 488.318 387.604 487.884C388.037 487.45 388.281 486.861 388.281 486.247C388.281 485.634 388.037 485.045 387.604 484.611C387.17 484.177 386.581 483.933 385.967 483.933H320.715C320.101 483.933 319.512 484.177 319.078 484.611C318.644 485.045 318.401 485.634 318.401 486.247C318.401 486.861 318.644 487.45 319.078 487.884C319.512 488.318 320.101 488.561 320.715 488.561Z" fill="white"/>
<path d="M170.046 328.839H423.035V381.596H169.953C172.236 364.086 172.267 346.356 170.046 328.839Z" fill="url(#paint12_linear_524_1955)"/>
<path opacity="0.8" d="M170.046 328.839H423.035V381.596H169.953C172.236 364.086 172.267 346.356 170.046 328.839Z" fill="white"/>
<path d="M376.941 384.373H456.463L457.281 383.555C461.046 379.791 464.033 375.321 466.071 370.402C468.109 365.483 469.158 360.21 469.158 354.886C469.158 349.561 468.109 344.289 466.071 339.37C464.033 334.45 461.046 329.981 457.281 326.216L456.463 325.399H376.957L381.677 330.119C388.234 336.687 391.917 345.589 391.917 354.87C391.917 364.152 388.234 373.053 381.677 379.622L376.941 384.373Z" fill="url(#paint13_linear_524_1955)"/>
<g opacity="0.2">
<path d="M376.941 384.373H456.463L457.281 383.555C461.046 379.791 464.033 375.321 466.071 370.402C468.109 365.483 469.158 360.21 469.158 354.886C469.158 349.561 468.109 344.289 466.071 339.37C464.033 334.45 461.046 329.981 457.281 326.216L456.463 325.399H376.957L381.677 330.119C388.234 336.687 391.917 345.589 391.917 354.87C391.917 364.152 388.234 373.053 381.677 379.622L376.941 384.373Z" fill="white"/>
</g>
<path d="M167.453 384.373H382.201L382.417 384.111C389.914 376.754 394.355 366.836 394.85 356.344C395.068 350.775 394.127 345.223 392.088 340.037C390.049 334.851 386.955 330.145 383.003 326.216L382.185 325.399H167.453C166.716 325.399 166.01 325.691 165.489 326.212C164.969 326.733 164.676 327.439 164.676 328.175C164.676 328.912 164.969 329.618 165.489 330.139C166.01 330.66 166.716 330.952 167.453 330.952H379.887C385.949 337.438 389.321 345.985 389.321 354.863C389.321 363.741 385.949 372.287 379.887 378.773H167.453C166.716 378.773 166.01 379.066 165.489 379.587C164.969 380.107 164.676 380.814 164.676 381.55C164.67 381.918 164.737 382.285 164.874 382.627C165.011 382.969 165.214 383.281 165.473 383.543C165.731 383.806 166.039 384.015 166.379 384.157C166.719 384.3 167.084 384.373 167.453 384.373Z" fill="url(#paint14_linear_524_1955)"/>
<g opacity="0.4">
<path d="M167.453 384.373H382.201L382.417 384.111C389.914 376.754 394.355 366.836 394.85 356.344C395.068 350.775 394.127 345.223 392.088 340.037C390.049 334.851 386.955 330.145 383.003 326.216L382.185 325.399H167.453C166.716 325.399 166.01 325.691 165.489 326.212C164.969 326.733 164.676 327.439 164.676 328.175C164.676 328.912 164.969 329.618 165.489 330.139C166.01 330.66 166.716 330.952 167.453 330.952H379.887C385.949 337.438 389.321 345.985 389.321 354.863C389.321 363.741 385.949 372.287 379.887 378.773H167.453C166.716 378.773 166.01 379.066 165.489 379.587C164.969 380.107 164.676 380.814 164.676 381.55C164.67 381.918 164.737 382.285 164.874 382.627C165.011 382.969 165.214 383.281 165.473 383.543C165.731 383.806 166.039 384.015 166.379 384.157C166.719 384.3 167.084 384.373 167.453 384.373Z" fill="white"/>
</g>
<path d="M189.898 348.507H202.054C202.606 348.507 203.136 348.288 203.527 347.897C203.917 347.507 204.137 346.977 204.137 346.425C204.137 346.151 204.083 345.88 203.978 345.628C203.874 345.375 203.72 345.145 203.527 344.952C203.333 344.759 203.104 344.605 202.851 344.501C202.598 344.396 202.328 344.342 202.054 344.342H189.898C189.625 344.342 189.354 344.396 189.101 344.501C188.849 344.605 188.619 344.759 188.426 344.952C188.232 345.145 188.079 345.375 187.974 345.628C187.87 345.88 187.816 346.151 187.816 346.425C187.816 346.977 188.035 347.507 188.426 347.897C188.816 348.288 189.346 348.507 189.898 348.507Z" fill="white"/>
<path d="M218.022 348.507H330.818C331.092 348.509 331.364 348.457 331.617 348.353C331.871 348.249 332.101 348.095 332.295 347.902C332.489 347.708 332.642 347.477 332.746 347.224C332.85 346.97 332.902 346.699 332.9 346.425C332.902 346.15 332.85 345.879 332.746 345.625C332.642 345.372 332.489 345.141 332.295 344.947C332.101 344.754 331.871 344.6 331.617 344.496C331.364 344.392 331.092 344.34 330.818 344.342H218.022C217.747 344.34 217.476 344.392 217.222 344.496C216.969 344.6 216.738 344.754 216.544 344.947C216.351 345.141 216.197 345.372 216.093 345.625C215.989 345.879 215.937 346.15 215.939 346.425C215.937 346.699 215.989 346.97 216.093 347.224C216.197 347.477 216.351 347.708 216.544 347.902C216.738 348.095 216.969 348.249 217.222 348.353C217.476 348.457 217.747 348.509 218.022 348.507Z" fill="white"/>
<path d="M346.089 348.507H371.08C371.354 348.509 371.625 348.457 371.879 348.353C372.132 348.249 372.363 348.095 372.557 347.902C372.75 347.708 372.904 347.477 373.008 347.224C373.112 346.97 373.164 346.699 373.162 346.425C373.164 346.15 373.112 345.879 373.008 345.625C372.904 345.372 372.75 345.141 372.557 344.947C372.363 344.754 372.132 344.6 371.879 344.496C371.625 344.392 371.354 344.34 371.08 344.342H346.089C345.815 344.34 345.543 344.392 345.29 344.496C345.036 344.6 344.806 344.754 344.612 344.947C344.418 345.141 344.265 345.372 344.161 345.625C344.057 345.879 344.005 346.15 344.007 346.425C344.005 346.699 344.057 346.97 344.161 347.224C344.265 347.477 344.418 347.708 344.612 347.902C344.806 348.095 345.036 348.249 345.29 348.353C345.543 348.457 345.815 348.509 346.089 348.507Z" fill="white"/>
<path d="M189.897 366.093H296.8C297.074 366.095 297.346 366.042 297.6 365.939C297.853 365.835 298.084 365.681 298.277 365.487C298.471 365.294 298.624 365.063 298.728 364.81C298.832 364.556 298.885 364.284 298.883 364.01C298.885 363.736 298.832 363.465 298.728 363.211C298.624 362.957 298.471 362.727 298.277 362.533C298.084 362.339 297.853 362.186 297.6 362.082C297.346 361.978 297.074 361.926 296.8 361.928H189.897C189.344 361.928 188.815 362.147 188.424 362.538C188.034 362.928 187.814 363.458 187.814 364.01C187.814 364.563 188.034 365.092 188.424 365.483C188.815 365.873 189.344 366.093 189.897 366.093Z" fill="white"/>
<path d="M312.429 366.093H371.049C371.321 366.099 371.593 366.051 371.847 365.952C372.101 365.853 372.333 365.704 372.529 365.515C372.726 365.326 372.883 365.099 372.992 364.849C373.1 364.599 373.158 364.329 373.162 364.057C373.164 363.783 373.112 363.511 373.008 363.257C372.904 363.004 372.75 362.773 372.557 362.579C372.363 362.386 372.132 362.232 371.879 362.128C371.625 362.024 371.354 361.972 371.08 361.974H312.46C312.186 361.972 311.914 362.024 311.661 362.128C311.407 362.232 311.177 362.386 310.983 362.579C310.789 362.773 310.636 363.004 310.532 363.257C310.428 363.511 310.375 363.783 310.377 364.057C310.386 364.597 310.605 365.112 310.988 365.493C311.372 365.874 311.889 366.089 312.429 366.093Z" fill="white"/>
<path d="M161.143 387.813H414.133V440.571H161.051C163.334 423.061 163.365 405.331 161.143 387.813Z" fill="url(#paint15_linear_524_1955)"/>
<path opacity="0.7" d="M161.143 387.813H414.133V440.571H161.051C163.334 423.061 163.365 405.331 161.143 387.813Z" fill="white"/>
<path d="M368.025 443.347H447.547L448.349 442.53C452.115 438.765 455.102 434.295 457.14 429.376C459.178 424.457 460.227 419.185 460.227 413.86C460.227 408.535 459.178 403.263 457.14 398.344C455.102 393.425 452.115 388.955 448.349 385.191L447.547 384.373H368.025L372.761 389.109C376.013 392.358 378.593 396.216 380.354 400.463C382.114 404.71 383.02 409.263 383.02 413.86C383.02 418.457 382.114 423.01 380.354 427.257C378.593 431.504 376.013 435.362 372.761 438.611L368.025 443.347Z" fill="url(#paint16_linear_524_1955)"/>
<path d="M158.539 443.347H373.302L373.533 443.116C381.031 435.759 385.472 425.841 385.967 415.349C386.179 409.781 385.236 404.23 383.197 399.045C381.158 393.86 378.067 389.153 374.12 385.221L373.302 384.404H158.539C157.803 384.408 157.1 384.702 156.58 385.221C156.06 385.741 155.766 386.445 155.762 387.18C155.766 387.916 156.06 388.619 156.58 389.139C157.1 389.659 157.803 389.953 158.539 389.957H370.973C377.045 396.438 380.424 404.987 380.424 413.868C380.424 422.749 377.045 431.297 370.973 437.778H158.539C158.174 437.778 157.813 437.85 157.476 437.99C157.139 438.129 156.833 438.334 156.575 438.592C156.317 438.849 156.113 439.156 155.973 439.492C155.834 439.829 155.762 440.19 155.762 440.555C155.762 441.293 156.054 442.001 156.574 442.524C157.095 443.047 157.801 443.343 158.539 443.347Z" fill="url(#paint17_linear_524_1955)"/>
<g opacity="0.3">
<path d="M158.539 443.347H373.302L373.533 443.116C381.031 435.759 385.472 425.841 385.967 415.349C386.179 409.781 385.236 404.23 383.197 399.045C381.158 393.86 378.067 389.153 374.12 385.221L373.302 384.404H158.539C157.803 384.408 157.1 384.702 156.58 385.221C156.06 385.741 155.766 386.445 155.762 387.18C155.766 387.916 156.06 388.619 156.58 389.139C157.1 389.659 157.803 389.953 158.539 389.957H370.973C377.045 396.438 380.424 404.987 380.424 413.868C380.424 422.749 377.045 431.297 370.973 437.778H158.539C158.174 437.778 157.813 437.85 157.476 437.99C157.139 438.129 156.833 438.334 156.575 438.592C156.317 438.849 156.113 439.156 155.973 439.492C155.834 439.829 155.762 440.19 155.762 440.555C155.762 441.293 156.054 442.001 156.574 442.524C157.095 443.047 157.801 443.343 158.539 443.347Z" fill="white"/>
</g>
<path d="M362.179 420.902H350.023C349.471 420.902 348.941 421.122 348.551 421.512C348.16 421.903 347.941 422.432 347.941 422.985C347.945 423.536 348.166 424.063 348.555 424.453C348.945 424.843 349.472 425.063 350.023 425.067H362.179C362.73 425.063 363.258 424.843 363.647 424.453C364.037 424.063 364.258 423.536 364.262 422.985C364.262 422.432 364.042 421.903 363.652 421.512C363.261 421.122 362.732 420.902 362.179 420.902Z" fill="white"/>
<path d="M334.058 420.902H221.262C220.988 420.9 220.716 420.953 220.462 421.056C220.209 421.16 219.978 421.314 219.785 421.508C219.591 421.701 219.438 421.932 219.334 422.185C219.23 422.439 219.177 422.711 219.179 422.985C219.179 423.258 219.233 423.529 219.338 423.782C219.442 424.034 219.596 424.264 219.789 424.457C219.983 424.651 220.212 424.804 220.465 424.909C220.717 425.013 220.988 425.067 221.262 425.067H334.058C334.332 425.067 334.602 425.013 334.855 424.909C335.108 424.804 335.337 424.651 335.531 424.457C335.724 424.264 335.877 424.034 335.982 423.782C336.087 423.529 336.141 423.258 336.141 422.985C336.143 422.711 336.09 422.439 335.986 422.185C335.882 421.932 335.729 421.701 335.535 421.508C335.341 421.314 335.111 421.16 334.857 421.056C334.604 420.953 334.332 420.9 334.058 420.902Z" fill="white"/>
<path d="M205.99 420.902H181C180.726 420.9 180.454 420.952 180.2 421.056C179.947 421.16 179.716 421.314 179.523 421.507C179.329 421.701 179.175 421.932 179.072 422.185C178.968 422.439 178.915 422.711 178.917 422.985C178.917 423.258 178.971 423.529 179.076 423.782C179.18 424.034 179.334 424.264 179.527 424.457C179.721 424.651 179.95 424.804 180.203 424.909C180.455 425.013 180.726 425.067 181 425.067H205.99C206.266 425.069 206.539 425.017 206.794 424.913C207.049 424.81 207.282 424.657 207.478 424.464C207.674 424.27 207.831 424.04 207.938 423.786C208.045 423.533 208.101 423.26 208.104 422.985C208.104 422.709 208.049 422.435 207.942 422.18C207.836 421.926 207.679 421.695 207.483 421.501C207.286 421.307 207.053 421.154 206.797 421.052C206.54 420.949 206.266 420.898 205.99 420.902Z" fill="white"/>
<path d="M362.179 403.316H255.276C255.002 403.314 254.73 403.367 254.476 403.471C254.223 403.574 253.992 403.728 253.799 403.922C253.605 404.115 253.451 404.346 253.348 404.599C253.244 404.853 253.191 405.125 253.193 405.399C253.193 405.672 253.247 405.943 253.352 406.196C253.456 406.448 253.61 406.678 253.803 406.871C253.997 407.065 254.226 407.218 254.479 407.323C254.731 407.427 255.002 407.481 255.276 407.481H362.179C362.73 407.477 363.258 407.257 363.647 406.867C364.037 406.477 364.258 405.95 364.262 405.399C364.262 404.846 364.042 404.317 363.652 403.926C363.261 403.536 362.732 403.316 362.179 403.316Z" fill="white"/>
<path d="M239.65 403.316H181.03C180.756 403.314 180.485 403.367 180.231 403.471C179.977 403.574 179.747 403.728 179.553 403.922C179.359 404.115 179.206 404.346 179.102 404.599C178.998 404.853 178.946 405.125 178.948 405.399C178.948 405.951 179.167 406.481 179.558 406.871C179.948 407.262 180.478 407.481 181.03 407.481H239.65C239.923 407.481 240.194 407.427 240.447 407.323C240.699 407.218 240.929 407.065 241.122 406.871C241.316 406.678 241.469 406.448 241.574 406.196C241.679 405.943 241.732 405.672 241.732 405.399C241.734 405.125 241.682 404.853 241.578 404.599C241.474 404.346 241.321 404.115 241.127 403.922C240.933 403.728 240.703 403.574 240.449 403.471C240.196 403.367 239.924 403.314 239.65 403.316Z" fill="white"/>
<defs>
<linearGradient id="paint0_linear_524_1955" x1="261.004" y1="249.286" x2="261.004" y2="274.068" gradientUnits="userSpaceOnUse">
<stop stop-color="#725CB9"/>
<stop offset="1" stop-color="#6F8ED3"/>
</linearGradient>
<linearGradient id="paint1_linear_524_1955" x1="253.79" y1="107.133" x2="253.79" y2="244.566" gradientUnits="userSpaceOnUse">
<stop stop-color="#725CB9"/>
<stop offset="1" stop-color="#6F8ED3"/>
</linearGradient>
<linearGradient id="paint2_linear_524_1955" x1="253.79" y1="107.133" x2="253.79" y2="244.566" gradientUnits="userSpaceOnUse">
<stop stop-color="#725CB9"/>
<stop offset="1" stop-color="#6F8ED3"/>
</linearGradient>
<linearGradient id="paint3_linear_524_1955" x1="140.928" y1="102.365" x2="140.928" y2="274.091" gradientUnits="userSpaceOnUse">
<stop stop-color="#725CB9"/>
<stop offset="1" stop-color="#6F8ED3"/>
</linearGradient>
<linearGradient id="paint4_linear_524_1955" x1="259.083" y1="113.798" x2="259.083" y2="243.609" gradientUnits="userSpaceOnUse">
<stop stop-color="#725CB9"/>
<stop offset="1" stop-color="#6F8ED3"/>
</linearGradient>
<linearGradient id="paint5_linear_524_1955" x1="430.042" y1="255.703" x2="430.042" y2="358.812" gradientUnits="userSpaceOnUse">
<stop stop-color="#725CB9"/>
<stop offset="1" stop-color="#6F8ED3"/>
</linearGradient>
<linearGradient id="paint6_linear_524_1955" x1="486.64" y1="362.823" x2="486.64" y2="391.114" gradientUnits="userSpaceOnUse">
<stop stop-color="#725CB9"/>
<stop offset="1" stop-color="#6F8ED3"/>
</linearGradient>
<linearGradient id="paint7_linear_524_1955" x1="486.633" y1="357.269" x2="486.633" y2="360.354" gradientUnits="userSpaceOnUse">
<stop stop-color="#725CB9"/>
<stop offset="1" stop-color="#6F8ED3"/>
</linearGradient>
<linearGradient id="paint8_linear_524_1955" x1="486.633" y1="360.354" x2="486.633" y2="363.44" gradientUnits="userSpaceOnUse">
<stop stop-color="#725CB9"/>
<stop offset="1" stop-color="#6F8ED3"/>
</linearGradient>
<linearGradient id="paint9_linear_524_1955" x1="303.095" y1="447.173" x2="303.095" y2="505.793" gradientUnits="userSpaceOnUse">
<stop stop-color="#725CB9"/>
<stop offset="1" stop-color="#6F8ED3"/>
</linearGradient>
<linearGradient id="paint10_linear_524_1955" x1="443.699" y1="443.347" x2="443.699" y2="508.878" gradientUnits="userSpaceOnUse">
<stop stop-color="#725CB9"/>
<stop offset="1" stop-color="#6F8ED3"/>
</linearGradient>
<linearGradient id="paint11_linear_524_1955" x1="284.561" y1="443.378" x2="284.561" y2="508.878" gradientUnits="userSpaceOnUse">
<stop stop-color="#725CB9"/>
<stop offset="1" stop-color="#6F8ED3"/>
</linearGradient>
<linearGradient id="paint12_linear_524_1955" x1="296.494" y1="328.839" x2="296.494" y2="381.596" gradientUnits="userSpaceOnUse">
<stop stop-color="#725CB9"/>
<stop offset="1" stop-color="#6F8ED3"/>
</linearGradient>
<linearGradient id="paint13_linear_524_1955" x1="423.05" y1="325.399" x2="423.05" y2="384.373" gradientUnits="userSpaceOnUse">
<stop stop-color="#725CB9"/>
<stop offset="1" stop-color="#6F8ED3"/>
</linearGradient>
<linearGradient id="paint14_linear_524_1955" x1="279.778" y1="325.399" x2="279.778" y2="384.373" gradientUnits="userSpaceOnUse">
<stop stop-color="#725CB9"/>
<stop offset="1" stop-color="#6F8ED3"/>
</linearGradient>
<linearGradient id="paint15_linear_524_1955" x1="287.592" y1="387.813" x2="287.592" y2="440.571" gradientUnits="userSpaceOnUse">
<stop stop-color="#725CB9"/>
<stop offset="1" stop-color="#6F8ED3"/>
</linearGradient>
<linearGradient id="paint16_linear_524_1955" x1="414.126" y1="384.373" x2="414.126" y2="443.347" gradientUnits="userSpaceOnUse">
<stop stop-color="#725CB9"/>
<stop offset="1" stop-color="#6F8ED3"/>
</linearGradient>
<linearGradient id="paint17_linear_524_1955" x1="270.879" y1="384.404" x2="270.879" y2="443.347" gradientUnits="userSpaceOnUse">
<stop stop-color="#725CB9"/>
<stop offset="1" stop-color="#6F8ED3"/>
</linearGradient>
</defs>
</svg>
