<svg width="26" height="26" viewBox="0 0 26 26" fill="none" xmlns="http://www.w3.org/2000/svg">
<path d="M12.5938 0.65625C19.5508 0.65625 25.1875 6.29297 25.1875 13.25C25.1875 20.207 19.5508 25.8438 12.5938 25.8438C5.63672 25.8438 0 20.207 0 13.25C0 6.29297 5.63672 0.65625 12.5938 0.65625ZM18.7383 9.28906C18.9414 8.47656 18.4336 8.12109 17.875 8.32422L5.73828 12.9961C4.92578 13.3008 4.92578 13.8086 5.58594 14.0117L8.68359 14.9766L15.8945 10.4062C16.25 10.2031 16.5547 10.3555 16.3008 10.5586L10.4609 15.8398L10.2578 19.0391C10.5625 19.0391 10.7148 18.8867 10.8672 18.7344L12.3906 17.2617L15.5391 19.5977C16.1484 19.9023 16.5547 19.75 16.707 19.0391L18.7383 9.28906Z" fill="white"/>
</svg>
