<svg width="36" height="36" viewBox="0 0 36 36" fill="none" xmlns="http://www.w3.org/2000/svg">
<path d="M27.8065 20.2573C30.0987 22.5082 32.4209 24.7591 34.6718 27.0475C36.3674 28.7432 36.3562 29.9137 34.6718 31.6356C33.6701 32.6523 32.646 33.6464 31.6218 34.6368C30.3951 35.826 29.0408 35.9123 27.829 34.7419C25.0229 32.0333 22.2631 29.2734 19.5495 26.4623C18.9398 25.8773 18.5071 25.1326 18.3008 24.3133C18.0944 23.494 18.1229 22.6331 18.3828 21.8292C18.6716 20.8913 18.4503 20.3774 17.8013 19.7584C16.008 18.0439 14.2223 16.3182 12.5492 14.5063C11.6225 13.5046 10.6622 12.9306 9.29661 13.182C7.46588 13.5271 6.33293 12.7093 5.34253 11.2199C4.007 9.21289 2.48014 7.32964 0.983289 5.43513C0.424315 4.7261 0.251746 4.17838 1.09959 3.6044C1.3443 3.41361 1.5704 3.20007 1.77486 2.96664C4.71603 0.085492 4.71603 0.085492 7.93482 2.53147C8.73384 3.2178 9.57725 3.85067 10.4596 4.42598C12.7517 5.724 13.9785 7.42718 13.5921 10.2371C13.3595 11.9365 15.2277 12.5142 16.1881 13.5684C17.5424 14.979 18.893 16.3933 20.251 17.7963C20.5961 18.1715 21.0013 18.5054 21.5415 18.314C24.115 17.4137 26.0433 18.5354 27.8065 20.2573Z" fill="#1A3354"/>
<path d="M27.8064 20.2574C26.0432 18.5354 24.1149 17.4137 21.5414 18.3141C20.9899 18.5054 20.596 18.1565 20.2509 17.7964C18.8928 16.3933 17.5423 14.979 16.188 13.5684C16.2593 11.7977 15.6403 10.102 16.0304 8.25255C17.1296 3.06047 21.9165 -0.585986 27.1686 0.0780299C27.7839 0.15306 28.4592 0.190575 28.733 0.862094C29.0069 1.53361 28.4967 2.01005 28.0577 2.44898C26.9323 3.57443 25.8294 4.76741 24.6364 5.84409C23.7585 6.63565 23.646 7.40846 23.8035 8.60519C24.3363 12.7544 24.3175 11.4338 27.7951 12.2779C28.2164 12.3844 28.6595 12.3666 29.0708 12.2268C29.4822 12.087 29.8444 11.8312 30.1136 11.4901C31.239 10.2709 32.462 9.11915 33.6587 7.95618C34.0339 7.58103 34.3715 6.98454 35.0243 7.17962C35.7371 7.39721 35.7746 8.09124 35.8384 8.70273C36.4386 13.6172 33.7938 17.8827 29.0857 19.5821C28.6392 19.7547 28.1065 19.7847 27.8064 20.2574Z" fill="#A3ADBA"/>
<path d="M15.914 22.7482C15.8692 22.9407 15.8692 23.1409 15.914 23.3334C17.0395 25.8282 15.5389 27.28 13.8845 28.7881C11.9712 30.5513 10.253 32.5396 8.31724 34.2615C5.31604 36.9439 1.27192 35.7621 0.281526 32.0106C0.0882139 31.2819 0.0967578 30.5143 0.306243 29.79C0.515729 29.0657 0.918266 28.412 1.47075 27.899C4.65953 24.6089 7.94959 21.4089 11.1646 18.1451C11.7911 17.5073 12.2376 17.4923 12.834 18.1451C13.6294 19.0117 14.4697 19.837 15.3325 20.6398C15.914 21.1988 16.2892 21.784 15.914 22.7482ZM6.3402 31.2678C6.13762 30.3337 5.69869 29.7072 4.62201 29.7372C3.54533 29.7672 3.06514 30.3862 3.10265 31.3691C3.14017 32.2883 3.65788 32.791 4.63702 32.806C5.71745 32.8247 6.16013 32.1907 6.3402 31.2678Z" fill="#A3ADBA"/>
</svg>
