<svg width="48" height="36" viewBox="0 0 48 36" fill="none" xmlns="http://www.w3.org/2000/svg">
<rect x="23" y="26.9419" width="24.0621" height="12.0311" rx="2.57809" transform="rotate(-23.6605 23 26.9419)" fill="#1A3254"/>
<path d="M24.7548 27.7661C24.7144 27.6739 24.7564 27.5664 24.8486 27.526L27.4509 26.3858C27.5996 26.3206 27.7529 26.4678 27.6938 26.6191L26.9034 28.6424L26.2317 30.3616C26.1726 30.5128 25.9602 30.5171 25.895 30.3684L24.7548 27.7661Z" fill="#D9D9D9"/>
<path d="M28.4112 36.1148C28.4516 36.207 28.5591 36.249 28.6513 36.2086L31.2536 35.0684C31.4024 35.0032 31.3981 34.7907 31.2468 34.7316L29.2235 33.9412L27.5043 33.2695C27.3531 33.2104 27.2059 33.3637 27.271 33.5125L28.4112 36.1148Z" fill="#D9D9D9"/>
<path d="M44.288 19.2075C44.2476 19.1153 44.1401 19.0733 44.0479 19.1137L41.4456 20.2539C41.2968 20.319 41.3011 20.5315 41.4524 20.5906L43.4757 21.3811L45.1949 22.0527C45.3462 22.1118 45.4934 21.9585 45.4282 21.8098L44.288 19.2075Z" fill="#D9D9D9"/>
<path d="M47.9464 27.5552C47.9868 27.6474 47.9448 27.7549 47.8526 27.7953L45.2503 28.9355C45.1015 29.0007 44.9482 28.8535 45.0073 28.7022L45.7978 26.6789L46.4694 24.9597C46.5285 24.8085 46.741 24.8042 46.8062 24.9529L47.9464 27.5552Z" fill="#D9D9D9"/>
<circle cx="36.3136" cy="27.5777" r="3.00777" transform="rotate(-23.6605 36.3136 27.5777)" fill="#D9D9D9"/>
<path d="M0.677734 17.9952C0.677734 13.4409 0.677734 8.87167 0.677734 4.32854C0.677734 1.48769 1.88351 0.285645 4.74676 0.285645C10.9212 0.285645 17.0957 0.285645 23.2702 0.285645C25.999 0.285645 27.3392 1.47649 27.3541 4.17922C27.4114 13.4123 27.4114 22.6441 27.3541 31.8747C27.3541 34.5215 25.9318 35.7272 23.2478 35.7496C21.8889 35.7496 20.5189 35.6451 19.175 35.7795C17.6221 35.9363 17.2525 35.2681 17.3645 33.8831C17.4522 32.7163 17.4522 31.5446 17.3645 30.3778C17.2264 28.2238 15.7294 26.7978 13.8293 26.906C11.9292 27.0143 10.757 28.3694 10.686 30.542C10.6226 32.192 11.3804 34.3124 10.3837 35.3763C9.28989 36.5336 7.10978 35.7198 5.41125 35.7496C1.65579 35.8131 0.677734 34.8052 0.677734 31.102C0.677734 26.7343 0.677734 22.3654 0.677734 17.9952ZM20.5973 11.3243C22.322 11.7237 22.9865 10.951 22.9529 9.17031C22.923 7.72935 22.6467 6.87822 20.9071 6.93048C19.3467 6.96781 18.294 7.09473 18.4359 9.07698C18.5292 10.5291 18.5703 11.7163 20.5973 11.3243ZM20.545 20.1977C22.1428 20.474 22.9939 19.97 22.9491 18.1894C22.9155 16.7335 22.7625 15.733 20.8736 15.7741C19.2609 15.8077 18.3313 16.0354 18.4359 17.9654C18.5143 19.4698 18.6412 20.5823 20.545 20.1977ZM9.54374 9.14791C9.81625 7.46057 8.97258 6.96408 7.3039 6.90808C5.57923 6.85955 5.06407 7.44937 5.06407 9.14791C5.06407 10.8465 5.52697 11.4549 7.28151 11.4251C8.93898 11.3915 9.79758 10.951 9.54374 9.14791ZM14.0234 11.3243C15.7331 11.6976 16.2632 10.8726 16.2894 9.20764C16.3155 7.5427 15.7033 6.94168 14.0085 6.91181C12.3137 6.88195 11.7425 7.43444 11.7686 9.15165C11.8022 10.7569 12.1419 11.6901 14.0197 11.3243H14.0234ZM5.1574 17.9915C4.85502 19.6639 5.50084 20.3135 7.25911 20.2799C8.89045 20.2425 9.62213 19.7759 9.61093 18.04C9.61093 16.3938 9.0771 15.7405 7.34497 15.7666C5.70242 15.7965 4.82142 16.2034 5.1574 17.9915ZM11.8769 18.0214C11.5036 19.6378 12.1307 20.306 13.9077 20.2612C15.498 20.2351 16.3118 19.8431 16.2931 18.0736C16.2931 16.4796 15.8638 15.7106 14.0533 15.7629C12.4742 15.8189 11.5036 16.1026 11.8769 18.0214Z" fill="#A3ADBA"/>
<rect x="23.9922" y="26.2769" width="27.9911" height="13.9955" rx="3" fill="#1A3254"/>
<path fill-rule="evenodd" clip-rule="evenodd" d="M25.4766 27.9753C25.4766 27.8582 25.5715 27.7632 25.6887 27.7632H28.9935C29.1825 27.7632 29.2771 27.9917 29.1435 28.1253L27.3568 29.912L25.8387 31.4301C25.705 31.5637 25.4766 31.4691 25.4766 31.2801V27.9753ZM25.4766 38.5779C25.4766 38.695 25.5716 38.79 25.6887 38.79H28.9935C29.1825 38.79 29.2771 38.5615 29.1435 38.4279L27.3568 36.6412L25.8387 35.1231C25.7051 34.9894 25.4766 35.0841 25.4766 35.2731V38.5779ZM50.0749 27.7632C50.1921 27.7632 50.287 27.8582 50.287 27.9753V31.2801C50.287 31.4691 50.0586 31.5638 49.9249 31.4301L48.4068 29.912L46.6201 28.1253C46.4865 27.9917 46.5811 27.7632 46.7701 27.7632H50.0749ZM50.287 38.5779C50.287 38.695 50.1921 38.79 50.0749 38.79H46.7701C46.5811 38.79 46.4865 38.5615 46.6201 38.4279L48.4068 36.6412L49.9249 35.1231C50.0586 34.9894 50.287 35.0841 50.287 35.2731V38.5779ZM37.8813 36.6696C39.8137 36.6696 41.3802 35.1031 41.3802 33.1707C41.3802 31.2383 39.8137 29.6718 37.8813 29.6718C35.9489 29.6718 34.3824 31.2383 34.3824 33.1707C34.3824 35.1031 35.9489 36.6696 37.8813 36.6696Z" fill="white"/>
</svg>
