<svg width="50" height="36" viewBox="0 0 50 36" fill="none" xmlns="http://www.w3.org/2000/svg">
<g clip-path="url(#clip0_395_5720)">
<path d="M24.5244 35.2195C23.8466 35.2195 23.1647 35.2441 22.4705 35.2195C20.3754 35.1291 19.5949 34.4513 19.7387 32.3069C19.8742 30.4132 19.2087 29.304 17.7299 28.1168C14.9365 25.8533 14.1601 22.6656 15.1994 19.2395C16.2387 15.8135 18.6418 13.7349 22.2322 13.2789C24.2533 13.0201 26.3402 12.9051 28.2955 13.5582C31.6846 14.6879 33.7222 17.0787 34.2028 20.6773C34.6506 24.0294 33.3812 26.679 30.7398 28.6919C30.0989 29.1808 29.4663 29.4601 29.417 30.5118C29.2075 35.2277 29.1664 35.2236 24.5244 35.2195ZM19.6195 24.7195V18.9314C18.0749 20.8252 18.0421 22.3862 19.6195 24.7195ZM29.5772 24.9126C31.0068 22.5464 31.0068 20.8047 29.5772 18.6274V24.9126Z" fill="#1B3455"/>
<path d="M34.4083 30.8449C34.3071 29.6722 34.5634 28.4964 35.1436 27.4723C37.4318 23.6272 37.3291 19.737 35.119 15.8591C34.0222 13.9366 34.1577 13.7065 36.3514 13.2998C39.5022 12.7206 42.6489 12.7124 45.3232 14.6965C50.2527 18.3444 50.376 24.5556 45.6395 28.4828C45.1291 28.8468 44.7223 29.3375 44.4594 29.9066C44.1965 30.4757 44.0864 31.1035 44.1401 31.7281C44.2263 34.3983 43.3185 35.2733 40.6688 35.3965C39.991 35.4294 39.3132 35.3965 38.6149 35.3965C34.9177 35.3719 34.4083 34.8625 34.4083 30.8449ZM44.3003 18.8127C44.2058 20.9776 44.0004 22.5509 44.4646 24.416C45.6189 22.5181 45.6354 20.9488 44.3003 18.8127Z" fill="#A4AEBB"/>
<path d="M9.80495 13.2421C10.2774 13.2421 10.7539 13.2421 11.2304 13.2421C14.829 13.2955 15.0385 13.6528 13.5309 16.742C11.7316 20.4392 11.8261 24.1364 14.0361 27.6404C15.2233 29.5137 14.9604 31.4567 14.6236 33.3464C14.2867 35.2361 11.9288 35.8564 8.05085 35.3552C6.63771 35.1744 4.9247 34.9937 5.08901 33.0178C5.2862 30.6968 4.4605 29.259 2.66121 27.7637C-0.0500408 25.5413 -0.69499 21.5483 0.751011 18.3811C2.25863 15.0701 4.80557 13.164 8.58078 13.2421C8.98747 13.2503 9.39415 13.2421 9.80495 13.2421ZM4.9288 19.0014C3.43351 20.7473 3.42118 22.6164 4.9288 24.5266V19.0014Z" fill="#A4AEBB"/>
<path d="M24.6177 10.576C23.9715 10.6011 23.3268 10.4966 22.7216 10.2686C22.1164 10.0406 21.563 9.69369 21.0941 9.24836C20.6251 8.80303 20.2501 8.2683 19.9912 7.6757C19.7322 7.0831 19.5946 6.44464 19.5863 5.79799C19.5781 5.15134 19.6995 4.50958 19.9432 3.91058C20.187 3.31159 20.5483 2.76748 21.0058 2.31036C21.4632 1.85324 22.0076 1.49236 22.6068 1.24902C23.206 1.00568 23.8478 0.884795 24.4945 0.893506C25.7934 0.893441 27.0398 1.40603 27.9629 2.31987C28.8859 3.2337 29.411 4.47492 29.424 5.77376C29.3917 7.03792 28.8749 8.24132 27.9803 9.13512C27.0857 10.0289 25.8819 10.5448 24.6177 10.576Z" fill="#1B3455"/>
<path d="M39.1719 0.946583C41.9941 0.946583 44.2001 3.05807 44.1754 5.76933C44.1684 6.40105 44.0371 7.02521 43.7889 7.60618C43.5407 8.18714 43.1805 8.71351 42.7288 9.15525C42.2772 9.59699 41.7429 9.94543 41.1566 10.1807C40.5702 10.4159 39.9433 10.5334 39.3116 10.5263C36.436 10.5674 34.382 8.55452 34.4108 5.7036C34.3896 5.07283 34.4983 4.44443 34.7301 3.85741C34.9619 3.2704 35.3119 2.73731 35.7584 2.29122C36.2049 1.84514 36.7383 1.49559 37.3255 1.26428C37.9127 1.03297 38.5412 0.924833 39.1719 0.946583Z" fill="#A4AEBB"/>
<path d="M9.80937 0.942573C10.458 0.922128 11.1041 1.03269 11.709 1.26764C12.3139 1.50259 12.8653 1.85711 13.33 2.31C13.7948 2.7629 14.1635 3.30486 14.414 3.90349C14.6646 4.50213 14.7918 5.14513 14.7882 5.79407C14.8457 8.32868 12.611 10.4936 9.89974 10.5264C7.05293 10.5593 4.97019 8.50943 5.01127 5.68726C4.99514 5.05524 5.10863 4.42661 5.34474 3.84012C5.58085 3.25364 5.93459 2.72173 6.38414 2.27718C6.83368 1.83264 7.36952 1.48488 7.95861 1.25535C8.5477 1.02581 9.17756 0.919367 9.80937 0.942573Z" fill="#A4AEBB"/>
</g>
<defs>
<clipPath id="clip0_395_5720">
<rect width="50" height="35.7143" fill="white"/>
</clipPath>
</defs>
</svg>
