<svg width="50" height="37" viewBox="0 0 50 37" fill="none" xmlns="http://www.w3.org/2000/svg">
<g clip-path="url(#clip0_395_5623)">
<path d="M20.0668 6.51379C18.976 5.51604 17.8814 4.52201 16.7943 3.53543C15.9641 2.76478 15.6551 1.86382 16.4667 0.929363C17.2783 -0.00509796 18.2835 0.333691 19.0579 1.07828C20.6662 2.61214 22.2485 4.17578 23.76 5.80271C24.5567 6.66271 25.104 6.79301 25.9602 5.84738C27.4047 4.24279 28.9982 2.77595 30.5022 1.2272C31.3436 0.333691 32.2558 -0.0386045 33.2051 0.92564C34.1545 1.88989 33.6965 2.78712 32.9408 3.53171C31.9058 4.57413 30.8001 5.54582 29.7241 6.5473L29.9475 7.06851H37.3785C40.7962 7.06851 42.6093 8.87042 42.6205 12.329C42.6403 18.5216 42.6403 24.7116 42.6205 30.8991C42.6205 34.2498 40.759 36.0443 37.4679 36.048C28.9796 36.048 20.4912 36.048 12.0029 36.048C8.90912 36.048 7.16305 34.3503 7.16305 31.2603C7.13575 24.76 7.13575 18.2597 7.16305 11.7594C7.16305 8.78107 8.91284 7.09085 11.9024 7.07224C14.5084 7.07224 17.1555 7.07224 19.7801 7.07224L20.0668 6.51379ZM22.5835 31.5767C24.5492 31.5767 26.515 31.5767 28.4807 31.5767C31.7718 31.5506 33.5886 29.9312 33.6928 26.6624C33.8045 23.2038 33.7933 19.7377 33.6928 16.2754C33.6072 13.3231 31.8016 11.5956 28.853 11.5584C24.6758 11.5088 20.4987 11.5088 16.3215 11.5584C13.4735 11.5845 11.6529 13.431 11.612 16.3424C11.5723 19.8171 11.5723 23.2795 11.612 26.7294C11.6492 29.7301 13.4735 31.5209 16.4965 31.5693C18.5292 31.6065 20.5471 31.5767 22.5835 31.5767ZM38.2199 14.9053C37.2185 15.0207 36.5111 15.5233 36.4925 16.5025C36.4789 16.719 36.5107 16.9359 36.5858 17.1394C36.661 17.3429 36.7779 17.5284 36.929 17.6841C37.0801 17.8397 37.262 17.962 37.4632 18.0432C37.6644 18.1244 37.8803 18.1626 38.0971 18.1555C39.1023 18.2001 39.6756 17.6007 39.7091 16.5844C39.7426 15.568 39.1618 15.0245 38.2088 14.9053H38.2199ZM39.7091 22.1986C39.6793 21.1599 39.2065 20.5084 38.1752 20.4935C37.9631 20.4849 37.7513 20.5182 37.552 20.5915C37.3527 20.6648 37.1697 20.7767 37.0136 20.9207C36.8576 21.0646 36.7314 21.238 36.6423 21.4307C36.5532 21.6235 36.5029 21.8319 36.4943 22.0441C36.4858 22.2563 36.5191 22.4681 36.5924 22.6674C36.6657 22.8667 36.7775 23.0496 36.9215 23.2057C37.0655 23.3618 37.2388 23.488 37.4316 23.5771C37.6243 23.6662 37.8328 23.7164 38.0449 23.725C39.0799 23.7883 39.6086 23.1703 39.7165 22.1986H39.7091Z" fill="#A3ADBA"/>
<path d="M22.5835 31.5768C20.5545 31.5768 18.5292 31.5992 16.5002 31.5768C13.4735 31.5247 11.653 29.7452 11.612 26.7333C11.5773 23.2809 11.5773 19.8173 11.612 16.3425C11.6492 13.4275 13.4735 11.5809 16.3364 11.5511C20.5136 11.5064 24.6907 11.5064 28.8679 11.5511C31.8053 11.5883 33.6109 13.3158 33.7077 16.2681C33.8045 19.7304 33.8157 23.1965 33.7077 26.6551C33.5998 29.9239 31.783 31.5433 28.4956 31.5694C26.5038 31.6066 24.5493 31.5768 22.5835 31.5768Z" fill="#193254"/>
<path fill-rule="evenodd" clip-rule="evenodd" d="M23.8828 25.8993C23.2518 25.6659 22.5912 25.3671 21.922 25.0093C21.3149 25.3339 20.715 25.6099 20.1378 25.8327C20.734 26.8631 21.4287 27.3007 22.0299 27.3007C22.6179 27.3007 23.2955 26.882 23.8828 25.8993ZM23.9361 22.8905C23.2721 23.3959 22.5926 23.8444 21.9219 24.2301C21.251 23.8443 20.5711 23.3956 19.9069 22.89C19.6336 22.6819 19.3729 22.4719 19.1254 22.2611C19.1013 21.9614 19.0887 21.6537 19.0887 21.3395C19.0887 21.0382 19.1003 20.7429 19.1225 20.4549C19.3708 20.2432 19.6325 20.0324 19.9069 19.8235C20.5711 19.3179 21.2509 18.8692 21.9219 18.4834C22.5926 18.8691 23.2722 19.3176 23.9361 19.823C24.2968 20.0976 24.6355 20.3757 24.9509 20.6543C24.9642 20.8787 24.9711 21.1073 24.9711 21.3395C24.9711 21.5842 24.9635 21.825 24.9487 22.0611C24.6339 22.3391 24.296 22.6165 23.9361 22.8905ZM24.5211 23.3358C23.8999 23.8087 23.2619 24.2364 22.625 24.6134C23.1624 24.8903 23.6883 25.1243 24.1895 25.3124C24.4778 24.6807 24.7024 23.9274 24.8354 23.0916C24.7324 23.1733 24.6276 23.2548 24.5211 23.3358ZM24.8889 25.5499C25.2849 24.6589 25.5579 23.5792 25.6609 22.3963C25.8484 22.2285 26.0282 22.0602 26.2001 21.8919C26.7139 22.4698 27.1154 23.0301 27.393 23.5446C27.6959 24.1063 27.8349 24.5837 27.8378 24.953C27.8407 25.3191 27.7128 25.5277 27.5571 25.6462C27.4013 25.7648 27.1273 25.8621 26.6463 25.8599C26.1816 25.8578 25.5867 25.7607 24.8889 25.5499ZM28.1421 26.0916C29.2224 25.2693 28.572 23.3638 26.7202 21.3567C28.572 19.3497 29.2224 17.4442 28.1421 16.6219C27.4436 16.0902 26.1503 16.1093 24.6106 16.5701C23.9469 15.3785 23.0355 14.6431 22.0299 14.6431C21.0084 14.6431 20.0842 15.4019 19.4179 16.6269C17.7969 16.1112 16.4273 16.0685 15.7009 16.6214C14.6205 17.4438 15.2711 19.3495 17.1232 21.3567C15.271 23.364 14.6204 25.2697 15.7009 26.0921C16.4296 26.6468 17.806 26.602 19.434 26.0814C20.099 27.2892 21.0166 28.0359 22.0299 28.0359C23.0272 28.0359 23.9317 27.3126 24.5941 26.1384C26.141 26.6041 27.4411 26.6252 28.1421 26.0916ZM24.8416 19.6268C24.7114 18.7883 24.4892 18.0317 24.2029 17.3961C23.6977 17.585 23.1672 17.8208 22.625 18.1001C23.2619 18.4771 23.8999 18.9048 24.5212 19.3777C24.6298 19.4603 24.7366 19.5434 24.8416 19.6268ZM21.922 17.7042C22.5971 17.3432 23.2636 17.0422 23.8996 16.808C23.3085 15.805 22.6236 15.3783 22.0299 15.3783C21.4233 15.3783 20.7214 15.8239 20.1216 16.8746C20.7037 17.0984 21.3092 17.3766 21.922 17.7042ZM19.8256 17.4666C20.2749 17.6426 20.7423 17.8545 21.2188 18.1001C20.5816 18.4772 19.9433 18.9051 19.3218 19.3782L19.2502 19.4329C19.378 18.7018 19.5763 18.0373 19.8256 17.4666ZM19.1318 17.2186C18.7756 18.0486 18.5245 19.0355 18.415 20.113C18.1425 20.3483 17.885 20.585 17.6434 20.8216C17.1293 20.2435 16.7276 19.6831 16.45 19.1684C16.1471 18.6067 16.0081 18.1293 16.0052 17.76C16.0023 17.3939 16.1302 17.1853 16.2859 17.0667C16.4417 16.9482 16.7157 16.8508 17.1967 16.853C17.6818 16.8553 18.309 16.9611 19.0469 17.1916C19.0751 17.2005 19.1034 17.2094 19.1318 17.2186ZM16.45 23.5451C16.7276 23.0304 17.1293 22.4699 17.6434 21.8919C17.8861 22.1296 18.1449 22.3674 18.4189 22.6039C18.5317 23.6797 18.7859 24.6641 19.1449 25.4907C19.1121 25.5013 19.0794 25.5117 19.0468 25.5218C18.3089 25.7524 17.6818 25.8582 17.1966 25.8604C16.7157 25.8626 16.4417 25.7653 16.2859 25.6468C16.1301 25.5282 16.0023 25.3196 16.0052 24.9535C16.0081 24.5842 16.1471 24.1068 16.45 23.5451ZM19.2573 23.286C19.3875 24.014 19.5877 24.6749 19.8386 25.2418C20.2838 25.0668 20.7469 24.8566 21.2188 24.6134C20.5817 24.2363 19.9433 23.8084 19.3218 23.3353L19.2573 23.286ZM18.3549 21.1514C18.2841 21.2199 18.2148 21.2884 18.1469 21.3567C18.2149 21.4253 18.2845 21.4939 18.3554 21.5627C18.3541 21.4886 18.3534 21.4142 18.3534 21.3395C18.3534 21.2766 18.3539 21.2139 18.3549 21.1514ZM26.6463 16.8536C26.1846 16.8557 25.5943 16.9516 24.9024 17.1596C25.2952 18.054 25.5647 19.136 25.664 20.32C25.8504 20.4869 26.0292 20.6543 26.2001 20.8215C26.7139 20.2437 27.1154 19.6834 27.3929 19.1689C27.6959 18.6072 27.8348 18.1298 27.8378 17.7605C27.8406 17.3944 27.7128 17.1858 27.557 17.0672C27.4012 16.9487 27.1273 16.8514 26.6463 16.8536ZM22.0053 22.7838C22.7304 22.7838 23.3183 22.1959 23.3183 21.4707C23.3183 20.7456 22.7304 20.1577 22.0053 20.1577C21.2801 20.1577 20.6922 20.7456 20.6922 21.4707C20.6922 22.1959 21.2801 22.7838 22.0053 22.7838Z" fill="white"/>
</g>
<defs>
<clipPath id="clip0_395_5623">
<rect width="50" height="35.7143" fill="white" transform="translate(0 0.357422)"/>
</clipPath>
</defs>
</svg>
