<svg width="28" height="37" viewBox="0 0 28 37" fill="none" xmlns="http://www.w3.org/2000/svg">
<path d="M14.289 36.3614C10.5962 36.3614 6.89973 36.3614 3.20322 36.3614C2.45645 36.3614 1.37363 36.7572 1.09733 35.749C0.79862 34.6587 0.477509 33.266 1.3475 32.3886C2.04946 31.6829 2.03452 31.022 2.03826 30.2453C2.03826 26.8288 2.09427 23.4161 2.01586 20.0034C1.98225 18.5098 2.27349 17.0424 1.13093 15.5227C-0.179649 13.7492 1.1272 11.9158 3.31524 11.9158C10.585 11.9158 17.8549 11.9158 25.1209 11.9158C25.905 11.9158 27.0215 11.4528 27.3612 12.6029C27.701 13.7529 27.9587 15.0373 27.0476 15.9447C26.4539 16.5384 26.4539 17.0947 26.4502 17.7519C26.4502 21.9836 26.4502 26.204 26.4502 30.4133C26.413 30.7736 26.4534 31.1376 26.5687 31.4808C26.684 31.8241 26.8715 32.1387 27.1185 32.4035C27.94 33.3108 27.7197 34.6438 27.3164 35.764C26.943 36.7684 25.9274 36.3352 25.1881 36.3427C21.5588 36.38 17.9258 36.3614 14.289 36.3614ZM12.6051 25.4137C11.8956 26.9931 11.2795 28.3224 10.7045 29.6666C10.4021 30.3723 9.77106 31.1601 10.7419 31.7986C11.6492 32.3923 12.2354 31.6156 12.7992 31.0966C14.5467 29.5322 16.3202 27.9938 17.9967 26.3584C18.7846 25.5892 20.3752 25.1001 19.9495 23.7447C19.5239 22.3893 18.0266 23.0465 16.9961 22.9979C15.9655 22.9494 15.917 22.5573 16.2904 21.7508C16.8504 20.5062 17.3831 19.2554 17.8885 17.9983C18.1013 17.4681 18.176 16.9117 17.5897 16.5047C17.0035 16.0978 16.548 16.3591 16.0962 16.7512C13.7065 18.8944 11.3194 21.0376 8.93468 23.1809C8.49035 23.5804 8.18791 24.0359 8.41941 24.6408C8.65091 25.2457 9.21099 25.3876 9.77853 25.3876C10.6261 25.4324 11.4737 25.4137 12.6051 25.4137Z" fill="#193254"/>
<path d="M8.56827 5.24728C7.59 5.24728 6.60426 5.29956 5.62973 5.22861C4.9315 5.17634 4.29674 4.90377 4.28181 4.01138C4.27116 3.85419 4.29447 3.69655 4.35015 3.54917C4.40584 3.40179 4.4926 3.26812 4.60453 3.15725C4.71647 3.04637 4.85096 2.96089 4.99886 2.90662C5.14677 2.85234 5.30462 2.83053 5.46171 2.84268C6.3765 2.82028 6.79096 2.42823 7.22035 1.62171C7.88124 0.378342 9.69216 0.423148 10.1178 1.69266C10.4315 2.61118 10.8907 2.75307 11.686 2.81281C12.3581 2.87629 13.1161 3.14886 13.1012 3.99271C13.1012 4.92991 12.261 5.15767 11.5217 5.21741C10.5472 5.29582 9.56147 5.23608 8.57947 5.23608L8.56827 5.24728Z" fill="#A9B3BF"/>
<path d="M19.7258 5.25487C18.7438 5.25487 17.7618 5.30341 16.7872 5.2362C16.1002 5.19513 15.4356 4.96737 15.3945 4.07498C15.3534 3.18259 15.9695 2.83907 16.664 2.82414C17.5266 2.82414 17.8775 2.43208 18.2621 1.67411C18.9043 0.430737 20.7713 0.397132 21.182 1.6293C21.518 2.64491 22.0819 2.74946 22.8996 2.85401C23.5119 2.93615 24.1541 3.19379 24.184 3.95549C24.2176 4.82921 23.5082 5.12792 22.8398 5.1914C21.8093 5.28848 20.7638 5.21753 19.7258 5.21753V5.25487Z" fill="#A9B3BF"/>
<path d="M8.72572 7.50635H11.8547C12.4596 7.50635 12.9748 7.68931 13.0831 8.35767C13.1063 8.49706 13.1003 8.63977 13.0654 8.77671C13.0305 8.91366 12.9675 9.04185 12.8805 9.15315C12.7934 9.26446 12.6841 9.35644 12.5596 9.42326C12.4351 9.49008 12.298 9.53027 12.1571 9.5413C9.85424 9.85737 7.52045 9.8787 5.21217 9.60477C5.07139 9.59381 4.93445 9.55362 4.81008 9.48675C4.68571 9.41989 4.57666 9.32783 4.48987 9.21645C4.40308 9.10507 4.34048 8.97681 4.30605 8.83988C4.27162 8.70294 4.26612 8.56032 4.2899 8.42114C4.33098 7.69304 4.79771 7.50635 5.41006 7.50635H8.72572Z" fill="#A9B3BF"/>
<path d="M19.6065 9.71662C18.6245 9.71662 17.6425 9.76889 16.668 9.69795C15.9511 9.64194 15.3574 9.32456 15.3985 8.4247C15.4396 7.52484 16.0557 7.50244 16.7053 7.50244C18.7266 7.50244 20.7479 7.50244 22.7691 7.50244C23.4151 7.50244 24.0722 7.56965 24.1693 8.36123C24.2776 9.24242 23.5794 9.58593 22.9073 9.64941C21.8133 9.75022 20.708 9.67554 19.6065 9.67554V9.71662Z" fill="#A9B3BF"/>
<path d="M12.6045 25.414C11.4844 25.414 10.6256 25.414 9.778 25.414C9.21045 25.414 8.65784 25.2534 8.41888 24.6672C8.17991 24.081 8.48982 23.6068 8.93415 23.2073C11.3238 21.0516 13.711 18.9059 16.0957 16.7701C16.5325 16.378 16.9918 16.1167 17.5892 16.5237C18.1866 16.9306 18.1008 17.487 17.8879 18.0172C17.3901 19.2792 16.8574 20.5301 16.2898 21.7697C15.9165 22.5762 15.9165 22.9758 17.0105 23.0168C18.1045 23.0579 19.5383 22.3933 19.9639 23.7636C20.3896 25.1339 18.799 25.6305 18.0111 26.3773C16.3346 28.0127 14.5611 29.5511 12.8136 31.1155C12.2349 31.6346 11.6636 32.4112 10.7563 31.8175C9.78547 31.179 10.4165 30.3912 10.7189 29.6855C11.279 28.3226 11.8951 26.9934 12.6045 25.414Z" fill="#A9B3BF"/>
</svg>
