<svg width="46" height="37" viewBox="0 0 46 37" fill="none" xmlns="http://www.w3.org/2000/svg">
<path d="M29.8104 36.5529C26.2627 36.5529 22.715 36.5868 19.1673 36.5529C15.0321 36.4964 12.8289 32.6813 14.9417 29.1035C17.3144 25.1 19.8038 21.1607 22.2895 17.2213C22.8751 16.3468 23.1679 15.3089 23.1256 14.2573C23.0615 12.2123 23.1256 10.1598 23.1067 8.111C23.1067 6.75519 23.5022 5.32783 21.6003 4.65369C20.7567 4.35993 20.7303 3.21502 21.0165 2.32622C21.3103 1.283 22.1464 0.883785 23.1481 0.857422C25.5133 0.857422 27.8784 0.857422 30.2436 0.857422H36.2204C37.4821 0.857422 38.4462 1.33196 38.6797 2.6501C38.8831 3.81007 38.4537 4.77797 37.241 5.11316C36.4501 5.32783 36.5405 5.86638 36.5405 6.40118C36.5405 9.3237 36.5405 12.2425 36.5405 15.1612C36.5405 15.9822 36.951 16.566 37.3427 17.1949C39.6928 20.995 42.0278 24.8063 44.4118 28.5875C45.5416 30.4065 45.9182 32.2557 44.8298 34.2028C43.7414 36.1499 41.9901 36.6018 39.915 36.5642C36.5368 36.5114 33.1736 36.5529 29.8104 36.5529ZM35.7835 23.1379C35.1923 22.1587 34.8307 21.3603 34.2959 20.7087C32.4128 18.4227 31.8329 15.8391 32.0739 12.9279C32.2471 10.8339 32.1191 8.71359 32.1003 6.60831C32.1003 6.20157 32.3187 5.58016 31.8103 5.44834C30.5486 5.10764 29.2192 5.10764 27.9575 5.44834C27.144 5.67808 27.5809 6.77026 27.5809 7.4557C27.6449 12.8074 28.2588 18.2833 24.1499 22.701C24.0935 22.7575 24.1499 22.9157 24.1499 23.1228L35.7835 23.1379Z" fill="#1A3355"/>
<path d="M9.63428 0.947963C11.7509 0.947963 13.8599 0.989391 15.9878 0.932899C17.2833 0.899004 18.2022 1.35471 18.5111 2.63143C18.6579 3.11787 18.608 3.64253 18.3721 4.09256C18.1362 4.5426 17.733 4.88207 17.2494 5.03799C16.2326 5.4146 16.4171 6.1377 16.4133 6.8495C16.4133 10.5177 16.2326 14.1935 16.4623 17.8466C16.6619 21.0478 15.9388 23.8084 14.003 26.3355C12.9447 27.7177 12.0032 29.194 11.9128 31.0319C11.8789 31.7324 11.4006 31.9094 10.783 32.0148C6.6515 32.7342 2.99835 29.8116 2.93809 25.586C2.86653 19.4359 2.90419 13.2821 2.93809 7.13196C2.93809 6.15653 2.90043 5.4033 1.73669 4.95137C0.678407 4.54086 0.520229 3.42608 0.798923 2.36403C1.07762 1.30198 1.83461 0.925367 2.90796 0.940431C5.14881 0.97056 7.39343 0.951729 9.63428 0.947963ZM11.894 8.70997C11.894 7.95675 11.894 7.20352 11.894 6.48042C11.894 5.9381 11.7433 5.58784 11.1068 5.44097C8.33496 4.79319 7.44616 5.44097 7.44616 8.25804C7.4933 8.87604 7.4933 9.49674 7.44616 10.1147C7.15993 11.7794 7.8755 12.156 9.48364 12.1937C11.3064 12.2162 12.2179 11.7794 11.894 9.82475C11.8613 9.45397 11.8588 9.08116 11.8864 8.70997H11.894Z" fill="#A3ADBA"/>
</svg>
