<svg width="50" height="36" viewBox="0 0 50 36" fill="none" xmlns="http://www.w3.org/2000/svg">
<path d="M45.9413 12.1726C45.9413 17.1737 45.9413 22.1749 45.9413 27.176C45.9413 30.0504 45.0628 31.1503 42.2253 31.8549C37.2487 33.1009 32.2633 34.3254 27.2911 35.5757C25.8863 35.9437 24.4083 35.9511 22.9997 35.5972C17.9484 34.334 12.8972 33.1009 7.83711 31.842C5.12699 31.1675 4.1958 30.0289 4.19141 27.3264C4.19141 22.2522 4.19141 17.178 4.21776 12.1081C7.58674 12.6108 10.7625 13.8267 14.0304 14.7075C16.8372 15.4508 17.4741 15.2403 18.9763 12.7569C20.9089 9.54311 22.8504 6.33791 24.8094 3.10693C25.1213 3.33465 25.275 3.3948 25.3453 3.50221C27.2867 6.58711 29.215 9.6892 31.1564 12.7741C32.7157 15.2575 33.3131 15.4207 36.1286 14.6989C39.401 13.8611 42.5328 12.4948 45.9413 12.1726Z" fill="#1A3254"/>
<path d="M45.9411 12.1728C42.5326 12.4994 39.4008 13.8657 36.1285 14.7035C33.3129 15.4253 32.7156 15.262 31.1563 12.7786C29.2148 9.68946 27.2865 6.58737 25.3451 3.50247C25.2748 3.39506 25.1211 3.33491 24.8092 3.1072C22.8546 6.33817 20.9087 9.55197 18.9717 12.7529C17.4695 15.2363 16.8326 15.4468 14.0258 14.7035C10.7579 13.8442 7.58216 12.6068 4.21318 12.1041C-0.868841 9.97303 -0.868841 9.97303 1.6568 5.01055C4.29225 -0.205418 4.29224 -0.115191 10.0595 0.757002C14.9175 1.48741 19.8019 2.36819 24.6862 2.47561C28.7624 2.56154 32.8605 1.6163 36.9498 1.1308C39.4579 0.817153 41.966 0.477728 44.4741 0.164083C45.559 0.0308909 46.231 0.537879 46.7142 1.48311C47.5356 3.15446 48.4053 4.80432 49.2354 6.47137C50.6674 9.34144 50.171 10.5101 47.0392 11.5713C46.6483 11.7131 46.2091 11.7733 45.9411 12.1728Z" fill="#A2ACB9"/>
</svg>
