<svg width="36" height="37" viewBox="0 0 36 37" fill="none" xmlns="http://www.w3.org/2000/svg">
<path d="M14.6847 36.2471C12.6343 36.2471 10.58 36.1643 8.53706 36.2734C7.19014 36.3487 6.69727 36.0326 6.76123 34.5729C6.88539 31.6006 6.76123 28.617 6.81767 25.6373C6.85405 25.1481 6.78373 24.6569 6.61158 24.1977C6.43943 23.7384 6.16956 23.322 5.82064 22.9773C4.41352 21.5325 3.56323 19.7417 2.93492 17.8341C2.59254 16.7995 2.63769 16.2577 4.00343 16.2878C7.66796 16.3668 11.3325 16.3179 14.997 16.3104C15.6171 16.2577 16.2348 16.4359 16.7315 16.8108C18.353 18.1276 20.2718 18.5076 22.311 18.5038C26.0358 18.5038 29.7643 18.5038 33.4928 18.5038C34.5462 18.5038 35.4379 18.4399 35.5131 19.9335C35.5846 21.3519 35.2724 22.3151 33.8201 22.8193C32.9397 23.124 31.6379 22.2888 31.1864 23.5153C30.8967 24.3468 31.1225 25.3588 31.1187 26.2881C31.1187 30.4004 29.6589 31.8263 25.4752 31.8339H25.2871C22.232 31.8339 22.153 31.8339 22.217 34.7948C22.2433 36.1004 21.7617 36.3261 20.618 36.281C18.6616 36.1869 16.6713 36.2471 14.6847 36.2471Z" fill="#A2ACB9"/>
<path d="M25.7653 2.58518C23.711 2.70557 22.0895 2.68676 20.498 2.9125C15.5166 3.61606 12.6949 7.64554 13.8161 12.5328C14.1133 13.8196 13.7634 13.9851 12.6384 13.9663C9.10684 13.9186 5.57274 13.9186 2.03612 13.9663C0.704251 13.9663 0.0420766 13.5449 0.154947 12.1453C0.252768 10.9828 -0.258912 9.459 1.82919 9.62078C2.46127 9.66969 3.02939 9.62078 3.35671 8.90217C6.56976 1.78756 12.4992 0.0681612 19.6251 0.68895C21.7926 0.828616 23.8965 1.47833 25.7653 2.58518Z" fill="#A2ACB9"/>
<path d="M29.0582 10.6475C29.0582 12.1336 29.0281 13.6235 29.0582 15.1096C29.0808 15.9148 28.7761 16.197 27.9784 16.1819C25.6232 16.1292 23.2567 16.2459 20.909 16.0766C19.4621 16.0736 18.0757 15.4959 17.0547 14.4707C16.0338 13.4455 15.4619 12.0567 15.4649 10.6099C15.4678 9.163 16.0455 7.77658 17.0707 6.75561C18.0959 5.73464 19.4847 5.16275 20.9316 5.16574C23.2943 5.01524 25.6571 5.12812 27.9973 5.08673C28.8212 5.06792 29.0771 5.41405 29.0545 6.1891C29.0319 7.67147 29.0582 9.1576 29.0582 10.6475Z" fill="#193253"/>
<path d="M31.5186 10.5047C31.5186 9.45496 31.5186 8.40903 31.5186 7.35933C31.5186 6.17043 31.1423 4.88747 33.2229 5.03796C35.691 5.21103 35.8566 5.2035 35.8791 7.4421C35.9017 9.6807 35.8189 12.0058 35.8791 14.2858C35.9619 16.6712 34.2651 16.0052 32.952 16.167C31.3982 16.3626 31.4471 15.4484 31.4885 14.3874C31.5562 13.0969 31.5186 11.7989 31.5186 10.5047Z" fill="#1B3354"/>
</svg>
