<svg width="36" height="37" viewBox="0 0 36 37" fill="none" xmlns="http://www.w3.org/2000/svg">
<path d="M24.8344 36.5448C23.9169 36.5822 23.5873 36.1478 23.5199 35.5373C23.4314 34.8569 23.4138 34.1691 23.4675 33.485C23.5648 32.4064 23.1192 32.0094 22.0893 32.1443C21.7813 32.1892 21.4684 32.1892 21.1605 32.1443C19.3778 31.8409 18.6437 32.5525 18.9433 34.3651C18.9939 34.7986 18.9863 35.2369 18.9209 35.6684C18.9204 35.7936 18.8938 35.9173 18.8429 36.0316C18.7921 36.146 18.7179 36.2485 18.6253 36.3327C18.5327 36.4169 18.4236 36.4808 18.3049 36.5206C18.1862 36.5603 18.0605 36.5749 17.9359 36.5635C17.8114 36.5802 17.6848 36.5713 17.5639 36.5375C17.4429 36.5037 17.3301 36.4456 17.2324 36.3667C17.1346 36.2879 17.0539 36.19 16.9952 36.0789C16.9365 35.9679 16.9011 35.8461 16.891 35.7209C16.8008 35.1676 16.7794 34.6053 16.8273 34.0468C16.9809 32.6723 16.6251 32.0394 15.0484 32.1106C12.3931 32.2341 12.3969 32.1106 12.2995 34.7584C12.2695 35.5411 12.4455 36.5336 11.2284 36.5448C10.0112 36.556 10.0112 35.5373 10.1048 34.7883C10.352 32.9158 9.80896 32.1218 7.77536 31.8784C5.94399 31.6536 4.80921 30.1069 4.63694 28.1969C4.52833 26.9872 4.18003 26.4779 2.86174 26.5603C1.87677 26.6202 0.206445 27.1108 0.195209 25.4742C0.183974 23.8376 1.8543 24.3506 2.84676 24.3506C4.09015 24.3769 4.57701 24.0922 4.54331 22.7215C4.47215 19.8415 4.54331 19.8303 1.77566 19.7516C1.02663 19.7516 0.157758 19.7928 0.142778 18.7367C0.127797 17.6806 0.959217 17.6469 1.7382 17.6469C1.8005 17.6525 1.86317 17.6525 1.92546 17.6469C2.74564 17.497 4.02273 18.1112 4.31111 17.2948C4.68562 16.1713 4.48713 14.8492 4.46092 13.6096C4.46092 13.1302 3.98528 13.1227 3.61452 13.1152C3.11641 13.1152 2.62206 13.1152 2.11646 13.1152C1.27381 13.0778 0.154013 13.28 0.142778 12.0217C0.131542 10.7633 1.28504 10.8981 2.09774 10.9805C3.62201 11.1153 4.57701 10.9318 4.71933 8.98436C4.88412 6.90956 6.32599 5.61374 8.41203 5.43397C9.78649 5.30664 10.2846 4.79356 10.0561 3.47152C10.005 3.03669 10.0138 2.5969 10.0824 2.16447C10.1872 1.49409 10.352 0.857422 11.1722 0.857422C12.1085 0.857422 12.2658 1.49409 12.2957 2.23563C12.3257 2.54701 12.3257 2.86054 12.2957 3.17191C12.0448 4.75236 12.5541 5.39278 14.2769 5.28417C16.7112 5.13062 16.715 5.25421 16.8161 2.66258C16.8461 1.84614 16.73 0.857422 17.9097 0.857422C19.0894 0.857422 18.8684 1.87235 18.9696 2.65134C19.0707 3.43033 18.4752 4.74112 19.3441 5.04074C20.4676 5.41525 21.7784 5.21301 23.0106 5.17931C23.4974 5.17931 23.4412 4.66248 23.4525 4.30294C23.4525 3.74117 23.4525 3.1794 23.4525 2.61763C23.4974 1.80494 23.4824 0.857422 24.6285 0.857422C25.7745 0.857422 25.752 1.90606 25.6621 2.66632C25.4786 4.40032 25.7932 5.38529 27.8867 5.48641C29.6806 5.57629 31.0701 7.30654 31.1562 9.25401C31.2199 10.6921 31.7554 11.003 33.0625 10.9618C33.9763 10.9318 35.5642 10.3176 35.5979 11.9131C35.6354 13.6508 33.9501 13.119 33.0063 13.0366C30.7517 12.8418 31.336 14.3399 31.2274 15.5571C31.1188 16.9128 31.2274 17.8341 33.0288 17.6843C33.9501 17.6057 35.6504 17.0027 35.5792 18.8078C35.5081 20.3771 33.9014 19.7703 33.0176 19.6917C31.2274 19.5157 31.1225 20.4782 31.2274 21.8302C31.3322 23.0174 30.6881 24.5866 32.9726 24.3581C33.9351 24.2608 35.6167 23.8226 35.5942 25.4817C35.5717 27.1408 33.9089 26.579 32.9239 26.549C31.6581 26.5078 31.2424 26.8898 31.16 28.1894C31.0326 30.208 29.6057 31.8858 27.6807 31.9682C25.6921 32.0469 25.5535 33.0244 25.6621 34.5674C25.7183 35.3576 25.9318 36.41 24.8344 36.5448ZM19.5913 23.1485C19.5708 22.9778 19.5331 22.8097 19.4789 22.6466C18.2168 19.7366 16.9959 16.8079 15.6589 13.9354C15.1383 12.8119 13.9324 12.8681 13.4118 14.0216C12.1272 16.7855 10.9475 19.5831 9.7453 22.3957C9.45692 23.0698 9.37078 23.7701 10.1722 24.1521C10.9213 24.5079 11.4156 24.1184 11.8351 23.4443C13.041 21.4856 16.0933 21.5418 17.3592 23.5492C17.7037 24.0885 18.1082 24.3806 18.7224 24.2533C18.9772 24.207 19.2062 24.0691 19.3663 23.8656C19.5264 23.6621 19.6064 23.407 19.5913 23.1485ZM22.2877 18.7292C22.2877 20.0325 22.2877 21.3508 22.2877 22.6429C22.2877 23.4406 22.4226 24.1709 23.4113 24.2495C24.4749 24.3357 24.6172 23.5529 24.621 22.7777C24.6472 20.0437 24.6397 17.3135 24.621 14.5796C24.621 13.8718 24.4749 13.1489 23.5499 13.1415C22.6248 13.134 22.3027 13.7931 22.299 14.6395C22.2803 15.9952 22.2877 17.3622 22.2877 18.7292Z" fill="#1A3254"/>
</svg>
