<svg width="16" height="20" viewBox="0 0 16 20" fill="none" xmlns="http://www.w3.org/2000/svg">
<path d="M15 15.8H14.25H15ZM15 7.65399H15.75H15ZM14.1483 5.47986L13.598 5.98942L14.1483 5.47986ZM10.9502 2.02588L10.3999 2.53543L10.9502 2.02588ZM4.2002 19V18.25V19ZM11.8002 19V19.75V19ZM1.21799 17.908L1.88624 17.5675H1.88624L1.21799 17.908ZM2.0918 18.782L2.43229 18.1137L2.0918 18.782ZM2.0918 1.21799L2.43229 1.88624L2.43229 1.88624L2.0918 1.21799ZM1.21799 2.09204L0.549732 1.75155L0.549732 1.75155L1.21799 2.09204ZM10.2168 1.32343L9.80786 1.95213L10.2168 1.32343ZM9.61515 1.06077L9.79863 0.333564L9.79863 0.333564L9.61515 1.06077ZM14.9502 6.73932L14.2189 6.90598L14.9502 6.73932ZM14.7332 6.18499L15.383 5.81046L14.7332 6.18499ZM14.7822 17.908L15.4505 18.2485L14.7822 17.908ZM13.9078 18.782L14.2483 19.4502L13.9078 18.782ZM5 14.25C4.58579 14.25 4.25 14.5858 4.25 15C4.25 15.4142 4.58579 15.75 5 15.75V14.25ZM11 15.75C11.4142 15.75 11.75 15.4142 11.75 15C11.75 14.5858 11.4142 14.25 11 14.25V15.75ZM5 11.25C4.58579 11.25 4.25 11.5858 4.25 12C4.25 12.4142 4.58579 12.75 5 12.75V11.25ZM11 12.75C11.4142 12.75 11.75 12.4142 11.75 12C11.75 11.5858 11.4142 11.25 11 11.25V12.75ZM14.9996 7.75C15.4138 7.75 15.7496 7.41421 15.7496 7C15.7496 6.58579 15.4138 6.25 14.9996 6.25V7.75ZM10.5996 7V6.25V7ZM9.75 1C9.75 0.585786 9.41421 0.25 9 0.25C8.58579 0.25 8.25 0.585786 8.25 1H9.75ZM9.5459 6.89099L9.88639 6.22274L9.5459 6.89099ZM9.10899 6.45401L9.77725 6.11352V6.11352L9.10899 6.45401ZM15.75 15.8V7.65399H14.25V15.8H15.75ZM14.6986 4.9703L11.5005 1.51632L10.3999 2.53543L13.598 5.98942L14.6986 4.9703ZM8.60207 0.25H4.2002V1.75H8.60207V0.25ZM0.25 4.20001V15.8H1.75V4.20001H0.25ZM4.2002 19.75H11.8002V18.25H4.2002V19.75ZM0.25 15.8C0.25 16.3477 0.249417 16.8035 0.279739 17.1747C0.310777 17.5546 0.377889 17.9112 0.549732 18.2485L1.88624 17.5675C1.8401 17.4769 1.79822 17.3396 1.77476 17.0525C1.75058 16.7566 1.75 16.3724 1.75 15.8H0.25ZM4.2002 18.25C3.62778 18.25 3.24345 18.2494 2.94746 18.2252C2.66018 18.2018 2.52282 18.1599 2.43229 18.1137L1.7513 19.4502C2.0886 19.6221 2.44538 19.6892 2.82532 19.7202C3.19655 19.7506 3.6525 19.75 4.2002 19.75V18.25ZM0.549732 18.2485C0.813302 18.7657 1.2337 19.1865 1.7513 19.4502L2.43229 18.1137C2.19725 17.994 2.00617 17.8028 1.88624 17.5675L0.549732 18.2485ZM4.2002 0.25C3.65251 0.25 3.19656 0.249417 2.82534 0.279738C2.44541 0.310769 2.08861 0.377866 1.7513 0.549732L2.43229 1.88624C2.52281 1.84012 2.66016 1.79822 2.94745 1.77476C3.24344 1.75058 3.62777 1.75 4.2002 1.75V0.25ZM1.75 4.20001C1.75 3.62758 1.75058 3.24337 1.77476 2.9475C1.79822 2.66038 1.8401 2.5231 1.88624 2.43253L0.549732 1.75155C0.377889 2.08881 0.310777 2.44546 0.279739 2.82535C0.249417 3.19647 0.25 3.65234 0.25 4.20001H1.75ZM1.7513 0.549732C1.23366 0.813483 0.813285 1.2343 0.549732 1.75155L1.88624 2.43253C2.00618 2.19714 2.19728 2.00599 2.43229 1.88624L1.7513 0.549732ZM11.5005 1.51632C11.176 1.16582 10.9302 0.892775 10.6257 0.694721L9.80786 1.95213C9.91985 2.02498 10.0244 2.12995 10.3999 2.53543L11.5005 1.51632ZM8.60207 1.75C9.15489 1.75 9.30217 1.75531 9.43167 1.78798L9.79863 0.333564C9.44639 0.244689 9.07953 0.25 8.60207 0.25V1.75ZM10.6257 0.694721C10.3716 0.529389 10.0917 0.407519 9.79863 0.333564L9.43167 1.78798C9.56555 1.82176 9.69288 1.87734 9.80786 1.95213L10.6257 0.694721ZM15.75 7.65399C15.75 7.22474 15.7546 6.89356 15.6814 6.57266L14.2189 6.90598C14.2458 7.02388 14.25 7.15622 14.25 7.65399H15.75ZM13.598 5.98942C13.936 6.35443 14.023 6.45467 14.0834 6.55951L15.383 5.81046C15.2187 5.52537 14.9905 5.28551 14.6986 4.9703L13.598 5.98942ZM15.6814 6.57266C15.6206 6.30562 15.5203 6.04863 15.383 5.81046L14.0834 6.55951C14.1454 6.66713 14.1911 6.78388 14.2189 6.90598L15.6814 6.57266ZM14.25 15.8C14.25 16.3725 14.2495 16.7567 14.2253 17.0526C14.2019 17.3398 14.1601 17.477 14.114 17.5675L15.4505 18.2485C15.6224 17.9111 15.6894 17.5544 15.7204 17.1746C15.7506 16.8035 15.75 16.3476 15.75 15.8H14.25ZM11.8002 19.75C12.3479 19.75 12.8037 19.7506 13.1747 19.7202C13.5546 19.6892 13.9111 19.6221 14.2483 19.4502L13.5673 18.1137C13.4767 18.1599 13.3395 18.2018 13.0525 18.2252C12.7567 18.2494 12.3726 18.25 11.8002 18.25V19.75ZM14.114 17.5675C13.9943 17.8023 13.8028 17.9937 13.5673 18.1137L14.2483 19.4502C14.7654 19.1868 15.1867 18.7662 15.4505 18.2485L14.114 17.5675ZM5 15.75H11V14.25H5V15.75ZM5 12.75H11V11.25H5V12.75ZM14.9996 6.25H10.5996V7.75H14.9996V6.25ZM9.75 5.4V1H8.25V5.4H9.75ZM10.5996 6.25C10.3072 6.25 10.1331 6.24941 10.0041 6.23886C9.88385 6.22903 9.87007 6.21442 9.88639 6.22274L9.20541 7.55925C9.43564 7.67656 9.66868 7.71645 9.88183 7.73387C10.0862 7.75058 10.332 7.75 10.5996 7.75V6.25ZM8.25 5.4C8.25 5.66765 8.24942 5.9135 8.26611 6.11788C8.28353 6.33101 8.32339 6.5642 8.44074 6.79451L9.77725 6.11352C9.7856 6.12992 9.77097 6.11612 9.76113 5.99574C9.75058 5.8666 9.75 5.6924 9.75 5.4H8.25ZM9.88639 6.22274C9.83946 6.19883 9.80127 6.16068 9.77725 6.11352L8.44074 6.79451C8.60846 7.12368 8.87601 7.39141 9.20541 7.55925L9.88639 6.22274Z" fill="white"/>
</svg>
