<svg width="15" height="15" viewBox="0 0 15 15" fill="none" xmlns="http://www.w3.org/2000/svg">
<g clip-path="url(#clip0_567_2935)">
<path d="M6.875 10.625H8.125V6.875H6.875V10.625ZM7.5 1.25C4.04688 1.25 1.25 4.04688 1.25 7.5C1.25 10.9531 4.04688 13.75 7.5 13.75C10.9531 13.75 13.75 10.9531 13.75 7.5C13.75 4.04688 10.9531 1.25 7.5 1.25ZM7.5 12.5C4.74375 12.5 2.5 10.2563 2.5 7.5C2.5 4.74375 4.74375 2.5 7.5 2.5C10.2563 2.5 12.5 4.74375 12.5 7.5C12.5 10.2563 10.2563 12.5 7.5 12.5ZM6.875 5.625H8.125V4.375H6.875V5.625Z" fill="#383434"/>
</g>
<defs>
<clipPath id="clip0_567_2935">
<rect width="15" height="15" fill="white"/>
</clipPath>
</defs>
</svg>
