<svg width="25" height="25" viewBox="0 0 25 25" fill="none" xmlns="http://www.w3.org/2000/svg">
<path d="M17.5 20.8877C17.5 19.2308 15.2614 17.8877 12.5 17.8877C9.73858 17.8877 7.5 19.2308 7.5 20.8877M21.5 17.8876C21.5 16.6574 20.2659 15.6001 18.5 15.1372M3.5 17.8876C3.5 16.6574 4.7341 15.6001 6.5 15.1372M18.5 11.1238C19.1137 10.5745 19.5 9.7762 19.5 8.8877C19.5 7.23084 18.1569 5.8877 16.5 5.8877C15.7316 5.8877 15.0308 6.17655 14.5 6.65159M6.5 11.1238C5.88625 10.5745 5.5 9.7762 5.5 8.8877C5.5 7.23084 6.84315 5.8877 8.5 5.8877C9.26835 5.8877 9.96924 6.17655 10.5 6.65159M12.5 14.8877C10.8431 14.8877 9.5 13.5445 9.5 11.8877C9.5 10.2308 10.8431 8.8877 12.5 8.8877C14.1569 8.8877 15.5 10.2308 15.5 11.8877C15.5 13.5445 14.1569 14.8877 12.5 14.8877Z" stroke="white" stroke-width="1.5" stroke-linecap="round" stroke-linejoin="round"/>
</svg>
