<svg width="15" height="19" viewBox="0 0 15 19" fill="none" xmlns="http://www.w3.org/2000/svg">
<path d="M1.71799 2.09204L2.38624 2.43253L1.71799 2.09204ZM2.5918 1.21799L2.93229 1.88624L2.5918 1.21799ZM5.9221 16.0519L5.50607 15.4278L5.9221 16.0519ZM3.76367 17.2455L3.86259 17.989H3.86259L3.76367 17.2455ZM1.70412 16.1432L1.03066 16.4733L1.70412 16.1432ZM9.07732 16.0519L9.49334 15.4279L9.07732 16.0519ZM8.16602 15.5181L8.41595 14.8109L8.16602 15.5181ZM6.83318 15.5181L7.08311 16.2252L6.83318 15.5181ZM13.2959 16.1432L13.9694 16.4733L13.2959 16.1432ZM11.2366 17.2455L11.1376 17.989L11.2366 17.2455ZM13.2822 2.09204L12.614 2.43253L13.2822 2.09204ZM12.4078 1.21799L12.7483 0.549732V0.549732L12.4078 1.21799ZM12.75 4.19995V13.6851H14.25V4.19995H12.75ZM2.25 13.6851V4.19995H0.75V13.6851H2.25ZM4.7002 1.75H10.3002V0.25H4.7002V1.75ZM2.25 4.19995C2.25 3.62752 2.25058 3.24333 2.27476 2.94747C2.29822 2.66037 2.34009 2.5231 2.38624 2.43253L1.04973 1.75155C0.877892 2.0888 0.810778 2.44544 0.779739 2.82531C0.749417 3.19643 0.75 3.65228 0.75 4.19995H2.25ZM4.7002 0.25C4.15251 0.25 3.69656 0.249417 3.32534 0.279738C2.94541 0.310769 2.58861 0.377866 2.2513 0.549732L2.93229 1.88624C3.02281 1.84012 3.16016 1.79822 3.44745 1.77476C3.74344 1.75058 4.12777 1.75 4.7002 1.75V0.25ZM2.38624 2.43253C2.50618 2.19714 2.69728 2.00598 2.93229 1.88624L2.2513 0.549732C1.73366 0.813483 1.31329 1.2343 1.04973 1.75155L2.38624 2.43253ZM5.50607 15.4278C4.93119 15.8111 4.53039 16.0778 4.21596 16.2592C3.89573 16.4438 3.74392 16.4915 3.66476 16.5021L3.86259 17.989C4.24315 17.9383 4.60432 17.7667 4.96526 17.5586C5.332 17.3471 5.78054 17.0476 6.33812 16.6759L5.50607 15.4278ZM0.75 13.6851C0.75 14.3553 0.749622 14.8946 0.777096 15.3171C0.804135 15.7328 0.861691 16.1286 1.03066 16.4733L2.37757 15.8131C2.34243 15.7414 2.29792 15.5886 2.27393 15.2197C2.25038 14.8575 2.25 14.376 2.25 13.6851H0.75ZM3.66476 16.5021C3.13223 16.5729 2.61405 16.2956 2.37757 15.8131L1.03066 16.4733C1.55085 17.5346 2.69091 18.1449 3.86259 17.989L3.66476 16.5021ZM9.49334 15.4279C9.07658 15.15 8.76066 14.9328 8.41595 14.8109L7.91608 16.2252C8.04192 16.2697 8.17669 16.3529 8.66129 16.6759L9.49334 15.4279ZM6.33812 16.6759C6.82291 16.3527 6.95732 16.2697 7.08311 16.2252L6.58324 14.8109C6.23848 14.9328 5.92265 15.1501 5.50607 15.4278L6.33812 16.6759ZM8.41595 14.8109C7.82297 14.6013 7.17622 14.6013 6.58324 14.8109L7.08311 16.2252C7.35265 16.1299 7.64655 16.1299 7.91608 16.2252L8.41595 14.8109ZM12.75 13.6851C12.75 14.376 12.7496 14.8575 12.7261 15.2197C12.7021 15.5886 12.6576 15.7414 12.6224 15.8131L13.9694 16.4733C14.1383 16.1285 14.1959 15.7328 14.2229 15.3171C14.2504 14.8946 14.25 14.3552 14.25 13.6851H12.75ZM8.66129 16.6759C9.21899 17.0477 9.66772 17.3472 10.0347 17.5587C10.3959 17.7668 10.7572 17.9383 11.1376 17.989L11.3355 16.5021C11.2562 16.4915 11.1041 16.4437 10.7837 16.2591C10.4691 16.0778 10.0681 15.811 9.49334 15.4279L8.66129 16.6759ZM12.6224 15.8131C12.3859 16.2956 11.8679 16.5729 11.3355 16.5021L11.1376 17.989C12.3094 18.1449 13.4492 17.5345 13.9694 16.4733L12.6224 15.8131ZM14.25 4.19995C14.25 3.65235 14.2506 3.1965 14.2204 2.82543C14.1894 2.4456 14.1224 2.08889 13.9505 1.75155L12.614 2.43253C12.6601 2.52302 12.7019 2.66021 12.7253 2.94735C12.7495 3.24326 12.75 3.62745 12.75 4.19995H14.25ZM10.3002 1.75C10.8726 1.75 11.2567 1.75058 11.5525 1.77476C11.8395 1.79821 11.9767 1.84008 12.0673 1.88624L12.7483 0.549732C12.4111 0.377909 12.0545 0.310784 11.6747 0.279741C11.3036 0.249416 10.8479 0.25 10.3002 0.25V1.75ZM13.9505 1.75155C13.6867 1.2338 13.2654 0.813227 12.7483 0.549732L12.0673 1.88624C12.3028 2.00624 12.4943 2.19764 12.614 2.43253L13.9505 1.75155Z" fill="white"/>
</svg>
