<svg width="102" height="102" viewBox="0 0 102 102" fill="none" xmlns="http://www.w3.org/2000/svg">
<rect x="1.04854" y="1.04854" width="99.9029" height="99.9029" rx="5.95146" fill="white"/>
<path fill-rule="evenodd" clip-rule="evenodd" d="M51.534 59.2054C64.8134 59.2054 75.5786 48.4403 75.5786 35.1608C75.5786 21.8813 64.8134 11.1162 51.534 11.1162C38.2545 11.1162 27.4894 21.8813 27.4894 35.1608C27.4894 48.4403 38.2545 59.2054 51.534 59.2054ZM12.2558 96.3568C12.2558 80.1866 22.1015 66.3161 36.125 60.4129C40.2543 63.7536 45.5121 65.7545 51.2373 65.7545C56.9624 65.7545 62.2202 63.7536 66.3494 60.413C80.3729 66.3162 90.2186 80.1867 90.2186 96.3568V99.9999H12.2558V96.3568Z" fill="#D9D9D9"/>
<rect x="1.04854" y="1.04854" width="99.9029" height="99.9029" rx="5.95146" stroke="#D9D9D9" stroke-width="1.90291"/>
</svg>
