<svg width="40" height="40" viewBox="0 0 40 40" fill="none" xmlns="http://www.w3.org/2000/svg">
<path d="M6.10352e-05 0H30.0001C35.5229 0 40.0001 4.47715 40.0001 10V40H10.0001C4.47721 40 6.10352e-05 35.5228 6.10352e-05 30V0Z" fill="#031E80"/>
<path d="M12 27.9999H11.5C11.5 28.1325 11.5527 28.2597 11.6464 28.3534C11.7402 28.4472 11.8674 28.4999 12 28.4999L12 27.9999ZM12 23.9999L11.6464 23.6463C11.5527 23.7401 11.5 23.8673 11.5 23.9999H12ZM22.8686 13.1312L22.5151 12.7777L22.5151 12.7777L22.8686 13.1312ZM25.1313 13.1312L24.7778 13.4848V13.4848L25.1313 13.1312ZM26.8686 14.8685L27.2222 14.5149V14.5149L26.8686 14.8685ZM26.8686 17.1312L26.5151 16.7777L26.5151 16.7777L26.8686 17.1312ZM16 27.9998L16 28.4998C16.1326 28.4998 16.2598 28.4472 16.3536 28.3534L16 27.9998ZM27.5369 15.6909L28.0124 15.5364L27.5369 15.6909ZM27.5369 16.3088L27.0613 16.1543V16.1543L27.5369 16.3088ZM23.691 12.463L23.5365 11.9875L23.691 12.463ZM24.3091 12.463L24.4636 11.9875L24.3091 12.463ZM20.3536 15.6463C20.1583 15.4511 19.8417 15.4511 19.6464 15.6463C19.4512 15.8416 19.4512 16.1582 19.6464 16.3534L20.3536 15.6463ZM23.6464 20.3534C23.8417 20.5487 24.1583 20.5487 24.3536 20.3534C24.5488 20.1582 24.5488 19.8416 24.3536 19.6463L23.6464 20.3534ZM12.5 27.9999V23.9999H11.5V27.9999H12.5ZM12.3536 24.3534L23.2222 13.4848L22.5151 12.7777L11.6464 23.6463L12.3536 24.3534ZM24.7778 13.4848L26.5151 15.222L27.2222 14.5149L25.4849 12.7777L24.7778 13.4848ZM26.5151 16.7777L15.6464 27.6463L16.3536 28.3534L27.2222 17.4848L26.5151 16.7777ZM16 27.4998L12 27.4999L12 28.4999L16 28.4998L16 27.4998ZM26.5151 15.222C26.7189 15.4259 26.8503 15.5578 26.9423 15.6662C27.0305 15.7701 27.0528 15.819 27.0613 15.8454L28.0124 15.5364C27.9468 15.3344 27.8329 15.1702 27.7046 15.019C27.58 14.8722 27.4143 14.7071 27.2222 14.5149L26.5151 15.222ZM27.2222 17.4848C27.4144 17.2926 27.58 17.1275 27.7046 16.9807C27.833 16.8295 27.9468 16.6653 28.0124 16.4633L27.0613 16.1543C27.0528 16.1807 27.0305 16.2296 26.9423 16.3336C26.8503 16.4419 26.7189 16.5738 26.5151 16.7777L27.2222 17.4848ZM27.0613 15.8454C27.094 15.9458 27.094 16.0539 27.0613 16.1543L28.0124 16.4633C28.1103 16.1621 28.1103 15.8376 28.0124 15.5364L27.0613 15.8454ZM23.2222 13.4848C23.426 13.2809 23.5579 13.1496 23.6663 13.0576C23.7702 12.9694 23.8191 12.9471 23.8455 12.9385L23.5365 11.9875C23.3346 12.0531 23.1703 12.1669 23.0191 12.2952C22.8724 12.4198 22.7073 12.5855 22.5151 12.7777L23.2222 13.4848ZM25.4849 12.7777C25.2927 12.5855 25.1276 12.4198 24.981 12.2953C24.8298 12.1669 24.6656 12.0531 24.4636 11.9875L24.1546 12.9385C24.1809 12.9471 24.2298 12.9694 24.3337 13.0576C24.4421 13.1496 24.5739 13.2809 24.7778 13.4848L25.4849 12.7777ZM23.8455 12.9385C23.9459 12.9059 24.0542 12.9059 24.1546 12.9385L24.4636 11.9875C24.1623 11.8896 23.8378 11.8896 23.5365 11.9875L23.8455 12.9385ZM19.6464 16.3534L23.6464 20.3534L24.3536 19.6463L20.3536 15.6463L19.6464 16.3534Z" fill="white"/>
</svg>
