<svg width="24" height="29" viewBox="0 0 24 29" fill="none" xmlns="http://www.w3.org/2000/svg">
																		<path d="M11 23.25C11 23.8023 11.4477 24.25 12 24.25C12.5523 24.25 13 23.8023 13 23.25H11ZM12 14.5L12.5547 13.668C12.2188 13.444 11.7812 13.444 11.4453 13.6679L12 14.5ZM7.0703 16.5846C6.61077 16.891 6.4866 17.5118 6.79295 17.9714C7.0993 18.4309 7.72017 18.5551 8.1797 18.2487L7.0703 16.5846ZM15.8203 18.2487C16.2798 18.5551 16.9007 18.4309 17.2071 17.9714C17.5134 17.5118 17.3892 16.891 16.9297 16.5846L15.8203 18.2487ZM20.8419 7.29983L20.1347 8.00694L20.8419 7.29983ZM16.2839 2.74183L16.991 2.03472L16.2839 2.74183ZM6.45862 27.625V26.625V27.625ZM17.542 27.625V28.625V27.625ZM2.10956 26.0325L3.00057 25.5785L2.10956 26.0325ZM3.38387 27.3071L3.83786 26.4161L3.38387 27.3071ZM3.38387 1.6929L3.83786 2.5839H3.83786L3.38387 1.6929ZM2.10956 2.96756L1.21856 2.51357L1.21856 2.51357L2.10956 2.96756ZM15.2328 1.80483L14.7103 2.65747L15.2328 1.80483ZM14.3898 1.45559L14.6233 0.483218V0.483218L14.3898 1.45559ZM22.1272 9.19387L23.0995 8.96043L22.1272 9.19387ZM21.7782 8.35084L20.9255 8.87334L21.7782 8.35084ZM21.8907 26.0325L22.7818 26.4864L21.8907 26.0325ZM20.6155 27.3071L20.1615 26.4161L20.6155 27.3071ZM22.2086 11.125C22.7609 11.125 23.2086 10.6773 23.2086 10.125C23.2086 9.57272 22.7609 9.125 22.2086 9.125V11.125ZM18.1253 10.125V9.125V10.125ZM14.4583 1.375C14.4583 0.822715 14.0106 0.375 13.4583 0.375C12.906 0.375 12.4583 0.822715 12.4583 1.375H14.4583ZM15.0505 9.80706L15.5045 8.91605L15.0505 9.80706ZM13.7762 8.53245L14.6672 8.07846L13.7762 8.53245ZM13 23.25V14.5H11V23.25H13ZM8.1797 18.2487L12.5547 15.3321L11.4453 13.6679L7.0703 16.5846L8.1797 18.2487ZM11.4453 15.3321L15.8203 18.2487L16.9297 16.5846L12.5547 13.668L11.4453 15.3321ZM23.2083 22.9584V10.5997H21.2083V22.9584H23.2083ZM21.549 6.59272L16.991 2.03472L15.5767 3.44894L20.1347 8.00694L21.549 6.59272ZM12.984 0.375H6.45862V2.375H12.984V0.375ZM0.791667 6.04168V22.9583H2.79167V6.04168H0.791667ZM6.45862 28.625H17.542V26.625H6.45862V28.625ZM0.791667 22.9583C0.791667 23.7586 0.790889 24.4189 0.834725 24.9554C0.879516 25.5036 0.97581 26.01 1.21856 26.4864L3.00057 25.5785C2.92542 25.431 2.86277 25.2171 2.82808 24.7926C2.79244 24.3564 2.79167 23.7916 2.79167 22.9583H0.791667ZM6.45862 26.625C5.6254 26.625 5.06044 26.6242 4.62408 26.5886C4.19934 26.5539 3.98531 26.4912 3.83786 26.4161L2.92988 28.1981C3.40635 28.4408 3.91294 28.5371 4.46122 28.5819C4.9979 28.6258 5.65835 28.625 6.45862 28.625V26.625ZM1.21856 26.4864C1.59395 27.2232 2.1927 27.8225 2.92988 28.1981L3.83786 26.4161C3.47743 26.2324 3.18444 25.9393 3.00057 25.5785L1.21856 26.4864ZM6.45862 0.375C5.65837 0.375 4.99791 0.374223 4.46125 0.418056C3.91297 0.462838 3.40636 0.559112 2.92988 0.801892L3.83786 2.5839C3.98529 2.50879 4.19931 2.44611 4.62406 2.41142C5.06042 2.37578 5.62538 2.375 6.45862 2.375V0.375ZM2.79167 6.04168C2.79167 5.20844 2.79244 4.64365 2.82808 4.20746C2.86277 3.78295 2.92542 3.56904 3.00057 3.42155L1.21856 2.51357C0.975809 2.98999 0.879515 3.4964 0.834725 4.0446C0.790889 4.58112 0.791667 5.24144 0.791667 6.04168H2.79167ZM2.92988 0.801891C2.19265 1.17753 1.59393 1.77686 1.21856 2.51357L3.00057 3.42155C3.18446 3.06065 3.47748 2.76753 3.83786 2.5839L2.92988 0.801891ZM16.991 2.03472C16.5201 1.56388 16.174 1.20877 15.7553 0.952187L14.7103 2.65747C14.8803 2.76162 15.0387 2.91091 15.5767 3.44894L16.991 2.03472ZM12.984 2.375C13.745 2.375 13.9626 2.38143 14.1564 2.42796L14.6233 0.483218C14.1458 0.368573 13.6497 0.375 12.984 0.375V2.375ZM15.7553 0.952187C15.405 0.737511 15.0231 0.579194 14.6233 0.483218L14.1564 2.42796C14.3518 2.47488 14.5387 2.55231 14.7103 2.65747L15.7553 0.952187ZM23.2083 10.5997C23.2083 9.93247 23.2141 9.43762 23.0995 8.96043L21.1548 9.42732C21.2014 9.62147 21.2083 9.84013 21.2083 10.5997H23.2083ZM20.1347 8.00694C20.6719 8.54413 20.8212 8.70312 20.9255 8.87334L22.6308 7.82834C22.3744 7.40988 22.0207 7.06442 21.549 6.59272L20.1347 8.00694ZM23.0995 8.96043C23.0037 8.56122 22.8458 8.17916 22.6308 7.82834L20.9255 8.87334C21.0304 9.04444 21.1077 9.23131 21.1548 9.42732L23.0995 8.96043ZM21.2083 22.9584C21.2083 23.7917 21.2076 24.3565 21.1721 24.7927C21.1374 25.2173 21.0748 25.4311 20.9997 25.5785L22.7818 26.4864C23.0246 26.0099 23.1207 25.5034 23.1654 24.9553C23.2092 24.4188 23.2083 23.7585 23.2083 22.9584H21.2083ZM17.542 28.625C18.3422 28.625 19.0024 28.6258 19.5388 28.5819C20.087 28.5371 20.5932 28.4408 21.0695 28.1981L20.1615 26.4161C20.014 26.4912 19.8001 26.5539 19.3759 26.5886C18.9398 26.6242 18.3752 26.625 17.542 26.625V28.625ZM20.9997 25.5785C20.8162 25.9387 20.5226 26.2321 20.1615 26.4161L21.0695 28.1981C21.806 27.8228 22.406 27.2239 22.7818 26.4864L20.9997 25.5785ZM22.2086 9.125H18.1253V11.125H22.2086V9.125ZM14.4583 5.45833V1.375H12.4583V5.45833H14.4583ZM18.1253 9.125C17.2921 9.125 16.7271 9.12421 16.2908 9.08856C15.866 9.05386 15.652 8.99118 15.5045 8.91605L14.5965 10.6981C15.073 10.9408 15.5796 11.0371 16.1279 11.0819C16.6646 11.1258 17.325 11.125 18.1253 11.125V9.125ZM12.4583 5.45833C12.4583 6.25857 12.4576 6.91889 12.5014 7.45542C12.5462 8.00362 12.6425 8.51002 12.8852 8.98644L14.6672 8.07846C14.5921 7.93097 14.5294 7.71706 14.4948 7.29255C14.4591 6.85636 14.4583 6.29158 14.4583 5.45833H12.4583ZM15.5045 8.91605C15.1441 8.7324 14.8511 8.43932 14.6672 8.07846L12.8852 8.98644C13.2606 9.7232 13.8594 10.3225 14.5965 10.6981L15.5045 8.91605Z" fill="#031E80"/>
																	</svg>