<svg width="24" height="24" viewBox="0 0 24 24" fill="none" xmlns="http://www.w3.org/2000/svg">
<path d="M12.5 5.75C12.5 5.47386 12.2761 5.25 12 5.25C11.7239 5.25 11.5 5.47386 11.5 5.75H12.5ZM12 12H11.5C11.5 12.2761 11.7239 12.5 12 12.5V12ZM18.25 12.5C18.5261 12.5 18.75 12.2761 18.75 12C18.75 11.7239 18.5261 11.5 18.25 11.5V12.5ZM12 22.75C6.06294 22.75 1.25 17.9371 1.25 12H0.25C0.25 18.4893 5.51065 23.75 12 23.75V22.75ZM1.25 12C1.25 6.06294 6.06294 1.25 12 1.25V0.25C5.51065 0.25 0.25 5.51065 0.25 12H1.25ZM12 1.25C17.9371 1.25 22.75 6.06294 22.75 12H23.75C23.75 5.51065 18.4893 0.25 12 0.25V1.25ZM22.75 12C22.75 17.9371 17.9371 22.75 12 22.75V23.75C18.4893 23.75 23.75 18.4893 23.75 12H22.75ZM11.5 5.75V12H12.5V5.75H11.5ZM12 12.5H18.25V11.5H12V12.5Z" fill="#031E80"/>
</svg>
