<svg width="20" height="20" viewBox="0 0 20 20" fill="none" xmlns="http://www.w3.org/2000/svg">
<path d="M8 3.99998V2.59998C8 2.03992 8 1.75993 8.10899 1.54602C8.20487 1.35786 8.35774 1.20487 8.5459 1.10899C8.75981 1 9.03956 1 9.59961 1H14.3369C14.5815 1 14.7038 1 14.8189 1.02763C14.9209 1.05213 15.0189 1.09251 15.1084 1.14734C15.2093 1.20918 15.2958 1.29568 15.4688 1.46863L18.5315 4.53137C18.7044 4.70432 18.7907 4.7908 18.8525 4.89172C18.9073 4.98119 18.9482 5.07875 18.9727 5.18079C19.0003 5.29587 19 5.41813 19 5.66272V14.4C19 14.96 18.9996 15.2401 18.8906 15.454C18.7948 15.6422 18.6425 15.7951 18.4544 15.891C18.2405 16 17.9601 16 17.4 16H12M11.9996 9H8.59961C8.03956 9 7.75981 8.99998 7.5459 8.89099C7.35774 8.79512 7.20487 8.64218 7.10899 8.45401C7 8.2401 7 7.96005 7 7.4V4M18.9996 6H15.5996C15.0396 6 14.7598 5.99998 14.5459 5.89099C14.3577 5.79512 14.2049 5.64218 14.109 5.45401C14 5.2401 14 4.96005 14 4.4V1M12 17.4V8.66272C12 8.41813 12.0003 8.29587 11.9727 8.18079C11.9482 8.07875 11.9073 7.98119 11.8525 7.89172C11.7907 7.7908 11.7044 7.70432 11.5315 7.53137L8.46875 4.46863C8.2958 4.29568 8.20932 4.20918 8.1084 4.14734C8.01893 4.09251 7.92092 4.05213 7.81889 4.02763C7.7038 4 7.58146 4 7.33687 4H2.59961C2.03956 4 1.75981 4 1.5459 4.10899C1.35774 4.20487 1.20487 4.35786 1.10899 4.54602C1 4.75993 1 5.03992 1 5.59998V17.4C1 17.96 1 18.2401 1.10899 18.454C1.20487 18.6422 1.35774 18.7951 1.5459 18.891C1.75981 19 2.03956 19 2.59961 19H10.3996C10.9597 19 11.2405 19 11.4544 18.891C11.6425 18.7951 11.7948 18.6422 11.8906 18.454C11.9996 18.2401 12 17.96 12 17.4Z" stroke="#383434" stroke-width="1.5" stroke-linecap="round" stroke-linejoin="round"/>
</svg>
