<svg width="171" height="42" viewBox="0 0 171 42" fill="none" xmlns="http://www.w3.org/2000/svg">
<g clip-path="url(#clip0_228_738)">
<path d="M74.3945 16.2344C75.0723 16.2344 75.75 16.2344 76.3969 16.2344C76.7159 16.215 77.0277 16.1313 77.3135 15.9884C77.5994 15.8455 77.8534 15.6463 78.0604 15.4027C78.7265 14.5216 79.0347 13.4211 78.9229 12.3222C78.9674 11.8509 78.9674 11.3764 78.9229 10.9051C78.7975 10.4017 78.5041 9.95621 78.0912 9.64211C77.6466 9.2409 77.0852 8.99261 76.4893 8.93359C75.8633 8.90215 75.2362 8.90215 74.6102 8.93359H68.4491C68.0879 8.92258 67.7292 8.99643 67.4017 9.14923C67.182 9.28261 66.993 9.4611 66.8473 9.67292C66.7034 9.85971 66.6177 10.0847 66.6008 10.3198C66.5871 10.525 66.5871 10.7308 66.6008 10.9359V16.2344H74.3945ZM55.3877 34.7176V6.99286C55.4012 6.19656 55.4837 5.40293 55.6341 4.62086C55.755 3.70269 56.1525 2.84308 56.7739 2.15644C57.2586 1.62569 57.8596 1.21447 58.5298 0.955031C59.4012 0.566064 60.3484 0.37662 61.3023 0.400536H80.2475C81.5624 0.388648 82.8746 0.522963 84.1598 0.801004C85.4445 1.0985 86.5999 1.80035 87.456 2.80335C88.34 3.75759 88.9841 4.90858 89.3351 6.16112C89.8202 8.08333 90.0379 10.0632 89.982 12.0449C89.982 12.6302 89.982 13.4004 89.982 14.3861C89.9227 15.4213 89.7889 16.4508 89.5815 17.4667C89.3692 18.5198 89.0598 19.5511 88.6574 20.5472C88.2855 21.4681 87.7056 22.2904 86.9631 22.95C86.1196 23.6386 85.1287 24.1235 84.0674 24.367C83.0611 24.6316 82.0271 24.7763 80.9869 24.7983H66.4468V34.6868L55.3877 34.7176ZM119.401 34.7176L109.02 21.3789C108.581 20.7455 108.18 20.0872 107.818 19.4074C107.38 18.7259 107.135 17.9379 107.11 17.1278C107.127 16.4289 107.307 15.7435 107.633 15.1254C107.937 14.4945 108.287 13.887 108.681 13.3079L117.922 0.400536H130.922L119.031 14.5401C118.532 15.0275 118.124 15.6015 117.83 16.2344C117.709 16.4987 117.626 16.7787 117.584 17.0662C117.598 17.6885 117.827 18.2867 118.23 18.7605C118.662 19.315 119.062 19.777 119.401 20.1775L132.709 34.656L119.401 34.7176ZM94.88 0.400536H105.939V34.656H94.88V0.400536ZM159.725 34.656L160.187 14.5401C160.204 14.2426 160.204 13.9444 160.187 13.6468C160.184 13.5912 160.168 13.537 160.143 13.4876C160.117 13.4383 160.081 13.3948 160.038 13.36C159.994 13.3252 159.944 13.2999 159.89 13.2856C159.836 13.2713 159.78 13.2685 159.725 13.2771C159.571 13.2771 159.417 13.2771 159.263 13.6776L158.462 14.9406L148.728 31.5755C148.473 32.0064 148.174 32.4091 147.834 32.7769C147.449 33.2415 146.978 33.6284 146.448 33.9167C145.792 34.2828 145.086 34.5526 144.353 34.7176C143.345 34.9597 142.31 35.0736 141.273 35.0565C139.892 35.1111 138.516 34.8696 137.237 34.3479C136.325 33.9199 135.532 33.2747 134.927 32.4688C134.386 31.6856 134.028 30.7907 133.88 29.8504C133.715 28.8318 133.633 27.8016 133.633 26.7698V0.400536H144.908L144.477 20.0235V20.5472C144.462 20.8037 144.462 21.0608 144.477 21.3173C144.484 21.3782 144.504 21.437 144.534 21.4902C144.565 21.5435 144.606 21.5901 144.654 21.6274C144.703 21.6646 144.759 21.6918 144.818 21.7074C144.878 21.7229 144.939 21.7264 145 21.7178C145.093 21.7094 145.182 21.6765 145.258 21.6223C145.333 21.5682 145.393 21.4948 145.431 21.4097L145.986 20.5164L155.474 4.00475C155.882 3.17402 156.435 2.42288 157.107 1.78677C157.717 1.29739 158.39 0.89322 159.109 0.585367C159.767 0.296429 160.461 0.0994786 161.173 6.73914e-05H162.867C164.451 -0.0814725 166.029 0.236319 167.457 0.924225C168.436 1.45753 169.263 2.23147 169.86 3.17301C170.382 4.02517 170.708 4.98267 170.815 5.97629C170.927 6.80353 170.989 7.6368 171 8.47151V34.656H159.725Z" fill="white"/>
<path d="M0 34.4404V41.2792L3.08053 39.5541L6.16105 41.2792V34.4404H26.3077C26.7773 34.4092 27.2362 34.2854 27.6579 34.0763C28.0796 33.8672 28.4558 33.5768 28.765 33.2219C29.0741 32.8669 29.3101 32.4544 29.4593 32.008C29.6086 31.5616 29.6682 31.0901 29.6347 30.6206V6.62329L0 34.4404Z" fill="white"/>
<path d="M4.62046 26.1537L18.8525 0.462158H4.58965C3.28434 0.556959 2.06941 1.16385 1.20963 2.15057C0.34986 3.13729 -0.0850562 4.42385 -0.000329306 5.72986V34.4404H6.16072L4.62046 26.1537Z" fill="white"/>
<path fill-rule="evenodd" clip-rule="evenodd" d="M29.5902 6.4382V3.66573C29.594 2.8994 29.3121 2.15915 28.7994 1.58953C28.2868 1.01991 27.5802 0.66183 26.8177 0.585205H19.0856C19.0036 0.589671 18.924 0.614553 18.8541 0.657591C18.7841 0.700629 18.7261 0.76046 18.6851 0.831647L1.68061 31.4213C1.34175 32.0066 1.95785 32.6227 2.41993 32.2222L29.4053 6.86948C29.4658 6.81547 29.5137 6.74887 29.5456 6.67436C29.5776 6.59984 29.5928 6.51923 29.5902 6.4382Z" fill="#DADADA"/>
<path d="M6.00703 34.4404H0L6.00703 37.3361V34.4404Z" fill="#B2B2B2"/>
</g>
<defs>
<clipPath id="clip0_228_738">
<rect width="171" height="41.279" fill="white"/>
</clipPath>
</defs>
</svg>
