<svg width="172" height="42" viewBox="0 0 172 42" fill="none" xmlns="http://www.w3.org/2000/svg">
<g clip-path="url(#clip0_466_7066)">
<path d="M74.8955 16.2344C75.5732 16.2344 76.2509 16.2344 76.8979 16.2344C77.2169 16.215 77.5287 16.1313 77.8145 15.9883C78.1004 15.8454 78.3544 15.6462 78.5613 15.4026C79.2275 14.5215 79.5356 13.421 79.4239 12.3221C79.4683 11.8508 79.4683 11.3764 79.4239 10.9051C79.2984 10.4017 79.005 9.95615 78.5922 9.64205C78.1476 9.24084 77.5862 8.99255 76.9903 8.93353C76.3643 8.90209 75.7371 8.90209 75.1112 8.93353H68.9501C68.5889 8.92252 68.2302 8.99637 67.9027 9.14917C67.6829 9.28255 67.4939 9.46104 67.3482 9.67286C67.2044 9.85964 67.1187 10.0846 67.1018 10.3198C67.0881 10.5249 67.0881 10.7307 67.1018 10.9359V16.2344H74.8955ZM55.8887 34.7175V6.9928C55.9022 6.1965 55.9847 5.40287 56.1351 4.6208C56.2559 3.70263 56.6535 2.84302 57.2749 2.15637C57.7595 1.62563 58.3606 1.21441 59.0308 0.954969C59.9022 0.566003 60.8494 0.376559 61.8033 0.400475H80.7485C82.0634 0.388587 83.3756 0.522902 84.6608 0.800943C85.9455 1.09844 87.1008 1.80029 87.9569 2.80329C88.841 3.75753 89.4851 4.90852 89.8361 6.16106C90.3211 8.08327 90.5388 10.0632 90.483 12.0449C90.483 12.6302 90.483 13.4003 90.483 14.3861C90.4237 15.4212 90.2899 16.4507 90.0825 17.4666C89.8702 18.5198 89.5608 19.551 89.1584 20.5471C88.7865 21.468 88.2066 22.2904 87.4641 22.9499C86.6205 23.6385 85.6297 24.1234 84.5684 24.367C83.5621 24.6315 82.5281 24.7763 81.4878 24.7982H66.9478V34.6867L55.8887 34.7175ZM119.902 34.7175L109.521 21.3789C109.082 20.7454 108.681 20.0871 108.319 19.4073C107.881 18.7258 107.636 17.9378 107.611 17.1277C107.628 16.4288 107.808 15.7435 108.134 15.1254C108.438 14.4945 108.788 13.8869 109.182 13.3079L118.423 0.400475H131.423L119.532 14.5401C119.033 15.0274 118.625 15.6015 118.331 16.2344C118.21 16.4986 118.127 16.7786 118.084 17.0661C118.099 17.6884 118.328 18.2867 118.731 18.7604C119.163 19.3149 119.563 19.777 119.902 20.1775L133.21 34.6559L119.902 34.7175ZM95.381 0.400475H106.44V34.6559H95.381V0.400475ZM160.226 34.6559L160.688 14.5401C160.705 14.2425 160.705 13.9443 160.688 13.6467C160.685 13.5912 160.669 13.537 160.644 13.4876C160.618 13.4382 160.582 13.3947 160.539 13.3599C160.495 13.3251 160.445 13.2998 160.391 13.2855C160.337 13.2713 160.281 13.2684 160.226 13.2771C160.072 13.2771 159.918 13.2771 159.764 13.6775L158.963 14.9406L149.229 31.5754C148.974 32.0063 148.675 32.409 148.335 32.7768C147.95 33.2415 147.479 33.6283 146.949 33.9166C146.293 34.2828 145.587 34.5525 144.854 34.7175C143.846 34.9597 142.811 35.0735 141.774 35.0564C140.393 35.1111 139.017 34.8695 137.738 34.3479C136.826 33.9199 136.033 33.2746 135.428 32.4688C134.887 31.6855 134.529 30.7906 134.38 29.8503C134.216 28.8317 134.134 27.8016 134.134 26.7698V0.400475H145.409L144.977 20.0234V20.5471C144.963 20.8036 144.963 21.0607 144.977 21.3172C144.985 21.3782 145.005 21.4369 145.035 21.4902C145.066 21.5434 145.107 21.59 145.155 21.6273C145.204 21.6646 145.26 21.6918 145.319 21.7073C145.379 21.7228 145.44 21.7264 145.501 21.7177C145.594 21.7094 145.683 21.6764 145.759 21.6223C145.834 21.5681 145.894 21.4947 145.932 21.4097L146.487 20.5163L155.975 4.00469C156.383 3.17396 156.936 2.42282 157.608 1.78671C158.218 1.29733 158.891 0.893159 159.61 0.585306C160.268 0.296368 160.962 0.0994176 161.674 6.35628e-06H163.368C164.951 -0.0815336 166.53 0.236258 167.958 0.924164C168.937 1.45747 169.764 2.23141 170.361 3.17295C170.883 4.02511 171.209 4.9826 171.316 5.97623C171.428 6.80347 171.49 7.63674 171.501 8.47145V34.6559H160.226Z" fill="white"/>
<path d="M0.5 34.4403V41.2791L3.58053 39.554L6.66105 41.2791V34.4403H26.8077C27.2773 34.4091 27.7362 34.2853 28.1579 34.0762C28.5796 33.8671 28.9558 33.5767 29.265 33.2218C29.5741 32.8668 29.8101 32.4543 29.9593 32.0079C30.1086 31.5615 30.1682 31.09 30.1347 30.6205V6.62317L0.5 34.4403Z" fill="white"/>
<path d="M5.12144 26.1537L19.3535 0.462097H5.09063C3.78532 0.556898 2.57038 1.16379 1.71061 2.15051C0.850836 3.13723 0.41592 4.42379 0.500647 5.7298V34.4403H6.6617L5.12144 26.1537Z" fill="white"/>
<path fill-rule="evenodd" clip-rule="evenodd" d="M30.0912 6.43827V3.66579C30.095 2.89946 29.8131 2.15921 29.3004 1.58959C28.7877 1.01997 28.0812 0.661891 27.3187 0.585266H19.5866C19.5046 0.589732 19.425 0.614614 19.355 0.657652C19.2851 0.700691 19.227 0.760521 19.1861 0.831708L2.18158 31.4213C1.84273 32.0066 2.45883 32.6227 2.92091 32.2223L29.9063 6.86954C29.9668 6.81554 30.0147 6.74893 30.0466 6.67442C30.0785 6.5999 30.0937 6.51929 30.0912 6.43827Z" fill="#DADADA"/>
<path d="M6.50703 34.4403H0.5L6.50703 37.336V34.4403Z" fill="#B2B2B2"/>
</g>
<defs>
<clipPath id="clip0_466_7066">
<rect width="171" height="41.279" fill="white" transform="translate(0.5)"/>
</clipPath>
</defs>
</svg>
