<svg width="200" height="71" viewBox="0 0 200 71" fill="none" xmlns="http://www.w3.org/2000/svg">
<g clip-path="url(#clip0_1_168)">
<path d="M58.3824 57.388C58.8275 57.0096 59.4018 56.8108 59.9898 56.8317C60.5779 56.8526 61.1361 57.0916 61.5522 57.5006C61.9683 57.9096 62.2114 58.4583 62.2327 59.0363C62.2539 59.6144 62.0517 60.1789 61.6667 60.6164C54.8889 67.2662 45.7038 71.001 36.1275 71.001C26.5512 71.001 17.3661 67.2662 10.5883 60.6164C7.23267 57.3206 4.57067 53.4071 2.75445 49.0996C0.93824 44.7921 0.00341797 40.175 0.00341797 35.5122C0.00341797 30.8494 0.93824 26.2322 2.75445 21.9247C4.57067 17.6172 7.23267 13.7038 10.5883 10.408C13.9412 7.10953 17.9225 4.49287 22.3046 2.70759C26.6868 0.922316 31.3839 0.00341797 36.1275 0.00341797C40.8711 0.00341797 45.5683 0.922316 49.9504 2.70759C54.3326 4.49287 58.3139 7.10953 61.6667 10.408C61.9087 10.6138 62.1049 10.8663 62.2432 11.1499C62.3814 11.4335 62.4588 11.7421 62.4703 12.0563C62.4819 12.3706 62.4274 12.6839 62.3103 12.9765C62.1932 13.2692 62.0161 13.535 61.7898 13.7574C61.5636 13.9798 61.2932 14.1539 60.9955 14.269C60.6977 14.3841 60.3791 14.4376 60.0593 14.4263C59.7396 14.4149 59.4257 14.3389 59.1372 14.203C58.8487 14.0671 58.5917 13.8742 58.3824 13.6364C55.4633 10.7575 51.9949 8.47339 48.1759 6.91485C44.3569 5.35631 40.2626 4.55404 36.1275 4.55404C31.9925 4.55404 27.8981 5.35631 24.0792 6.91485C20.2602 8.47339 16.7917 10.7575 13.8726 13.6364C10.9498 16.509 8.63119 19.9194 7.04932 23.6729C5.46745 27.4264 4.65327 31.4494 4.65327 35.5122C4.65327 39.575 5.46745 43.598 7.04932 47.3515C8.63119 51.105 10.9498 54.5154 13.8726 57.388C16.795 60.2611 20.2645 62.5401 24.0831 64.0951C27.9016 65.65 31.9943 66.4503 36.1275 66.4503C40.2607 66.4503 44.3535 65.65 48.172 64.0951C51.9905 62.5401 55.46 60.2611 58.3824 57.388Z" fill="#FF9900"/>
<path d="M45.6373 24.9356V45.9681H50.2206V39.0537H53.701C58.8726 39.0537 62.9412 37.4395 62.9412 31.9946C62.9412 26.5498 58.8235 24.9356 53.701 24.9356H45.6373ZM58.2598 31.9946C58.2598 34.4038 56.2745 35.1025 53.9216 35.1025H50.2206V28.9108H53.9216C56.3726 28.9108 58.2598 29.5131 58.2598 31.9946ZM70.5147 45.9681V38.5477H73.8971L79.6569 45.7754H84.951L78.5539 37.849C79.9337 37.5299 81.1607 36.7556 82.0303 35.6553C82.9 34.555 83.3598 33.195 83.3333 31.8019C83.3333 26.4775 78.9951 24.9356 74.853 24.9356H66.0294V45.9681H70.5147ZM70.5147 28.9108H75C76.9363 28.9108 78.603 29.7299 78.603 31.8741C78.603 34.0184 76.9363 34.8616 75 34.8616H70.5637V28.9108H70.5147ZM93.3579 30.5009C93.3579 37.9454 105.049 36.4758 105.049 40.4269C105.049 41.9206 103.529 42.4266 101.054 42.4266C98.3628 42.4349 95.7287 41.664 93.4804 40.2101V44.4985C95.9139 45.7787 98.6372 46.4335 101.397 46.4018C105.882 46.4018 109.73 44.9322 109.73 40.2101C109.73 32.7174 98.0392 34.0666 98.0392 30.4527C98.0392 29.1517 99.1912 28.5253 101.52 28.5012C103.862 28.4152 106.171 29.065 108.113 30.3563V26.1402C105.97 25.0511 103.588 24.4968 101.176 24.526C96.9608 24.526 93.3579 26.4534 93.3579 30.5009ZM131.716 24.9356L124.363 35.8735L117.01 24.9356H112.868V45.9681H117.451V33.0065L123.113 41.4629H125.76L131.422 33.0306V45.9681H136.005V24.9356H131.716ZM143.064 45.9681L144.608 42.0411H154.412L155.98 45.9681H160.784L152.083 24.9356H147.059L138.309 45.9681H143.064ZM149.069 30.7659C149.297 30.2408 149.462 29.6908 149.559 29.1276C149.656 29.6856 149.803 30.2339 150 30.7659L153.015 38.3068H146.152L149.118 30.7659H149.069ZM167.696 45.9681V38.5477H171.078L176.838 45.7754H182.132L175.735 37.849C177.131 37.5045 178.361 36.6934 179.215 35.555C180.069 34.4166 180.494 33.0216 180.417 31.6091C180.417 26.2847 176.078 24.7428 171.912 24.7428H163.162V45.7754L167.696 45.9681ZM167.696 28.9108H172.132C174.069 28.9108 175.735 29.7299 175.735 31.8741C175.735 34.0184 174.069 34.8616 172.132 34.8616H167.745V28.9108H167.696ZM182.255 24.9356V28.9108H188.824V45.7754H193.382V28.9108H200V24.9356H182.255Z" fill="#263238"/>
<path fill-rule="evenodd" clip-rule="evenodd" d="M36.1275 17.6838C36.7775 17.6838 37.4009 17.9377 37.8606 18.3895C38.3202 18.8413 38.5784 19.4541 38.5784 20.0931V50.9071C38.5784 51.5461 38.3202 52.1589 37.8606 52.6107C37.4009 53.0625 36.7775 53.3163 36.1275 53.3163C35.4774 53.3163 34.854 53.0625 34.3944 52.6107C33.9347 52.1589 33.6765 51.5461 33.6765 50.9071V20.0931C33.6765 19.4541 33.9347 18.8413 34.3944 18.3895C34.854 17.9377 35.4774 17.6838 36.1275 17.6838Z" fill="#263238"/>
</g>
<defs>
<clipPath id="clip0_1_168">
<rect width="200" height="71" fill="white"/>
</clipPath>
</defs>
</svg>
