<svg width="9" height="14" viewBox="0 0 9 14" fill="none" xmlns="http://www.w3.org/2000/svg">
<path d="M6.79291 13.5405C7.18344 13.931 7.8166 13.931 8.20713 13.5405C8.59765 13.15 8.59765 12.5168 8.20713 12.1263L6.79291 13.5405ZM1.66669 7.00008L0.95958 6.29297C0.772044 6.48051 0.666687 6.73486 0.666687 7.00008C0.666687 7.2653 0.772044 7.51965 0.95958 7.70719L1.66669 7.00008ZM8.20713 1.87385C8.59765 1.48333 8.59765 0.850166 8.20713 0.459641C7.8166 0.069117 7.18344 0.069117 6.79291 0.459641L8.20713 1.87385ZM8.20713 12.1263L2.37379 6.29297L0.95958 7.70719L6.79291 13.5405L8.20713 12.1263ZM2.37379 7.70719L8.20713 1.87385L6.79291 0.459641L0.95958 6.29297L2.37379 7.70719Z" fill="#CDD2E6"/>
</svg>
