<svg width="17" height="16" viewBox="0 0 17 16" fill="none" xmlns="http://www.w3.org/2000/svg">
<path d="M1.38283 1.41003L1.82833 1.63703L1.38283 1.41003ZM2.111 0.681656L2.338 1.12716L2.111 0.681656ZM2.111 15.3183L2.338 14.8728L2.111 15.3183ZM1.38283 14.59L0.937324 14.817H0.937324L1.38283 14.59ZM16.0197 14.59L15.5742 14.363L16.0197 14.59ZM15.291 15.3183L15.064 14.8728L15.291 15.3183ZM16.0197 1.41003L15.5742 1.63703L16.0197 1.41003ZM15.291 0.681656L15.518 0.236153V0.236153L15.291 0.681656ZM12.3678 15.5C12.3678 15.7761 12.5917 16 12.8678 16C13.144 16 13.3678 15.7761 13.3678 15.5H12.3678ZM4.03451 15.5C4.03451 15.7761 4.25836 16 4.53451 16C4.81065 16 5.03451 15.7761 5.03451 15.5H4.03451ZM8.70117 8.33333C7.5966 8.33333 6.70117 7.4379 6.70117 6.33333H5.70117C5.70117 7.99019 7.04432 9.33333 8.70117 9.33333V8.33333ZM6.70117 6.33333C6.70117 5.22876 7.5966 4.33333 8.70117 4.33333V3.33333C7.04432 3.33333 5.70117 4.67648 5.70117 6.33333H6.70117ZM8.70117 4.33333C9.80574 4.33333 10.7012 5.22876 10.7012 6.33333H11.7012C11.7012 4.67648 10.358 3.33333 8.70117 3.33333V4.33333ZM10.7012 6.33333C10.7012 7.4379 9.80574 8.33333 8.70117 8.33333V9.33333C10.358 9.33333 11.7012 7.99019 11.7012 6.33333H10.7012ZM15.7012 3.16663V12.8333H16.7012V3.16663H15.7012ZM13.5347 15H3.868V16H13.5347V15ZM1.70117 12.8333V3.16663H0.701172V12.8333H1.70117ZM3.868 1H13.5347V0H3.868V1ZM1.70117 3.16663C1.70117 2.69166 1.70156 2.36553 1.72222 2.11271C1.7424 1.86573 1.7794 1.73306 1.82833 1.63703L0.937324 1.18304C0.804599 1.44353 0.750774 1.72244 0.72554 2.03127C0.700783 2.33426 0.701172 2.70817 0.701172 3.16663H1.70117ZM3.868 0C3.40954 0 3.03554 -0.000388563 2.73246 0.0243665C2.42357 0.0495957 2.14453 0.103409 1.88401 0.236153L2.338 1.12716C2.43399 1.07825 2.56674 1.04123 2.81387 1.02105C3.0668 1.00039 3.39305 1 3.868 1V0ZM1.82833 1.63703C1.94025 1.41738 2.1186 1.23895 2.338 1.12716L1.88401 0.236153C1.47619 0.443944 1.14498 0.775484 0.937324 1.18304L1.82833 1.63703ZM3.868 15C3.39305 15 3.06681 14.9996 2.81388 14.9789C2.56676 14.9587 2.434 14.9217 2.338 14.8728L1.88401 15.7638C2.14452 15.8966 2.42356 15.9504 2.73245 15.9756C3.03554 16.0004 3.40953 16 3.868 16V15ZM0.701172 12.8333C0.701172 13.2918 0.700783 13.6657 0.725539 13.9687C0.750771 14.2776 0.804593 14.5565 0.937324 14.817L1.82833 14.363C1.77941 14.267 1.7424 14.1343 1.72222 13.8873C1.70156 13.6344 1.70117 13.3083 1.70117 12.8333H0.701172ZM2.338 14.8728C2.11855 14.761 1.94022 14.5826 1.82833 14.363L0.937324 14.817C1.14501 15.2246 1.47625 15.5561 1.88401 15.7638L2.338 14.8728ZM15.7012 12.8333C15.7012 13.3083 15.7008 13.6345 15.6802 13.8874C15.6601 14.1344 15.6231 14.2671 15.5742 14.363L16.4652 14.817C16.598 14.5565 16.6517 14.2775 16.6769 13.9686C16.7016 13.6656 16.7012 13.2917 16.7012 12.8333H15.7012ZM13.5347 16C13.9931 16 14.367 16.0004 14.6699 15.9756C14.9787 15.9504 15.2575 15.8965 15.518 15.7638L15.064 14.8728C14.9679 14.9218 14.8353 14.9588 14.5884 14.9789C14.3357 14.9996 14.0096 15 13.5347 15V16ZM15.5742 14.363C15.4625 14.5823 15.2838 14.7608 15.064 14.8728L15.518 15.7638C15.9254 15.5562 16.2573 15.225 16.4652 14.817L15.5742 14.363ZM16.7012 3.16663C16.7012 2.70822 16.7016 2.33431 16.6769 2.03135C16.6517 1.72255 16.598 1.44358 16.4652 1.18304L15.5742 1.63703C15.6231 1.733 15.6601 1.86563 15.6802 2.11263C15.7008 2.36548 15.7012 2.69161 15.7012 3.16663H16.7012ZM13.5347 1C14.0096 1 14.3357 1.00039 14.5884 1.02105C14.8353 1.04122 14.9679 1.07822 15.064 1.12716L15.518 0.236153C15.2575 0.103438 14.9787 0.0496056 14.6699 0.0243685C14.367 -0.000389099 13.9931 0 13.5347 0V1ZM16.4652 1.18304C16.2574 0.775151 15.9255 0.443774 15.518 0.236153L15.064 1.12716C15.2837 1.23912 15.4624 1.41771 15.5742 1.63703L16.4652 1.18304ZM13.3678 15.5C13.3678 12.9227 11.2785 10.8333 8.70117 10.8333V11.8333C10.7262 11.8333 12.3678 13.475 12.3678 15.5H13.3678ZM8.70117 10.8333C6.12384 10.8333 4.03451 12.9227 4.03451 15.5H5.03451C5.03451 13.475 6.67613 11.8333 8.70117 11.8333V10.8333Z" fill="white"/>
</svg>