<svg width="15" height="11" viewBox="0 0 15 11" fill="none" xmlns="http://www.w3.org/2000/svg">
<path d="M12.5 8.62501V9.12501C12.6326 9.12501 12.7598 9.07233 12.8536 8.97856C12.9473 8.88479 13 8.75762 13 8.62501H12.5ZM2.5 8.625H2C2 8.90114 2.22386 9.125 2.5 9.125L2.5 8.625ZM2.63624 1.80753L3.08175 2.03452L2.63624 1.80753ZM3.18237 1.26124L3.40937 1.70675L3.18237 1.26124ZM12.3639 1.80753L11.9184 2.03452V2.03452L12.3639 1.80753ZM11.8174 1.26124L12.0444 0.815739L11.8174 1.26124ZM12.8125 10H2.1875V11H12.8125V10ZM2.1875 9.125H12.8125V8.125H2.1875V9.125ZM1.75 9.5625C1.75 9.32088 1.94588 9.125 2.1875 9.125V8.125C1.39359 8.125 0.75 8.76859 0.75 9.5625H1.75ZM2.1875 10C1.94588 10 1.75 9.80412 1.75 9.5625H0.75C0.75 10.3564 1.39359 11 2.1875 11V10ZM13.25 9.5625C13.25 9.80412 13.0541 10 12.8125 10V11C13.6064 11 14.25 10.3564 14.25 9.5625H13.25ZM14.25 9.5625C14.25 8.76859 13.6064 8.125 12.8125 8.125V9.125C13.0541 9.125 13.25 9.32088 13.25 9.5625H14.25ZM12 3.12501V8.62501H13V3.12501H12ZM12.5 8.12501L2.5 8.125L2.5 9.125L12.5 9.12501V8.12501ZM3 8.625V3.12501H2V8.625H3ZM4.50012 1.625H10.5001V0.625H4.50012V1.625ZM3 3.12501C3 2.76672 3.00039 2.52808 3.01537 2.34473C3.02987 2.16721 3.05552 2.08598 3.08175 2.03452L2.19074 1.58053C2.08072 1.79646 2.03825 2.02394 2.01869 2.2633C1.99961 2.49682 2 2.78323 2 3.12501H3ZM4.50012 0.625C4.15833 0.625 3.87187 0.624611 3.63829 0.64369C3.39891 0.663242 3.17134 0.705702 2.95538 0.815739L3.40937 1.70675C3.4608 1.68054 3.54207 1.65488 3.7197 1.64037C3.90313 1.62539 4.14184 1.625 4.50012 1.625V0.625ZM3.08175 2.03452C3.15372 1.89327 3.26838 1.77858 3.40937 1.70675L2.95538 0.815739C2.62596 0.983583 2.35845 1.25138 2.19074 1.58053L3.08175 2.03452ZM13 3.12501C13 2.78328 13.0004 2.49687 12.9814 2.26338C12.9619 2.02404 12.9194 1.79651 12.8094 1.58053L11.9184 2.03452C11.9446 2.08593 11.9702 2.16711 11.9847 2.34465C11.9996 2.52804 12 2.76667 12 3.12501H13ZM10.5001 1.625C10.8584 1.625 11.097 1.62539 11.2803 1.64037C11.4577 1.65487 11.5389 1.68051 11.5904 1.70675L12.0444 0.815739C11.8285 0.705731 11.6011 0.663252 11.3617 0.643692C11.1283 0.624611 10.8419 0.625 10.5001 0.625V1.625ZM12.8094 1.58053C12.6415 1.25104 12.3734 0.983413 12.0444 0.815739L11.5904 1.70675C11.7317 1.77875 11.8466 1.8936 11.9184 2.03452L12.8094 1.58053Z" fill="#031E80"/>
</svg>
