<svg width="572" height="422" viewBox="0 0 572 422" fill="none" xmlns="http://www.w3.org/2000/svg">
<path d="M57.2202 392.36H95.0469V392.646H57.2202V392.36Z" fill="#EBEBEB"/>
<path d="M192.765 395.467H202.69V395.752H192.765V395.467Z" fill="#EBEBEB"/>
<path d="M96.1884 381.761H118.105V382.047H96.1884V381.761Z" fill="#EBEBEB"/>
<path d="M461.812 383.68H511.14V383.966H461.812V383.68Z" fill="#EBEBEB"/>
<path d="M444.406 383.68H451.636V383.966H444.406V383.68Z" fill="#EBEBEB"/>
<path d="M313.909 388.5H420.901V388.785H313.909V388.5Z" fill="#EBEBEB"/>
<path d="M0.00012207 373.984H571.055V374.269H0.00012207V373.984Z" fill="#EBEBEB"/>
<path d="M78.9766 97.9814H175.576V341.353H78.9766V97.9814Z" fill="#E0E0E0"/>
<path d="M78.9766 95.8457V343.489H61.1825V95.8457H78.9766Z" fill="#E6E6E6"/>
<path d="M192.514 95.8457V343.489H174.742V95.8457H192.514Z" fill="#E6E6E6"/>
<path d="M195.54 95.8457V343.489H76.8406V95.8457H195.54ZM81.0893 100.117V144.522H191.269V100.117H81.0893ZM191.269 241.864V197.459H81.0893V241.864H191.269ZM81.0893 246.136V290.541H191.269V246.136H81.0893ZM191.246 193.199V148.794H81.0893V193.199H191.246ZM191.246 339.218V294.813H81.0893V339.263L191.246 339.218Z" fill="#F5F5F5"/>
<path d="M119.59 144.922H115.49V110.465H119.59V144.922Z" fill="#E6E6E6"/>
<path d="M115.479 144.922H111.379V110.465H115.479V144.922Z" fill="#E0E0E0"/>
<path d="M127.813 144.922H119.602V112.886H127.813V144.922Z" fill="#E6E6E6"/>
<path d="M137.213 144.922H131.902V110.465H137.213V144.922Z" fill="#F0F0F0"/>
<path d="M131.902 144.922H127.802V110.465H131.902V144.922Z" fill="#EBEBEB"/>
<path d="M168.369 144.922H163.059V110.465H168.369V144.922Z" fill="#E6E6E6"/>
<path d="M163.047 144.922H158.947V110.465H163.047V144.922Z" fill="#EBEBEB"/>
<path d="M150.747 144.922H145.437V110.465H150.747V144.922Z" fill="#E6E6E6"/>
<path d="M145.424 144.922H141.324V110.465H145.424V144.922Z" fill="#E0E0E0"/>
<path d="M176.57 144.922H168.358V111.287H176.57V144.922Z" fill="#EBEBEB"/>
<path d="M180.682 144.922H176.57V111.287H180.682V144.922Z" fill="#E0E0E0"/>
<path d="M156.218 144.922H150.747V111.287H156.218V144.922Z" fill="#E0E0E0"/>
<path d="M158.959 144.922H156.218V111.287H158.959V144.922Z" fill="#F0F0F0"/>
<path d="M145.425 144.922H137.213V112.886H145.425V144.922Z" fill="#F5F5F5"/>
<path d="M99.0667 144.922H93.7559V110.465H99.0667V144.922Z" fill="#EBEBEB"/>
<path d="M93.7554 144.922H89.6553V110.465H93.7554V144.922Z" fill="#E6E6E6"/>
<path d="M107.278 144.922H99.0664V111.287H107.278V144.922Z" fill="#E0E0E0"/>
<path d="M111.39 144.922H107.278V111.287H111.39V144.922Z" fill="#EBEBEB"/>
<path d="M86.915 144.922H81.4443V111.287H86.915V144.922Z" fill="#EBEBEB"/>
<path d="M89.6551 144.922H86.9141V111.287H89.6551V144.922Z" fill="#FAFAFA"/>
<path d="M142.536 158.719H146.636V193.176H142.536V158.719Z" fill="#E6E6E6"/>
<path d="M146.635 158.719H150.735V193.176H146.635V158.719Z" fill="#E0E0E0"/>
<path d="M134.312 161.14H142.523V193.176H134.312V161.14Z" fill="#E6E6E6"/>
<path d="M124.901 158.719H130.212V193.176H124.901V158.719Z" fill="#F0F0F0"/>
<path d="M130.201 158.719H134.312V193.176H130.201V158.719Z" fill="#EBEBEB"/>
<path d="M93.7556 158.719H99.0664V193.176H93.7556V158.719Z" fill="#E6E6E6"/>
<path d="M99.0668 158.719H103.167V193.176H99.0668V158.719Z" fill="#EBEBEB"/>
<path d="M111.379 158.719H116.689V193.176H111.379V158.719Z" fill="#E6E6E6"/>
<path d="M116.701 158.719H120.801V193.176H116.701V158.719Z" fill="#E0E0E0"/>
<path d="M85.5441 159.541H93.7559V193.176H85.5441V159.541Z" fill="#EBEBEB"/>
<path d="M81.4323 159.541H85.5439V193.176H81.4323V159.541Z" fill="#E0E0E0"/>
<path d="M105.908 159.541H111.379V193.176H105.908V159.541Z" fill="#E0E0E0"/>
<path d="M103.167 159.541H105.908V193.176H103.167V159.541Z" fill="#F0F0F0"/>
<path d="M116.69 161.14H124.901V193.176H116.69V161.14Z" fill="#F5F5F5"/>
<path d="M163.048 158.719H168.358V193.176H163.048V158.719Z" fill="#EBEBEB"/>
<path d="M168.37 158.719H172.47V193.176H168.37V158.719Z" fill="#E6E6E6"/>
<path d="M154.847 159.541H163.059V193.176H154.847V159.541Z" fill="#E0E0E0"/>
<path d="M150.735 159.541H154.847V193.176H150.735V159.541Z" fill="#EBEBEB"/>
<path d="M175.211 159.541H180.682V193.176H175.211V159.541Z" fill="#EBEBEB"/>
<path d="M172.458 159.541H175.199V193.176H172.458V159.541Z" fill="#FAFAFA"/>
<path d="M142.536 207.818H146.636V242.276H142.536V207.818Z" fill="#E6E6E6"/>
<path d="M146.635 207.818H150.735V242.276H146.635V207.818Z" fill="#E0E0E0"/>
<path d="M134.312 210.239H142.523V242.276H134.312V210.239Z" fill="#E6E6E6"/>
<path d="M124.901 207.818H130.212V242.276H124.901V207.818Z" fill="#F0F0F0"/>
<path d="M130.201 207.818H134.312V242.276H130.201V207.818Z" fill="#EBEBEB"/>
<path d="M93.7556 207.818H99.0664V242.276H93.7556V207.818Z" fill="#E6E6E6"/>
<path d="M99.0668 207.818H103.167V242.276H99.0668V207.818Z" fill="#EBEBEB"/>
<path d="M111.379 207.818H116.689V242.276H111.379V207.818Z" fill="#E6E6E6"/>
<path d="M116.701 207.818H120.801V242.276H116.701V207.818Z" fill="#E0E0E0"/>
<path d="M85.5441 208.64H93.7559V242.275H85.5441V208.64Z" fill="#EBEBEB"/>
<path d="M81.4323 208.64H85.5439V242.275H81.4323V208.64Z" fill="#E0E0E0"/>
<path d="M105.908 208.64H111.379V242.275H105.908V208.64Z" fill="#E0E0E0"/>
<path d="M103.167 208.64H105.908V242.275H103.167V208.64Z" fill="#F0F0F0"/>
<path d="M116.69 210.239H124.901V242.276H116.69V210.239Z" fill="#F5F5F5"/>
<path d="M163.048 207.818H168.358V242.276H163.048V207.818Z" fill="#EBEBEB"/>
<path d="M168.37 207.818H172.47V242.276H168.37V207.818Z" fill="#E6E6E6"/>
<path d="M154.847 208.64H163.059V242.275H154.847V208.64Z" fill="#E0E0E0"/>
<path d="M150.735 208.64H154.847V242.275H150.735V208.64Z" fill="#EBEBEB"/>
<path d="M175.211 208.64H180.682V242.275H175.211V208.64Z" fill="#EBEBEB"/>
<path d="M172.458 208.64H175.199V242.275H172.458V208.64Z" fill="#FAFAFA"/>
<path d="M119.59 291.375H115.49V256.917H119.59V291.375Z" fill="#E6E6E6"/>
<path d="M115.479 291.375H111.379V256.917H115.479V291.375Z" fill="#E0E0E0"/>
<path d="M127.813 288.954H119.602V256.917H127.813V288.954Z" fill="#E6E6E6"/>
<path d="M137.213 291.375H131.902V256.917H137.213V291.375Z" fill="#F0F0F0"/>
<path d="M131.902 291.375H127.802V256.917H131.902V291.375Z" fill="#EBEBEB"/>
<path d="M168.369 291.375H163.059V256.917H168.369V291.375Z" fill="#E6E6E6"/>
<path d="M163.047 291.375H158.947V256.917H163.047V291.375Z" fill="#EBEBEB"/>
<path d="M150.747 291.375H145.437V256.917H150.747V291.375Z" fill="#E6E6E6"/>
<path d="M145.424 291.375H141.324V256.917H145.424V291.375Z" fill="#E0E0E0"/>
<path d="M176.57 290.564H168.358V256.929H176.57V290.564Z" fill="#EBEBEB"/>
<path d="M180.682 290.564H176.57V256.929H180.682V290.564Z" fill="#E0E0E0"/>
<path d="M156.218 290.564H150.747V256.929H156.218V290.564Z" fill="#E0E0E0"/>
<path d="M158.959 290.564H156.218V256.929H158.959V290.564Z" fill="#F0F0F0"/>
<path d="M145.425 288.954H137.213V256.917H145.425V288.954Z" fill="#F5F5F5"/>
<path d="M99.0667 291.375H93.7559V256.917H99.0667V291.375Z" fill="#EBEBEB"/>
<path d="M93.7554 291.375H89.6553V256.917H93.7554V291.375Z" fill="#E6E6E6"/>
<path d="M107.278 290.564H99.0664V256.929H107.278V290.564Z" fill="#E0E0E0"/>
<path d="M111.39 290.564H107.278V256.929H111.39V290.564Z" fill="#EBEBEB"/>
<path d="M86.915 290.564H81.4443V256.929H86.915V290.564Z" fill="#EBEBEB"/>
<path d="M89.6551 290.564H86.9141V256.929H89.6551V290.564Z" fill="#FAFAFA"/>
<path d="M142.536 306.028H146.636V340.486H142.536V306.028Z" fill="#E6E6E6"/>
<path d="M146.635 306.028H150.735V340.486H146.635V306.028Z" fill="#E0E0E0"/>
<path d="M134.312 306.028H142.523V338.064H134.312V306.028Z" fill="#E6E6E6"/>
<path d="M124.901 306.028H130.212V340.486H124.901V306.028Z" fill="#F0F0F0"/>
<path d="M130.201 306.028H134.312V340.486H130.201V306.028Z" fill="#EBEBEB"/>
<path d="M93.7556 306.028H99.0664V340.486H93.7556V306.028Z" fill="#E6E6E6"/>
<path d="M99.0668 306.028H103.167V340.486H99.0668V306.028Z" fill="#EBEBEB"/>
<path d="M111.379 306.028H116.689V340.486H111.379V306.028Z" fill="#E6E6E6"/>
<path d="M116.701 306.028H120.801V340.486H116.701V306.028Z" fill="#E0E0E0"/>
<path d="M85.5441 306.028H93.7559V339.663H85.5441V306.028Z" fill="#EBEBEB"/>
<path d="M81.4323 306.028H85.5439V339.663H81.4323V306.028Z" fill="#E0E0E0"/>
<path d="M105.908 306.028H111.379V339.663H105.908V306.028Z" fill="#E0E0E0"/>
<path d="M103.167 306.028H105.908V339.663H103.167V306.028Z" fill="#F0F0F0"/>
<path d="M116.69 306.028H124.901V338.064H116.69V306.028Z" fill="#F5F5F5"/>
<path d="M163.048 306.028H168.358V340.486H163.048V306.028Z" fill="#EBEBEB"/>
<path d="M168.37 306.028H172.47V340.486H168.37V306.028Z" fill="#E6E6E6"/>
<path d="M154.847 306.028H163.059V339.663H154.847V306.028Z" fill="#E0E0E0"/>
<path d="M150.735 306.028H154.847V339.663H150.735V306.028Z" fill="#EBEBEB"/>
<path d="M175.211 306.028H180.682V339.663H175.211V306.028Z" fill="#EBEBEB"/>
<path d="M172.458 306.028H175.199V339.663H172.458V306.028Z" fill="#FAFAFA"/>
<path d="M197.025 84.9729H307.639V363.647H197.025V84.9729Z" fill="#E0E0E0"/>
<path d="M197.025 82.5288V366.092H176.65V82.5288H197.025Z" fill="#E6E6E6"/>
<path d="M327.043 82.5288V366.092H306.656V82.5288H327.043Z" fill="#E6E6E6"/>
<path d="M330.504 82.5288V366.092H194.593V82.5288H330.504ZM199.47 87.417V138.252H325.616V87.417H199.47ZM325.616 249.734V198.887H199.47V249.734H325.616ZM199.47 254.622V305.469H325.616V254.622H199.47ZM325.616 193.999V143.152H199.47V193.999H325.616ZM325.616 361.203V310.357H199.47V361.203H325.616Z" fill="#F5F5F5"/>
<path d="M243.543 138.732H238.838V99.2835H243.543V138.732Z" fill="#E6E6E6"/>
<path d="M238.849 138.732H234.144V99.2835H238.849V138.732Z" fill="#E0E0E0"/>
<path d="M252.943 138.721H243.543V102.036H252.943V138.721Z" fill="#E6E6E6"/>
<path d="M263.713 138.732H257.637V99.2835H263.713V138.732Z" fill="#F0F0F0"/>
<path d="M257.649 138.732H252.943V99.2835H257.649V138.732Z" fill="#EBEBEB"/>
<path d="M299.381 138.732H293.305V99.2835H299.381V138.732Z" fill="#E6E6E6"/>
<path d="M293.305 138.732H288.6V99.2835H293.305V138.732Z" fill="#EBEBEB"/>
<path d="M279.2 138.732H273.124V99.2835H279.2V138.732Z" fill="#E6E6E6"/>
<path d="M273.124 138.732H268.419V99.2835H273.124V138.732Z" fill="#E0E0E0"/>
<path d="M308.78 138.732H299.381V100.209H308.78V138.732Z" fill="#EBEBEB"/>
<path d="M313.486 138.732H308.78V100.209H313.486V138.732Z" fill="#E0E0E0"/>
<path d="M285.47 138.732H279.2V100.209H285.47V138.732Z" fill="#E0E0E0"/>
<path d="M288.6 138.732H285.471V100.209H288.6V138.732Z" fill="#F0F0F0"/>
<path d="M273.124 138.721H263.725V102.036H273.124V138.721Z" fill="#F5F5F5"/>
<path d="M220.027 138.732H213.951V99.2835H220.027V138.732Z" fill="#EBEBEB"/>
<path d="M213.962 138.732H209.257V99.2835H213.962V138.732Z" fill="#E6E6E6"/>
<path d="M229.439 138.732H220.039V100.209H229.439V138.732Z" fill="#E0E0E0"/>
<path d="M234.132 138.732H229.427V100.209H234.132V138.732Z" fill="#EBEBEB"/>
<path d="M206.117 138.732H199.847V100.209H206.117V138.732Z" fill="#EBEBEB"/>
<path d="M209.257 138.732H206.128V100.209H209.257V138.732Z" fill="#FAFAFA"/>
<path d="M269.789 154.516H274.494V193.964H269.789V154.516Z" fill="#E6E6E6"/>
<path d="M274.495 154.516H279.2V193.964H274.495V154.516Z" fill="#E0E0E0"/>
<path d="M260.401 157.291H269.801V193.976H260.401V157.291Z" fill="#E6E6E6"/>
<path d="M249.619 154.516H255.695V193.964H249.619V154.516Z" fill="#F0F0F0"/>
<path d="M255.684 154.516H260.39V193.964H255.684V154.516Z" fill="#EBEBEB"/>
<path d="M213.963 154.516H220.039V193.964H213.963V154.516Z" fill="#E6E6E6"/>
<path d="M220.027 154.516H224.732V193.964H220.027V154.516Z" fill="#EBEBEB"/>
<path d="M234.144 154.516H240.22V193.964H234.144V154.516Z" fill="#E6E6E6"/>
<path d="M240.209 154.516H244.914V193.964H240.209V154.516Z" fill="#E0E0E0"/>
<path d="M204.563 155.453H213.963V193.976H204.563V155.453Z" fill="#EBEBEB"/>
<path d="M199.846 155.453H204.552V193.976H199.846V155.453Z" fill="#E0E0E0"/>
<path d="M227.873 155.453H234.144V193.976H227.873V155.453Z" fill="#E0E0E0"/>
<path d="M224.744 155.453H227.873V193.976H224.744V155.453Z" fill="#F0F0F0"/>
<path d="M240.22 157.291H249.619V193.976H240.22V157.291Z" fill="#F5F5F5"/>
<path d="M293.305 154.516H299.381V193.964H293.305V154.516Z" fill="#EBEBEB"/>
<path d="M299.381 154.516H304.087V193.964H299.381V154.516Z" fill="#E6E6E6"/>
<path d="M283.905 155.453H293.305V193.976H283.905V155.453Z" fill="#E0E0E0"/>
<path d="M279.2 155.453H283.905V193.976H279.2V155.453Z" fill="#EBEBEB"/>
<path d="M307.216 155.453H313.486V193.976H307.216V155.453Z" fill="#EBEBEB"/>
<path d="M304.086 155.453H307.216V193.976H304.086V155.453Z" fill="#FAFAFA"/>
<path d="M269.789 210.742H274.494V250.19H269.789V210.742Z" fill="#E6E6E6"/>
<path d="M274.495 210.742H279.2V250.19H274.495V210.742Z" fill="#E0E0E0"/>
<path d="M260.401 213.517H269.801V250.202H260.401V213.517Z" fill="#E6E6E6"/>
<path d="M249.619 210.742H255.695V250.19H249.619V210.742Z" fill="#F0F0F0"/>
<path d="M255.684 210.742H260.39V250.19H255.684V210.742Z" fill="#EBEBEB"/>
<path d="M213.963 210.742H220.039V250.19H213.963V210.742Z" fill="#E6E6E6"/>
<path d="M220.027 210.742H224.732V250.19H220.027V210.742Z" fill="#EBEBEB"/>
<path d="M234.144 210.742H240.22V250.19H234.144V210.742Z" fill="#E6E6E6"/>
<path d="M240.209 210.742H244.914V250.19H240.209V210.742Z" fill="#E0E0E0"/>
<path d="M204.563 211.678H213.963V250.202H204.563V211.678Z" fill="#EBEBEB"/>
<path d="M199.846 211.678H204.552V250.202H199.846V211.678Z" fill="#E0E0E0"/>
<path d="M227.873 211.678H234.144V250.202H227.873V211.678Z" fill="#E0E0E0"/>
<path d="M224.744 211.678H227.873V250.202H224.744V211.678Z" fill="#F0F0F0"/>
<path d="M240.22 213.517H249.619V250.202H240.22V213.517Z" fill="#F5F5F5"/>
<path d="M293.305 210.742H299.381V250.19H293.305V210.742Z" fill="#EBEBEB"/>
<path d="M299.381 210.742H304.087V250.19H299.381V210.742Z" fill="#E6E6E6"/>
<path d="M283.905 211.678H293.305V250.202H283.905V211.678Z" fill="#E0E0E0"/>
<path d="M279.2 211.678H283.905V250.202H279.2V211.678Z" fill="#EBEBEB"/>
<path d="M307.216 211.678H313.486V250.202H307.216V211.678Z" fill="#EBEBEB"/>
<path d="M304.086 211.678H307.216V250.202H304.086V211.678Z" fill="#FAFAFA"/>
<path d="M243.543 306.417H238.838V266.968H243.543V306.417Z" fill="#E6E6E6"/>
<path d="M238.849 306.417H234.144V266.968H238.849V306.417Z" fill="#E0E0E0"/>
<path d="M252.943 303.653H243.543V266.968H252.943V303.653Z" fill="#E6E6E6"/>
<path d="M263.713 306.417H257.637V266.968H263.713V306.417Z" fill="#F0F0F0"/>
<path d="M257.649 306.417H252.943V266.968H257.649V306.417Z" fill="#EBEBEB"/>
<path d="M299.381 306.417H293.305V266.968H299.381V306.417Z" fill="#E6E6E6"/>
<path d="M293.305 306.417H288.6V266.968H293.305V306.417Z" fill="#EBEBEB"/>
<path d="M279.2 306.417H273.124V266.968H279.2V306.417Z" fill="#E6E6E6"/>
<path d="M273.124 306.417H268.419V266.968H273.124V306.417Z" fill="#E0E0E0"/>
<path d="M308.78 305.491H299.381V266.968H308.78V305.491Z" fill="#EBEBEB"/>
<path d="M313.486 305.491H308.78V266.968H313.486V305.491Z" fill="#E0E0E0"/>
<path d="M285.47 305.491H279.2V266.968H285.47V305.491Z" fill="#E0E0E0"/>
<path d="M288.6 305.491H285.471V266.968H288.6V305.491Z" fill="#F0F0F0"/>
<path d="M273.124 303.653H263.725V266.968H273.124V303.653Z" fill="#F5F5F5"/>
<path d="M220.027 306.417H213.951V266.968H220.027V306.417Z" fill="#EBEBEB"/>
<path d="M213.962 306.417H209.257V266.968H213.962V306.417Z" fill="#E6E6E6"/>
<path d="M229.439 305.491H220.039V266.968H229.439V305.491Z" fill="#E0E0E0"/>
<path d="M234.132 305.491H229.427V266.968H234.132V305.491Z" fill="#EBEBEB"/>
<path d="M206.117 305.491H199.847V266.968H206.117V305.491Z" fill="#EBEBEB"/>
<path d="M209.257 305.491H206.128V266.968H209.257V305.491Z" fill="#FAFAFA"/>
<path d="M269.789 323.194H274.494V362.643H269.789V323.194Z" fill="#E6E6E6"/>
<path d="M274.495 323.194H279.2V362.643H274.495V323.194Z" fill="#E0E0E0"/>
<path d="M260.401 323.194H269.801V359.879H260.401V323.194Z" fill="#E6E6E6"/>
<path d="M249.619 323.194H255.695V362.643H249.619V323.194Z" fill="#F0F0F0"/>
<path d="M255.684 323.194H260.39V362.643H255.684V323.194Z" fill="#EBEBEB"/>
<path d="M213.963 323.194H220.039V362.643H213.963V323.194Z" fill="#E6E6E6"/>
<path d="M220.027 323.194H224.732V362.643H220.027V323.194Z" fill="#EBEBEB"/>
<path d="M234.144 323.194H240.22V362.643H234.144V323.194Z" fill="#E6E6E6"/>
<path d="M240.209 323.194H244.914V362.643H240.209V323.194Z" fill="#E0E0E0"/>
<path d="M204.563 323.194H213.963V361.717H204.563V323.194Z" fill="#EBEBEB"/>
<path d="M199.846 323.194H204.552V361.717H199.846V323.194Z" fill="#E0E0E0"/>
<path d="M227.873 323.194H234.144V361.717H227.873V323.194Z" fill="#E0E0E0"/>
<path d="M224.744 323.194H227.873V361.717H224.744V323.194Z" fill="#F0F0F0"/>
<path d="M240.22 323.194H249.619V359.879H240.22V323.194Z" fill="#F5F5F5"/>
<path d="M293.305 323.194H299.381V362.643H293.305V323.194Z" fill="#EBEBEB"/>
<path d="M299.381 323.194H304.087V362.643H299.381V323.194Z" fill="#E6E6E6"/>
<path d="M283.905 323.194H293.305V361.717H283.905V323.194Z" fill="#E0E0E0"/>
<path d="M279.2 323.194H283.905V361.717H279.2V323.194Z" fill="#EBEBEB"/>
<path d="M307.216 323.194H313.486V361.717H307.216V323.194Z" fill="#EBEBEB"/>
<path d="M304.086 323.194H307.216V361.717H304.086V323.194Z" fill="#FAFAFA"/>
<path d="M216.91 32.4814H299.473V59.8121H216.91V32.4814Z" fill="#E6E6E6"/>
<path d="M298.17 0.285522H299.312V32.4702H298.17V0.285522Z" fill="#E6E6E6"/>
<path d="M217.047 0H218.189V32.4702H217.047V0Z" fill="#E6E6E6"/>
<path d="M291.032 421.164C168.732 421.164 69.5885 415.376 69.5885 408.236C69.5885 401.095 168.732 395.307 291.032 395.307C413.332 395.307 512.476 401.095 512.476 408.236C512.476 415.376 413.332 421.164 291.032 421.164Z" fill="#F5F5F5"/>
<path d="M308.803 55.8035H448.175V406.945H308.803V55.8035Z" fill="url(#paint0_linear_126_13937)"/>
<path opacity="0.2" d="M308.803 55.8035H448.175V406.945H308.803V55.8035Z" fill="white"/>
<path d="M308.803 52.7312V410.074H283.128V52.7312H308.803Z" fill="url(#paint1_linear_126_13937)"/>
<path opacity="0.3" d="M308.803 52.7312V410.074H283.128V52.7312H308.803Z" fill="white"/>
<path d="M472.615 52.7312V410.074H446.941V52.7312H472.615Z" fill="url(#paint2_linear_126_13937)"/>
<path opacity="0.4" d="M472.615 52.7312V410.074H446.941V52.7312H472.615Z" fill="white"/>
<path d="M476.979 52.7312V410.074H305.662V52.7312H476.979ZM311.887 58.8872V122.959H470.823V58.8872H311.887ZM470.823 263.405V199.344H311.887V263.405H470.823ZM311.887 269.595V333.656H470.823V269.595H311.887ZM470.823 193.188V129.115H311.887V193.188H470.823ZM470.823 403.861V339.8H311.887V403.861H470.823Z" fill="url(#paint3_linear_126_13937)"/>
<path opacity="0.6" d="M476.979 52.7312V410.074H305.662V52.7312H476.979ZM311.887 58.8872V122.959H470.823V58.8872H311.887ZM470.823 263.405V199.344H311.887V263.405H470.823ZM311.887 269.595V333.656H470.823V269.595H311.887ZM470.823 193.188V129.115H311.887V193.188H470.823ZM470.823 403.861V339.8H311.887V403.861H470.823Z" fill="white"/>
<path d="M370.271 122.959H364.344V73.2435H370.271V122.959Z" fill="url(#paint4_linear_126_13937)"/>
<path opacity="0.1" d="M370.271 122.959H364.344V73.2435H370.271V122.959Z" fill="white"/>
<path d="M364.344 122.959H358.416V73.2435H364.344V122.959Z" fill="url(#paint5_linear_126_13937)"/>
<path opacity="0.4" d="M364.344 122.959H358.416V73.2435H364.344V122.959Z" fill="white"/>
<path d="M382.103 122.948H370.26V76.7268H382.103V122.948Z" fill="url(#paint6_linear_126_13937)"/>
<path opacity="0.6" d="M382.103 122.948H370.26V76.7268H382.103V122.948Z" fill="white"/>
<path d="M395.683 122.959H388.031V73.2435H395.683V122.959Z" fill="url(#paint7_linear_126_13937)"/>
<path d="M388.043 122.959H382.115V73.2435H388.043V122.959Z" fill="url(#paint8_linear_126_13937)"/>
<path opacity="0.7" d="M388.043 122.959H382.115V73.2435H388.043V122.959Z" fill="white"/>
<path d="M440.614 122.959H432.962V73.2435H440.614V122.959Z" fill="url(#paint9_linear_126_13937)"/>
<path opacity="0.7" d="M440.614 122.959H432.962V73.2435H440.614V122.959Z" fill="white"/>
<path d="M432.973 122.959H427.046V73.2435H432.973V122.959Z" fill="url(#paint10_linear_126_13937)"/>
<path opacity="0.6" d="M432.973 122.959H427.046V73.2435H432.973V122.959Z" fill="white"/>
<path d="M415.19 122.959H407.538V73.2435H415.19V122.959Z" fill="url(#paint11_linear_126_13937)"/>
<path opacity="0.6" d="M415.19 122.959H407.538V73.2435H415.19V122.959Z" fill="white"/>
<path d="M407.538 122.959H401.61V73.2435H407.538V122.959Z" fill="url(#paint12_linear_126_13937)"/>
<path opacity="0.1" d="M407.538 122.959H401.61V73.2435H407.538V122.959Z" fill="#263238"/>
<path d="M452.469 122.959H440.625V74.4198H452.469V122.959Z" fill="url(#paint13_linear_126_13937)"/>
<path opacity="0.1" d="M452.469 122.959H440.625V74.4198H452.469V122.959Z" fill="white"/>
<path d="M458.396 122.959H452.469V74.4198H458.396V122.959Z" fill="url(#paint14_linear_126_13937)"/>
<path opacity="0.6" d="M458.396 122.959H452.469V74.4198H458.396V122.959Z" fill="white"/>
<path d="M423.094 122.959H415.19V74.4198H423.094V122.959Z" fill="url(#paint15_linear_126_13937)"/>
<path opacity="0.1" d="M423.094 122.959H415.19V74.4198H423.094V122.959Z" fill="white"/>
<path d="M427.045 122.959H423.094V74.4198H427.045V122.959Z" fill="url(#paint16_linear_126_13937)"/>
<path opacity="0.3" d="M427.045 122.959H423.094V74.4198H427.045V122.959Z" fill="white"/>
<path d="M407.538 122.948H395.694V76.7268H407.538V122.948Z" fill="url(#paint17_linear_126_13937)"/>
<path opacity="0.1" d="M407.538 122.948H395.694V76.7268H407.538V122.948Z" fill="white"/>
<path d="M340.644 122.959H332.992V73.2435H340.644V122.959Z" fill="url(#paint18_linear_126_13937)"/>
<path opacity="0.3" d="M340.644 122.959H332.992V73.2435H340.644V122.959Z" fill="white"/>
<path d="M332.993 122.959H327.065V73.2435H332.993V122.959Z" fill="url(#paint19_linear_126_13937)"/>
<path opacity="0.2" d="M332.993 122.959H327.065V73.2435H332.993V122.959Z" fill="white"/>
<path d="M352.488 122.959H340.645V74.4198H352.488V122.959Z" fill="url(#paint20_linear_126_13937)"/>
<path opacity="0.1" d="M352.488 122.959H340.645V74.4198H352.488V122.959Z" fill="white"/>
<path d="M358.416 122.959H352.488V74.4198H358.416V122.959Z" fill="url(#paint21_linear_126_13937)"/>
<path opacity="0.6" d="M358.416 122.959H352.488V74.4198H358.416V122.959Z" fill="white"/>
<path d="M323.125 122.959H315.222V74.4198H323.125V122.959Z" fill="url(#paint22_linear_126_13937)"/>
<path opacity="0.1" d="M323.125 122.959H315.222V74.4198H323.125V122.959Z" fill="white"/>
<path d="M327.065 122.959H323.113V74.4198H327.065V122.959Z" fill="url(#paint23_linear_126_13937)"/>
<path opacity="0.6" d="M327.065 122.959H323.113V74.4198H327.065V122.959Z" fill="white"/>
<path d="M401.314 143.632H407.093V193.199H401.314V143.632Z" fill="url(#paint24_linear_126_13937)"/>
<path opacity="0.1" d="M401.314 143.632H407.093V193.199H401.314V143.632Z" fill="white"/>
<path d="M407.105 143.632H412.884V193.199H407.105V143.632Z" fill="url(#paint25_linear_126_13937)"/>
<path opacity="0.4" d="M407.105 143.632H412.884V193.199H407.105V143.632Z" fill="white"/>
<path d="M389.744 147.115H401.313V193.199H389.744V147.115Z" fill="url(#paint26_linear_126_13937)"/>
<path opacity="0.6" d="M389.744 147.115H401.313V193.199H389.744V147.115Z" fill="white"/>
<path d="M376.495 143.632H383.965V193.199H376.495V143.632Z" fill="url(#paint27_linear_126_13937)"/>
<path d="M383.965 143.632H389.744V193.199H383.965V143.632Z" fill="url(#paint28_linear_126_13937)"/>
<path opacity="0.1" d="M383.965 143.632H389.744V193.199H383.965V143.632Z" fill="#263238"/>
<path d="M332.627 143.632H340.097V193.199H332.627V143.632Z" fill="url(#paint29_linear_126_13937)"/>
<path opacity="0.1" d="M332.627 143.632H340.097V193.199H332.627V143.632Z" fill="#263238"/>
<path d="M340.097 143.632H345.876V193.199H340.097V143.632Z" fill="url(#paint30_linear_126_13937)"/>
<path opacity="0.6" d="M340.097 143.632H345.876V193.199H340.097V143.632Z" fill="white"/>
<path d="M357.456 143.632H364.926V193.199H357.456V143.632Z" fill="url(#paint31_linear_126_13937)"/>
<path opacity="0.6" d="M357.456 143.632H364.926V193.199H357.456V143.632Z" fill="white"/>
<path d="M364.926 143.632H370.705V193.199H364.926V143.632Z" fill="url(#paint32_linear_126_13937)"/>
<path opacity="0.1" d="M364.926 143.632H370.705V193.199H364.926V143.632Z" fill="#263238"/>
<path d="M321.057 144.808H332.627V193.199H321.057V144.808Z" fill="url(#paint33_linear_126_13937)"/>
<path opacity="0.1" d="M321.057 144.808H332.627V193.199H321.057V144.808Z" fill="white"/>
<path d="M315.279 144.808H321.058V193.199H315.279V144.808Z" fill="url(#paint34_linear_126_13937)"/>
<path opacity="0.6" d="M315.279 144.808H321.058V193.199H315.279V144.808Z" fill="white"/>
<path d="M349.736 144.808H357.445V193.199H349.736V144.808Z" fill="url(#paint35_linear_126_13937)"/>
<path opacity="0.1" d="M349.736 144.808H357.445V193.199H349.736V144.808Z" fill="white"/>
<path d="M345.876 144.808H349.736V193.199H345.876V144.808Z" fill="url(#paint36_linear_126_13937)"/>
<path opacity="0.3" d="M345.876 144.808H349.736V193.199H345.876V144.808Z" fill="white"/>
<path d="M364.915 147.115H376.484V193.199H364.915V147.115Z" fill="url(#paint37_linear_126_13937)"/>
<path opacity="0.1" d="M364.915 147.115H376.484V193.199H364.915V147.115Z" fill="white"/>
<path d="M430.232 143.632H437.701V193.199H430.232V143.632Z" fill="url(#paint38_linear_126_13937)"/>
<path opacity="0.1" d="M430.232 143.632H437.701V193.199H430.232V143.632Z" fill="white"/>
<path d="M437.713 143.632H443.492V193.199H437.713V143.632Z" fill="url(#paint39_linear_126_13937)"/>
<path opacity="0.2" d="M437.713 143.632H443.492V193.199H437.713V143.632Z" fill="white"/>
<path d="M418.662 144.808H430.231V193.199H418.662V144.808Z" fill="url(#paint40_linear_126_13937)"/>
<path opacity="0.1" d="M418.662 144.808H430.231V193.199H418.662V144.808Z" fill="white"/>
<path d="M412.883 144.808H418.662V193.199H412.883V144.808Z" fill="url(#paint41_linear_126_13937)"/>
<path opacity="0.6" d="M412.883 144.808H418.662V193.199H412.883V144.808Z" fill="white"/>
<path d="M447.341 144.808H455.05V193.199H447.341V144.808Z" fill="url(#paint42_linear_126_13937)"/>
<path opacity="0.1" d="M447.341 144.808H455.05V193.199H447.341V144.808Z" fill="white"/>
<path d="M443.48 144.808H447.341V193.199H443.48V144.808Z" fill="url(#paint43_linear_126_13937)"/>
<path opacity="0.6" d="M443.48 144.808H447.341V193.199H443.48V144.808Z" fill="white"/>
<path d="M369.05 333.644H363.271V284.568H369.05V333.644Z" fill="url(#paint44_linear_126_13937)"/>
<path opacity="0.1" d="M369.05 333.644H363.271V284.568H369.05V333.644Z" fill="white"/>
<path d="M363.259 333.644H357.479V284.568H363.259V333.644Z" fill="url(#paint45_linear_126_13937)"/>
<path opacity="0.4" d="M363.259 333.644H357.479V284.568H363.259V333.644Z" fill="white"/>
<path d="M380.618 333.644H369.049V288.017H380.618V333.644Z" fill="url(#paint46_linear_126_13937)"/>
<path opacity="0.6" d="M380.618 333.644H369.049V288.017H380.618V333.644Z" fill="white"/>
<path d="M393.867 333.644H386.397V284.568H393.867V333.644Z" fill="url(#paint47_linear_126_13937)"/>
<path d="M386.398 333.644H380.619V284.568H386.398V333.644Z" fill="url(#paint48_linear_126_13937)"/>
<path opacity="0.6" d="M386.398 333.644H380.619V284.568H386.398V333.644Z" fill="white"/>
<path d="M437.736 333.644H430.267V284.568H437.736V333.644Z" fill="url(#paint49_linear_126_13937)"/>
<path opacity="0.3" d="M437.736 333.644H430.267V284.568H437.736V333.644Z" fill="white"/>
<path d="M430.266 333.644H424.487V284.568H430.266V333.644Z" fill="url(#paint50_linear_126_13937)"/>
<path opacity="0.6" d="M430.266 333.644H424.487V284.568H430.266V333.644Z" fill="white"/>
<path d="M412.918 333.644H405.448V284.568H412.918V333.644Z" fill="url(#paint51_linear_126_13937)"/>
<path opacity="0.6" d="M412.918 333.644H405.448V284.568H412.918V333.644Z" fill="white"/>
<path d="M405.436 333.644H399.657V284.568H405.436V333.644Z" fill="url(#paint52_linear_126_13937)"/>
<path opacity="0.1" d="M405.436 333.644H399.657V284.568H405.436V333.644Z" fill="#263238"/>
<path d="M449.317 333.644H437.747V285.721H449.317V333.644Z" fill="url(#paint53_linear_126_13937)"/>
<path opacity="0.1" d="M449.317 333.644H437.747V285.721H449.317V333.644Z" fill="white"/>
<path d="M455.085 333.644H449.306V285.721H455.085V333.644Z" fill="url(#paint54_linear_126_13937)"/>
<path opacity="0.6" d="M455.085 333.644H449.306V285.721H455.085V333.644Z" fill="white"/>
<path d="M420.627 333.644H412.918V285.721H420.627V333.644Z" fill="url(#paint55_linear_126_13937)"/>
<path opacity="0.1" d="M420.627 333.644H412.918V285.721H420.627V333.644Z" fill="white"/>
<path d="M424.487 333.644H420.627V285.721H424.487V333.644Z" fill="url(#paint56_linear_126_13937)"/>
<path opacity="0.3" d="M424.487 333.644H420.627V285.721H424.487V333.644Z" fill="white"/>
<path d="M405.437 333.644H393.867V288.017H405.437V333.644Z" fill="url(#paint57_linear_126_13937)"/>
<path opacity="0.1" d="M405.437 333.644H393.867V288.017H405.437V333.644Z" fill="white"/>
<path d="M340.131 333.644H332.661V284.568H340.131V333.644Z" fill="url(#paint58_linear_126_13937)"/>
<path opacity="0.1" d="M340.131 333.644H332.661V284.568H340.131V333.644Z" fill="#263238"/>
<path d="M332.65 333.644H326.871V284.568H332.65V333.644Z" fill="url(#paint59_linear_126_13937)"/>
<path opacity="0.2" d="M332.65 333.644H326.871V284.568H332.65V333.644Z" fill="white"/>
<path d="M351.7 333.644H340.131V285.721H351.7V333.644Z" fill="url(#paint60_linear_126_13937)"/>
<path opacity="0.1" d="M351.7 333.644H340.131V285.721H351.7V333.644Z" fill="white"/>
<path d="M357.491 333.644H351.712V285.721H357.491V333.644Z" fill="url(#paint61_linear_126_13937)"/>
<path opacity="0.6" d="M357.491 333.644H351.712V285.721H357.491V333.644Z" fill="white"/>
<path d="M323.022 333.644H315.312V285.721H323.022V333.644Z" fill="url(#paint62_linear_126_13937)"/>
<path opacity="0.1" d="M323.022 333.644H315.312V285.721H323.022V333.644Z" fill="white"/>
<path d="M326.883 333.644H323.022V285.721H326.883V333.644Z" fill="url(#paint63_linear_126_13937)"/>
<path opacity="0.6" d="M326.883 333.644H323.022V285.721H326.883V333.644Z" fill="white"/>
<path d="M369.004 403.884H363.225V355.413H369.004V403.884Z" fill="url(#paint64_linear_126_13937)"/>
<path opacity="0.1" d="M369.004 403.884H363.225V355.413H369.004V403.884Z" fill="white"/>
<path d="M363.236 403.884H357.457V355.413H363.236V403.884Z" fill="url(#paint65_linear_126_13937)"/>
<path opacity="0.4" d="M363.236 403.884H357.457V355.413H363.236V403.884Z" fill="white"/>
<path d="M380.573 403.884H369.004V358.828H380.573V403.884Z" fill="url(#paint66_linear_126_13937)"/>
<path opacity="0.6" d="M380.573 403.884H369.004V358.828H380.573V403.884Z" fill="white"/>
<path d="M393.833 403.884H386.363V355.413H393.833V403.884Z" fill="url(#paint67_linear_126_13937)"/>
<path d="M386.364 403.884H380.585V355.413H386.364V403.884Z" fill="url(#paint68_linear_126_13937)"/>
<path opacity="0.1" d="M386.364 403.884H380.585V355.413H386.364V403.884Z" fill="#263238"/>
<path d="M437.701 403.884H430.231V355.413H437.701V403.884Z" fill="url(#paint69_linear_126_13937)"/>
<path opacity="0.4" d="M437.701 403.884H430.231V355.413H437.701V403.884Z" fill="white"/>
<path d="M430.22 403.884H424.441V355.413H430.22V403.884Z" fill="url(#paint70_linear_126_13937)"/>
<path opacity="0.6" d="M430.22 403.884H424.441V355.413H430.22V403.884Z" fill="white"/>
<path d="M412.872 403.884H405.402V355.413H412.872V403.884Z" fill="url(#paint71_linear_126_13937)"/>
<path opacity="0.6" d="M412.872 403.884H405.402V355.413H412.872V403.884Z" fill="white"/>
<path d="M405.402 403.884H399.623V355.413H405.402V403.884Z" fill="url(#paint72_linear_126_13937)"/>
<path opacity="0.1" d="M405.402 403.884H399.623V355.413H405.402V403.884Z" fill="#263238"/>
<path d="M449.271 403.895H437.701V356.578H449.271V403.895Z" fill="url(#paint73_linear_126_13937)"/>
<path opacity="0.1" d="M449.271 403.895H437.701V356.578H449.271V403.895Z" fill="white"/>
<path d="M455.05 403.895H449.271V356.578H455.05V403.895Z" fill="url(#paint74_linear_126_13937)"/>
<path opacity="0.6" d="M455.05 403.895H449.271V356.578H455.05V403.895Z" fill="white"/>
<path d="M420.581 403.895H412.872V356.578H420.581V403.895Z" fill="url(#paint75_linear_126_13937)"/>
<path opacity="0.1" d="M420.581 403.895H412.872V356.578H420.581V403.895Z" fill="white"/>
<path d="M424.453 403.895H420.593V356.578H424.453V403.895Z" fill="url(#paint76_linear_126_13937)"/>
<path opacity="0.3" d="M424.453 403.895H420.593V356.578H424.453V403.895Z" fill="white"/>
<path d="M405.414 403.884H393.845V358.828H405.414V403.884Z" fill="url(#paint77_linear_126_13937)"/>
<path opacity="0.1" d="M405.414 403.884H393.845V358.828H405.414V403.884Z" fill="white"/>
<path d="M340.085 403.884H332.615V355.413H340.085V403.884Z" fill="url(#paint78_linear_126_13937)"/>
<path opacity="0.1" d="M340.085 403.884H332.615V355.413H340.085V403.884Z" fill="#263238"/>
<path d="M332.628 403.884H326.849V355.413H332.628V403.884Z" fill="url(#paint79_linear_126_13937)"/>
<path opacity="0.2" d="M332.628 403.884H326.849V355.413H332.628V403.884Z" fill="white"/>
<path d="M351.666 403.895H340.097V356.578H351.666V403.895Z" fill="url(#paint80_linear_126_13937)"/>
<path opacity="0.1" d="M351.666 403.895H340.097V356.578H351.666V403.895Z" fill="white"/>
<path d="M357.445 403.895H351.666V356.578H357.445V403.895Z" fill="url(#paint81_linear_126_13937)"/>
<path opacity="0.6" d="M357.445 403.895H351.666V356.578H357.445V403.895Z" fill="white"/>
<path d="M322.977 403.895H315.268V356.578H322.977V403.895Z" fill="url(#paint82_linear_126_13937)"/>
<path opacity="0.1" d="M322.977 403.895H315.268V356.578H322.977V403.895Z" fill="white"/>
<path d="M326.849 403.895H322.988V356.578H326.849V403.895Z" fill="url(#paint83_linear_126_13937)"/>
<path opacity="0.6" d="M326.849 403.895H322.988V356.578H326.849V403.895Z" fill="white"/>
<path d="M404.226 213.026H410.199V263.405H404.226V213.026Z" fill="url(#paint84_linear_126_13937)"/>
<path opacity="0.1" d="M404.226 213.026H410.199V263.405H404.226V213.026Z" fill="white"/>
<path d="M410.21 213.026H416.184V263.405H410.21V213.026Z" fill="url(#paint85_linear_126_13937)"/>
<path opacity="0.4" d="M410.21 213.026H416.184V263.405H410.21V213.026Z" fill="white"/>
<path d="M392.268 216.567H404.226V263.405H392.268V216.567Z" fill="url(#paint86_linear_126_13937)"/>
<path opacity="0.6" d="M392.268 216.567H404.226V263.405H392.268V216.567Z" fill="white"/>
<path d="M378.551 213.026H386.283V263.405H378.551V213.026Z" fill="url(#paint87_linear_126_13937)"/>
<path d="M386.295 213.026H392.269V263.405H386.295V213.026Z" fill="url(#paint88_linear_126_13937)"/>
<path opacity="0.1" d="M386.295 213.026H392.269V263.405H386.295V213.026Z" fill="#263238"/>
<path d="M333.199 213.026H340.931V263.405H333.199V213.026Z" fill="url(#paint89_linear_126_13937)"/>
<path opacity="0.1" d="M333.199 213.026H340.931V263.405H333.199V213.026Z" fill="#263238"/>
<path d="M340.942 213.026H346.915V263.405H340.942V213.026Z" fill="url(#paint90_linear_126_13937)"/>
<path opacity="0.6" d="M340.942 213.026H346.915V263.405H340.942V213.026Z" fill="white"/>
<path d="M358.872 213.026H366.604V263.405H358.872V213.026Z" fill="url(#paint91_linear_126_13937)"/>
<path opacity="0.6" d="M358.872 213.026H366.604V263.405H358.872V213.026Z" fill="white"/>
<path d="M366.605 213.026H372.578V263.405H366.605V213.026Z" fill="url(#paint92_linear_126_13937)"/>
<path opacity="0.1" d="M366.605 213.026H372.578V263.405H366.605V213.026Z" fill="#263238"/>
<path d="M321.252 214.225H333.21V263.416H321.252V214.225Z" fill="url(#paint93_linear_126_13937)"/>
<path opacity="0.1" d="M321.252 214.225H333.21V263.416H321.252V214.225Z" fill="white"/>
<path d="M315.279 214.225H321.252V263.416H315.279V214.225Z" fill="url(#paint94_linear_126_13937)"/>
<path opacity="0.6" d="M315.279 214.225H321.252V263.416H315.279V214.225Z" fill="white"/>
<path d="M350.901 214.225H358.873V263.416H350.901V214.225Z" fill="url(#paint95_linear_126_13937)"/>
<path opacity="0.1" d="M350.901 214.225H358.873V263.416H350.901V214.225Z" fill="white"/>
<path d="M346.915 214.225H350.901V263.416H346.915V214.225Z" fill="url(#paint96_linear_126_13937)"/>
<path opacity="0.3" d="M346.915 214.225H350.901V263.416H346.915V214.225Z" fill="white"/>
<path d="M366.605 216.567H378.562V263.405H366.605V216.567Z" fill="url(#paint97_linear_126_13937)"/>
<path opacity="0.1" d="M366.605 216.567H378.562V263.405H366.605V216.567Z" fill="white"/>
<path d="M434.115 213.026H441.847V263.405H434.115V213.026Z" fill="url(#paint98_linear_126_13937)"/>
<path opacity="0.2" d="M434.115 213.026H441.847V263.405H434.115V213.026Z" fill="white"/>
<path d="M441.847 213.026H447.82V263.405H441.847V213.026Z" fill="url(#paint99_linear_126_13937)"/>
<path opacity="0.2" d="M441.847 213.026H447.82V263.405H441.847V213.026Z" fill="white"/>
<path d="M422.157 214.225H434.115V263.416H422.157V214.225Z" fill="url(#paint100_linear_126_13937)"/>
<path opacity="0.1" d="M422.157 214.225H434.115V263.416H422.157V214.225Z" fill="white"/>
<path d="M416.184 214.225H422.157V263.416H416.184V214.225Z" fill="url(#paint101_linear_126_13937)"/>
<path opacity="0.6" d="M416.184 214.225H422.157V263.416H416.184V214.225Z" fill="white"/>
<path d="M451.806 214.225H459.778V263.416H451.806V214.225Z" fill="url(#paint102_linear_126_13937)"/>
<path opacity="0.1" d="M451.806 214.225H459.778V263.416H451.806V214.225Z" fill="white"/>
<path d="M447.821 214.225H451.807V263.416H447.821V214.225Z" fill="url(#paint103_linear_126_13937)"/>
<path opacity="0.6" d="M447.821 214.225H451.807V263.416H447.821V214.225Z" fill="white"/>
<path d="M351.507 15.704H443.949V46.3011H351.507V15.704Z" fill="url(#paint104_linear_126_13937)"/>
<path d="M441.094 0H442.236V15.704H441.094V0Z" fill="url(#paint105_linear_126_13937)"/>
<path d="M351.941 0H353.083V15.704H351.941V0Z" fill="url(#paint106_linear_126_13937)"/>
<g opacity="0.7">
<path d="M353.346 15.704H443.949V44.291H353.346V15.704Z" fill="white"/>
</g>
<path d="M363.967 21.2203H428.313V26.7824H363.967V21.2203Z" fill="url(#paint107_linear_126_13937)"/>
<path d="M363.956 31.0083H377.753V33.1783H363.956V31.0083Z" fill="url(#paint108_linear_126_13937)"/>
<path d="M363.956 37.3927H391.641V39.5627H363.956V37.3927Z" fill="url(#paint109_linear_126_13937)"/>
<path opacity="0.2" d="M464.084 409.972C463.649 410.075 463.196 410.077 462.76 409.977C462.325 409.878 461.917 409.68 461.57 409.399C461.222 409.118 460.944 408.761 460.756 408.355C460.568 407.949 460.476 407.506 460.486 407.059V401.417H386.866V405.86C386.812 406.856 386.422 407.804 385.761 408.55C385.099 409.297 384.205 409.798 383.223 409.972C382.788 410.075 382.335 410.077 381.899 409.977C381.463 409.878 381.056 409.68 380.709 409.399C380.361 409.118 380.083 408.761 379.895 408.355C379.707 407.949 379.615 407.506 379.625 407.059L380.996 127.128C381.047 126.132 381.434 125.182 382.093 124.434C382.753 123.685 383.646 123.182 384.628 123.005C385.063 122.902 385.516 122.9 385.953 123C386.389 123.099 386.797 123.297 387.145 123.578C387.493 123.859 387.773 124.216 387.962 124.621C388.151 125.027 388.245 125.47 388.237 125.918V130.395H461.834V127.128C461.883 126.131 462.269 125.181 462.929 124.432C463.589 123.683 464.483 123.18 465.466 123.005C465.901 122.902 466.354 122.9 466.79 122.999C467.226 123.098 467.633 123.296 467.98 123.578C468.328 123.859 468.606 124.216 468.794 124.622C468.982 125.027 469.074 125.471 469.064 125.918L467.693 405.86C467.645 406.852 467.261 407.799 466.606 408.545C465.951 409.292 465.062 409.795 464.084 409.972ZM387.174 342.69H460.795L461.023 295.338H387.403L387.174 342.69ZM461.549 189.156H387.928L387.688 236.519H461.32L461.549 189.156ZM387.666 242.184L387.437 289.536H461.057L461.286 242.184H387.666ZM388.18 136.048L387.951 183.411H461.571L461.811 136.048H388.18ZM460.532 395.718L460.772 348.4H387.174L386.946 395.764L460.532 395.718Z" fill="#263238"/>
<path d="M513.766 409.972C512.834 410.131 511.876 409.913 511.103 409.368C510.33 408.822 509.805 407.992 509.643 407.059L508.672 401.417H435.052L435.817 405.86C435.976 406.793 435.758 407.751 435.211 408.523C434.664 409.295 433.832 409.818 432.899 409.977C431.966 410.136 431.008 409.918 430.236 409.371C429.464 408.824 428.941 407.992 428.782 407.059L380.813 127.128C380.653 126.197 380.869 125.24 381.414 124.468C381.959 123.696 382.789 123.172 383.72 123.011C384.651 122.85 385.609 123.067 386.381 123.612C387.153 124.157 387.677 124.986 387.837 125.918L388.603 130.395H462.211L461.652 127.128C461.547 126.22 461.793 125.307 462.341 124.575C462.889 123.843 463.696 123.349 464.597 123.194C465.497 123.039 466.423 123.235 467.184 123.741C467.945 124.248 468.483 125.027 468.687 125.918L516.656 405.86C516.736 406.32 516.725 406.791 516.624 407.246C516.522 407.702 516.331 408.133 516.063 408.515C515.795 408.897 515.454 409.222 515.06 409.472C514.666 409.722 514.226 409.892 513.766 409.972ZM424.979 342.587H498.599L490.479 295.235H416.87L424.979 342.587ZM472.296 189.156H398.665L406.785 236.474H480.405L472.296 189.156ZM407.733 242.184L415.842 289.536H489.508L481.387 242.184H407.733ZM389.539 136.048L397.659 183.411H471.314L463.194 136.048H389.539ZM507.702 395.718L499.581 348.401H426.007L434.116 395.764L507.702 395.718Z" fill="#263238"/>
<path opacity="0.2" d="M513.766 409.972C512.834 410.131 511.876 409.913 511.103 409.368C510.33 408.822 509.805 407.992 509.643 407.059L508.672 401.417H435.052L435.817 405.86C435.976 406.793 435.758 407.751 435.211 408.523C434.664 409.295 433.832 409.818 432.899 409.977C431.966 410.136 431.008 409.918 430.236 409.371C429.464 408.824 428.941 407.992 428.782 407.059L380.813 127.128C380.653 126.197 380.869 125.24 381.414 124.468C381.959 123.696 382.789 123.172 383.72 123.011C384.651 122.85 385.609 123.067 386.381 123.612C387.153 124.157 387.677 124.986 387.837 125.918L388.603 130.395H462.211L461.652 127.128C461.547 126.22 461.793 125.307 462.341 124.575C462.889 123.843 463.696 123.349 464.597 123.194C465.497 123.039 466.423 123.235 467.184 123.741C467.945 124.248 468.483 125.027 468.687 125.918L516.656 405.86C516.736 406.32 516.725 406.791 516.624 407.246C516.522 407.702 516.331 408.133 516.063 408.515C515.795 408.897 515.454 409.222 515.06 409.472C514.666 409.722 514.226 409.892 513.766 409.972ZM424.979 342.587H498.599L490.479 295.235H416.87L424.979 342.587ZM472.296 189.156H398.665L406.785 236.474H480.405L472.296 189.156ZM407.733 242.184L415.842 289.536H489.508L481.387 242.184H407.733ZM389.539 136.048L397.659 183.411H471.314L463.194 136.048H389.539ZM507.702 395.718L499.581 348.401H426.007L434.116 395.764L507.702 395.718Z" fill="white"/>
<path d="M232.214 410.074C234.03 410.074 235.48 409.538 235.423 407.79L231.677 290.016H225.27L229.016 407.984C229.073 409.618 230.489 410.074 232.214 410.074Z" fill="#263238"/>
<path opacity="0.2" d="M232.214 410.074C234.03 410.074 235.48 409.538 235.423 407.79L231.677 290.016H225.27L229.016 407.984C229.073 409.618 230.489 410.074 232.214 410.074Z" fill="white"/>
<path d="M169.147 289.913H248.98V306.714H169.147V289.913Z" fill="#263238"/>
<path opacity="0.2" d="M169.147 289.913H248.98V306.714H169.147V289.913Z" fill="white"/>
<path d="M148.668 289.913H169.146V306.714H148.668V289.913Z" fill="url(#paint110_linear_126_13937)"/>
<path d="M148.668 289.913H169.146V306.714H148.668V289.913Z" fill="#263238"/>
<path opacity="0.2" d="M148.668 289.913H169.146V306.714H148.668V289.913Z" fill="white"/>
<path d="M142.148 410.074C140.32 410.074 138.858 409.492 138.961 407.653L145.494 290.016H151.901L145.346 408.064C145.254 409.663 143.849 410.074 142.148 410.074Z" fill="#263238"/>
<path opacity="0.2" d="M142.148 410.074C140.32 410.074 138.858 409.492 138.961 407.653L145.494 290.016H151.901L145.346 408.064C145.254 409.663 143.849 410.074 142.148 410.074Z" fill="white"/>
<path d="M165.458 410.074C163.653 410.074 162.203 409.538 162.26 407.79L166.006 290.016H172.459L168.713 407.984C168.61 409.618 167.194 410.074 165.458 410.074Z" fill="#263238"/>
<path opacity="0.2" d="M165.458 410.074C163.653 410.074 162.203 409.538 162.26 407.79L166.006 290.016H172.459L168.713 407.984C168.61 409.618 167.194 410.074 165.458 410.074Z" fill="white"/>
<path d="M255.525 410.074C257.363 410.074 258.825 409.492 258.722 407.653L252.178 290.016H245.771L252.338 408.064C252.407 409.663 253.834 410.074 255.525 410.074Z" fill="#263238"/>
<path opacity="0.2" d="M255.525 410.074C257.363 410.074 258.825 409.492 258.722 407.653L252.178 290.016H245.771L252.338 408.064C252.407 409.663 253.834 410.074 255.525 410.074Z" fill="white"/>
<path d="M275.249 284.614H122.492C122.09 284.614 121.692 284.693 121.32 284.847C120.949 285 120.611 285.226 120.327 285.51C120.043 285.794 119.818 286.132 119.664 286.503C119.51 286.874 119.431 287.272 119.431 287.674V292.129C119.431 292.943 119.754 293.725 120.331 294.301C120.907 294.877 121.688 295.201 122.503 295.201H275.249C276.061 295.201 276.839 294.878 277.413 294.304C277.987 293.73 278.31 292.952 278.31 292.14V287.686C278.31 286.874 277.987 286.095 277.413 285.521C276.839 284.947 276.061 284.625 275.249 284.625V284.614Z" fill="#263238"/>
<path opacity="0.5" d="M275.249 284.614H122.492C122.09 284.614 121.692 284.693 121.32 284.847C120.949 285 120.611 285.226 120.327 285.51C120.043 285.794 119.818 286.132 119.664 286.503C119.51 286.874 119.431 287.272 119.431 287.674V292.129C119.431 292.943 119.754 293.725 120.331 294.301C120.907 294.877 121.688 295.201 122.503 295.201H275.249C276.061 295.201 276.839 294.878 277.413 294.304C277.987 293.73 278.31 292.952 278.31 292.14V287.686C278.31 286.874 277.987 286.095 277.413 285.521C276.839 284.947 276.061 284.625 275.249 284.625V284.614Z" fill="white"/>
<path d="M192 251.812V260.252C191.785 260.252 191.579 260.338 191.426 260.49C191.274 260.642 191.189 260.848 191.189 261.063C191.189 261.278 191.274 261.485 191.426 261.637C191.579 261.789 191.785 261.874 192 261.874C195.221 261.874 198.441 261.874 201.662 261.874V250.179H192C191.783 250.179 191.576 250.265 191.422 250.418C191.269 250.571 191.183 250.779 191.183 250.996C191.183 251.212 191.269 251.42 191.422 251.573C191.576 251.726 191.783 251.812 192 251.812Z" fill="url(#paint111_linear_126_13937)"/>
<path opacity="0.3" d="M192 251.812V260.252C191.785 260.252 191.579 260.338 191.426 260.49C191.274 260.642 191.189 260.848 191.189 261.063C191.189 261.278 191.274 261.485 191.426 261.637C191.579 261.789 191.785 261.874 192 261.874C195.221 261.874 198.441 261.874 201.662 261.874V250.179H192C191.783 250.179 191.576 250.265 191.422 250.418C191.269 250.571 191.183 250.779 191.183 250.996C191.183 251.212 191.269 251.42 191.422 251.573C191.576 251.726 191.783 251.812 192 251.812Z" fill="white"/>
<path d="M192 251.824H199.504V260.252H192V251.824Z" fill="url(#paint112_linear_126_13937)"/>
<path opacity="0.6" d="M192 251.824H199.504V260.252H192V251.824Z" fill="white"/>
<path d="M197.928 251.001H239.352C241.145 251.001 242.596 253.286 242.596 256.038C242.596 258.791 241.145 261.063 239.352 261.063H197.928V251.001Z" fill="url(#paint113_linear_126_13937)"/>
<path opacity="0.9" d="M197.928 251.001H239.352C241.145 251.001 242.596 253.286 242.596 256.038C242.596 258.791 241.145 261.063 239.352 261.063H197.928V251.001Z" fill="white"/>
<path d="M197.928 261.874C206.448 261.874 230.387 262.034 238.907 261.874C244.743 261.771 245.052 250.59 239.33 250.19C235.344 249.916 231.244 250.19 227.246 250.19H197.928C197.713 250.19 197.507 250.276 197.355 250.428C197.203 250.58 197.117 250.786 197.117 251.001C197.117 251.216 197.203 251.423 197.355 251.575C197.507 251.727 197.713 251.812 197.928 251.812H237.559C239.432 251.812 240.769 251.812 241.488 254.039C242.116 255.947 241.911 259.841 239.353 260.252C239.064 260.275 238.773 260.275 238.485 260.252H197.928C197.713 260.252 197.507 260.338 197.355 260.49C197.203 260.642 197.117 260.848 197.117 261.063C197.117 261.278 197.203 261.485 197.355 261.637C197.507 261.789 197.713 261.874 197.928 261.874Z" fill="url(#paint114_linear_126_13937)"/>
<g opacity="0.2">
<path d="M197.928 261.874C206.448 261.874 230.387 262.034 238.907 261.874C244.743 261.771 245.052 250.59 239.33 250.19C235.344 249.916 231.244 250.19 227.246 250.19H197.928C197.713 250.19 197.507 250.276 197.355 250.428C197.203 250.58 197.117 250.786 197.117 251.001C197.117 251.216 197.203 251.423 197.355 251.575C197.507 251.727 197.713 251.812 197.928 251.812H237.559C239.432 251.812 240.769 251.812 241.488 254.039C242.116 255.947 241.911 259.841 239.353 260.252C239.064 260.275 238.773 260.275 238.485 260.252H197.928C197.713 260.252 197.507 260.338 197.355 260.49C197.203 260.642 197.117 260.848 197.117 261.063C197.117 261.278 197.203 261.485 197.355 261.637C197.507 261.789 197.713 261.874 197.928 261.874Z" fill="white"/>
</g>
<path d="M193.439 263.211V271.034C193.257 271.057 193.089 271.145 192.967 271.283C192.845 271.421 192.778 271.598 192.778 271.782C192.778 271.966 192.845 272.144 192.967 272.281C193.089 272.419 193.257 272.508 193.439 272.53H202.394V261.68H193.439C193.236 261.68 193.042 261.761 192.898 261.904C192.755 262.048 192.674 262.242 192.674 262.445C192.674 262.648 192.755 262.843 192.898 262.986C193.042 263.13 193.236 263.211 193.439 263.211Z" fill="url(#paint115_linear_126_13937)"/>
<path opacity="0.3" d="M193.439 263.211V271.034C193.257 271.057 193.089 271.145 192.967 271.283C192.845 271.421 192.778 271.598 192.778 271.782C192.778 271.966 192.845 272.144 192.967 272.281C193.089 272.419 193.257 272.508 193.439 272.53H202.394V261.68H193.439C193.236 261.68 193.042 261.761 192.898 261.904C192.755 262.048 192.674 262.242 192.674 262.445C192.674 262.648 192.755 262.843 192.898 262.986C193.042 263.13 193.236 263.211 193.439 263.211Z" fill="white"/>
<path d="M193.439 263.222H200.395V271.034H193.439V263.222Z" fill="url(#paint116_linear_126_13937)"/>
<path opacity="0.6" d="M193.439 263.222H200.395V271.034H193.439V263.222Z" fill="white"/>
<path d="M198.933 262.457H237.296C238.952 262.457 240.3 264.547 240.3 267.117C240.3 269.686 238.952 271.776 237.296 271.776H198.933V262.457Z" fill="url(#paint117_linear_126_13937)"/>
<path opacity="0.9" d="M198.933 262.457H237.296C238.952 262.457 240.3 264.547 240.3 267.117C240.3 269.686 238.952 271.776 237.296 271.776H198.933V262.457Z" fill="white"/>
<path d="M198.933 272.53C206.825 272.53 228.993 272.667 236.885 272.53C242.288 272.427 242.596 262.08 237.274 261.714C233.585 261.463 229.782 261.714 226.081 261.714H198.933C198.751 261.737 198.583 261.825 198.461 261.963C198.339 262.101 198.272 262.279 198.272 262.462C198.272 262.646 198.339 262.824 198.461 262.962C198.583 263.099 198.751 263.188 198.933 263.21H235.629C237.365 263.21 238.599 263.21 239.272 265.266C239.855 267.037 239.672 270.646 237.297 271.034C237.027 271.051 236.756 271.051 236.486 271.034H198.933C198.751 271.057 198.583 271.145 198.461 271.283C198.339 271.421 198.272 271.598 198.272 271.782C198.272 271.966 198.339 272.143 198.461 272.281C198.583 272.419 198.751 272.508 198.933 272.53Z" fill="url(#paint118_linear_126_13937)"/>
<path d="M188.985 274.163V283.472C188.749 283.472 188.523 283.565 188.355 283.732C188.188 283.899 188.095 284.126 188.095 284.362C188.095 284.599 188.188 284.825 188.355 284.992C188.523 285.159 188.749 285.253 188.985 285.253C192.526 285.253 196.078 285.253 199.63 285.253V272.393H188.985C188.768 272.418 188.567 272.522 188.422 272.685C188.276 272.848 188.195 273.059 188.195 273.278C188.195 273.497 188.276 273.708 188.422 273.871C188.567 274.035 188.768 274.139 188.985 274.163Z" fill="url(#paint119_linear_126_13937)"/>
<path opacity="0.3" d="M188.985 274.163V283.472C188.749 283.472 188.523 283.565 188.355 283.732C188.188 283.899 188.095 284.126 188.095 284.362C188.095 284.599 188.188 284.825 188.355 284.992C188.523 285.159 188.749 285.253 188.985 285.253C192.526 285.253 196.078 285.253 199.63 285.253V272.393H188.985C188.768 272.418 188.567 272.522 188.422 272.685C188.276 272.848 188.195 273.059 188.195 273.278C188.195 273.497 188.276 273.708 188.422 273.871C188.567 274.035 188.768 274.139 188.985 274.163Z" fill="white"/>
<path d="M188.985 274.186H197.254V283.483H188.985V274.186Z" fill="url(#paint120_linear_126_13937)"/>
<path opacity="0.6" d="M188.985 274.186H197.254V283.483H188.985V274.186Z" fill="white"/>
<path d="M195.518 273.284H241.202C243.167 273.284 244.766 275.762 244.766 278.823C244.766 281.884 243.167 284.374 241.202 284.374H195.518V273.284Z" fill="url(#paint121_linear_126_13937)"/>
<path opacity="0.9" d="M195.518 273.284H241.202C243.167 273.284 244.766 275.762 244.766 278.823C244.766 281.884 243.167 284.374 241.202 284.374H195.518V273.284Z" fill="white"/>
<path d="M195.518 285.265C204.906 285.265 231.289 285.436 240.677 285.265C247.107 285.15 247.45 272.827 241.145 272.393C236.748 272.096 232.225 272.393 227.828 272.393H195.518C195.282 272.393 195.055 272.487 194.888 272.654C194.721 272.821 194.627 273.048 194.627 273.284C194.627 273.52 194.721 273.747 194.888 273.914C195.055 274.081 195.282 274.175 195.518 274.175H239.192C241.248 274.175 242.721 274.175 243.521 276.63C244.206 278.732 243.989 283.015 241.18 283.483C240.856 283.506 240.532 283.506 240.209 283.483H195.518C195.282 283.483 195.055 283.577 194.888 283.744C194.721 283.911 194.627 284.137 194.627 284.374C194.627 284.61 194.721 284.837 194.888 285.004C195.055 285.171 195.282 285.265 195.518 285.265Z" fill="url(#paint122_linear_126_13937)"/>
<g opacity="0.2">
<path d="M195.518 285.265C204.906 285.265 231.289 285.436 240.677 285.265C247.107 285.15 247.45 272.827 241.145 272.393C236.748 272.096 232.225 272.393 227.828 272.393H195.518C195.282 272.393 195.055 272.487 194.888 272.654C194.721 272.821 194.627 273.048 194.627 273.284C194.627 273.52 194.721 273.747 194.888 273.914C195.055 274.081 195.282 274.175 195.518 274.175H239.192C241.248 274.175 242.721 274.175 243.521 276.63C244.206 278.732 243.989 283.015 241.18 283.483C240.856 283.506 240.532 283.506 240.209 283.483H195.518C195.282 283.483 195.055 283.577 194.888 283.744C194.721 283.911 194.627 284.137 194.627 284.374C194.627 284.61 194.721 284.837 194.888 285.004C195.055 285.171 195.282 285.265 195.518 285.265Z" fill="#263238"/>
</g>
<defs>
<linearGradient id="paint0_linear_126_13937" x1="378.489" y1="55.8035" x2="378.489" y2="406.945" gradientUnits="userSpaceOnUse">
<stop stop-color="#F77531"/>
<stop offset="1" stop-color="#FFA927"/>
</linearGradient>
<linearGradient id="paint1_linear_126_13937" x1="295.965" y1="52.7312" x2="295.965" y2="410.074" gradientUnits="userSpaceOnUse">
<stop stop-color="#F77531"/>
<stop offset="1" stop-color="#FFA927"/>
</linearGradient>
<linearGradient id="paint2_linear_126_13937" x1="459.778" y1="52.7312" x2="459.778" y2="410.074" gradientUnits="userSpaceOnUse">
<stop stop-color="#F77531"/>
<stop offset="1" stop-color="#FFA927"/>
</linearGradient>
<linearGradient id="paint3_linear_126_13937" x1="391.32" y1="52.7312" x2="391.32" y2="410.074" gradientUnits="userSpaceOnUse">
<stop stop-color="#F77531"/>
<stop offset="1" stop-color="#FFA927"/>
</linearGradient>
<linearGradient id="paint4_linear_126_13937" x1="367.308" y1="122.959" x2="367.308" y2="73.2435" gradientUnits="userSpaceOnUse">
<stop stop-color="#F77531"/>
<stop offset="1" stop-color="#FFA927"/>
</linearGradient>
<linearGradient id="paint5_linear_126_13937" x1="361.38" y1="122.959" x2="361.38" y2="73.2435" gradientUnits="userSpaceOnUse">
<stop stop-color="#F77531"/>
<stop offset="1" stop-color="#FFA927"/>
</linearGradient>
<linearGradient id="paint6_linear_126_13937" x1="376.182" y1="122.948" x2="376.182" y2="76.7268" gradientUnits="userSpaceOnUse">
<stop stop-color="#F77531"/>
<stop offset="1" stop-color="#FFA927"/>
</linearGradient>
<linearGradient id="paint7_linear_126_13937" x1="391.857" y1="122.959" x2="391.857" y2="73.2435" gradientUnits="userSpaceOnUse">
<stop stop-color="#F77531"/>
<stop offset="1" stop-color="#FFA927"/>
</linearGradient>
<linearGradient id="paint8_linear_126_13937" x1="385.079" y1="122.959" x2="385.079" y2="73.2435" gradientUnits="userSpaceOnUse">
<stop stop-color="#F77531"/>
<stop offset="1" stop-color="#FFA927"/>
</linearGradient>
<linearGradient id="paint9_linear_126_13937" x1="436.788" y1="122.959" x2="436.788" y2="73.2435" gradientUnits="userSpaceOnUse">
<stop stop-color="#F77531"/>
<stop offset="1" stop-color="#FFA927"/>
</linearGradient>
<linearGradient id="paint10_linear_126_13937" x1="430.01" y1="122.959" x2="430.01" y2="73.2435" gradientUnits="userSpaceOnUse">
<stop stop-color="#F77531"/>
<stop offset="1" stop-color="#FFA927"/>
</linearGradient>
<linearGradient id="paint11_linear_126_13937" x1="411.364" y1="122.959" x2="411.364" y2="73.2435" gradientUnits="userSpaceOnUse">
<stop stop-color="#F77531"/>
<stop offset="1" stop-color="#FFA927"/>
</linearGradient>
<linearGradient id="paint12_linear_126_13937" x1="404.574" y1="122.959" x2="404.574" y2="73.2435" gradientUnits="userSpaceOnUse">
<stop stop-color="#F77531"/>
<stop offset="1" stop-color="#FFA927"/>
</linearGradient>
<linearGradient id="paint13_linear_126_13937" x1="446.547" y1="122.959" x2="446.547" y2="74.4198" gradientUnits="userSpaceOnUse">
<stop stop-color="#F77531"/>
<stop offset="1" stop-color="#FFA927"/>
</linearGradient>
<linearGradient id="paint14_linear_126_13937" x1="455.433" y1="122.959" x2="455.433" y2="74.4198" gradientUnits="userSpaceOnUse">
<stop stop-color="#F77531"/>
<stop offset="1" stop-color="#FFA927"/>
</linearGradient>
<linearGradient id="paint15_linear_126_13937" x1="419.142" y1="122.959" x2="419.142" y2="74.4198" gradientUnits="userSpaceOnUse">
<stop stop-color="#F77531"/>
<stop offset="1" stop-color="#FFA927"/>
</linearGradient>
<linearGradient id="paint16_linear_126_13937" x1="425.07" y1="122.959" x2="425.07" y2="74.4198" gradientUnits="userSpaceOnUse">
<stop stop-color="#F77531"/>
<stop offset="1" stop-color="#FFA927"/>
</linearGradient>
<linearGradient id="paint17_linear_126_13937" x1="401.616" y1="122.948" x2="401.616" y2="76.7268" gradientUnits="userSpaceOnUse">
<stop stop-color="#F77531"/>
<stop offset="1" stop-color="#FFA927"/>
</linearGradient>
<linearGradient id="paint18_linear_126_13937" x1="336.818" y1="122.959" x2="336.818" y2="73.2435" gradientUnits="userSpaceOnUse">
<stop stop-color="#F77531"/>
<stop offset="1" stop-color="#FFA927"/>
</linearGradient>
<linearGradient id="paint19_linear_126_13937" x1="330.029" y1="122.959" x2="330.029" y2="73.2435" gradientUnits="userSpaceOnUse">
<stop stop-color="#F77531"/>
<stop offset="1" stop-color="#FFA927"/>
</linearGradient>
<linearGradient id="paint20_linear_126_13937" x1="346.566" y1="122.959" x2="346.566" y2="74.4198" gradientUnits="userSpaceOnUse">
<stop stop-color="#F77531"/>
<stop offset="1" stop-color="#FFA927"/>
</linearGradient>
<linearGradient id="paint21_linear_126_13937" x1="355.452" y1="122.959" x2="355.452" y2="74.4198" gradientUnits="userSpaceOnUse">
<stop stop-color="#F77531"/>
<stop offset="1" stop-color="#FFA927"/>
</linearGradient>
<linearGradient id="paint22_linear_126_13937" x1="319.173" y1="122.959" x2="319.173" y2="74.4198" gradientUnits="userSpaceOnUse">
<stop stop-color="#F77531"/>
<stop offset="1" stop-color="#FFA927"/>
</linearGradient>
<linearGradient id="paint23_linear_126_13937" x1="325.089" y1="122.959" x2="325.089" y2="74.4198" gradientUnits="userSpaceOnUse">
<stop stop-color="#F77531"/>
<stop offset="1" stop-color="#FFA927"/>
</linearGradient>
<linearGradient id="paint24_linear_126_13937" x1="404.203" y1="143.632" x2="404.203" y2="193.199" gradientUnits="userSpaceOnUse">
<stop stop-color="#F77531"/>
<stop offset="1" stop-color="#FFA927"/>
</linearGradient>
<linearGradient id="paint25_linear_126_13937" x1="409.994" y1="143.632" x2="409.994" y2="193.199" gradientUnits="userSpaceOnUse">
<stop stop-color="#F77531"/>
<stop offset="1" stop-color="#FFA927"/>
</linearGradient>
<linearGradient id="paint26_linear_126_13937" x1="395.529" y1="147.115" x2="395.529" y2="193.199" gradientUnits="userSpaceOnUse">
<stop stop-color="#F77531"/>
<stop offset="1" stop-color="#FFA927"/>
</linearGradient>
<linearGradient id="paint27_linear_126_13937" x1="380.23" y1="143.632" x2="380.23" y2="193.199" gradientUnits="userSpaceOnUse">
<stop stop-color="#F77531"/>
<stop offset="1" stop-color="#FFA927"/>
</linearGradient>
<linearGradient id="paint28_linear_126_13937" x1="386.855" y1="143.632" x2="386.855" y2="193.199" gradientUnits="userSpaceOnUse">
<stop stop-color="#F77531"/>
<stop offset="1" stop-color="#FFA927"/>
</linearGradient>
<linearGradient id="paint29_linear_126_13937" x1="336.362" y1="143.632" x2="336.362" y2="193.199" gradientUnits="userSpaceOnUse">
<stop stop-color="#F77531"/>
<stop offset="1" stop-color="#FFA927"/>
</linearGradient>
<linearGradient id="paint30_linear_126_13937" x1="342.986" y1="143.632" x2="342.986" y2="193.199" gradientUnits="userSpaceOnUse">
<stop stop-color="#F77531"/>
<stop offset="1" stop-color="#FFA927"/>
</linearGradient>
<linearGradient id="paint31_linear_126_13937" x1="361.191" y1="143.632" x2="361.191" y2="193.199" gradientUnits="userSpaceOnUse">
<stop stop-color="#F77531"/>
<stop offset="1" stop-color="#FFA927"/>
</linearGradient>
<linearGradient id="paint32_linear_126_13937" x1="367.816" y1="143.632" x2="367.816" y2="193.199" gradientUnits="userSpaceOnUse">
<stop stop-color="#F77531"/>
<stop offset="1" stop-color="#FFA927"/>
</linearGradient>
<linearGradient id="paint33_linear_126_13937" x1="326.842" y1="144.808" x2="326.842" y2="193.199" gradientUnits="userSpaceOnUse">
<stop stop-color="#F77531"/>
<stop offset="1" stop-color="#FFA927"/>
</linearGradient>
<linearGradient id="paint34_linear_126_13937" x1="318.168" y1="144.808" x2="318.168" y2="193.199" gradientUnits="userSpaceOnUse">
<stop stop-color="#F77531"/>
<stop offset="1" stop-color="#FFA927"/>
</linearGradient>
<linearGradient id="paint35_linear_126_13937" x1="353.591" y1="144.808" x2="353.591" y2="193.199" gradientUnits="userSpaceOnUse">
<stop stop-color="#F77531"/>
<stop offset="1" stop-color="#FFA927"/>
</linearGradient>
<linearGradient id="paint36_linear_126_13937" x1="347.806" y1="144.808" x2="347.806" y2="193.199" gradientUnits="userSpaceOnUse">
<stop stop-color="#F77531"/>
<stop offset="1" stop-color="#FFA927"/>
</linearGradient>
<linearGradient id="paint37_linear_126_13937" x1="370.7" y1="147.115" x2="370.7" y2="193.199" gradientUnits="userSpaceOnUse">
<stop stop-color="#F77531"/>
<stop offset="1" stop-color="#FFA927"/>
</linearGradient>
<linearGradient id="paint38_linear_126_13937" x1="433.966" y1="143.632" x2="433.966" y2="193.199" gradientUnits="userSpaceOnUse">
<stop stop-color="#F77531"/>
<stop offset="1" stop-color="#FFA927"/>
</linearGradient>
<linearGradient id="paint39_linear_126_13937" x1="440.603" y1="143.632" x2="440.603" y2="193.199" gradientUnits="userSpaceOnUse">
<stop stop-color="#F77531"/>
<stop offset="1" stop-color="#FFA927"/>
</linearGradient>
<linearGradient id="paint40_linear_126_13937" x1="424.447" y1="144.808" x2="424.447" y2="193.199" gradientUnits="userSpaceOnUse">
<stop stop-color="#F77531"/>
<stop offset="1" stop-color="#FFA927"/>
</linearGradient>
<linearGradient id="paint41_linear_126_13937" x1="415.773" y1="144.808" x2="415.773" y2="193.199" gradientUnits="userSpaceOnUse">
<stop stop-color="#F77531"/>
<stop offset="1" stop-color="#FFA927"/>
</linearGradient>
<linearGradient id="paint42_linear_126_13937" x1="451.195" y1="144.808" x2="451.195" y2="193.199" gradientUnits="userSpaceOnUse">
<stop stop-color="#F77531"/>
<stop offset="1" stop-color="#FFA927"/>
</linearGradient>
<linearGradient id="paint43_linear_126_13937" x1="445.411" y1="144.808" x2="445.411" y2="193.199" gradientUnits="userSpaceOnUse">
<stop stop-color="#F77531"/>
<stop offset="1" stop-color="#FFA927"/>
</linearGradient>
<linearGradient id="paint44_linear_126_13937" x1="366.16" y1="333.644" x2="366.16" y2="284.568" gradientUnits="userSpaceOnUse">
<stop stop-color="#F77531"/>
<stop offset="1" stop-color="#FFA927"/>
</linearGradient>
<linearGradient id="paint45_linear_126_13937" x1="360.369" y1="333.644" x2="360.369" y2="284.568" gradientUnits="userSpaceOnUse">
<stop stop-color="#F77531"/>
<stop offset="1" stop-color="#FFA927"/>
</linearGradient>
<linearGradient id="paint46_linear_126_13937" x1="374.834" y1="333.644" x2="374.834" y2="288.017" gradientUnits="userSpaceOnUse">
<stop stop-color="#F77531"/>
<stop offset="1" stop-color="#FFA927"/>
</linearGradient>
<linearGradient id="paint47_linear_126_13937" x1="390.132" y1="333.644" x2="390.132" y2="284.568" gradientUnits="userSpaceOnUse">
<stop stop-color="#F77531"/>
<stop offset="1" stop-color="#FFA927"/>
</linearGradient>
<linearGradient id="paint48_linear_126_13937" x1="383.509" y1="333.644" x2="383.509" y2="284.568" gradientUnits="userSpaceOnUse">
<stop stop-color="#F77531"/>
<stop offset="1" stop-color="#FFA927"/>
</linearGradient>
<linearGradient id="paint49_linear_126_13937" x1="434.001" y1="333.644" x2="434.001" y2="284.568" gradientUnits="userSpaceOnUse">
<stop stop-color="#F77531"/>
<stop offset="1" stop-color="#FFA927"/>
</linearGradient>
<linearGradient id="paint50_linear_126_13937" x1="427.377" y1="333.644" x2="427.377" y2="284.568" gradientUnits="userSpaceOnUse">
<stop stop-color="#F77531"/>
<stop offset="1" stop-color="#FFA927"/>
</linearGradient>
<linearGradient id="paint51_linear_126_13937" x1="409.183" y1="333.644" x2="409.183" y2="284.568" gradientUnits="userSpaceOnUse">
<stop stop-color="#F77531"/>
<stop offset="1" stop-color="#FFA927"/>
</linearGradient>
<linearGradient id="paint52_linear_126_13937" x1="402.547" y1="333.644" x2="402.547" y2="284.568" gradientUnits="userSpaceOnUse">
<stop stop-color="#F77531"/>
<stop offset="1" stop-color="#FFA927"/>
</linearGradient>
<linearGradient id="paint53_linear_126_13937" x1="443.532" y1="333.644" x2="443.532" y2="285.721" gradientUnits="userSpaceOnUse">
<stop stop-color="#F77531"/>
<stop offset="1" stop-color="#FFA927"/>
</linearGradient>
<linearGradient id="paint54_linear_126_13937" x1="452.195" y1="333.644" x2="452.195" y2="285.721" gradientUnits="userSpaceOnUse">
<stop stop-color="#F77531"/>
<stop offset="1" stop-color="#FFA927"/>
</linearGradient>
<linearGradient id="paint55_linear_126_13937" x1="416.773" y1="333.644" x2="416.773" y2="285.721" gradientUnits="userSpaceOnUse">
<stop stop-color="#F77531"/>
<stop offset="1" stop-color="#FFA927"/>
</linearGradient>
<linearGradient id="paint56_linear_126_13937" x1="422.557" y1="333.644" x2="422.557" y2="285.721" gradientUnits="userSpaceOnUse">
<stop stop-color="#F77531"/>
<stop offset="1" stop-color="#FFA927"/>
</linearGradient>
<linearGradient id="paint57_linear_126_13937" x1="399.652" y1="333.644" x2="399.652" y2="288.017" gradientUnits="userSpaceOnUse">
<stop stop-color="#F77531"/>
<stop offset="1" stop-color="#FFA927"/>
</linearGradient>
<linearGradient id="paint58_linear_126_13937" x1="336.396" y1="333.644" x2="336.396" y2="284.568" gradientUnits="userSpaceOnUse">
<stop stop-color="#F77531"/>
<stop offset="1" stop-color="#FFA927"/>
</linearGradient>
<linearGradient id="paint59_linear_126_13937" x1="329.761" y1="333.644" x2="329.761" y2="284.568" gradientUnits="userSpaceOnUse">
<stop stop-color="#F77531"/>
<stop offset="1" stop-color="#FFA927"/>
</linearGradient>
<linearGradient id="paint60_linear_126_13937" x1="345.916" y1="333.644" x2="345.916" y2="285.721" gradientUnits="userSpaceOnUse">
<stop stop-color="#F77531"/>
<stop offset="1" stop-color="#FFA927"/>
</linearGradient>
<linearGradient id="paint61_linear_126_13937" x1="354.601" y1="333.644" x2="354.601" y2="285.721" gradientUnits="userSpaceOnUse">
<stop stop-color="#F77531"/>
<stop offset="1" stop-color="#FFA927"/>
</linearGradient>
<linearGradient id="paint62_linear_126_13937" x1="319.167" y1="333.644" x2="319.167" y2="285.721" gradientUnits="userSpaceOnUse">
<stop stop-color="#F77531"/>
<stop offset="1" stop-color="#FFA927"/>
</linearGradient>
<linearGradient id="paint63_linear_126_13937" x1="324.953" y1="333.644" x2="324.953" y2="285.721" gradientUnits="userSpaceOnUse">
<stop stop-color="#F77531"/>
<stop offset="1" stop-color="#FFA927"/>
</linearGradient>
<linearGradient id="paint64_linear_126_13937" x1="366.114" y1="403.884" x2="366.114" y2="355.413" gradientUnits="userSpaceOnUse">
<stop stop-color="#F77531"/>
<stop offset="1" stop-color="#FFA927"/>
</linearGradient>
<linearGradient id="paint65_linear_126_13937" x1="360.347" y1="403.884" x2="360.347" y2="355.413" gradientUnits="userSpaceOnUse">
<stop stop-color="#F77531"/>
<stop offset="1" stop-color="#FFA927"/>
</linearGradient>
<linearGradient id="paint66_linear_126_13937" x1="374.789" y1="403.884" x2="374.789" y2="358.828" gradientUnits="userSpaceOnUse">
<stop stop-color="#F77531"/>
<stop offset="1" stop-color="#FFA927"/>
</linearGradient>
<linearGradient id="paint67_linear_126_13937" x1="390.098" y1="403.884" x2="390.098" y2="355.413" gradientUnits="userSpaceOnUse">
<stop stop-color="#F77531"/>
<stop offset="1" stop-color="#FFA927"/>
</linearGradient>
<linearGradient id="paint68_linear_126_13937" x1="383.474" y1="403.884" x2="383.474" y2="355.413" gradientUnits="userSpaceOnUse">
<stop stop-color="#F77531"/>
<stop offset="1" stop-color="#FFA927"/>
</linearGradient>
<linearGradient id="paint69_linear_126_13937" x1="433.966" y1="403.884" x2="433.966" y2="355.413" gradientUnits="userSpaceOnUse">
<stop stop-color="#F77531"/>
<stop offset="1" stop-color="#FFA927"/>
</linearGradient>
<linearGradient id="paint70_linear_126_13937" x1="427.331" y1="403.884" x2="427.331" y2="355.413" gradientUnits="userSpaceOnUse">
<stop stop-color="#F77531"/>
<stop offset="1" stop-color="#FFA927"/>
</linearGradient>
<linearGradient id="paint71_linear_126_13937" x1="409.137" y1="403.884" x2="409.137" y2="355.413" gradientUnits="userSpaceOnUse">
<stop stop-color="#F77531"/>
<stop offset="1" stop-color="#FFA927"/>
</linearGradient>
<linearGradient id="paint72_linear_126_13937" x1="402.513" y1="403.884" x2="402.513" y2="355.413" gradientUnits="userSpaceOnUse">
<stop stop-color="#F77531"/>
<stop offset="1" stop-color="#FFA927"/>
</linearGradient>
<linearGradient id="paint73_linear_126_13937" x1="443.486" y1="403.895" x2="443.486" y2="356.578" gradientUnits="userSpaceOnUse">
<stop stop-color="#F77531"/>
<stop offset="1" stop-color="#FFA927"/>
</linearGradient>
<linearGradient id="paint74_linear_126_13937" x1="452.16" y1="403.895" x2="452.16" y2="356.578" gradientUnits="userSpaceOnUse">
<stop stop-color="#F77531"/>
<stop offset="1" stop-color="#FFA927"/>
</linearGradient>
<linearGradient id="paint75_linear_126_13937" x1="416.727" y1="403.895" x2="416.727" y2="356.578" gradientUnits="userSpaceOnUse">
<stop stop-color="#F77531"/>
<stop offset="1" stop-color="#FFA927"/>
</linearGradient>
<linearGradient id="paint76_linear_126_13937" x1="422.523" y1="403.895" x2="422.523" y2="356.578" gradientUnits="userSpaceOnUse">
<stop stop-color="#F77531"/>
<stop offset="1" stop-color="#FFA927"/>
</linearGradient>
<linearGradient id="paint77_linear_126_13937" x1="399.63" y1="403.884" x2="399.63" y2="358.828" gradientUnits="userSpaceOnUse">
<stop stop-color="#F77531"/>
<stop offset="1" stop-color="#FFA927"/>
</linearGradient>
<linearGradient id="paint78_linear_126_13937" x1="336.35" y1="403.884" x2="336.35" y2="355.413" gradientUnits="userSpaceOnUse">
<stop stop-color="#F77531"/>
<stop offset="1" stop-color="#FFA927"/>
</linearGradient>
<linearGradient id="paint79_linear_126_13937" x1="329.738" y1="403.884" x2="329.738" y2="355.413" gradientUnits="userSpaceOnUse">
<stop stop-color="#F77531"/>
<stop offset="1" stop-color="#FFA927"/>
</linearGradient>
<linearGradient id="paint80_linear_126_13937" x1="345.881" y1="403.895" x2="345.881" y2="356.578" gradientUnits="userSpaceOnUse">
<stop stop-color="#F77531"/>
<stop offset="1" stop-color="#FFA927"/>
</linearGradient>
<linearGradient id="paint81_linear_126_13937" x1="354.556" y1="403.895" x2="354.556" y2="356.578" gradientUnits="userSpaceOnUse">
<stop stop-color="#F77531"/>
<stop offset="1" stop-color="#FFA927"/>
</linearGradient>
<linearGradient id="paint82_linear_126_13937" x1="319.122" y1="403.895" x2="319.122" y2="356.578" gradientUnits="userSpaceOnUse">
<stop stop-color="#F77531"/>
<stop offset="1" stop-color="#FFA927"/>
</linearGradient>
<linearGradient id="paint83_linear_126_13937" x1="324.918" y1="403.895" x2="324.918" y2="356.578" gradientUnits="userSpaceOnUse">
<stop stop-color="#F77531"/>
<stop offset="1" stop-color="#FFA927"/>
</linearGradient>
<linearGradient id="paint84_linear_126_13937" x1="407.213" y1="213.026" x2="407.213" y2="263.405" gradientUnits="userSpaceOnUse">
<stop stop-color="#F77531"/>
<stop offset="1" stop-color="#FFA927"/>
</linearGradient>
<linearGradient id="paint85_linear_126_13937" x1="413.197" y1="213.026" x2="413.197" y2="263.405" gradientUnits="userSpaceOnUse">
<stop stop-color="#F77531"/>
<stop offset="1" stop-color="#FFA927"/>
</linearGradient>
<linearGradient id="paint86_linear_126_13937" x1="398.247" y1="216.567" x2="398.247" y2="263.405" gradientUnits="userSpaceOnUse">
<stop stop-color="#F77531"/>
<stop offset="1" stop-color="#FFA927"/>
</linearGradient>
<linearGradient id="paint87_linear_126_13937" x1="382.417" y1="213.026" x2="382.417" y2="263.405" gradientUnits="userSpaceOnUse">
<stop stop-color="#F77531"/>
<stop offset="1" stop-color="#FFA927"/>
</linearGradient>
<linearGradient id="paint88_linear_126_13937" x1="389.282" y1="213.026" x2="389.282" y2="263.405" gradientUnits="userSpaceOnUse">
<stop stop-color="#F77531"/>
<stop offset="1" stop-color="#FFA927"/>
</linearGradient>
<linearGradient id="paint89_linear_126_13937" x1="337.065" y1="213.026" x2="337.065" y2="263.405" gradientUnits="userSpaceOnUse">
<stop stop-color="#F77531"/>
<stop offset="1" stop-color="#FFA927"/>
</linearGradient>
<linearGradient id="paint90_linear_126_13937" x1="343.928" y1="213.026" x2="343.928" y2="263.405" gradientUnits="userSpaceOnUse">
<stop stop-color="#F77531"/>
<stop offset="1" stop-color="#FFA927"/>
</linearGradient>
<linearGradient id="paint91_linear_126_13937" x1="362.738" y1="213.026" x2="362.738" y2="263.405" gradientUnits="userSpaceOnUse">
<stop stop-color="#F77531"/>
<stop offset="1" stop-color="#FFA927"/>
</linearGradient>
<linearGradient id="paint92_linear_126_13937" x1="369.592" y1="213.026" x2="369.592" y2="263.405" gradientUnits="userSpaceOnUse">
<stop stop-color="#F77531"/>
<stop offset="1" stop-color="#FFA927"/>
</linearGradient>
<linearGradient id="paint93_linear_126_13937" x1="327.231" y1="214.225" x2="327.231" y2="263.416" gradientUnits="userSpaceOnUse">
<stop stop-color="#F77531"/>
<stop offset="1" stop-color="#FFA927"/>
</linearGradient>
<linearGradient id="paint94_linear_126_13937" x1="318.265" y1="214.225" x2="318.265" y2="263.416" gradientUnits="userSpaceOnUse">
<stop stop-color="#F77531"/>
<stop offset="1" stop-color="#FFA927"/>
</linearGradient>
<linearGradient id="paint95_linear_126_13937" x1="354.887" y1="214.225" x2="354.887" y2="263.416" gradientUnits="userSpaceOnUse">
<stop stop-color="#F77531"/>
<stop offset="1" stop-color="#FFA927"/>
</linearGradient>
<linearGradient id="paint96_linear_126_13937" x1="348.908" y1="214.225" x2="348.908" y2="263.416" gradientUnits="userSpaceOnUse">
<stop stop-color="#F77531"/>
<stop offset="1" stop-color="#FFA927"/>
</linearGradient>
<linearGradient id="paint97_linear_126_13937" x1="372.584" y1="216.567" x2="372.584" y2="263.405" gradientUnits="userSpaceOnUse">
<stop stop-color="#F77531"/>
<stop offset="1" stop-color="#FFA927"/>
</linearGradient>
<linearGradient id="paint98_linear_126_13937" x1="437.981" y1="213.026" x2="437.981" y2="263.405" gradientUnits="userSpaceOnUse">
<stop stop-color="#F77531"/>
<stop offset="1" stop-color="#FFA927"/>
</linearGradient>
<linearGradient id="paint99_linear_126_13937" x1="444.834" y1="213.026" x2="444.834" y2="263.405" gradientUnits="userSpaceOnUse">
<stop stop-color="#F77531"/>
<stop offset="1" stop-color="#FFA927"/>
</linearGradient>
<linearGradient id="paint100_linear_126_13937" x1="428.136" y1="214.225" x2="428.136" y2="263.416" gradientUnits="userSpaceOnUse">
<stop stop-color="#F77531"/>
<stop offset="1" stop-color="#FFA927"/>
</linearGradient>
<linearGradient id="paint101_linear_126_13937" x1="419.171" y1="214.225" x2="419.171" y2="263.416" gradientUnits="userSpaceOnUse">
<stop stop-color="#F77531"/>
<stop offset="1" stop-color="#FFA927"/>
</linearGradient>
<linearGradient id="paint102_linear_126_13937" x1="455.792" y1="214.225" x2="455.792" y2="263.416" gradientUnits="userSpaceOnUse">
<stop stop-color="#F77531"/>
<stop offset="1" stop-color="#FFA927"/>
</linearGradient>
<linearGradient id="paint103_linear_126_13937" x1="449.814" y1="214.225" x2="449.814" y2="263.416" gradientUnits="userSpaceOnUse">
<stop stop-color="#F77531"/>
<stop offset="1" stop-color="#FFA927"/>
</linearGradient>
<linearGradient id="paint104_linear_126_13937" x1="397.728" y1="15.704" x2="397.728" y2="46.3011" gradientUnits="userSpaceOnUse">
<stop stop-color="#F77531"/>
<stop offset="1" stop-color="#FFA927"/>
</linearGradient>
<linearGradient id="paint105_linear_126_13937" x1="441.665" y1="0" x2="441.665" y2="15.704" gradientUnits="userSpaceOnUse">
<stop stop-color="#F77531"/>
<stop offset="1" stop-color="#FFA927"/>
</linearGradient>
<linearGradient id="paint106_linear_126_13937" x1="352.512" y1="0" x2="352.512" y2="15.704" gradientUnits="userSpaceOnUse">
<stop stop-color="#F77531"/>
<stop offset="1" stop-color="#FFA927"/>
</linearGradient>
<linearGradient id="paint107_linear_126_13937" x1="396.14" y1="21.2203" x2="396.14" y2="26.7824" gradientUnits="userSpaceOnUse">
<stop stop-color="#F77531"/>
<stop offset="1" stop-color="#FFA927"/>
</linearGradient>
<linearGradient id="paint108_linear_126_13937" x1="370.855" y1="31.0083" x2="370.855" y2="33.1783" gradientUnits="userSpaceOnUse">
<stop stop-color="#F77531"/>
<stop offset="1" stop-color="#FFA927"/>
</linearGradient>
<linearGradient id="paint109_linear_126_13937" x1="377.798" y1="37.3927" x2="377.798" y2="39.5627" gradientUnits="userSpaceOnUse">
<stop stop-color="#F77531"/>
<stop offset="1" stop-color="#FFA927"/>
</linearGradient>
<linearGradient id="paint110_linear_126_13937" x1="158.907" y1="289.913" x2="158.907" y2="306.714" gradientUnits="userSpaceOnUse">
<stop stop-color="#F77531"/>
<stop offset="1" stop-color="#FFA927"/>
</linearGradient>
<linearGradient id="paint111_linear_126_13937" x1="196.423" y1="250.179" x2="196.423" y2="261.874" gradientUnits="userSpaceOnUse">
<stop stop-color="#F77531"/>
<stop offset="1" stop-color="#FFA927"/>
</linearGradient>
<linearGradient id="paint112_linear_126_13937" x1="195.752" y1="251.824" x2="195.752" y2="260.252" gradientUnits="userSpaceOnUse">
<stop stop-color="#F77531"/>
<stop offset="1" stop-color="#FFA927"/>
</linearGradient>
<linearGradient id="paint113_linear_126_13937" x1="220.262" y1="251.001" x2="220.262" y2="261.063" gradientUnits="userSpaceOnUse">
<stop stop-color="#F77531"/>
<stop offset="1" stop-color="#FFA927"/>
</linearGradient>
<linearGradient id="paint114_linear_126_13937" x1="220.287" y1="250.069" x2="220.287" y2="261.945" gradientUnits="userSpaceOnUse">
<stop stop-color="#F77531"/>
<stop offset="1" stop-color="#FFA927"/>
</linearGradient>
<linearGradient id="paint115_linear_126_13937" x1="197.534" y1="261.68" x2="197.534" y2="272.53" gradientUnits="userSpaceOnUse">
<stop stop-color="#F77531"/>
<stop offset="1" stop-color="#FFA927"/>
</linearGradient>
<linearGradient id="paint116_linear_126_13937" x1="196.917" y1="263.222" x2="196.917" y2="271.034" gradientUnits="userSpaceOnUse">
<stop stop-color="#F77531"/>
<stop offset="1" stop-color="#FFA927"/>
</linearGradient>
<linearGradient id="paint117_linear_126_13937" x1="219.616" y1="262.457" x2="219.616" y2="271.776" gradientUnits="userSpaceOnUse">
<stop stop-color="#F77531"/>
<stop offset="1" stop-color="#FFA927"/>
</linearGradient>
<linearGradient id="paint118_linear_126_13937" x1="219.689" y1="261.603" x2="219.689" y2="272.591" gradientUnits="userSpaceOnUse">
<stop stop-color="#F77531"/>
<stop offset="1" stop-color="#FFA927"/>
</linearGradient>
<linearGradient id="paint119_linear_126_13937" x1="193.862" y1="272.393" x2="193.862" y2="285.253" gradientUnits="userSpaceOnUse">
<stop stop-color="#F77531"/>
<stop offset="1" stop-color="#FFA927"/>
</linearGradient>
<linearGradient id="paint120_linear_126_13937" x1="193.119" y1="274.186" x2="193.119" y2="283.483" gradientUnits="userSpaceOnUse">
<stop stop-color="#F77531"/>
<stop offset="1" stop-color="#FFA927"/>
</linearGradient>
<linearGradient id="paint121_linear_126_13937" x1="220.142" y1="273.284" x2="220.142" y2="284.374" gradientUnits="userSpaceOnUse">
<stop stop-color="#F77531"/>
<stop offset="1" stop-color="#FFA927"/>
</linearGradient>
<linearGradient id="paint122_linear_126_13937" x1="220.159" y1="272.261" x2="220.159" y2="285.341" gradientUnits="userSpaceOnUse">
<stop stop-color="#F77531"/>
<stop offset="1" stop-color="#FFA927"/>
</linearGradient>
</defs>
</svg>
