<svg width="245" height="396" viewBox="0 0 245 396" fill="none" xmlns="http://www.w3.org/2000/svg">
<path d="M217.975 392.136H175.556V392.456H217.975V392.136Z" fill="#EBEBEB"/>
<path d="M65.9737 395.62H54.8438V395.94H65.9737V395.62Z" fill="#EBEBEB"/>
<path d="M174.275 380.25H149.697V380.571H174.275V380.25Z" fill="#EBEBEB"/>
<path d="M199.213 3.2019H34.1201V368.25H199.213V3.2019Z" fill="#E0E0E0"/>
<path d="M199.212 0V371.426H229.63V0H199.212Z" fill="#E6E6E6"/>
<path d="M5.1748 0V371.426H35.5805V0H5.1748Z" fill="#E6E6E6"/>
<path d="M0 0V371.426H202.863V0H0ZM195.562 6.4039V73.0044H7.28764V6.4039H195.562ZM7.28764 219.013V152.413H195.562V219.013H7.28764ZM195.562 225.417V292.018H7.28764V225.417H195.562ZM7.28764 146.009V79.4083H195.562V146.009H7.28764ZM7.28764 365.022V298.422H195.562V365.022H7.28764Z" fill="#F5F5F5"/>
<path d="M129.794 73.6191H136.812V21.9397H129.794V73.6191Z" fill="#E6E6E6"/>
<path d="M136.813 73.6191H143.832V21.9397H136.813V73.6191Z" fill="#E0E0E0"/>
<path d="M115.757 73.6191H129.794V25.5643H115.757V73.6191Z" fill="#E6E6E6"/>
<path d="M99.6831 73.6191H108.751V21.9397H99.6831V73.6191Z" fill="#F0F0F0"/>
<path d="M108.751 73.6191H115.77V21.9397H108.751V73.6191Z" fill="#EBEBEB"/>
<path d="M46.4536 73.6191H55.5215L55.5215 21.9397H46.4536L46.4536 73.6191Z" fill="#E6E6E6"/>
<path d="M55.5223 73.6191H62.541L62.541 21.9397H55.5223L55.5223 73.6191Z" fill="#EBEBEB"/>
<path d="M76.5649 73.6191H85.6328V21.9397H76.5649V73.6191Z" fill="#E6E6E6"/>
<path d="M85.6337 73.6191H92.6523V21.9397H85.6337V73.6191Z" fill="#E0E0E0"/>
<path d="M32.4167 73.6191H46.4541L46.4541 23.1564H32.4167L32.4167 73.6191Z" fill="#EBEBEB"/>
<path d="M25.411 73.6191H32.4297L32.4297 23.1564H25.411L25.411 73.6191Z" fill="#E0E0E0"/>
<path d="M67.2284 73.6191H76.5781V23.1564H67.2284V73.6191Z" fill="#E0E0E0"/>
<path d="M62.541 73.6191H67.2158V23.1564H62.541L62.541 73.6191Z" fill="#F0F0F0"/>
<path d="M85.6326 73.6191H99.6699V25.5643H85.6326V73.6191Z" fill="#F5F5F5"/>
<path d="M164.888 73.6191H173.956V21.9397H164.888V73.6191Z" fill="#EBEBEB"/>
<path d="M173.955 73.6191H180.974V21.9397H173.955V73.6191Z" fill="#E6E6E6"/>
<path d="M150.838 73.6191H164.875V23.1564H150.838V73.6191Z" fill="#E0E0E0"/>
<path d="M143.819 73.6191H150.838V23.1564H143.819V73.6191Z" fill="#EBEBEB"/>
<path d="M185.648 73.6191H194.998V23.1564H185.648V73.6191Z" fill="#EBEBEB"/>
<path d="M180.974 73.6191H185.648V23.1564H180.974V73.6191Z" fill="#FAFAFA"/>
<path d="M90.6017 94.3037H83.583V145.983H90.6017V94.3037Z" fill="#E6E6E6"/>
<path d="M83.5968 94.3037H76.5781V145.983H83.5968V94.3037Z" fill="#E0E0E0"/>
<path d="M104.64 97.9412H90.6025V145.996H104.64V97.9412Z" fill="#E6E6E6"/>
<path d="M120.726 94.3037H111.658V145.983H120.726V94.3037Z" fill="#F0F0F0"/>
<path d="M111.658 94.3037H104.64V145.983H111.658V94.3037Z" fill="#EBEBEB"/>
<path d="M173.943 94.3037H164.875V145.983H173.943V94.3037Z" fill="#E6E6E6"/>
<path d="M164.875 94.3037H157.856V145.983H164.875V94.3037Z" fill="#EBEBEB"/>
<path d="M143.831 94.3037H134.763V145.983H143.831V94.3037Z" fill="#E6E6E6"/>
<path d="M134.764 94.3037H127.745V145.983H134.764V94.3037Z" fill="#E0E0E0"/>
<path d="M187.98 95.5334H173.942V145.996H187.98V95.5334Z" fill="#EBEBEB"/>
<path d="M194.999 95.5334H187.98V145.996H194.999V95.5334Z" fill="#E0E0E0"/>
<path d="M153.182 95.5334H143.832V145.996H153.182V95.5334Z" fill="#E0E0E0"/>
<path d="M157.856 95.5334H153.182V145.996H157.856V95.5334Z" fill="#F0F0F0"/>
<path d="M134.764 97.9412H120.727V145.996H134.764V97.9412Z" fill="#F5F5F5"/>
<path d="M55.522 94.3037H46.4541V145.983H55.522V94.3037Z" fill="#EBEBEB"/>
<path d="M46.4533 94.3037H39.4346V145.983H46.4533V94.3037Z" fill="#E6E6E6"/>
<path d="M69.5588 95.5334H55.5215V145.996H69.5588V95.5334Z" fill="#E0E0E0"/>
<path d="M76.5773 95.5334H69.5586V145.996H76.5773V95.5334Z" fill="#EBEBEB"/>
<path d="M34.7471 95.5334H25.3975V145.996H34.7471V95.5334Z" fill="#EBEBEB"/>
<path d="M39.4346 95.5334H34.7598V145.996H39.4346V95.5334Z" fill="#FAFAFA"/>
<path d="M90.6017 167.961H83.583V219.641H90.6017V167.961Z" fill="#E6E6E6"/>
<path d="M83.5968 167.961H76.5781V219.641H83.5968V167.961Z" fill="#E0E0E0"/>
<path d="M104.64 171.586H90.6025V219.641H104.64V171.586Z" fill="#E6E6E6"/>
<path d="M120.726 167.961H111.658V219.641H120.726V167.961Z" fill="#F0F0F0"/>
<path d="M111.658 167.961H104.64V219.641H111.658V167.961Z" fill="#EBEBEB"/>
<path d="M173.943 167.961H164.875V219.641H173.943V167.961Z" fill="#E6E6E6"/>
<path d="M164.875 167.961H157.856V219.641H164.875V167.961Z" fill="#EBEBEB"/>
<path d="M143.831 167.961H134.763V219.641H143.831V167.961Z" fill="#E6E6E6"/>
<path d="M134.764 167.961H127.745V219.641H134.764V167.961Z" fill="#E0E0E0"/>
<path d="M187.98 169.178H173.942V219.641H187.98V169.178Z" fill="#EBEBEB"/>
<path d="M194.999 169.178H187.98V219.641H194.999V169.178Z" fill="#E0E0E0"/>
<path d="M153.182 169.178H143.832V219.641H153.182V169.178Z" fill="#E0E0E0"/>
<path d="M157.856 169.178H153.182V219.641H157.856V169.178Z" fill="#F0F0F0"/>
<path d="M134.764 171.586H120.727V219.641H134.764V171.586Z" fill="#F5F5F5"/>
<path d="M55.522 167.961H46.4541V219.641H55.522V167.961Z" fill="#EBEBEB"/>
<path d="M46.4533 167.961H39.4346V219.641H46.4533V167.961Z" fill="#E6E6E6"/>
<path d="M69.5588 169.178H55.5215V219.641H69.5588V169.178Z" fill="#E0E0E0"/>
<path d="M76.5773 169.178H69.5586V219.641H76.5773V169.178Z" fill="#EBEBEB"/>
<path d="M34.7471 169.178H25.3975V219.641H34.7471V169.178Z" fill="#EBEBEB"/>
<path d="M39.4346 169.178H34.7598V219.641H39.4346V169.178Z" fill="#FAFAFA"/>
<path d="M129.794 293.299H136.812V241.619H129.794V293.299Z" fill="#E6E6E6"/>
<path d="M136.813 293.299H143.832V241.619H136.813V293.299Z" fill="#E0E0E0"/>
<path d="M115.757 289.661H129.794V241.606H115.757V289.661Z" fill="#E6E6E6"/>
<path d="M99.6831 293.299H108.751V241.619H99.6831V293.299Z" fill="#F0F0F0"/>
<path d="M108.751 293.299H115.77V241.619H108.751V293.299Z" fill="#EBEBEB"/>
<path d="M46.4536 293.299H55.5215L55.5215 241.619H46.4536L46.4536 293.299Z" fill="#E6E6E6"/>
<path d="M55.5223 293.299H62.541L62.541 241.619H55.5223L55.5223 293.299Z" fill="#EBEBEB"/>
<path d="M76.5649 293.299H85.6328V241.619H76.5649V293.299Z" fill="#E6E6E6"/>
<path d="M85.6337 293.299H92.6523V241.619H85.6337V293.299Z" fill="#E0E0E0"/>
<path d="M32.4167 292.069H46.4541L46.4541 241.606H32.4167L32.4167 292.069Z" fill="#EBEBEB"/>
<path d="M25.411 292.069H32.4297L32.4297 241.606H25.411L25.411 292.069Z" fill="#E0E0E0"/>
<path d="M67.2284 292.069H76.5781V241.606H67.2284V292.069Z" fill="#E0E0E0"/>
<path d="M62.541 292.069H67.2158V241.606H62.541L62.541 292.069Z" fill="#F0F0F0"/>
<path d="M85.6326 289.661H99.6699V241.606H85.6326V289.661Z" fill="#F5F5F5"/>
<path d="M164.888 293.299H173.956V241.619H164.888V293.299Z" fill="#EBEBEB"/>
<path d="M173.955 293.299H180.974V241.619H173.955V293.299Z" fill="#E6E6E6"/>
<path d="M150.838 292.069H164.875V241.606H150.838V292.069Z" fill="#E0E0E0"/>
<path d="M143.819 292.069H150.838V241.606H143.819V292.069Z" fill="#EBEBEB"/>
<path d="M185.648 292.069H194.998V241.606H185.648V292.069Z" fill="#EBEBEB"/>
<path d="M180.974 292.069H185.648V241.606H180.974V292.069Z" fill="#FAFAFA"/>
<path d="M90.6017 315.264H83.583V366.943H90.6017V315.264Z" fill="#E6E6E6"/>
<path d="M83.5968 315.264H76.5781V366.943H83.5968V315.264Z" fill="#E0E0E0"/>
<path d="M104.64 315.264H90.6025V363.319H104.64V315.264Z" fill="#E6E6E6"/>
<path d="M120.726 315.264H111.658V366.943H120.726V315.264Z" fill="#F0F0F0"/>
<path d="M111.658 315.264H104.64V366.943H111.658V315.264Z" fill="#EBEBEB"/>
<path d="M173.943 315.264H164.875V366.943H173.943V315.264Z" fill="#E6E6E6"/>
<path d="M164.875 315.264H157.856V366.943H164.875V315.264Z" fill="#EBEBEB"/>
<path d="M143.831 315.264H134.763V366.943H143.831V315.264Z" fill="#E6E6E6"/>
<path d="M134.764 315.264H127.745V366.943H134.764V315.264Z" fill="#E0E0E0"/>
<path d="M187.98 315.264H173.942V365.727H187.98V315.264Z" fill="#EBEBEB"/>
<path d="M194.999 315.264H187.98V365.727H194.999V315.264Z" fill="#E0E0E0"/>
<path d="M153.182 315.264H143.832V365.727H153.182V315.264Z" fill="#E0E0E0"/>
<path d="M157.856 315.264H153.182V365.727H157.856V315.264Z" fill="#F0F0F0"/>
<path d="M134.764 315.264H120.727V363.319H134.764V315.264Z" fill="#F5F5F5"/>
<path d="M55.522 315.264H46.4541V366.943H55.522V315.264Z" fill="#EBEBEB"/>
<path d="M46.4533 315.264H39.4346V366.943H46.4533V315.264Z" fill="#E6E6E6"/>
<path d="M69.5588 315.264H55.5215V365.727H69.5588V315.264Z" fill="#E0E0E0"/>
<path d="M76.5773 315.264H69.5586V365.727H76.5773V315.264Z" fill="#EBEBEB"/>
<path d="M34.7471 315.264H25.3975V365.727H34.7471V315.264Z" fill="#EBEBEB"/>
<path d="M39.4346 315.264H34.7598V365.727H39.4346V315.264Z" fill="#FAFAFA"/>
<path d="M184.407 336.036V344.259C184.215 344.283 184.039 344.377 183.911 344.522C183.783 344.667 183.713 344.853 183.713 345.047C183.713 345.24 183.783 345.426 183.911 345.571C184.039 345.716 184.215 345.81 184.407 345.834H193.82V334.423H184.407C184.193 334.423 183.987 334.508 183.836 334.659C183.685 334.81 183.6 335.016 183.6 335.23C183.6 335.444 183.685 335.649 183.836 335.8C183.987 335.951 184.193 336.036 184.407 336.036Z" fill="url(#paint0_linear_126_14592)"/>
<path opacity="0.3" d="M184.407 336.036V344.259C184.215 344.283 184.039 344.377 183.911 344.522C183.783 344.667 183.713 344.853 183.713 345.047C183.713 345.24 183.783 345.426 183.911 345.571C184.039 345.716 184.215 345.81 184.407 345.834H193.82V334.423H184.407C184.193 334.423 183.987 334.508 183.836 334.659C183.685 334.81 183.6 335.016 183.6 335.23C183.6 335.444 183.685 335.649 183.836 335.8C183.987 335.951 184.193 336.036 184.407 336.036Z" fill="white"/>
<path d="M191.707 336.049H184.406V344.259H191.707V336.049Z" fill="url(#paint1_linear_126_14592)"/>
<path opacity="0.6" d="M191.707 336.049H184.406V344.259H191.707V336.049Z" fill="white"/>
<path d="M190.184 335.242H230.515C232.257 335.242 233.666 337.433 233.666 340.148C233.666 342.863 232.257 345.04 230.515 345.04H190.184V335.242Z" fill="url(#paint2_linear_126_14592)"/>
<path opacity="0.9" d="M190.184 335.242H230.515C232.257 335.242 233.666 337.433 233.666 340.148C233.666 342.863 232.257 345.04 230.515 345.04H190.184V335.242Z" fill="white"/>
<path d="M190.184 345.834C198.47 345.834 221.781 345.975 230.08 345.834C235.754 345.732 236.061 334.845 230.49 334.461C226.647 334.192 222.613 334.461 218.719 334.461H190.184C189.992 334.486 189.816 334.579 189.688 334.724C189.561 334.869 189.49 335.056 189.49 335.249C189.49 335.442 189.561 335.629 189.688 335.773C189.816 335.918 189.992 336.012 190.184 336.036H228.761C230.579 336.036 231.886 336.036 232.603 338.201C233.205 340.058 233.013 343.849 230.528 344.259C230.243 344.278 229.956 344.278 229.67 344.259H190.184C189.992 344.284 189.816 344.377 189.688 344.522C189.561 344.667 189.49 344.854 189.49 345.047C189.49 345.24 189.561 345.426 189.688 345.571C189.816 345.716 189.992 345.81 190.184 345.834Z" fill="url(#paint3_linear_126_14592)"/>
<g opacity="0.2">
<path d="M190.184 345.834C198.47 345.834 221.781 345.975 230.08 345.834C235.754 345.732 236.061 334.845 230.49 334.461C226.647 334.192 222.613 334.461 218.719 334.461H190.184C189.992 334.486 189.816 334.579 189.688 334.724C189.561 334.869 189.49 335.056 189.49 335.249C189.49 335.442 189.561 335.629 189.688 335.773C189.816 335.918 189.992 336.012 190.184 336.036H228.761C230.579 336.036 231.886 336.036 232.603 338.201C233.205 340.058 233.013 343.849 230.528 344.259C230.243 344.278 229.956 344.278 229.67 344.259H190.184C189.992 344.284 189.816 344.377 189.688 344.522C189.561 344.667 189.49 344.854 189.49 345.047C189.49 345.24 189.561 345.426 189.688 345.571C189.816 345.716 189.992 345.81 190.184 345.834Z" fill="white"/>
</g>
<path d="M185.765 347.128V354.749C185.59 354.772 185.429 354.858 185.312 354.991C185.196 355.125 185.132 355.295 185.132 355.472C185.132 355.649 185.196 355.82 185.312 355.953C185.429 356.086 185.59 356.173 185.765 356.196H194.474V345.668H185.765C185.572 345.668 185.386 345.745 185.249 345.882C185.112 346.019 185.035 346.204 185.035 346.398C185.035 346.592 185.112 346.777 185.249 346.914C185.386 347.051 185.572 347.128 185.765 347.128Z" fill="url(#paint4_linear_126_14592)"/>
<path opacity="0.3" d="M185.765 347.128V354.749C185.59 354.772 185.429 354.858 185.312 354.991C185.196 355.125 185.132 355.295 185.132 355.472C185.132 355.649 185.196 355.82 185.312 355.953C185.429 356.086 185.59 356.173 185.765 356.196H194.474V345.668H185.765C185.572 345.668 185.386 345.745 185.249 345.882C185.112 346.019 185.035 346.204 185.035 346.398C185.035 346.592 185.112 346.777 185.249 346.914C185.386 347.051 185.572 347.128 185.765 347.128Z" fill="white"/>
<path d="M192.578 347.141H185.815V354.748H192.578V347.141Z" fill="url(#paint5_linear_126_14592)"/>
<path opacity="0.6" d="M192.578 347.141H185.815V354.748H192.578V347.141Z" fill="white"/>
<path d="M191.156 346.398H228.504C230.118 346.398 231.424 348.434 231.424 350.932C231.424 353.429 230.143 355.466 228.504 355.466H191.156V346.398Z" fill="url(#paint6_linear_126_14592)"/>
<path opacity="0.9" d="M191.156 346.398H228.504C230.118 346.398 231.424 348.434 231.424 350.932C231.424 353.429 230.143 355.466 228.504 355.466H191.156V346.398Z" fill="white"/>
<path d="M191.157 356.196C198.841 356.196 220.423 356.337 228.107 356.196C233.358 356.106 233.64 346.027 228.491 345.668C224.892 345.425 221.191 345.668 217.592 345.668H191.157C190.963 345.668 190.777 345.745 190.641 345.882C190.504 346.019 190.427 346.204 190.427 346.398C190.427 346.592 190.504 346.777 190.641 346.914C190.777 347.051 190.963 347.128 191.157 347.128H226.891C228.568 347.128 229.772 347.128 230.425 349.139C230.989 350.855 230.81 354.364 228.504 354.749C228.244 354.768 227.983 354.768 227.723 354.749H191.157C190.981 354.772 190.821 354.858 190.704 354.991C190.587 355.125 190.523 355.295 190.523 355.472C190.523 355.649 190.587 355.82 190.704 355.953C190.821 356.086 190.981 356.173 191.157 356.196Z" fill="url(#paint7_linear_126_14592)"/>
<path d="M181.474 357.797V366.865C181.263 366.891 181.069 366.993 180.928 367.152C180.786 367.311 180.709 367.517 180.709 367.729C180.709 367.942 180.786 368.147 180.928 368.307C181.069 368.466 181.263 368.568 181.474 368.594C184.919 368.594 188.378 368.594 191.836 368.594V356.017H181.474C181.238 356.017 181.012 356.11 180.845 356.277C180.678 356.444 180.584 356.671 180.584 356.907C180.584 357.143 180.678 357.369 180.845 357.536C181.012 357.703 181.238 357.797 181.474 357.797Z" fill="url(#paint8_linear_126_14592)"/>
<path opacity="0.3" d="M181.474 357.797V366.865C181.263 366.891 181.069 366.993 180.928 367.152C180.786 367.311 180.709 367.517 180.709 367.729C180.709 367.942 180.786 368.147 180.928 368.307C181.069 368.466 181.263 368.568 181.474 368.594C184.919 368.594 188.378 368.594 191.836 368.594V356.017H181.474C181.238 356.017 181.012 356.11 180.845 356.277C180.678 356.444 180.584 356.671 180.584 356.907C180.584 357.143 180.678 357.369 180.845 357.536C181.012 357.703 181.238 357.797 181.474 357.797Z" fill="white"/>
<path d="M189.53 357.81H181.474V366.865H189.53V357.81Z" fill="url(#paint9_linear_126_14592)"/>
<path opacity="0.6" d="M189.53 357.81H181.474V366.865H189.53V357.81Z" fill="white"/>
<path d="M187.827 356.939H232.283C234.204 356.939 235.754 359.347 235.754 362.331C235.754 365.315 234.204 367.736 232.283 367.736H187.827V356.939Z" fill="url(#paint10_linear_126_14592)"/>
<path opacity="0.9" d="M187.827 356.939H232.283C234.204 356.939 235.754 359.347 235.754 362.331C235.754 365.315 234.204 367.736 232.283 367.736H187.827V356.939Z" fill="white"/>
<path d="M187.826 368.594C196.971 368.594 222.663 368.76 231.795 368.594C238.058 368.491 238.391 356.49 232.257 356.068C227.979 355.773 223.573 356.068 219.282 356.068H187.826C187.615 356.093 187.421 356.196 187.28 356.355C187.139 356.514 187.061 356.719 187.061 356.932C187.061 357.145 187.139 357.35 187.28 357.51C187.421 357.669 187.615 357.771 187.826 357.797H230.348C232.359 357.797 233.793 357.797 234.562 360.192C235.241 362.241 235.023 366.416 232.282 366.865C231.971 366.89 231.658 366.89 231.347 366.865H187.801C187.589 366.89 187.395 366.993 187.254 367.152C187.113 367.311 187.035 367.516 187.035 367.729C187.035 367.942 187.113 368.147 187.254 368.307C187.395 368.466 187.589 368.568 187.801 368.594H187.826Z" fill="url(#paint11_linear_126_14592)"/>
<g opacity="0.2">
<path d="M187.826 368.594C196.971 368.594 222.663 368.76 231.795 368.594C238.058 368.491 238.391 356.49 232.257 356.068C227.979 355.773 223.573 356.068 219.282 356.068H187.826C187.615 356.093 187.421 356.196 187.28 356.355C187.139 356.514 187.061 356.719 187.061 356.932C187.061 357.145 187.139 357.35 187.28 357.51C187.421 357.669 187.615 357.771 187.826 357.797H230.348C232.359 357.797 233.793 357.797 234.562 360.192C235.241 362.241 235.023 366.416 232.282 366.865C231.971 366.89 231.658 366.89 231.347 366.865H187.801C187.589 366.89 187.395 366.993 187.254 367.152C187.113 367.311 187.035 367.516 187.035 367.729C187.035 367.942 187.113 368.147 187.254 368.307C187.395 368.466 187.589 368.568 187.801 368.594H187.826Z" fill="#263238"/>
</g>
<path d="M172.831 333.666L240.206 329.055C240.206 329.055 238.083 320.979 237.181 320.861C236.278 320.742 224.211 312.471 211.87 318.42C209.177 319.699 207.224 320.676 205.832 321.372C204.358 320.866 202.298 320.181 199.45 319.26C186.405 315.055 175.592 324.892 174.691 325.134C173.79 325.376 172.831 333.666 172.831 333.666Z" fill="url(#paint12_linear_126_14592)"/>
<path opacity="0.6" d="M172.832 333.666L240.207 329.055L240.184 328.852C239.839 327.601 238.019 320.974 237.207 320.858L237.046 320.799C235.385 320.12 223.772 312.688 211.912 318.441C209.207 319.734 207.253 320.699 205.864 321.421C204.389 320.902 202.328 320.216 199.481 319.296C186.435 315.09 175.622 324.928 174.734 325.169C173.846 325.409 172.832 333.666 172.832 333.666Z" fill="white"/>
<path d="M165.132 334.201L233.325 329.525C233.325 329.525 231.127 321.354 230.263 321.231C229.398 321.108 217.228 313.996 204.74 320.012C202.012 321.321 198.822 325.89 198.822 325.89C198.822 325.89 195.04 321.787 192.155 320.871C178.962 316.618 167.919 325.308 167.019 325.563C166.12 325.818 165.132 334.201 165.132 334.201Z" fill="url(#paint13_linear_126_14592)"/>
<path opacity="0.8" d="M165.132 334.201L233.325 329.525C233.325 329.525 231.127 321.354 230.263 321.231C229.398 321.108 217.228 313.996 204.74 320.012C202.012 321.321 198.822 325.89 198.822 325.89C198.822 325.89 195.04 321.787 192.155 320.871C178.962 316.618 167.919 325.308 167.019 325.563C166.12 325.818 165.132 334.201 165.132 334.201Z" fill="white"/>
<path d="M198.678 328.187L201.109 331.963L195.98 332.315L198.678 328.187Z" fill="url(#paint14_linear_126_14592)"/>
<g opacity="0.3">
<path d="M198.678 328.187L201.109 331.963L195.98 332.315L198.678 328.187Z" fill="#263238"/>
</g>
<path opacity="0.1" d="M230.356 321.26C230.879 322.164 231.313 323.117 231.652 324.105C232.457 326.593 233.325 329.525 233.325 329.525L240.206 329.055L240.183 328.852C239.838 327.601 238.018 320.974 237.206 320.858L237.045 320.799L230.356 321.26Z" fill="#263238"/>
<path d="M162.701 336.907L196.199 335.447L196.275 335.439C196.918 334.782 197.78 334.384 198.696 334.32C199.613 334.256 200.522 334.53 201.25 335.092L201.32 335.148L235.725 332.338L244.41 331.642L243.556 328.708L201.082 331.618C200.344 331.016 199.405 330.718 198.455 330.783C197.505 330.848 196.616 331.272 195.966 331.968L163.374 334.152L162.701 336.907Z" fill="#263238"/>
<g opacity="0.3">
<path d="M234.834 329.189L235.725 332.221L244.411 331.526L243.543 328.594L234.834 329.189Z" fill="#263238"/>
</g>
<path d="M195.584 326.559C195.584 326.559 189.927 320.887 183.645 322.45C183.645 322.45 188.059 321.585 195.584 326.559Z" fill="url(#paint15_linear_126_14592)"/>
<path opacity="0.4" d="M195.584 326.559C195.584 326.559 189.927 320.887 183.645 322.45C183.645 322.45 188.059 321.585 195.584 326.559Z" fill="white"/>
<path d="M208.273 328.472C208.273 328.472 215.024 324.177 220.824 327.076C220.822 327.063 216.691 325.255 208.273 328.472Z" fill="url(#paint16_linear_126_14592)"/>
<path opacity="0.4" d="M208.273 328.472C208.273 328.472 215.024 324.177 220.824 327.076C220.822 327.063 216.691 325.255 208.273 328.472Z" fill="white"/>
<path d="M201.496 326.868C201.496 326.868 206.71 320.798 213.093 321.879C213.093 321.879 208.626 321.345 201.496 326.868Z" fill="url(#paint17_linear_126_14592)"/>
<path opacity="0.4" d="M201.496 326.868C201.496 326.868 206.71 320.798 213.093 321.879C213.093 321.879 208.626 321.345 201.496 326.868Z" fill="white"/>
<path d="M187.223 327.039C187.223 327.039 179.965 323.659 174.595 327.284C174.595 327.284 178.446 324.949 187.223 327.039Z" fill="url(#paint18_linear_126_14592)"/>
<path opacity="0.4" d="M187.223 327.039C187.223 327.039 179.965 323.659 174.595 327.284C174.595 327.284 178.446 324.949 187.223 327.039Z" fill="white"/>
<defs>
<linearGradient id="paint0_linear_126_14592" x1="188.71" y1="334.423" x2="188.71" y2="345.834" gradientUnits="userSpaceOnUse">
<stop stop-color="#F77531"/>
<stop offset="1" stop-color="#FFA927"/>
</linearGradient>
<linearGradient id="paint1_linear_126_14592" x1="188.056" y1="336.049" x2="188.056" y2="344.259" gradientUnits="userSpaceOnUse">
<stop stop-color="#F77531"/>
<stop offset="1" stop-color="#FFA927"/>
</linearGradient>
<linearGradient id="paint2_linear_126_14592" x1="211.925" y1="335.242" x2="211.925" y2="345.04" gradientUnits="userSpaceOnUse">
<stop stop-color="#F77531"/>
<stop offset="1" stop-color="#FFA927"/>
</linearGradient>
<linearGradient id="paint3_linear_126_14592" x1="211.998" y1="334.342" x2="211.998" y2="345.897" gradientUnits="userSpaceOnUse">
<stop stop-color="#F77531"/>
<stop offset="1" stop-color="#FFA927"/>
</linearGradient>
<linearGradient id="paint4_linear_126_14592" x1="189.755" y1="345.668" x2="189.755" y2="356.196" gradientUnits="userSpaceOnUse">
<stop stop-color="#F77531"/>
<stop offset="1" stop-color="#FFA927"/>
</linearGradient>
<linearGradient id="paint5_linear_126_14592" x1="189.197" y1="347.141" x2="189.197" y2="354.748" gradientUnits="userSpaceOnUse">
<stop stop-color="#F77531"/>
<stop offset="1" stop-color="#FFA927"/>
</linearGradient>
<linearGradient id="paint6_linear_126_14592" x1="211.29" y1="346.398" x2="211.29" y2="355.466" gradientUnits="userSpaceOnUse">
<stop stop-color="#F77531"/>
<stop offset="1" stop-color="#FFA927"/>
</linearGradient>
<linearGradient id="paint7_linear_126_14592" x1="211.315" y1="345.56" x2="211.315" y2="356.259" gradientUnits="userSpaceOnUse">
<stop stop-color="#F77531"/>
<stop offset="1" stop-color="#FFA927"/>
</linearGradient>
<linearGradient id="paint8_linear_126_14592" x1="186.21" y1="356.017" x2="186.21" y2="368.594" gradientUnits="userSpaceOnUse">
<stop stop-color="#F77531"/>
<stop offset="1" stop-color="#FFA927"/>
</linearGradient>
<linearGradient id="paint9_linear_126_14592" x1="185.502" y1="357.81" x2="185.502" y2="366.865" gradientUnits="userSpaceOnUse">
<stop stop-color="#F77531"/>
<stop offset="1" stop-color="#FFA927"/>
</linearGradient>
<linearGradient id="paint10_linear_126_14592" x1="211.791" y1="356.939" x2="211.791" y2="367.736" gradientUnits="userSpaceOnUse">
<stop stop-color="#F77531"/>
<stop offset="1" stop-color="#FFA927"/>
</linearGradient>
<linearGradient id="paint11_linear_126_14592" x1="211.858" y1="355.937" x2="211.858" y2="368.668" gradientUnits="userSpaceOnUse">
<stop stop-color="#F77531"/>
<stop offset="1" stop-color="#FFA927"/>
</linearGradient>
<linearGradient id="paint12_linear_126_14592" x1="204.891" y1="316.735" x2="206.677" y2="332.786" gradientUnits="userSpaceOnUse">
<stop stop-color="#F77531"/>
<stop offset="1" stop-color="#FFA927"/>
</linearGradient>
<linearGradient id="paint13_linear_126_14592" x1="197.697" y1="318.099" x2="199.389" y2="333.301" gradientUnits="userSpaceOnUse">
<stop stop-color="#F77531"/>
<stop offset="1" stop-color="#FFA927"/>
</linearGradient>
<linearGradient id="paint14_linear_126_14592" x1="198.112" y1="328.25" x2="198.557" y2="332.247" gradientUnits="userSpaceOnUse">
<stop stop-color="#F77531"/>
<stop offset="1" stop-color="#FFA927"/>
</linearGradient>
<linearGradient id="paint15_linear_126_14592" x1="189.307" y1="321.739" x2="189.913" y2="327.191" gradientUnits="userSpaceOnUse">
<stop stop-color="#F77531"/>
<stop offset="1" stop-color="#FFA927"/>
</linearGradient>
<linearGradient id="paint16_linear_126_14592" x1="214.375" y1="326.218" x2="214.548" y2="327.774" gradientUnits="userSpaceOnUse">
<stop stop-color="#F77531"/>
<stop offset="1" stop-color="#FFA927"/>
</linearGradient>
<linearGradient id="paint17_linear_126_14592" x1="207.052" y1="322.192" x2="207.498" y2="326.2" gradientUnits="userSpaceOnUse">
<stop stop-color="#F77531"/>
<stop offset="1" stop-color="#FFA927"/>
</linearGradient>
<linearGradient id="paint18_linear_126_14592" x1="180.725" y1="325.503" x2="180.973" y2="327.735" gradientUnits="userSpaceOnUse">
<stop stop-color="#F77531"/>
<stop offset="1" stop-color="#FFA927"/>
</linearGradient>
</defs>
</svg>
