<svg width="238" height="396" viewBox="0 0 238 396" fill="none" xmlns="http://www.w3.org/2000/svg">
<path d="M226.342 392.136H183.922V392.456H226.342V392.136Z" fill="#EBEBEB"/>
<path d="M74.3404 395.62H63.2104V395.94H74.3404V395.62Z" fill="#EBEBEB"/>
<path d="M182.642 380.25H158.064V380.571H182.642V380.25Z" fill="#EBEBEB"/>
<path d="M207.579 3.2019H42.4868V368.25H207.579V3.2019Z" fill="#E0E0E0"/>
<path d="M207.579 0V371.426H237.997V0H207.579Z" fill="#E6E6E6"/>
<path d="M13.5415 0V371.426H43.9472V0H13.5415Z" fill="#E6E6E6"/>
<path d="M8.3667 0V371.426H211.229V0H8.3667ZM203.929 6.4039V73.0044H15.6543V6.4039H203.929ZM15.6543 219.013V152.413H203.929V219.013H15.6543ZM203.929 225.417V292.018H15.6543V225.417H203.929ZM15.6543 146.009V79.4083H203.929V146.009H15.6543ZM15.6543 365.022V298.422H203.929V365.022H15.6543Z" fill="#F5F5F5"/>
<path d="M138.161 73.6191H145.179V21.9397H138.161V73.6191Z" fill="#E6E6E6"/>
<path d="M145.179 73.6191H152.198V21.9397H145.179V73.6191Z" fill="#E0E0E0"/>
<path d="M124.123 73.6191H138.161V25.5643H124.123V73.6191Z" fill="#E6E6E6"/>
<path d="M108.049 73.6191H117.117V21.9397H108.049V73.6191Z" fill="#F0F0F0"/>
<path d="M117.118 73.6191H124.136V21.9397H117.118V73.6191Z" fill="#EBEBEB"/>
<path d="M54.8203 73.6191H63.8882L63.8882 21.9397H54.8203L54.8203 73.6191Z" fill="#E6E6E6"/>
<path d="M63.889 73.6191H70.9077V21.9397H63.889L63.889 73.6191Z" fill="#EBEBEB"/>
<path d="M84.9316 73.6191H93.9995V21.9397H84.9316V73.6191Z" fill="#E6E6E6"/>
<path d="M93.9994 73.6191H101.018V21.9397H93.9994V73.6191Z" fill="#E0E0E0"/>
<path d="M40.7834 73.6191H54.8208L54.8208 23.1564H40.7834L40.7834 73.6191Z" fill="#EBEBEB"/>
<path d="M33.7777 73.6191H40.7964L40.7964 23.1564H33.7777L33.7777 73.6191Z" fill="#E0E0E0"/>
<path d="M75.5951 73.6191H84.9448V23.1564H75.5951V73.6191Z" fill="#E0E0E0"/>
<path d="M70.9077 73.6191H75.5825V23.1564H70.9077V73.6191Z" fill="#F0F0F0"/>
<path d="M93.9992 73.6191H108.037V25.5643H93.9992V73.6191Z" fill="#F5F5F5"/>
<path d="M173.254 73.6191H182.322V21.9397H173.254V73.6191Z" fill="#EBEBEB"/>
<path d="M182.322 73.6191H189.34V21.9397H182.322V73.6191Z" fill="#E6E6E6"/>
<path d="M159.204 73.6191H173.242V23.1564H159.204V73.6191Z" fill="#E0E0E0"/>
<path d="M152.186 73.6191H159.205V23.1564H152.186V73.6191Z" fill="#EBEBEB"/>
<path d="M194.015 73.6191H203.365V23.1564H194.015V73.6191Z" fill="#EBEBEB"/>
<path d="M189.34 73.6191H194.015V23.1564H189.34V73.6191Z" fill="#FAFAFA"/>
<path d="M98.9684 94.3037H91.9497V145.983H98.9684V94.3037Z" fill="#E6E6E6"/>
<path d="M91.9635 94.3037H84.9448V145.983H91.9635V94.3037Z" fill="#E0E0E0"/>
<path d="M113.007 97.9412H98.9692V145.996H113.007V97.9412Z" fill="#E6E6E6"/>
<path d="M129.093 94.3037H120.025V145.983H129.093V94.3037Z" fill="#F0F0F0"/>
<path d="M120.025 94.3037H113.006V145.983H120.025V94.3037Z" fill="#EBEBEB"/>
<path d="M182.31 94.3037H173.242V145.983H182.31V94.3037Z" fill="#E6E6E6"/>
<path d="M173.241 94.3037H166.222V145.983H173.241V94.3037Z" fill="#EBEBEB"/>
<path d="M152.197 94.3037H143.129V145.983H152.197V94.3037Z" fill="#E6E6E6"/>
<path d="M143.13 94.3037H136.112V145.983H143.13V94.3037Z" fill="#E0E0E0"/>
<path d="M196.346 95.5334H182.309V145.996H196.346V95.5334Z" fill="#EBEBEB"/>
<path d="M203.365 95.5334H196.346V145.996H203.365V95.5334Z" fill="#E0E0E0"/>
<path d="M161.547 95.5334H152.198V145.996H161.547V95.5334Z" fill="#E0E0E0"/>
<path d="M166.222 95.5334H161.547V145.996H166.222V95.5334Z" fill="#F0F0F0"/>
<path d="M143.131 97.9412H129.093V145.996H143.131V97.9412Z" fill="#F5F5F5"/>
<path d="M63.8887 94.3037H54.8208V145.983H63.8887V94.3037Z" fill="#EBEBEB"/>
<path d="M54.82 94.3037H47.8013V145.983H54.82V94.3037Z" fill="#E6E6E6"/>
<path d="M77.9255 95.5334H63.8882V145.996H77.9255V95.5334Z" fill="#E0E0E0"/>
<path d="M84.944 95.5334H77.9253V145.996H84.944V95.5334Z" fill="#EBEBEB"/>
<path d="M43.1138 95.5334H33.7642V145.996H43.1138V95.5334Z" fill="#EBEBEB"/>
<path d="M47.8013 95.5334H43.1265V145.996H47.8013V95.5334Z" fill="#FAFAFA"/>
<path d="M98.9684 167.961H91.9497V219.641H98.9684V167.961Z" fill="#E6E6E6"/>
<path d="M91.9635 167.961H84.9448V219.641H91.9635V167.961Z" fill="#E0E0E0"/>
<path d="M113.007 171.586H98.9692V219.641H113.007V171.586Z" fill="#E6E6E6"/>
<path d="M129.093 167.961H120.025V219.641H129.093V167.961Z" fill="#F0F0F0"/>
<path d="M120.025 167.961H113.006V219.641H120.025V167.961Z" fill="#EBEBEB"/>
<path d="M182.31 167.961H173.242V219.641H182.31V167.961Z" fill="#E6E6E6"/>
<path d="M173.241 167.961H166.222V219.641H173.241V167.961Z" fill="#EBEBEB"/>
<path d="M152.197 167.961H143.129V219.641H152.197V167.961Z" fill="#E6E6E6"/>
<path d="M143.13 167.961H136.112V219.641H143.13V167.961Z" fill="#E0E0E0"/>
<path d="M196.346 169.178H182.309V219.641H196.346V169.178Z" fill="#EBEBEB"/>
<path d="M203.365 169.178H196.346V219.641H203.365V169.178Z" fill="#E0E0E0"/>
<path d="M161.547 169.178H152.198V219.641H161.547V169.178Z" fill="#E0E0E0"/>
<path d="M166.222 169.178H161.547V219.641H166.222V169.178Z" fill="#F0F0F0"/>
<path d="M143.131 171.586H129.093V219.641H143.131V171.586Z" fill="#F5F5F5"/>
<path d="M63.8887 167.961H54.8208V219.641H63.8887V167.961Z" fill="#EBEBEB"/>
<path d="M54.82 167.961H47.8013V219.641H54.82V167.961Z" fill="#E6E6E6"/>
<path d="M77.9255 169.178H63.8882V219.641H77.9255V169.178Z" fill="#E0E0E0"/>
<path d="M84.944 169.178H77.9253V219.641H84.944V169.178Z" fill="#EBEBEB"/>
<path d="M43.1138 169.178H33.7642V219.641H43.1138V169.178Z" fill="#EBEBEB"/>
<path d="M47.8013 169.178H43.1265V219.641H47.8013V169.178Z" fill="#FAFAFA"/>
<path d="M138.161 293.299H145.179V241.619H138.161V293.299Z" fill="#E6E6E6"/>
<path d="M145.179 293.299H152.198V241.619H145.179V293.299Z" fill="#E0E0E0"/>
<path d="M124.123 289.661H138.161V241.606H124.123V289.661Z" fill="#E6E6E6"/>
<path d="M108.049 293.299H117.117V241.619H108.049V293.299Z" fill="#F0F0F0"/>
<path d="M117.118 293.299H124.136V241.619H117.118V293.299Z" fill="#EBEBEB"/>
<path d="M54.8203 293.299H63.8882L63.8882 241.619H54.8203L54.8203 293.299Z" fill="#E6E6E6"/>
<path d="M63.889 293.299H70.9077V241.619H63.889L63.889 293.299Z" fill="#EBEBEB"/>
<path d="M84.9316 293.299H93.9995V241.619H84.9316V293.299Z" fill="#E6E6E6"/>
<path d="M93.9994 293.299H101.018V241.619H93.9994V293.299Z" fill="#E0E0E0"/>
<path d="M40.7834 292.069H54.8208L54.8208 241.606H40.7834L40.7834 292.069Z" fill="#EBEBEB"/>
<path d="M33.7777 292.069H40.7964L40.7964 241.606H33.7777L33.7777 292.069Z" fill="#E0E0E0"/>
<path d="M75.5951 292.069H84.9448V241.606H75.5951V292.069Z" fill="#E0E0E0"/>
<path d="M70.9077 292.069H75.5825V241.606H70.9077V292.069Z" fill="#F0F0F0"/>
<path d="M93.9992 289.661H108.037V241.606H93.9992V289.661Z" fill="#F5F5F5"/>
<path d="M173.254 293.299H182.322V241.619H173.254V293.299Z" fill="#EBEBEB"/>
<path d="M182.322 293.299H189.34V241.619H182.322V293.299Z" fill="#E6E6E6"/>
<path d="M159.204 292.069H173.242V241.606H159.204V292.069Z" fill="#E0E0E0"/>
<path d="M152.186 292.069H159.205V241.606H152.186V292.069Z" fill="#EBEBEB"/>
<path d="M194.015 292.069H203.365V241.606H194.015V292.069Z" fill="#EBEBEB"/>
<path d="M189.34 292.069H194.015V241.606H189.34V292.069Z" fill="#FAFAFA"/>
<path d="M98.9684 315.264H91.9497V366.943H98.9684V315.264Z" fill="#E6E6E6"/>
<path d="M91.9635 315.264H84.9448V366.943H91.9635V315.264Z" fill="#E0E0E0"/>
<path d="M113.007 315.264H98.9692V363.319H113.007V315.264Z" fill="#E6E6E6"/>
<path d="M129.093 315.264H120.025V366.943H129.093V315.264Z" fill="#F0F0F0"/>
<path d="M120.025 315.264H113.006V366.943H120.025V315.264Z" fill="#EBEBEB"/>
<path d="M182.31 315.264H173.242V366.943H182.31V315.264Z" fill="#E6E6E6"/>
<path d="M173.241 315.264H166.222V366.943H173.241V315.264Z" fill="#EBEBEB"/>
<path d="M152.197 315.264H143.129V366.943H152.197V315.264Z" fill="#E6E6E6"/>
<path d="M143.13 315.264H136.112V366.943H143.13V315.264Z" fill="#E0E0E0"/>
<path d="M196.346 315.264H182.309V365.727H196.346V315.264Z" fill="#EBEBEB"/>
<path d="M203.365 315.264H196.346V365.727H203.365V315.264Z" fill="#E0E0E0"/>
<path d="M161.547 315.264H152.198V365.727H161.547V315.264Z" fill="#E0E0E0"/>
<path d="M166.222 315.264H161.547V365.727H166.222V315.264Z" fill="#F0F0F0"/>
<path d="M143.131 315.264H129.093V363.319H143.131V315.264Z" fill="#F5F5F5"/>
<path d="M63.8887 315.264H54.8208V366.943H63.8887V315.264Z" fill="#EBEBEB"/>
<path d="M54.82 315.264H47.8013V366.943H54.82V315.264Z" fill="#E6E6E6"/>
<path d="M77.9255 315.264H63.8882V365.727H77.9255V315.264Z" fill="#E0E0E0"/>
<path d="M84.944 315.264H77.9253V365.727H84.944V315.264Z" fill="#EBEBEB"/>
<path d="M43.1138 315.264H33.7642V365.727H43.1138V315.264Z" fill="#EBEBEB"/>
<path d="M47.8013 315.264H43.1265V365.727H47.8013V315.264Z" fill="#FAFAFA"/>
<path d="M0.00112152 368.583H62.644V353.009H0.00112152V368.583Z" fill="url(#paint0_linear_126_14417)"/>
<path opacity="0.6" d="M0.205223 368.66H62.8481V353.086H0.205223V368.66Z" fill="white"/>
<path opacity="0.6" d="M0.00107193 368.66H48.0815V353.086H0.00107193V368.66Z" fill="white"/>
<path d="M0.321146 366.611L62.6567 368.545L62.5798 366.97L0.282715 366.15L0.321146 366.611Z" fill="url(#paint1_linear_126_14417)"/>
<path d="M62.6565 359.413L0.410645 355.904V356.429L62.6565 360.591V359.413Z" fill="url(#paint2_linear_126_14417)"/>
<path d="M62.6565 354.7L0.410645 356.134V356.634L62.6565 355.891V354.7Z" fill="url(#paint3_linear_126_14417)"/>
<path d="M62.8235 362.461L0.577637 365.497V365.036L62.8235 361.424V362.461Z" fill="url(#paint4_linear_126_14417)"/>
<path d="M0.16748 353.214L62.4006 353.265V353.777H0.16748V353.214Z" fill="url(#paint5_linear_126_14417)"/>
<path d="M4.50991 322.194H67.1528V306.619H4.50991V322.194Z" fill="url(#paint6_linear_126_14417)"/>
<path opacity="0.6" d="M4.70229 322.27H67.3452V306.696H4.70229V322.27Z" fill="white"/>
<path opacity="0.6" d="M4.50888 322.27H52.5894V306.696H4.50888V322.27Z" fill="white"/>
<path d="M4.80345 320.221L67.139 322.155L67.0749 320.58L4.77783 319.76L4.80345 320.221Z" fill="url(#paint7_linear_126_14417)"/>
<path d="M67.1388 313.023L4.90576 309.514V310.039L67.1388 314.201V313.023Z" fill="url(#paint8_linear_126_14417)"/>
<path d="M67.1388 308.31L4.90576 309.744V310.257L67.1388 309.501V308.31Z" fill="url(#paint9_linear_126_14417)"/>
<path d="M67.3186 316.071L5.07275 319.107V318.659L67.3186 315.034V316.071Z" fill="url(#paint10_linear_126_14417)"/>
<path d="M3.71597 352.791H66.3589V337.217H3.71597V352.791Z" fill="url(#paint11_linear_126_14417)"/>
<path opacity="0.6" d="M3.92007 352.868H66.563V337.294H3.92007V352.868Z" fill="white"/>
<path opacity="0.6" d="M51.9364 337.294H3.85596V352.868H51.9364V337.294Z" fill="white"/>
<path d="M66.102 350.358L3.79207 351.178L3.72803 352.753L66.0636 350.819L66.102 350.358Z" fill="url(#paint12_linear_126_14417)"/>
<path d="M4.12549 337.422L66.3714 337.486V337.998H4.12549V337.422Z" fill="url(#paint13_linear_126_14417)"/>
<path d="M3.72803 344.799L65.9611 340.637V340.112L3.72803 343.621V344.799Z" fill="url(#paint14_linear_126_14417)"/>
<path d="M66.3714 338.908L4.12549 340.342V340.854L66.3714 340.099V338.908Z" fill="url(#paint15_linear_126_14417)"/>
<path d="M66.5374 346.682L4.2915 349.705V349.256L66.5374 345.645V346.682Z" fill="url(#paint16_linear_126_14417)"/>
<path d="M64.1938 322.539L1.57647 322.86L1.48682 338.114H64.1938V322.539Z" fill="url(#paint17_linear_126_14417)"/>
<path opacity="0.6" d="M1.56363 338.114H64.2065V322.539H1.56363V338.114Z" fill="white"/>
<path opacity="0.6" d="M49.5673 322.539H1.48682V338.114H49.5673V322.539Z" fill="white"/>
<path d="M51.4502 322.86H1.57666V324.448H50.3872L51.4502 322.86Z" fill="url(#paint18_linear_126_14417)"/>
<path d="M63.8353 329.238L1.57666 329.814V330.275H63.8353V329.238Z" fill="url(#paint19_linear_126_14417)"/>
<path d="M1.57666 336.449L63.8353 333.413V333.874L1.57666 337.486V336.449Z" fill="url(#paint20_linear_126_14417)"/>
<path d="M1.57666 330.583L63.8353 331.825V332.273L1.57666 331.62V330.583Z" fill="url(#paint21_linear_126_14417)"/>
<path d="M80.1897 288.663H17.9438V296.501H80.1897V288.663Z" fill="url(#paint22_linear_126_14417)"/>
<path opacity="0.6" d="M80.1897 288.663H17.9438V296.501H80.1897V288.663Z" fill="white"/>
<path opacity="0.6" d="M67.5484 288.663H17.9438V296.501H67.5484V288.663Z" fill="white"/>
<path d="M80.2288 294.221L17.9829 294.529V294.759H80.2288V294.221Z" fill="url(#paint23_linear_126_14417)"/>
<path d="M17.9829 291.288L80.2288 289.713V289.943L17.9829 291.826V291.288Z" fill="url(#paint24_linear_126_14417)"/>
<path d="M17.7788 290.866L80.0247 291.506V291.737L17.7788 291.404V290.866Z" fill="url(#paint25_linear_126_14417)"/>
<path d="M71.4807 285.205H9.23486V288.983H71.4807V285.205Z" fill="url(#paint26_linear_126_14417)"/>
<path opacity="0.6" d="M71.4807 285.243H9.23486V288.996H71.4807V285.243Z" fill="white"/>
<path opacity="0.6" d="M58.8395 285H9.23486V288.983H58.8395V285Z" fill="white"/>
<path d="M9.27393 288.086L71.507 286.498V286.741L9.27393 288.624V288.086Z" fill="url(#paint27_linear_126_14417)"/>
<path d="M9.27393 286.191L71.507 286.831V287.075L9.27393 286.729V286.191Z" fill="url(#paint28_linear_126_14417)"/>
<path d="M77.2835 281.349H15.0376V285.128H77.2835V281.349Z" fill="url(#paint29_linear_126_14417)"/>
<path opacity="0.6" d="M77.2835 281.375H15.0376V285.128H77.2835V281.375Z" fill="white"/>
<path opacity="0.6" d="M64.6422 281.145H15.0376V285.128H64.6422V281.145Z" fill="white"/>
<path d="M15.0759 283.053L77.3346 283.809L77.3218 284.052L15.0503 283.591L15.0759 283.053Z" fill="url(#paint30_linear_126_14417)"/>
<path d="M15.063 282.336L77.3089 282.963V283.207L15.063 282.861V282.336Z" fill="url(#paint31_linear_126_14417)"/>
<path d="M75.9768 296.501H13.731V306.606H75.9768V296.501Z" fill="url(#paint32_linear_126_14417)"/>
<path opacity="0.6" d="M75.9768 296.501H13.731V306.606H75.9768V296.501Z" fill="white"/>
<path opacity="0.6" d="M61.7602 296.501H13.731V306.606H61.7602V296.501Z" fill="white"/>
<path d="M75.5793 299.639L13.3462 299.293V299.011H75.5793V299.639Z" fill="url(#paint33_linear_126_14417)"/>
<path d="M13.769 301.112L76.0149 302.931V302.662L13.769 300.497V301.112Z" fill="url(#paint34_linear_126_14417)"/>
<path d="M76.0151 296.514H17.3042L18.5978 297.756H76.0151V296.514Z" fill="url(#paint35_linear_126_14417)"/>
<path d="M13.9868 305.044L76.2199 304.288V304.032L13.9868 304.416V305.044Z" fill="url(#paint36_linear_126_14417)"/>
<path d="M7.11475 286.008L19.2822 266.925L40.4406 260.085L70.1675 264.734L71.9478 282.499L57.206 285.291L44.5391 283.37L37.4948 280.629L29.3747 287.584L18.091 289.543L10.5857 288.595L7.11475 286.008Z" fill="url(#paint37_linear_126_14417)"/>
<path opacity="0.1" d="M7.11475 286.008L19.2822 266.925L40.4406 260.085L70.1675 264.734L71.9478 282.499L57.206 285.291L44.5391 283.37L37.4948 280.629L29.3747 287.584L18.091 289.543L10.5857 288.595L7.11475 286.008Z" fill="#263238"/>
<path opacity="0.2" d="M44.5522 260.726L42.3876 282.537L37.4951 280.629L31.8853 285.432L36.6626 261.315L40.4409 260.085L44.5522 260.726Z" fill="#263238"/>
<path d="M6.34619 289.057C6.34619 289.057 27.3894 297.804 38.1479 282.653C38.1479 282.653 60.1902 293.462 71.9477 282.525L69.9113 279.195C69.9113 279.195 64.199 288.544 37.2642 278.529C37.2642 278.529 25.814 293.462 7.11467 286.034L6.34619 289.057Z" fill="url(#paint38_linear_126_14417)"/>
<path opacity="0.8" d="M6.34619 289.057C6.34619 289.057 27.3894 297.804 38.1479 282.653C38.1479 282.653 60.1902 293.462 71.9477 282.525L69.9113 279.195C69.9113 279.195 64.199 288.544 37.2642 278.529C37.2642 278.529 25.814 293.462 7.11467 286.034L6.34619 289.057Z" fill="white"/>
<path d="M22.1636 270.178L37.4177 257.934L58.9476 256.742L86.4843 265.951L84.7937 279.848L70.18 279.156L58.4352 275.288L52.2235 271.856L43.1427 275.608L31.9743 274.968L24.9941 272.803L22.1636 270.178Z" fill="url(#paint39_linear_126_14417)"/>
<path opacity="0.1" d="M22.1636 270.178L37.4177 257.934L58.9476 256.742L86.4843 265.951L84.7937 279.848L70.18 279.156L58.4352 275.288L52.2235 271.856L43.1427 275.608L31.9743 274.968L24.9941 272.803L22.1636 270.178Z" fill="#263238"/>
<path opacity="0.2" d="M62.7641 258.01L56.5396 274.238L52.2233 271.856L45.9475 274.443L55.1051 256.947L58.9474 256.742L62.7641 258.01Z" fill="#263238"/>
<path d="M20.8198 272.342C20.8198 272.342 39.2759 283.037 52.4423 273.508C52.4423 273.508 71.4618 285.957 84.7691 279.835L83.4883 276.915C83.4883 276.915 76.252 282.96 52.4038 270.191C47.8173 272.875 42.5987 274.29 37.2842 274.29C31.9698 274.29 26.7512 272.875 22.1646 270.191L20.8198 272.342Z" fill="url(#paint40_linear_126_14417)"/>
<path opacity="0.8" d="M20.8198 272.342C20.8198 272.342 39.2759 283.037 52.4423 273.508C52.4423 273.508 71.4618 285.957 84.7691 279.835L83.4883 276.915C83.4883 276.915 76.252 282.96 52.4038 270.191C47.8173 272.875 42.5987 274.29 37.2842 274.29C31.9698 274.29 26.7512 272.875 22.1646 270.191L20.8198 272.342Z" fill="white"/>
<defs>
<linearGradient id="paint0_linear_126_14417" x1="31.3226" y1="368.583" x2="31.3226" y2="353.009" gradientUnits="userSpaceOnUse">
<stop stop-color="#F77531"/>
<stop offset="1" stop-color="#FFA927"/>
</linearGradient>
<linearGradient id="paint1_linear_126_14417" x1="31.4697" y1="366.15" x2="31.4697" y2="368.545" gradientUnits="userSpaceOnUse">
<stop stop-color="#F77531"/>
<stop offset="1" stop-color="#FFA927"/>
</linearGradient>
<linearGradient id="paint2_linear_126_14417" x1="31.5336" y1="355.904" x2="31.5336" y2="360.591" gradientUnits="userSpaceOnUse">
<stop stop-color="#F77531"/>
<stop offset="1" stop-color="#FFA927"/>
</linearGradient>
<linearGradient id="paint3_linear_126_14417" x1="31.5336" y1="354.7" x2="31.5336" y2="356.634" gradientUnits="userSpaceOnUse">
<stop stop-color="#F77531"/>
<stop offset="1" stop-color="#FFA927"/>
</linearGradient>
<linearGradient id="paint4_linear_126_14417" x1="31.7006" y1="361.424" x2="31.7006" y2="365.497" gradientUnits="userSpaceOnUse">
<stop stop-color="#F77531"/>
<stop offset="1" stop-color="#FFA927"/>
</linearGradient>
<linearGradient id="paint5_linear_126_14417" x1="31.284" y1="353.214" x2="31.284" y2="353.777" gradientUnits="userSpaceOnUse">
<stop stop-color="#F77531"/>
<stop offset="1" stop-color="#FFA927"/>
</linearGradient>
<linearGradient id="paint6_linear_126_14417" x1="35.8314" y1="322.194" x2="35.8314" y2="306.619" gradientUnits="userSpaceOnUse">
<stop stop-color="#F77531"/>
<stop offset="1" stop-color="#FFA927"/>
</linearGradient>
<linearGradient id="paint7_linear_126_14417" x1="35.9584" y1="319.76" x2="35.9584" y2="322.155" gradientUnits="userSpaceOnUse">
<stop stop-color="#F77531"/>
<stop offset="1" stop-color="#FFA927"/>
</linearGradient>
<linearGradient id="paint8_linear_126_14417" x1="36.0223" y1="309.514" x2="36.0223" y2="314.201" gradientUnits="userSpaceOnUse">
<stop stop-color="#F77531"/>
<stop offset="1" stop-color="#FFA927"/>
</linearGradient>
<linearGradient id="paint9_linear_126_14417" x1="36.0223" y1="308.31" x2="36.0223" y2="310.257" gradientUnits="userSpaceOnUse">
<stop stop-color="#F77531"/>
<stop offset="1" stop-color="#FFA927"/>
</linearGradient>
<linearGradient id="paint10_linear_126_14417" x1="36.1957" y1="315.034" x2="36.1957" y2="319.107" gradientUnits="userSpaceOnUse">
<stop stop-color="#F77531"/>
<stop offset="1" stop-color="#FFA927"/>
</linearGradient>
<linearGradient id="paint11_linear_126_14417" x1="35.0374" y1="352.791" x2="35.0374" y2="337.217" gradientUnits="userSpaceOnUse">
<stop stop-color="#F77531"/>
<stop offset="1" stop-color="#FFA927"/>
</linearGradient>
<linearGradient id="paint12_linear_126_14417" x1="34.915" y1="350.358" x2="34.915" y2="352.753" gradientUnits="userSpaceOnUse">
<stop stop-color="#F77531"/>
<stop offset="1" stop-color="#FFA927"/>
</linearGradient>
<linearGradient id="paint13_linear_126_14417" x1="35.2484" y1="337.422" x2="35.2484" y2="337.998" gradientUnits="userSpaceOnUse">
<stop stop-color="#F77531"/>
<stop offset="1" stop-color="#FFA927"/>
</linearGradient>
<linearGradient id="paint14_linear_126_14417" x1="34.8446" y1="340.112" x2="34.8446" y2="344.799" gradientUnits="userSpaceOnUse">
<stop stop-color="#F77531"/>
<stop offset="1" stop-color="#FFA927"/>
</linearGradient>
<linearGradient id="paint15_linear_126_14417" x1="35.2484" y1="338.908" x2="35.2484" y2="340.854" gradientUnits="userSpaceOnUse">
<stop stop-color="#F77531"/>
<stop offset="1" stop-color="#FFA927"/>
</linearGradient>
<linearGradient id="paint16_linear_126_14417" x1="35.4144" y1="345.645" x2="35.4144" y2="349.705" gradientUnits="userSpaceOnUse">
<stop stop-color="#F77531"/>
<stop offset="1" stop-color="#FFA927"/>
</linearGradient>
<linearGradient id="paint17_linear_126_14417" x1="32.8403" y1="322.539" x2="32.8403" y2="338.114" gradientUnits="userSpaceOnUse">
<stop stop-color="#F77531"/>
<stop offset="1" stop-color="#FFA927"/>
</linearGradient>
<linearGradient id="paint18_linear_126_14417" x1="26.5134" y1="322.86" x2="26.5134" y2="324.448" gradientUnits="userSpaceOnUse">
<stop stop-color="#F77531"/>
<stop offset="1" stop-color="#FFA927"/>
</linearGradient>
<linearGradient id="paint19_linear_126_14417" x1="32.706" y1="329.238" x2="32.706" y2="330.275" gradientUnits="userSpaceOnUse">
<stop stop-color="#F77531"/>
<stop offset="1" stop-color="#FFA927"/>
</linearGradient>
<linearGradient id="paint20_linear_126_14417" x1="32.706" y1="333.413" x2="32.706" y2="337.486" gradientUnits="userSpaceOnUse">
<stop stop-color="#F77531"/>
<stop offset="1" stop-color="#FFA927"/>
</linearGradient>
<linearGradient id="paint21_linear_126_14417" x1="32.706" y1="330.583" x2="32.706" y2="332.273" gradientUnits="userSpaceOnUse">
<stop stop-color="#F77531"/>
<stop offset="1" stop-color="#FFA927"/>
</linearGradient>
<linearGradient id="paint22_linear_126_14417" x1="49.0668" y1="288.663" x2="49.0668" y2="296.501" gradientUnits="userSpaceOnUse">
<stop stop-color="#F77531"/>
<stop offset="1" stop-color="#FFA927"/>
</linearGradient>
<linearGradient id="paint23_linear_126_14417" x1="49.1059" y1="294.221" x2="49.1059" y2="294.759" gradientUnits="userSpaceOnUse">
<stop stop-color="#F77531"/>
<stop offset="1" stop-color="#FFA927"/>
</linearGradient>
<linearGradient id="paint24_linear_126_14417" x1="49.1059" y1="289.713" x2="49.1059" y2="291.826" gradientUnits="userSpaceOnUse">
<stop stop-color="#F77531"/>
<stop offset="1" stop-color="#FFA927"/>
</linearGradient>
<linearGradient id="paint25_linear_126_14417" x1="48.9017" y1="290.866" x2="48.9017" y2="291.737" gradientUnits="userSpaceOnUse">
<stop stop-color="#F77531"/>
<stop offset="1" stop-color="#FFA927"/>
</linearGradient>
<linearGradient id="paint26_linear_126_14417" x1="40.3578" y1="285.205" x2="40.3578" y2="288.983" gradientUnits="userSpaceOnUse">
<stop stop-color="#F77531"/>
<stop offset="1" stop-color="#FFA927"/>
</linearGradient>
<linearGradient id="paint27_linear_126_14417" x1="40.3905" y1="286.498" x2="40.3905" y2="288.624" gradientUnits="userSpaceOnUse">
<stop stop-color="#F77531"/>
<stop offset="1" stop-color="#FFA927"/>
</linearGradient>
<linearGradient id="paint28_linear_126_14417" x1="40.3905" y1="286.191" x2="40.3905" y2="287.075" gradientUnits="userSpaceOnUse">
<stop stop-color="#F77531"/>
<stop offset="1" stop-color="#FFA927"/>
</linearGradient>
<linearGradient id="paint29_linear_126_14417" x1="46.1605" y1="281.349" x2="46.1605" y2="285.128" gradientUnits="userSpaceOnUse">
<stop stop-color="#F77531"/>
<stop offset="1" stop-color="#FFA927"/>
</linearGradient>
<linearGradient id="paint30_linear_126_14417" x1="46.1924" y1="283.053" x2="46.1924" y2="284.052" gradientUnits="userSpaceOnUse">
<stop stop-color="#F77531"/>
<stop offset="1" stop-color="#FFA927"/>
</linearGradient>
<linearGradient id="paint31_linear_126_14417" x1="46.1859" y1="282.336" x2="46.1859" y2="283.207" gradientUnits="userSpaceOnUse">
<stop stop-color="#F77531"/>
<stop offset="1" stop-color="#FFA927"/>
</linearGradient>
<linearGradient id="paint32_linear_126_14417" x1="44.8539" y1="296.501" x2="44.8539" y2="306.606" gradientUnits="userSpaceOnUse">
<stop stop-color="#F77531"/>
<stop offset="1" stop-color="#FFA927"/>
</linearGradient>
<linearGradient id="paint33_linear_126_14417" x1="44.4627" y1="299.011" x2="44.4627" y2="299.639" gradientUnits="userSpaceOnUse">
<stop stop-color="#F77531"/>
<stop offset="1" stop-color="#FFA927"/>
</linearGradient>
<linearGradient id="paint34_linear_126_14417" x1="44.892" y1="300.497" x2="44.892" y2="302.931" gradientUnits="userSpaceOnUse">
<stop stop-color="#F77531"/>
<stop offset="1" stop-color="#FFA927"/>
</linearGradient>
<linearGradient id="paint35_linear_126_14417" x1="46.6597" y1="296.514" x2="46.6597" y2="297.756" gradientUnits="userSpaceOnUse">
<stop stop-color="#F77531"/>
<stop offset="1" stop-color="#FFA927"/>
</linearGradient>
<linearGradient id="paint36_linear_126_14417" x1="45.1033" y1="304.032" x2="45.1033" y2="305.044" gradientUnits="userSpaceOnUse">
<stop stop-color="#F77531"/>
<stop offset="1" stop-color="#FFA927"/>
</linearGradient>
<linearGradient id="paint37_linear_126_14417" x1="39.5313" y1="260.085" x2="39.5313" y2="289.543" gradientUnits="userSpaceOnUse">
<stop stop-color="#F77531"/>
<stop offset="1" stop-color="#FFA927"/>
</linearGradient>
<linearGradient id="paint38_linear_126_14417" x1="39.147" y1="278.529" x2="39.147" y2="291.569" gradientUnits="userSpaceOnUse">
<stop stop-color="#F77531"/>
<stop offset="1" stop-color="#FFA927"/>
</linearGradient>
<linearGradient id="paint39_linear_126_14417" x1="54.3239" y1="256.742" x2="54.3239" y2="279.848" gradientUnits="userSpaceOnUse">
<stop stop-color="#F77531"/>
<stop offset="1" stop-color="#FFA927"/>
</linearGradient>
<linearGradient id="paint40_linear_126_14417" x1="52.7945" y1="270.191" x2="52.7945" y2="281.528" gradientUnits="userSpaceOnUse">
<stop stop-color="#F77531"/>
<stop offset="1" stop-color="#FFA927"/>
</linearGradient>
</defs>
</svg>
