<svg width="588" height="509" viewBox="0 0 588 509" fill="none" xmlns="http://www.w3.org/2000/svg">
<path d="M-0.000205994 483.594H51.0913V483.98H-0.000205994V483.594Z" fill="#EBEBEB"/>
<path d="M183.079 487.79H196.484V488.176H183.079V487.79Z" fill="#EBEBEB"/>
<path d="M52.6325 469.279H82.2354V469.664H52.6325V469.279Z" fill="#EBEBEB"/>
<path d="M522.964 471.871H532.729V472.256H522.964V471.871Z" fill="#EBEBEB"/>
<path d="M346.703 478.38H491.216V478.766H346.703V478.38Z" fill="#EBEBEB"/>
<path d="M47.7911 185.098H158.381L171.077 39.8911H60.4868L47.7911 185.098Z" fill="#F5F5F5"/>
<path d="M87.699 58.6185H143.434C143.789 58.6164 144.13 58.4827 144.392 58.2434C144.655 58.004 144.819 57.676 144.853 57.3227C144.87 57.1567 144.852 56.9889 144.801 56.8302C144.749 56.6715 144.664 56.5256 144.552 56.4018C144.44 56.2781 144.303 56.1794 144.15 56.1121C143.997 56.0449 143.832 56.0106 143.665 56.0115H87.9303C87.574 56.0174 87.2323 56.1544 86.9705 56.3963C86.7088 56.6381 86.5452 56.968 86.5111 57.3227C86.491 57.4885 86.507 57.6567 86.558 57.8158C86.609 57.9748 86.6939 58.1209 86.8068 58.244C86.9197 58.3671 87.0578 58.4644 87.2118 58.529C87.3659 58.5937 87.532 58.6242 87.699 58.6185Z" fill="#E0E0E0"/>
<path d="M68.971 129.656H137.139C137.496 129.65 137.837 129.513 138.099 129.271C138.361 129.029 138.524 128.699 138.559 128.345C138.576 128.179 138.558 128.011 138.506 127.852C138.454 127.693 138.369 127.548 138.257 127.424C138.145 127.3 138.008 127.201 137.856 127.134C137.703 127.067 137.538 127.033 137.371 127.033H69.1098C68.7593 127.058 68.4276 127.201 68.1695 127.439C67.9114 127.678 67.7425 127.997 67.6906 128.345C67.6718 128.519 67.6917 128.695 67.749 128.86C67.8062 129.026 67.8994 129.177 68.0217 129.302C68.1441 129.427 68.2926 129.524 68.4568 129.585C68.6209 129.646 68.7965 129.671 68.971 129.656Z" fill="#E0E0E0"/>
<path d="M68.3073 137.292H146.24C146.597 137.286 146.938 137.149 147.2 136.907C147.462 136.665 147.626 136.335 147.66 135.981C147.677 135.815 147.659 135.647 147.607 135.488C147.555 135.329 147.471 135.184 147.359 135.06C147.246 134.936 147.11 134.837 146.957 134.77C146.804 134.703 146.639 134.669 146.472 134.669H68.5232C68.1727 134.694 67.841 134.837 67.5829 135.075C67.3249 135.314 67.1559 135.633 67.1041 135.981C67.0866 136.148 67.1048 136.317 67.1576 136.477C67.2104 136.637 67.2965 136.783 67.4102 136.907C67.524 137.031 67.6628 137.13 67.8175 137.196C67.9721 137.262 68.1391 137.295 68.3073 137.292Z" fill="#E0E0E0"/>
<path d="M67.6288 144.835H145.577C145.934 144.829 146.275 144.692 146.537 144.451C146.799 144.209 146.962 143.879 146.997 143.524C147.014 143.358 146.996 143.19 146.944 143.032C146.892 142.873 146.807 142.727 146.695 142.603C146.583 142.48 146.446 142.381 146.294 142.314C146.141 142.246 145.976 142.212 145.809 142.213H67.8601C67.5096 142.237 67.1779 142.38 66.9198 142.619C66.6618 142.857 66.4928 143.177 66.441 143.524C66.4236 143.69 66.4414 143.858 66.4933 144.017C66.5452 144.175 66.6299 144.321 66.742 144.445C66.8541 144.569 66.991 144.667 67.1438 144.735C67.2966 144.802 67.4618 144.836 67.6288 144.835Z" fill="#E0E0E0"/>
<path d="M66.9651 152.425H144.852C145.215 152.432 145.569 152.31 145.851 152.081C146.133 151.853 146.326 151.532 146.394 151.176C146.412 151.009 146.394 150.842 146.342 150.683C146.29 150.524 146.205 150.378 146.093 150.255C145.981 150.131 145.844 150.032 145.692 149.965C145.539 149.898 145.374 149.863 145.207 149.864H67.2582C66.9018 149.87 66.5601 150.007 66.2983 150.249C66.0365 150.491 65.873 150.821 65.8389 151.176C65.8306 151.332 65.8532 151.488 65.9053 151.635C65.9574 151.782 66.0381 151.918 66.1427 152.034C66.2473 152.15 66.3738 152.244 66.5149 152.311C66.656 152.379 66.809 152.417 66.9651 152.425Z" fill="#E0E0E0"/>
<path d="M66.3023 160.015H134.563C134.914 159.99 135.245 159.847 135.503 159.609C135.762 159.37 135.93 159.051 135.982 158.703C136 158.537 135.982 158.369 135.93 158.211C135.878 158.052 135.793 157.906 135.681 157.782C135.569 157.659 135.432 157.56 135.279 157.493C135.127 157.426 134.961 157.391 134.795 157.392H66.5337C66.1773 157.398 65.8356 157.535 65.5738 157.777C65.312 158.019 65.1485 158.349 65.1144 158.703C65.0971 158.869 65.115 159.037 65.1668 159.196C65.2187 159.355 65.3034 159.5 65.4155 159.624C65.5276 159.748 65.6645 159.847 65.8173 159.914C65.9701 159.981 66.1353 160.015 66.3023 160.015Z" fill="#E0E0E0"/>
<path d="M65.6389 167.604H143.587C143.938 167.58 144.27 167.437 144.528 167.199C144.786 166.96 144.955 166.641 145.007 166.293C145.024 166.127 145.006 165.958 144.953 165.799C144.9 165.64 144.814 165.494 144.7 165.371C144.586 165.249 144.447 165.152 144.292 165.087C144.138 165.023 143.971 164.992 143.803 164.997H65.8702C65.5153 165 65.1737 165.133 64.9116 165.373C64.6495 165.612 64.4854 165.94 64.4511 166.293C64.4337 166.459 64.4515 166.627 64.5034 166.786C64.5553 166.944 64.64 167.09 64.7521 167.214C64.8642 167.338 65.0011 167.437 65.1539 167.504C65.3067 167.571 65.4719 167.605 65.6389 167.604Z" fill="#E0E0E0"/>
<path d="M64.9748 175.194H142.923C143.274 175.17 143.606 175.027 143.864 174.788C144.122 174.55 144.291 174.231 144.343 173.883C144.36 173.716 144.342 173.548 144.289 173.389C144.236 173.23 144.15 173.084 144.036 172.961C143.922 172.838 143.783 172.742 143.628 172.677C143.473 172.613 143.307 172.582 143.139 172.587H65.2062C64.8512 172.589 64.5097 172.723 64.2476 172.962C63.9854 173.202 63.8213 173.53 63.787 173.883C63.7696 174.049 63.7875 174.217 63.8393 174.376C63.8912 174.534 63.976 174.68 64.0881 174.804C64.2001 174.928 64.337 175.026 64.4898 175.094C64.6426 175.161 64.8079 175.195 64.9748 175.194Z" fill="#E0E0E0"/>
<path d="M93.4662 67.288H136.135C136.491 67.282 136.833 67.145 137.095 66.9032C137.357 66.6613 137.52 66.3315 137.554 65.9767C137.574 65.8102 137.558 65.6414 137.507 65.4816C137.456 65.3218 137.372 65.1748 137.259 65.0506C137.146 64.9263 137.008 64.8276 136.855 64.7612C136.701 64.6947 136.534 64.6621 136.366 64.6655H93.6976C93.3412 64.6715 92.9996 64.8085 92.7378 65.0503C92.476 65.2922 92.3125 65.622 92.2784 65.9767C92.2585 66.1433 92.2746 66.3121 92.3255 66.4719C92.3764 66.6317 92.461 66.7786 92.5736 66.9029C92.6862 67.0272 92.8241 67.1259 92.9781 67.1923C93.1321 67.2588 93.2985 67.2914 93.4662 67.288Z" fill="#E0E0E0"/>
<path d="M99.6842 75.9575H128.408C128.764 75.9516 129.106 75.8146 129.368 75.5727C129.629 75.3309 129.793 75.0011 129.827 74.6463C129.847 74.4805 129.831 74.3123 129.78 74.1533C129.729 73.9942 129.644 73.8481 129.531 73.725C129.418 73.6019 129.28 73.5047 129.126 73.44C128.972 73.3754 128.806 73.3448 128.639 73.3505H99.9002C99.5462 73.356 99.2066 73.4909 98.9451 73.7296C98.6837 73.9683 98.5186 74.2943 98.481 74.6463C98.4635 74.8137 98.4817 74.9828 98.5345 75.1426C98.5873 75.3023 98.6734 75.4491 98.7872 75.573C98.9009 75.697 99.0398 75.7954 99.1944 75.8617C99.3491 75.928 99.516 75.9606 99.6842 75.9575Z" fill="#E0E0E0"/>
<path opacity="0.5" d="M68.7698 116.96H149.325L152.025 86.0461H71.4694L68.7698 116.96Z" fill="#E0E0E0"/>
<path d="M588 291.939H496.615L486.125 171.955H577.51L588 291.939Z" fill="#F5F5F5"/>
<path d="M555.018 187.427H508.91C508.617 187.418 508.338 187.304 508.122 187.105C507.907 186.907 507.77 186.638 507.737 186.347C507.722 186.209 507.736 186.07 507.779 185.938C507.822 185.807 507.892 185.685 507.986 185.583C508.079 185.481 508.193 185.4 508.321 185.345C508.448 185.291 508.586 185.264 508.724 185.267H554.833C555.128 185.27 555.411 185.382 555.627 185.581C555.844 185.781 555.979 186.054 556.006 186.347C556.021 186.485 556.007 186.624 555.964 186.756C555.921 186.888 555.851 187.009 555.757 187.111C555.664 187.213 555.549 187.295 555.422 187.349C555.295 187.403 555.157 187.43 555.018 187.427Z" fill="#E0E0E0"/>
<path d="M570.506 246.124H514.108C513.813 246.121 513.53 246.009 513.314 245.809C513.097 245.61 512.962 245.337 512.935 245.044C512.92 244.906 512.934 244.767 512.977 244.635C513.02 244.503 513.09 244.382 513.184 244.28C513.277 244.177 513.392 244.096 513.519 244.042C513.647 243.987 513.784 243.961 513.923 243.964H570.305C570.601 243.969 570.884 244.082 571.102 244.281C571.321 244.479 571.46 244.75 571.493 245.044C571.506 245.181 571.49 245.319 571.446 245.45C571.403 245.581 571.332 245.701 571.239 245.802C571.146 245.904 571.033 245.985 570.906 246.041C570.78 246.096 570.644 246.124 570.506 246.124Z" fill="#E0E0E0"/>
<path d="M571.047 252.387H506.658C506.364 252.384 506.081 252.272 505.864 252.073C505.647 251.873 505.512 251.6 505.486 251.307C505.47 251.169 505.484 251.03 505.527 250.898C505.57 250.766 505.641 250.645 505.734 250.543C505.828 250.441 505.942 250.36 506.069 250.305C506.197 250.251 506.334 250.224 506.473 250.227H570.862C571.155 250.233 571.437 250.346 571.652 250.545C571.868 250.744 572.004 251.015 572.034 251.307C572.05 251.445 572.035 251.584 571.993 251.716C571.95 251.848 571.879 251.969 571.786 252.071C571.692 252.173 571.578 252.254 571.45 252.309C571.323 252.363 571.185 252.39 571.047 252.387Z" fill="#E0E0E0"/>
<path d="M571.601 258.665H507.197C506.903 258.659 506.622 258.546 506.406 258.347C506.19 258.148 506.055 257.877 506.024 257.585C506.009 257.448 506.023 257.308 506.066 257.177C506.109 257.045 506.18 256.924 506.273 256.821C506.367 256.719 506.481 256.638 506.608 256.584C506.736 256.529 506.873 256.503 507.012 256.506H571.416C571.71 256.512 571.991 256.625 572.207 256.824C572.423 257.022 572.558 257.293 572.588 257.585C572.604 257.723 572.59 257.863 572.547 257.994C572.504 258.126 572.433 258.247 572.34 258.349C572.246 258.452 572.132 258.533 572.005 258.587C571.877 258.642 571.74 258.668 571.601 258.665Z" fill="#E0E0E0"/>
<path d="M572.156 264.928H507.768C507.473 264.925 507.19 264.813 506.973 264.614C506.757 264.414 506.622 264.141 506.595 263.848C506.58 263.71 506.594 263.571 506.637 263.439C506.68 263.308 506.75 263.186 506.844 263.084C506.937 262.982 507.051 262.901 507.179 262.846C507.306 262.792 507.444 262.765 507.582 262.768H571.956C572.249 262.774 572.531 262.887 572.747 263.086C572.962 263.285 573.098 263.556 573.128 263.848C573.144 263.985 573.13 264.123 573.088 264.253C573.046 264.384 572.977 264.504 572.885 264.606C572.793 264.708 572.681 264.79 572.555 264.845C572.43 264.901 572.294 264.929 572.156 264.928Z" fill="#E0E0E0"/>
<path d="M572.696 271.207H516.298C516.005 271.201 515.723 271.087 515.507 270.889C515.291 270.69 515.156 270.419 515.126 270.127C515.11 269.989 515.124 269.85 515.167 269.718C515.21 269.586 515.281 269.465 515.374 269.363C515.468 269.26 515.582 269.179 515.709 269.125C515.837 269.07 515.974 269.044 516.113 269.047H572.511C572.805 269.053 573.086 269.166 573.302 269.365C573.518 269.564 573.653 269.835 573.683 270.127C573.699 270.264 573.685 270.404 573.642 270.536C573.599 270.667 573.528 270.788 573.435 270.891C573.341 270.993 573.227 271.074 573.1 271.129C572.972 271.183 572.835 271.21 572.696 271.207Z" fill="#E0E0E0"/>
<path d="M573.251 277.485H508.909C508.615 277.479 508.334 277.366 508.118 277.167C507.902 276.968 507.766 276.697 507.736 276.405C507.721 276.268 507.735 276.128 507.778 275.996C507.821 275.865 507.891 275.744 507.985 275.641C508.078 275.539 508.193 275.458 508.32 275.403C508.448 275.349 508.585 275.322 508.724 275.325H573.051C573.345 275.328 573.628 275.44 573.845 275.639C574.062 275.839 574.196 276.112 574.223 276.405C574.238 276.542 574.225 276.68 574.183 276.81C574.141 276.941 574.072 277.061 573.98 277.163C573.888 277.265 573.776 277.347 573.65 277.402C573.524 277.458 573.389 277.486 573.251 277.485Z" fill="#E0E0E0"/>
<path d="M573.793 283.748H509.404C509.11 283.745 508.827 283.634 508.61 283.434C508.393 283.234 508.259 282.962 508.232 282.668C508.214 282.531 508.226 282.392 508.267 282.26C508.308 282.129 508.377 282.007 508.469 281.905C508.562 281.802 508.675 281.721 508.802 281.666C508.929 281.612 509.066 281.585 509.204 281.588H573.608C573.902 281.591 574.186 281.703 574.402 281.902C574.619 282.102 574.754 282.375 574.78 282.668C574.796 282.806 574.782 282.945 574.739 283.077C574.696 283.209 574.625 283.33 574.532 283.432C574.438 283.535 574.324 283.616 574.197 283.67C574.069 283.725 573.932 283.751 573.793 283.748Z" fill="#E0E0E0"/>
<path d="M550.251 194.585H515.002C514.708 194.582 514.425 194.47 514.208 194.271C513.991 194.071 513.857 193.798 513.83 193.505C513.815 193.369 513.828 193.23 513.87 193.1C513.912 192.969 513.981 192.849 514.073 192.747C514.165 192.645 514.277 192.563 514.403 192.508C514.529 192.452 514.664 192.424 514.802 192.425H550.066C550.359 192.431 550.641 192.544 550.857 192.743C551.073 192.942 551.208 193.213 551.238 193.505C551.254 193.643 551.24 193.782 551.197 193.914C551.154 194.046 551.083 194.167 550.99 194.269C550.896 194.371 550.782 194.452 550.655 194.507C550.527 194.561 550.39 194.588 550.251 194.585Z" fill="#E0E0E0"/>
<path d="M545.13 201.758H521.374C521.081 201.749 520.802 201.634 520.587 201.436C520.371 201.238 520.235 200.969 520.201 200.678C520.188 200.541 520.204 200.402 520.248 200.272C520.292 200.141 520.363 200.021 520.456 199.919C520.549 199.818 520.662 199.736 520.788 199.681C520.914 199.626 521.051 199.598 521.189 199.598H544.929C545.224 199.601 545.507 199.713 545.724 199.912C545.94 200.112 546.075 200.385 546.102 200.678C546.117 200.814 546.103 200.952 546.061 201.083C546.019 201.214 545.95 201.334 545.858 201.436C545.767 201.538 545.654 201.62 545.529 201.675C545.403 201.73 545.267 201.759 545.13 201.758Z" fill="#E0E0E0"/>
<path opacity="0.5" d="M570.661 235.634H504.112L501.876 210.088H568.424L570.661 235.634Z" fill="#E0E0E0"/>
<path d="M383.957 154.847H266.132L252.588 0.122314H370.429L383.957 154.847Z" fill="#FAFAFA"/>
<path d="M341.443 20.0531H282.052C281.668 20.055 281.298 19.9138 281.012 19.6571C280.727 19.4004 280.548 19.0465 280.509 18.6647C280.49 18.488 280.508 18.3092 280.563 18.1401C280.618 17.971 280.708 17.8155 280.828 17.6841C280.947 17.5527 281.094 17.4483 281.257 17.378C281.42 17.3077 281.597 17.273 281.774 17.2763H341.165C341.549 17.2744 341.92 17.4156 342.205 17.6723C342.49 17.929 342.669 18.2829 342.708 18.6647C342.728 18.8414 342.709 19.0202 342.655 19.1893C342.6 19.3584 342.509 19.5139 342.39 19.6453C342.27 19.7767 342.124 19.8811 341.96 19.9514C341.797 20.0217 341.621 20.0564 341.443 20.0531Z" fill="#E6E6E6"/>
<path d="M361.404 95.7647H288.685C288.301 95.7666 287.93 95.6254 287.645 95.3687C287.36 95.112 287.18 94.7582 287.142 94.3763C287.125 94.1988 287.145 94.0197 287.202 93.8506C287.258 93.6815 287.35 93.5263 287.471 93.3952C287.592 93.2641 287.739 93.16 287.903 93.0898C288.067 93.0197 288.244 92.9849 288.422 92.988H361.157C361.541 92.9861 361.911 93.1272 362.196 93.384C362.482 93.6407 362.661 93.9945 362.699 94.3763C362.72 94.5557 362.701 94.7373 362.644 94.9086C362.587 95.0799 362.494 95.237 362.371 95.3689C362.248 95.5008 362.098 95.6045 361.931 95.6729C361.764 95.7412 361.584 95.7725 361.404 95.7647Z" fill="#E6E6E6"/>
<path d="M362.099 103.863H279.06C278.673 103.865 278.301 103.722 278.015 103.462C277.73 103.202 277.552 102.844 277.517 102.46C277.5 102.282 277.52 102.103 277.577 101.934C277.633 101.765 277.725 101.61 277.846 101.478C277.967 101.347 278.114 101.243 278.278 101.173C278.442 101.103 278.619 101.068 278.797 101.071H361.867C362.251 101.069 362.622 101.21 362.907 101.467C363.192 101.724 363.372 102.078 363.41 102.46C363.428 102.64 363.406 102.823 363.348 102.995C363.29 103.167 363.195 103.325 363.071 103.458C362.947 103.59 362.796 103.695 362.629 103.765C362.461 103.835 362.28 103.869 362.099 103.863Z" fill="#E6E6E6"/>
<path d="M362.809 111.947H279.77C279.386 111.949 279.016 111.807 278.73 111.551C278.445 111.294 278.266 110.94 278.228 110.558C278.208 110.381 278.226 110.201 278.281 110.032C278.336 109.862 278.426 109.705 278.545 109.573C278.665 109.44 278.811 109.334 278.974 109.262C279.137 109.19 279.314 109.153 279.493 109.155H362.578C362.964 109.153 363.337 109.296 363.622 109.556C363.908 109.816 364.086 110.174 364.121 110.558C364.138 110.739 364.117 110.92 364.059 111.092C364 111.263 363.906 111.42 363.781 111.551C363.657 111.683 363.506 111.786 363.338 111.855C363.171 111.923 362.99 111.954 362.809 111.947Z" fill="#E6E6E6"/>
<path d="M363.518 120.03H280.479C280.095 120.032 279.725 119.891 279.439 119.634C279.154 119.377 278.975 119.024 278.936 118.642C278.917 118.465 278.935 118.286 278.99 118.117C279.045 117.948 279.135 117.793 279.255 117.661C279.374 117.53 279.521 117.425 279.684 117.355C279.847 117.285 280.024 117.25 280.201 117.253H363.271C363.655 117.251 364.026 117.393 364.311 117.649C364.596 117.906 364.776 118.26 364.814 118.642C364.832 118.821 364.811 119.001 364.753 119.171C364.696 119.341 364.602 119.497 364.48 119.629C364.357 119.76 364.208 119.864 364.042 119.933C363.876 120.002 363.698 120.035 363.518 120.03Z" fill="#E6E6E6"/>
<path d="M364.228 128.113H291.509C291.125 128.115 290.754 127.974 290.469 127.717C290.184 127.461 290.005 127.107 289.966 126.725C289.947 126.548 289.965 126.369 290.02 126.2C290.074 126.031 290.165 125.876 290.284 125.744C290.404 125.613 290.551 125.509 290.714 125.438C290.877 125.368 291.054 125.333 291.231 125.337H363.904C364.288 125.335 364.658 125.476 364.944 125.733C365.229 125.989 365.408 126.343 365.447 126.725C365.468 126.898 365.453 127.074 365.402 127.241C365.351 127.408 365.265 127.562 365.15 127.693C365.034 127.825 364.893 127.93 364.734 128.002C364.575 128.075 364.403 128.113 364.228 128.113Z" fill="#E6E6E6"/>
<path d="M364.937 136.212H281.898C281.512 136.214 281.139 136.07 280.853 135.81C280.568 135.55 280.39 135.193 280.355 134.808C280.333 134.631 280.349 134.451 280.403 134.281C280.457 134.111 280.547 133.954 280.667 133.822C280.788 133.69 280.935 133.586 281.099 133.516C281.264 133.447 281.442 133.414 281.62 133.42H364.69C365.074 133.418 365.445 133.559 365.73 133.816C366.015 134.073 366.194 134.426 366.233 134.808C366.255 134.989 366.238 135.172 366.183 135.345C366.127 135.519 366.034 135.678 365.911 135.811C365.788 135.945 365.637 136.05 365.468 136.119C365.3 136.188 365.119 136.22 364.937 136.212Z" fill="#E6E6E6"/>
<path d="M365.648 144.295H282.608C282.225 144.297 281.854 144.156 281.569 143.899C281.283 143.643 281.104 143.289 281.066 142.907C281.044 142.729 281.06 142.549 281.114 142.378C281.167 142.207 281.257 142.049 281.377 141.916C281.497 141.783 281.645 141.677 281.809 141.606C281.974 141.535 282.151 141.5 282.331 141.503H365.447C365.833 141.502 366.206 141.645 366.491 141.905C366.777 142.165 366.955 142.522 366.99 142.907C367.011 143.09 366.991 143.276 366.932 143.451C366.872 143.626 366.775 143.786 366.647 143.918C366.518 144.051 366.362 144.154 366.189 144.219C366.017 144.284 365.832 144.31 365.648 144.295Z" fill="#E6E6E6"/>
<path d="M335.288 29.3086H289.858C289.474 29.3106 289.103 29.1694 288.818 28.9127C288.533 28.6559 288.354 28.3021 288.315 27.9203C288.293 27.7431 288.309 27.5632 288.363 27.393C288.417 27.2227 288.507 27.0662 288.627 26.9342C288.748 26.8022 288.895 26.6979 289.06 26.6284C289.224 26.559 289.402 26.526 289.58 26.5319H335.041C335.425 26.53 335.796 26.6712 336.081 26.9279C336.366 27.1846 336.545 27.5384 336.584 27.9203C336.607 28.1001 336.59 28.2828 336.534 28.4554C336.479 28.6279 336.386 28.7861 336.262 28.9187C336.138 29.0512 335.987 29.1549 335.818 29.2223C335.65 29.2897 335.469 29.3192 335.288 29.3086Z" fill="#E6E6E6"/>
<path d="M328.671 38.5645H298.05C297.667 38.5664 297.296 38.4252 297.011 38.1685C296.725 37.9118 296.546 37.558 296.508 37.1761C296.49 36.9986 296.511 36.8195 296.567 36.6504C296.624 36.4813 296.716 36.3261 296.837 36.195C296.958 36.0639 297.105 35.9598 297.269 35.8897C297.433 35.8195 297.61 35.7848 297.788 35.7878H328.424C328.808 35.7859 329.179 35.927 329.464 36.1838C329.749 36.4405 329.929 36.7943 329.967 37.1761C329.985 37.355 329.964 37.5355 329.906 37.7057C329.849 37.8759 329.756 38.0318 329.633 38.1632C329.51 38.2945 329.361 38.3983 329.195 38.4675C329.03 38.5367 328.851 38.5697 328.671 38.5645Z" fill="#E6E6E6"/>
<path opacity="0.5" d="M361.605 82.2359H275.773L272.904 49.301H358.72L361.605 82.2359Z" fill="#F0F0F0"/>
<path d="M477.486 351.253H542.662V361.28H477.486V351.253Z" fill="#F0F0F0"/>
<path d="M540.502 357.038H479.6C478.262 357.038 476.979 357.569 476.033 358.515C475.087 359.461 474.555 360.744 474.555 362.082V460.393H545.516V362.082C545.518 361.419 545.389 360.762 545.136 360.149C544.883 359.536 544.511 358.98 544.043 358.511C543.574 358.042 543.017 357.67 542.404 357.418C541.791 357.165 541.134 357.036 540.471 357.038H540.502Z" fill="#E6E6E6"/>
<path d="M480.156 338.912H539.978C543.054 338.912 545.547 341.405 545.547 344.481V348.769C545.547 351.845 543.054 354.338 539.978 354.338H480.156C477.08 354.338 474.587 351.845 474.587 348.769V344.481C474.587 341.405 477.08 338.912 480.156 338.912Z" fill="#E6E6E6"/>
<path d="M465.407 460.393H498.574V455.765L465.407 452.68V460.393Z" fill="#F5F5F5"/>
<path d="M205.385 317.022L226.981 269.062H277.61L269.897 313.937C269.731 314.987 269.984 316.061 270.601 316.926C271.219 317.791 272.151 318.38 273.198 318.565H273.846H296.029C296.598 318.565 297.143 318.791 297.545 319.193C297.947 319.595 298.173 320.141 298.173 320.709V323.085C298.173 323.654 297.947 324.199 297.545 324.601C297.143 325.003 296.598 325.229 296.029 325.229H206.973C206.356 325.229 205.763 324.984 205.326 324.547C204.89 324.11 204.644 323.518 204.644 322.9V320.432C204.652 319.256 204.904 318.095 205.385 317.022ZM228.802 311.099H253.098C253.863 311.099 254.604 310.827 255.188 310.333C255.773 309.839 256.163 309.154 256.291 308.399L259.962 287.219C260.035 286.799 260.025 286.368 259.931 285.952C259.837 285.535 259.661 285.142 259.415 284.793C259.168 284.445 258.855 284.149 258.494 283.922C258.133 283.695 257.73 283.541 257.309 283.471H256.754H238.381C237.757 283.468 237.146 283.646 236.62 283.982C236.095 284.319 235.678 284.8 235.419 285.368L225.84 306.548C225.617 307.046 225.522 307.591 225.562 308.134C225.603 308.678 225.777 309.203 226.071 309.662C226.365 310.121 226.768 310.499 227.245 310.764C227.722 311.028 228.257 311.17 228.802 311.176V311.099Z" fill="#263238"/>
<path opacity="0.5" d="M205.385 317.022L226.981 269.062H277.61L269.897 313.937C269.731 314.987 269.984 316.061 270.601 316.926C271.219 317.791 272.151 318.38 273.198 318.565H273.846H296.029C296.598 318.565 297.143 318.791 297.545 319.193C297.947 319.595 298.173 320.141 298.173 320.709V323.085C298.173 323.654 297.947 324.199 297.545 324.601C297.143 325.003 296.598 325.229 296.029 325.229H206.973C206.356 325.229 205.763 324.984 205.326 324.547C204.89 324.11 204.644 323.518 204.644 322.9V320.432C204.652 319.256 204.904 318.095 205.385 317.022ZM228.802 311.099H253.098C253.863 311.099 254.604 310.827 255.188 310.333C255.773 309.839 256.163 309.154 256.291 308.399L259.962 287.219C260.035 286.799 260.025 286.368 259.931 285.952C259.837 285.535 259.661 285.142 259.415 284.793C259.168 284.445 258.855 284.149 258.494 283.922C258.133 283.695 257.73 283.541 257.309 283.471H256.754H238.381C237.757 283.468 237.146 283.646 236.62 283.982C236.095 284.319 235.678 284.8 235.419 285.368L225.84 306.548C225.617 307.046 225.522 307.591 225.562 308.134C225.603 308.678 225.777 309.203 226.071 309.662C226.365 310.121 226.768 310.499 227.245 310.764C227.722 311.028 228.257 311.17 228.802 311.176V311.099Z" fill="white"/>
<path opacity="0.2" d="M228.801 311.099H253.097C253.863 311.099 254.603 310.827 255.188 310.333C255.772 309.839 256.163 309.154 256.291 308.399L259.962 287.219C260.035 286.799 260.024 286.368 259.93 285.952C259.836 285.535 259.661 285.142 259.414 284.793C259.168 284.445 258.855 284.149 258.494 283.922C258.132 283.695 257.73 283.541 257.309 283.47H256.753H238.381C237.757 283.468 237.145 283.646 236.62 283.982C236.095 284.319 235.677 284.8 235.419 285.368L225.839 306.548C225.617 307.046 225.521 307.591 225.562 308.134C225.602 308.678 225.777 309.202 226.071 309.662C226.365 310.121 226.768 310.499 227.245 310.764C227.721 311.028 228.256 311.17 228.801 311.176V311.099Z" fill="white"/>
<path d="M253.9 283.378H256.754C257.181 283.376 257.604 283.458 257.998 283.62C258.393 283.782 258.752 284.02 259.055 284.321C259.357 284.622 259.597 284.98 259.761 285.374C259.925 285.768 260.009 286.19 260.009 286.617C260.024 286.802 260.024 286.988 260.009 287.173L256.337 308.353C256.212 309.107 255.822 309.792 255.236 310.285C254.651 310.777 253.909 311.043 253.144 311.037H250.275C251.04 311.043 251.782 310.777 252.367 310.285C252.953 309.792 253.343 309.107 253.468 308.353L257.14 287.173C257.215 286.752 257.205 286.32 257.112 285.903C257.019 285.486 256.844 285.092 256.597 284.743C256.35 284.394 256.037 284.098 255.674 283.872C255.312 283.645 254.908 283.493 254.486 283.424C254.293 283.391 254.096 283.375 253.9 283.378Z" fill="#263238"/>
<path d="M202.516 317.022L224.112 269.093H226.966L205.37 317.022C204.861 318.142 204.598 319.357 204.598 320.586V323.069C204.602 323.686 204.849 324.276 205.285 324.712C205.721 325.148 206.311 325.395 206.928 325.399H204.058C203.442 325.395 202.852 325.148 202.416 324.712C201.98 324.276 201.733 323.686 201.729 323.069V320.586C201.734 319.355 202.002 318.14 202.516 317.022Z" fill="#263238"/>
<path opacity="0.2" d="M227.045 269.062H277.627L275.637 280.509H221.862L227.045 269.062Z" fill="#263238"/>
<path d="M154.478 274.091H370.274C372.157 274.12 373.974 273.403 375.33 272.097C376.685 270.79 377.469 269.001 377.509 267.119C377.532 266.805 377.532 266.491 377.509 266.178L363.873 110.234C363.661 108.095 362.67 106.108 361.089 104.652C359.507 103.195 357.445 102.371 355.296 102.336H139.452C138.519 102.316 137.59 102.48 136.72 102.82C135.85 103.16 135.056 103.669 134.384 104.317C133.711 104.965 133.174 105.74 132.802 106.596C132.43 107.453 132.232 108.375 132.218 109.309C132.194 109.617 132.194 109.926 132.218 110.234L145.87 266.193C146.085 268.336 147.082 270.326 148.669 271.782C150.256 273.239 152.324 274.06 154.478 274.091Z" fill="#263238"/>
<path d="M375.998 249.332L377.541 266.193C377.648 267.12 377.571 268.06 377.314 268.957C377.057 269.854 376.625 270.692 376.043 271.422C375.461 272.151 374.74 272.759 373.922 273.209C373.105 273.659 372.206 273.943 371.278 274.045C370.97 274.076 370.66 274.076 370.352 274.045H154.54C152.39 274.01 150.329 273.186 148.747 271.73C147.166 270.273 146.175 268.286 145.963 266.147L144.421 249.286L375.998 249.332Z" fill="url(#paint0_linear_126_14752)"/>
<path opacity="0.7" d="M375.998 249.332L377.541 266.193C377.648 267.12 377.571 268.06 377.314 268.957C377.057 269.854 376.625 270.692 376.043 271.422C375.461 272.151 374.74 272.759 373.922 273.209C373.105 273.659 372.206 273.943 371.278 274.045C370.97 274.076 370.66 274.076 370.352 274.045H154.54C152.39 274.01 150.329 273.186 148.747 271.73C147.166 270.273 146.175 268.286 145.963 266.147L144.421 249.286L375.998 249.332Z" fill="white"/>
<path d="M152.041 244.565H367.56C368.066 244.576 368.569 244.486 369.039 244.301C369.51 244.117 369.94 243.841 370.304 243.49C370.668 243.139 370.959 242.719 371.161 242.255C371.362 241.791 371.47 241.292 371.478 240.786C371.494 240.622 371.494 240.457 371.478 240.292L360.202 111.407C360.085 110.252 359.55 109.18 358.698 108.393C357.845 107.606 356.734 107.158 355.574 107.134H140.008C139.503 107.123 139 107.213 138.529 107.398C138.058 107.582 137.628 107.858 137.264 108.209C136.9 108.56 136.609 108.98 136.407 109.444C136.206 109.908 136.098 110.407 136.09 110.913C136.09 111.067 136.09 111.237 136.09 111.407L147.367 240.292C147.487 241.453 148.03 242.53 148.892 243.317C149.753 244.105 150.874 244.549 152.041 244.565Z" fill="url(#paint1_linear_126_14752)"/>
<path opacity="0.8" d="M152.041 244.565H367.56C368.066 244.576 368.569 244.486 369.039 244.301C369.51 244.117 369.94 243.841 370.304 243.49C370.668 243.139 370.959 242.719 371.161 242.255C371.362 241.791 371.47 241.292 371.478 240.786C371.494 240.622 371.494 240.457 371.478 240.292L360.202 111.407C360.085 110.252 359.55 109.18 358.698 108.393C357.845 107.606 356.734 107.158 355.574 107.134H140.008C139.503 107.123 139 107.213 138.529 107.398C138.058 107.582 137.628 107.858 137.264 108.209C136.9 108.56 136.609 108.98 136.407 109.444C136.206 109.908 136.098 110.407 136.09 110.913C136.09 111.067 136.09 111.237 136.09 111.407L147.367 240.292C147.487 241.453 148.03 242.53 148.892 243.317C149.753 244.105 150.874 244.549 152.041 244.565Z" fill="url(#paint2_linear_126_14752)"/>
<path d="M134.671 102.367H139.453C138.519 102.346 137.591 102.511 136.721 102.851C135.851 103.191 135.057 103.699 134.384 104.348C133.712 104.996 133.174 105.77 132.803 106.627C132.431 107.484 132.232 108.406 132.218 109.34C132.195 109.648 132.195 109.957 132.218 110.265L145.87 266.193C146.082 268.332 147.073 270.319 148.654 271.776C150.236 273.232 152.298 274.056 154.447 274.091H149.665C147.517 274.056 145.457 273.231 143.878 271.775C142.299 270.318 141.312 268.331 141.104 266.193L127.451 110.25C127.349 109.323 127.429 108.385 127.689 107.489C127.949 106.593 128.383 105.758 128.966 105.03C129.549 104.302 130.27 103.696 131.088 103.247C131.905 102.798 132.803 102.515 133.73 102.413L134.671 102.367Z" fill="url(#paint3_linear_126_14752)"/>
<path opacity="0.2" d="M134.671 102.367H139.453C138.519 102.346 137.591 102.511 136.721 102.851C135.851 103.191 135.057 103.699 134.384 104.348C133.712 104.996 133.174 105.77 132.803 106.627C132.431 107.484 132.232 108.406 132.218 109.34C132.195 109.648 132.195 109.957 132.218 110.265L145.87 266.193C146.082 268.332 147.073 270.319 148.654 271.776C150.236 273.232 152.298 274.056 154.447 274.091H149.665C147.517 274.056 145.457 273.231 143.878 271.775C142.299 270.318 141.312 268.331 141.104 266.193L127.451 110.25C127.349 109.323 127.429 108.385 127.689 107.489C127.949 106.593 128.383 105.758 128.966 105.03C129.549 104.302 130.27 103.696 131.088 103.247C131.905 102.798 132.803 102.515 133.73 102.413L134.671 102.367Z" fill="white"/>
<path d="M314.201 243.609H215.319L203.965 113.798H302.832L314.201 243.609Z" fill="url(#paint4_linear_126_14752)"/>
<path opacity="0.7" d="M314.201 243.609H215.319L203.965 113.798H302.832L314.201 243.609Z" fill="white"/>
<path d="M278.506 130.535H228.695C228.375 130.529 228.069 130.407 227.833 130.191C227.597 129.975 227.448 129.681 227.414 129.363C227.402 129.215 227.42 129.067 227.467 128.927C227.515 128.787 227.591 128.658 227.691 128.55C227.792 128.441 227.913 128.354 228.049 128.295C228.184 128.236 228.331 128.205 228.479 128.206H278.305C278.623 128.211 278.927 128.331 279.163 128.544C279.398 128.757 279.549 129.048 279.586 129.363C279.601 129.513 279.584 129.664 279.537 129.807C279.489 129.95 279.412 130.081 279.31 130.192C279.208 130.303 279.083 130.391 278.945 130.45C278.806 130.509 278.657 130.538 278.506 130.535Z" fill="#263238"/>
<path d="M295.257 194.045H234.246C233.926 194.039 233.62 193.917 233.384 193.701C233.148 193.485 233 193.19 232.966 192.872C232.953 192.724 232.971 192.574 233.02 192.433C233.068 192.292 233.146 192.163 233.248 192.053C233.35 191.944 233.473 191.858 233.611 191.8C233.748 191.741 233.896 191.713 234.046 191.716H295.056C295.373 191.718 295.677 191.837 295.911 192.051C296.144 192.265 296.291 192.557 296.321 192.872C296.339 193.022 296.324 193.173 296.279 193.316C296.233 193.459 296.157 193.59 296.056 193.701C295.955 193.812 295.832 193.901 295.694 193.96C295.556 194.019 295.407 194.048 295.257 194.045Z" fill="#263238"/>
<path d="M295.86 200.832H226.179C225.86 200.83 225.554 200.708 225.32 200.491C225.086 200.274 224.941 199.978 224.915 199.66C224.899 199.512 224.915 199.363 224.962 199.221C225.009 199.08 225.085 198.951 225.186 198.841C225.287 198.732 225.409 198.645 225.546 198.587C225.683 198.529 225.83 198.5 225.979 198.503H295.644C295.961 198.508 296.265 198.628 296.501 198.841C296.736 199.054 296.887 199.345 296.924 199.66C296.939 199.808 296.923 199.959 296.876 200.1C296.83 200.242 296.754 200.373 296.653 200.483C296.553 200.594 296.43 200.682 296.293 200.742C296.157 200.802 296.009 200.833 295.86 200.832Z" fill="#263238"/>
<path d="M296.446 207.62H226.766C226.449 207.61 226.146 207.487 225.914 207.271C225.681 207.055 225.535 206.763 225.501 206.448C225.483 206.298 225.498 206.147 225.544 206.004C225.589 205.861 225.665 205.73 225.766 205.619C225.867 205.508 225.991 205.419 226.129 205.36C226.266 205.301 226.415 205.272 226.566 205.275H296.246C296.564 205.281 296.868 205.404 297.101 205.62C297.335 205.837 297.48 206.131 297.511 206.448C297.528 206.597 297.514 206.748 297.468 206.891C297.422 207.034 297.346 207.165 297.246 207.276C297.145 207.387 297.021 207.476 296.883 207.535C296.745 207.594 296.596 207.623 296.446 207.62Z" fill="#263238"/>
<path d="M297.047 214.423H227.367C227.048 214.42 226.741 214.299 226.507 214.082C226.273 213.865 226.129 213.568 226.102 213.251C226.084 213.101 226.099 212.95 226.145 212.807C226.19 212.664 226.266 212.533 226.367 212.422C226.468 212.311 226.592 212.222 226.729 212.163C226.867 212.104 227.016 212.075 227.166 212.078H296.831C297.151 212.084 297.457 212.206 297.693 212.422C297.929 212.638 298.078 212.933 298.111 213.251C298.127 213.399 298.11 213.549 298.064 213.691C298.017 213.833 297.941 213.963 297.841 214.074C297.74 214.185 297.618 214.273 297.481 214.333C297.344 214.393 297.196 214.424 297.047 214.423Z" fill="#263238"/>
<path d="M297.572 221.195H236.562C236.242 221.189 235.936 221.067 235.7 220.851C235.464 220.635 235.315 220.34 235.282 220.023C235.266 219.874 235.283 219.724 235.329 219.582C235.376 219.44 235.452 219.31 235.552 219.199C235.653 219.088 235.775 219 235.912 218.94C236.049 218.88 236.197 218.849 236.346 218.85H297.434C297.752 218.856 298.056 218.979 298.29 219.195C298.523 219.411 298.668 219.706 298.699 220.023C298.717 220.177 298.702 220.334 298.652 220.481C298.603 220.629 298.522 220.764 298.414 220.876C298.306 220.988 298.175 221.075 298.029 221.13C297.884 221.185 297.728 221.207 297.572 221.195Z" fill="#263238"/>
<path d="M298.234 227.967H228.554C228.236 227.965 227.93 227.846 227.694 227.633C227.457 227.419 227.308 227.126 227.274 226.81C227.259 226.66 227.275 226.509 227.323 226.366C227.371 226.223 227.448 226.092 227.55 225.981C227.652 225.87 227.777 225.782 227.915 225.723C228.054 225.664 228.203 225.635 228.354 225.638H298.018C298.338 225.643 298.645 225.766 298.88 225.982C299.116 226.198 299.265 226.492 299.299 226.81C299.314 226.958 299.298 227.107 299.251 227.248C299.204 227.39 299.128 227.519 299.027 227.628C298.927 227.738 298.804 227.825 298.667 227.883C298.531 227.941 298.383 227.97 298.234 227.967Z" fill="#263238"/>
<path d="M298.821 234.755H229.141C228.825 234.749 228.523 234.628 228.29 234.415C228.057 234.202 227.91 233.911 227.876 233.598C227.858 233.449 227.873 233.298 227.919 233.155C227.964 233.012 228.04 232.88 228.141 232.769C228.242 232.658 228.366 232.57 228.504 232.51C228.641 232.451 228.79 232.422 228.941 232.425H298.621C298.939 232.431 299.243 232.554 299.476 232.77C299.71 232.987 299.855 233.281 299.886 233.598C299.901 233.746 299.885 233.895 299.838 234.036C299.791 234.177 299.715 234.307 299.614 234.416C299.513 234.526 299.391 234.612 299.254 234.671C299.117 234.729 298.97 234.758 298.821 234.755Z" fill="#263238"/>
<path d="M273.354 138.295H235.205C234.886 138.292 234.579 138.17 234.345 137.953C234.111 137.737 233.967 137.44 233.94 137.122C233.922 136.973 233.936 136.822 233.982 136.679C234.028 136.536 234.104 136.405 234.205 136.294C234.306 136.182 234.429 136.094 234.567 136.035C234.705 135.976 234.854 135.947 235.004 135.95H273.153C273.47 135.959 273.773 136.083 274.005 136.299C274.238 136.514 274.385 136.807 274.418 137.122C274.436 137.271 274.421 137.423 274.375 137.565C274.33 137.708 274.254 137.84 274.153 137.951C274.052 138.062 273.928 138.15 273.791 138.21C273.653 138.269 273.504 138.298 273.354 138.295Z" fill="#263238"/>
<path d="M267.798 146.039H242.036C241.719 146.033 241.415 145.913 241.179 145.7C240.944 145.488 240.793 145.197 240.756 144.882C240.741 144.732 240.757 144.58 240.805 144.437C240.853 144.294 240.93 144.163 241.032 144.052C241.134 143.941 241.259 143.854 241.397 143.794C241.536 143.735 241.685 143.706 241.836 143.709H267.598C267.917 143.712 268.223 143.834 268.457 144.05C268.691 144.267 268.836 144.564 268.863 144.882C268.878 145.029 268.862 145.179 268.815 145.32C268.768 145.461 268.692 145.591 268.591 145.7C268.49 145.809 268.368 145.896 268.231 145.955C268.094 146.013 267.947 146.042 267.798 146.039Z" fill="#263238"/>
<g opacity="0.4">
<path d="M278.504 130.535H228.693C228.373 130.529 228.066 130.407 227.831 130.191C227.595 129.975 227.446 129.681 227.412 129.363C227.399 129.215 227.417 129.067 227.465 128.927C227.513 128.787 227.589 128.658 227.689 128.55C227.789 128.441 227.911 128.354 228.047 128.295C228.182 128.236 228.329 128.205 228.477 128.206H278.303C278.621 128.211 278.925 128.331 279.161 128.544C279.396 128.757 279.546 129.048 279.584 129.363C279.599 129.513 279.582 129.664 279.535 129.807C279.487 129.95 279.41 130.081 279.308 130.192C279.206 130.303 279.081 130.391 278.943 130.45C278.804 130.509 278.654 130.538 278.504 130.535Z" fill="white"/>
<path d="M295.258 194.045H234.248C233.928 194.039 233.622 193.917 233.386 193.701C233.15 193.485 233.001 193.19 232.967 192.872C232.954 192.724 232.973 192.574 233.021 192.433C233.07 192.292 233.148 192.163 233.25 192.053C233.351 191.944 233.475 191.858 233.613 191.8C233.75 191.741 233.898 191.713 234.047 191.716H295.058C295.374 191.718 295.679 191.837 295.912 192.051C296.146 192.265 296.292 192.557 296.323 192.872C296.34 193.022 296.326 193.173 296.28 193.316C296.235 193.459 296.159 193.59 296.058 193.701C295.957 193.812 295.833 193.901 295.695 193.96C295.557 194.019 295.408 194.048 295.258 194.045Z" fill="white"/>
<path d="M295.859 200.832H226.179C225.86 200.83 225.554 200.708 225.32 200.491C225.086 200.274 224.941 199.978 224.914 199.66C224.899 199.512 224.915 199.363 224.962 199.221C225.009 199.08 225.085 198.951 225.186 198.841C225.286 198.732 225.409 198.645 225.546 198.587C225.683 198.529 225.83 198.5 225.979 198.503H295.643C295.961 198.508 296.265 198.628 296.501 198.841C296.736 199.054 296.886 199.345 296.924 199.66C296.939 199.808 296.923 199.959 296.876 200.1C296.829 200.242 296.753 200.373 296.653 200.483C296.552 200.594 296.43 200.682 296.293 200.742C296.157 200.802 296.009 200.833 295.859 200.832Z" fill="white"/>
<path d="M296.445 207.62H226.765C226.448 207.61 226.145 207.486 225.913 207.271C225.68 207.055 225.534 206.763 225.5 206.447C225.482 206.298 225.497 206.147 225.543 206.004C225.588 205.861 225.664 205.73 225.765 205.619C225.866 205.507 225.99 205.419 226.128 205.36C226.265 205.301 226.414 205.272 226.565 205.275H296.245C296.563 205.281 296.867 205.404 297.1 205.62C297.334 205.836 297.479 206.131 297.51 206.447C297.527 206.596 297.513 206.747 297.467 206.89C297.421 207.033 297.345 207.165 297.245 207.276C297.144 207.387 297.02 207.475 296.882 207.535C296.744 207.594 296.595 207.623 296.445 207.62Z" fill="white"/>
<path d="M297.046 214.423H227.366C227.047 214.42 226.74 214.298 226.506 214.081C226.272 213.865 226.128 213.568 226.101 213.25C226.083 213.101 226.098 212.95 226.143 212.807C226.189 212.664 226.265 212.533 226.366 212.422C226.467 212.31 226.59 212.222 226.728 212.163C226.866 212.104 227.015 212.075 227.165 212.078H296.83C297.149 212.084 297.456 212.206 297.692 212.422C297.928 212.638 298.076 212.932 298.11 213.25C298.125 213.399 298.109 213.549 298.062 213.691C298.016 213.833 297.94 213.963 297.839 214.074C297.739 214.184 297.616 214.273 297.48 214.333C297.343 214.393 297.195 214.423 297.046 214.423Z" fill="white"/>
<path d="M297.571 221.195H236.561C236.241 221.189 235.935 221.067 235.699 220.851C235.463 220.635 235.314 220.34 235.281 220.023C235.265 219.874 235.282 219.724 235.328 219.582C235.375 219.44 235.451 219.31 235.551 219.199C235.652 219.088 235.774 219 235.911 218.94C236.048 218.88 236.196 218.849 236.345 218.85H297.433C297.751 218.856 298.055 218.979 298.289 219.195C298.522 219.411 298.667 219.706 298.698 220.023C298.716 220.177 298.701 220.334 298.651 220.481C298.602 220.629 298.521 220.764 298.413 220.876C298.305 220.988 298.174 221.075 298.028 221.13C297.883 221.185 297.727 221.207 297.571 221.195Z" fill="white"/>
<path d="M298.233 227.967H228.553C228.235 227.965 227.929 227.846 227.692 227.633C227.456 227.419 227.307 227.126 227.273 226.81C227.257 226.66 227.274 226.509 227.322 226.366C227.369 226.223 227.447 226.092 227.549 225.981C227.651 225.87 227.775 225.782 227.914 225.723C228.052 225.664 228.202 225.635 228.353 225.638H298.017C298.337 225.643 298.643 225.766 298.879 225.982C299.115 226.198 299.264 226.492 299.298 226.81C299.313 226.958 299.297 227.107 299.25 227.248C299.203 227.39 299.127 227.519 299.026 227.628C298.926 227.738 298.803 227.825 298.666 227.883C298.529 227.941 298.382 227.97 298.233 227.967Z" fill="white"/>
<path d="M298.821 234.755H229.141C228.825 234.749 228.523 234.628 228.29 234.415C228.057 234.202 227.91 233.911 227.876 233.598C227.858 233.449 227.873 233.298 227.918 233.155C227.964 233.012 228.04 232.88 228.141 232.769C228.242 232.658 228.365 232.57 228.503 232.51C228.641 232.451 228.79 232.422 228.94 232.425H298.62C298.938 232.431 299.243 232.554 299.476 232.77C299.709 232.987 299.855 233.281 299.885 233.598C299.901 233.746 299.884 233.895 299.838 234.036C299.791 234.177 299.715 234.307 299.614 234.416C299.513 234.526 299.39 234.612 299.254 234.671C299.117 234.729 298.969 234.758 298.821 234.755Z" fill="white"/>
<path d="M273.353 138.294H235.204C234.885 138.292 234.579 138.17 234.345 137.953C234.111 137.736 233.966 137.44 233.939 137.122C233.922 136.973 233.936 136.822 233.982 136.679C234.028 136.536 234.104 136.404 234.204 136.293C234.305 136.182 234.429 136.094 234.567 136.035C234.705 135.975 234.854 135.946 235.004 135.95H273.153C273.47 135.959 273.773 136.083 274.005 136.299C274.238 136.514 274.384 136.807 274.418 137.122C274.435 137.271 274.421 137.422 274.375 137.565C274.33 137.708 274.254 137.84 274.153 137.951C274.052 138.062 273.928 138.15 273.79 138.209C273.652 138.269 273.503 138.298 273.353 138.294Z" fill="white"/>
<path d="M267.799 146.039H242.037C241.72 146.033 241.415 145.913 241.18 145.7C240.944 145.488 240.794 145.197 240.757 144.882C240.741 144.732 240.758 144.58 240.806 144.437C240.853 144.294 240.931 144.163 241.033 144.052C241.135 143.941 241.259 143.854 241.398 143.794C241.536 143.735 241.686 143.706 241.837 143.709H267.598C267.917 143.712 268.224 143.834 268.458 144.05C268.692 144.267 268.836 144.564 268.863 144.882C268.879 145.029 268.862 145.179 268.816 145.32C268.769 145.461 268.693 145.591 268.592 145.7C268.491 145.809 268.368 145.896 268.232 145.955C268.095 146.013 267.948 146.042 267.799 146.039Z" fill="white"/>
</g>
<path opacity="0.5" d="M295.429 182.691H223.42L221.013 155.063H293.022L295.429 182.691Z" fill="white"/>
<path d="M374.423 325.136H311.268V265.576H374.423V325.136Z" fill="#263238"/>
<path d="M436.035 325.136H372.88V265.576H436.035V325.136Z" fill="#263238"/>
<path d="M375.055 271.654H311.283V263.386H375.055V271.654Z" fill="#263238"/>
<path d="M375.039 266.934H260.993V257.323H375.039V266.934Z" fill="#263238"/>
<path opacity="0.2" d="M436.035 325.136H372.88V265.576H436.035V325.136Z" fill="#263238"/>
<path opacity="0.2" d="M375.055 271.654H311.283V263.386H375.055V271.654Z" fill="#263238"/>
<path opacity="0.2" d="M375.039 266.934H260.993V257.323H375.039V266.934Z" fill="#263238"/>
<path d="M486.308 266.934H372.263V257.323H486.308V266.934Z" fill="#263238"/>
<path d="M486.293 358.812C485.884 358.812 485.492 358.649 485.203 358.36C484.913 358.071 484.751 357.679 484.751 357.269V263.787C484.753 263.131 484.625 262.481 484.376 261.875C484.126 261.269 483.76 260.718 483.297 260.253C482.834 259.789 482.284 259.421 481.678 259.169C481.073 258.918 480.424 258.789 479.768 258.789H373.79C373.381 258.789 372.989 258.626 372.699 258.337C372.41 258.047 372.248 257.655 372.248 257.246C372.248 256.837 372.41 256.444 372.699 256.155C372.989 255.866 373.381 255.703 373.79 255.703H479.768C481.909 255.707 483.961 256.561 485.474 258.076C486.986 259.592 487.836 261.646 487.836 263.787V357.269C487.836 357.679 487.673 358.071 487.384 358.36C487.095 358.649 486.702 358.812 486.293 358.812Z" fill="url(#paint5_linear_126_14752)"/>
<path d="M486.632 362.823C480.955 362.823 476.358 370.227 476.358 379.36V391.114H481.449C482.004 391.114 485.12 390.497 485.12 379.252C485.12 379.252 486.848 391.084 483.979 391.114H488.314C488.314 391.114 490.905 390.621 490.905 384.358V374.855C490.905 374.855 495.055 391.053 490.905 391.053H496.921V379.298C496.921 370.227 492.309 362.823 486.632 362.823Z" fill="url(#paint6_linear_126_14752)"/>
<path d="M490.089 360.355H483.178C482.769 360.355 482.376 360.192 482.087 359.903C481.798 359.613 481.635 359.221 481.635 358.812C481.635 358.403 481.798 358.01 482.087 357.721C482.376 357.432 482.769 357.269 483.178 357.269H490.089C490.498 357.269 490.89 357.432 491.18 357.721C491.469 358.01 491.631 358.403 491.631 358.812C491.631 359.221 491.469 359.613 491.18 359.903C490.89 360.192 490.498 360.355 490.089 360.355Z" fill="url(#paint7_linear_126_14752)"/>
<path d="M490.089 363.44H483.178C482.769 363.44 482.376 363.277 482.087 362.988C481.798 362.699 481.635 362.306 481.635 361.897C481.635 361.488 481.798 361.096 482.087 360.807C482.376 360.517 482.769 360.355 483.178 360.355H490.089C490.498 360.355 490.89 360.517 491.18 360.807C491.469 361.096 491.631 361.488 491.631 361.897C491.631 362.306 491.469 362.699 491.18 362.988C490.89 363.277 490.498 363.44 490.089 363.44Z" fill="url(#paint8_linear_126_14752)"/>
<path d="M162.594 447.173H443.69V505.793H162.502C165.031 486.337 165.062 466.637 162.594 447.173Z" fill="url(#paint9_linear_126_14752)"/>
<path opacity="0.7" d="M162.594 447.173H443.69V505.793H162.502C165.031 486.337 165.062 466.637 162.594 447.173Z" fill="white"/>
<path d="M392.476 508.878H480.822L481.716 507.967C485.903 503.784 489.223 498.817 491.489 493.35C493.755 487.883 494.921 482.023 494.921 476.105C494.921 470.187 493.755 464.327 491.489 458.859C489.223 453.392 485.903 448.425 481.716 444.242L480.822 443.347H392.476L397.736 448.608C405.025 455.903 409.118 465.793 409.118 476.105C409.118 486.417 405.025 496.307 397.736 503.602L392.476 508.878Z" fill="url(#paint10_linear_126_14752)"/>
<g opacity="0.3">
<path d="M392.476 508.878H480.822L481.717 507.967C485.903 503.784 489.224 498.817 491.489 493.35C493.755 487.883 494.921 482.023 494.921 476.105C494.921 470.187 493.755 464.327 491.489 458.859C489.224 453.392 485.903 448.425 481.717 444.242L480.822 443.347H392.476L397.736 448.608C405.025 455.903 409.119 465.793 409.119 476.105C409.119 486.417 405.025 496.307 397.736 503.602L392.476 508.878Z" fill="#263238"/>
</g>
<path d="M159.71 508.878H398.322L398.584 508.615C406.933 500.447 411.891 489.429 412.468 477.763C412.695 471.569 411.636 465.396 409.358 459.632C407.08 453.867 403.632 448.638 399.232 444.273L398.322 443.378H159.71C158.892 443.378 158.107 443.703 157.528 444.282C156.95 444.86 156.625 445.645 156.625 446.463C156.625 447.282 156.95 448.066 157.528 448.645C158.107 449.224 158.892 449.549 159.71 449.549H395.731C402.479 456.76 406.234 466.267 406.234 476.143C406.234 486.02 402.479 495.527 395.731 502.738H159.71C158.892 502.738 158.107 503.063 157.528 503.642C156.95 504.22 156.625 505.005 156.625 505.823C156.633 506.636 156.961 507.413 157.539 507.985C158.117 508.557 158.897 508.878 159.71 508.878Z" fill="url(#paint11_linear_126_14752)"/>
<path d="M184.653 468.955H198.151C198.765 468.955 199.353 468.711 199.787 468.277C200.221 467.843 200.465 467.255 200.465 466.641C200.465 466.027 200.221 465.439 199.787 465.005C199.353 464.571 198.765 464.327 198.151 464.327H184.653C184.039 464.327 183.451 464.571 183.017 465.005C182.583 465.439 182.339 466.027 182.339 466.641C182.339 467.255 182.583 467.843 183.017 468.277C183.451 468.711 184.039 468.955 184.653 468.955Z" fill="white"/>
<path d="M215.813 468.955H341.228C341.842 468.955 342.431 468.711 342.864 468.277C343.298 467.843 343.542 467.255 343.542 466.641C343.542 466.027 343.298 465.439 342.864 465.005C342.431 464.571 341.842 464.327 341.228 464.327H215.813C215.2 464.327 214.611 464.571 214.177 465.005C213.743 465.439 213.5 466.027 213.5 466.641C213.5 467.255 213.743 467.843 214.177 468.277C214.611 468.711 215.2 468.955 215.813 468.955Z" fill="white"/>
<path d="M358.2 468.955H385.967C386.581 468.955 387.169 468.711 387.603 468.277C388.037 467.843 388.281 467.255 388.281 466.641C388.281 466.027 388.037 465.439 387.603 465.005C387.169 464.571 386.581 464.327 385.967 464.327H358.2C357.586 464.327 356.997 464.571 356.564 465.005C356.13 465.439 355.886 466.027 355.886 466.641C355.886 467.255 356.13 467.843 356.564 468.277C356.997 468.711 357.586 468.955 358.2 468.955Z" fill="white"/>
<path d="M184.654 488.561H303.436C304.05 488.561 304.638 488.317 305.072 487.883C305.506 487.45 305.75 486.861 305.75 486.247C305.75 485.634 305.506 485.045 305.072 484.611C304.638 484.177 304.05 483.933 303.436 483.933H184.654C184.04 483.933 183.452 484.177 183.018 484.611C182.584 485.045 182.34 485.634 182.34 486.247C182.34 486.861 182.584 487.45 183.018 487.883C183.452 488.317 184.04 488.561 184.654 488.561Z" fill="white"/>
<path d="M320.714 488.561H385.967C386.581 488.561 387.169 488.317 387.603 487.883C388.037 487.45 388.281 486.861 388.281 486.247C388.281 485.634 388.037 485.045 387.603 484.611C387.169 484.177 386.581 483.933 385.967 483.933H320.714C320.1 483.933 319.512 484.177 319.078 484.611C318.644 485.045 318.4 485.634 318.4 486.247C318.4 486.861 318.644 487.45 319.078 487.883C319.512 488.317 320.1 488.561 320.714 488.561Z" fill="white"/>
<path d="M170.045 328.839H423.034V381.596H169.952C172.235 364.086 172.266 346.356 170.045 328.839Z" fill="url(#paint12_linear_126_14752)"/>
<path opacity="0.8" d="M170.045 328.839H423.034V381.596H169.952C172.235 364.086 172.266 346.356 170.045 328.839Z" fill="white"/>
<path d="M376.942 384.373H456.464L457.281 383.555C461.047 379.791 464.034 375.321 466.072 370.402C468.11 365.483 469.159 360.21 469.159 354.886C469.159 349.561 468.11 344.289 466.072 339.37C464.034 334.45 461.047 329.981 457.281 326.216L456.464 325.399H376.957L381.678 330.119C388.235 336.687 391.918 345.589 391.918 354.87C391.918 364.152 388.235 373.053 381.678 379.622L376.942 384.373Z" fill="url(#paint13_linear_126_14752)"/>
<g opacity="0.2">
<path d="M376.941 384.373H456.463L457.281 383.555C461.046 379.791 464.033 375.321 466.071 370.402C468.109 365.483 469.158 360.21 469.158 354.886C469.158 349.561 468.109 344.289 466.071 339.37C464.033 334.45 461.046 329.981 457.281 326.216L456.463 325.399H376.957L381.677 330.119C388.234 336.687 391.917 345.589 391.917 354.87C391.917 364.152 388.234 373.053 381.677 379.622L376.941 384.373Z" fill="white"/>
</g>
<path d="M167.452 384.373H382.2L382.416 384.111C389.914 376.754 394.355 366.836 394.85 356.344C395.067 350.775 394.127 345.223 392.087 340.037C390.048 334.851 386.954 330.145 383.002 326.216L382.185 325.399H167.452C166.716 325.399 166.01 325.691 165.489 326.212C164.968 326.733 164.676 327.439 164.676 328.175C164.676 328.912 164.968 329.618 165.489 330.139C166.01 330.66 166.716 330.952 167.452 330.952H379.886C385.948 337.438 389.32 345.985 389.32 354.863C389.32 363.741 385.948 372.287 379.886 378.773H167.452C166.716 378.773 166.01 379.066 165.489 379.587C164.968 380.107 164.676 380.814 164.676 381.55C164.669 381.918 164.737 382.285 164.874 382.627C165.01 382.969 165.214 383.281 165.472 383.543C165.731 383.806 166.039 384.015 166.379 384.157C166.719 384.3 167.084 384.373 167.452 384.373Z" fill="url(#paint14_linear_126_14752)"/>
<g opacity="0.4">
<path d="M167.452 384.373H382.2L382.416 384.111C389.913 376.754 394.354 366.836 394.849 356.344C395.067 350.775 394.126 345.223 392.087 340.037C390.048 334.851 386.954 330.145 383.002 326.216L382.184 325.399H167.452C166.715 325.399 166.009 325.691 165.488 326.212C164.968 326.733 164.675 327.439 164.675 328.175C164.675 328.912 164.968 329.618 165.488 330.139C166.009 330.66 166.715 330.952 167.452 330.952H379.886C385.948 337.438 389.32 345.985 389.32 354.863C389.32 363.741 385.948 372.287 379.886 378.773H167.452C166.715 378.773 166.009 379.066 165.488 379.587C164.968 380.107 164.675 380.814 164.675 381.55C164.669 381.918 164.736 382.285 164.873 382.627C165.01 382.969 165.213 383.281 165.472 383.543C165.73 383.806 166.038 384.015 166.378 384.157C166.718 384.3 167.083 384.373 167.452 384.373Z" fill="white"/>
</g>
<path d="M189.898 348.507H202.054C202.606 348.507 203.136 348.288 203.526 347.897C203.917 347.507 204.136 346.977 204.136 346.425C204.136 346.151 204.082 345.88 203.978 345.628C203.873 345.375 203.72 345.145 203.526 344.952C203.333 344.759 203.103 344.605 202.851 344.501C202.598 344.396 202.327 344.342 202.054 344.342H189.898C189.624 344.342 189.354 344.396 189.101 344.501C188.848 344.605 188.619 344.759 188.425 344.952C188.232 345.145 188.079 345.375 187.974 345.628C187.869 345.88 187.815 346.151 187.815 346.425C187.815 346.977 188.035 347.507 188.425 347.897C188.816 348.288 189.346 348.507 189.898 348.507Z" fill="white"/>
<path d="M218.02 348.507H330.817C331.091 348.509 331.362 348.457 331.616 348.353C331.87 348.249 332.1 348.096 332.294 347.902C332.488 347.708 332.641 347.478 332.745 347.224C332.849 346.97 332.901 346.699 332.899 346.425C332.901 346.151 332.849 345.879 332.745 345.625C332.641 345.372 332.488 345.141 332.294 344.947C332.1 344.754 331.87 344.6 331.616 344.496C331.362 344.392 331.091 344.34 330.817 344.342H218.02C217.746 344.34 217.475 344.392 217.221 344.496C216.967 344.6 216.737 344.754 216.543 344.947C216.349 345.141 216.196 345.372 216.092 345.625C215.988 345.879 215.936 346.151 215.938 346.425C215.936 346.699 215.988 346.97 216.092 347.224C216.196 347.478 216.349 347.708 216.543 347.902C216.737 348.096 216.967 348.249 217.221 348.353C217.475 348.457 217.746 348.509 218.02 348.507Z" fill="white"/>
<path d="M346.088 348.507H371.079C371.353 348.509 371.624 348.457 371.878 348.353C372.132 348.249 372.362 348.096 372.556 347.902C372.749 347.708 372.903 347.478 373.007 347.224C373.111 346.97 373.163 346.699 373.161 346.425C373.163 346.151 373.111 345.879 373.007 345.625C372.903 345.372 372.749 345.141 372.556 344.947C372.362 344.754 372.132 344.6 371.878 344.496C371.624 344.392 371.353 344.34 371.079 344.342H346.088C345.814 344.34 345.542 344.392 345.289 344.496C345.035 344.6 344.805 344.754 344.611 344.947C344.417 345.141 344.264 345.372 344.16 345.625C344.056 345.879 344.004 346.151 344.006 346.425C344.004 346.699 344.056 346.97 344.16 347.224C344.264 347.478 344.417 347.708 344.611 347.902C344.805 348.096 345.035 348.249 345.289 348.353C345.542 348.457 345.814 348.509 346.088 348.507Z" fill="white"/>
<path d="M189.897 366.093H296.8C297.075 366.095 297.346 366.042 297.6 365.939C297.853 365.835 298.084 365.681 298.278 365.487C298.471 365.294 298.625 365.063 298.729 364.81C298.833 364.556 298.885 364.284 298.883 364.01C298.885 363.736 298.833 363.465 298.729 363.211C298.625 362.957 298.471 362.727 298.278 362.533C298.084 362.339 297.853 362.186 297.6 362.082C297.346 361.978 297.075 361.926 296.8 361.928H189.897C189.345 361.928 188.815 362.147 188.424 362.538C188.034 362.928 187.814 363.458 187.814 364.01C187.814 364.563 188.034 365.092 188.424 365.483C188.815 365.873 189.345 366.093 189.897 366.093Z" fill="white"/>
<path d="M312.428 366.093H371.048C371.32 366.099 371.592 366.051 371.846 365.952C372.1 365.853 372.332 365.704 372.528 365.515C372.725 365.325 372.882 365.099 372.991 364.849C373.099 364.599 373.157 364.329 373.161 364.056C373.163 363.782 373.111 363.511 373.007 363.257C372.903 363.004 372.749 362.773 372.556 362.579C372.362 362.386 372.132 362.232 371.878 362.128C371.624 362.024 371.353 361.972 371.079 361.974H312.459C312.185 361.972 311.913 362.024 311.66 362.128C311.406 362.232 311.176 362.386 310.982 362.579C310.788 362.773 310.635 363.004 310.531 363.257C310.427 363.511 310.374 363.782 310.377 364.056C310.385 364.597 310.604 365.112 310.987 365.493C311.371 365.873 311.888 366.089 312.428 366.093Z" fill="white"/>
<path d="M161.143 387.813H414.133V440.571H161.051C163.334 423.061 163.365 405.331 161.143 387.813Z" fill="url(#paint15_linear_126_14752)"/>
<path opacity="0.7" d="M161.143 387.813H414.133V440.571H161.051C163.334 423.061 163.365 405.331 161.143 387.813Z" fill="white"/>
<path d="M368.024 443.347H447.546L448.348 442.53C452.114 438.765 455.101 434.296 457.139 429.376C459.177 424.457 460.226 419.185 460.226 413.86C460.226 408.536 459.177 403.263 457.139 398.344C455.101 393.425 452.114 388.955 448.348 385.191L447.546 384.373H368.024L372.76 389.109C376.013 392.358 378.593 396.216 380.353 400.463C382.114 404.71 383.02 409.263 383.02 413.86C383.02 418.458 382.114 423.01 380.353 427.257C378.593 431.504 376.013 435.362 372.76 438.611L368.024 443.347Z" fill="url(#paint16_linear_126_14752)"/>
<path d="M158.538 443.347H373.301L373.533 443.116C381.03 435.759 385.471 425.841 385.966 415.349C386.178 409.781 385.235 404.23 383.196 399.045C381.157 393.86 378.066 389.153 374.119 385.221L373.301 384.404H158.538C157.803 384.408 157.099 384.702 156.579 385.222C156.059 385.741 155.765 386.445 155.761 387.181C155.765 387.916 156.059 388.62 156.579 389.139C157.099 389.659 157.803 389.953 158.538 389.957H370.972C377.044 396.438 380.423 404.987 380.423 413.868C380.423 422.749 377.044 431.297 370.972 437.778H158.538C158.173 437.778 157.812 437.85 157.475 437.99C157.138 438.129 156.832 438.334 156.575 438.592C156.317 438.85 156.112 439.156 155.973 439.493C155.833 439.829 155.761 440.19 155.761 440.555C155.761 441.293 156.053 442.001 156.574 442.524C157.094 443.047 157.8 443.343 158.538 443.347Z" fill="url(#paint17_linear_126_14752)"/>
<g opacity="0.3">
<path d="M158.538 443.347H373.301L373.533 443.116C381.03 435.759 385.471 425.841 385.966 415.349C386.178 409.781 385.235 404.23 383.196 399.045C381.157 393.86 378.066 389.153 374.119 385.221L373.301 384.404H158.538C157.803 384.408 157.099 384.702 156.579 385.222C156.059 385.741 155.765 386.445 155.761 387.181C155.765 387.916 156.059 388.62 156.579 389.139C157.099 389.659 157.803 389.953 158.538 389.957H370.972C377.044 396.438 380.423 404.987 380.423 413.868C380.423 422.749 377.044 431.297 370.972 437.778H158.538C158.173 437.778 157.812 437.85 157.475 437.99C157.138 438.129 156.832 438.334 156.575 438.592C156.317 438.85 156.112 439.156 155.973 439.493C155.833 439.829 155.761 440.19 155.761 440.555C155.761 441.293 156.053 442.001 156.574 442.524C157.094 443.047 157.8 443.343 158.538 443.347Z" fill="white"/>
</g>
<path d="M362.178 420.902H350.023C349.47 420.902 348.941 421.121 348.55 421.512C348.16 421.903 347.94 422.432 347.94 422.985C347.944 423.536 348.165 424.063 348.555 424.453C348.944 424.842 349.472 425.063 350.023 425.067H362.178C362.73 425.063 363.257 424.842 363.647 424.453C364.036 424.063 364.257 423.536 364.261 422.985C364.261 422.432 364.042 421.903 363.651 421.512C363.26 421.121 362.731 420.902 362.178 420.902Z" fill="white"/>
<path d="M334.057 420.902H221.261C220.987 420.9 220.715 420.953 220.461 421.056C220.208 421.16 219.977 421.314 219.783 421.508C219.59 421.701 219.436 421.932 219.332 422.185C219.228 422.439 219.176 422.711 219.178 422.985C219.178 423.258 219.232 423.529 219.337 423.782C219.441 424.034 219.595 424.264 219.788 424.457C219.981 424.651 220.211 424.804 220.464 424.909C220.716 425.013 220.987 425.067 221.261 425.067H334.057C334.33 425.067 334.601 425.013 334.854 424.909C335.106 424.804 335.336 424.651 335.529 424.457C335.723 424.264 335.876 424.034 335.981 423.782C336.085 423.529 336.139 423.258 336.139 422.985C336.141 422.711 336.089 422.439 335.985 422.185C335.881 421.932 335.728 421.701 335.534 421.508C335.34 421.314 335.11 421.16 334.856 421.056C334.603 420.953 334.331 420.9 334.057 420.902Z" fill="white"/>
<path d="M205.989 420.902H180.998C180.724 420.9 180.453 420.952 180.199 421.056C179.946 421.16 179.715 421.314 179.521 421.507C179.328 421.701 179.174 421.932 179.07 422.185C178.966 422.439 178.914 422.711 178.916 422.985C178.916 423.258 178.97 423.529 179.074 423.782C179.179 424.034 179.333 424.264 179.526 424.457C179.719 424.651 179.949 424.804 180.202 424.909C180.454 425.013 180.725 425.067 180.998 425.067H205.989C206.264 425.069 206.538 425.017 206.793 424.913C207.048 424.81 207.281 424.657 207.477 424.464C207.673 424.27 207.829 424.04 207.937 423.786C208.044 423.533 208.1 423.26 208.102 422.985C208.102 422.709 208.047 422.435 207.941 422.18C207.834 421.926 207.678 421.695 207.481 421.501C207.285 421.307 207.052 421.154 206.795 421.052C206.539 420.949 206.265 420.898 205.989 420.902Z" fill="white"/>
<path d="M362.178 403.316H255.275C255.001 403.314 254.729 403.367 254.476 403.471C254.222 403.574 253.992 403.728 253.798 403.922C253.604 404.115 253.451 404.346 253.347 404.599C253.243 404.853 253.19 405.125 253.192 405.399C253.192 405.672 253.246 405.943 253.351 406.196C253.456 406.448 253.609 406.678 253.802 406.871C253.996 407.065 254.225 407.218 254.478 407.323C254.731 407.427 255.002 407.481 255.275 407.481H362.178C362.73 407.477 363.257 407.257 363.647 406.867C364.036 406.477 364.257 405.95 364.261 405.399C364.261 404.846 364.042 404.317 363.651 403.926C363.26 403.536 362.731 403.316 362.178 403.316Z" fill="white"/>
<path d="M239.649 403.316H181.029C180.755 403.314 180.483 403.367 180.23 403.471C179.976 403.574 179.746 403.728 179.552 403.922C179.358 404.115 179.205 404.346 179.101 404.599C178.997 404.853 178.945 405.125 178.947 405.399C178.947 405.951 179.166 406.481 179.557 406.871C179.947 407.262 180.477 407.481 181.029 407.481H239.649C239.922 407.481 240.193 407.427 240.446 407.323C240.698 407.218 240.928 407.065 241.121 406.871C241.315 406.678 241.468 406.448 241.573 406.196C241.677 405.943 241.731 405.672 241.731 405.399C241.733 405.125 241.681 404.853 241.577 404.599C241.473 404.346 241.32 404.115 241.126 403.922C240.932 403.728 240.702 403.574 240.448 403.471C240.194 403.367 239.923 403.314 239.649 403.316Z" fill="white"/>
<defs>
<linearGradient id="paint0_linear_126_14752" x1="261.004" y1="249.286" x2="261.004" y2="274.068" gradientUnits="userSpaceOnUse">
<stop stop-color="#F77531"/>
<stop offset="1" stop-color="#FFA927"/>
</linearGradient>
<linearGradient id="paint1_linear_126_14752" x1="253.79" y1="107.133" x2="253.79" y2="244.566" gradientUnits="userSpaceOnUse">
<stop stop-color="#F77531"/>
<stop offset="1" stop-color="#FFA927"/>
</linearGradient>
<linearGradient id="paint2_linear_126_14752" x1="253.79" y1="107.133" x2="253.79" y2="244.566" gradientUnits="userSpaceOnUse">
<stop stop-color="#F77531"/>
<stop offset="1" stop-color="#FFA927"/>
</linearGradient>
<linearGradient id="paint3_linear_126_14752" x1="140.928" y1="102.365" x2="140.928" y2="274.091" gradientUnits="userSpaceOnUse">
<stop stop-color="#F77531"/>
<stop offset="1" stop-color="#FFA927"/>
</linearGradient>
<linearGradient id="paint4_linear_126_14752" x1="259.083" y1="113.798" x2="259.083" y2="243.609" gradientUnits="userSpaceOnUse">
<stop stop-color="#F77531"/>
<stop offset="1" stop-color="#FFA927"/>
</linearGradient>
<linearGradient id="paint5_linear_126_14752" x1="430.042" y1="255.703" x2="430.042" y2="358.812" gradientUnits="userSpaceOnUse">
<stop stop-color="#F77531"/>
<stop offset="1" stop-color="#FFA927"/>
</linearGradient>
<linearGradient id="paint6_linear_126_14752" x1="486.64" y1="362.823" x2="486.64" y2="391.114" gradientUnits="userSpaceOnUse">
<stop stop-color="#F77531"/>
<stop offset="1" stop-color="#FFA927"/>
</linearGradient>
<linearGradient id="paint7_linear_126_14752" x1="486.633" y1="357.269" x2="486.633" y2="360.355" gradientUnits="userSpaceOnUse">
<stop stop-color="#F77531"/>
<stop offset="1" stop-color="#FFA927"/>
</linearGradient>
<linearGradient id="paint8_linear_126_14752" x1="486.633" y1="360.355" x2="486.633" y2="363.44" gradientUnits="userSpaceOnUse">
<stop stop-color="#F77531"/>
<stop offset="1" stop-color="#FFA927"/>
</linearGradient>
<linearGradient id="paint9_linear_126_14752" x1="303.096" y1="447.173" x2="303.096" y2="505.793" gradientUnits="userSpaceOnUse">
<stop stop-color="#F77531"/>
<stop offset="1" stop-color="#FFA927"/>
</linearGradient>
<linearGradient id="paint10_linear_126_14752" x1="443.699" y1="443.347" x2="443.699" y2="508.878" gradientUnits="userSpaceOnUse">
<stop stop-color="#F77531"/>
<stop offset="1" stop-color="#FFA927"/>
</linearGradient>
<linearGradient id="paint11_linear_126_14752" x1="284.561" y1="443.378" x2="284.561" y2="508.878" gradientUnits="userSpaceOnUse">
<stop stop-color="#F77531"/>
<stop offset="1" stop-color="#FFA927"/>
</linearGradient>
<linearGradient id="paint12_linear_126_14752" x1="296.493" y1="328.839" x2="296.493" y2="381.596" gradientUnits="userSpaceOnUse">
<stop stop-color="#F77531"/>
<stop offset="1" stop-color="#FFA927"/>
</linearGradient>
<linearGradient id="paint13_linear_126_14752" x1="423.05" y1="325.399" x2="423.05" y2="384.373" gradientUnits="userSpaceOnUse">
<stop stop-color="#F77531"/>
<stop offset="1" stop-color="#FFA927"/>
</linearGradient>
<linearGradient id="paint14_linear_126_14752" x1="279.778" y1="325.399" x2="279.778" y2="384.373" gradientUnits="userSpaceOnUse">
<stop stop-color="#F77531"/>
<stop offset="1" stop-color="#FFA927"/>
</linearGradient>
<linearGradient id="paint15_linear_126_14752" x1="287.592" y1="387.813" x2="287.592" y2="440.571" gradientUnits="userSpaceOnUse">
<stop stop-color="#F77531"/>
<stop offset="1" stop-color="#FFA927"/>
</linearGradient>
<linearGradient id="paint16_linear_126_14752" x1="414.125" y1="384.373" x2="414.125" y2="443.347" gradientUnits="userSpaceOnUse">
<stop stop-color="#F77531"/>
<stop offset="1" stop-color="#FFA927"/>
</linearGradient>
<linearGradient id="paint17_linear_126_14752" x1="270.878" y1="384.404" x2="270.878" y2="443.347" gradientUnits="userSpaceOnUse">
<stop stop-color="#F77531"/>
<stop offset="1" stop-color="#FFA927"/>
</linearGradient>
</defs>
</svg>
