<svg width="10" height="7" viewBox="0 0 10 7" fill="none" xmlns="http://www.w3.org/2000/svg">
<path d="M0.292893 4.79289C-0.0976314 5.18342 -0.0976315 5.81658 0.292892 6.20711C0.683417 6.59763 1.31658 6.59763 1.70711 6.20711L0.292893 4.79289ZM5 1.5L5.70711 0.792893C5.51957 0.605356 5.26522 0.499999 5 0.499999C4.73478 0.499999 4.48043 0.605356 4.29289 0.792893L5 1.5ZM8.29289 6.20711C8.68342 6.59763 9.31658 6.59763 9.70711 6.20711C10.0976 5.81658 10.0976 5.18342 9.70711 4.79289L8.29289 6.20711ZM1.70711 6.20711L5.70711 2.20711L4.29289 0.792893L0.292893 4.79289L1.70711 6.20711ZM4.29289 2.20711L8.29289 6.20711L9.70711 4.79289L5.70711 0.792893L4.29289 2.20711Z" fill="#CDD2E6"/>
</svg>
