<svg width="22" height="17" viewBox="0 0 22 17" fill="none" xmlns="http://www.w3.org/2000/svg">
<path d="M12.75 16C12.75 16.4142 13.0858 16.75 13.5 16.75C13.9142 16.75 14.25 16.4142 14.25 16H12.75ZM0.75 16C0.75 16.4142 1.08579 16.75 1.5 16.75C1.91421 16.75 2.25 16.4142 2.25 16H0.75ZM16.75 13C16.75 13.4142 17.0858 13.75 17.5 13.75C17.9142 13.75 18.25 13.4142 18.25 13H16.75ZM18.25 7C18.25 6.58579 17.9142 6.25 17.5 6.25C17.0858 6.25 16.75 6.58579 16.75 7H18.25ZM14.5 9.25C14.0858 9.25 13.75 9.58579 13.75 10C13.75 10.4142 14.0858 10.75 14.5 10.75V9.25ZM20.5 10.75C20.9142 10.75 21.25 10.4142 21.25 10C21.25 9.58579 20.9142 9.25 20.5 9.25V10.75ZM14.25 16C14.25 14.5666 13.3785 13.3608 12.1587 12.5475C10.9335 11.7308 9.28427 11.25 7.5 11.25V12.75C9.02944 12.75 10.3802 13.1646 11.3266 13.7956C12.2783 14.4301 12.75 15.2242 12.75 16H14.25ZM7.5 11.25C5.71573 11.25 4.06645 11.7308 2.84133 12.5475C1.62146 13.3608 0.75 14.5666 0.75 16H2.25C2.25 15.2242 2.72169 14.4301 3.67338 13.7956C4.61984 13.1646 5.97056 12.75 7.5 12.75V11.25ZM18.25 13V7H16.75V13H18.25ZM14.5 10.75H20.5V9.25H14.5V10.75ZM7.5 8.25C5.70507 8.25 4.25 6.79493 4.25 5H2.75C2.75 7.62335 4.87665 9.75 7.5 9.75V8.25ZM4.25 5C4.25 3.20507 5.70507 1.75 7.5 1.75V0.25C4.87665 0.25 2.75 2.37665 2.75 5H4.25ZM7.5 1.75C9.29493 1.75 10.75 3.20507 10.75 5H12.25C12.25 2.37665 10.1234 0.25 7.5 0.25V1.75ZM10.75 5C10.75 6.79493 9.29493 8.25 7.5 8.25V9.75C10.1234 9.75 12.25 7.62335 12.25 5H10.75Z" fill="white"/>
</svg>
