<svg width="522" height="339" viewBox="0 0 522 339" fill="none" xmlns="http://www.w3.org/2000/svg">
<path d="M425.144 207.705C428.034 208.971 435.106 208.808 435.113 208.808C435.121 208.808 433.559 204.146 433.458 203.897C431.904 200.649 427.001 195.287 423.007 195.831C422.345 195.938 421.714 196.183 421.154 196.55C420.594 196.918 420.117 197.399 419.756 197.963C419.394 198.527 419.156 199.161 419.056 199.823C418.956 200.485 418.997 201.161 419.176 201.807C419.836 204.573 422.68 206.632 425.144 207.705Z" fill="#263238"/>
<path d="M427.586 228.204C430.585 228.639 436.91 226.805 437.4 226.65C438.442 230.264 439.721 233.804 441.231 237.249C442.101 239.262 443.042 241.259 444.005 243.248C443.43 242.409 442.909 241.694 442.824 241.562C440.493 238.834 434.276 234.965 430.608 236.534C429.999 236.814 429.456 237.219 429.014 237.722C428.571 238.225 428.24 238.816 428.041 239.455C427.841 240.095 427.779 240.77 427.857 241.435C427.935 242.1 428.152 242.742 428.495 243.318C429.862 245.813 433.157 247.04 435.807 247.429C438.457 247.817 443.92 246.372 445.349 245.968C445.722 246.745 446.127 247.522 446.476 248.245C448.302 251.889 450.144 255.518 451.838 259.124C452.436 260.398 452.98 261.673 453.532 262.947C453.019 262.17 452.576 261.572 452.499 261.486C450.167 258.759 443.997 254.889 440.283 256.458C439.674 256.737 439.131 257.141 438.689 257.644C438.246 258.146 437.915 258.736 437.716 259.375C437.516 260.014 437.454 260.688 437.532 261.353C437.61 262.018 437.827 262.659 438.169 263.235C439.545 265.729 442.832 266.964 445.482 267.353C448.131 267.742 453.074 266.428 454.806 265.962C455.327 267.283 455.856 268.604 456.298 269.91C456.586 270.803 456.92 271.65 457.153 272.567C457.386 273.484 457.658 274.362 457.93 275.248C458.342 276.973 458.777 278.745 459.135 280.439C459.399 281.612 459.624 282.731 459.857 283.866C459.275 282.591 458.086 280.12 457.961 279.926C456.05 276.88 450.556 272.117 446.647 273.111C446.004 273.295 445.406 273.613 444.893 274.043C444.381 274.473 443.964 275.007 443.671 275.608C443.378 276.21 443.215 276.867 443.192 277.536C443.169 278.204 443.287 278.871 443.539 279.491C444.518 282.164 447.572 283.881 450.144 284.666C452.973 285.529 459.244 284.736 460.021 284.666C460.401 286.539 460.743 288.365 461.046 290.106C461.722 293.921 462.228 297.34 462.601 300.208H465.243C464.784 297.216 464.186 293.649 463.385 289.647C463.012 287.743 462.608 285.715 462.111 283.641C463.997 282.885 465.837 282.018 467.62 281.045C469.68 283.283 474.972 285.894 475.655 286.228C474.933 288 474.218 289.709 473.518 291.318C472.05 294.683 470.667 297.667 469.439 300.208H472.298C473.347 297.877 474.505 295.203 475.718 292.251C476.456 290.455 477.21 288.521 477.963 286.531C478.74 286.694 484.957 287.953 487.817 287.308C490.435 286.718 493.614 285.234 494.81 282.646C495.108 282.046 495.275 281.39 495.302 280.721C495.329 280.052 495.214 279.384 494.965 278.763C494.717 278.141 494.34 277.578 493.859 277.112C493.379 276.646 492.805 276.286 492.176 276.056C488.361 274.766 482.525 279.11 480.388 282.009C480.263 282.18 479.098 284.184 478.391 285.459C478.694 284.643 478.997 283.858 479.3 283.019C479.914 281.356 480.473 279.677 481.079 277.875C481.344 276.997 481.608 276.103 481.856 275.209C482.105 274.316 482.33 273.352 482.571 272.412C483.092 270.236 483.512 267.998 483.885 265.737C485.338 266.265 490.544 268.068 493.21 267.881C495.875 267.695 499.255 266.708 500.809 264.322C501.194 263.774 501.458 263.151 501.586 262.494C501.714 261.837 501.702 261.16 501.551 260.508C501.4 259.855 501.113 259.242 500.71 258.708C500.306 258.173 499.795 257.73 499.208 257.406C495.626 255.565 489.2 258.961 486.651 261.509C486.496 261.665 484.864 263.693 483.993 264.828C484.211 263.46 484.429 262.108 484.6 260.717C485.097 256.723 485.478 252.666 485.866 248.61C485.99 247.374 486.123 246.139 486.255 244.903C486.775 245.098 492.906 247.382 495.921 247.165C498.602 246.978 501.967 245.991 503.521 243.606C503.905 243.058 504.17 242.436 504.298 241.779C504.426 241.122 504.413 240.446 504.262 239.794C504.111 239.143 503.825 238.53 503.421 237.996C503.018 237.463 502.506 237.02 501.92 236.697C498.338 234.848 491.912 238.252 489.363 240.793C489.169 240.979 486.837 243.901 486.255 244.678C486.542 241.95 486.853 239.238 487.273 236.581C487.817 232.985 488.596 229.429 489.604 225.935C489.845 226.028 496.232 228.437 499.325 228.22C502.006 228.033 505.371 227.046 506.925 224.668C507.309 224.12 507.574 223.497 507.702 222.84C507.829 222.183 507.817 221.506 507.666 220.853C507.515 220.201 507.229 219.588 506.825 219.054C506.422 218.519 505.91 218.076 505.324 217.752C501.742 215.903 495.315 219.306 492.767 221.848C492.565 222.05 490.055 225.189 489.658 225.795C489.713 225.593 489.752 225.375 489.814 225.173C490.917 221.687 492.329 218.307 494.033 215.071C494.95 213.276 495.929 211.613 496.916 210.013C498.058 210.588 503.319 213.121 506.117 213.253C508.914 213.385 512.256 212.748 514.066 210.549C514.508 210.046 514.838 209.455 515.037 208.816C515.235 208.176 515.297 207.502 515.218 206.838C515.139 206.173 514.92 205.532 514.577 204.957C514.234 204.383 513.774 203.886 513.227 203.501C509.87 201.271 503.125 203.951 500.296 206.189C500.149 206.314 498.742 207.744 497.709 208.769C498.167 208.054 498.626 207.308 499.076 206.64C500.763 204.099 502.457 201.877 503.98 199.918C504.858 198.815 505.666 197.836 506.443 196.927C507.857 196.927 513.561 196.725 516.055 195.551C518.55 194.378 521.27 192.28 521.86 189.498C522.021 188.847 522.043 188.17 521.925 187.51C521.807 186.851 521.551 186.223 521.174 185.669C520.798 185.115 520.308 184.646 519.738 184.294C519.168 183.941 518.53 183.713 517.866 183.623C513.864 183.188 509.101 188.682 507.632 191.969C507.508 192.257 506.039 196.927 506.078 196.927H506.163C505.386 197.789 504.609 198.722 503.747 199.755C502.192 201.682 500.429 203.874 498.68 206.384C496.774 209.072 495.025 211.869 493.443 214.761C491.651 217.988 490.151 221.369 488.959 224.863C488.959 224.901 488.959 224.948 488.92 224.987C488.92 223.806 488.92 220.503 488.858 220.247C488.392 216.68 485.4 210.052 481.437 209.321C480.775 209.217 480.099 209.253 479.453 209.427C478.806 209.602 478.203 209.911 477.684 210.334C477.165 210.757 476.741 211.285 476.439 211.883C476.138 212.481 475.966 213.136 475.935 213.805C475.702 216.641 477.761 219.485 479.766 221.272C482.027 223.293 488.314 225.251 488.803 225.407C487.677 228.994 486.79 232.651 486.146 236.355C485.765 238.508 485.447 240.699 485.151 242.891C485.151 241.865 485.151 240.956 485.097 240.824C484.638 237.257 481.647 230.628 477.676 229.898C477.014 229.796 476.338 229.834 475.692 230.01C475.046 230.186 474.444 230.496 473.925 230.919C473.406 231.343 472.983 231.87 472.681 232.468C472.379 233.066 472.207 233.721 472.174 234.389C471.941 237.218 474 240.062 476.005 241.849C478.01 243.637 483.356 245.447 484.77 245.898C484.669 246.737 484.553 247.576 484.452 248.423C483.97 252.464 483.504 256.505 482.898 260.453C482.696 261.844 482.447 263.211 482.198 264.571C482.198 263.662 482.198 262.9 482.152 262.784C481.685 259.217 478.694 252.589 474.731 251.858C474.069 251.755 473.394 251.792 472.747 251.967C472.101 252.142 471.499 252.451 470.98 252.874C470.462 253.297 470.037 253.824 469.736 254.421C469.434 255.019 469.261 255.673 469.229 256.342C468.996 259.178 471.055 262.022 473.06 263.81C475.065 265.597 479.89 267.229 481.608 267.773C481.312 269.164 481.025 270.555 480.675 271.883C480.419 272.793 480.232 273.678 479.898 274.572L479.043 277.222C478.437 278.893 477.823 280.61 477.194 282.218C476.759 283.345 476.331 284.402 475.896 285.474C476.114 284.091 476.487 281.371 476.495 281.146C476.451 277.978 475.595 274.874 474.008 272.132C474.018 271.779 473.997 271.425 473.946 271.075C473.863 270.411 473.64 269.771 473.293 269.198C472.946 268.625 472.482 268.132 471.931 267.751C471.38 267.369 470.755 267.108 470.097 266.985C469.438 266.862 468.761 266.878 468.11 267.034C464.225 268.068 461.746 274.906 461.559 278.504C461.559 278.714 461.684 281.03 461.8 282.483C461.606 281.636 461.419 280.812 461.21 279.942C460.798 278.224 460.339 276.515 459.857 274.673L459.08 272.008C458.832 271.114 458.451 270.197 458.14 269.288C457.363 267.182 456.485 265.084 455.552 262.986C457.06 262.628 462.391 261.269 464.535 259.621C466.68 257.974 468.934 255.308 468.91 252.464C468.929 251.795 468.806 251.129 468.55 250.509C468.294 249.89 467.911 249.332 467.425 248.871C466.939 248.41 466.361 248.056 465.729 247.833C465.098 247.61 464.426 247.523 463.758 247.576C459.749 248.012 456.275 254.399 455.545 257.919C455.498 258.145 455.265 260.732 455.156 262.154C454.589 260.903 454.022 259.644 453.4 258.401C451.613 254.788 449.686 251.198 447.782 247.6C447.201 246.496 446.626 245.393 446.057 244.289C446.593 244.165 452.965 242.689 455.381 240.847C457.518 239.215 459.78 236.534 459.756 233.69C459.775 233.02 459.652 232.354 459.396 231.735C459.14 231.116 458.757 230.558 458.271 230.097C457.785 229.636 457.207 229.282 456.575 229.059C455.944 228.836 455.272 228.749 454.604 228.802C450.602 229.237 447.121 235.625 446.391 239.145C446.336 239.417 446.002 243.139 445.963 244.087C444.704 241.663 443.469 239.231 442.342 236.783C440.815 233.483 439.502 230.087 438.41 226.619C438.659 226.564 445.326 225.065 447.782 223.161C449.919 221.521 452.18 218.848 452.157 216.004C452.175 215.334 452.052 214.668 451.796 214.049C451.541 213.43 451.157 212.872 450.671 212.411C450.185 211.95 449.607 211.596 448.976 211.373C448.344 211.15 447.672 211.062 447.005 211.116C442.995 211.551 439.521 217.939 438.791 221.459C438.737 221.739 438.379 225.748 438.364 226.479C438.301 226.277 438.216 226.075 438.154 225.873C437.159 222.363 436.478 218.772 436.118 215.141C435.892 213.144 435.791 211.217 435.729 209.337C436.996 209.181 442.793 208.412 445.194 206.959C447.595 205.506 450.035 203.151 450.331 200.323C450.426 199.658 450.38 198.98 450.195 198.334C450.01 197.688 449.691 197.088 449.258 196.575C448.825 196.061 448.288 195.645 447.683 195.353C447.077 195.062 446.417 194.901 445.746 194.883C441.713 194.883 437.555 200.835 436.421 204.262C436.359 204.449 435.955 206.407 435.644 207.837C435.644 206.99 435.644 206.12 435.644 205.304C435.644 202.257 435.846 199.468 436.032 196.997C436.157 195.59 436.289 194.324 436.429 193.111C437.594 192.334 442.257 189.016 443.694 186.669C445.132 184.323 446.235 181.059 445.194 178.409C444.969 177.778 444.614 177.202 444.152 176.718C443.69 176.233 443.131 175.851 442.512 175.597C441.893 175.343 441.227 175.221 440.558 175.241C439.888 175.261 439.231 175.422 438.628 175.713C435.045 177.562 434.105 184.773 434.696 188.325C434.75 188.628 436.102 193.337 436.157 193.298C436.182 193.283 436.206 193.264 436.227 193.243C436.071 194.386 435.916 195.575 435.776 196.942C435.527 199.413 435.271 202.203 435.201 205.265C435.088 208.561 435.169 211.862 435.442 215.149C435.728 218.822 436.339 222.463 437.268 226.028C437.284 226.068 437.297 226.11 437.307 226.153C436.677 225.158 434.812 222.43 434.641 222.267C432.31 219.547 426.132 215.67 422.426 217.247C421.817 217.526 421.274 217.93 420.832 218.432C420.389 218.935 420.058 219.525 419.858 220.164C419.659 220.803 419.596 221.477 419.675 222.142C419.753 222.807 419.97 223.448 420.312 224.023C421.641 226.58 424.928 227.815 427.586 228.204Z" fill="#263238"/>
<path d="M496.715 209.267C496.777 209.267 497.997 204.558 498.044 204.255C498.541 200.688 497.399 193.508 493.77 191.752C493.159 191.478 492.498 191.335 491.828 191.334C491.159 191.333 490.497 191.472 489.885 191.743C489.273 192.014 488.725 192.411 488.276 192.908C487.828 193.405 487.489 193.99 487.281 194.627C486.31 197.3 487.538 200.587 488.999 202.84C490.716 205.49 496.707 209.259 496.715 209.267Z" fill="#263238"/>
<path d="M487.546 338.44H448.871L444.038 295.491H492.379L487.546 338.44Z" fill="white" stroke="#263238" stroke-width="0.869371" stroke-linecap="round" stroke-linejoin="round"/>
<path d="M444.926 303.355L445.392 307.52H491.029L491.503 303.355H444.926Z" fill="#263238"/>
<path d="M490.004 316.674L490.47 312.517H445.96L446.426 316.674H490.004Z" fill="#263238"/>
<path d="M286.172 243.132H262.689V337.88H286.172V243.132Z" fill="#263238" stroke="#263238" stroke-width="0.869371" stroke-linecap="round" stroke-linejoin="round"/>
<path d="M428.603 86.8384H132.211V266.615H428.603V86.8384Z" fill="#263238" stroke="#263238" stroke-width="0.869371" stroke-linecap="round" stroke-linejoin="round"/>
<path d="M422.628 86.8384H126.236V266.615H422.628V86.8384Z" fill="#CDD2E6" stroke="#263238" stroke-width="0.869371" stroke-linecap="round" stroke-linejoin="round"/>
<path d="M411.951 93.3193H136.921V260.142H411.951V93.3193Z" fill="white" stroke="#263238" stroke-width="0.869371" stroke-linecap="round" stroke-linejoin="round"/>
<path d="M411.951 250.094H136.921V260.142H411.951V250.094Z" fill="white" stroke="#263238" stroke-width="0.869371" stroke-linecap="round" stroke-linejoin="round"/>
<path d="M275.714 327.258L188.643 332.884V338.549H360.221V332.884L275.714 327.258Z" fill="#263238" stroke="#263238" stroke-width="0.869371" stroke-linecap="round" stroke-linejoin="round"/>
<path d="M411.951 93.3193H136.921V260.142H411.951V93.3193Z" fill="white" stroke="#263238" stroke-width="0.869371" stroke-linecap="round" stroke-linejoin="round"/>
<path d="M232.914 55.0562L209.33 90.8094" stroke="#263238" stroke-width="0.869371" stroke-miterlimit="10" stroke-dasharray="4.35 4.35"/>
<path d="M270.463 35.9869V27.8586L262.35 26.9572C261.911 25.2627 261.242 23.6364 260.361 22.1238L265.482 15.7207L259.739 9.97815L253.367 15.0758C251.858 14.1868 250.234 13.5071 248.542 13.0554L247.64 4.91162H239.52L238.611 13.0243C236.917 13.4646 235.291 14.1339 233.777 15.0136L227.374 9.8849L221.632 15.6275L226.729 22.0073C225.841 23.5135 225.164 25.1346 224.717 26.8251L216.565 27.7343V35.8547L224.678 36.7562C225.115 38.4512 225.785 40.0776 226.667 41.5896L221.538 48.0004L227.281 53.743L233.661 48.6299C235.168 49.5172 236.789 50.1968 238.479 50.6503L239.388 58.8018H247.508L248.41 50.6891C250.105 50.2516 251.731 49.5821 253.243 48.6998L259.654 53.8207L265.397 48.0781L260.322 41.7061C261.211 40.1993 261.891 38.5784 262.343 36.8883L270.463 35.9869ZM243.514 41.5507C241.595 41.5522 239.719 40.9846 238.123 39.9196C236.527 38.8545 235.283 37.34 234.548 35.5676C233.813 33.7952 233.62 31.8447 233.994 29.9628C234.368 28.0808 235.292 26.3521 236.649 24.9954C238.006 23.6386 239.734 22.7148 241.616 22.3409C243.498 21.9669 245.449 22.1596 247.221 22.8946C248.993 23.6296 250.508 24.8738 251.573 26.4698C252.638 28.0658 253.206 29.9419 253.204 31.8606C253.204 34.4306 252.183 36.8953 250.366 38.7125C248.549 40.5298 246.084 41.5507 243.514 41.5507Z" fill="#CDD2E6" stroke="#263238" stroke-width="0.869371" stroke-linecap="round" stroke-linejoin="round"/>
<path d="M302.374 19.6837L301.504 14.3063L296.064 14.6016C295.585 13.5306 294.963 12.5295 294.215 11.6254L296.841 6.81534L292.404 3.65264L288.744 7.73229C287.648 7.31981 286.5 7.05839 285.333 6.95521L283.833 1.66333L278.456 2.55697L278.751 7.99649C277.681 8.48147 276.681 9.10597 275.775 9.8537L270.965 7.17279L267.802 11.6099L271.882 15.2621C271.47 16.3617 271.209 17.5118 271.105 18.6813L265.758 20.1888L266.652 25.5662L272.092 25.2631C272.575 26.336 273.2 27.3396 273.949 28.2471L271.322 33.0882L275.759 36.1965L279.412 32.1169C280.512 32.5249 281.662 32.7861 282.831 32.894L284.331 38.1859L289.708 37.2844L289.405 31.8449C290.48 31.3627 291.484 30.7351 292.389 29.9799L297.199 32.6609L300.362 28.2238L296.282 24.5637C296.691 23.4661 296.952 22.3189 297.059 21.1524L302.374 19.6837ZM285.185 26.351C283.917 26.5638 282.613 26.3956 281.44 25.8677C280.267 25.3399 279.277 24.476 278.595 23.3854C277.913 22.2947 277.569 21.0263 277.608 19.7405C277.647 18.4548 278.066 17.2093 278.813 16.1618C279.559 15.1142 280.6 14.3115 281.802 13.8553C283.005 13.399 284.316 13.3096 285.57 13.5984C286.823 13.8872 287.963 14.5413 288.845 15.4778C289.727 16.4144 290.311 17.5914 290.524 18.86C290.666 19.7025 290.641 20.5649 290.45 21.3976C290.258 22.2304 289.905 23.0172 289.409 23.7131C288.913 24.4089 288.285 25.0001 287.56 25.4528C286.835 25.9054 286.028 26.2107 285.185 26.351Z" fill="#263238" stroke="#263238" stroke-width="0.869371" stroke-miterlimit="10"/>
<path d="M163.637 55.4292L164.01 57.333" stroke="#263238" stroke-width="0.869371" stroke-miterlimit="10"/>
<path d="M164.726 60.9153L170.072 87.7865" stroke="#263238" stroke-width="0.869371" stroke-miterlimit="10" stroke-dasharray="4.09 4.09"/>
<path d="M170.43 89.5815L170.803 91.4854" stroke="#263238" stroke-width="0.869371" stroke-miterlimit="10"/>
<path d="M169.102 52.0879H180.074V11.2371H169.102V52.0879Z" fill="#CDD2E6" stroke="#263238" stroke-width="0.869371" stroke-linecap="round" stroke-linejoin="round"/>
<path d="M154.474 52.0879H165.446V20.3832H154.474V52.0879Z" fill="#263238" stroke="#263238" stroke-width="0.869371" stroke-miterlimit="10"/>
<path d="M139.842 52.0879H150.814V27.7033H139.842V52.0879Z" fill="#CDD2E6" stroke="#263238" stroke-width="0.869371" stroke-linecap="round" stroke-linejoin="round"/>
<path d="M125.211 52.0879H136.183V33.7955H125.211V52.0879Z" fill="#263238" stroke="#263238" stroke-width="0.869371" stroke-miterlimit="10"/>
<path d="M130.349 31.099L129.276 29.6925L140.49 21.1602L146.053 23.0096L155.239 13.1175L160.647 14.7649L170.438 3.53612L174.588 6.2248L178.9 3.1709L179.918 4.61626L174.634 8.35399L170.764 5.85181L161.23 16.793L155.782 15.1301L146.574 25.0533L140.824 23.134L130.349 31.099Z" fill="#263238"/>
<path d="M180.812 7.98103L184.278 0.451172L176.025 1.21271L180.812 7.98103Z" fill="#263238"/>
<path d="M77.6129 53.9761L79.237 55.0484" stroke="#263238" stroke-width="0.869371" stroke-miterlimit="10"/>
<path d="M82.4876 57.2009L132.842 90.4908" stroke="#263238" stroke-width="0.869371" stroke-miterlimit="10" stroke-dasharray="4.36 4.36"/>
<path d="M134.462 91.5708L136.086 92.6354" stroke="#263238" stroke-width="0.869371" stroke-miterlimit="10"/>
<path d="M25.2722 20.6553H81.6879C83.0028 20.6553 84.2638 21.1776 85.1935 22.1074C86.1233 23.0371 86.6456 24.2981 86.6456 25.613V64.1715H20.3145V25.613C20.3145 24.2981 20.8368 23.0371 21.7666 22.1074C22.6963 21.1776 23.9574 20.6553 25.2722 20.6553Z" fill="white" stroke="#263238" stroke-width="0.869371" stroke-linecap="round" stroke-linejoin="round"/>
<path d="M37.0436 38.1545H68.4607" stroke="#263238" stroke-width="0.869371" stroke-linecap="round" stroke-linejoin="round"/>
<path d="M37.0436 43.2214H68.4607" stroke="#263238" stroke-width="0.869371" stroke-linecap="round" stroke-linejoin="round"/>
<path d="M37.0436 48.2878H68.4607" stroke="#263238" stroke-width="0.869371" stroke-linecap="round" stroke-linejoin="round"/>
<path d="M37.0436 53.3542H68.4607" stroke="#263238" stroke-width="0.869371" stroke-linecap="round" stroke-linejoin="round"/>
<path d="M86.6378 27.5324V24.7116C86.6378 23.6358 86.2105 22.6041 85.4498 21.8433C84.6891 21.0826 83.6573 20.6553 82.5815 20.6553H24.3708C23.295 20.6553 22.2633 21.0826 21.5026 21.8433C20.7419 22.6041 20.3145 23.6358 20.3145 24.7116V27.5324H86.6378Z" fill="#CDD2E6" stroke="#263238" stroke-width="0.869371" stroke-linecap="round" stroke-linejoin="round"/>
<path d="M75.2973 24.2683C75.2927 24.0665 75.2286 23.8705 75.1132 23.7049C74.9977 23.5393 74.836 23.4115 74.6482 23.3374C74.4604 23.2633 74.2549 23.2463 74.0575 23.2885C73.8601 23.3307 73.6795 23.4302 73.5384 23.5745C73.3973 23.7188 73.3019 23.9016 73.2641 24.0999C73.2264 24.2982 73.248 24.5033 73.3263 24.6893C73.4046 24.8754 73.536 25.0343 73.7042 25.146C73.8723 25.2577 74.0697 25.3173 74.2715 25.3173C74.4082 25.3174 74.5435 25.2901 74.6695 25.2371C74.7955 25.1841 74.9096 25.1065 75.0052 25.0087C75.1008 24.911 75.1758 24.7951 75.226 24.668C75.2761 24.5408 75.3004 24.4049 75.2973 24.2683Z" fill="#263238" stroke="#263238" stroke-width="0.869371" stroke-linecap="round" stroke-linejoin="round"/>
<path d="M79.3973 24.2683C79.3928 24.0665 79.3287 23.8705 79.2133 23.7049C79.0978 23.5393 78.936 23.4115 78.7483 23.3374C78.5605 23.2633 78.355 23.2463 78.1576 23.2885C77.9602 23.3307 77.7796 23.4302 77.6385 23.5745C77.4973 23.7188 77.4019 23.9016 77.3642 24.0999C77.3265 24.2982 77.3481 24.5033 77.4264 24.6893C77.5047 24.8754 77.6361 25.0343 77.8042 25.146C77.9724 25.2577 78.1697 25.3173 78.3716 25.3173C78.5083 25.3174 78.6436 25.2901 78.7696 25.2371C78.8956 25.1841 79.0097 25.1065 79.1053 25.0087C79.2008 24.911 79.2759 24.7951 79.3261 24.668C79.3762 24.5408 79.4004 24.4049 79.3973 24.2683Z" fill="#263238" stroke="#263238" stroke-width="0.869371" stroke-linecap="round" stroke-linejoin="round"/>
<path d="M83.4828 24.2683C83.4782 24.0661 83.4139 23.8698 83.2981 23.7041C83.1823 23.5384 83.0201 23.4105 82.8318 23.3367C82.6436 23.2629 82.4378 23.2463 82.2401 23.2891C82.0425 23.3319 81.862 23.4322 81.7212 23.5773C81.5803 23.7224 81.4856 23.9059 81.4487 24.1047C81.4119 24.3035 81.4346 24.5088 81.5141 24.6947C81.5935 24.8806 81.7262 25.0389 81.8953 25.1497C82.0645 25.2605 82.2626 25.3188 82.4648 25.3173C82.6011 25.3174 82.7361 25.2901 82.8617 25.237C82.9872 25.1839 83.1009 25.1061 83.1958 25.0083C83.2908 24.9104 83.3651 24.7945 83.4144 24.6674C83.4637 24.5403 83.4869 24.4045 83.4828 24.2683Z" fill="#263238" stroke="#263238" stroke-width="0.869371" stroke-linecap="round" stroke-linejoin="round"/>
<path d="M11.8976 73.4497C11.6336 73.2307 11.4162 72.9609 11.2583 72.6563C11.1004 72.3517 11.0053 72.0186 10.9785 71.6766C10.9517 71.3346 10.9937 70.9907 11.1022 70.6652C11.2107 70.3398 11.3834 70.0394 11.61 69.7819L30.2598 48.4124L33.1117 50.7436L15.542 73.0534C15.3304 73.321 15.0676 73.5438 14.769 73.7088C14.4704 73.8739 14.142 73.9779 13.8028 74.0147C13.4636 74.0516 13.1205 74.0207 12.7934 73.9237C12.4663 73.8267 12.1618 73.6655 11.8976 73.4497Z" fill="#263238" stroke="#263238" stroke-width="0.869371" stroke-linejoin="round"/>
<path d="M25.2771 54.0693L11.6083 69.7818C11.3637 70.0356 11.174 70.3371 11.0511 70.6676C10.9282 70.998 10.8747 71.3502 10.8941 71.7022C10.9134 72.0542 11.0051 72.3984 11.1635 72.7134C11.3219 73.0283 11.5435 73.3073 11.8145 73.5328C12.0855 73.7582 12.4 73.9254 12.7385 74.0238C13.0771 74.1223 13.4322 74.1499 13.7819 74.1049C14.1315 74.0599 14.4681 73.9433 14.7707 73.7623C15.0733 73.5814 15.3353 73.34 15.5403 73.0533L28.4864 56.6104L25.2771 54.0693Z" fill="white" stroke="#263238" stroke-width="0.869371" stroke-linejoin="round"/>
<path d="M45.7813 32.5444C43.9916 31.0622 41.8026 30.144 39.491 29.9059C37.1795 29.6677 34.8493 30.1204 32.795 31.2066C30.7407 32.2928 29.0547 33.9638 27.95 36.0082C26.8454 38.0526 26.3718 40.3787 26.5892 42.6923C26.8065 45.0059 27.705 47.203 29.1711 49.006C30.6371 50.8089 32.6049 52.1367 34.8255 52.8213C37.0461 53.5059 39.4199 53.5166 41.6466 52.8522C43.8734 52.1877 45.8531 50.8779 47.3354 49.0883C49.3213 46.6876 50.2731 43.5968 49.9817 40.4948C49.6903 37.3928 48.1795 34.5333 45.7813 32.5444ZM31.8639 49.3448C30.3329 48.0762 29.2123 46.3823 28.6439 44.477C28.0754 42.5718 28.0845 40.5408 28.67 38.6407C29.2555 36.7406 30.3912 35.0568 31.9335 33.802C33.4758 32.5472 35.3555 31.7778 37.3349 31.5911C39.3144 31.4043 41.3048 31.8086 43.0545 32.7528C44.8043 33.6969 46.2348 35.1386 47.1654 36.8957C48.096 38.6527 48.4848 40.6462 48.2827 42.6241C48.0806 44.602 47.2967 46.4757 46.03 48.0082C44.3225 50.0546 41.8756 51.3434 39.2222 51.5938C36.5688 51.8441 33.9239 51.0357 31.8639 49.3448Z" fill="#263238" stroke="#263238" stroke-width="0.869371" stroke-linejoin="round"/>
<path d="M54.4195 146.277H56.3622" stroke="#263238" stroke-width="0.869371" stroke-miterlimit="10"/>
<path d="M60.2553 146.277H128.389" stroke="#263238" stroke-width="0.869371" stroke-miterlimit="10" stroke-dasharray="4.36 4.36"/>
<path d="M130.333 146.277H132.275" stroke="#263238" stroke-width="0.869371" stroke-miterlimit="10"/>
<path d="M22.4522 117.362H66.388" stroke="#263238" stroke-width="0.869371" stroke-linecap="round" stroke-linejoin="round"/>
<path d="M44.4215 139.004V117.362" stroke="#263238" stroke-width="0.869371" stroke-linecap="round" stroke-linejoin="round"/>
<path d="M9.60759 122.747V150.123" stroke="#263238" stroke-width="0.869371" stroke-linecap="round" stroke-linejoin="round"/>
<path d="M51.8798 152.999H91.666V177.065" stroke="#263238" stroke-width="0.869371" stroke-linecap="round" stroke-linejoin="round"/>
<path d="M66.3871 153.418V176.622" stroke="#263238" stroke-width="0.869371" stroke-linecap="round" stroke-linejoin="round"/>
<path d="M30.3291 108.247H1.73272V127.728H30.3291V108.247Z" fill="#263238" stroke="#263238" stroke-width="0.869371" stroke-miterlimit="10"/>
<path d="M84.4117 108.247H55.8154V127.728H84.4117V108.247Z" fill="#CDD2E6" stroke="#263238" stroke-width="0.869371" stroke-linecap="round" stroke-linejoin="round"/>
<path d="M75.7978 170.825H57.4744V183.305H75.7978V170.825Z" fill="#CDD2E6" stroke="#263238" stroke-width="0.869371" stroke-linecap="round" stroke-linejoin="round"/>
<path d="M19.8479 143.884H1.52443V156.363H19.8479V143.884Z" fill="white" stroke="#263238" stroke-width="0.869371" stroke-linecap="round" stroke-linejoin="round"/>
<path d="M99.8317 170.825H81.5083V183.305H99.8317V170.825Z" fill="#263238" stroke="#263238" stroke-width="0.869371" stroke-miterlimit="10"/>
<path d="M44.4109 139.002L29.9982 153.415L44.4109 167.828L58.8237 153.415L44.4109 139.002Z" fill="#CDD2E6" stroke="#263238" stroke-width="0.869371" stroke-linecap="round" stroke-linejoin="round"/>
<path d="M97.4334 238.586L99.2673 237.956" stroke="#263238" stroke-width="0.869371" stroke-miterlimit="10"/>
<path d="M102.955 236.698L130.619 227.248" stroke="#263238" stroke-width="0.869371" stroke-miterlimit="10" stroke-dasharray="4.36 4.36"/>
<path d="M132.47 226.619L134.304 225.997" stroke="#263238" stroke-width="0.869371" stroke-miterlimit="10"/>
<path d="M93.0624 226.502H5.47831V247.071H93.0624V226.502Z" fill="white" stroke="#263238" stroke-width="0.869371" stroke-linecap="round" stroke-linejoin="round"/>
<path d="M92.7752 251.998H46.9977V279.235H92.7752V251.998Z" fill="white" stroke="#263238" stroke-width="0.869371" stroke-linecap="round" stroke-linejoin="round"/>
<path d="M46.9977 279.235L62.9278 266.483L69.5951 271.409L83.4969 260.686L92.4799 269.381V279.235H46.9977Z" fill="#263238" stroke="#263238" stroke-width="0.869371" stroke-linecap="round" stroke-linejoin="round"/>
<path d="M54.8173 262.139C56.5769 262.139 58.0033 260.712 58.0033 258.953C58.0033 257.193 56.5769 255.767 54.8173 255.767C53.0577 255.767 51.6313 257.193 51.6313 258.953C51.6313 260.712 53.0577 262.139 54.8173 262.139Z" fill="#263238" stroke="#263238" stroke-width="0.869371" stroke-linecap="round" stroke-linejoin="round"/>
<path d="M92.7752 282.996H46.9977V310.232H92.7752V282.996Z" fill="white" stroke="#263238" stroke-width="0.869371" stroke-linecap="round" stroke-linejoin="round"/>
<path d="M46.9977 310.232L62.9278 297.488L69.5951 302.407L83.4969 291.691L92.4799 300.379V310.232H46.9977Z" fill="#263238" stroke="#263238" stroke-width="0.869371" stroke-linecap="round" stroke-linejoin="round"/>
<path d="M54.8173 293.136C56.5769 293.136 58.0033 291.71 58.0033 289.95C58.0033 288.191 56.5769 286.764 54.8173 286.764C53.0577 286.764 51.6313 288.191 51.6313 289.95C51.6313 291.71 53.0577 293.136 54.8173 293.136Z" fill="#263238" stroke="#263238" stroke-width="0.869371" stroke-linecap="round" stroke-linejoin="round"/>
<path d="M6.81576 254.05H41.6054" stroke="#263238" stroke-width="0.869371" stroke-miterlimit="10"/>
<path d="M6.81576 261.781H41.6054" stroke="#263238" stroke-width="0.869371" stroke-miterlimit="10"/>
<path d="M6.81576 269.514H41.6054" stroke="#263238" stroke-width="0.869371" stroke-miterlimit="10"/>
<path d="M6.81576 277.245H41.6054" stroke="#263238" stroke-width="0.869371" stroke-miterlimit="10"/>
<path d="M6.81576 284.977H41.6054" stroke="#263238" stroke-width="0.869371" stroke-miterlimit="10"/>
<path d="M6.81576 292.709H41.6054" stroke="#263238" stroke-width="0.869371" stroke-miterlimit="10"/>
<path d="M6.81576 300.441H41.6054" stroke="#263238" stroke-width="0.869371" stroke-miterlimit="10"/>
<path d="M6.81576 308.173H41.6054" stroke="#263238" stroke-width="0.869371" stroke-miterlimit="10"/>
<path d="M406.216 102.372H273.6V139.944H406.216V102.372Z" fill="white" stroke="#263238" stroke-width="0.869371" stroke-linecap="round" stroke-linejoin="round"/>
<path d="M405.688 148.942H322.066V198.691H405.688V148.942Z" fill="white" stroke="#263238" stroke-width="0.869371" stroke-linecap="round" stroke-linejoin="round"/>
<path d="M322.066 198.691L351.176 175.41L363.345 184.4L388.747 164.826L405.159 180.702V198.691H322.066Z" fill="#263238" stroke="#263238" stroke-width="0.869371" stroke-linecap="round" stroke-linejoin="round"/>
<path d="M342.178 161.647C342.178 162.799 341.836 163.924 341.197 164.881C340.557 165.838 339.648 166.584 338.585 167.025C337.521 167.465 336.351 167.58 335.222 167.356C334.093 167.131 333.056 166.577 332.242 165.763C331.428 164.949 330.873 163.912 330.649 162.783C330.424 161.654 330.54 160.484 330.98 159.42C331.421 158.357 332.167 157.448 333.124 156.808C334.081 156.169 335.206 155.827 336.357 155.827C337.901 155.827 339.381 156.44 340.473 157.532C341.564 158.623 342.178 160.104 342.178 161.647Z" fill="#263238" stroke="#263238" stroke-width="0.869371" stroke-linecap="round" stroke-linejoin="round"/>
<path d="M405.688 205.576H322.066V255.324H405.688V205.576Z" fill="white" stroke="#263238" stroke-width="0.869371" stroke-linecap="round" stroke-linejoin="round"/>
<path d="M322.066 255.316L351.176 232.035L363.345 241.033L388.747 221.451L405.159 237.327V255.316H322.066Z" fill="#263238" stroke="#263238" stroke-width="0.869371" stroke-linecap="round" stroke-linejoin="round"/>
<path d="M342.178 218.273C342.178 219.424 341.836 220.549 341.197 221.507C340.557 222.464 339.648 223.21 338.585 223.65C337.521 224.091 336.351 224.206 335.222 223.981C334.093 223.757 333.056 223.202 332.242 222.388C331.428 221.575 330.873 220.537 330.649 219.408C330.424 218.279 330.54 217.109 330.98 216.046C331.421 214.982 332.167 214.073 333.124 213.434C334.081 212.794 335.206 212.453 336.357 212.453C337.901 212.453 339.381 213.066 340.473 214.157C341.564 215.249 342.178 216.729 342.178 218.273Z" fill="#263238" stroke="#263238" stroke-width="0.869371" stroke-linecap="round" stroke-linejoin="round"/>
<path d="M280.47 229.688L277.214 209.694H279.546L281.69 224.062L284.41 209.795H286.384L289.073 224.155L291.171 209.717H293.44L290.215 229.688H288.195L285.405 214.924L282.592 229.688H280.47Z" fill="#263238"/>
<path d="M296.461 210.937H316.013" stroke="#263238" stroke-width="0.869371" stroke-miterlimit="10"/>
<path d="M296.461 216.33H316.013" stroke="#263238" stroke-width="0.869371" stroke-miterlimit="10"/>
<path d="M296.461 221.723H316.013" stroke="#263238" stroke-width="0.869371" stroke-miterlimit="10"/>
<path d="M296.461 227.116H316.013" stroke="#263238" stroke-width="0.869371" stroke-miterlimit="10"/>
<path d="M296.461 232.509H316.013" stroke="#263238" stroke-width="0.869371" stroke-miterlimit="10"/>
<path d="M296.461 237.902H316.013" stroke="#263238" stroke-width="0.869371" stroke-miterlimit="10"/>
<path d="M296.461 243.295H316.013" stroke="#263238" stroke-width="0.869371" stroke-miterlimit="10"/>
<path d="M296.461 248.688H316.013" stroke="#263238" stroke-width="0.869371" stroke-miterlimit="10"/>
<path d="M296.461 254.081H316.013" stroke="#263238" stroke-width="0.869371" stroke-miterlimit="10"/>
<path d="M284.791 149.743C279.451 149.731 274.229 151.314 269.794 154.289V93.3193H136.914V260.142H269.794V199.173C273.298 201.513 277.301 203 281.483 203.516C285.665 204.031 289.91 203.56 293.877 202.14C297.844 200.721 301.424 198.392 304.329 195.34C307.235 192.288 309.386 188.598 310.609 184.566C311.832 180.534 312.095 176.271 311.375 172.12C310.655 167.968 308.973 164.042 306.463 160.658C303.954 157.273 300.686 154.522 296.923 152.627C293.16 150.732 289.005 149.744 284.791 149.743Z" fill="#263238" stroke="#263238" stroke-width="0.869371" stroke-linecap="round" stroke-linejoin="round"/>
<path d="M150.738 118.776H210.541" stroke="white" stroke-width="1.73874" stroke-linecap="round" stroke-linejoin="round"/>
<path d="M150.738 136.672H181.961" stroke="white" stroke-width="1.73874" stroke-linecap="round" stroke-linejoin="round"/>
<path d="M150.738 126.834H179.847" stroke="#CDD2E6" stroke-width="1.73874" stroke-linecap="round" stroke-linejoin="round"/>
<path d="M186.195 126.834H201.542" stroke="#CDD2E6" stroke-width="1.73874" stroke-linecap="round" stroke-linejoin="round"/>
<path d="M210.539 126.834H225.887" stroke="#CDD2E6" stroke-width="1.73874" stroke-linecap="round" stroke-linejoin="round"/>
<path d="M150.738 144.28H179.847" stroke="white" stroke-width="1.73874" stroke-linecap="round" stroke-linejoin="round"/>
<path d="M186.195 144.28H201.542" stroke="white" stroke-width="1.73874" stroke-linecap="round" stroke-linejoin="round"/>
<path d="M210.539 144.28H225.887" stroke="#CDD2E6" stroke-width="1.73874" stroke-linecap="round" stroke-linejoin="round"/>
<path d="M150.738 161.725H179.847" stroke="white" stroke-width="1.73874" stroke-linecap="round" stroke-linejoin="round"/>
<path d="M186.195 161.725H201.542" stroke="#CDD2E6" stroke-width="1.73874" stroke-linecap="round" stroke-linejoin="round"/>
<path d="M210.539 161.725H225.887" stroke="white" stroke-width="1.73874" stroke-linecap="round" stroke-linejoin="round"/>
<path d="M168.735 169.333H190.874" stroke="white" stroke-width="1.73874" stroke-linecap="round" stroke-linejoin="round"/>
<path d="M195.699 169.333H207.371" stroke="white" stroke-width="1.73874" stroke-linecap="round" stroke-linejoin="round"/>
<path d="M214.219 169.333H225.891" stroke="white" stroke-width="1.73874" stroke-linecap="round" stroke-linejoin="round"/>
<path d="M168.735 178.728H190.874" stroke="white" stroke-width="1.73874" stroke-linecap="round" stroke-linejoin="round"/>
<path d="M195.699 178.728H207.371" stroke="white" stroke-width="1.73874" stroke-linecap="round" stroke-linejoin="round"/>
<path d="M214.219 178.728H225.891" stroke="white" stroke-width="1.73874" stroke-linecap="round" stroke-linejoin="round"/>
<path d="M150.738 189.016H210.541" stroke="#CDD2E6" stroke-width="1.73874" stroke-linecap="round" stroke-linejoin="round"/>
<path d="M150.738 206.912H181.961" stroke="white" stroke-width="1.73874" stroke-linecap="round" stroke-linejoin="round"/>
<path d="M150.738 197.074H179.847" stroke="#CDD2E6" stroke-width="1.73874" stroke-linecap="round" stroke-linejoin="round"/>
<path d="M186.195 197.074H201.542" stroke="white" stroke-width="1.73874" stroke-linecap="round" stroke-linejoin="round"/>
<path d="M210.539 197.074H225.887" stroke="#CDD2E6" stroke-width="1.73874" stroke-linecap="round" stroke-linejoin="round"/>
<path d="M150.738 214.52H179.847" stroke="#CDD2E6" stroke-width="1.73874" stroke-linecap="round" stroke-linejoin="round"/>
<path d="M186.195 214.52H201.542" stroke="#CDD2E6" stroke-width="1.73874" stroke-linecap="round" stroke-linejoin="round"/>
<path d="M210.539 214.52H225.887" stroke="white" stroke-width="1.73874" stroke-linecap="round" stroke-linejoin="round"/>
<path d="M150.738 231.965H179.847" stroke="white" stroke-width="1.73874" stroke-linecap="round" stroke-linejoin="round"/>
<path d="M186.195 231.965H201.542" stroke="#CDD2E6" stroke-width="1.73874" stroke-linecap="round" stroke-linejoin="round"/>
<path d="M210.539 231.965H225.887" stroke="#CDD2E6" stroke-width="1.73874" stroke-linecap="round" stroke-linejoin="round"/>
<path d="M168.735 239.573H190.874" stroke="white" stroke-width="1.73874" stroke-linecap="round" stroke-linejoin="round"/>
<path d="M195.699 239.573H207.371" stroke="white" stroke-width="1.73874" stroke-linecap="round" stroke-linejoin="round"/>
<path d="M214.219 239.573H225.891" stroke="white" stroke-width="1.73874" stroke-linecap="round" stroke-linejoin="round"/>
<path d="M168.735 248.967H190.874" stroke="white" stroke-width="1.73874" stroke-linecap="round" stroke-linejoin="round"/>
<path d="M195.699 248.967H207.371" stroke="white" stroke-width="1.73874" stroke-linecap="round" stroke-linejoin="round"/>
<path d="M214.219 248.967H225.891" stroke="white" stroke-width="1.73874" stroke-linecap="round" stroke-linejoin="round"/>
<path d="M152.368 108.045L157.994 105.154V105.986L153.253 108.364L157.994 110.741V111.573L152.368 108.682V108.045Z" fill="white" stroke="white" stroke-width="0.869371" stroke-miterlimit="10"/>
<path d="M161.353 112.086L164.741 103.297H165.565L162.169 112.086H161.353Z" fill="white" stroke="white" stroke-width="0.869371" stroke-miterlimit="10"/>
<path d="M174.522 108.713L168.896 111.573V110.796L173.667 108.418L168.896 106.04V105.208L174.522 108.091V108.713Z" fill="white" stroke="white" stroke-width="0.869371" stroke-miterlimit="10"/>
<path d="M25.6204 338.548H519.086" stroke="#263238" stroke-width="0.869371" stroke-miterlimit="10"/>
<path d="M0.000610352 338.548H13.2886" stroke="#263238" stroke-width="0.869371" stroke-miterlimit="10"/>
</svg>
