<svg width="20" height="21" viewBox="0 0 20 21" fill="none" xmlns="http://www.w3.org/2000/svg">
<path d="M12.5 17.0212H7.50004M16.6667 7.18784V11.8545C16.6667 12.7879 16.6669 13.2546 16.4852 13.6111C16.3254 13.9247 16.0701 14.1797 15.7565 14.3395C15.4 14.5211 14.9336 14.5212 14.0002 14.5212H6.0002C5.06678 14.5212 4.59972 14.5211 4.2432 14.3395C3.9296 14.1797 3.67482 13.9247 3.51503 13.6111C3.33337 13.2546 3.33337 12.7879 3.33337 11.8545V7.18784C3.33337 6.25442 3.33337 5.78771 3.51503 5.43119C3.67482 5.11759 3.9296 4.8626 4.2432 4.70282C4.59972 4.52116 5.06678 4.52116 6.0002 4.52116H14.0002C14.9336 4.52116 15.4 4.52116 15.7565 4.70282C16.0701 4.8626 16.3254 5.11759 16.4852 5.43119C16.6669 5.78771 16.6667 6.25442 16.6667 7.18784ZM12.0834 9.52116L8.33337 7.02116V12.0212L12.0834 9.52116Z" stroke="black" stroke-opacity="0.85" stroke-linecap="round" stroke-linejoin="round"/>
</svg>
