<svg width="256" height="192" viewBox="0 0 256 192" fill="none" xmlns="http://www.w3.org/2000/svg">
<path d="M91.3132 105.735V109.873H72.7168V105.742" fill="#C0DCEF"/>
<path d="M72.7168 175.977V173.912H91.3132V175.977" fill="#C0DCEF"/>
<path d="M87.1437 109.866C87.1437 109.866 94.1984 142.159 87.1437 171.852H76.8858C69.8311 142.159 76.8858 109.866 76.8858 109.866H87.1437Z" fill="#FDFDFD"/>
<path d="M76.8858 109.866C76.8858 109.866 69.8311 142.159 76.8858 171.852H87.1437C87.7411 169.342 88.2305 166.812 88.6372 164.283C87.0165 171.496 82.1736 168.586 79.7394 158.016C77.3815 147.714 77.4196 130.115 79.0022 109.866H76.8858Z" fill="#C0DCEF"/>
<path d="M87.1434 109.866C88.6983 117.763 89.6691 125.763 90.0479 133.802" stroke="#216898" stroke-linecap="round" stroke-linejoin="round"/>
<path d="M72.7168 109.873V105.741" stroke="#216898" stroke-linecap="round" stroke-linejoin="round"/>
<path d="M91.3124 105.735V109.873H81.8744" stroke="#216898" stroke-linecap="round" stroke-linejoin="round"/>
<path d="M76.8858 171.852C69.8311 142.159 76.8858 109.866 76.8858 109.866" stroke="#216898" stroke-linecap="round" stroke-linejoin="round"/>
<path d="M90.0225 151.515C89.6527 158.364 88.6894 165.169 87.1434 171.852" stroke="#216898" stroke-linecap="round" stroke-linejoin="round"/>
<path d="M80.8441 171.839H91.3117V175.977" stroke="#216898" stroke-linecap="round" stroke-linejoin="round"/>
<path d="M72.7168 175.977V171.839H76.886" stroke="#216898" stroke-linecap="round" stroke-linejoin="round"/>
<path d="M131.613 171.839H113.017V175.97H131.613V171.839Z" fill="#FDFDFD"/>
<path d="M127.445 109.866C127.445 109.866 134.5 142.159 127.445 171.852H117.187C110.133 142.159 117.187 109.866 117.187 109.866H127.445Z" fill="#FDFDFD"/>
<path d="M117.187 109.866C117.187 109.866 110.133 142.159 117.187 171.852H127.445C128.043 169.342 128.532 166.812 128.939 164.283C127.318 171.496 122.475 168.586 120.041 158.016C117.683 147.714 117.721 130.115 119.304 109.866H117.187Z" fill="#C0DCEF"/>
<path d="M127.445 109.866C127.445 109.866 134.5 142.159 127.445 171.852H117.187C110.133 142.159 117.187 109.866 117.187 109.866" stroke="#216898" stroke-linecap="round" stroke-linejoin="round"/>
<path d="M113.017 105.735V109.873H131.613V105.742" fill="#C0DCEF"/>
<path d="M127.278 109.873H131.613V105.741" stroke="#216898" stroke-linecap="round" stroke-linejoin="round"/>
<path d="M113.017 105.735V109.873H121.317" stroke="#216898" stroke-linecap="round" stroke-linejoin="round"/>
<path d="M113.017 175.977V173.912H131.613V175.977" fill="#C0DCEF"/>
<path d="M113.017 175.977V171.839H131.613V175.977" stroke="#216898" stroke-linecap="round" stroke-linejoin="round"/>
<path d="M165.877 171.839H147.28V175.97H165.877V171.839Z" fill="#FDFDFD"/>
<path d="M161.719 109.866C161.719 109.866 168.774 142.159 161.719 171.852H151.449C144.394 142.159 151.449 109.866 151.449 109.866H161.719Z" fill="#FDFDFD"/>
<path d="M151.449 109.866C151.449 109.866 144.394 142.159 151.449 171.852H161.719C162.317 169.342 162.806 166.812 163.213 164.283C161.592 171.496 156.749 168.586 154.315 158.016C151.957 147.714 151.995 130.115 153.578 109.866H151.449Z" fill="#C0DCEF"/>
<path d="M151.449 171.852C148.964 161.391 148.233 150.605 148.322 141.028" stroke="#216898" stroke-linecap="round" stroke-linejoin="round"/>
<path d="M148.544 133.776C148.926 125.746 149.897 117.755 151.449 109.866H161.72C161.72 109.866 168.774 142.159 161.72 171.852" stroke="#216898" stroke-linecap="round" stroke-linejoin="round"/>
<path d="M165.877 105.735V109.873H147.28V105.742" fill="#C0DCEF"/>
<path d="M162.629 109.873H147.28V105.741" stroke="#216898" stroke-linecap="round" stroke-linejoin="round"/>
<path d="M165.877 105.735V109.873" stroke="#216898" stroke-linecap="round" stroke-linejoin="round"/>
<path d="M147.28 175.977V173.912H165.877V175.977" fill="#C0DCEF"/>
<path d="M159.012 171.839H165.876V175.977" stroke="#216898" stroke-linecap="round" stroke-linejoin="round"/>
<path d="M147.28 175.977V171.839H151.45" stroke="#216898" stroke-linecap="round" stroke-linejoin="round"/>
<path d="M179.133 105.691H65.4957V94.696L122.315 64.3672L179.133 94.696V105.691Z" fill="#FDFDFD"/>
<path d="M179.133 103.625H65.4957V105.691H179.133V103.625Z" fill="#C0DCEF"/>
<path d="M67.5613 105.691H65.4957V94.8864L67.5613 93.7678V105.691Z" fill="#C0DCEF"/>
<path d="M175.003 99.4939H69.6281V101.559H175.003V99.4939Z" fill="#C0DCEF"/>
<path d="M71.6936 101.56H69.6281V97.1108L71.6936 95.9922V101.56Z" fill="#C0DCEF"/>
<path d="M156.527 82.6331L179.133 94.696V105.691H65.4957V94.696L122.315 64.3672L141.451 74.5869" stroke="#216898" stroke-linecap="round" stroke-linejoin="round"/>
<path d="M69.6281 97.1744L122.316 69.0574L174.997 97.1744V101.56H104.431" stroke="#216898" stroke-linecap="round" stroke-linejoin="round"/>
<path d="M114.054 87.247C114.054 88.6952 114.435 90.1177 115.159 91.3721C115.883 92.6265 116.923 93.6687 118.177 94.3942C119.43 95.1196 120.852 95.503 122.3 95.5057C123.748 95.5084 125.172 95.1305 126.428 94.4097C126.093 94.4554 125.755 94.4788 125.417 94.4797C123.598 94.4783 121.83 93.8763 120.387 92.7672C118.945 91.6581 117.909 90.1038 117.44 88.3457C116.971 86.5875 117.096 84.7238 117.795 83.0439C118.494 81.3639 119.728 79.9616 121.305 79.0547C119.306 79.3011 117.465 80.2698 116.129 81.7786C114.794 83.2873 114.056 85.2321 114.054 87.247Z" fill="#C0DCEF"/>
<path d="M128.835 82.2388C129.985 83.711 130.601 85.5292 130.585 87.3969C130.568 89.2645 129.919 91.0715 128.744 92.523C127.568 93.9744 125.936 94.9849 124.112 95.3894C122.289 95.7939 120.382 95.5687 118.703 94.7505C117.024 93.9323 115.672 92.5693 114.867 90.884C114.062 89.1986 113.852 87.2902 114.271 85.47C114.69 83.6499 115.713 82.0254 117.174 80.8615C118.635 79.6976 120.447 79.0629 122.315 79.061" stroke="#216898" stroke-linecap="round" stroke-linejoin="round"/>
<path d="M176.548 175.984H68.0773V181.151H176.548V175.984Z" fill="#FDFDFD"/>
<path d="M176.548 179.085H68.0773V181.151H176.548V179.085Z" fill="#C0DCEF"/>
<path d="M68.0773 181.151V175.984H95.4443" stroke="#216898" stroke-linecap="round" stroke-linejoin="round"/>
<path d="M181.714 186.317H62.9097V191.484H181.714V186.317Z" fill="#FDFDFD"/>
<path d="M181.714 189.413H62.9097V191.478H181.714V189.413Z" fill="#C0DCEF"/>
<path d="M116.481 191.478H69.8755" stroke="#216898" stroke-linecap="round" stroke-linejoin="round"/>
<path d="M181.714 186.317V191.478H127.158" stroke="#216898" stroke-linecap="round" stroke-linejoin="round"/>
<path d="M62.9097 191.478V186.317H174.52" stroke="#216898" stroke-linecap="round" stroke-linejoin="round"/>
<path d="M179.133 184.252H65.4957V186.317H179.133V184.252Z" fill="#C0DCEF"/>
<path d="M179.133 181.15V186.317H65.4957" stroke="#216898" stroke-linecap="round" stroke-linejoin="round"/>
<path d="M65.4957 184.252V181.151H176.547V175.984H108.885" stroke="#216898" stroke-linecap="round" stroke-linejoin="round"/>
<path d="M153.312 104C150.109 55.8441 137.449 19.8779 122.316 19.8779C110.673 19.8779 100.485 41.1818 94.9554 72.9469" stroke="#2C8BCB" stroke-linecap="round" stroke-linejoin="round"/>
<path d="M154.093 127.923C154.093 124.427 154.044 120.976 153.947 117.569" stroke="#2C8BCB" stroke-linecap="round" stroke-linejoin="round"/>
<path d="M107.907 84.7683C68.579 66.9091 35.7716 61.7293 28.7487 73.9002C22.9206 83.9865 36.28 103.46 61.0286 124.109" stroke="#2C8BCB" stroke-linecap="round" stroke-linejoin="round"/>
<path d="M175.066 124.897C163.322 115.942 151.008 107.76 138.203 100.403C135.614 98.9114 133.032 97.4624 130.456 96.0557" stroke="#2C8BCB" stroke-linecap="round" stroke-linejoin="round"/>
<path d="M188.063 187.722C202.249 189.807 212.342 188.078 215.882 181.945C221.748 171.776 208.166 152.125 183.1 131.291" stroke="#2C8BCB" stroke-linecap="round" stroke-linejoin="round"/>
<path d="M136.297 84.9718C175.816 66.9474 208.846 61.685 215.894 73.9004C222.854 85.9759 202.427 111.398 167.91 136.299" stroke="#2C8BCB" stroke-linecap="round" stroke-linejoin="round"/>
<path d="M57.9214 187.512C43.0303 189.908 32.3974 188.275 28.7493 181.945C19.9913 166.749 54.7499 130.236 106.427 100.403C109.147 98.8352 111.861 97.3141 114.569 95.8396" stroke="#2C8BCB" stroke-linecap="round" stroke-linejoin="round"/>
<path d="M254.728 148.413L204.335 139.254C204.335 139.254 199.784 140.526 198.5 149.366C198.5 149.366 197.979 154.508 199.524 155.264L251.817 164.632C252.157 159.131 253.134 153.689 254.728 148.413Z" fill="#C0DCEF"/>
<path d="M254.728 148.413L204.335 139.254C204.335 139.254 199.784 140.526 198.5 149.366C198.5 149.366 197.979 154.508 199.524 155.264L251.817 164.632C252.157 159.131 253.134 153.689 254.728 148.413Z" stroke="#216898" stroke-linecap="round" stroke-linejoin="round"/>
<path d="M254.041 153.535L201.76 144.161C200.489 143.938 199.714 146.118 199.161 149.214C198.608 152.309 198.525 155.143 199.752 155.366L252.045 164.74C253.285 164.963 254.734 162.637 255.287 159.541C255.84 156.446 255.28 153.758 254.041 153.535Z" fill="white"/>
<path d="M200.901 152.493L199.738 155.366L252.032 164.74C252.89 164.893 253.856 163.819 254.574 162.109L200.901 152.493Z" fill="#C0DCEF"/>
<path d="M201.759 144.161C201.518 144.142 201.277 144.181 201.055 144.277C200.834 144.372 200.639 144.52 200.488 144.708C201.721 144.936 202.273 147.625 201.721 150.714C201.346 152.792 200.57 154.527 199.725 155.366C200.958 155.588 202.413 153.262 202.966 150.167C203.519 147.072 202.979 144.383 201.759 144.161Z" fill="#C0DCEF"/>
<path d="M226.821 160.222C228.054 160.444 229.509 158.118 230.062 155.023C230.615 151.928 230.062 149.239 228.829 149.017L225.092 148.349C226.363 148.565 226.884 151.254 226.363 154.349C225.842 157.444 224.355 159.777 223.116 159.554L226.821 160.222Z" fill="white"/>
<path d="M229.248 149.214C229.743 150.812 229.814 152.512 229.451 154.146C228.892 157.241 227.443 159.573 226.204 159.351L224.329 159.014C224.178 159.202 223.983 159.351 223.762 159.446C223.54 159.542 223.298 159.581 223.058 159.56L226.788 160.228C228.028 160.45 229.483 158.124 230.036 155.029C230.551 152.309 230.182 149.906 229.248 149.214Z" fill="#C0DCEF"/>
<path d="M202.102 150.803C202.225 150.106 202.295 149.4 202.312 148.693L199.484 148.19C197.659 152.9 199.738 155.391 199.738 155.391C200.971 155.588 201.543 153.872 202.102 150.803Z" fill="#C0DCEF"/>
<path d="M202.98 150.167C203.109 149.471 203.18 148.765 203.19 148.057L201.112 147.682C200.356 148.793 199.865 150.063 199.676 151.394C199.385 152.704 199.406 154.065 199.739 155.366C200.972 155.588 202.427 153.262 202.98 150.167Z" fill="white"/>
<path d="M203.188 148.057L201.11 147.682C200.942 147.898 200.795 148.13 200.671 148.375C201.141 148.46 201.559 148.726 201.836 149.116C202.113 149.505 202.226 149.988 202.152 150.46C202.152 150.568 202.12 150.669 202.101 150.777C201.874 152.438 201.217 154.011 200.195 155.341C201.313 155.01 202.495 152.887 202.978 150.167C203.107 149.471 203.178 148.765 203.188 148.057Z" fill="#C0DCEF"/>
<path d="M202.98 150.167C203.109 149.471 203.18 148.765 203.19 148.057L201.112 147.682C200.356 148.793 199.865 150.063 199.676 151.394C199.385 152.704 199.406 154.065 199.739 155.366C200.972 155.588 202.427 153.262 202.98 150.167Z" stroke="#216898" stroke-linecap="round" stroke-linejoin="round"/>
<path d="M201.76 144.161C202.993 144.383 203.546 147.072 202.993 150.167C202.44 153.262 200.984 155.588 199.751 155.366C198.519 155.143 197.959 152.455 198.512 149.366" stroke="#216898" stroke-linecap="round" stroke-linejoin="round"/>
<path d="M226.998 160.234C228.192 160.234 229.54 157.965 230.061 155.022" stroke="#216898" stroke-linecap="round" stroke-linejoin="round"/>
<path d="M201.76 144.161L225.105 148.349C226.376 148.565 226.897 151.254 226.376 154.349C225.854 157.444 224.367 159.777 223.128 159.554" stroke="#216898" stroke-linecap="round" stroke-linejoin="round"/>
<path d="M250.239 152.855L228.758 149.01" stroke="#216898" stroke-linecap="round" stroke-linejoin="round"/>
<path d="M255.337 155.5C255.562 156.84 255.541 158.209 255.274 159.542C254.721 162.637 253.272 164.963 252.032 164.74L199.993 155.569" stroke="#216898" stroke-linecap="round" stroke-linejoin="round"/>
<path d="M224.513 159.815L222.409 165.09L224.316 164.658L226.147 165.757L226.007 160.082L224.513 159.815Z" fill="white"/>
<mask id="mask0_2573_32172" style="mask-type:luminance" maskUnits="userSpaceOnUse" x="222" y="159" width="5" height="7">
<path d="M224.513 159.809L222.409 165.09L224.322 164.658L226.146 165.757L226.006 160.076L224.513 159.809Z" fill="white"/>
</mask>
<g mask="url(#mask0_2573_32172)">
<path d="M226.376 159.891L226.312 160.724L224.997 160.489L225.473 164.925L224.037 164.683L222.772 165.764L220.293 163.635L222.715 158.448L226.376 159.891Z" fill="#C0DCEF"/>
</g>
<path d="M224.513 159.815L222.409 165.09L224.316 164.658L226.147 165.757L226.007 160.082L224.513 159.815Z" stroke="#216898" stroke-linecap="round" stroke-linejoin="round"/>
<path d="M43.6784 20.8313L15.18 39.79C14.9448 53.8294 34.2912 83.1794 43.3606 82.099L71.8462 63.0958C66.7173 63.2992 47.9557 41.0229 43.6784 20.8313Z" fill="white"/>
<path d="M63.5762 57.115C57.7093 50.6371 52.788 43.3621 48.9584 35.5061" stroke="#216898" stroke-linecap="round" stroke-linejoin="round"/>
<path d="M34.3102 27.0405L15.18 39.7898C14.9448 53.8293 34.2912 83.1793 43.3606 82.0988" stroke="#216898" stroke-linecap="round" stroke-linejoin="round"/>
<path d="M46.7355 41.3025L27.4336 54.1598C27.2938 53.9056 27.154 53.645 27.0205 53.3844L46.3224 40.5271C46.4558 40.7877 46.5957 41.0483 46.7355 41.3025Z" fill="#C0DCEF"/>
<path d="M47.7585 43.1203L28.4566 55.9776L28.0181 55.2213L47.3199 42.364C47.4598 42.6182 47.6123 42.8725 47.7585 43.1203Z" fill="#C0DCEF"/>
<path d="M48.857 44.8933L29.5552 57.7506C29.3963 57.5027 29.2374 57.2548 29.0848 57.007L48.3867 44.1497C48.5392 44.4039 48.6981 44.6645 48.857 44.8933Z" fill="#C0DCEF"/>
<path d="M50.0276 46.622L30.7257 59.4793L30.2236 58.7548L49.5255 45.8975L50.0276 46.622Z" fill="#C0DCEF"/>
<path d="M51.2666 48.2999L31.9648 61.189L31.4309 60.4835L50.7328 47.6262C50.9107 47.8423 51.0823 48.0648 51.2666 48.2999Z" fill="#C0DCEF"/>
<path d="M52.5693 49.9271L33.2674 62.7844L32.7081 62.1044L52.01 49.2471L52.5693 49.9271Z" fill="#C0DCEF"/>
<path d="M48.8627 54.878L34.6389 64.3669L34.0542 63.7313L48.278 54.198L48.8627 54.878Z" fill="#C0DCEF"/>
<path d="M56.8848 54.4776L37.5829 67.3349L36.9474 66.7311L56.2175 53.8738L56.8848 54.4776Z" fill="#C0DCEF"/>
<path d="M58.4468 55.8821L39.145 68.7394L38.5094 68.1547L57.8113 55.2974L58.4468 55.8821Z" fill="#C0DCEF"/>
<path d="M49.9201 63.9853L40.7744 70.0867L40.0817 69.5274L49.2337 63.4324L49.9201 63.9853Z" fill="#C0DCEF"/>
<path d="M30.6552 37.4765L32.3521 36.3453C32.4474 36.6948 32.5491 37.038 32.6508 37.3876L32.2758 37.6354C32.5872 38.6714 32.9114 39.6883 33.3118 40.6988L34.1888 40.1141C33.8139 39.1036 33.4707 38.0867 33.1529 37.0507L32.7779 37.2986L32.4728 36.2626L34.1698 35.1377C34.2651 35.4809 34.3668 35.8305 34.4685 36.1737L34.03 36.466C34.3668 37.5655 34.7354 38.6587 35.1422 39.7264C35.0087 40.1522 34.8816 40.5781 34.7545 40.9975L33.5215 41.8174L32.511 41.4869C32.1042 40.4128 31.7292 39.326 31.3988 38.2201L30.9602 38.5125C30.8522 38.1693 30.7505 37.8197 30.6552 37.4765Z" fill="#216898"/>
<path d="M35.011 41.3916C35.4686 41.8428 35.1254 42.186 35.1254 42.186C35.1254 42.186 34.725 42.1225 35.011 41.3916Z" fill="#216898"/>
<path d="M35.7779 42.4973C35.4983 41.8617 35.1424 42.1795 35.1424 42.1858C35.1424 42.1922 35.0788 42.6371 35.7779 42.4973Z" fill="#216898"/>
<path d="M35.3333 40.9849C35.8672 41.3217 35.5812 41.7158 35.5812 41.7158C35.5812 41.7158 35.1617 41.7412 35.3333 40.9849Z" fill="#216898"/>
<path d="M36.2987 41.8872C35.9111 41.3596 35.5806 41.7156 35.5806 41.7156C35.5806 41.7156 35.606 42.1541 36.2987 41.8872Z" fill="#216898"/>
<path d="M35.6007 40.5398C36.2363 40.7559 35.9694 41.1754 35.9694 41.1754C35.9694 41.1754 35.5435 41.2898 35.6007 40.5398Z" fill="#216898"/>
<path d="M36.7257 41.2072C36.2554 40.7877 35.9694 41.2072 35.9694 41.2072C35.9694 41.2072 36.0647 41.5949 36.7257 41.2072Z" fill="#216898"/>
<path d="M35.8027 40.0696C36.4383 40.1522 36.2794 40.6035 36.2794 40.6035C36.2794 40.6035 35.879 40.7878 35.8027 40.0696Z" fill="#216898"/>
<path d="M37.0615 40.4827C36.5086 40.1713 36.2798 40.6034 36.2798 40.6034C36.2798 40.6034 36.445 40.9721 37.0615 40.4827Z" fill="#216898"/>
<path d="M35.937 39.5802C36.6107 39.5357 36.509 39.9933 36.509 39.9933C36.509 39.9933 36.1086 40.2475 35.937 39.5802Z" fill="#216898"/>
<path d="M37.2843 39.7328C36.6487 39.5421 36.5089 39.9934 36.5089 39.9934C36.5089 39.9934 36.7314 40.3175 37.2843 39.7328Z" fill="#216898"/>
<path d="M35.9941 39.097C36.6805 38.919 36.6297 39.3767 36.6297 39.3767C36.6297 39.3767 36.2801 39.6944 35.9941 39.097Z" fill="#216898"/>
<path d="M37.3974 38.9764C36.7619 38.9192 36.6411 39.3768 36.6411 39.3768C36.6411 39.3768 36.9208 39.6374 37.3974 38.9764Z" fill="#216898"/>
<path d="M35.9763 38.6268C36.6564 38.328 36.6881 38.7666 36.6881 38.7602C36.6881 38.7539 36.364 39.1352 35.9763 38.6268Z" fill="#216898"/>
<path d="M37.3998 38.2393C36.7198 38.3092 36.688 38.7668 36.688 38.7604C36.688 38.7541 37.0185 38.9447 37.3998 38.2393Z" fill="#216898"/>
<path d="M35.8798 38.1884C36.5153 37.7689 36.6234 38.1884 36.6297 38.1884C36.6361 38.1884 36.3628 38.5888 35.8798 38.1884Z" fill="#216898"/>
<path d="M37.2841 37.54C36.5977 37.7371 36.6486 38.1756 36.6486 38.1756C36.6486 38.1756 37.0045 38.3091 37.2841 37.54Z" fill="#216898"/>
<path d="M36.1906 36.9556C36.7563 37.2034 36.5021 37.6293 36.5021 37.6293C36.5021 37.6293 36.0826 37.7246 36.1906 36.9556Z" fill="#216898"/>
<path d="M33.6237 42.3196C33.6237 43.0441 34.0749 42.8852 34.0749 42.8852C34.0749 42.8852 34.2656 42.4403 33.6237 42.3196Z" fill="#216898"/>
<path d="M33.9223 43.7303C33.6681 43.0947 34.0749 42.885 34.0749 42.885C34.0749 42.885 34.4054 43.0884 33.9223 43.7303Z" fill="#216898"/>
<path d="M33.1788 42.4209C33.0835 43.1772 33.5093 43.0946 33.5093 43.0946C33.5093 43.0946 33.7635 42.6751 33.1788 42.4209Z" fill="#216898"/>
<path d="M33.2221 43.9273C33.0887 43.2409 33.5081 43.0947 33.5081 43.0947C33.5081 43.0947 33.7878 43.3934 33.2221 43.9273Z" fill="#216898"/>
<path d="M32.7398 42.4465C32.5301 43.2028 32.9432 43.1965 32.9432 43.1965C32.9432 43.1965 33.2483 42.8215 32.7398 42.4465Z" fill="#216898"/>
<path d="M32.53 44.0288C32.53 43.2979 32.9431 43.2217 32.9431 43.2217C32.9431 43.2217 33.1592 43.5267 32.53 44.0288Z" fill="#216898"/>
<path d="M32.3257 42.3828C32.0015 43.1201 32.3892 43.1963 32.3892 43.1963C32.3892 43.1963 32.7388 42.8658 32.3257 42.3828Z" fill="#216898"/>
<path d="M31.8706 43.9401C31.985 43.1902 32.3918 43.1965 32.3918 43.1965C32.3918 43.1965 32.5379 43.5779 31.8706 43.9401Z" fill="#216898"/>
<path d="M31.9467 42.2368C31.5209 42.9296 31.8705 43.0821 31.8705 43.0821C31.8705 43.0821 32.2582 42.8152 31.9467 42.2368Z" fill="#216898"/>
<path d="M31.2527 43.7497C31.4878 42.9998 31.8882 43.1142 31.8882 43.1142C31.8882 43.1142 31.9454 43.5019 31.2527 43.7497Z" fill="#216898"/>
<path d="M31.6226 42.0144C31.1014 42.65 31.4065 42.866 31.4065 42.866C31.4065 42.866 31.8132 42.669 31.6226 42.0144Z" fill="#216898"/>
<path d="M30.7123 43.4318C31.0618 42.7009 31.405 42.8661 31.405 42.8661C31.405 42.8661 31.4305 43.3174 30.7123 43.4318Z" fill="#216898"/>
<path d="M31.3477 41.7092C30.7567 42.2558 30.9982 42.5545 30.9982 42.5545C30.9982 42.5545 31.4304 42.4274 31.3477 41.7092Z" fill="#216898"/>
<path d="M30.261 42.9929C30.7059 42.3128 30.9982 42.5543 30.9982 42.5543C30.9982 42.5543 30.922 43.012 30.261 42.9929Z" fill="#216898"/>
<path d="M31.1459 41.3469C30.5104 41.7918 30.682 42.1477 30.682 42.1477C30.682 42.1477 31.0887 42.1223 31.1459 41.3469Z" fill="#216898"/>
<path d="M29.9116 42.453C30.4455 41.8174 30.6806 42.1479 30.6806 42.1479C30.6806 42.1479 30.5281 42.6055 29.9116 42.453Z" fill="#216898"/>
<path d="M30.2616 40.9084C30.0391 41.6775 30.4459 41.6648 30.4459 41.6648C30.4887 41.6046 30.518 41.5359 30.532 41.4634C30.5459 41.3909 30.544 41.3162 30.5266 41.2445C30.5091 41.1728 30.4764 41.1056 30.4306 41.0476C30.3849 40.9897 30.3273 40.9422 30.2616 40.9084Z" fill="#216898"/>
<path d="M56.2942 66.1592C56.7012 65.1398 56.9726 64.0714 57.1013 62.9814C57.2321 61.8857 57.1303 60.7747 56.8026 59.721C56.8525 61.0931 57.0658 62.4543 57.4382 63.7758C57.4516 63.8916 57.4904 64.0029 57.5519 64.1018C57.6135 64.2007 57.6962 64.2847 57.7941 64.3478C57.9524 64.171 58.0503 63.9484 58.0738 63.7123C58.1489 63.3187 58.1766 62.9176 58.1564 62.5174C58.0356 63.0259 58.0102 63.7504 58.1182 63.7504C58.2894 63.6254 58.4234 63.4563 58.5059 63.261C58.6394 63.4009 58.8745 63.3119 59.0144 63.1848C59.156 63.0484 59.2553 62.874 59.3004 62.6827C59.3957 62.7526 59.4974 62.6318 59.5419 62.5238C59.6626 62.6573 59.7389 62.6128 59.8152 62.5683C59.8464 62.5424 59.8704 62.509 59.8849 62.4711C59.8994 62.4332 59.9038 62.3923 59.8978 62.3522C59.8507 61.4368 59.5707 60.5487 59.0843 59.7718C58.988 59.5832 58.8487 59.4199 58.6775 59.2952C58.6154 59.3874 58.5731 59.4915 58.5534 59.6009C58.5337 59.7103 58.537 59.8226 58.5631 59.9307C58.6863 61.0336 58.949 62.1163 59.3449 63.153C59.4086 63.3334 59.4962 63.5044 59.6054 63.6614C59.6673 63.7538 59.7633 63.8178 59.8724 63.8394C60.0376 63.8394 60.1711 63.6932 60.2474 63.5343C60.6033 62.778 60.419 61.6277 60.8829 61.3861" stroke="#216898" stroke-width="0.5" stroke-linecap="round" stroke-linejoin="round"/>
<path d="M39.6283 76.5125C40.4609 75.9596 41.9671 76.7604 42.9967 78.3048C44.0263 79.8492 44.1852 81.5461 43.359 82.1181L71.8383 63.0959C72.6709 62.543 72.4739 60.846 71.476 59.2826C70.4782 57.7191 68.9338 56.9374 68.114 57.4903L39.6283 76.5125Z" fill="#C0DCEF"/>
<path d="M54.0745 66.8835L39.6283 76.5122" stroke="#216898" stroke-linecap="round" stroke-linejoin="round"/>
<path d="M53.8208 75.1206L71.8388 63.0959C72.6714 62.543 72.4744 60.846 71.4766 59.2826C70.4787 57.7191 68.9343 56.9374 68.1145 57.4903" stroke="#216898" stroke-linecap="round" stroke-linejoin="round"/>
<path d="M43.5052 81.9973L43.3834 82.0999" stroke="#216898" stroke-linecap="round" stroke-linejoin="round"/>
<path d="M39.6283 76.5124C40.4609 75.9594 41.9671 76.7602 42.9967 78.3046C44.0263 79.849 44.1662 81.3617 43.4798 81.9972" stroke="#216898" stroke-linecap="round" stroke-linejoin="round"/>
<path d="M107.107 29.2017C106.989 28.9451 106.952 28.6587 107.001 28.3806C107.05 28.1025 107.182 27.8458 107.38 27.6446C107.058 27.6625 106.739 27.5675 106.478 27.376C106.218 27.1844 106.032 26.9082 105.953 26.5947C105.874 26.2813 105.907 25.9501 106.046 25.6581C106.184 25.3661 106.42 25.1314 106.713 24.9943L110.831 23.0876C111.126 22.9556 111.458 22.9305 111.77 23.0164C112.081 23.1024 112.353 23.2941 112.539 23.5587C112.725 23.8233 112.812 24.1443 112.787 24.4665C112.762 24.7888 112.626 25.0922 112.401 25.3248C112.723 25.3116 113.04 25.4108 113.298 25.6054C113.555 25.8 113.737 26.0779 113.812 26.3917C113.887 26.7054 113.851 27.0355 113.709 27.3255C113.568 27.6155 113.33 27.8473 113.037 27.9814L108.918 29.8881C108.586 30.0313 108.212 30.0398 107.874 29.9117C107.536 29.7836 107.261 29.5289 107.107 29.2017Z" fill="white"/>
<path d="M111.11 27.8604C109.839 28.2354 109.133 27.1613 110.246 26.3351L107.379 27.6443C107.15 27.8761 107.01 28.1807 106.983 28.5052C106.955 28.8297 107.042 29.1535 107.229 29.4203C107.416 29.6871 107.69 29.8801 108.004 29.9655C108.319 30.0509 108.653 30.0234 108.949 29.8879L113.067 27.9812C113.315 27.8704 113.525 27.6888 113.67 27.4593C113.815 27.2298 113.89 26.9626 113.883 26.6911C113.877 26.4196 113.791 26.1559 113.636 25.9332C113.481 25.7105 113.263 25.5385 113.01 25.439C113.849 26.4368 112.629 27.4092 111.11 27.8604Z" fill="#C0DCEF"/>
<path d="M111.384 6.23885C110.704 4.74744 109.66 3.45083 108.349 2.46818C107.037 1.48552 105.499 0.848323 103.876 0.615123C102.254 0.381923 100.599 0.560202 99.0632 1.13358C97.5276 1.70696 96.1608 2.65705 95.0882 3.89655C94.0156 5.13606 93.2718 6.62524 92.9249 8.22726C92.5781 9.82928 92.6395 11.4928 93.1033 13.0649C93.5672 14.637 94.4187 16.0674 95.5797 17.2245C96.7406 18.3817 98.1737 19.2285 99.7474 19.6872C100.161 19.7954 100.545 19.9925 100.875 20.2647C101.204 20.537 101.47 20.8778 101.654 21.2634L103.103 24.4412C103.214 24.6833 103.372 24.901 103.567 25.0818C103.763 25.2626 103.992 25.4028 104.242 25.4944C104.492 25.586 104.758 25.6272 105.024 25.6155C105.289 25.6038 105.551 25.5395 105.792 25.4263L111.817 22.6743C112.299 22.4457 112.672 22.0352 112.853 21.5327C113.034 21.0301 113.009 20.4763 112.783 19.9923L111.34 16.8145C111.17 16.4457 111.083 16.0446 111.083 15.6387C111.083 15.2328 111.17 14.8318 111.34 14.463C111.946 13.1783 112.265 11.7765 112.272 10.3558C112.28 8.93517 111.977 7.53002 111.384 6.23885Z" fill="white"/>
<path d="M107.157 23.6914C106.915 23.8023 106.654 23.8645 106.388 23.8743C106.123 23.8842 105.858 23.8416 105.609 23.7489C105.36 23.6562 105.131 23.5153 104.937 23.3342C104.742 23.1531 104.585 22.9354 104.475 22.6936L103.026 19.5158C102.842 19.1299 102.576 18.7889 102.247 18.5166C101.917 18.2443 101.532 18.0474 101.119 17.9396C99.6639 17.5159 98.3278 16.7585 97.2171 15.7276C96.1063 14.6966 95.2515 13.4206 94.7208 12.0012C94.19 10.5817 93.9979 9.05792 94.1598 7.55113C94.3216 6.04434 94.833 4.59614 95.6531 3.32178C94.2347 4.72038 93.2723 6.51523 92.8923 8.47067C92.5123 10.4261 92.7325 12.4508 93.524 14.2788C94.0966 15.583 94.9491 16.7454 96.0211 17.6833C97.0931 18.6213 98.3583 19.312 99.727 19.7064C100.14 19.8146 100.525 20.0117 100.854 20.2839C101.184 20.5562 101.45 20.897 101.634 21.2826L103.083 24.4604C103.195 24.7032 103.355 24.9212 103.553 25.1017C103.75 25.2821 103.982 25.4214 104.234 25.5113C104.486 25.6012 104.753 25.64 105.021 25.6255C105.288 25.6109 105.549 25.5433 105.79 25.4265L111.815 22.6745C112.135 22.5264 112.411 22.2972 112.615 22.0095C112.819 21.7218 112.944 21.3858 112.978 21.0348L107.157 23.6914Z" fill="#C0DCEF"/>
<path d="M97.9993 1.61206C95.7994 2.77058 94.1185 4.7176 93.2935 7.06303C92.4685 9.40845 92.5602 11.979 93.5504 14.2596C94.123 15.5639 94.9755 16.7262 96.0475 17.6642C97.1195 18.6022 98.3847 19.2929 99.7534 19.6873C100.167 19.7955 100.552 19.9926 100.881 20.2648C101.21 20.537 101.476 20.8778 101.66 21.2635L103.109 24.4413" stroke="#216898" stroke-linecap="round" stroke-linejoin="round"/>
<path d="M112.635 21.9434C112.822 21.6569 112.934 21.3278 112.959 20.9866C112.985 20.6455 112.924 20.3034 112.781 19.9923L111.339 16.8145C111.169 16.4457 111.081 16.0446 111.081 15.6387C111.081 15.2328 111.169 14.8317 111.339 14.4629C111.954 13.1745 112.279 11.7666 112.29 10.3389C112.301 8.91112 111.998 7.49839 111.402 6.20068" stroke="#216898" stroke-linecap="round" stroke-linejoin="round"/>
<path d="M107.596 24.5874L106.713 24.9942C106.42 25.1312 106.184 25.3659 106.046 25.6579C105.907 25.9499 105.874 26.2811 105.953 26.5946C106.032 26.908 106.218 27.1842 106.478 27.3758C106.739 27.5674 107.058 27.6623 107.38 27.6444L110.094 26.3733C107.787 27.4601 106.923 25.4454 107.596 24.5874Z" fill="#C0DCEF"/>
<path d="M107.107 29.2016C107.261 29.5368 107.541 29.7973 107.887 29.926C108.232 30.0547 108.615 30.041 108.95 29.888L113.069 27.9813C113.362 27.8472 113.6 27.6153 113.741 27.3253C113.883 27.0354 113.919 26.7053 113.844 26.3915C113.769 26.0778 113.587 25.7998 113.33 25.6052C113.073 25.4106 112.756 25.3114 112.433 25.3247" stroke="#216898" stroke-linecap="round" stroke-linejoin="round"/>
<path d="M112.674 23.7994C112.599 23.6329 112.491 23.4829 112.358 23.3581C112.224 23.2334 112.067 23.1363 111.896 23.0725C111.724 23.0087 111.542 22.9794 111.36 22.9864C111.177 22.9933 110.997 23.0364 110.831 23.113L106.713 25.0197C106.42 25.1568 106.184 25.3914 106.046 25.6835C105.907 25.9755 105.874 26.3066 105.953 26.6201C106.032 26.9336 106.218 27.2098 106.478 27.4013C106.739 27.5929 107.058 27.6879 107.38 27.67" stroke="#216898" stroke-linecap="round" stroke-linejoin="round"/>
<path d="M112.616 29.8434L110.633 30.7522C110.514 30.8053 110.383 30.8244 110.254 30.8076C110.125 30.7908 110.003 30.7386 109.902 30.6569L108.949 29.8879L113.067 27.9812L113.029 29.2015C113.028 29.3367 112.989 29.4688 112.916 29.5825C112.842 29.6962 112.738 29.7867 112.616 29.8434Z" fill="#C0DCEF"/>
<path d="M112.616 29.8434L110.633 30.7522C110.514 30.8053 110.383 30.8244 110.254 30.8076C110.125 30.7908 110.003 30.7386 109.902 30.6569L108.949 29.8879L113.067 27.9812L113.029 29.2015C113.028 29.3367 112.989 29.4688 112.916 29.5825C112.842 29.6962 112.738 29.7867 112.616 29.8434Z" stroke="#216898" stroke-linecap="round" stroke-linejoin="round"/>
<path d="M109.014 26.9009L110.762 26.1001" stroke="#216898" stroke-linecap="round" stroke-linejoin="round"/>
<path d="M107.437 23.1317L106.846 21.8352" stroke="#216898" stroke-linecap="round" stroke-linejoin="round"/>
<path d="M106.172 20.3483L104.812 17.3802C104.701 17.1438 104.522 16.9457 104.298 16.8109C104.074 16.6761 103.815 16.6107 103.554 16.6229C103.293 16.6351 103.042 16.7245 102.831 16.8796C102.621 17.0347 102.461 17.2487 102.373 17.4945C102.284 17.7403 102.27 18.0069 102.333 18.2606C102.396 18.5143 102.532 18.7437 102.725 18.9199C102.918 19.096 103.159 19.211 103.417 19.2503C103.676 19.2896 103.94 19.2515 104.177 19.1407L108.073 17.3357C108.311 17.2248 108.511 17.0454 108.648 16.8205C108.784 16.5956 108.851 16.3352 108.839 16.0723C108.828 15.8094 108.738 15.5559 108.582 15.344C108.426 15.1321 108.211 14.9712 107.963 14.8819C107.716 14.7926 107.447 14.7787 107.192 14.8422C106.937 14.9056 106.706 15.0435 106.529 15.2382C106.352 15.433 106.237 15.676 106.198 15.9362C106.16 16.1965 106.199 16.4624 106.312 16.7002L109.522 23.6913" stroke="#216898" stroke-linecap="round" stroke-linejoin="round"/>
<path d="M217.058 49.959L180.087 48.3892L146.25 33.4091L146.555 32.1125L183.22 34.9853L217.363 48.6624L217.058 49.959Z" fill="#C0DCEF"/>
<path d="M197.431 49.1134L196.16 54.5983C196.16 54.5983 191.075 56.9181 178.777 54.0453C166.479 51.1726 162.952 46.8318 162.952 46.8318L164.223 41.3533L197.431 49.1134Z" fill="#C0DCEF"/>
<path d="M217.363 48.6625L180.393 47.0863L146.556 32.1125L183.526 33.6824L217.363 48.6625Z" fill="#FDFDFD"/>
<mask id="mask1_2573_32172" style="mask-type:luminance" maskUnits="userSpaceOnUse" x="146" y="32" width="72" height="17">
<path d="M217.362 48.6556L180.391 47.0858L146.554 32.1057L183.525 33.6819L217.362 48.6556Z" fill="white"/>
</mask>
<g mask="url(#mask1_2573_32172)">
<path d="M183.525 33.6821C182.013 33.8026 180.577 34.3913 179.415 35.3663C178.253 36.3414 177.424 37.6543 177.043 39.1225C176.662 40.5907 176.748 42.1411 177.289 43.5581C177.83 44.9752 178.799 46.1883 180.062 47.0288L187.199 51.8336C187.199 51.8336 140.498 35.8557 140.575 35.5443C140.651 35.2329 143.422 22.884 143.422 22.884C143.422 22.884 187.275 27.9685 187.555 27.6952C187.835 27.4219 183.525 33.6821 183.525 33.6821Z" fill="#C0DCEF"/>
</g>
<path d="M178.493 46.2469L162.916 39.3511" stroke="#216898" stroke-linecap="round" stroke-linejoin="round"/>
<path d="M207.156 44.1433L217.364 48.6621L182.465 47.1749" stroke="#216898" stroke-linecap="round" stroke-linejoin="round"/>
<path d="M166.411 32.9578L183.527 33.6823L202.003 41.8619" stroke="#216898" stroke-linecap="round" stroke-linejoin="round"/>
<path d="M160.284 38.1821L146.556 32.1125L164.332 32.8689" stroke="#216898" stroke-linecap="round" stroke-linejoin="round"/>
<path d="M163.252 45.491L164.218 41.3663L147.726 34.0764" stroke="#216898" stroke-linecap="round" stroke-linejoin="round"/>
<path d="M197 50.963L196.148 54.6047C196.148 54.6047 191.064 56.9245 178.766 54.0518C170.001 51.9989 165.692 49.2152 163.938 47.7788" stroke="#216898" stroke-linecap="round" stroke-linejoin="round"/>
<path d="M181.962 40.3809L199.459 47.283C200.057 47.5141 200.586 47.896 200.993 48.3915C201.401 48.887 201.674 49.4794 201.785 50.1112C202.135 52.1175 201.982 54.1791 201.341 56.112C200.7 58.045 199.591 59.7892 198.111 61.189" stroke="#216898" stroke-linecap="round" stroke-linejoin="round"/>
<path d="M198.709 61.7673C198.833 61.9871 198.876 62.2432 198.832 62.4915C198.787 62.7398 198.658 62.9649 198.465 63.1283C198.273 63.2916 198.03 63.3829 197.778 63.3866C197.526 63.3903 197.28 63.3062 197.083 63.1486C196.886 62.991 196.75 62.7698 196.698 62.5229C196.646 62.276 196.682 62.0188 196.799 61.7953C196.916 61.5719 197.108 61.3962 197.34 61.2983C197.573 61.2004 197.832 61.1864 198.074 61.2588" fill="#FDFDFD"/>
<path d="M198.709 61.7673C198.833 61.9871 198.876 62.2432 198.832 62.4915C198.787 62.7398 198.658 62.9649 198.465 63.1283C198.273 63.2916 198.03 63.3829 197.778 63.3866C197.526 63.3903 197.28 63.3062 197.083 63.1486C196.886 62.991 196.75 62.7698 196.698 62.5229C196.646 62.276 196.682 62.0188 196.799 61.7953C196.916 61.5719 197.108 61.3962 197.34 61.2983C197.573 61.2004 197.832 61.1864 198.074 61.2588" stroke="#216898" stroke-linecap="round" stroke-linejoin="round"/>
<path d="M203.615 69.1524L200.634 70.8366L197.653 65.5742C197.428 65.1806 197.369 64.7138 197.488 64.2764C197.607 63.8389 197.895 63.4668 198.289 63.2417C198.682 63.0167 199.149 62.9573 199.586 63.0765C200.024 63.1957 200.396 63.4837 200.621 63.8773L203.615 69.1524Z" fill="#FDFDFD"/>
<path d="M203.615 69.1524L200.634 70.8366L197.653 65.5742C197.428 65.1806 197.369 64.7138 197.488 64.2764C197.607 63.8389 197.895 63.4668 198.289 63.2417C198.682 63.0167 199.149 62.9573 199.586 63.0765C200.024 63.1957 200.396 63.4837 200.621 63.8773L203.615 69.1524Z" stroke="#216898" stroke-linecap="round" stroke-linejoin="round"/>
<path d="M199.058 65.7461L201.582 70.2458" stroke="#216898" stroke-linecap="round" stroke-linejoin="round"/>
<path d="M200.044 65.1169L202.612 69.6103" stroke="#216898" stroke-linecap="round" stroke-linejoin="round"/>
<path d="M193.167 106.504L201.759 108.271L242.34 105.475C242.572 105.446 242.797 105.372 243.002 105.257C243.206 105.142 243.386 104.987 243.53 104.802C243.675 104.618 243.782 104.406 243.844 104.18C243.907 103.954 243.925 103.718 243.897 103.485L243.833 102.545C243.821 102.071 243.623 101.621 243.282 101.292C242.94 100.964 242.483 100.784 242.009 100.79L201.429 103.587L193.167 106.504Z" fill="white"/>
<mask id="mask2_2573_32172" style="mask-type:luminance" maskUnits="userSpaceOnUse" x="193" y="100" width="51" height="9">
<path d="M193.168 106.504L201.76 108.271L242.341 105.475C242.574 105.446 242.799 105.372 243.003 105.257C243.207 105.142 243.387 104.987 243.531 104.802C243.676 104.618 243.783 104.406 243.846 104.18C243.909 103.954 243.926 103.718 243.898 103.485L243.834 102.545C243.823 102.071 243.624 101.621 243.283 101.292C242.941 100.964 242.484 100.784 242.01 100.79L201.43 103.587L193.168 106.504Z" fill="white"/>
</mask>
<g mask="url(#mask2_2573_32172)">
<path d="M245.937 102.939L202.293 105.951C202.293 105.951 202.63 107.496 201.772 108.068V108.271L245.664 105.246L245.937 102.939Z" fill="#C0DCEF"/>
<path d="M239.984 107.356L239.425 99.3923C239.425 99.3923 243.81 98.3818 243.874 99.0809C243.937 99.78 245.78 107.661 245.78 107.661L239.984 107.356Z" fill="#C0DCEF"/>
</g>
<path d="M236.886 101.146L201.454 103.593L193.167 106.504L201.785 108.277L220.311 107" stroke="#216898" stroke-linecap="round" stroke-linejoin="round"/>
<path d="M239.5 100.962L242.042 100.79C242.516 100.784 242.973 100.964 243.315 101.292C243.656 101.621 243.855 102.071 243.866 102.545L243.93 103.485C243.958 103.718 243.941 103.954 243.878 104.18C243.815 104.406 243.708 104.618 243.563 104.802C243.419 104.987 243.239 105.142 243.035 105.257C242.831 105.372 242.606 105.446 242.373 105.475L239.83 105.652L239.633 102.837" stroke="#216898" stroke-linecap="round" stroke-linejoin="round"/>
<path d="M55.0413 143.811L51.2279 139.363L11.4167 121.281C10.9496 121.094 10.4276 121.1 9.96457 121.296C9.50149 121.493 9.13479 121.864 8.94435 122.33L8.55031 123.232C8.32814 123.681 8.29159 124.199 8.44858 124.675C8.60557 125.151 8.94347 125.546 9.38924 125.774L49.1814 143.811H55.0413Z" fill="white"/>
<mask id="mask3_2573_32172" style="mask-type:luminance" maskUnits="userSpaceOnUse" x="8" y="121" width="48" height="23">
<path d="M55.0432 143.811L51.2299 139.362L11.4186 121.281C10.9515 121.094 10.4296 121.099 9.96652 121.296C9.50344 121.492 9.13674 121.864 8.94631 122.329L8.55226 123.232C8.33009 123.681 8.29355 124.199 8.45054 124.675C8.60752 125.151 8.94543 125.545 9.3912 125.774L49.1834 143.811H55.0432Z" fill="white"/>
</mask>
<g mask="url(#mask3_2573_32172)">
<path d="M6.76489 121.814L55.0354 143.798L51.2157 139.324L8.16947 119.812L6.76489 121.814Z" fill="#C0DCEF"/>
<path d="M12.1817 119.66L8.71789 127.287C8.71789 127.287 4.05926 126.016 4.36433 125.31C4.6694 124.605 6.90656 116.412 6.90656 116.412L12.1817 119.66Z" fill="#C0DCEF"/>
</g>
<path d="M11.0369 126.537L49.183 143.831L55.0365 143.799L51.2168 139.324L16.1976 123.448" stroke="#216898" stroke-linecap="round" stroke-linejoin="round"/>
<path d="M9.37691 125.787C8.93114 125.558 8.59324 125.164 8.43625 124.688C8.27927 124.212 8.31581 123.694 8.53798 123.245L8.94473 122.342C9.13517 121.877 9.50187 121.505 9.96495 121.309C10.428 121.112 10.95 121.107 11.4171 121.294L10.1968 123.995" stroke="#216898" stroke-linecap="round" stroke-linejoin="round"/>
<path d="M12.4829 123.248L11.6676 125.049L24.1098 130.682L24.925 128.882L12.4829 123.248Z" stroke="#216898" stroke-linecap="round" stroke-linejoin="round"/>
<path d="M50.7901 140.157L49.5825 142.833" stroke="#216898" stroke-linecap="round" stroke-linejoin="round"/>
<path d="M20.435 151.677L7.14218 159.639C6.85297 159.812 6.50679 159.864 6.1798 159.782C5.85281 159.7 5.57179 159.491 5.39856 159.202L1.15308 152.114C0.979857 151.825 0.928614 151.478 1.01063 151.151C1.09264 150.824 1.30119 150.543 1.5904 150.37L14.8832 142.408C15.7509 141.889 16.7894 141.735 17.7704 141.981C18.7514 142.227 19.5944 142.853 20.1141 143.72L21.747 146.446C22.2666 147.314 22.4204 148.353 22.1743 149.334C21.9283 150.314 21.3026 151.158 20.435 151.677Z" fill="white"/>
<mask id="mask4_2573_32172" style="mask-type:luminance" maskUnits="userSpaceOnUse" x="0" y="141" width="23" height="19">
<path d="M20.4398 151.671L7.14694 159.633C6.85773 159.806 6.51155 159.857 6.18456 159.775C5.85757 159.693 5.57655 159.485 5.40332 159.195L1.15784 152.107C0.984617 151.818 0.933374 151.472 1.01539 151.145C1.0974 150.818 1.30595 150.537 1.59516 150.364L14.888 142.402C15.7556 141.882 16.7942 141.728 17.7751 141.975C18.7561 142.221 19.5992 142.846 20.1189 143.714L21.7517 146.44C22.2714 147.308 22.4251 148.346 22.1791 149.327C21.9331 150.308 21.3074 151.151 20.4398 151.671Z" fill="white"/>
</mask>
<g mask="url(#mask4_2573_32172)">
<path d="M22.3659 153.98L14.4342 140.754L-1.62 150.383C-1.62 150.383 7.1634 164.067 6.73122 164.327C6.29904 164.588 22.3659 153.98 22.3659 153.98Z" fill="#C0DCEF"/>
</g>
<path d="M20.0992 143.703L21.7453 146.449C22.2651 147.316 22.4192 148.355 22.1737 149.335C21.9282 150.316 21.3031 151.16 20.436 151.68L7.14017 159.643C6.851 159.816 6.50525 159.866 6.17877 159.784C5.85229 159.702 5.57176 159.494 5.39875 159.205L1.14051 152.074C1.05387 151.931 0.996313 151.772 0.971142 151.607C0.94597 151.441 0.953681 151.273 0.99383 151.11C1.03398 150.948 1.10578 150.795 1.20511 150.66C1.30444 150.526 1.42936 150.412 1.57269 150.326L14.8685 142.362C15.6476 141.91 16.5617 141.748 17.4489 141.905" stroke="#216898" stroke-linecap="round" stroke-linejoin="round"/>
<path d="M8.5685 160.056L19.3042 153.626C19.9064 153.265 20.1022 152.484 19.7415 151.882L14.3693 142.913C14.0086 142.311 13.228 142.115 12.6257 142.475L1.89004 148.906C1.28779 149.266 1.09199 150.047 1.45272 150.649L6.82488 159.619C7.18561 160.221 7.96625 160.417 8.5685 160.056Z" fill="white"/>
<mask id="mask5_2573_32172" style="mask-type:luminance" maskUnits="userSpaceOnUse" x="1" y="142" width="19" height="19">
<path d="M8.56923 160.049L19.3049 153.619C19.9072 153.258 20.103 152.478 19.7422 151.876L14.3701 142.906C14.0093 142.304 13.2287 142.108 12.6265 142.469L1.89077 148.899C1.28852 149.26 1.09273 150.041 1.45345 150.643L6.82561 159.612C7.18634 160.214 7.96699 160.41 8.56923 160.049Z" fill="white"/>
</mask>
<g mask="url(#mask5_2573_32172)">
<path d="M13.7319 161.067C10.2617 155.283 10.1537 148.178 13.4395 142.75L15.5432 139.236L-5.02979 151.572L4.24935 167.06L13.7319 161.067Z" fill="#C0DCEF"/>
</g>
<path d="M14.2716 142.769L14.3669 142.909L19.7374 151.883C19.9098 152.172 19.9605 152.518 19.8783 152.844C19.796 153.171 19.5877 153.451 19.2989 153.624L11.7294 158.175" stroke="#216898" stroke-linecap="round" stroke-linejoin="round"/>
<path d="M11.2594 143.29L12.6195 142.477C12.8828 142.318 13.1947 142.261 13.4974 142.314C13.8 142.368 14.0729 142.53 14.2656 142.769" stroke="#216898" stroke-linecap="round" stroke-linejoin="round"/>
<path d="M8.8248 159.897L8.55787 160.056C8.26947 160.229 7.92428 160.281 7.59789 160.2C7.27149 160.119 6.9905 159.912 6.81644 159.624L1.43963 150.65C1.35226 150.506 1.29428 150.347 1.26904 150.181C1.2438 150.014 1.2518 149.845 1.29259 149.681C1.33338 149.518 1.40614 149.365 1.50666 149.23C1.60717 149.095 1.73345 148.982 1.87816 148.896" stroke="#216898" stroke-linecap="round" stroke-linejoin="round"/>
</svg>
