<svg width="9" height="10" viewBox="0 0 9 10" fill="none" xmlns="http://www.w3.org/2000/svg">
<path d="M4.9498 0.5C4.9498 0.223858 4.72595 0 4.4498 0C4.17366 2.98023e-08 3.9498 0.223858 3.9498 0.5L4.9498 0.5ZM4.44981 9.32L4.09625 9.67355C4.29151 9.86882 4.6081 9.86882 4.80336 9.67355L4.44981 9.32ZM7.95336 6.52355C8.14862 6.32829 8.14862 6.01171 7.95336 5.81645C7.7581 5.62118 7.44151 5.62118 7.24625 5.81645L7.95336 6.52355ZM1.65336 5.81645C1.4581 5.62118 1.14151 5.62118 0.946251 5.81645C0.750989 6.01171 0.750989 6.32829 0.946251 6.52355L1.65336 5.81645ZM3.9498 0.5L3.94981 9.32H4.94981L4.9498 0.5L3.9498 0.5ZM7.24625 5.81645L4.09625 8.96645L4.80336 9.67355L7.95336 6.52355L7.24625 5.81645ZM4.80336 8.96645L1.65336 5.81645L0.946251 6.52355L4.09625 9.67355L4.80336 8.96645Z" fill="#031E80"/>
</svg>
