<svg width="14" height="13" viewBox="0 0 14 13" fill="none" xmlns="http://www.w3.org/2000/svg">
<path d="M6.8064 3.61835L6.11641 3.91231C6.23423 4.18886 6.50579 4.36835 6.8064 4.36835C7.107 4.36835 7.37857 4.18886 7.49639 3.91231L6.8064 3.61835ZM6.8064 12.1554L6.44217 12.811C6.66868 12.9369 6.94411 12.9369 7.17063 12.811L6.8064 12.1554ZM1.5564 4.82208C1.5564 3.97211 1.80174 3.3798 2.13033 2.98918C2.46108 2.596 2.9145 2.36082 3.41337 2.28893C4.41818 2.14414 5.58619 2.66778 6.11641 3.91231L7.49639 3.32439C6.69327 1.43929 4.86128 0.564793 3.19943 0.804265C2.36496 0.924511 1.56838 1.32706 0.982459 2.02358C0.394384 2.72267 0.0563965 3.67204 0.0563965 4.82208H1.5564ZM7.49639 3.91231C8.0266 2.66778 9.19461 2.14414 10.1994 2.28893C10.6983 2.36082 11.1517 2.596 11.4825 2.98918C11.8111 3.3798 12.0564 3.97211 12.0564 4.82208H13.5564C13.5564 3.67204 13.2184 2.72267 12.6303 2.02358C12.0444 1.32706 11.2478 0.924511 10.4134 0.804265C8.75152 0.564793 6.91952 1.43929 6.11641 3.32439L7.49639 3.91231ZM12.0564 4.82208C12.0564 6.47199 10.7901 8.11085 9.30813 9.42818C8.59117 10.0655 7.87073 10.5861 7.32787 10.948C7.05718 11.1285 6.83247 11.2683 6.67684 11.3621C6.59907 11.409 6.53868 11.4444 6.49857 11.4676C6.47852 11.4792 6.46355 11.4877 6.45403 11.4931C6.44927 11.4958 6.44587 11.4977 6.44387 11.4988C6.44288 11.4994 6.44223 11.4997 6.44195 11.4999C6.4418 11.5 6.44175 11.5 6.44179 11.5C6.44181 11.5 6.4419 11.4999 6.44191 11.4999C6.44203 11.4999 6.44217 11.4998 6.8064 12.1554C7.17063 12.811 7.17081 12.8109 7.17102 12.8108C7.17112 12.8107 7.17135 12.8106 7.17155 12.8105C7.17196 12.8103 7.17245 12.81 7.17303 12.8097C7.1742 12.809 7.17573 12.8082 7.17762 12.8071C7.18139 12.805 7.1866 12.8021 7.19319 12.7983C7.20637 12.7909 7.22509 12.7802 7.24898 12.7664C7.29677 12.7388 7.36528 12.6986 7.45158 12.6466C7.62407 12.5425 7.86811 12.3906 8.15992 12.1961C8.74207 11.808 9.52162 11.2453 10.3047 10.5493C11.8227 9.19998 13.5564 7.17219 13.5564 4.82208H12.0564ZM6.8064 12.1554C7.17063 11.4998 7.17077 11.4999 7.17088 11.4999C7.17089 11.4999 7.17099 11.5 7.17101 11.5C7.17104 11.5 7.17099 11.5 7.17085 11.4999C7.17056 11.4997 7.16992 11.4994 7.16892 11.4988C7.16693 11.4977 7.16353 11.4958 7.15876 11.4931C7.14924 11.4877 7.13427 11.4792 7.11422 11.4676C7.07411 11.4444 7.01372 11.409 6.93595 11.3621C6.78032 11.2683 6.55561 11.1285 6.28492 10.948C5.74207 10.5861 5.02162 10.0655 4.30467 9.42818C2.82266 8.11085 1.5564 6.47199 1.5564 4.82208H0.0563965C0.0563965 7.17219 1.79013 9.19998 3.30813 10.5493C4.09117 11.2453 4.87073 11.808 5.45287 12.1961C5.74468 12.3906 5.98872 12.5425 6.16122 12.6466C6.24751 12.6986 6.31603 12.7388 6.36381 12.7664C6.3877 12.7802 6.40643 12.7909 6.41961 12.7983C6.4262 12.8021 6.4314 12.805 6.43518 12.8071C6.43706 12.8082 6.43859 12.809 6.43976 12.8097C6.44035 12.81 6.44084 12.8103 6.44124 12.8105C6.44144 12.8106 6.44167 12.8107 6.44177 12.8108C6.44198 12.8109 6.44217 12.811 6.8064 12.1554Z" fill="#031E80"/>
</svg>
