<svg width="20" height="20" viewBox="0 0 20 20" fill="none" xmlns="http://www.w3.org/2000/svg">
<path d="M4.99967 9.16668V5.16668C4.99967 4.23326 4.99967 3.76655 5.18133 3.41003C5.34112 3.09643 5.5959 2.84144 5.90951 2.68166C6.26602 2.5 6.73308 2.5 7.6665 2.5H11.3953C11.8029 2.5 12.0068 2.5 12.1986 2.54605C12.3687 2.58688 12.5312 2.65423 12.6803 2.74562C12.8485 2.84869 12.9927 2.99279 13.2809 3.28105L15.8855 5.88561C16.1737 6.17387 16.3175 6.318 16.4205 6.48619C16.5119 6.63531 16.5791 6.79787 16.62 6.96793C16.666 7.15974 16.6663 7.3636 16.6663 7.77125V14.8333C16.6663 15.7668 16.6665 16.2335 16.4849 16.59C16.3251 16.9036 16.0698 17.1585 15.7562 17.3183C15.3996 17.5 14.9331 17.5 13.9997 17.5H10.833M7.49967 11.6667L9.16634 13.3333M16.6665 7.5H14.3332C13.3998 7.5 12.9327 7.49997 12.5762 7.31832C12.2626 7.15853 12.0078 6.90358 11.848 6.58997C11.6663 6.23345 11.6663 5.76675 11.6663 4.83333V2.5M3.33301 17.5V15.4167L9.58301 9.16667L11.6663 11.25L5.41634 17.5H3.33301Z" stroke="#7F7F7F" stroke-width="1.5" stroke-linecap="round" stroke-linejoin="round"/>
</svg>
