<svg width="22" height="15" viewBox="0 0 22 15" fill="none" xmlns="http://www.w3.org/2000/svg">
<path d="M21.7878 3.2366C21.7878 3.2366 21.5795 1.76618 20.9381 1.12052C20.1258 0.270758 19.2177 0.266592 18.8012 0.216606C15.8186 -1.19176e-07 11.3407 0 11.3407 0H11.3324C11.3324 0 6.85447 -1.19176e-07 3.87196 0.216606C3.45541 0.266592 2.54733 0.270758 1.73506 1.12052C1.09357 1.76618 0.889458 3.2366 0.889458 3.2366C0.889458 3.2366 0.672852 4.96529 0.672852 6.68981V8.30603C0.672852 10.0305 0.885293 11.7592 0.885293 11.7592C0.885293 11.7592 1.09357 13.2297 1.73089 13.8753C2.54317 14.7251 3.60954 14.6959 4.0844 14.7876C5.79226 14.95 11.3366 15 11.3366 15C11.3366 15 15.8186 14.9917 18.8012 14.7792C19.2177 14.7292 20.1258 14.7251 20.9381 13.8753C21.5795 13.2297 21.7878 11.7592 21.7878 11.7592C21.7878 11.7592 22.0003 10.0347 22.0003 8.30603V6.68981C22.0003 4.96529 21.7878 3.2366 21.7878 3.2366ZM9.133 10.268V4.27381L14.8939 7.28131L9.133 10.268Z" fill="#383434"/>
</svg>
