<svg width="263" height="162" viewBox="0 0 263 162" fill="none" xmlns="http://www.w3.org/2000/svg">
<path d="M155 154L155 155L155 154ZM262.707 154.707C263.098 154.317 263.098 153.683 262.707 153.293L256.343 146.929C255.953 146.538 255.319 146.538 254.929 146.929C254.538 147.319 254.538 147.953 254.929 148.343L260.586 154L254.929 159.657C254.538 160.047 254.538 160.681 254.929 161.071C255.319 161.462 255.953 161.462 256.343 161.071L262.707 154.707ZM155 155L262 155L262 153L155 153L155 155ZM0 1.32478e-06C0.000113394 85.6042 69.396 155 155 155L155 153C70.5006 153 2.00011 84.4996 2 -1.32478e-06L0 1.32478e-06Z" fill="black"/>
</svg>
