<svg width="174" height="109" viewBox="0 0 174 109" fill="none" xmlns="http://www.w3.org/2000/svg">
<path d="M71.9999 101L71.9999 102L71.9999 101ZM0.292886 101.707C-0.0976321 101.317 -0.0976322 100.683 0.292886 100.293L6.65685 93.9289C7.04737 93.5384 7.68053 93.5384 8.07107 93.9289C8.46159 94.3194 8.46159 94.9526 8.07107 95.3431L2.41421 101L8.07105 106.657C8.46159 107.047 8.46159 107.681 8.07105 108.071C7.68054 108.462 7.04737 108.462 6.65685 108.071L0.292886 101.707ZM71.9999 102L0.999994 102L0.999993 100L71.9999 100L71.9999 102ZM174 1.33158e-06C174 56.3331 128.333 102 71.9999 102L71.9999 100C127.228 100 172 55.2285 172 -1.33158e-06L174 1.33158e-06Z" fill="black"/>
</svg>
