<svg width="16" height="16" viewBox="0 0 16 16" fill="none" xmlns="http://www.w3.org/2000/svg">
<path d="M12.3536 7.35355C12.5488 7.15829 12.5488 6.84171 12.3536 6.64645C12.1583 6.45118 11.8417 6.45118 11.6464 6.64645L12.3536 7.35355ZM8 11L7.64645 11.3536C7.74022 11.4473 7.86739 11.5 8 11.5C8.13261 11.5 8.25979 11.4473 8.35355 11.3536L8 11ZM4.35355 6.64645C4.15829 6.45118 3.84171 6.45118 3.64645 6.64645C3.45118 6.84171 3.45118 7.15829 3.64645 7.35355L4.35355 6.64645ZM11.6464 6.64645L7.64645 10.6464L8.35355 11.3536L12.3536 7.35355L11.6464 6.64645ZM8.35355 10.6464L4.35355 6.64645L3.64645 7.35355L7.64645 11.3536L8.35355 10.6464Z" fill="black"/>
</svg>
