<svg width="20" height="20" viewBox="0 0 20 20" fill="none" xmlns="http://www.w3.org/2000/svg">
<path d="M3.6784 12.1548L3.32484 11.8013H3.32484L3.6784 12.1548ZM4.00298 11.8302L4.35654 12.1838L4.35654 12.1838L4.00298 11.8302ZM15.9969 11.8302L16.3505 11.4767L15.9969 11.8302ZM16.3215 12.1549L15.968 12.5084H15.968L16.3215 12.1549ZM16.6231 13.5997L17.0969 13.7595L16.6231 13.5997ZM16.0998 14.1229L16.2596 14.5967L16.0998 14.1229ZM16.5104 12.3592L16.9165 12.0675L16.5104 12.3592ZM16.6557 12.7103L16.1623 12.7912L16.6557 12.7103ZM10 2.5L10 2L10 2.5ZM3.34434 12.7103L2.85094 12.6293L3.34434 12.7103ZM3.48959 12.3592L3.89574 12.6508L3.48959 12.3592ZM3.37705 13.5997L3.85083 13.4399L3.37705 13.5997ZM3.90016 14.1229L4.05996 13.6492L3.90016 14.1229ZM12.5 14.1667H13C13 13.8905 12.7762 13.6667 12.5 13.6667V14.1667ZM7.50001 14.1667V13.6667C7.22387 13.6667 7.00001 13.8905 7.00001 14.1667H7.50001ZM4.03195 12.5084L4.35654 12.1838L3.64943 11.4767L3.32484 11.8013L4.03195 12.5084ZM4.66668 11.4354V8.33333H3.66668V11.4354H4.66668ZM15.3333 8.33333V11.4353H16.3333V8.33333H15.3333ZM15.6434 12.1838L15.968 12.5084L16.6751 11.8013L16.3505 11.4767L15.6434 12.1838ZM15.488 13.6667H4.51173V14.6667H15.488V13.6667ZM16.1669 12.9882C16.1669 13.3498 16.1602 13.4077 16.1494 13.4399L17.0969 13.7595C17.1735 13.5326 17.1669 13.2691 17.1669 12.9882H16.1669ZM15.488 14.6667C15.769 14.6667 16.0327 14.6732 16.2596 14.5967L15.94 13.6492C15.9078 13.66 15.8497 13.6667 15.488 13.6667V14.6667ZM16.1494 13.4399C16.1161 13.5384 16.0387 13.6159 15.94 13.6492L16.2596 14.5967C16.654 14.4637 16.9638 14.1541 17.0969 13.7595L16.1494 13.4399ZM15.968 12.5084C16.0793 12.6197 16.094 12.6365 16.1042 12.6508L16.9165 12.0675C16.8475 11.9715 16.7626 11.8888 16.6751 11.8013L15.968 12.5084ZM17.1669 12.9882C17.1669 12.8629 17.1682 12.7457 17.1491 12.6293L16.1623 12.7912C16.1652 12.8089 16.1669 12.8323 16.1669 12.9882H17.1669ZM16.1042 12.6508C16.134 12.6923 16.1539 12.7403 16.1623 12.7912L17.1491 12.6293C17.1159 12.4269 17.0365 12.2346 16.9165 12.0675L16.1042 12.6508ZM15.3333 11.4353C15.3333 11.7161 15.4449 11.9853 15.6434 12.1838L16.3505 11.4767C16.3395 11.4657 16.3333 11.4508 16.3333 11.4353H15.3333ZM10 3C12.9455 2.99999 15.3333 5.38781 15.3333 8.33333H16.3333C16.3333 4.83553 13.4978 1.99999 10 2L10 3ZM4.66668 8.33333C4.66668 5.38782 7.0545 3.00001 10 3L10 2C6.50221 2.00001 3.66668 4.83554 3.66668 8.33333H4.66668ZM4.35654 12.1838C4.55482 11.9855 4.66668 11.7164 4.66668 11.4354H3.66668C3.66668 11.4506 3.6606 11.4655 3.64943 11.4767L4.35654 12.1838ZM3.83334 12.9882C3.83334 12.8313 3.83488 12.8087 3.83774 12.7912L2.85094 12.6293C2.83181 12.7459 2.83334 12.8639 2.83334 12.9882H3.83334ZM3.32484 11.8013C3.23705 11.8891 3.15239 11.9715 3.08345 12.0675L3.89574 12.6508C3.90603 12.6364 3.9209 12.6194 4.03195 12.5084L3.32484 11.8013ZM3.83774 12.7912C3.84613 12.7401 3.86606 12.6921 3.89574 12.6508L3.08345 12.0675C2.96339 12.2347 2.88413 12.4271 2.85094 12.6293L3.83774 12.7912ZM2.83334 12.9882C2.83334 13.2691 2.82673 13.5326 2.90328 13.7595L3.85083 13.4399C3.83995 13.4077 3.83334 13.3499 3.83334 12.9882H2.83334ZM4.51173 13.6667C4.15015 13.6667 4.09222 13.66 4.05996 13.6492L3.74035 14.5967C3.96727 14.6732 4.23073 14.6667 4.51173 14.6667V13.6667ZM2.90328 13.7595C3.0363 14.1539 3.34574 14.4636 3.74035 14.5967L4.05996 13.6492C3.96146 13.6159 3.88413 13.5386 3.85083 13.4399L2.90328 13.7595ZM12 14.1667V15H13V14.1667H12ZM8.00001 15V14.1667H7.00001V15H8.00001ZM7.50001 14.6667H12.5V13.6667H7.50001V14.6667ZM10 17C8.89544 17 8.00001 16.1046 8.00001 15H7.00001C7.00001 16.6569 8.34316 18 10 18V17ZM12 15C12 16.1046 11.1046 17 10 17V18C11.6569 18 13 16.6569 13 15H12Z" fill="#B4B7B8"/>
<circle cx="13.75" cy="5" r="3" fill="#FF0000" stroke="#B4B7B8"/>
</svg>
