<svg width="11" height="13" viewBox="0 0 11 13" fill="none" xmlns="http://www.w3.org/2000/svg">
<path d="M0.5 4C0.223858 4 0 4.22386 0 4.5C0 4.77614 0.223858 5 0.5 5V4ZM10.5 5C10.7761 5 11 4.77614 11 4.5C11 4.22386 10.7761 4 10.5 4V5ZM1.18237 11.8637L1.40937 11.4182H1.40937L1.18237 11.8637ZM0.636242 11.3175L0.190739 11.5445L0.636242 11.3175ZM10.3639 11.3175L9.91839 11.0905L10.3639 11.3175ZM9.81737 11.8637L9.59037 11.4182L9.81737 11.8637ZM9.81737 2.13624L10.0444 1.69074V1.69074L9.81737 2.13624ZM10.3639 2.68253L9.91839 2.90952L10.3639 2.68253ZM1.18237 2.13624L1.40937 2.58175L1.18237 2.13624ZM0.636242 2.68253L1.08175 2.90952L0.636242 2.68253ZM7.72855 7.35355C7.92382 7.15829 7.92382 6.84171 7.72855 6.64645C7.53329 6.45118 7.21671 6.45118 7.02145 6.64645L7.72855 7.35355ZM4.875 9.5L4.52145 9.85355C4.71671 10.0488 5.03329 10.0488 5.22855 9.85355L4.875 9.5ZM3.97855 7.89645C3.78329 7.70118 3.46671 7.70118 3.27145 7.89645C3.07618 8.09171 3.07618 8.40829 3.27145 8.60355L3.97855 7.89645ZM8.5 0.75C8.5 0.473858 8.27614 0.25 8 0.25C7.72386 0.25 7.5 0.473858 7.5 0.75H8.5ZM7.5 2C7.5 2.27614 7.72386 2.5 8 2.5C8.27614 2.5 8.5 2.27614 8.5 2H7.5ZM3.5 0.75C3.5 0.473858 3.27614 0.25 3 0.25C2.72386 0.25 2.5 0.473858 2.5 0.75H3.5ZM2.5 2C2.5 2.27614 2.72386 2.5 3 2.5C3.27614 2.5 3.5 2.27614 3.5 2H2.5ZM0.5 5H10.5V4H0.5V5ZM2.50012 2.5H8.50012V1.5H2.50012V2.5ZM10 3.99997V9.99997H11V3.99997H10ZM8.50012 11.5H2.50012V12.5H8.50012V11.5ZM1 9.99997V3.99997H0V9.99997H1ZM2.50012 11.5C2.14185 11.5 1.90313 11.4996 1.71971 11.4846C1.54209 11.4701 1.46081 11.4444 1.40937 11.4182L0.955378 12.3092C1.17133 12.4193 1.39889 12.4617 1.63828 12.4813C1.87186 12.5004 2.15833 12.5 2.50012 12.5V11.5ZM0 9.99997C0 10.3418 -0.000388801 10.6282 0.0186905 10.8617C0.0382461 11.1011 0.0807139 11.3286 0.190739 11.5445L1.08175 11.0905C1.05553 11.0391 1.02987 10.9578 1.01537 10.7803C1.00039 10.5969 1 10.3583 1 9.99997H0ZM1.40937 11.4182C1.26832 11.3464 1.15369 11.2317 1.08175 11.0905L0.190739 11.5445C0.358478 11.8737 0.626018 12.1414 0.955378 12.3092L1.40937 11.4182ZM10 9.99997C10 10.3583 9.99965 10.597 9.98469 10.7804C9.97021 10.9579 9.94458 11.0391 9.91839 11.0905L10.8094 11.5445C10.9194 11.3285 10.9619 11.101 10.9814 10.8616C11.0004 10.6281 11 10.3417 11 9.99997H10ZM8.50012 12.5C8.84191 12.5 9.12826 12.5004 9.36174 12.4813C9.60108 12.4617 9.82847 12.4192 10.0444 12.3092L9.59037 11.4182C9.53887 11.4445 9.45767 11.4701 9.28026 11.4846C9.09698 11.4996 8.8584 11.5 8.50012 11.5V12.5ZM9.91839 11.0905C9.84661 11.2314 9.73175 11.3462 9.59037 11.4182L10.0444 12.3092C10.3734 12.1416 10.6415 11.8741 10.8094 11.5445L9.91839 11.0905ZM8.50012 2.5C8.85841 2.5 9.09698 2.50039 9.28027 2.51537C9.45769 2.52987 9.53888 2.55551 9.59037 2.58175L10.0444 1.69074C9.82846 1.58073 9.60106 1.53825 9.36173 1.51869C9.12825 1.49961 8.8419 1.5 8.50012 1.5V2.5ZM11 3.99997C11 3.65824 11.0004 3.37184 10.9814 3.13836C10.9619 2.89903 10.9194 2.67151 10.8094 2.45553L9.91839 2.90952C9.94458 2.96093 9.97021 3.0421 9.98469 3.21963C9.99964 3.40301 10 3.64164 10 3.99997H11ZM9.59037 2.58175C9.7317 2.65375 9.84659 2.7686 9.91839 2.90952L10.8094 2.45553C10.6415 2.12604 10.3734 1.85841 10.0444 1.69074L9.59037 2.58175ZM2.50012 1.5C2.15833 1.5 1.87187 1.49961 1.63829 1.51869C1.39891 1.53824 1.17134 1.5807 0.955378 1.69074L1.40937 2.58175C1.4608 2.55554 1.54207 2.52988 1.7197 2.51537C1.90313 2.50039 2.14184 2.5 2.50012 2.5V1.5ZM1 3.99997C1 3.64169 1.00039 3.40306 1.01537 3.21971C1.02987 3.04221 1.05552 2.96099 1.08175 2.90952L0.190739 2.45553C0.0807199 2.67145 0.0382482 2.89892 0.0186909 3.13828C-0.00038892 3.37179 0 3.65819 0 3.99997H1ZM0.955378 1.69074C0.625965 1.85858 0.358451 2.12638 0.190739 2.45553L1.08175 2.90952C1.15372 2.76827 1.26838 2.65358 1.40937 2.58175L0.955378 1.69074ZM7.02145 6.64645L4.52145 9.14645L5.22855 9.85355L7.72855 7.35355L7.02145 6.64645ZM5.22855 9.14645L3.97855 7.89645L3.27145 8.60355L4.52145 9.85355L5.22855 9.14645ZM7.5 0.75V2H8.5V0.75H7.5ZM2.5 0.75V2H3.5V0.75H2.5Z" fill="#0F3C73"/>
</svg>
