<svg width="24" height="24" viewBox="0 0 24 24" fill="none" xmlns="http://www.w3.org/2000/svg">
<path d="M12.0498 15.45H12.7998C12.7998 15.0357 12.464 14.7 12.0498 14.7V15.45ZM12.0498 15.55L12.0496 16.3C12.2486 16.3 12.4394 16.221 12.5801 16.0803C12.7208 15.9397 12.7998 15.7489 12.7998 15.55H12.0498ZM11.9502 15.5499H11.2002C11.2002 15.9641 11.5359 16.2998 11.95 16.2999L11.9502 15.5499ZM11.9502 15.45V14.7C11.536 14.7 11.2002 15.0357 11.2002 15.45H11.9502ZM12.75 8.44995C12.75 8.03574 12.4142 7.69995 12 7.69995C11.5858 7.69995 11.25 8.03574 11.25 8.44995H12.75ZM11.25 12.45C11.25 12.8642 11.5858 13.2 12 13.2C12.4142 13.2 12.75 12.8642 12.75 12.45H11.25ZM12 20.25C7.44365 20.25 3.75 16.5563 3.75 12H2.25C2.25 17.3848 6.61522 21.75 12 21.75V20.25ZM3.75 12C3.75 7.44365 7.44365 3.75 12 3.75V2.25C6.61522 2.25 2.25 6.61522 2.25 12H3.75ZM12 3.75C16.5563 3.75 20.25 7.44365 20.25 12H21.75C21.75 6.61522 17.3848 2.25 12 2.25V3.75ZM20.25 12C20.25 16.5563 16.5563 20.25 12 20.25V21.75C17.3848 21.75 21.75 17.3848 21.75 12H20.25ZM11.2998 15.45V15.55H12.7998V15.45H11.2998ZM12.05 14.8L11.9504 14.7999L11.95 16.2999L12.0496 16.3L12.05 14.8ZM12.7002 15.5499V15.45H11.2002V15.5499H12.7002ZM11.9502 16.2H12.0498V14.7H11.9502V16.2ZM11.25 8.44995V12.45H12.75V8.44995H11.25Z" fill="#FF8C00"/>
</svg>
