<svg width="24" height="24" viewBox="0 0 24 24" fill="none" xmlns="http://www.w3.org/2000/svg">
<path d="M15.5303 10.5303C15.8232 10.2374 15.8232 9.76256 15.5303 9.46967C15.2374 9.17678 14.7626 9.17678 14.4697 9.46967L15.5303 10.5303ZM11 14L10.4697 14.5303C10.7626 14.8232 11.2374 14.8232 11.5303 14.5303L11 14ZM9.53033 11.4697C9.23744 11.1768 8.76256 11.1768 8.46967 11.4697C8.17678 11.7626 8.17678 12.2374 8.46967 12.5303L9.53033 11.4697ZM12 20.25C7.44365 20.25 3.75 16.5563 3.75 12H2.25C2.25 17.3848 6.61522 21.75 12 21.75V20.25ZM3.75 12C3.75 7.44365 7.44365 3.75 12 3.75V2.25C6.61522 2.25 2.25 6.61522 2.25 12H3.75ZM12 3.75C16.5563 3.75 20.25 7.44365 20.25 12H21.75C21.75 6.61522 17.3848 2.25 12 2.25V3.75ZM20.25 12C20.25 16.5563 16.5563 20.25 12 20.25V21.75C17.3848 21.75 21.75 17.3848 21.75 12H20.25ZM14.4697 9.46967L10.4697 13.4697L11.5303 14.5303L15.5303 10.5303L14.4697 9.46967ZM11.5303 13.4697L9.53033 11.4697L8.46967 12.5303L10.4697 14.5303L11.5303 13.4697Z" fill="#4BBD5C"/>
</svg>
