<svg width="13" height="14" viewBox="0 0 13 14" fill="none" xmlns="http://www.w3.org/2000/svg">
<path d="M7 3.875C7 3.59886 6.77614 3.375 6.5 3.375C6.22386 3.375 6 3.59886 6 3.875H7ZM6.5 7H6C6 7.27614 6.22386 7.5 6.5 7.5V7ZM9.625 7.5C9.90114 7.5 10.125 7.27614 10.125 7C10.125 6.72386 9.90114 6.5 9.625 6.5V7.5ZM6.5 12.125C3.66954 12.125 1.375 9.83046 1.375 7H0.375C0.375 10.3827 3.11726 13.125 6.5 13.125V12.125ZM1.375 7C1.375 4.16954 3.66954 1.875 6.5 1.875V0.875C3.11726 0.875 0.375 3.61726 0.375 7H1.375ZM6.5 1.875C9.33046 1.875 11.625 4.16954 11.625 7H12.625C12.625 3.61726 9.88274 0.875 6.5 0.875V1.875ZM11.625 7C11.625 9.83046 9.33046 12.125 6.5 12.125V13.125C9.88274 13.125 12.625 10.3827 12.625 7H11.625ZM6 3.875V7H7V3.875H6ZM6.5 7.5H9.625V6.5H6.5V7.5Z" fill="#0F3C73"/>
</svg>
