<svg width="16" height="16" viewBox="0 0 16 16" fill="none" xmlns="http://www.w3.org/2000/svg">
<path d="M6.75 6.08398L7.00725 5.65524C6.85278 5.56256 6.66041 5.56013 6.50365 5.64888C6.3469 5.73764 6.25 5.90385 6.25 6.08398H6.75ZM6.75 9.83398H6.25C6.25 10.0141 6.3469 10.1803 6.50365 10.2691C6.66041 10.3578 6.85278 10.3554 7.00725 10.2627L6.75 9.83398ZM9.875 7.95898L10.1322 8.38773C10.2829 8.29737 10.375 8.13462 10.375 7.95898C10.375 7.78335 10.2829 7.6206 10.1322 7.53024L9.875 7.95898ZM8 13.084C5.16954 13.084 2.875 10.7894 2.875 7.95898H1.875C1.875 11.3417 4.61726 14.084 8 14.084V13.084ZM2.875 7.95898C2.875 5.12853 5.16954 2.83398 8 2.83398V1.83398C4.61726 1.83398 1.875 4.57624 1.875 7.95898H2.875ZM8 2.83398C10.8305 2.83398 13.125 5.12853 13.125 7.95898H14.125C14.125 4.57624 11.3827 1.83398 8 1.83398V2.83398ZM13.125 7.95898C13.125 10.7894 10.8305 13.084 8 13.084V14.084C11.3827 14.084 14.125 11.3417 14.125 7.95898H13.125ZM6.25 6.08398V9.83398H7.25V6.08398H6.25ZM7.00725 10.2627L10.1322 8.38773L9.61775 7.53024L6.49275 9.40524L7.00725 10.2627ZM10.1322 7.53024L7.00725 5.65524L6.49275 6.51273L9.61775 8.38773L10.1322 7.53024Z" fill="#0F3C73"/>
</svg>
