<svg width="12" height="14" viewBox="0 0 12 14" fill="none" xmlns="http://www.w3.org/2000/svg">
<path d="M5 7.58398C5 7.86013 5.22386 8.08398 5.5 8.08398C5.77614 8.08398 6 7.86013 6 7.58398H5ZM6 5.08398C6 4.80784 5.77614 4.58398 5.5 4.58398C5.22386 4.58398 5 4.80784 5 5.08398H6ZM10.7714 3.56254C10.9667 3.7578 11.2833 3.7578 11.4786 3.56254C11.6738 3.36728 11.6738 3.05069 11.4786 2.85543L10.7714 3.56254ZM10.2286 1.60543C10.0333 1.41017 9.71671 1.41017 9.52145 1.60543C9.32618 1.80069 9.32618 2.11728 9.52145 2.31254L10.2286 1.60543ZM4.25 0.208984C3.97386 0.208984 3.75 0.432842 3.75 0.708984C3.75 0.985127 3.97386 1.20898 4.25 1.20898V0.208984ZM6.75 1.20898C7.02614 1.20898 7.25 0.985127 7.25 0.708984C7.25 0.432842 7.02614 0.208984 6.75 0.208984V1.20898ZM5.5 12.084C3.01472 12.084 1 10.0693 1 7.58398H0C0 10.6216 2.46243 13.084 5.5 13.084V12.084ZM1 7.58398C1 5.0987 3.01472 3.08398 5.5 3.08398V2.08398C2.46243 2.08398 0 4.54642 0 7.58398H1ZM5.5 3.08398C7.98528 3.08398 10 5.0987 10 7.58398H11C11 4.54642 8.53757 2.08398 5.5 2.08398V3.08398ZM10 7.58398C10 10.0693 7.98528 12.084 5.5 12.084V13.084C8.53757 13.084 11 10.6216 11 7.58398H10ZM6 7.58398V5.08398H5V7.58398H6ZM11.4786 2.85543L10.2286 1.60543L9.52145 2.31254L10.7714 3.56254L11.4786 2.85543ZM4.25 1.20898H6.75V0.208984H4.25V1.20898Z" fill="#0F3C73"/>
</svg>
