<svg width="24" height="24" viewBox="0 0 24 24" fill="none" xmlns="http://www.w3.org/2000/svg">
<path d="M4.37891 15.2001L5.02843 15.5751L4.37891 15.2001ZM9.22865 6.80011L8.57913 6.42511L9.22865 6.80011ZM14.7715 6.80011L15.421 6.42511L14.7715 6.80011ZM19.6212 15.2001L20.2707 14.8251L19.6212 15.2001ZM11.1863 4.17291L11.4914 4.85807V4.85807L11.1863 4.17291ZM12.8135 4.17291L12.5084 4.85807L12.8135 4.17291ZM3.89649 19.6181L3.45565 20.2249H3.45565L3.89649 19.6181ZM3.08281 18.2091L3.8287 18.1307L3.08281 18.2091ZM20.1036 19.6181L20.5445 20.2249L20.1036 19.6181ZM20.9173 18.2091L21.6632 18.2875L20.9173 18.2091ZM12.0498 16.0001H12.7998C12.7998 15.5858 12.464 15.2501 12.0498 15.2501V16.0001ZM12.0498 16.1001L12.0496 16.8501C12.2486 16.8501 12.4394 16.7711 12.5801 16.6305C12.7208 16.4898 12.7998 16.299 12.7998 16.1001H12.0498ZM11.9502 16.1H11.2002C11.2002 16.5142 11.5359 16.8499 11.95 16.85L11.9502 16.1ZM11.9502 16.0001V15.2501C11.536 15.2501 11.2002 15.5858 11.2002 16.0001H11.9502ZM12.75 9.00006C12.75 8.58584 12.4142 8.25006 12 8.25006C11.5858 8.25006 11.25 8.58584 11.25 9.00006H12.75ZM11.25 13.0001C11.25 13.4143 11.5858 13.7501 12 13.7501C12.4142 13.7501 12.75 13.4143 12.75 13.0001H11.25ZM16.8499 19.2501H7.15039V20.7501H16.8499V19.2501ZM5.02843 15.5751L9.87817 7.17511L8.57913 6.42511L3.72939 14.8251L5.02843 15.5751ZM14.122 7.17511L18.9717 15.5751L20.2707 14.8251L15.421 6.42511L14.122 7.17511ZM9.87817 7.17511C10.3403 6.37468 10.6615 5.81976 10.9385 5.42765C11.2177 5.03235 11.3833 4.90617 11.4914 4.85807L10.8813 3.48775C10.3956 3.70397 10.0371 4.10379 9.71333 4.56221C9.38724 5.02383 9.02644 5.65035 8.57913 6.42511L9.87817 7.17511ZM15.421 6.42511C14.9737 5.6503 14.6128 5.02378 14.2866 4.56213C13.9627 4.10369 13.6041 3.70394 13.1185 3.48775L12.5084 4.85807C12.6165 4.90619 12.7822 5.03244 13.0615 5.42773C13.3386 5.81981 13.6599 6.37474 14.122 7.17511L15.421 6.42511ZM11.4914 4.85807C11.815 4.71398 12.1848 4.71398 12.5084 4.85807L13.1185 3.48775C12.4065 3.17075 11.5933 3.17075 10.8813 3.48775L11.4914 4.85807ZM7.15039 19.2501C6.22617 19.2501 5.58503 19.2493 5.10703 19.2055C4.62515 19.1612 4.43304 19.0809 4.33732 19.0113L3.45565 20.2249C3.88566 20.5373 4.41107 20.6479 4.96999 20.6992C5.5328 20.7508 6.25575 20.7501 7.15039 20.7501V19.2501ZM3.72939 14.8251C3.28206 15.5999 2.91995 16.2256 2.68328 16.7389C2.44824 17.2486 2.28137 17.7589 2.33692 18.2875L3.8287 18.1307C3.81634 18.013 3.84279 17.8064 4.04542 17.367C4.24642 16.9311 4.56632 16.3755 5.02843 15.5751L3.72939 14.8251ZM4.33732 19.0113C4.05061 18.803 3.86572 18.4828 3.8287 18.1307L2.33692 18.2875C2.4184 19.0627 2.82524 19.7668 3.45565 20.2249L4.33732 19.0113ZM16.8499 20.7501C17.7445 20.7501 18.4674 20.7508 19.0302 20.6992C19.5891 20.6479 20.1145 20.5373 20.5445 20.2249L19.6628 19.0113C19.5671 19.0809 19.375 19.1612 18.8932 19.2055C18.4152 19.2493 17.7741 19.2501 16.8499 19.2501V20.7501ZM18.9717 15.5751C19.4338 16.3755 19.7537 16.9311 19.9547 17.367C20.1573 17.8064 20.1838 18.013 20.1714 18.1307L21.6632 18.2875C21.7188 17.7589 21.5519 17.2486 21.3169 16.7389C21.0802 16.2256 20.7181 15.5999 20.2707 14.8251L18.9717 15.5751ZM20.5445 20.2249C21.1749 19.7668 21.5817 19.0627 21.6632 18.2875L20.1714 18.1307C20.1344 18.4828 19.9495 18.803 19.6628 19.0113L20.5445 20.2249ZM11.2998 16.0001V16.1001H12.7998V16.0001H11.2998ZM12.05 15.3501L11.9504 15.35L11.95 16.85L12.0496 16.8501L12.05 15.3501ZM12.7002 16.1V16.0001H11.2002V16.1H12.7002ZM11.9502 16.7501H12.0498V15.2501H11.9502V16.7501ZM11.25 9.00006V13.0001H12.75V9.00006H11.25Z" fill="#D0021B"/>
</svg>
